%
M48
M72
T01C0.0236
T02C0.0315
T03C0.0394
T04C0.0400
T05C0.0787
T06C0.1417
%
T01
X8500Y7000
X12000Y8500
X12000Y7000
X6500Y1750
X14000Y4500
X7000Y9000
X6000Y17500
X9000Y2250
X16500Y5000
X9500Y1250
X7750Y5000
X23500Y12000
X23500Y12500
X9250Y14250
X21500Y18750
X19000Y7500
X19000Y9000
T02
X2250Y17500
T03
X21000Y20000
X20000Y1000
X22000Y20000
X23000Y20000
X24000Y20000
X25000Y20000
X20000Y20000
X19000Y20000
X18000Y20000
X16400Y20000
X15400Y20000
X14400Y20000
X13400Y20000
X12400Y20000
X11400Y20000
X10400Y20000
X9400Y20000
X21000Y1000
X22000Y1000
X23000Y1000
X24000Y1000
X25000Y1000
X18000Y1000
X17000Y1000
X16000Y1000
X15000Y1000
X14000Y1000
X13000Y1000
X8400Y20000
X7400Y20000
X12000Y1000
X11000Y1000
T04
X26000Y10000
X25000Y10000
X26000Y11000
X25000Y11000
X26000Y12000
X25000Y12000
X23500Y11000
X23500Y10000
X22500Y11000
X22500Y10000
X21500Y11000
X21500Y10000
X20500Y11000
X20500Y10000
X19500Y11000
X19500Y10000
X18500Y11000
X18500Y10000
X17500Y11000
X17500Y10000
X16500Y11000
X16500Y10000
X15500Y11000
X15500Y10000
X14500Y11000
X14500Y10000
X13500Y11000
X13500Y10000
X12500Y11000
X12500Y10000
X11500Y11000
X11500Y10000
X10500Y11000
X10500Y10000
X23500Y4000
X23500Y3000
X22500Y4000
X22500Y3000
X21500Y4000
X21500Y3000
X20500Y4000
X20500Y3000
X19500Y4000
X19500Y3000
X18500Y4000
X18500Y3000
X17500Y4000
X17500Y3000
X16500Y4000
X16500Y3000
X15500Y4000
X15500Y3000
X14500Y4000
X14500Y3000
X13500Y4000
X13500Y3000
X12500Y4000
X12500Y3000
X11500Y4000
X11500Y3000
X10500Y4000
X10500Y3000
X9500Y9000
X10500Y9000
X9500Y8000
X10500Y8000
X9500Y7000
X10500Y7000
X9500Y6000
X10500Y6000
X9500Y5000
X10500Y5000
X7000Y2430
X7000Y3570
X20500Y5000
X19500Y5000
X18500Y5000
X610Y10970
X610Y13530
X2390Y10970
X2390Y13530
T05
X2250Y14900
X2250Y20100
T06
X6000Y20000
X26000Y14000
X26000Y3000
X5500Y1000
M30
