G75*
G70*
%OFA0B0*%
%FSLAX24Y24*%
%IPPOS*%
%LPD*%
%AMOC8*
5,1,8,0,0,1.08239X$1,22.5*
%
%ADD10C,0.0000*%
%ADD11C,0.0070*%
%ADD12C,0.0030*%
%ADD13C,0.0100*%
%ADD14C,0.0060*%
%ADD15C,0.0040*%
%ADD16C,0.0020*%
%ADD17C,0.0050*%
%ADD18C,0.0080*%
%ADD19R,0.4200X0.0300*%
%ADD20R,0.0750X0.0200*%
%ADD21R,0.0300X0.0200*%
%ADD22C,0.0010*%
D10*
X000930Y005893D02*
X000930Y037389D01*
X040300Y037389D01*
X040300Y005893D01*
X000930Y005893D01*
X001463Y007403D02*
X001465Y007456D01*
X001471Y007509D01*
X001481Y007561D01*
X001494Y007612D01*
X001512Y007662D01*
X001533Y007711D01*
X001558Y007758D01*
X001586Y007802D01*
X001618Y007845D01*
X001652Y007885D01*
X001690Y007923D01*
X001730Y007957D01*
X001773Y007989D01*
X001818Y008017D01*
X001864Y008042D01*
X001913Y008063D01*
X001963Y008081D01*
X002014Y008094D01*
X002066Y008104D01*
X002119Y008110D01*
X002172Y008112D01*
X002225Y008110D01*
X002278Y008104D01*
X002330Y008094D01*
X002381Y008081D01*
X002431Y008063D01*
X002480Y008042D01*
X002527Y008017D01*
X002571Y007989D01*
X002614Y007957D01*
X002654Y007923D01*
X002692Y007885D01*
X002726Y007845D01*
X002758Y007802D01*
X002786Y007757D01*
X002811Y007711D01*
X002832Y007662D01*
X002850Y007612D01*
X002863Y007561D01*
X002873Y007509D01*
X002879Y007456D01*
X002881Y007403D01*
X002879Y007350D01*
X002873Y007297D01*
X002863Y007245D01*
X002850Y007194D01*
X002832Y007144D01*
X002811Y007095D01*
X002786Y007048D01*
X002758Y007004D01*
X002726Y006961D01*
X002692Y006921D01*
X002654Y006883D01*
X002614Y006849D01*
X002571Y006817D01*
X002526Y006789D01*
X002480Y006764D01*
X002431Y006743D01*
X002381Y006725D01*
X002330Y006712D01*
X002278Y006702D01*
X002225Y006696D01*
X002172Y006694D01*
X002119Y006696D01*
X002066Y006702D01*
X002014Y006712D01*
X001963Y006725D01*
X001913Y006743D01*
X001864Y006764D01*
X001817Y006789D01*
X001773Y006817D01*
X001730Y006849D01*
X001690Y006883D01*
X001652Y006921D01*
X001618Y006961D01*
X001586Y007004D01*
X001558Y007049D01*
X001533Y007095D01*
X001512Y007144D01*
X001494Y007194D01*
X001481Y007245D01*
X001471Y007297D01*
X001465Y007350D01*
X001463Y007403D01*
X017971Y023143D02*
X017973Y023196D01*
X017979Y023249D01*
X017989Y023301D01*
X018002Y023352D01*
X018020Y023402D01*
X018041Y023451D01*
X018066Y023498D01*
X018094Y023542D01*
X018126Y023585D01*
X018160Y023625D01*
X018198Y023663D01*
X018238Y023697D01*
X018281Y023729D01*
X018326Y023757D01*
X018372Y023782D01*
X018421Y023803D01*
X018471Y023821D01*
X018522Y023834D01*
X018574Y023844D01*
X018627Y023850D01*
X018680Y023852D01*
X018733Y023850D01*
X018786Y023844D01*
X018838Y023834D01*
X018889Y023821D01*
X018939Y023803D01*
X018988Y023782D01*
X019035Y023757D01*
X019079Y023729D01*
X019122Y023697D01*
X019162Y023663D01*
X019200Y023625D01*
X019234Y023585D01*
X019266Y023542D01*
X019294Y023497D01*
X019319Y023451D01*
X019340Y023402D01*
X019358Y023352D01*
X019371Y023301D01*
X019381Y023249D01*
X019387Y023196D01*
X019389Y023143D01*
X019387Y023090D01*
X019381Y023037D01*
X019371Y022985D01*
X019358Y022934D01*
X019340Y022884D01*
X019319Y022835D01*
X019294Y022788D01*
X019266Y022744D01*
X019234Y022701D01*
X019200Y022661D01*
X019162Y022623D01*
X019122Y022589D01*
X019079Y022557D01*
X019034Y022529D01*
X018988Y022504D01*
X018939Y022483D01*
X018889Y022465D01*
X018838Y022452D01*
X018786Y022442D01*
X018733Y022436D01*
X018680Y022434D01*
X018627Y022436D01*
X018574Y022442D01*
X018522Y022452D01*
X018471Y022465D01*
X018421Y022483D01*
X018372Y022504D01*
X018325Y022529D01*
X018281Y022557D01*
X018238Y022589D01*
X018198Y022623D01*
X018160Y022661D01*
X018126Y022701D01*
X018094Y022744D01*
X018066Y022789D01*
X018041Y022835D01*
X018020Y022884D01*
X018002Y022934D01*
X017989Y022985D01*
X017979Y023037D01*
X017973Y023090D01*
X017971Y023143D01*
X017971Y034143D02*
X017973Y034196D01*
X017979Y034249D01*
X017989Y034301D01*
X018002Y034352D01*
X018020Y034402D01*
X018041Y034451D01*
X018066Y034498D01*
X018094Y034542D01*
X018126Y034585D01*
X018160Y034625D01*
X018198Y034663D01*
X018238Y034697D01*
X018281Y034729D01*
X018326Y034757D01*
X018372Y034782D01*
X018421Y034803D01*
X018471Y034821D01*
X018522Y034834D01*
X018574Y034844D01*
X018627Y034850D01*
X018680Y034852D01*
X018733Y034850D01*
X018786Y034844D01*
X018838Y034834D01*
X018889Y034821D01*
X018939Y034803D01*
X018988Y034782D01*
X019035Y034757D01*
X019079Y034729D01*
X019122Y034697D01*
X019162Y034663D01*
X019200Y034625D01*
X019234Y034585D01*
X019266Y034542D01*
X019294Y034497D01*
X019319Y034451D01*
X019340Y034402D01*
X019358Y034352D01*
X019371Y034301D01*
X019381Y034249D01*
X019387Y034196D01*
X019389Y034143D01*
X019387Y034090D01*
X019381Y034037D01*
X019371Y033985D01*
X019358Y033934D01*
X019340Y033884D01*
X019319Y033835D01*
X019294Y033788D01*
X019266Y033744D01*
X019234Y033701D01*
X019200Y033661D01*
X019162Y033623D01*
X019122Y033589D01*
X019079Y033557D01*
X019034Y033529D01*
X018988Y033504D01*
X018939Y033483D01*
X018889Y033465D01*
X018838Y033452D01*
X018786Y033442D01*
X018733Y033436D01*
X018680Y033434D01*
X018627Y033436D01*
X018574Y033442D01*
X018522Y033452D01*
X018471Y033465D01*
X018421Y033483D01*
X018372Y033504D01*
X018325Y033529D01*
X018281Y033557D01*
X018238Y033589D01*
X018198Y033623D01*
X018160Y033661D01*
X018126Y033701D01*
X018094Y033744D01*
X018066Y033789D01*
X018041Y033835D01*
X018020Y033884D01*
X018002Y033934D01*
X017989Y033985D01*
X017979Y034037D01*
X017973Y034090D01*
X017971Y034143D01*
X001463Y036143D02*
X001465Y036196D01*
X001471Y036249D01*
X001481Y036301D01*
X001494Y036352D01*
X001512Y036402D01*
X001533Y036451D01*
X001558Y036498D01*
X001586Y036542D01*
X001618Y036585D01*
X001652Y036625D01*
X001690Y036663D01*
X001730Y036697D01*
X001773Y036729D01*
X001818Y036757D01*
X001864Y036782D01*
X001913Y036803D01*
X001963Y036821D01*
X002014Y036834D01*
X002066Y036844D01*
X002119Y036850D01*
X002172Y036852D01*
X002225Y036850D01*
X002278Y036844D01*
X002330Y036834D01*
X002381Y036821D01*
X002431Y036803D01*
X002480Y036782D01*
X002527Y036757D01*
X002571Y036729D01*
X002614Y036697D01*
X002654Y036663D01*
X002692Y036625D01*
X002726Y036585D01*
X002758Y036542D01*
X002786Y036497D01*
X002811Y036451D01*
X002832Y036402D01*
X002850Y036352D01*
X002863Y036301D01*
X002873Y036249D01*
X002879Y036196D01*
X002881Y036143D01*
X002879Y036090D01*
X002873Y036037D01*
X002863Y035985D01*
X002850Y035934D01*
X002832Y035884D01*
X002811Y035835D01*
X002786Y035788D01*
X002758Y035744D01*
X002726Y035701D01*
X002692Y035661D01*
X002654Y035623D01*
X002614Y035589D01*
X002571Y035557D01*
X002526Y035529D01*
X002480Y035504D01*
X002431Y035483D01*
X002381Y035465D01*
X002330Y035452D01*
X002278Y035442D01*
X002225Y035436D01*
X002172Y035434D01*
X002119Y035436D01*
X002066Y035442D01*
X002014Y035452D01*
X001963Y035465D01*
X001913Y035483D01*
X001864Y035504D01*
X001817Y035529D01*
X001773Y035557D01*
X001730Y035589D01*
X001690Y035623D01*
X001652Y035661D01*
X001618Y035701D01*
X001586Y035744D01*
X001558Y035789D01*
X001533Y035835D01*
X001512Y035884D01*
X001494Y035934D01*
X001481Y035985D01*
X001471Y036037D01*
X001465Y036090D01*
X001463Y036143D01*
X038471Y036143D02*
X038473Y036196D01*
X038479Y036249D01*
X038489Y036301D01*
X038502Y036352D01*
X038520Y036402D01*
X038541Y036451D01*
X038566Y036498D01*
X038594Y036542D01*
X038626Y036585D01*
X038660Y036625D01*
X038698Y036663D01*
X038738Y036697D01*
X038781Y036729D01*
X038826Y036757D01*
X038872Y036782D01*
X038921Y036803D01*
X038971Y036821D01*
X039022Y036834D01*
X039074Y036844D01*
X039127Y036850D01*
X039180Y036852D01*
X039233Y036850D01*
X039286Y036844D01*
X039338Y036834D01*
X039389Y036821D01*
X039439Y036803D01*
X039488Y036782D01*
X039535Y036757D01*
X039579Y036729D01*
X039622Y036697D01*
X039662Y036663D01*
X039700Y036625D01*
X039734Y036585D01*
X039766Y036542D01*
X039794Y036497D01*
X039819Y036451D01*
X039840Y036402D01*
X039858Y036352D01*
X039871Y036301D01*
X039881Y036249D01*
X039887Y036196D01*
X039889Y036143D01*
X039887Y036090D01*
X039881Y036037D01*
X039871Y035985D01*
X039858Y035934D01*
X039840Y035884D01*
X039819Y035835D01*
X039794Y035788D01*
X039766Y035744D01*
X039734Y035701D01*
X039700Y035661D01*
X039662Y035623D01*
X039622Y035589D01*
X039579Y035557D01*
X039534Y035529D01*
X039488Y035504D01*
X039439Y035483D01*
X039389Y035465D01*
X039338Y035452D01*
X039286Y035442D01*
X039233Y035436D01*
X039180Y035434D01*
X039127Y035436D01*
X039074Y035442D01*
X039022Y035452D01*
X038971Y035465D01*
X038921Y035483D01*
X038872Y035504D01*
X038825Y035529D01*
X038781Y035557D01*
X038738Y035589D01*
X038698Y035623D01*
X038660Y035661D01*
X038626Y035701D01*
X038594Y035744D01*
X038566Y035789D01*
X038541Y035835D01*
X038520Y035884D01*
X038502Y035934D01*
X038489Y035985D01*
X038479Y036037D01*
X038473Y036090D01*
X038471Y036143D01*
X037971Y017143D02*
X037973Y017196D01*
X037979Y017249D01*
X037989Y017301D01*
X038002Y017352D01*
X038020Y017402D01*
X038041Y017451D01*
X038066Y017498D01*
X038094Y017542D01*
X038126Y017585D01*
X038160Y017625D01*
X038198Y017663D01*
X038238Y017697D01*
X038281Y017729D01*
X038326Y017757D01*
X038372Y017782D01*
X038421Y017803D01*
X038471Y017821D01*
X038522Y017834D01*
X038574Y017844D01*
X038627Y017850D01*
X038680Y017852D01*
X038733Y017850D01*
X038786Y017844D01*
X038838Y017834D01*
X038889Y017821D01*
X038939Y017803D01*
X038988Y017782D01*
X039035Y017757D01*
X039079Y017729D01*
X039122Y017697D01*
X039162Y017663D01*
X039200Y017625D01*
X039234Y017585D01*
X039266Y017542D01*
X039294Y017497D01*
X039319Y017451D01*
X039340Y017402D01*
X039358Y017352D01*
X039371Y017301D01*
X039381Y017249D01*
X039387Y017196D01*
X039389Y017143D01*
X039387Y017090D01*
X039381Y017037D01*
X039371Y016985D01*
X039358Y016934D01*
X039340Y016884D01*
X039319Y016835D01*
X039294Y016788D01*
X039266Y016744D01*
X039234Y016701D01*
X039200Y016661D01*
X039162Y016623D01*
X039122Y016589D01*
X039079Y016557D01*
X039034Y016529D01*
X038988Y016504D01*
X038939Y016483D01*
X038889Y016465D01*
X038838Y016452D01*
X038786Y016442D01*
X038733Y016436D01*
X038680Y016434D01*
X038627Y016436D01*
X038574Y016442D01*
X038522Y016452D01*
X038471Y016465D01*
X038421Y016483D01*
X038372Y016504D01*
X038325Y016529D01*
X038281Y016557D01*
X038238Y016589D01*
X038198Y016623D01*
X038160Y016661D01*
X038126Y016701D01*
X038094Y016744D01*
X038066Y016789D01*
X038041Y016835D01*
X038020Y016884D01*
X038002Y016934D01*
X037989Y016985D01*
X037979Y017037D01*
X037973Y017090D01*
X037971Y017143D01*
X038471Y007403D02*
X038473Y007456D01*
X038479Y007509D01*
X038489Y007561D01*
X038502Y007612D01*
X038520Y007662D01*
X038541Y007711D01*
X038566Y007758D01*
X038594Y007802D01*
X038626Y007845D01*
X038660Y007885D01*
X038698Y007923D01*
X038738Y007957D01*
X038781Y007989D01*
X038826Y008017D01*
X038872Y008042D01*
X038921Y008063D01*
X038971Y008081D01*
X039022Y008094D01*
X039074Y008104D01*
X039127Y008110D01*
X039180Y008112D01*
X039233Y008110D01*
X039286Y008104D01*
X039338Y008094D01*
X039389Y008081D01*
X039439Y008063D01*
X039488Y008042D01*
X039535Y008017D01*
X039579Y007989D01*
X039622Y007957D01*
X039662Y007923D01*
X039700Y007885D01*
X039734Y007845D01*
X039766Y007802D01*
X039794Y007757D01*
X039819Y007711D01*
X039840Y007662D01*
X039858Y007612D01*
X039871Y007561D01*
X039881Y007509D01*
X039887Y007456D01*
X039889Y007403D01*
X039887Y007350D01*
X039881Y007297D01*
X039871Y007245D01*
X039858Y007194D01*
X039840Y007144D01*
X039819Y007095D01*
X039794Y007048D01*
X039766Y007004D01*
X039734Y006961D01*
X039700Y006921D01*
X039662Y006883D01*
X039622Y006849D01*
X039579Y006817D01*
X039534Y006789D01*
X039488Y006764D01*
X039439Y006743D01*
X039389Y006725D01*
X039338Y006712D01*
X039286Y006702D01*
X039233Y006696D01*
X039180Y006694D01*
X039127Y006696D01*
X039074Y006702D01*
X039022Y006712D01*
X038971Y006725D01*
X038921Y006743D01*
X038872Y006764D01*
X038825Y006789D01*
X038781Y006817D01*
X038738Y006849D01*
X038698Y006883D01*
X038660Y006921D01*
X038626Y006961D01*
X038594Y007004D01*
X038566Y007049D01*
X038541Y007095D01*
X038520Y007144D01*
X038502Y007194D01*
X038489Y007245D01*
X038479Y007297D01*
X038473Y007350D01*
X038471Y007403D01*
D11*
X040000Y023178D02*
X040000Y023705D01*
X040263Y023442D02*
X039736Y023442D01*
X040000Y025554D02*
X040000Y026081D01*
X035963Y025052D02*
X035963Y024725D01*
X035885Y024298D02*
X035885Y023971D01*
X035721Y024135D02*
X036048Y024135D01*
D12*
X035784Y024685D02*
X035784Y026102D01*
X035391Y026102D01*
X035115Y026102D01*
X035076Y026102D01*
X035076Y024685D01*
X035115Y024685D01*
X035784Y024685D01*
X035784Y026435D02*
X035784Y027852D01*
X035745Y027852D01*
X035076Y027852D01*
X035076Y026435D01*
X035469Y026435D01*
X035745Y026435D01*
X035784Y026435D01*
X034784Y028185D02*
X034745Y028185D01*
X034469Y028185D01*
X034076Y028185D01*
X034076Y029602D01*
X034745Y029602D01*
X034784Y029602D01*
X034784Y028185D01*
X033784Y028185D02*
X033784Y029602D01*
X033745Y029602D01*
X033076Y029602D01*
X033076Y028185D01*
X033469Y028185D01*
X033745Y028185D01*
X033784Y028185D01*
X032284Y028185D02*
X032284Y029602D01*
X031891Y029602D01*
X031615Y029602D01*
X031576Y029602D01*
X031576Y028185D01*
X031615Y028185D01*
X032284Y028185D01*
X031284Y028185D02*
X031284Y029602D01*
X030891Y029602D01*
X030615Y029602D01*
X030576Y029602D01*
X030576Y028185D01*
X030615Y028185D01*
X031284Y028185D01*
X030284Y027852D02*
X029891Y027852D01*
X029615Y027852D01*
X029576Y027852D01*
X029576Y026435D01*
X029615Y026435D01*
X030284Y026435D01*
X030284Y027852D01*
X030284Y026102D02*
X029891Y026102D01*
X029615Y026102D01*
X029576Y026102D01*
X029576Y024685D01*
X029615Y024685D01*
X030284Y024685D01*
X030284Y026102D01*
X030218Y023085D02*
X030218Y022900D01*
X030280Y022838D01*
X030404Y022838D01*
X030465Y022900D01*
X030465Y023085D01*
X030095Y023085D01*
X030095Y022716D02*
X030218Y022593D01*
X030095Y022470D01*
X030465Y022470D01*
X030465Y022348D02*
X030342Y022225D01*
X030465Y022101D01*
X030095Y022101D01*
X030095Y022348D02*
X030465Y022348D01*
X030465Y022716D02*
X030095Y022716D01*
X029465Y022716D02*
X029465Y022531D01*
X029404Y022470D01*
X029280Y022470D01*
X029218Y022531D01*
X029218Y022716D01*
X029095Y022716D02*
X029465Y022716D01*
X029465Y022348D02*
X029095Y022348D01*
X029218Y022225D01*
X029095Y022101D01*
X029465Y022101D01*
X029465Y021980D02*
X029342Y021856D01*
X029465Y021733D01*
X029095Y021733D01*
X029095Y021980D02*
X029465Y021980D01*
X030095Y021488D02*
X030465Y021488D01*
X030465Y021611D02*
X030465Y021365D01*
X030465Y021243D02*
X030095Y020996D01*
X030095Y020875D02*
X030342Y020628D01*
X030404Y020628D01*
X030465Y020690D01*
X030465Y020813D01*
X030404Y020875D01*
X030465Y020996D02*
X030095Y021243D01*
X030095Y020875D02*
X030095Y020628D01*
X030157Y020138D02*
X030095Y020076D01*
X030095Y019953D01*
X030157Y019891D01*
X030157Y019770D02*
X030095Y019708D01*
X030095Y019585D01*
X030157Y019523D01*
X030218Y019523D01*
X030280Y019585D01*
X030280Y019708D01*
X030342Y019770D01*
X030404Y019770D01*
X030465Y019708D01*
X030465Y019585D01*
X030404Y019523D01*
X030404Y019402D02*
X030157Y019402D01*
X030404Y019155D01*
X030157Y019155D01*
X030095Y019216D01*
X030095Y019340D01*
X030157Y019402D01*
X030404Y019402D02*
X030465Y019340D01*
X030465Y019216D01*
X030404Y019155D01*
X030342Y018665D02*
X030465Y018542D01*
X030095Y018542D01*
X030095Y018665D02*
X030095Y018418D01*
X030157Y018297D02*
X030404Y018050D01*
X030157Y018050D01*
X030095Y018111D01*
X030095Y018235D01*
X030157Y018297D01*
X030404Y018297D01*
X030465Y018235D01*
X030465Y018111D01*
X030404Y018050D01*
X031095Y018050D02*
X031095Y018297D01*
X031095Y018418D02*
X031095Y018665D01*
X031095Y018541D02*
X031465Y018541D01*
X031342Y018665D01*
X031342Y018297D02*
X031465Y018173D01*
X031095Y018173D01*
X031095Y019155D02*
X031095Y019279D01*
X031095Y019217D02*
X031465Y019217D01*
X031465Y019279D02*
X031465Y019155D01*
X031404Y019400D02*
X031465Y019462D01*
X031465Y019585D01*
X031404Y019647D01*
X031342Y019647D01*
X031280Y019585D01*
X031280Y019462D01*
X031218Y019400D01*
X031157Y019400D01*
X031095Y019462D01*
X031095Y019585D01*
X031157Y019647D01*
X031157Y019769D02*
X031404Y019769D01*
X031465Y019830D01*
X031465Y019954D01*
X031404Y020015D01*
X031157Y020015D01*
X031095Y019954D01*
X031095Y019830D01*
X031157Y019769D01*
X031095Y020137D02*
X031465Y020137D01*
X031342Y020260D01*
X031465Y020384D01*
X031095Y020384D01*
X030465Y020076D02*
X030465Y019953D01*
X030404Y019891D01*
X030465Y020076D02*
X030404Y020138D01*
X030157Y020138D01*
X029465Y020321D02*
X029465Y020445D01*
X029404Y020507D01*
X029465Y020628D02*
X029095Y020875D01*
X029095Y020996D02*
X029218Y021120D01*
X029218Y021058D02*
X029218Y021243D01*
X029095Y021243D02*
X029465Y021243D01*
X029465Y021058D01*
X029404Y020996D01*
X029280Y020996D01*
X029218Y021058D01*
X029465Y020875D02*
X029095Y020628D01*
X029095Y020507D02*
X029342Y020260D01*
X029404Y020260D01*
X029465Y020321D01*
X029095Y020260D02*
X029095Y020507D01*
X029157Y019770D02*
X029095Y019708D01*
X029095Y019585D01*
X029157Y019523D01*
X029157Y019402D02*
X029095Y019340D01*
X029095Y019216D01*
X029157Y019155D01*
X029218Y019155D01*
X029280Y019216D01*
X029280Y019340D01*
X029342Y019402D01*
X029404Y019402D01*
X029465Y019340D01*
X029465Y019216D01*
X029404Y019155D01*
X029342Y019033D02*
X029465Y018910D01*
X029095Y018910D01*
X029095Y019033D02*
X029095Y018786D01*
X029157Y018297D02*
X029095Y018235D01*
X029095Y018111D01*
X029157Y018050D01*
X029404Y018050D01*
X029465Y018111D01*
X029465Y018235D01*
X029404Y018297D01*
X029342Y018297D01*
X029280Y018235D01*
X029280Y018050D01*
X028465Y018111D02*
X028404Y018050D01*
X028342Y018050D01*
X028280Y018111D01*
X028280Y018235D01*
X028342Y018297D01*
X028404Y018297D01*
X028465Y018235D01*
X028465Y018111D01*
X028280Y018111D02*
X028218Y018050D01*
X028157Y018050D01*
X028095Y018111D01*
X028095Y018235D01*
X028157Y018297D01*
X028218Y018297D01*
X028280Y018235D01*
X028218Y018786D02*
X028157Y018786D01*
X028095Y018848D01*
X028095Y018972D01*
X028157Y019033D01*
X028095Y019155D02*
X028465Y019402D01*
X028465Y019523D02*
X028465Y019770D01*
X028465Y019646D02*
X028095Y019646D01*
X028095Y019402D02*
X028465Y019155D01*
X028404Y019033D02*
X028465Y018972D01*
X028465Y018848D01*
X028404Y018786D01*
X028342Y018786D01*
X028280Y018848D01*
X028218Y018786D01*
X028280Y018848D02*
X028280Y018910D01*
X029157Y019770D02*
X029404Y019770D01*
X029465Y019708D01*
X029465Y019585D01*
X029404Y019523D01*
X026865Y019585D02*
X026804Y019523D01*
X026680Y019523D01*
X026618Y019585D01*
X026618Y019770D01*
X026495Y019770D02*
X026865Y019770D01*
X026865Y019585D01*
X026865Y019402D02*
X026495Y019155D01*
X026557Y019033D02*
X026495Y018972D01*
X026495Y018848D01*
X026557Y018786D01*
X026618Y018786D01*
X026680Y018848D01*
X026680Y018910D01*
X026680Y018848D02*
X026742Y018786D01*
X026804Y018786D01*
X026865Y018848D01*
X026865Y018972D01*
X026804Y019033D01*
X026865Y019155D02*
X026495Y019402D01*
X026495Y019523D02*
X026618Y019646D01*
X025865Y019585D02*
X025804Y019523D01*
X025680Y019523D01*
X025618Y019585D01*
X025618Y019770D01*
X025495Y019770D02*
X025865Y019770D01*
X025865Y019585D01*
X025865Y019402D02*
X025495Y019402D01*
X025618Y019278D01*
X025495Y019155D01*
X025865Y019155D01*
X025865Y019033D02*
X025742Y018910D01*
X025865Y018786D01*
X025495Y018786D01*
X025495Y019033D02*
X025865Y019033D01*
X025680Y018297D02*
X025680Y018111D01*
X025618Y018050D01*
X025557Y018050D01*
X025495Y018111D01*
X025495Y018235D01*
X025557Y018297D01*
X025680Y018297D01*
X025804Y018173D01*
X025865Y018050D01*
X024865Y018050D02*
X024865Y018297D01*
X024680Y018297D01*
X024742Y018173D01*
X024742Y018111D01*
X024680Y018050D01*
X024557Y018050D01*
X024495Y018111D01*
X024495Y018235D01*
X024557Y018297D01*
X024495Y018786D02*
X024865Y018786D01*
X024742Y018910D01*
X024865Y019033D01*
X024495Y019033D01*
X024495Y019155D02*
X024865Y019155D01*
X024865Y019402D02*
X024495Y019402D01*
X024618Y019278D01*
X024495Y019155D01*
X024680Y019523D02*
X024618Y019585D01*
X024618Y019770D01*
X024495Y019770D02*
X024865Y019770D01*
X024865Y019585D01*
X024804Y019523D01*
X024680Y019523D01*
X023865Y019585D02*
X023804Y019523D01*
X023680Y019523D01*
X023618Y019585D01*
X023618Y019770D01*
X023495Y019770D02*
X023865Y019770D01*
X023865Y019585D01*
X023865Y019402D02*
X023495Y019402D01*
X023618Y019278D01*
X023495Y019155D01*
X023865Y019155D01*
X023865Y019033D02*
X023495Y019033D01*
X023495Y018786D02*
X023865Y018786D01*
X023742Y018910D01*
X023865Y019033D01*
X023680Y018297D02*
X023680Y018050D01*
X023495Y018111D02*
X023865Y018111D01*
X023680Y018297D01*
X022865Y018235D02*
X022865Y018111D01*
X022804Y018050D01*
X022742Y018050D01*
X022680Y018111D01*
X022618Y018050D01*
X022557Y018050D01*
X022495Y018111D01*
X022495Y018235D01*
X022557Y018297D01*
X022680Y018173D02*
X022680Y018111D01*
X022865Y018235D02*
X022804Y018297D01*
X022865Y018786D02*
X022495Y018786D01*
X022495Y019033D02*
X022865Y019033D01*
X022742Y018910D01*
X022865Y018786D01*
X022865Y019155D02*
X022495Y019155D01*
X022618Y019278D01*
X022495Y019402D01*
X022865Y019402D01*
X022804Y019523D02*
X022680Y019523D01*
X022618Y019585D01*
X022618Y019770D01*
X022495Y019770D02*
X022865Y019770D01*
X022865Y019585D01*
X022804Y019523D01*
X021804Y018297D02*
X021865Y018235D01*
X021865Y018111D01*
X021804Y018050D01*
X021742Y018050D01*
X021495Y018297D01*
X021495Y018050D01*
X020865Y018173D02*
X020495Y018173D01*
X020495Y018050D02*
X020495Y018297D01*
X020742Y018297D02*
X020865Y018173D01*
X020495Y018786D02*
X020495Y019033D01*
X020495Y019155D02*
X020865Y019402D01*
X020865Y019523D02*
X020865Y019770D01*
X020865Y019646D02*
X020495Y019646D01*
X020495Y019402D02*
X020865Y019155D01*
X020742Y019033D02*
X020865Y018910D01*
X020495Y018910D01*
X019865Y018910D02*
X019495Y018910D01*
X019495Y019033D02*
X019495Y018786D01*
X019742Y019033D02*
X019865Y018910D01*
X019865Y019155D02*
X019495Y019402D01*
X019495Y019523D02*
X019618Y019646D01*
X019618Y019585D02*
X019618Y019770D01*
X019495Y019770D02*
X019865Y019770D01*
X019865Y019585D01*
X019804Y019523D01*
X019680Y019523D01*
X019618Y019585D01*
X019865Y019402D02*
X019495Y019155D01*
X019557Y018297D02*
X019804Y018050D01*
X019557Y018050D01*
X019495Y018111D01*
X019495Y018235D01*
X019557Y018297D01*
X019804Y018297D01*
X019865Y018235D01*
X019865Y018111D01*
X019804Y018050D01*
X017889Y017933D02*
X017889Y017539D01*
X016471Y017539D01*
X016471Y018208D01*
X016471Y018248D01*
X017889Y018248D01*
X017889Y018208D01*
X017889Y017933D01*
X017284Y016102D02*
X016891Y016102D01*
X016615Y016102D01*
X016576Y016102D01*
X016576Y014685D01*
X016615Y014685D01*
X017284Y014685D01*
X017284Y016102D01*
X018743Y014352D02*
X018695Y014303D01*
X018695Y014207D01*
X018743Y014158D01*
X018888Y014158D01*
X018888Y014110D02*
X018888Y014352D01*
X018743Y014352D01*
X018990Y014352D02*
X019038Y014352D01*
X019038Y014158D01*
X018990Y014158D02*
X019086Y014158D01*
X019234Y014207D02*
X019283Y014158D01*
X019234Y014207D02*
X019234Y014400D01*
X019186Y014352D02*
X019283Y014352D01*
X019383Y014303D02*
X019431Y014352D01*
X019528Y014352D01*
X019576Y014303D01*
X019576Y014158D01*
X019677Y014207D02*
X019726Y014158D01*
X019871Y014158D01*
X019871Y014352D01*
X019972Y014352D02*
X020117Y014352D01*
X020165Y014303D01*
X020165Y014207D01*
X020117Y014158D01*
X019972Y014158D01*
X019972Y014449D01*
X019677Y014352D02*
X019677Y014207D01*
X019383Y014158D02*
X019383Y014449D01*
X019038Y014449D02*
X019038Y014497D01*
X018888Y014110D02*
X018840Y014062D01*
X018792Y014062D01*
X020266Y014158D02*
X020315Y014158D01*
X020315Y014207D01*
X020266Y014207D01*
X020266Y014158D01*
X020414Y014207D02*
X020462Y014158D01*
X020607Y014158D01*
X020708Y014207D02*
X020757Y014158D01*
X020854Y014158D01*
X020902Y014207D01*
X020902Y014303D01*
X020854Y014352D01*
X020757Y014352D01*
X020708Y014303D01*
X020708Y014207D01*
X020607Y014352D02*
X020462Y014352D01*
X020414Y014303D01*
X020414Y014207D01*
X021003Y014158D02*
X021003Y014352D01*
X021051Y014352D01*
X021100Y014303D01*
X021148Y014352D01*
X021197Y014303D01*
X021197Y014158D01*
X021100Y014158D02*
X021100Y014303D01*
X021298Y014158D02*
X021491Y014449D01*
X021592Y014352D02*
X021689Y014352D01*
X021641Y014400D02*
X021641Y014207D01*
X021689Y014158D01*
X021789Y014158D02*
X021789Y014449D01*
X021837Y014352D02*
X021934Y014352D01*
X021982Y014303D01*
X021982Y014158D01*
X022083Y014207D02*
X022083Y014303D01*
X022132Y014352D01*
X022229Y014352D01*
X022277Y014303D01*
X022277Y014255D01*
X022083Y014255D01*
X022083Y014207D02*
X022132Y014158D01*
X022229Y014158D01*
X022378Y014207D02*
X022427Y014158D01*
X022475Y014207D01*
X022523Y014158D01*
X022572Y014207D01*
X022572Y014352D01*
X022673Y014449D02*
X022673Y014158D01*
X022673Y014255D02*
X022818Y014352D01*
X022918Y014352D02*
X023063Y014352D01*
X023112Y014303D01*
X023112Y014158D01*
X023213Y014207D02*
X023213Y014303D01*
X023261Y014352D01*
X023406Y014352D01*
X023406Y014449D02*
X023406Y014158D01*
X023261Y014158D01*
X023213Y014207D01*
X023508Y014158D02*
X023701Y014449D01*
X023802Y014449D02*
X023996Y014449D01*
X023899Y014449D02*
X023899Y014158D01*
X024097Y014207D02*
X024097Y014303D01*
X024145Y014352D01*
X024242Y014352D01*
X024290Y014303D01*
X024290Y014255D01*
X024097Y014255D01*
X024097Y014207D02*
X024145Y014158D01*
X024242Y014158D01*
X024392Y014207D02*
X024392Y014303D01*
X024440Y014352D01*
X024537Y014352D01*
X024585Y014303D01*
X024585Y014255D01*
X024392Y014255D01*
X024392Y014207D02*
X024440Y014158D01*
X024537Y014158D01*
X024686Y014158D02*
X024686Y014352D01*
X024831Y014352D01*
X024880Y014303D01*
X024880Y014158D01*
X024981Y014158D02*
X025126Y014158D01*
X025174Y014207D01*
X025126Y014255D01*
X025029Y014255D01*
X024981Y014303D01*
X025029Y014352D01*
X025174Y014352D01*
X025276Y014352D02*
X025276Y014207D01*
X025324Y014158D01*
X025469Y014158D01*
X025469Y014110D02*
X025421Y014062D01*
X025372Y014062D01*
X025469Y014110D02*
X025469Y014352D01*
X025570Y014400D02*
X025619Y014449D01*
X025715Y014449D01*
X025764Y014400D01*
X025764Y014352D01*
X025715Y014303D01*
X025764Y014255D01*
X025764Y014207D01*
X025715Y014158D01*
X025619Y014158D01*
X025570Y014207D01*
X025667Y014303D02*
X025715Y014303D01*
X025865Y014207D02*
X025913Y014207D01*
X025913Y014158D01*
X025865Y014158D01*
X025865Y014207D01*
X026012Y014207D02*
X026206Y014400D01*
X026206Y014207D01*
X026157Y014158D01*
X026061Y014158D01*
X026012Y014207D01*
X026012Y014400D01*
X026061Y014449D01*
X026157Y014449D01*
X026206Y014400D01*
X026307Y014449D02*
X026500Y014449D01*
X026404Y014449D02*
X026404Y014158D01*
X026601Y014207D02*
X026650Y014158D01*
X026747Y014158D01*
X026795Y014207D01*
X026795Y014303D01*
X026747Y014352D01*
X026650Y014352D01*
X026601Y014303D01*
X026601Y014207D01*
X026896Y014158D02*
X026896Y014352D01*
X026993Y014449D01*
X027090Y014352D01*
X027090Y014158D01*
X027191Y014158D02*
X027191Y014352D01*
X027288Y014352D02*
X027336Y014352D01*
X027288Y014352D02*
X027191Y014255D01*
X027090Y014303D02*
X026896Y014303D01*
X027436Y014303D02*
X027485Y014352D01*
X027630Y014352D01*
X027630Y014449D02*
X027630Y014158D01*
X027485Y014158D01*
X027436Y014207D01*
X027436Y014303D01*
X027731Y014352D02*
X027731Y014207D01*
X027779Y014158D01*
X027924Y014158D01*
X027924Y014352D01*
X028026Y014352D02*
X028074Y014352D01*
X028074Y014158D01*
X028026Y014158D02*
X028122Y014158D01*
X028222Y014158D02*
X028222Y014352D01*
X028367Y014352D01*
X028416Y014303D01*
X028416Y014158D01*
X028517Y014207D02*
X028565Y014158D01*
X028662Y014158D01*
X028710Y014207D01*
X028710Y014303D01*
X028662Y014352D01*
X028565Y014352D01*
X028517Y014303D01*
X028517Y014207D01*
X028811Y014255D02*
X028956Y014255D01*
X029005Y014303D01*
X029005Y014400D01*
X028956Y014449D01*
X028811Y014449D01*
X028811Y014158D01*
X028908Y014255D02*
X029005Y014158D01*
X029106Y014207D02*
X029154Y014158D01*
X029251Y014158D01*
X029300Y014207D01*
X029300Y014255D01*
X029251Y014303D01*
X029203Y014303D01*
X029251Y014303D02*
X029300Y014352D01*
X029300Y014400D01*
X029251Y014449D01*
X029154Y014449D01*
X029106Y014400D01*
X028074Y014449D02*
X028074Y014497D01*
X026865Y018050D02*
X026804Y018050D01*
X026557Y018297D01*
X026495Y018297D01*
X026865Y018297D02*
X026865Y018050D01*
X022918Y014352D02*
X022918Y014158D01*
X022818Y014158D02*
X022673Y014255D01*
X022378Y014207D02*
X022378Y014352D01*
X021837Y014352D02*
X021789Y014303D01*
X018280Y012643D02*
X017580Y012643D01*
X017580Y011143D01*
X018280Y011143D01*
X018280Y012643D01*
X018130Y011993D02*
X017730Y011993D01*
X017130Y011993D02*
X016730Y011993D01*
X016130Y011993D02*
X015730Y011993D01*
X015580Y012643D02*
X016280Y012643D01*
X016280Y011143D01*
X015580Y011143D01*
X015580Y012643D01*
X016580Y012643D02*
X017280Y012643D01*
X017280Y011143D01*
X016580Y011143D01*
X016580Y012643D01*
X016580Y010143D02*
X017280Y010143D01*
X017280Y008643D01*
X016580Y008643D01*
X016580Y010143D01*
X016280Y010143D02*
X015580Y010143D01*
X015580Y008643D01*
X016280Y008643D01*
X016280Y010143D01*
X016130Y009493D02*
X015730Y009493D01*
X016730Y009493D02*
X017130Y009493D01*
X017730Y009493D02*
X018130Y009493D01*
X018280Y010143D02*
X018280Y008643D01*
X017580Y008643D01*
X017580Y010143D01*
X018280Y010143D01*
X018230Y007843D02*
X017530Y007843D01*
X017530Y006343D01*
X018230Y006343D01*
X018230Y007843D01*
X018080Y007193D02*
X017680Y007193D01*
X017080Y007193D02*
X016680Y007193D01*
X016530Y007843D02*
X016530Y006343D01*
X017230Y006343D01*
X017230Y007843D01*
X016530Y007843D01*
X015980Y007843D02*
X015280Y007843D01*
X015280Y006343D01*
X015980Y006343D01*
X015980Y007843D01*
X014980Y007843D02*
X014280Y007843D01*
X014280Y006343D01*
X014980Y006343D01*
X014980Y007843D01*
X014830Y007193D02*
X014430Y007193D01*
X015430Y007193D02*
X015830Y007193D01*
X013730Y007843D02*
X013730Y006343D01*
X013030Y006343D01*
X013030Y007843D01*
X013730Y007843D01*
X012730Y007843D02*
X012030Y007843D01*
X012030Y006343D01*
X012730Y006343D01*
X012730Y007843D01*
X012580Y007193D02*
X012180Y007193D01*
X013180Y007193D02*
X013580Y007193D01*
X011480Y007843D02*
X011480Y006343D01*
X010780Y006343D01*
X010780Y007843D01*
X011480Y007843D01*
X011330Y007193D02*
X010930Y007193D01*
X009389Y011289D02*
X007971Y011289D01*
X007971Y011328D01*
X007971Y011604D01*
X007971Y011998D01*
X009389Y011998D01*
X009389Y011328D01*
X009389Y011289D01*
X008389Y012289D02*
X008389Y012328D01*
X008389Y012998D01*
X006971Y012998D01*
X006971Y012604D01*
X006971Y012328D01*
X006971Y012289D01*
X008389Y012289D01*
X007639Y011998D02*
X006221Y011998D01*
X006221Y011604D01*
X006221Y011328D01*
X006221Y011289D01*
X007639Y011289D01*
X007639Y011328D01*
X007639Y011998D01*
X006534Y014435D02*
X005865Y014435D01*
X005826Y014435D01*
X005826Y015852D01*
X005865Y015852D01*
X006141Y015852D01*
X006534Y015852D01*
X006534Y014435D01*
X001594Y012733D02*
X001400Y012733D01*
X003040Y008929D02*
X002995Y008883D01*
X002995Y008703D01*
X003040Y008658D01*
X003130Y008658D01*
X003175Y008703D01*
X003175Y008793D01*
X003085Y008793D01*
X003175Y008883D02*
X003130Y008929D01*
X003040Y008929D01*
X003271Y008929D02*
X003451Y008658D01*
X003451Y008929D01*
X003547Y008929D02*
X003683Y008929D01*
X003728Y008883D01*
X003728Y008703D01*
X003683Y008658D01*
X003547Y008658D01*
X003547Y008929D01*
X003271Y008929D02*
X003271Y008658D01*
X006318Y023408D02*
X006318Y023779D01*
X006195Y023779D02*
X006442Y023779D01*
X006563Y023593D02*
X006625Y023655D01*
X006748Y023655D01*
X006810Y023593D01*
X006810Y023532D01*
X006563Y023532D01*
X006563Y023593D02*
X006563Y023470D01*
X006625Y023408D01*
X006748Y023408D01*
X006932Y023470D02*
X006932Y023593D01*
X006993Y023655D01*
X007117Y023655D01*
X007179Y023593D01*
X007179Y023532D01*
X006932Y023532D01*
X006932Y023470D02*
X006993Y023408D01*
X007117Y023408D01*
X007300Y023408D02*
X007300Y023655D01*
X007485Y023655D01*
X007547Y023593D01*
X007547Y023408D01*
X007668Y023408D02*
X007853Y023408D01*
X007915Y023470D01*
X007853Y023532D01*
X007730Y023532D01*
X007668Y023593D01*
X007730Y023655D01*
X007915Y023655D01*
X008037Y023655D02*
X008037Y023470D01*
X008098Y023408D01*
X008283Y023408D01*
X008283Y023347D02*
X008222Y023285D01*
X008160Y023285D01*
X008283Y023347D02*
X008283Y023655D01*
X008773Y023717D02*
X008835Y023779D01*
X008958Y023779D01*
X009020Y023717D01*
X009020Y023655D01*
X008958Y023593D01*
X009020Y023532D01*
X009020Y023470D01*
X008958Y023408D01*
X008835Y023408D01*
X008773Y023470D01*
X008897Y023593D02*
X008958Y023593D01*
X009142Y023470D02*
X009203Y023470D01*
X009203Y023408D01*
X009142Y023408D01*
X009142Y023470D01*
X009326Y023470D02*
X009573Y023717D01*
X009573Y023470D01*
X009511Y023408D01*
X009387Y023408D01*
X009326Y023470D01*
X009326Y023717D01*
X009387Y023779D01*
X009511Y023779D01*
X009573Y023717D01*
X009343Y027968D02*
X008615Y027968D01*
X008517Y027968D01*
X008517Y029819D01*
X009343Y029819D01*
X009343Y027968D01*
X009265Y028716D02*
X008595Y028716D01*
X016505Y031230D02*
X018355Y031230D01*
X018355Y032057D01*
X016505Y032057D01*
X016505Y031958D01*
X016505Y031230D01*
X017253Y031309D02*
X017253Y031978D01*
X019495Y033290D02*
X019495Y033537D01*
X019865Y033537D01*
X019804Y033658D02*
X019865Y033720D01*
X019865Y033843D01*
X019804Y033905D01*
X019557Y033905D01*
X019495Y033843D01*
X019495Y033720D01*
X019557Y033658D01*
X019557Y034026D02*
X019495Y034088D01*
X019495Y034212D01*
X019557Y034273D01*
X019680Y034212D02*
X019680Y034088D01*
X019618Y034026D01*
X019557Y034026D01*
X019680Y034212D02*
X019742Y034273D01*
X019804Y034273D01*
X019865Y034212D01*
X019865Y034088D01*
X019804Y034026D01*
X020495Y034088D02*
X020557Y034026D01*
X020618Y034026D01*
X020680Y034088D01*
X020680Y034212D01*
X020742Y034273D01*
X020804Y034273D01*
X020865Y034212D01*
X020865Y034088D01*
X020804Y034026D01*
X020865Y033905D02*
X020865Y033720D01*
X020804Y033658D01*
X020557Y033658D01*
X020495Y033720D01*
X020495Y033905D01*
X020865Y033905D01*
X020742Y033537D02*
X020865Y033413D01*
X020742Y033290D01*
X020495Y033290D01*
X020680Y033290D02*
X020680Y033537D01*
X020742Y033537D02*
X020495Y033537D01*
X020495Y034088D02*
X020495Y034212D01*
X020557Y034273D01*
X020680Y034763D02*
X020680Y035010D01*
X020865Y034825D01*
X020495Y034825D01*
X020495Y035131D02*
X020742Y035131D01*
X020865Y035255D01*
X020742Y035378D01*
X020495Y035378D01*
X020680Y035378D02*
X020680Y035131D01*
X021495Y035131D02*
X021742Y035131D01*
X021865Y035255D01*
X021742Y035378D01*
X021495Y035378D01*
X021680Y035378D02*
X021680Y035131D01*
X021557Y035010D02*
X021495Y034948D01*
X021495Y034825D01*
X021557Y034763D01*
X021618Y034763D01*
X021680Y034825D01*
X021680Y034887D01*
X021680Y034825D02*
X021742Y034763D01*
X021804Y034763D01*
X021865Y034825D01*
X021865Y034948D01*
X021804Y035010D01*
X022495Y035010D02*
X022495Y034763D01*
X022495Y035010D02*
X022742Y034763D01*
X022804Y034763D01*
X022865Y034825D01*
X022865Y034948D01*
X022804Y035010D01*
X022742Y035131D02*
X022495Y035131D01*
X022680Y035131D02*
X022680Y035378D01*
X022742Y035378D02*
X022865Y035255D01*
X022742Y035131D01*
X022742Y035378D02*
X022495Y035378D01*
X023495Y035378D02*
X023742Y035378D01*
X023865Y035255D01*
X023742Y035131D01*
X023495Y035131D01*
X023495Y035010D02*
X023495Y034763D01*
X023495Y034887D02*
X023865Y034887D01*
X023742Y035010D01*
X023680Y035131D02*
X023680Y035378D01*
X024495Y035378D02*
X024742Y035378D01*
X024865Y035255D01*
X024742Y035131D01*
X024495Y035131D01*
X024557Y035010D02*
X024804Y034763D01*
X024557Y034763D01*
X024495Y034825D01*
X024495Y034948D01*
X024557Y035010D01*
X024804Y035010D01*
X024865Y034948D01*
X024865Y034825D01*
X024804Y034763D01*
X024680Y035131D02*
X024680Y035378D01*
X026495Y035255D02*
X026618Y035131D01*
X026865Y035131D01*
X026865Y035010D02*
X026865Y034887D01*
X026865Y034948D02*
X026495Y034948D01*
X026495Y034887D02*
X026495Y035010D01*
X026495Y035255D02*
X026618Y035378D01*
X026865Y035378D01*
X026865Y034764D02*
X026495Y034518D01*
X026865Y034518D01*
X026865Y034764D02*
X026495Y034764D01*
X027495Y034763D02*
X027865Y034763D01*
X027865Y034642D02*
X027865Y034457D01*
X027804Y034395D01*
X027557Y034395D01*
X027495Y034457D01*
X027495Y034642D01*
X027865Y034642D01*
X027865Y035010D02*
X027495Y035010D01*
X027557Y035131D02*
X027680Y035131D01*
X027680Y035255D01*
X027557Y035378D02*
X027804Y035378D01*
X027865Y035317D01*
X027865Y035193D01*
X027804Y035131D01*
X027865Y035010D02*
X027495Y034763D01*
X027557Y035131D02*
X027495Y035193D01*
X027495Y035317D01*
X027557Y035378D01*
X028495Y035317D02*
X028495Y035193D01*
X028557Y035131D01*
X028680Y035131D01*
X028680Y035255D01*
X028557Y035378D02*
X028495Y035317D01*
X028557Y035378D02*
X028804Y035378D01*
X028865Y035317D01*
X028865Y035193D01*
X028804Y035131D01*
X028865Y035010D02*
X028495Y034763D01*
X028865Y034763D01*
X028865Y034642D02*
X028865Y034457D01*
X028804Y034395D01*
X028557Y034395D01*
X028495Y034457D01*
X028495Y034642D01*
X028865Y034642D01*
X028865Y035010D02*
X028495Y035010D01*
X029495Y035003D02*
X029495Y035110D01*
X029548Y035163D01*
X029495Y035272D02*
X029602Y035378D01*
X029709Y035378D01*
X029815Y035272D01*
X029762Y035163D02*
X029815Y035110D01*
X029815Y035003D01*
X029762Y034950D01*
X029709Y034950D01*
X029655Y035003D01*
X029602Y034950D01*
X029548Y034950D01*
X029495Y035003D01*
X029655Y035003D02*
X029655Y035057D01*
X029602Y034841D02*
X029495Y034734D01*
X029602Y034628D01*
X029815Y034628D01*
X029762Y034519D02*
X029815Y034466D01*
X029815Y034359D01*
X029762Y034305D01*
X029709Y034305D01*
X029655Y034359D01*
X029602Y034305D01*
X029548Y034305D01*
X029495Y034359D01*
X029495Y034466D01*
X029548Y034519D01*
X029655Y034412D02*
X029655Y034359D01*
X029495Y034197D02*
X029602Y034090D01*
X029709Y034090D01*
X029815Y034197D01*
X029815Y034841D02*
X029602Y034841D01*
X030495Y034887D02*
X030618Y034763D01*
X030865Y034763D01*
X030804Y034642D02*
X030865Y034580D01*
X030865Y034457D01*
X030804Y034395D01*
X030742Y034395D01*
X030680Y034457D01*
X030618Y034395D01*
X030557Y034395D01*
X030495Y034457D01*
X030495Y034580D01*
X030557Y034642D01*
X030680Y034518D02*
X030680Y034457D01*
X030495Y034887D02*
X030618Y035010D01*
X030865Y035010D01*
X030804Y035131D02*
X030742Y035131D01*
X030680Y035193D01*
X030618Y035131D01*
X030557Y035131D01*
X030495Y035193D01*
X030495Y035317D01*
X030557Y035378D01*
X030680Y035255D02*
X030680Y035193D01*
X030804Y035131D02*
X030865Y035193D01*
X030865Y035317D01*
X030804Y035378D01*
X031465Y035378D02*
X031835Y035378D01*
X031835Y035193D01*
X031774Y035131D01*
X031650Y035131D01*
X031588Y035193D01*
X031588Y035378D01*
X031588Y035255D02*
X031465Y035131D01*
X031527Y035010D02*
X031465Y034948D01*
X031465Y034825D01*
X031527Y034763D01*
X031588Y034763D01*
X031650Y034825D01*
X031650Y034948D01*
X031712Y035010D01*
X031774Y035010D01*
X031835Y034948D01*
X031835Y034825D01*
X031774Y034763D01*
X031835Y034642D02*
X031835Y034395D01*
X031835Y034518D02*
X031465Y034518D01*
X032475Y034518D02*
X032598Y034641D01*
X032598Y034579D02*
X032598Y034764D01*
X032475Y034764D02*
X032845Y034764D01*
X032845Y034579D01*
X032784Y034518D01*
X032660Y034518D01*
X032598Y034579D01*
X032660Y034396D02*
X032660Y034273D01*
X032845Y034396D02*
X032475Y034396D01*
X032475Y034149D01*
X032475Y034028D02*
X032845Y034028D01*
X032845Y033781D01*
X032660Y033904D02*
X032660Y034028D01*
X032845Y034149D02*
X032845Y034396D01*
X032784Y034886D02*
X032537Y034886D01*
X032475Y034948D01*
X032475Y035071D01*
X032537Y035133D01*
X032784Y035133D01*
X032845Y035071D01*
X032845Y034948D01*
X032784Y034886D01*
X032845Y035255D02*
X032845Y035378D01*
X032845Y035317D02*
X032475Y035317D01*
X032475Y035378D02*
X032475Y035255D01*
X032284Y031352D02*
X032245Y031352D01*
X031576Y031352D01*
X031576Y029935D01*
X031969Y029935D01*
X032245Y029935D01*
X032284Y029935D01*
X032284Y031352D01*
X028093Y031968D02*
X028093Y033819D01*
X027995Y033819D01*
X027267Y033819D01*
X027267Y031968D01*
X028093Y031968D01*
X028015Y033070D02*
X027345Y033070D01*
X024580Y030949D02*
X024580Y030658D01*
X024386Y030949D01*
X024386Y030658D01*
X024286Y030658D02*
X024190Y030658D01*
X024238Y030658D02*
X024238Y030949D01*
X024190Y030949D02*
X024286Y030949D01*
X024088Y030803D02*
X023895Y030803D01*
X023992Y030707D02*
X023992Y030900D01*
X023578Y030900D02*
X023578Y030707D01*
X023529Y030658D01*
X023384Y030658D01*
X023384Y030949D01*
X023529Y030949D01*
X023578Y030900D01*
X023283Y030949D02*
X023283Y030658D01*
X023090Y030949D01*
X023090Y030658D01*
X022988Y030707D02*
X022988Y030803D01*
X022892Y030803D01*
X022988Y030707D02*
X022940Y030658D01*
X022843Y030658D01*
X022795Y030707D01*
X022795Y030900D01*
X022843Y030949D01*
X022940Y030949D01*
X022988Y030900D01*
X022522Y030949D02*
X022329Y030949D01*
X022426Y030949D02*
X022426Y030658D01*
X022228Y030707D02*
X022228Y030949D01*
X022034Y030949D02*
X022034Y030707D01*
X022083Y030658D01*
X022179Y030658D01*
X022228Y030707D01*
X021933Y030707D02*
X021933Y030900D01*
X021885Y030949D01*
X021788Y030949D01*
X021740Y030900D01*
X021740Y030707D01*
X021788Y030658D01*
X021885Y030658D01*
X021933Y030707D01*
X021638Y030803D02*
X021445Y030803D01*
X021542Y030707D02*
X021542Y030900D01*
X019865Y034763D02*
X019865Y035010D01*
X019680Y035010D01*
X019742Y034887D01*
X019742Y034825D01*
X019680Y034763D01*
X019557Y034763D01*
X019495Y034825D01*
X019495Y034948D01*
X019557Y035010D01*
X019495Y035131D02*
X019742Y035131D01*
X019865Y035255D01*
X019742Y035378D01*
X019495Y035378D01*
X019680Y035378D02*
X019680Y035131D01*
X032095Y020384D02*
X032465Y020384D01*
X032342Y020260D01*
X032465Y020137D01*
X032095Y020137D01*
X032095Y020015D02*
X032095Y019892D01*
X032095Y019954D02*
X032465Y019954D01*
X032465Y020015D02*
X032465Y019892D01*
X032404Y019770D02*
X032342Y019770D01*
X032280Y019708D01*
X032280Y019585D01*
X032218Y019523D01*
X032157Y019523D01*
X032095Y019585D01*
X032095Y019708D01*
X032157Y019770D01*
X032404Y019770D02*
X032465Y019708D01*
X032465Y019585D01*
X032404Y019523D01*
X032404Y019402D02*
X032157Y019402D01*
X032095Y019340D01*
X032095Y019216D01*
X032157Y019155D01*
X032404Y019155D01*
X032465Y019216D01*
X032465Y019340D01*
X032404Y019402D01*
X033095Y019402D02*
X033465Y019402D01*
X033404Y019523D02*
X033465Y019585D01*
X033465Y019708D01*
X033404Y019770D01*
X033157Y019770D01*
X033095Y019708D01*
X033095Y019585D01*
X033157Y019523D01*
X033218Y019402D02*
X033465Y019155D01*
X033280Y019340D02*
X033095Y019155D01*
X033095Y018665D02*
X033095Y018418D01*
X033095Y018541D02*
X033465Y018541D01*
X033342Y018665D01*
X033404Y018297D02*
X033465Y018235D01*
X033465Y018111D01*
X033404Y018050D01*
X033342Y018050D01*
X033280Y018111D01*
X033218Y018050D01*
X033157Y018050D01*
X033095Y018111D01*
X033095Y018235D01*
X033157Y018297D01*
X033280Y018173D02*
X033280Y018111D01*
X034095Y018111D02*
X034095Y018297D01*
X034465Y018297D01*
X034465Y018111D01*
X034404Y018050D01*
X034157Y018050D01*
X034095Y018111D01*
X034095Y018418D02*
X034465Y018418D01*
X034465Y018665D02*
X034095Y018665D01*
X034157Y018786D02*
X034280Y018786D01*
X034280Y018910D01*
X034157Y019033D02*
X034404Y019033D01*
X034465Y018972D01*
X034465Y018848D01*
X034404Y018786D01*
X034465Y018665D02*
X034095Y018418D01*
X034157Y018786D02*
X034095Y018848D01*
X034095Y018972D01*
X034157Y019033D01*
X035095Y019033D02*
X035465Y019033D01*
X035465Y018848D01*
X035404Y018786D01*
X035280Y018786D01*
X035218Y018848D01*
X035218Y019033D01*
X035218Y018910D02*
X035095Y018786D01*
X035095Y018665D02*
X035095Y018418D01*
X035095Y018297D02*
X035465Y018297D01*
X035465Y018050D01*
X035280Y018173D02*
X035280Y018297D01*
X035465Y018418D02*
X035465Y018665D01*
X035095Y018665D01*
X035280Y018665D02*
X035280Y018541D01*
X035280Y019155D02*
X035280Y019402D01*
X035342Y019402D02*
X035095Y019402D01*
X035342Y019402D02*
X035465Y019278D01*
X035342Y019155D01*
X035095Y019155D01*
X036095Y018972D02*
X036157Y019033D01*
X036095Y018972D02*
X036095Y018848D01*
X036157Y018786D01*
X036218Y018786D01*
X036280Y018848D01*
X036280Y018972D01*
X036342Y019033D01*
X036404Y019033D01*
X036465Y018972D01*
X036465Y018848D01*
X036404Y018786D01*
X036465Y018665D02*
X036095Y018665D01*
X036095Y018480D01*
X036157Y018418D01*
X036404Y018418D01*
X036465Y018480D01*
X036465Y018665D01*
X036342Y018297D02*
X036465Y018173D01*
X036342Y018050D01*
X036095Y018050D01*
X036280Y018050D02*
X036280Y018297D01*
X036342Y018297D02*
X036095Y018297D01*
X037095Y018297D02*
X037095Y018050D01*
X037095Y018297D02*
X037465Y018297D01*
X037404Y018418D02*
X037465Y018480D01*
X037465Y018603D01*
X037404Y018665D01*
X037157Y018665D01*
X037095Y018603D01*
X037095Y018480D01*
X037157Y018418D01*
X037157Y018786D02*
X037095Y018848D01*
X037095Y018972D01*
X037157Y019033D01*
X037280Y018972D02*
X037280Y018848D01*
X037218Y018786D01*
X037157Y018786D01*
X037280Y018972D02*
X037342Y019033D01*
X037404Y019033D01*
X037465Y018972D01*
X037465Y018848D01*
X037404Y018786D01*
X039875Y019408D02*
X039875Y019553D01*
X039923Y019602D01*
X040020Y019602D01*
X040068Y019553D01*
X040068Y019408D01*
X040165Y019408D02*
X039875Y019408D01*
X040068Y019505D02*
X040165Y019602D01*
X040165Y019703D02*
X040165Y019896D01*
X040117Y019998D02*
X040165Y020046D01*
X040165Y020143D01*
X040117Y020191D01*
X040068Y020191D01*
X040020Y020143D01*
X040020Y020046D01*
X039972Y019998D01*
X039923Y019998D01*
X039875Y020046D01*
X039875Y020143D01*
X039923Y020191D01*
X039875Y020292D02*
X040165Y020292D01*
X040165Y020486D01*
X040020Y020389D02*
X040020Y020292D01*
X039875Y020292D02*
X039875Y020486D01*
X039875Y020587D02*
X039875Y020780D01*
X039875Y020684D02*
X040165Y020684D01*
X040165Y020882D02*
X039875Y021075D01*
X039875Y021176D02*
X039875Y021321D01*
X039923Y021370D01*
X040020Y021370D01*
X040068Y021321D01*
X040068Y021176D01*
X040165Y021176D02*
X039875Y021176D01*
X039875Y021471D02*
X039875Y021616D01*
X039923Y021664D01*
X040020Y021664D01*
X040068Y021616D01*
X040068Y021471D01*
X040068Y021568D02*
X040165Y021664D01*
X040117Y021766D02*
X040165Y021814D01*
X040165Y021911D01*
X040117Y021959D01*
X039923Y021959D01*
X039875Y021911D01*
X039875Y021814D01*
X039923Y021766D01*
X040117Y021766D01*
X040117Y022060D02*
X040165Y022109D01*
X040165Y022205D01*
X040117Y022254D01*
X040020Y022254D01*
X040020Y022157D01*
X039923Y022060D02*
X040117Y022060D01*
X039923Y022060D02*
X039875Y022109D01*
X039875Y022205D01*
X039923Y022254D01*
X040117Y022355D02*
X040117Y022403D01*
X040165Y022403D01*
X040165Y022355D01*
X040117Y022355D01*
X040165Y021471D02*
X039875Y021471D01*
X039875Y019896D02*
X039875Y019703D01*
X040165Y019703D01*
X040020Y019703D02*
X040020Y019800D01*
X033465Y019953D02*
X033465Y020076D01*
X033404Y020138D01*
X033342Y020138D01*
X033280Y020076D01*
X033280Y019953D01*
X033218Y019891D01*
X033157Y019891D01*
X033095Y019953D01*
X033095Y020076D01*
X033157Y020138D01*
X033404Y019891D02*
X033465Y019953D01*
X032342Y018665D02*
X032465Y018541D01*
X032095Y018541D01*
X032095Y018418D02*
X032095Y018665D01*
X032095Y018297D02*
X032342Y018050D01*
X032404Y018050D01*
X032465Y018111D01*
X032465Y018235D01*
X032404Y018297D01*
X032095Y018297D02*
X032095Y018050D01*
D13*
X025830Y021493D02*
X025830Y031393D01*
X020430Y031393D01*
X020430Y021493D01*
X025830Y021493D01*
X026680Y011893D02*
X021180Y011893D01*
X021180Y006143D01*
X026680Y006143D01*
X026680Y011893D01*
X010180Y021143D02*
X010180Y034643D01*
X009680Y034643D01*
X009680Y035143D01*
X006180Y035143D01*
X006180Y034643D01*
X005680Y034643D01*
X005680Y021143D01*
X010180Y021143D01*
X009180Y021893D02*
X009180Y022893D01*
X006680Y022893D01*
X006680Y021893D01*
X009180Y021893D01*
X008430Y022143D02*
X008430Y022643D01*
X007430Y022643D01*
X007430Y022143D01*
X008430Y022143D01*
X009680Y024143D02*
X006180Y024143D01*
X006180Y027393D01*
X009680Y027393D01*
X009680Y024143D01*
X009680Y034393D02*
X006180Y034393D01*
X006180Y034643D01*
X009680Y034643D02*
X009680Y034393D01*
D14*
X018180Y027393D02*
X018430Y027643D01*
X019930Y027643D01*
X020180Y027393D01*
X020180Y026893D01*
X019930Y026643D01*
X018430Y026643D01*
X018180Y026893D01*
X018180Y027393D01*
X018430Y026643D02*
X018180Y026393D01*
X018180Y025893D01*
X018430Y025643D01*
X019930Y025643D01*
X020180Y025893D01*
X020180Y026393D01*
X019930Y026643D01*
X019930Y025643D02*
X020180Y025393D01*
X020180Y024893D01*
X019930Y024643D01*
X018430Y024643D01*
X018180Y024893D01*
X018180Y025393D01*
X018430Y025643D01*
X020430Y025643D02*
X020430Y024643D01*
X026180Y023893D02*
X026180Y025893D01*
X027180Y025893D01*
X027180Y023893D01*
X026180Y023893D01*
X027180Y023893D02*
X028180Y023893D01*
X028180Y024893D01*
X027180Y024893D01*
X028180Y024893D02*
X028180Y025593D01*
X027880Y025893D01*
X027180Y025893D01*
X028180Y025893D02*
X028182Y025913D01*
X028188Y025931D01*
X028197Y025949D01*
X028209Y025964D01*
X028224Y025976D01*
X028242Y025985D01*
X028260Y025991D01*
X028280Y025993D01*
X028300Y025991D01*
X028318Y025985D01*
X028336Y025976D01*
X028351Y025964D01*
X028363Y025949D01*
X028372Y025931D01*
X028378Y025913D01*
X028380Y025893D01*
X028378Y025873D01*
X028372Y025855D01*
X028363Y025837D01*
X028351Y025822D01*
X028336Y025810D01*
X028318Y025801D01*
X028300Y025795D01*
X028280Y025793D01*
X028260Y025795D01*
X028242Y025801D01*
X028224Y025810D01*
X028209Y025822D01*
X028197Y025837D01*
X028188Y025855D01*
X028182Y025873D01*
X028180Y025893D01*
X028180Y027893D02*
X027180Y027893D01*
X027180Y029893D01*
X027880Y029893D01*
X028180Y029593D01*
X028180Y028893D01*
X027180Y028893D01*
X027180Y027893D02*
X026180Y027893D01*
X026180Y029893D01*
X027180Y029893D01*
X028180Y029893D02*
X028182Y029913D01*
X028188Y029931D01*
X028197Y029949D01*
X028209Y029964D01*
X028224Y029976D01*
X028242Y029985D01*
X028260Y029991D01*
X028280Y029993D01*
X028300Y029991D01*
X028318Y029985D01*
X028336Y029976D01*
X028351Y029964D01*
X028363Y029949D01*
X028372Y029931D01*
X028378Y029913D01*
X028380Y029893D01*
X028378Y029873D01*
X028372Y029855D01*
X028363Y029837D01*
X028351Y029822D01*
X028336Y029810D01*
X028318Y029801D01*
X028300Y029795D01*
X028280Y029793D01*
X028260Y029795D01*
X028242Y029801D01*
X028224Y029810D01*
X028209Y029822D01*
X028197Y029837D01*
X028188Y029855D01*
X028182Y029873D01*
X028180Y029893D01*
X028180Y028893D02*
X028180Y027893D01*
X028230Y031893D02*
X028232Y031913D01*
X028238Y031931D01*
X028247Y031949D01*
X028259Y031964D01*
X028274Y031976D01*
X028292Y031985D01*
X028310Y031991D01*
X028330Y031993D01*
X028350Y031991D01*
X028368Y031985D01*
X028386Y031976D01*
X028401Y031964D01*
X028413Y031949D01*
X028422Y031931D01*
X028428Y031913D01*
X028430Y031893D01*
X028428Y031873D01*
X028422Y031855D01*
X028413Y031837D01*
X028401Y031822D01*
X028386Y031810D01*
X028368Y031801D01*
X028350Y031795D01*
X028330Y031793D01*
X028310Y031795D01*
X028292Y031801D01*
X028274Y031810D01*
X028259Y031822D01*
X028247Y031837D01*
X028238Y031855D01*
X028232Y031873D01*
X028230Y031893D01*
X028430Y032193D02*
X028730Y031893D01*
X029430Y031893D01*
X029430Y033893D01*
X030430Y033893D01*
X030430Y031893D01*
X029430Y031893D01*
X029430Y032893D02*
X028430Y032893D01*
X028430Y033893D01*
X029430Y033893D01*
X028430Y032893D02*
X028430Y032193D01*
X035960Y026609D02*
X035960Y022679D01*
X036040Y022679D01*
X036040Y026609D01*
X038640Y026609D01*
X039580Y026609D01*
X039580Y022679D01*
X038640Y022679D01*
X036040Y022679D01*
X036360Y023659D02*
X036362Y023687D01*
X036368Y023714D01*
X036377Y023740D01*
X036390Y023765D01*
X036407Y023788D01*
X036426Y023808D01*
X036448Y023825D01*
X036472Y023839D01*
X036498Y023849D01*
X036525Y023856D01*
X036553Y023859D01*
X036581Y023858D01*
X036608Y023853D01*
X036635Y023844D01*
X036660Y023832D01*
X036683Y023817D01*
X036704Y023798D01*
X036722Y023777D01*
X036737Y023753D01*
X036748Y023727D01*
X036756Y023701D01*
X036760Y023673D01*
X036760Y023645D01*
X036756Y023617D01*
X036748Y023591D01*
X036737Y023565D01*
X036722Y023541D01*
X036704Y023520D01*
X036683Y023501D01*
X036660Y023486D01*
X036635Y023474D01*
X036608Y023465D01*
X036581Y023460D01*
X036553Y023459D01*
X036525Y023462D01*
X036498Y023469D01*
X036472Y023479D01*
X036448Y023493D01*
X036426Y023510D01*
X036407Y023530D01*
X036390Y023553D01*
X036377Y023578D01*
X036368Y023604D01*
X036362Y023631D01*
X036360Y023659D01*
X036360Y025629D02*
X036362Y025657D01*
X036368Y025684D01*
X036377Y025710D01*
X036390Y025735D01*
X036407Y025758D01*
X036426Y025778D01*
X036448Y025795D01*
X036472Y025809D01*
X036498Y025819D01*
X036525Y025826D01*
X036553Y025829D01*
X036581Y025828D01*
X036608Y025823D01*
X036635Y025814D01*
X036660Y025802D01*
X036683Y025787D01*
X036704Y025768D01*
X036722Y025747D01*
X036737Y025723D01*
X036748Y025697D01*
X036756Y025671D01*
X036760Y025643D01*
X036760Y025615D01*
X036756Y025587D01*
X036748Y025561D01*
X036737Y025535D01*
X036722Y025511D01*
X036704Y025490D01*
X036683Y025471D01*
X036660Y025456D01*
X036635Y025444D01*
X036608Y025435D01*
X036581Y025430D01*
X036553Y025429D01*
X036525Y025432D01*
X036498Y025439D01*
X036472Y025449D01*
X036448Y025463D01*
X036426Y025480D01*
X036407Y025500D01*
X036390Y025523D01*
X036377Y025548D01*
X036368Y025574D01*
X036362Y025601D01*
X036360Y025629D01*
X036040Y026609D02*
X035960Y026609D01*
X038640Y026609D02*
X038640Y025979D01*
X038640Y025279D02*
X038640Y024009D01*
X038640Y023309D02*
X038640Y022679D01*
X038959Y015706D02*
X038959Y015279D01*
X039600Y015279D01*
X039600Y015706D01*
X039280Y015492D02*
X039280Y015279D01*
X039600Y015061D02*
X039600Y014634D01*
X038959Y014634D01*
X038959Y015061D01*
X039280Y014848D02*
X039280Y014634D01*
X039386Y014417D02*
X039493Y014417D01*
X039600Y014310D01*
X039600Y013990D01*
X038959Y013990D01*
X038959Y014310D01*
X039066Y014417D01*
X039173Y014417D01*
X039280Y014310D01*
X039280Y013990D01*
X039280Y014310D02*
X039386Y014417D01*
X039600Y013772D02*
X038959Y013345D01*
X038959Y013772D02*
X039600Y013345D01*
X039680Y012143D02*
X039180Y012143D01*
X038930Y011893D01*
X038680Y012143D01*
X038180Y012143D01*
X037930Y011893D01*
X037680Y012143D01*
X037180Y012143D01*
X036930Y011893D01*
X036680Y012143D01*
X036180Y012143D01*
X035930Y011893D01*
X035680Y012143D01*
X035180Y012143D01*
X034930Y011893D01*
X034680Y012143D01*
X034180Y012143D01*
X033930Y011893D01*
X033680Y012143D01*
X033180Y012143D01*
X032930Y011893D01*
X032680Y012143D01*
X032180Y012143D01*
X031930Y011893D01*
X031680Y012143D01*
X031180Y012143D01*
X030930Y011893D01*
X030680Y012143D01*
X030180Y012143D01*
X029930Y011893D01*
X029930Y010393D01*
X030180Y010143D01*
X030680Y010143D01*
X030930Y010393D01*
X031180Y010143D01*
X031680Y010143D01*
X031930Y010393D01*
X032180Y010143D01*
X032680Y010143D01*
X032930Y010393D01*
X033180Y010143D01*
X033680Y010143D01*
X033930Y010393D01*
X034180Y010143D01*
X034680Y010143D01*
X034930Y010393D01*
X035180Y010143D01*
X035680Y010143D01*
X035930Y010393D01*
X036180Y010143D01*
X036680Y010143D01*
X036930Y010393D01*
X037180Y010143D01*
X037680Y010143D01*
X037930Y010393D01*
X038180Y010143D01*
X038680Y010143D01*
X038930Y010393D01*
X039180Y010143D01*
X039680Y010143D01*
X039930Y010393D01*
X039930Y011893D01*
X039680Y012143D01*
X028930Y011893D02*
X028930Y011393D01*
X028680Y011143D01*
X027180Y011143D01*
X026930Y011393D01*
X026930Y011893D01*
X027180Y012143D01*
X028680Y012143D01*
X028930Y011893D01*
X028680Y011143D02*
X028930Y010893D01*
X028930Y010393D01*
X028680Y010143D01*
X027180Y010143D01*
X026930Y010393D01*
X026930Y010893D01*
X027180Y011143D01*
X027180Y010143D02*
X026930Y009893D01*
X026930Y009393D01*
X027180Y009143D01*
X028680Y009143D01*
X028930Y009393D01*
X028930Y009893D01*
X028680Y010143D01*
X028680Y009143D02*
X028930Y008893D01*
X028930Y008393D01*
X028680Y008143D01*
X027180Y008143D01*
X026930Y008393D01*
X026930Y008893D01*
X027180Y009143D01*
X026219Y009244D02*
X026219Y009030D01*
X026112Y008923D01*
X025899Y008923D01*
X025792Y009030D01*
X025792Y009244D01*
X025899Y009350D01*
X026112Y009350D01*
X026219Y009244D01*
X025576Y008923D02*
X025362Y008923D01*
X025469Y008923D02*
X025469Y009350D01*
X025362Y009350D01*
X025469Y009564D02*
X025469Y009671D01*
X025145Y009457D02*
X024718Y009030D01*
X024825Y008923D01*
X025038Y008923D01*
X025145Y009030D01*
X025145Y009457D01*
X025038Y009564D01*
X024825Y009564D01*
X024718Y009457D01*
X024718Y009030D01*
X024500Y008923D02*
X024073Y008923D01*
X024500Y009350D01*
X024500Y009457D01*
X024394Y009564D01*
X024180Y009564D01*
X024073Y009457D01*
X023856Y009457D02*
X023856Y009350D01*
X023749Y009244D01*
X023536Y009244D01*
X023429Y009350D01*
X023429Y009457D01*
X023536Y009564D01*
X023749Y009564D01*
X023856Y009457D01*
X023749Y009244D02*
X023856Y009137D01*
X023856Y009030D01*
X023749Y008923D01*
X023536Y008923D01*
X023429Y009030D01*
X023429Y009137D01*
X023536Y009244D01*
X023211Y009457D02*
X022784Y009030D01*
X022784Y008923D01*
X023211Y008923D01*
X023211Y009457D02*
X023211Y009564D01*
X022784Y009564D01*
X022568Y009564D02*
X022355Y009564D01*
X022461Y009564D02*
X022461Y008923D01*
X022355Y008923D02*
X022568Y008923D01*
X022137Y008923D02*
X022137Y009564D01*
X021710Y009564D02*
X021710Y008923D01*
X021924Y009137D01*
X022137Y008923D01*
X020930Y008893D02*
X020930Y008393D01*
X020680Y008143D01*
X019180Y008143D01*
X018930Y008393D01*
X018930Y008893D01*
X019180Y009143D01*
X020680Y009143D01*
X020930Y009393D01*
X020930Y009893D01*
X020680Y010143D01*
X019180Y010143D01*
X018930Y010393D01*
X018930Y010893D01*
X019180Y011143D01*
X018930Y011393D01*
X018930Y011893D01*
X019180Y012143D01*
X020680Y012143D01*
X020930Y011893D01*
X020930Y011393D01*
X020680Y011143D01*
X019180Y011143D01*
X019180Y010143D02*
X018930Y009893D01*
X018930Y009393D01*
X019180Y009143D01*
X019180Y008143D02*
X018930Y007893D01*
X018930Y007393D01*
X019180Y007143D01*
X020680Y007143D01*
X020930Y007393D01*
X020930Y007893D01*
X020680Y008143D01*
X020930Y008893D02*
X020680Y009143D01*
X020680Y010143D02*
X020930Y010393D01*
X020930Y010893D01*
X020680Y011143D01*
X020680Y007143D02*
X020930Y006893D01*
X020930Y006393D01*
X020680Y006143D01*
X019180Y006143D01*
X018930Y006393D01*
X018930Y006893D01*
X019180Y007143D01*
X026930Y006893D02*
X026930Y006393D01*
X027180Y006143D01*
X028680Y006143D01*
X028930Y006393D01*
X028930Y006893D01*
X028680Y007143D01*
X027180Y007143D01*
X026930Y007393D01*
X026930Y007893D01*
X027180Y008143D01*
X027180Y007143D02*
X026930Y006893D01*
X028680Y007143D02*
X028930Y007393D01*
X028930Y007893D01*
X028680Y008143D01*
X009930Y009293D02*
X009930Y006693D01*
X009930Y005743D01*
X003930Y005743D01*
X003930Y006693D01*
X003930Y009293D01*
X003930Y009393D01*
X009930Y009393D01*
X009930Y009293D01*
X003930Y009293D01*
X004730Y008763D02*
X004732Y008791D01*
X004738Y008818D01*
X004747Y008844D01*
X004760Y008869D01*
X004777Y008892D01*
X004796Y008912D01*
X004818Y008929D01*
X004842Y008943D01*
X004868Y008953D01*
X004895Y008960D01*
X004923Y008963D01*
X004951Y008962D01*
X004978Y008957D01*
X005005Y008948D01*
X005030Y008936D01*
X005053Y008921D01*
X005074Y008902D01*
X005092Y008881D01*
X005107Y008857D01*
X005118Y008831D01*
X005126Y008805D01*
X005130Y008777D01*
X005130Y008749D01*
X005126Y008721D01*
X005118Y008695D01*
X005107Y008669D01*
X005092Y008645D01*
X005074Y008624D01*
X005053Y008605D01*
X005030Y008590D01*
X005005Y008578D01*
X004978Y008569D01*
X004951Y008564D01*
X004923Y008563D01*
X004895Y008566D01*
X004868Y008573D01*
X004842Y008583D01*
X004818Y008597D01*
X004796Y008614D01*
X004777Y008634D01*
X004760Y008657D01*
X004747Y008682D01*
X004738Y008708D01*
X004732Y008735D01*
X004730Y008763D01*
X006710Y009573D02*
X006710Y010000D01*
X006924Y010214D01*
X007137Y010000D01*
X007137Y009573D01*
X007137Y009894D02*
X006710Y009894D01*
X006730Y008763D02*
X006732Y008791D01*
X006738Y008818D01*
X006747Y008844D01*
X006760Y008869D01*
X006777Y008892D01*
X006796Y008912D01*
X006818Y008929D01*
X006842Y008943D01*
X006868Y008953D01*
X006895Y008960D01*
X006923Y008963D01*
X006951Y008962D01*
X006978Y008957D01*
X007005Y008948D01*
X007030Y008936D01*
X007053Y008921D01*
X007074Y008902D01*
X007092Y008881D01*
X007107Y008857D01*
X007118Y008831D01*
X007126Y008805D01*
X007130Y008777D01*
X007130Y008749D01*
X007126Y008721D01*
X007118Y008695D01*
X007107Y008669D01*
X007092Y008645D01*
X007074Y008624D01*
X007053Y008605D01*
X007030Y008590D01*
X007005Y008578D01*
X006978Y008569D01*
X006951Y008564D01*
X006923Y008563D01*
X006895Y008566D01*
X006868Y008573D01*
X006842Y008583D01*
X006818Y008597D01*
X006796Y008614D01*
X006777Y008634D01*
X006760Y008657D01*
X006747Y008682D01*
X006738Y008708D01*
X006732Y008735D01*
X006730Y008763D01*
X008760Y009573D02*
X008760Y010214D01*
X009080Y010214D01*
X009187Y010107D01*
X009187Y010000D01*
X009080Y009894D01*
X008760Y009894D01*
X009080Y009894D02*
X009187Y009787D01*
X009187Y009680D01*
X009080Y009573D01*
X008760Y009573D01*
X008730Y008763D02*
X008732Y008791D01*
X008738Y008818D01*
X008747Y008844D01*
X008760Y008869D01*
X008777Y008892D01*
X008796Y008912D01*
X008818Y008929D01*
X008842Y008943D01*
X008868Y008953D01*
X008895Y008960D01*
X008923Y008963D01*
X008951Y008962D01*
X008978Y008957D01*
X009005Y008948D01*
X009030Y008936D01*
X009053Y008921D01*
X009074Y008902D01*
X009092Y008881D01*
X009107Y008857D01*
X009118Y008831D01*
X009126Y008805D01*
X009130Y008777D01*
X009130Y008749D01*
X009126Y008721D01*
X009118Y008695D01*
X009107Y008669D01*
X009092Y008645D01*
X009074Y008624D01*
X009053Y008605D01*
X009030Y008590D01*
X009005Y008578D01*
X008978Y008569D01*
X008951Y008564D01*
X008923Y008563D01*
X008895Y008566D01*
X008868Y008573D01*
X008842Y008583D01*
X008818Y008597D01*
X008796Y008614D01*
X008777Y008634D01*
X008760Y008657D01*
X008747Y008682D01*
X008738Y008708D01*
X008732Y008735D01*
X008730Y008763D01*
X008580Y006693D02*
X007280Y006693D01*
X006580Y006693D02*
X005280Y006693D01*
X004580Y006693D02*
X003930Y006693D01*
X009280Y006693D02*
X009930Y006693D01*
X008780Y014623D02*
X007080Y014623D01*
X007057Y014625D01*
X007034Y014630D01*
X007012Y014639D01*
X006992Y014652D01*
X006974Y014667D01*
X006959Y014685D01*
X006946Y014705D01*
X006937Y014727D01*
X006932Y014750D01*
X006930Y014773D01*
X006930Y016013D01*
X006932Y016036D01*
X006937Y016059D01*
X006946Y016081D01*
X006959Y016101D01*
X006974Y016119D01*
X006992Y016134D01*
X007012Y016147D01*
X007034Y016156D01*
X007057Y016161D01*
X007080Y016163D01*
X008780Y016163D01*
X008803Y016161D01*
X008826Y016156D01*
X008848Y016147D01*
X008868Y016134D01*
X008886Y016119D01*
X008901Y016101D01*
X008914Y016081D01*
X008923Y016059D01*
X008928Y016036D01*
X008930Y016013D01*
X008930Y015593D01*
X008930Y015193D01*
X008930Y014773D01*
X008928Y014750D01*
X008923Y014727D01*
X008914Y014705D01*
X008901Y014685D01*
X008886Y014667D01*
X008868Y014652D01*
X008848Y014639D01*
X008826Y014630D01*
X008803Y014625D01*
X008780Y014623D01*
X008930Y015193D02*
X008903Y015195D01*
X008876Y015200D01*
X008850Y015210D01*
X008826Y015222D01*
X008804Y015238D01*
X008784Y015256D01*
X008767Y015278D01*
X008752Y015301D01*
X008742Y015326D01*
X008734Y015352D01*
X008730Y015379D01*
X008730Y015407D01*
X008734Y015434D01*
X008742Y015460D01*
X008752Y015485D01*
X008767Y015508D01*
X008784Y015530D01*
X008804Y015548D01*
X008826Y015564D01*
X008850Y015576D01*
X008876Y015586D01*
X008903Y015591D01*
X008930Y015593D01*
X008680Y017393D02*
X008180Y017393D01*
X007930Y017643D01*
X007680Y017393D01*
X007180Y017393D01*
X006930Y017643D01*
X006930Y018143D01*
X007180Y018393D01*
X007680Y018393D01*
X007930Y018143D01*
X008180Y018393D01*
X008680Y018393D01*
X008930Y018143D01*
X008930Y017643D01*
X008680Y017393D01*
X007930Y017643D02*
X007930Y018143D01*
D15*
X011579Y017624D02*
X011579Y017317D01*
X011733Y017163D01*
X011886Y017317D01*
X011886Y017624D01*
X012040Y017624D02*
X012040Y017240D01*
X012116Y017163D01*
X012270Y017163D01*
X012347Y017240D01*
X012347Y017624D01*
X012500Y017547D02*
X012500Y017470D01*
X012577Y017394D01*
X012730Y017394D01*
X012807Y017317D01*
X012807Y017240D01*
X012730Y017163D01*
X012577Y017163D01*
X012500Y017240D01*
X012500Y017547D02*
X012577Y017624D01*
X012730Y017624D01*
X012807Y017547D01*
X012960Y017624D02*
X013191Y017624D01*
X013267Y017547D01*
X013267Y017470D01*
X013191Y017394D01*
X012960Y017394D01*
X012960Y017624D02*
X012960Y017163D01*
X013191Y017163D01*
X013267Y017240D01*
X013267Y017317D01*
X013191Y017394D01*
X013037Y016624D02*
X012730Y016624D01*
X012884Y016624D02*
X012884Y016163D01*
X012577Y016240D02*
X012500Y016163D01*
X012347Y016163D01*
X012270Y016240D01*
X012347Y016394D02*
X012500Y016394D01*
X012577Y016317D01*
X012577Y016240D01*
X012347Y016394D02*
X012270Y016470D01*
X012270Y016547D01*
X012347Y016624D01*
X012500Y016624D01*
X012577Y016547D01*
X012116Y016547D02*
X012116Y016394D01*
X012040Y016317D01*
X011809Y016317D01*
X011809Y016163D02*
X011809Y016624D01*
X012040Y016624D01*
X012116Y016547D01*
X011963Y016317D02*
X012116Y016163D01*
X012040Y015624D02*
X012270Y015624D01*
X012347Y015547D01*
X012347Y015394D01*
X012270Y015317D01*
X012040Y015317D01*
X012193Y015317D02*
X012347Y015163D01*
X012500Y015163D02*
X012807Y015163D01*
X012960Y015163D02*
X012960Y015624D01*
X013267Y015624D01*
X013114Y015394D02*
X012960Y015394D01*
X012807Y015624D02*
X012500Y015624D01*
X012500Y015163D01*
X012500Y015394D02*
X012653Y015394D01*
X012040Y015624D02*
X012040Y015163D01*
X011886Y015163D02*
X011886Y015470D01*
X011733Y015624D01*
X011579Y015470D01*
X011579Y015163D01*
X011579Y015394D02*
X011886Y015394D01*
X011809Y014624D02*
X012040Y014624D01*
X012116Y014547D01*
X012116Y014394D01*
X012040Y014317D01*
X011809Y014317D01*
X011809Y014163D02*
X011809Y014624D01*
X012270Y014624D02*
X012270Y014163D01*
X012270Y014317D02*
X012500Y014317D01*
X012577Y014394D01*
X012577Y014547D01*
X012500Y014624D01*
X012270Y014624D01*
X012423Y014317D02*
X012577Y014163D01*
X012730Y014240D02*
X012730Y014547D01*
X012807Y014624D01*
X012960Y014624D01*
X013037Y014547D01*
X013037Y014394D02*
X012884Y014394D01*
X013037Y014394D02*
X013037Y014240D01*
X012960Y014163D01*
X012807Y014163D01*
X012730Y014240D01*
X012807Y013624D02*
X012960Y013624D01*
X013037Y013547D01*
X013037Y013470D01*
X012960Y013394D01*
X013037Y013317D01*
X013037Y013240D01*
X012960Y013163D01*
X012807Y013163D01*
X012730Y013240D01*
X012577Y013163D02*
X012270Y013163D01*
X012423Y013163D02*
X012423Y013624D01*
X012270Y013470D01*
X012116Y013470D02*
X011963Y013624D01*
X011809Y013470D01*
X011809Y013163D01*
X011809Y013394D02*
X012116Y013394D01*
X012116Y013470D02*
X012116Y013163D01*
X011963Y012624D02*
X012116Y012470D01*
X012116Y012163D01*
X012270Y012163D02*
X012577Y012163D01*
X012730Y012163D02*
X013037Y012470D01*
X013037Y012547D01*
X012960Y012624D01*
X012807Y012624D01*
X012730Y012547D01*
X012423Y012624D02*
X012423Y012163D01*
X012730Y012163D02*
X013037Y012163D01*
X012884Y011624D02*
X012884Y011163D01*
X013037Y011163D02*
X012730Y011163D01*
X012577Y011163D02*
X012270Y011163D01*
X012423Y011163D02*
X012423Y011624D01*
X012270Y011470D01*
X012116Y011470D02*
X012116Y011163D01*
X012116Y011394D02*
X011809Y011394D01*
X011809Y011470D02*
X011963Y011624D01*
X012116Y011470D01*
X011809Y011470D02*
X011809Y011163D01*
X011963Y010624D02*
X012116Y010470D01*
X012116Y010163D01*
X012270Y010163D02*
X012577Y010163D01*
X012423Y010163D02*
X012423Y010624D01*
X012270Y010470D01*
X012116Y010394D02*
X011809Y010394D01*
X011809Y010470D02*
X011809Y010163D01*
X011809Y010470D02*
X011963Y010624D01*
X012730Y010547D02*
X012730Y010240D01*
X013037Y010547D01*
X013037Y010240D01*
X012960Y010163D01*
X012807Y010163D01*
X012730Y010240D01*
X012730Y010547D02*
X012807Y010624D01*
X012960Y010624D01*
X013037Y010547D01*
X012730Y011470D02*
X012884Y011624D01*
X012270Y012470D02*
X012423Y012624D01*
X012116Y012394D02*
X011809Y012394D01*
X011809Y012470D02*
X011963Y012624D01*
X011809Y012470D02*
X011809Y012163D01*
X012884Y013394D02*
X012960Y013394D01*
X012730Y013547D02*
X012807Y013624D01*
X012730Y018163D02*
X012960Y018163D01*
X013037Y018240D01*
X013037Y018547D01*
X012960Y018624D01*
X012730Y018624D01*
X012730Y018163D01*
X012577Y018163D02*
X012577Y018624D01*
X012270Y018624D02*
X012577Y018163D01*
X012270Y018163D02*
X012270Y018624D01*
X012116Y018547D02*
X012040Y018624D01*
X011886Y018624D01*
X011809Y018547D01*
X011809Y018240D01*
X011886Y018163D01*
X012040Y018163D01*
X012116Y018240D01*
X012116Y018394D01*
X011963Y018394D01*
X012040Y019163D02*
X012270Y019163D01*
X012347Y019240D01*
X012347Y019317D01*
X012270Y019394D01*
X012040Y019394D01*
X011886Y019317D02*
X011886Y019624D01*
X012040Y019624D02*
X012270Y019624D01*
X012347Y019547D01*
X012347Y019470D01*
X012270Y019394D01*
X012500Y019394D02*
X012807Y019394D01*
X012807Y019470D02*
X012807Y019163D01*
X013114Y019163D02*
X013114Y019624D01*
X013267Y019624D02*
X012960Y019624D01*
X012807Y019470D02*
X012653Y019624D01*
X012500Y019470D01*
X012500Y019163D01*
X012040Y019163D02*
X012040Y019624D01*
X011886Y019317D02*
X011733Y019163D01*
X011579Y019317D01*
X011579Y019624D01*
X012040Y020163D02*
X012347Y020163D01*
X012193Y020163D02*
X012193Y020624D01*
X012040Y020470D01*
X012500Y020547D02*
X012577Y020624D01*
X012730Y020624D01*
X012807Y020547D01*
X012807Y020470D01*
X012730Y020394D01*
X012807Y020317D01*
X012807Y020240D01*
X012730Y020163D01*
X012577Y020163D01*
X012500Y020240D01*
X012653Y020394D02*
X012730Y020394D01*
X012730Y021163D02*
X012577Y021163D01*
X012500Y021240D01*
X012807Y021547D01*
X012807Y021240D01*
X012730Y021163D01*
X012500Y021240D02*
X012500Y021547D01*
X012577Y021624D01*
X012730Y021624D01*
X012807Y021547D01*
X012347Y021470D02*
X012347Y021163D01*
X012347Y021394D02*
X012040Y021394D01*
X012040Y021470D02*
X012193Y021624D01*
X012347Y021470D01*
X012040Y021470D02*
X012040Y021163D01*
X012040Y022163D02*
X012040Y022470D01*
X012193Y022624D01*
X012347Y022470D01*
X012347Y022163D01*
X012500Y022163D02*
X012807Y022163D01*
X012653Y022163D02*
X012653Y022624D01*
X012500Y022470D01*
X012347Y022394D02*
X012040Y022394D01*
X012040Y023163D02*
X012040Y023470D01*
X012193Y023624D01*
X012347Y023470D01*
X012347Y023163D01*
X012500Y023163D02*
X012807Y023470D01*
X012807Y023547D01*
X012730Y023624D01*
X012577Y023624D01*
X012500Y023547D01*
X012347Y023394D02*
X012040Y023394D01*
X012500Y023163D02*
X012807Y023163D01*
X012730Y024163D02*
X012577Y024163D01*
X012500Y024240D01*
X012347Y024163D02*
X012347Y024470D01*
X012193Y024624D01*
X012040Y024470D01*
X012040Y024163D01*
X012040Y024394D02*
X012347Y024394D01*
X012500Y024547D02*
X012577Y024624D01*
X012730Y024624D01*
X012807Y024547D01*
X012807Y024470D01*
X012730Y024394D01*
X012807Y024317D01*
X012807Y024240D01*
X012730Y024163D01*
X012730Y024394D02*
X012653Y024394D01*
X012730Y025163D02*
X012730Y025624D01*
X012500Y025394D01*
X012807Y025394D01*
X012347Y025394D02*
X012040Y025394D01*
X012040Y025470D02*
X012040Y025163D01*
X012347Y025163D02*
X012347Y025470D01*
X012193Y025624D01*
X012040Y025470D01*
X012040Y026163D02*
X012040Y026470D01*
X012193Y026624D01*
X012347Y026470D01*
X012347Y026163D01*
X012500Y026240D02*
X012577Y026163D01*
X012730Y026163D01*
X012807Y026240D01*
X012807Y026394D01*
X012730Y026470D01*
X012653Y026470D01*
X012500Y026394D01*
X012500Y026624D01*
X012807Y026624D01*
X012347Y026394D02*
X012040Y026394D01*
X012040Y027163D02*
X012040Y027470D01*
X012193Y027624D01*
X012347Y027470D01*
X012347Y027163D01*
X012500Y027240D02*
X012577Y027163D01*
X012730Y027163D01*
X012807Y027240D01*
X012807Y027317D01*
X012730Y027394D01*
X012500Y027394D01*
X012500Y027240D01*
X012500Y027394D02*
X012653Y027547D01*
X012807Y027624D01*
X012347Y027394D02*
X012040Y027394D01*
X012040Y028163D02*
X012040Y028470D01*
X012193Y028624D01*
X012347Y028470D01*
X012347Y028163D01*
X012500Y028163D02*
X012500Y028240D01*
X012807Y028547D01*
X012807Y028624D01*
X012500Y028624D01*
X012347Y028394D02*
X012040Y028394D01*
X012040Y029163D02*
X012040Y029470D01*
X012193Y029624D01*
X012347Y029470D01*
X012347Y029163D01*
X012500Y029240D02*
X012500Y029317D01*
X012577Y029394D01*
X012730Y029394D01*
X012807Y029317D01*
X012807Y029240D01*
X012730Y029163D01*
X012577Y029163D01*
X012500Y029240D01*
X012577Y029394D02*
X012500Y029470D01*
X012500Y029547D01*
X012577Y029624D01*
X012730Y029624D01*
X012807Y029547D01*
X012807Y029470D01*
X012730Y029394D01*
X012347Y029394D02*
X012040Y029394D01*
X012040Y030163D02*
X012040Y030470D01*
X012193Y030624D01*
X012347Y030470D01*
X012347Y030163D01*
X012500Y030240D02*
X012577Y030163D01*
X012730Y030163D01*
X012807Y030240D01*
X012807Y030547D01*
X012730Y030624D01*
X012577Y030624D01*
X012500Y030547D01*
X012500Y030470D01*
X012577Y030394D01*
X012807Y030394D01*
X012347Y030394D02*
X012040Y030394D01*
X012040Y031163D02*
X011886Y031163D01*
X011809Y031240D01*
X011963Y031394D02*
X012040Y031394D01*
X012116Y031317D01*
X012116Y031240D01*
X012040Y031163D01*
X012040Y031394D02*
X012116Y031470D01*
X012116Y031547D01*
X012040Y031624D01*
X011886Y031624D01*
X011809Y031547D01*
X012270Y031624D02*
X012270Y031317D01*
X012423Y031163D01*
X012577Y031317D01*
X012577Y031624D01*
X012730Y031547D02*
X012807Y031624D01*
X012960Y031624D01*
X013037Y031547D01*
X013037Y031470D01*
X012960Y031394D01*
X013037Y031317D01*
X013037Y031240D01*
X012960Y031163D01*
X012807Y031163D01*
X012730Y031240D01*
X012884Y031394D02*
X012960Y031394D01*
X012960Y032163D02*
X013191Y032163D01*
X013267Y032240D01*
X013267Y032547D01*
X013191Y032624D01*
X012960Y032624D01*
X012960Y032163D01*
X012807Y032163D02*
X012807Y032624D01*
X012500Y032624D02*
X012500Y032163D01*
X012347Y032240D02*
X012270Y032163D01*
X012116Y032163D01*
X012040Y032240D01*
X012040Y032547D01*
X012116Y032624D01*
X012270Y032624D01*
X012347Y032547D01*
X012347Y032394D02*
X012193Y032394D01*
X012347Y032394D02*
X012347Y032240D01*
X012500Y032624D02*
X012807Y032163D01*
X011886Y032163D02*
X011886Y032470D01*
X011733Y032624D01*
X011579Y032470D01*
X011579Y032163D01*
X011579Y032394D02*
X011886Y032394D01*
X012040Y033163D02*
X012193Y033317D01*
X012193Y033624D01*
X012347Y033624D02*
X012500Y033624D01*
X012423Y033624D02*
X012423Y033163D01*
X012347Y033163D02*
X012500Y033163D01*
X012653Y033163D02*
X012653Y033624D01*
X012960Y033163D01*
X012960Y033624D01*
X012040Y033163D02*
X011886Y033317D01*
X011886Y033624D01*
X015650Y030673D02*
X017540Y030673D01*
X018210Y030004D01*
X018210Y029767D01*
X018210Y029019D02*
X018210Y028783D01*
X017540Y028114D01*
X015650Y028114D01*
X015650Y029019D01*
X015650Y029767D02*
X015650Y030673D01*
X015769Y029019D02*
X015791Y028955D01*
X015818Y028892D01*
X015848Y028830D01*
X015881Y028771D01*
X015917Y028713D01*
X015957Y028657D01*
X016000Y028604D01*
X016045Y028553D01*
X016093Y028505D01*
X016144Y028460D01*
X016198Y028417D01*
X016254Y028378D01*
X016311Y028341D01*
X016371Y028308D01*
X016433Y028279D01*
X016496Y028253D01*
X016560Y028230D01*
X016626Y028211D01*
X016693Y028196D01*
X016760Y028185D01*
X016828Y028177D01*
X016896Y028173D01*
X016964Y028173D01*
X017032Y028177D01*
X017100Y028185D01*
X017167Y028196D01*
X017234Y028211D01*
X017300Y028230D01*
X017364Y028253D01*
X017427Y028279D01*
X017489Y028308D01*
X017549Y028341D01*
X017606Y028378D01*
X017662Y028417D01*
X017716Y028460D01*
X017767Y028505D01*
X017815Y028553D01*
X017860Y028604D01*
X017903Y028657D01*
X017943Y028713D01*
X017979Y028771D01*
X018012Y028830D01*
X018042Y028892D01*
X018069Y028955D01*
X018091Y029019D01*
X018091Y029767D02*
X018069Y029831D01*
X018042Y029894D01*
X018012Y029956D01*
X017979Y030015D01*
X017943Y030073D01*
X017903Y030129D01*
X017860Y030182D01*
X017815Y030233D01*
X017767Y030281D01*
X017716Y030326D01*
X017662Y030369D01*
X017606Y030408D01*
X017549Y030445D01*
X017489Y030478D01*
X017427Y030507D01*
X017364Y030533D01*
X017300Y030556D01*
X017234Y030575D01*
X017167Y030590D01*
X017100Y030601D01*
X017032Y030609D01*
X016964Y030613D01*
X016896Y030613D01*
X016828Y030609D01*
X016760Y030601D01*
X016693Y030590D01*
X016626Y030575D01*
X016560Y030556D01*
X016496Y030533D01*
X016433Y030507D01*
X016371Y030478D01*
X016311Y030445D01*
X016254Y030408D01*
X016198Y030369D01*
X016144Y030326D01*
X016093Y030281D01*
X016045Y030233D01*
X016000Y030182D01*
X015957Y030129D01*
X015917Y030073D01*
X015881Y030015D01*
X015848Y029956D01*
X015818Y029894D01*
X015791Y029831D01*
X015769Y029767D01*
X004087Y033190D02*
X004010Y033113D01*
X003780Y033113D01*
X003780Y033574D01*
X004010Y033574D01*
X004087Y033497D01*
X004087Y033190D01*
X003627Y033113D02*
X003627Y033574D01*
X003320Y033574D02*
X003627Y033113D01*
X003320Y033113D02*
X003320Y033574D01*
X003166Y033497D02*
X003090Y033574D01*
X002936Y033574D01*
X002859Y033497D01*
X002859Y033190D01*
X002936Y033113D01*
X003090Y033113D01*
X003166Y033190D01*
X003166Y033344D01*
X003013Y033344D01*
X003397Y032574D02*
X003550Y032574D01*
X003627Y032497D01*
X003320Y032190D01*
X003397Y032113D01*
X003550Y032113D01*
X003627Y032190D01*
X003627Y032497D01*
X003397Y032574D02*
X003320Y032497D01*
X003320Y032190D01*
X003473Y031574D02*
X003473Y031113D01*
X003320Y031113D02*
X003627Y031113D01*
X003320Y031420D02*
X003473Y031574D01*
X003397Y030574D02*
X003320Y030497D01*
X003397Y030574D02*
X003550Y030574D01*
X003627Y030497D01*
X003627Y030420D01*
X003320Y030113D01*
X003627Y030113D01*
X003550Y029574D02*
X003627Y029497D01*
X003627Y029420D01*
X003550Y029344D01*
X003627Y029267D01*
X003627Y029190D01*
X003550Y029113D01*
X003397Y029113D01*
X003320Y029190D01*
X003473Y029344D02*
X003550Y029344D01*
X003550Y029574D02*
X003397Y029574D01*
X003320Y029497D01*
X003550Y028574D02*
X003320Y028344D01*
X003627Y028344D01*
X003550Y028574D02*
X003550Y028113D01*
X003627Y027574D02*
X003320Y027574D01*
X003320Y027344D01*
X003473Y027420D01*
X003550Y027420D01*
X003627Y027344D01*
X003627Y027190D01*
X003550Y027113D01*
X003397Y027113D01*
X003320Y027190D01*
X003627Y026574D02*
X003473Y026497D01*
X003320Y026344D01*
X003550Y026344D01*
X003627Y026267D01*
X003627Y026190D01*
X003550Y026113D01*
X003397Y026113D01*
X003320Y026190D01*
X003320Y026344D01*
X003320Y025574D02*
X003627Y025574D01*
X003627Y025497D01*
X003320Y025190D01*
X003320Y025113D01*
X003397Y024574D02*
X003550Y024574D01*
X003627Y024497D01*
X003627Y024420D01*
X003550Y024344D01*
X003397Y024344D01*
X003320Y024420D01*
X003320Y024497D01*
X003397Y024574D01*
X003397Y024344D02*
X003320Y024267D01*
X003320Y024190D01*
X003397Y024113D01*
X003550Y024113D01*
X003627Y024190D01*
X003627Y024267D01*
X003550Y024344D01*
X003550Y023574D02*
X003397Y023574D01*
X003320Y023497D01*
X003320Y023420D01*
X003397Y023344D01*
X003627Y023344D01*
X003627Y023497D02*
X003550Y023574D01*
X003627Y023497D02*
X003627Y023190D01*
X003550Y023113D01*
X003397Y023113D01*
X003320Y023190D01*
X003243Y022574D02*
X003243Y022113D01*
X003090Y022113D02*
X003397Y022113D01*
X003550Y022190D02*
X003857Y022497D01*
X003857Y022190D01*
X003780Y022113D01*
X003627Y022113D01*
X003550Y022190D01*
X003550Y022497D01*
X003627Y022574D01*
X003780Y022574D01*
X003857Y022497D01*
X003243Y022574D02*
X003090Y022420D01*
X003243Y021574D02*
X003243Y021113D01*
X003090Y021113D02*
X003397Y021113D01*
X003550Y021113D02*
X003857Y021113D01*
X003703Y021113D02*
X003703Y021574D01*
X003550Y021420D01*
X003243Y021574D02*
X003090Y021420D01*
X003243Y020574D02*
X003243Y020113D01*
X003090Y020113D02*
X003397Y020113D01*
X003550Y020113D02*
X003857Y020420D01*
X003857Y020497D01*
X003780Y020574D01*
X003627Y020574D01*
X003550Y020497D01*
X003243Y020574D02*
X003090Y020420D01*
X003550Y020113D02*
X003857Y020113D01*
X003780Y019574D02*
X003550Y019344D01*
X003857Y019344D01*
X003780Y019574D02*
X003780Y019113D01*
X003397Y019113D02*
X003090Y019113D01*
X003397Y019420D01*
X003397Y019497D01*
X003320Y019574D01*
X003166Y019574D01*
X003090Y019497D01*
X003166Y018574D02*
X003090Y018497D01*
X003166Y018574D02*
X003320Y018574D01*
X003397Y018497D01*
X003397Y018420D01*
X003090Y018113D01*
X003397Y018113D01*
X003550Y018190D02*
X003627Y018113D01*
X003780Y018113D01*
X003857Y018190D01*
X003857Y018344D01*
X003780Y018420D01*
X003703Y018420D01*
X003550Y018344D01*
X003550Y018574D01*
X003857Y018574D01*
X003857Y017574D02*
X003703Y017497D01*
X003550Y017344D01*
X003780Y017344D01*
X003857Y017267D01*
X003857Y017190D01*
X003780Y017113D01*
X003627Y017113D01*
X003550Y017190D01*
X003550Y017344D01*
X003397Y017420D02*
X003397Y017497D01*
X003320Y017574D01*
X003166Y017574D01*
X003090Y017497D01*
X003397Y017420D02*
X003090Y017113D01*
X003397Y017113D01*
X003320Y016574D02*
X003166Y016574D01*
X003090Y016497D01*
X003320Y016574D02*
X003397Y016497D01*
X003397Y016420D01*
X003090Y016113D01*
X003397Y016113D01*
X003550Y016113D02*
X003550Y016190D01*
X003857Y016497D01*
X003857Y016574D01*
X003550Y016574D01*
X003627Y015574D02*
X003780Y015574D01*
X003857Y015497D01*
X003857Y015420D01*
X003780Y015344D01*
X003627Y015344D01*
X003550Y015420D01*
X003550Y015497D01*
X003627Y015574D01*
X003627Y015344D02*
X003550Y015267D01*
X003550Y015190D01*
X003627Y015113D01*
X003780Y015113D01*
X003857Y015190D01*
X003857Y015267D01*
X003780Y015344D01*
X003397Y015420D02*
X003397Y015497D01*
X003320Y015574D01*
X003166Y015574D01*
X003090Y015497D01*
X003397Y015420D02*
X003090Y015113D01*
X003397Y015113D01*
X003320Y014574D02*
X003166Y014574D01*
X003090Y014497D01*
X003320Y014574D02*
X003397Y014497D01*
X003397Y014420D01*
X003090Y014113D01*
X003397Y014113D01*
X003550Y014190D02*
X003627Y014113D01*
X003780Y014113D01*
X003857Y014190D01*
X003857Y014497D01*
X003780Y014574D01*
X003627Y014574D01*
X003550Y014497D01*
X003550Y014420D01*
X003627Y014344D01*
X003857Y014344D01*
X003780Y013574D02*
X003857Y013497D01*
X003550Y013190D01*
X003627Y013113D01*
X003780Y013113D01*
X003857Y013190D01*
X003857Y013497D01*
X003780Y013574D02*
X003627Y013574D01*
X003550Y013497D01*
X003550Y013190D01*
X003397Y013190D02*
X003320Y013113D01*
X003166Y013113D01*
X003090Y013190D01*
X003243Y013344D02*
X003320Y013344D01*
X003397Y013267D01*
X003397Y013190D01*
X003320Y013344D02*
X003397Y013420D01*
X003397Y013497D01*
X003320Y013574D01*
X003166Y013574D01*
X003090Y013497D01*
X003166Y012574D02*
X003320Y012574D01*
X003397Y012497D01*
X003397Y012420D01*
X003320Y012344D01*
X003397Y012267D01*
X003397Y012190D01*
X003320Y012113D01*
X003166Y012113D01*
X003090Y012190D01*
X003243Y012344D02*
X003320Y012344D01*
X003550Y012420D02*
X003703Y012574D01*
X003703Y012113D01*
X003550Y012113D02*
X003857Y012113D01*
X003780Y011574D02*
X003627Y011574D01*
X003550Y011497D01*
X003397Y011497D02*
X003397Y011420D01*
X003320Y011344D01*
X003397Y011267D01*
X003397Y011190D01*
X003320Y011113D01*
X003166Y011113D01*
X003090Y011190D01*
X003243Y011344D02*
X003320Y011344D01*
X003397Y011497D02*
X003320Y011574D01*
X003166Y011574D01*
X003090Y011497D01*
X003550Y011113D02*
X003857Y011420D01*
X003857Y011497D01*
X003780Y011574D01*
X003857Y011113D02*
X003550Y011113D01*
X003627Y010574D02*
X003780Y010574D01*
X003857Y010497D01*
X003857Y010420D01*
X003780Y010344D01*
X003857Y010267D01*
X003857Y010190D01*
X003780Y010113D01*
X003627Y010113D01*
X003550Y010190D01*
X003397Y010190D02*
X003320Y010113D01*
X003166Y010113D01*
X003090Y010190D01*
X003243Y010344D02*
X003320Y010344D01*
X003397Y010267D01*
X003397Y010190D01*
X003320Y010344D02*
X003397Y010420D01*
X003397Y010497D01*
X003320Y010574D01*
X003166Y010574D01*
X003090Y010497D01*
X003550Y010497D02*
X003627Y010574D01*
X003703Y010344D02*
X003780Y010344D01*
X003090Y012497D02*
X003166Y012574D01*
X032143Y024856D02*
X032379Y024856D01*
X032143Y024856D02*
X032143Y025092D01*
X032143Y026194D02*
X032143Y026273D01*
X032300Y026431D01*
X032379Y026431D01*
X033481Y026431D02*
X033717Y026431D01*
X033717Y026194D01*
X033717Y025092D02*
X033717Y024856D01*
X033481Y024856D01*
X035920Y027240D02*
X035997Y027163D01*
X036227Y027163D01*
X036227Y027623D01*
X036227Y027470D02*
X035997Y027470D01*
X035920Y027393D01*
X035920Y027240D01*
X036073Y027470D02*
X035920Y027623D01*
X036380Y027623D02*
X036687Y027623D01*
X036687Y027163D01*
X036380Y027163D01*
X036534Y027393D02*
X036687Y027393D01*
X036841Y027623D02*
X036841Y027163D01*
X037148Y027163D02*
X037148Y027623D01*
X036994Y027470D01*
X036841Y027623D01*
X037301Y027547D02*
X037301Y027240D01*
X037378Y027163D01*
X037531Y027163D01*
X037608Y027240D01*
X037608Y027547D01*
X037531Y027623D01*
X037378Y027623D01*
X037301Y027547D01*
X037762Y027393D02*
X037838Y027470D01*
X038068Y027470D01*
X038068Y027623D02*
X038068Y027163D01*
X037838Y027163D01*
X037762Y027240D01*
X037762Y027393D01*
X038682Y027163D02*
X038989Y027163D01*
X038836Y027163D02*
X038836Y027623D01*
X039143Y027623D02*
X039450Y027163D01*
X039603Y027163D02*
X039910Y027163D01*
X039910Y027623D01*
X039603Y027623D01*
X039450Y027623D02*
X039143Y027163D01*
X039757Y027393D02*
X039910Y027393D01*
D16*
X029910Y030131D02*
X029910Y030205D01*
X029873Y030241D01*
X029727Y030241D01*
X029690Y030205D01*
X029690Y030131D01*
X029727Y030095D01*
X029800Y030095D01*
X029800Y030168D01*
X029873Y030095D02*
X029910Y030131D01*
X029910Y030316D02*
X029910Y030462D01*
X029690Y030462D01*
X029690Y030316D01*
X029800Y030389D02*
X029800Y030462D01*
X029800Y030537D02*
X029763Y030573D01*
X029763Y030683D01*
X029690Y030683D02*
X029910Y030683D01*
X029910Y030573D01*
X029873Y030537D01*
X029800Y030537D01*
X029763Y030610D02*
X029690Y030537D01*
X029310Y030537D02*
X029163Y030537D01*
X029090Y030610D01*
X029163Y030683D01*
X029310Y030683D01*
X029310Y030462D02*
X029310Y030389D01*
X029310Y030426D02*
X029090Y030426D01*
X029090Y030462D02*
X029090Y030389D01*
X029090Y030315D02*
X029310Y030315D01*
X029090Y030168D01*
X029310Y030168D01*
X029360Y028433D02*
X029213Y028433D01*
X029140Y028360D01*
X029213Y028287D01*
X029360Y028287D01*
X029360Y028212D02*
X029177Y028212D01*
X029140Y028176D01*
X029140Y028102D01*
X029177Y028066D01*
X029360Y028066D01*
X029323Y027991D02*
X029287Y027991D01*
X029250Y027955D01*
X029250Y027881D01*
X029213Y027845D01*
X029177Y027845D01*
X029140Y027881D01*
X029140Y027955D01*
X029177Y027991D01*
X029323Y027991D02*
X029360Y027955D01*
X029360Y027881D01*
X029323Y027845D01*
X029360Y027770D02*
X029360Y027660D01*
X029323Y027624D01*
X029287Y027624D01*
X029250Y027660D01*
X029250Y027770D01*
X029250Y027660D02*
X029213Y027624D01*
X029177Y027624D01*
X029140Y027660D01*
X029140Y027770D01*
X029360Y027770D01*
X028760Y027845D02*
X028760Y027991D01*
X028760Y027918D02*
X028540Y027918D01*
X028540Y028066D02*
X028760Y028212D01*
X028760Y028287D02*
X028760Y028433D01*
X028540Y028433D01*
X028540Y028287D01*
X028540Y028212D02*
X028760Y028066D01*
X028650Y028360D02*
X028650Y028433D01*
X028577Y027770D02*
X028577Y027734D01*
X028540Y027734D01*
X028540Y027770D01*
X028577Y027770D01*
X028613Y027439D02*
X028613Y027329D01*
X028650Y027292D01*
X028723Y027292D01*
X028760Y027329D01*
X028760Y027439D01*
X028540Y027439D01*
X028577Y027218D02*
X028540Y027181D01*
X028540Y027108D01*
X028577Y027071D01*
X028723Y027071D01*
X028760Y027108D01*
X028760Y027181D01*
X028723Y027218D01*
X028577Y027218D01*
X028540Y026997D02*
X028613Y026923D01*
X028540Y026850D01*
X028760Y026850D01*
X028760Y026776D02*
X028540Y026776D01*
X028540Y026629D01*
X028540Y026555D02*
X028760Y026555D01*
X028760Y026445D01*
X028723Y026408D01*
X028650Y026408D01*
X028613Y026445D01*
X028613Y026555D01*
X028613Y026482D02*
X028540Y026408D01*
X028760Y026629D02*
X028760Y026776D01*
X028650Y026776D02*
X028650Y026703D01*
X028760Y026997D02*
X028540Y026997D01*
X027610Y022583D02*
X027390Y022583D01*
X027390Y022473D01*
X027427Y022437D01*
X027463Y022437D01*
X027500Y022473D01*
X027500Y022583D01*
X027500Y022473D02*
X027537Y022437D01*
X027573Y022437D01*
X027610Y022473D01*
X027610Y022583D01*
X027537Y022362D02*
X027610Y022289D01*
X027537Y022216D01*
X027390Y022216D01*
X027500Y022216D02*
X027500Y022362D01*
X027537Y022362D02*
X027390Y022362D01*
X027390Y022068D02*
X027610Y022068D01*
X027610Y022141D02*
X027610Y021995D01*
X027353Y021920D02*
X027353Y021774D01*
X027427Y021699D02*
X027390Y021663D01*
X027390Y021589D01*
X027427Y021553D01*
X027390Y021478D02*
X027610Y021478D01*
X027573Y021553D02*
X027610Y021589D01*
X027610Y021663D01*
X027573Y021699D01*
X027427Y021699D01*
X027500Y021478D02*
X027500Y021332D01*
X027500Y021257D02*
X027500Y021111D01*
X027537Y021111D02*
X027390Y021111D01*
X027390Y021036D02*
X027610Y021036D01*
X027610Y020926D01*
X027573Y020890D01*
X027500Y020890D01*
X027463Y020926D01*
X027463Y021036D01*
X027463Y020963D02*
X027390Y020890D01*
X027427Y020815D02*
X027390Y020779D01*
X027390Y020705D01*
X027427Y020669D01*
X027500Y020669D01*
X027500Y020742D01*
X027573Y020815D02*
X027427Y020815D01*
X027573Y020815D02*
X027610Y020779D01*
X027610Y020705D01*
X027573Y020669D01*
X027610Y020594D02*
X027390Y020594D01*
X027390Y020448D01*
X027390Y020373D02*
X027610Y020373D01*
X027610Y020263D01*
X027573Y020227D01*
X027500Y020227D01*
X027463Y020263D01*
X027463Y020373D01*
X027463Y020300D02*
X027390Y020227D01*
X027610Y020448D02*
X027610Y020594D01*
X027500Y020594D02*
X027500Y020521D01*
X027537Y021111D02*
X027610Y021184D01*
X027537Y021257D01*
X027390Y021257D01*
X027390Y021332D02*
X027610Y021332D01*
X027010Y021884D02*
X026863Y021884D01*
X026790Y021957D01*
X026863Y022031D01*
X027010Y022031D01*
X026973Y022105D02*
X026937Y022105D01*
X026900Y022142D01*
X026863Y022105D01*
X026827Y022105D01*
X026790Y022142D01*
X026790Y022215D01*
X026827Y022252D01*
X026827Y022326D02*
X026790Y022326D01*
X026790Y022362D01*
X026827Y022362D01*
X026827Y022326D01*
X026827Y022437D02*
X026790Y022473D01*
X026790Y022547D01*
X026827Y022583D01*
X026900Y022510D02*
X026900Y022473D01*
X026863Y022437D01*
X026827Y022437D01*
X026900Y022473D02*
X026937Y022437D01*
X026973Y022437D01*
X027010Y022473D01*
X027010Y022547D01*
X026973Y022583D01*
X026973Y022252D02*
X027010Y022215D01*
X027010Y022142D01*
X026973Y022105D01*
X026900Y022142D02*
X026900Y022178D01*
X025178Y015373D02*
X025215Y015337D01*
X025068Y015190D01*
X025105Y015153D01*
X025178Y015153D01*
X025215Y015190D01*
X025215Y015337D01*
X025178Y015373D02*
X025105Y015373D01*
X025068Y015337D01*
X025068Y015190D01*
X024994Y015263D02*
X024847Y015263D01*
X024773Y015263D02*
X024626Y015263D01*
X024737Y015373D01*
X024737Y015153D01*
X024552Y015190D02*
X024516Y015153D01*
X024442Y015153D01*
X024405Y015190D01*
X024552Y015337D01*
X024552Y015190D01*
X024405Y015190D02*
X024405Y015337D01*
X024442Y015373D01*
X024516Y015373D01*
X024552Y015337D01*
X024331Y015337D02*
X024184Y015190D01*
X024221Y015153D01*
X024295Y015153D01*
X024331Y015190D01*
X024331Y015337D01*
X024295Y015373D01*
X024221Y015373D01*
X024184Y015337D01*
X024184Y015190D01*
X023890Y015190D02*
X023890Y015153D01*
X023853Y015153D01*
X023853Y015190D01*
X023890Y015190D01*
X023779Y015227D02*
X023779Y015373D01*
X023779Y015227D02*
X023705Y015153D01*
X023632Y015227D01*
X023632Y015373D01*
X023558Y015373D02*
X023411Y015373D01*
X023411Y015153D01*
X023558Y015153D01*
X023484Y015263D02*
X023411Y015263D01*
X023337Y015263D02*
X023300Y015227D01*
X023190Y015227D01*
X023263Y015227D02*
X023337Y015153D01*
X023337Y015263D02*
X023337Y015337D01*
X023300Y015373D01*
X023190Y015373D01*
X023190Y015153D01*
X018128Y012853D02*
X018098Y012883D01*
X018038Y012883D01*
X018008Y012853D01*
X018008Y012733D01*
X018038Y012703D01*
X018098Y012703D01*
X018128Y012733D01*
X018128Y012793D01*
X018068Y012793D01*
X017944Y012793D02*
X017914Y012763D01*
X017824Y012763D01*
X017824Y012703D02*
X017824Y012883D01*
X017914Y012883D01*
X017944Y012853D01*
X017944Y012793D01*
X017760Y012883D02*
X017640Y012703D01*
X017397Y012703D02*
X017277Y012703D01*
X017397Y012823D01*
X017397Y012853D01*
X017367Y012883D01*
X017307Y012883D01*
X017277Y012853D01*
X017213Y012883D02*
X017092Y012883D01*
X017153Y012883D02*
X017153Y012703D01*
X017028Y012703D02*
X017028Y012823D01*
X016968Y012883D01*
X016908Y012823D01*
X016908Y012703D01*
X016908Y012793D02*
X017028Y012793D01*
X016844Y012883D02*
X016724Y012883D01*
X016784Y012883D02*
X016784Y012703D01*
X016660Y012733D02*
X016630Y012703D01*
X016570Y012703D01*
X016540Y012733D01*
X016570Y012793D02*
X016540Y012823D01*
X016540Y012853D01*
X016570Y012883D01*
X016630Y012883D01*
X016660Y012853D01*
X016630Y012793D02*
X016660Y012763D01*
X016660Y012733D01*
X016630Y012793D02*
X016570Y012793D01*
X016397Y012703D02*
X016277Y012703D01*
X016337Y012703D02*
X016337Y012883D01*
X016277Y012823D01*
X016213Y012883D02*
X016092Y012883D01*
X016153Y012883D02*
X016153Y012703D01*
X016028Y012703D02*
X016028Y012823D01*
X015968Y012883D01*
X015908Y012823D01*
X015908Y012703D01*
X015908Y012793D02*
X016028Y012793D01*
X015844Y012883D02*
X015724Y012883D01*
X015784Y012883D02*
X015784Y012703D01*
X015660Y012733D02*
X015630Y012703D01*
X015570Y012703D01*
X015540Y012733D01*
X015570Y012793D02*
X015630Y012793D01*
X015660Y012763D01*
X015660Y012733D01*
X015570Y012793D02*
X015540Y012823D01*
X015540Y012853D01*
X015570Y012883D01*
X015630Y012883D01*
X015660Y012853D01*
X015690Y014077D02*
X015690Y014187D01*
X015727Y014224D01*
X015800Y014224D01*
X015837Y014187D01*
X015837Y014077D01*
X015910Y014077D02*
X015690Y014077D01*
X015690Y014298D02*
X015690Y014408D01*
X015727Y014445D01*
X015800Y014445D01*
X015837Y014408D01*
X015837Y014298D01*
X015910Y014298D02*
X015690Y014298D01*
X015837Y014372D02*
X015910Y014445D01*
X015873Y014519D02*
X015910Y014556D01*
X015910Y014629D01*
X015873Y014666D01*
X015727Y014666D01*
X015690Y014629D01*
X015690Y014556D01*
X015727Y014519D01*
X015873Y014519D01*
X015873Y014740D02*
X015910Y014777D01*
X015910Y014850D01*
X015873Y014887D01*
X015800Y014887D01*
X015800Y014814D01*
X015727Y014887D02*
X015690Y014850D01*
X015690Y014777D01*
X015727Y014740D01*
X015873Y014740D01*
X016050Y014777D02*
X016087Y014740D01*
X016123Y014740D01*
X016160Y014777D01*
X016160Y014850D01*
X016197Y014887D01*
X016233Y014887D01*
X016270Y014850D01*
X016270Y014777D01*
X016233Y014740D01*
X016050Y014777D02*
X016050Y014850D01*
X016087Y014887D01*
X016050Y014961D02*
X016270Y014961D01*
X016270Y015108D01*
X016270Y015182D02*
X016270Y015329D01*
X016270Y015403D02*
X016270Y015550D01*
X016233Y015624D02*
X016270Y015661D01*
X016270Y015734D01*
X016233Y015771D01*
X016087Y015771D02*
X016050Y015734D01*
X016050Y015661D01*
X016087Y015624D01*
X016233Y015624D01*
X016160Y015477D02*
X016160Y015403D01*
X016050Y015403D02*
X016270Y015403D01*
X016050Y015403D02*
X016050Y015550D01*
X015910Y015624D02*
X015690Y015624D01*
X015690Y015734D01*
X015727Y015771D01*
X015800Y015771D01*
X015837Y015734D01*
X015837Y015624D01*
X015837Y015698D02*
X015910Y015771D01*
X015910Y015845D02*
X015910Y015992D01*
X015873Y016066D02*
X015910Y016103D01*
X015910Y016176D01*
X015873Y016213D01*
X015837Y016213D01*
X015800Y016176D01*
X015800Y016103D01*
X015763Y016066D01*
X015727Y016066D01*
X015690Y016103D01*
X015690Y016176D01*
X015727Y016213D01*
X015690Y016287D02*
X015910Y016287D01*
X015910Y016434D01*
X015800Y016361D02*
X015800Y016287D01*
X015690Y016287D02*
X015690Y016434D01*
X015690Y016508D02*
X015690Y016655D01*
X015690Y016582D02*
X015910Y016582D01*
X016050Y015992D02*
X016050Y015845D01*
X016050Y015919D02*
X016270Y015919D01*
X015910Y015845D02*
X015690Y015845D01*
X015690Y015992D01*
X015800Y015919D02*
X015800Y015845D01*
X015800Y015329D02*
X015800Y015182D01*
X016050Y015182D02*
X016270Y015182D01*
X016160Y015035D02*
X016160Y014961D01*
X016050Y014961D02*
X016050Y015108D01*
X016053Y010423D02*
X016053Y010203D01*
X016200Y010203D01*
X016274Y010203D02*
X016274Y010423D01*
X016384Y010423D01*
X016421Y010387D01*
X016421Y010313D01*
X016384Y010277D01*
X016274Y010277D01*
X016347Y010277D02*
X016421Y010203D01*
X016640Y010203D02*
X016640Y010350D01*
X016713Y010423D01*
X016787Y010350D01*
X016787Y010203D01*
X016861Y010240D02*
X016898Y010203D01*
X016971Y010203D01*
X017008Y010240D01*
X017008Y010277D01*
X016971Y010313D01*
X016898Y010313D01*
X016861Y010350D01*
X016861Y010387D01*
X016898Y010423D01*
X016971Y010423D01*
X017008Y010387D01*
X017082Y010387D02*
X017082Y010240D01*
X017119Y010203D01*
X017192Y010203D01*
X017229Y010240D01*
X017229Y010387D02*
X017192Y010423D01*
X017119Y010423D01*
X017082Y010387D01*
X016787Y010313D02*
X016640Y010313D01*
X016200Y010423D02*
X016053Y010423D01*
X015979Y010423D02*
X015979Y010203D01*
X015905Y010277D01*
X015832Y010203D01*
X015832Y010423D01*
X015758Y010387D02*
X015721Y010423D01*
X015648Y010423D01*
X015611Y010387D01*
X015611Y010240D01*
X015648Y010203D01*
X015721Y010203D01*
X015758Y010240D01*
X015758Y010387D01*
X015537Y010387D02*
X015537Y010313D01*
X015500Y010277D01*
X015390Y010277D01*
X015390Y010203D02*
X015390Y010423D01*
X015500Y010423D01*
X015537Y010387D01*
X016053Y010313D02*
X016126Y010313D01*
X017590Y010277D02*
X017700Y010277D01*
X017737Y010313D01*
X017737Y010387D01*
X017700Y010423D01*
X017590Y010423D01*
X017590Y010203D01*
X017663Y010277D02*
X017737Y010203D01*
X017811Y010240D02*
X017848Y010203D01*
X017921Y010203D01*
X017958Y010240D01*
X017958Y010277D01*
X017921Y010313D01*
X017848Y010313D01*
X017811Y010350D01*
X017811Y010387D01*
X017848Y010423D01*
X017921Y010423D01*
X017958Y010387D01*
X018032Y010387D02*
X018032Y010350D01*
X018069Y010313D01*
X018142Y010313D01*
X018179Y010277D01*
X018179Y010240D01*
X018142Y010203D01*
X018069Y010203D01*
X018032Y010240D01*
X018032Y010387D02*
X018069Y010423D01*
X018142Y010423D01*
X018179Y010387D01*
X018253Y010423D02*
X018326Y010423D01*
X018290Y010423D02*
X018290Y010203D01*
X018326Y010203D02*
X018253Y010203D01*
X018105Y008123D02*
X018105Y007903D01*
X018032Y007903D02*
X018179Y007903D01*
X018032Y008050D02*
X018105Y008123D01*
X017958Y008123D02*
X017811Y007903D01*
X017958Y007903D02*
X017811Y008123D01*
X017737Y008123D02*
X017590Y008123D01*
X017663Y008123D02*
X017663Y007903D01*
X017179Y007903D02*
X017032Y007903D01*
X017105Y007903D02*
X017105Y008123D01*
X017032Y008050D01*
X016958Y008123D02*
X016811Y007903D01*
X016737Y007903D02*
X016663Y007977D01*
X016700Y007977D02*
X016590Y007977D01*
X016590Y007903D02*
X016590Y008123D01*
X016700Y008123D01*
X016737Y008087D01*
X016737Y008013D01*
X016700Y007977D01*
X016811Y008123D02*
X016958Y007903D01*
X015929Y007903D02*
X015782Y007903D01*
X015929Y008050D01*
X015929Y008087D01*
X015892Y008123D01*
X015819Y008123D01*
X015782Y008087D01*
X015708Y008123D02*
X015561Y007903D01*
X015708Y007903D02*
X015561Y008123D01*
X015487Y008123D02*
X015340Y008123D01*
X015413Y008123D02*
X015413Y007903D01*
X014929Y007903D02*
X014782Y007903D01*
X014929Y008050D01*
X014929Y008087D01*
X014892Y008123D01*
X014819Y008123D01*
X014782Y008087D01*
X014708Y008123D02*
X014561Y007903D01*
X014487Y007903D02*
X014413Y007977D01*
X014450Y007977D02*
X014340Y007977D01*
X014340Y007903D02*
X014340Y008123D01*
X014450Y008123D01*
X014487Y008087D01*
X014487Y008013D01*
X014450Y007977D01*
X014561Y008123D02*
X014708Y007903D01*
X013679Y007940D02*
X013642Y007903D01*
X013569Y007903D01*
X013532Y007940D01*
X013458Y007903D02*
X013311Y008123D01*
X013237Y008123D02*
X013090Y008123D01*
X013163Y008123D02*
X013163Y007903D01*
X013311Y007903D02*
X013458Y008123D01*
X013532Y008087D02*
X013569Y008123D01*
X013642Y008123D01*
X013679Y008087D01*
X013679Y008050D01*
X013642Y008013D01*
X013679Y007977D01*
X013679Y007940D01*
X013642Y008013D02*
X013605Y008013D01*
X012679Y007977D02*
X012679Y007940D01*
X012642Y007903D01*
X012569Y007903D01*
X012532Y007940D01*
X012458Y007903D02*
X012311Y008123D01*
X012237Y008087D02*
X012237Y008013D01*
X012200Y007977D01*
X012090Y007977D01*
X012163Y007977D02*
X012237Y007903D01*
X012311Y007903D02*
X012458Y008123D01*
X012532Y008087D02*
X012569Y008123D01*
X012642Y008123D01*
X012679Y008087D01*
X012679Y008050D01*
X012642Y008013D01*
X012679Y007977D01*
X012642Y008013D02*
X012605Y008013D01*
X012237Y008087D02*
X012200Y008123D01*
X012090Y008123D01*
X012090Y007903D01*
X011429Y007940D02*
X011392Y007903D01*
X011319Y007903D01*
X011282Y007940D01*
X011319Y008013D02*
X011392Y008013D01*
X011429Y007977D01*
X011429Y007940D01*
X011319Y008013D02*
X011282Y008050D01*
X011282Y008087D01*
X011319Y008123D01*
X011392Y008123D01*
X011429Y008087D01*
X011208Y008123D02*
X011061Y008123D01*
X011134Y008123D02*
X011134Y007903D01*
X010987Y007903D02*
X010913Y007977D01*
X010950Y007977D02*
X010840Y007977D01*
X010840Y007903D02*
X010840Y008123D01*
X010950Y008123D01*
X010987Y008087D01*
X010987Y008013D01*
X010950Y007977D01*
X008930Y016023D02*
X006930Y016023D01*
X030277Y012936D02*
X030277Y012803D01*
X030543Y012803D01*
X030543Y012936D01*
X030498Y012980D01*
X030321Y012980D01*
X030277Y012936D01*
X030277Y012718D02*
X030543Y012718D01*
X030277Y012541D01*
X030543Y012541D01*
X030498Y012455D02*
X030410Y012455D01*
X030410Y012367D01*
X030498Y012455D02*
X030543Y012411D01*
X030543Y012323D01*
X030498Y012278D01*
X030321Y012278D01*
X030277Y012323D01*
X030277Y012411D01*
X030321Y012455D01*
X031275Y012411D02*
X031275Y012278D01*
X031540Y012278D01*
X031540Y012411D01*
X031496Y012455D01*
X031319Y012455D01*
X031275Y012411D01*
X031275Y012541D02*
X031275Y012718D01*
X031275Y012803D02*
X031275Y012936D01*
X031319Y012980D01*
X031407Y012980D01*
X031452Y012936D01*
X031452Y012803D01*
X031540Y012803D02*
X031275Y012803D01*
X031275Y012629D02*
X031540Y012629D01*
X031452Y012892D02*
X031540Y012980D01*
X032272Y012936D02*
X032272Y012847D01*
X032316Y012803D01*
X032361Y012803D01*
X032405Y012847D01*
X032405Y012936D01*
X032449Y012980D01*
X032493Y012980D01*
X032538Y012936D01*
X032538Y012847D01*
X032493Y012803D01*
X032538Y012718D02*
X032538Y012541D01*
X032272Y012541D01*
X032272Y012718D01*
X032405Y012629D02*
X032405Y012541D01*
X032405Y012455D02*
X032449Y012411D01*
X032449Y012278D01*
X032538Y012278D02*
X032272Y012278D01*
X032272Y012411D01*
X032316Y012455D01*
X032405Y012455D01*
X032449Y012367D02*
X032538Y012455D01*
X032272Y012936D02*
X032316Y012980D01*
X033270Y013067D02*
X033535Y013067D01*
X033535Y013155D02*
X033535Y012978D01*
X033491Y012892D02*
X033314Y012892D01*
X033270Y012848D01*
X033270Y012760D01*
X033314Y012716D01*
X033491Y012716D01*
X033535Y012760D01*
X033535Y012848D01*
X033491Y012892D01*
X033358Y012978D02*
X033270Y013067D01*
X033358Y013241D02*
X033270Y013329D01*
X033535Y013329D01*
X033535Y013241D02*
X033535Y013417D01*
X034267Y013154D02*
X034267Y013066D01*
X034267Y013110D02*
X034533Y013110D01*
X034533Y013066D02*
X034533Y013154D01*
X034488Y012980D02*
X034533Y012936D01*
X034533Y012847D01*
X034488Y012803D01*
X034488Y012718D02*
X034533Y012673D01*
X034533Y012585D01*
X034488Y012541D01*
X034533Y012455D02*
X034444Y012367D01*
X034444Y012411D02*
X034444Y012278D01*
X034533Y012278D02*
X034267Y012278D01*
X034267Y012411D01*
X034311Y012455D01*
X034400Y012455D01*
X034444Y012411D01*
X034356Y012541D02*
X034400Y012585D01*
X034400Y012673D01*
X034444Y012718D01*
X034488Y012718D01*
X034400Y012847D02*
X034400Y012936D01*
X034444Y012980D01*
X034488Y012980D01*
X034400Y012847D02*
X034356Y012803D01*
X034311Y012803D01*
X034267Y012847D01*
X034267Y012936D01*
X034311Y012980D01*
X034311Y012718D02*
X034267Y012673D01*
X034267Y012585D01*
X034311Y012541D01*
X034356Y012541D01*
X035265Y012541D02*
X035265Y012718D01*
X035309Y012803D02*
X035353Y012803D01*
X035397Y012847D01*
X035397Y012936D01*
X035442Y012980D01*
X035486Y012980D01*
X035530Y012936D01*
X035530Y012847D01*
X035486Y012803D01*
X035530Y012718D02*
X035530Y012541D01*
X035265Y012541D01*
X035309Y012455D02*
X035397Y012455D01*
X035442Y012411D01*
X035442Y012278D01*
X035530Y012278D02*
X035265Y012278D01*
X035265Y012411D01*
X035309Y012455D01*
X035397Y012541D02*
X035397Y012629D01*
X035309Y012803D02*
X035265Y012847D01*
X035265Y012936D01*
X035309Y012980D01*
X035265Y013066D02*
X035530Y013066D01*
X035530Y013242D01*
X035397Y013154D02*
X035397Y013066D01*
X035265Y013066D02*
X035265Y013242D01*
X035265Y013328D02*
X035265Y013505D01*
X035265Y013416D02*
X035530Y013416D01*
X036262Y013373D02*
X036262Y013285D01*
X036306Y013241D01*
X036262Y013373D02*
X036306Y013417D01*
X036351Y013417D01*
X036528Y013241D01*
X036528Y013417D01*
X036528Y013155D02*
X036528Y012978D01*
X036528Y013067D02*
X036262Y013067D01*
X036351Y012978D01*
X036306Y012892D02*
X036262Y012848D01*
X036262Y012760D01*
X036306Y012716D01*
X036483Y012716D01*
X036528Y012760D01*
X036528Y012848D01*
X036483Y012892D01*
X036306Y012892D01*
X036262Y012629D02*
X036262Y012541D01*
X036262Y012585D02*
X036528Y012585D01*
X036528Y012541D02*
X036528Y012629D01*
X036483Y012455D02*
X036306Y012455D01*
X036262Y012411D01*
X036262Y012278D01*
X036528Y012278D01*
X036528Y012411D01*
X036483Y012455D01*
X037260Y012411D02*
X037260Y012278D01*
X037525Y012278D01*
X037525Y012411D01*
X037481Y012455D01*
X037304Y012455D01*
X037260Y012411D01*
X037260Y012541D02*
X037260Y012629D01*
X037260Y012585D02*
X037525Y012585D01*
X037525Y012541D02*
X037525Y012629D01*
X037525Y012716D02*
X037260Y012716D01*
X037525Y012892D01*
X037260Y012892D01*
X038257Y012980D02*
X038478Y012980D01*
X038523Y012936D01*
X038523Y012847D01*
X038478Y012803D01*
X038257Y012803D01*
X038301Y012718D02*
X038257Y012673D01*
X038257Y012585D01*
X038301Y012541D01*
X038478Y012541D01*
X038523Y012585D01*
X038523Y012673D01*
X038478Y012718D01*
X038301Y012718D01*
X038301Y012455D02*
X038257Y012411D01*
X038257Y012278D01*
X038523Y012278D01*
X038523Y012411D01*
X038478Y012455D01*
X038301Y012455D01*
X038257Y013066D02*
X038257Y013242D01*
X038257Y013154D02*
X038523Y013154D01*
X039255Y012936D02*
X039299Y012980D01*
X039343Y012980D01*
X039387Y012936D01*
X039432Y012980D01*
X039476Y012980D01*
X039520Y012936D01*
X039520Y012847D01*
X039476Y012803D01*
X039432Y012718D02*
X039255Y012718D01*
X039299Y012803D02*
X039255Y012847D01*
X039255Y012936D01*
X039387Y012936D02*
X039387Y012892D01*
X039432Y012718D02*
X039520Y012629D01*
X039432Y012541D01*
X039255Y012541D01*
X039299Y012455D02*
X039343Y012455D01*
X039387Y012411D01*
X039432Y012455D01*
X039476Y012455D01*
X039520Y012411D01*
X039520Y012323D01*
X039476Y012278D01*
X039387Y012367D02*
X039387Y012411D01*
X039299Y012455D02*
X039255Y012411D01*
X039255Y012323D01*
X039299Y012278D01*
X039374Y010042D02*
X039551Y009866D01*
X039595Y009910D01*
X039595Y009998D01*
X039551Y010042D01*
X039374Y010042D01*
X039330Y009998D01*
X039330Y009910D01*
X039374Y009866D01*
X039551Y009866D01*
X039551Y009780D02*
X039374Y009780D01*
X039330Y009736D01*
X039330Y009647D01*
X039374Y009603D01*
X039551Y009603D01*
X039595Y009647D01*
X039595Y009736D01*
X039551Y009780D01*
X039595Y009517D02*
X039595Y009428D01*
X039595Y009472D02*
X039330Y009472D01*
X039330Y009428D02*
X039330Y009517D01*
X039374Y009343D02*
X039330Y009298D01*
X039330Y009166D01*
X039595Y009166D01*
X039595Y009298D01*
X039551Y009343D01*
X039374Y009343D01*
X038598Y009298D02*
X038553Y009343D01*
X038376Y009343D01*
X038332Y009298D01*
X038332Y009166D01*
X038598Y009166D01*
X038598Y009298D01*
X038598Y009428D02*
X038598Y009517D01*
X038598Y009472D02*
X038332Y009472D01*
X038332Y009428D02*
X038332Y009517D01*
X038376Y009603D02*
X038553Y009603D01*
X038598Y009647D01*
X038598Y009736D01*
X038553Y009780D01*
X038376Y009780D01*
X038332Y009736D01*
X038332Y009647D01*
X038376Y009603D01*
X038421Y009866D02*
X038332Y009954D01*
X038598Y009954D01*
X038598Y009866D02*
X038598Y010042D01*
X037600Y010042D02*
X037600Y009866D01*
X037423Y010042D01*
X037379Y010042D01*
X037335Y009998D01*
X037335Y009910D01*
X037379Y009866D01*
X037379Y009780D02*
X037335Y009736D01*
X037335Y009647D01*
X037379Y009603D01*
X037556Y009603D01*
X037600Y009647D01*
X037600Y009736D01*
X037556Y009780D01*
X037379Y009780D01*
X037335Y009517D02*
X037335Y009428D01*
X037335Y009472D02*
X037600Y009472D01*
X037600Y009428D02*
X037600Y009517D01*
X037556Y009343D02*
X037379Y009343D01*
X037335Y009298D01*
X037335Y009166D01*
X037600Y009166D01*
X037600Y009298D01*
X037556Y009343D01*
X036603Y009298D02*
X036558Y009343D01*
X036381Y009343D01*
X036337Y009298D01*
X036337Y009166D01*
X036603Y009166D01*
X036603Y009298D01*
X036603Y009428D02*
X036603Y009517D01*
X036603Y009472D02*
X036337Y009472D01*
X036337Y009428D02*
X036337Y009517D01*
X036381Y009603D02*
X036558Y009603D01*
X036603Y009647D01*
X036603Y009736D01*
X036558Y009780D01*
X036381Y009780D01*
X036337Y009736D01*
X036337Y009647D01*
X036381Y009603D01*
X036381Y009866D02*
X036337Y009910D01*
X036337Y009998D01*
X036381Y010042D01*
X036426Y010042D01*
X036470Y009998D01*
X036514Y010042D01*
X036558Y010042D01*
X036603Y009998D01*
X036603Y009910D01*
X036558Y009866D01*
X036470Y009954D02*
X036470Y009998D01*
X035605Y009998D02*
X035605Y009910D01*
X035561Y009866D01*
X035472Y009910D02*
X035472Y009998D01*
X035517Y010042D01*
X035561Y010042D01*
X035605Y009998D01*
X035472Y009910D02*
X035428Y009866D01*
X035384Y009866D01*
X035340Y009910D01*
X035340Y009998D01*
X035384Y010042D01*
X035340Y009780D02*
X035340Y009603D01*
X035340Y009692D02*
X035605Y009692D01*
X035605Y009518D02*
X035517Y009429D01*
X035517Y009473D02*
X035517Y009341D01*
X035605Y009341D02*
X035340Y009341D01*
X035340Y009473D01*
X035384Y009518D01*
X035472Y009518D01*
X035517Y009473D01*
X034608Y009472D02*
X034342Y009472D01*
X034342Y009428D02*
X034342Y009517D01*
X034386Y009603D02*
X034563Y009603D01*
X034608Y009647D01*
X034608Y009736D01*
X034563Y009780D01*
X034386Y009780D01*
X034342Y009736D01*
X034342Y009647D01*
X034386Y009603D01*
X034608Y009517D02*
X034608Y009428D01*
X034563Y009343D02*
X034386Y009343D01*
X034342Y009298D01*
X034342Y009166D01*
X034608Y009166D01*
X034608Y009298D01*
X034563Y009343D01*
X034563Y009866D02*
X034608Y009910D01*
X034608Y009998D01*
X034563Y010042D01*
X034475Y010042D01*
X034431Y009998D01*
X034431Y009954D01*
X034475Y009866D01*
X034342Y009866D01*
X034342Y010042D01*
X033610Y009866D02*
X033345Y009866D01*
X033345Y010042D01*
X033477Y009954D02*
X033477Y009866D01*
X033345Y009780D02*
X033345Y009603D01*
X033610Y009603D01*
X033610Y009780D01*
X033477Y009692D02*
X033477Y009603D01*
X033477Y009518D02*
X033522Y009473D01*
X033522Y009341D01*
X033522Y009255D02*
X033345Y009255D01*
X033345Y009341D02*
X033345Y009473D01*
X033389Y009518D01*
X033477Y009518D01*
X033522Y009429D02*
X033610Y009518D01*
X033610Y009341D02*
X033345Y009341D01*
X033522Y009255D02*
X033610Y009167D01*
X033522Y009078D01*
X033345Y009078D01*
X032613Y009166D02*
X032613Y009298D01*
X032568Y009343D01*
X032391Y009343D01*
X032347Y009298D01*
X032347Y009166D01*
X032613Y009166D01*
X032613Y009428D02*
X032613Y009517D01*
X032613Y009472D02*
X032347Y009472D01*
X032347Y009428D02*
X032347Y009517D01*
X032391Y009603D02*
X032568Y009603D01*
X032613Y009647D01*
X032613Y009736D01*
X032568Y009780D01*
X032391Y009780D01*
X032347Y009736D01*
X032347Y009647D01*
X032391Y009603D01*
X032391Y009866D02*
X032436Y009866D01*
X032480Y009910D01*
X032480Y010042D01*
X032568Y010042D02*
X032391Y010042D01*
X032347Y009998D01*
X032347Y009910D01*
X032391Y009866D01*
X032568Y009866D02*
X032613Y009910D01*
X032613Y009998D01*
X032568Y010042D01*
X031615Y009998D02*
X031615Y009910D01*
X031571Y009866D01*
X031482Y009910D02*
X031482Y009998D01*
X031527Y010042D01*
X031571Y010042D01*
X031615Y009998D01*
X031482Y009910D02*
X031438Y009866D01*
X031394Y009866D01*
X031350Y009910D01*
X031350Y009998D01*
X031394Y010042D01*
X031350Y009780D02*
X031350Y009603D01*
X031350Y009692D02*
X031615Y009692D01*
X031571Y009518D02*
X031615Y009473D01*
X031615Y009385D01*
X031571Y009341D01*
X031394Y009341D01*
X031350Y009385D01*
X031350Y009473D01*
X031394Y009518D01*
X030618Y009517D02*
X030618Y009428D01*
X030618Y009472D02*
X030352Y009472D01*
X030352Y009428D02*
X030352Y009517D01*
X030396Y009603D02*
X030352Y009647D01*
X030352Y009736D01*
X030396Y009780D01*
X030573Y009780D01*
X030618Y009736D01*
X030618Y009647D01*
X030573Y009603D01*
X030396Y009603D01*
X030396Y009343D02*
X030352Y009298D01*
X030352Y009166D01*
X030618Y009166D01*
X030618Y009298D01*
X030573Y009343D01*
X030396Y009343D01*
X030485Y009866D02*
X030485Y010042D01*
X030618Y009998D02*
X030352Y009998D01*
X030485Y009866D01*
X033270Y012278D02*
X033270Y012411D01*
X033314Y012455D01*
X033491Y012455D01*
X033535Y012411D01*
X033535Y012278D01*
X033270Y012278D01*
X033270Y012541D02*
X033270Y012629D01*
X033270Y012585D02*
X033535Y012585D01*
X033535Y012541D02*
X033535Y012629D01*
X035442Y012367D02*
X035530Y012455D01*
D17*
X004505Y005419D02*
X004205Y004968D01*
X004505Y004968D02*
X004205Y005419D01*
X004665Y005344D02*
X004740Y005419D01*
X004891Y005419D01*
X004966Y005344D01*
X004966Y005269D01*
X004665Y004968D01*
X004966Y004968D01*
X005905Y010468D02*
X005905Y010919D01*
X006130Y010919D01*
X006205Y010844D01*
X006205Y010693D01*
X006130Y010618D01*
X005905Y010618D01*
X006055Y010618D02*
X006205Y010468D01*
X006365Y010543D02*
X006440Y010468D01*
X006591Y010468D01*
X006666Y010543D01*
X006666Y010618D01*
X006591Y010693D01*
X006440Y010693D01*
X006365Y010769D01*
X006365Y010844D01*
X006440Y010919D01*
X006591Y010919D01*
X006666Y010844D01*
X006826Y010693D02*
X007126Y010693D01*
X007286Y010618D02*
X007361Y010693D01*
X007511Y010693D01*
X007586Y010618D01*
X007586Y010543D01*
X007511Y010468D01*
X007361Y010468D01*
X007286Y010543D01*
X007286Y010618D01*
X007361Y010693D02*
X007286Y010769D01*
X007286Y010844D01*
X007361Y010919D01*
X007511Y010919D01*
X007586Y010844D01*
X007586Y010769D01*
X007511Y010693D01*
X007747Y010693D02*
X007747Y010919D01*
X008047Y010919D01*
X007972Y010769D02*
X008047Y010693D01*
X008047Y010543D01*
X007972Y010468D01*
X007822Y010468D01*
X007747Y010543D01*
X007747Y010693D02*
X007897Y010769D01*
X007972Y010769D01*
X007051Y010919D02*
X006826Y010693D01*
X007051Y010468D02*
X007051Y010919D01*
X015180Y013643D02*
X016430Y013643D01*
X016430Y017143D01*
X015180Y017143D01*
X015960Y018883D02*
X016078Y018883D01*
X015960Y018883D02*
X015960Y019643D01*
X016180Y019643D01*
X016180Y020643D01*
X015960Y020643D01*
X015960Y021403D01*
X016078Y021403D01*
X018282Y021403D02*
X018400Y021403D01*
X018400Y018883D01*
X018282Y018883D01*
X018780Y015619D02*
X018705Y015544D01*
X018705Y015243D01*
X018780Y015168D01*
X018930Y015168D01*
X019005Y015243D01*
X019165Y015168D02*
X019165Y015619D01*
X019005Y015544D02*
X018930Y015619D01*
X018780Y015619D01*
X019165Y015393D02*
X019466Y015393D01*
X019626Y015393D02*
X019926Y015393D01*
X019926Y015469D02*
X019926Y015168D01*
X020086Y015168D02*
X020086Y015619D01*
X020311Y015619D01*
X020386Y015544D01*
X020386Y015393D01*
X020311Y015318D01*
X020086Y015318D01*
X020236Y015318D02*
X020386Y015168D01*
X020547Y015243D02*
X020547Y015544D01*
X020622Y015619D01*
X020772Y015619D01*
X020847Y015544D01*
X020847Y015243D01*
X020772Y015168D01*
X020622Y015168D01*
X020547Y015243D01*
X021007Y015168D02*
X021007Y015619D01*
X021307Y015168D01*
X021307Y015619D01*
X019926Y015469D02*
X019776Y015619D01*
X019626Y015469D01*
X019626Y015168D01*
X019466Y015168D02*
X019466Y015619D01*
X026680Y022743D02*
X027180Y022743D01*
X027180Y023693D01*
X026680Y023693D01*
X026680Y022743D01*
X027180Y022743D02*
X027680Y022743D01*
X027680Y023693D01*
X027180Y023693D01*
X031858Y026313D02*
X031860Y026331D01*
X031866Y026349D01*
X031875Y026365D01*
X031887Y026378D01*
X031902Y026389D01*
X031919Y026397D01*
X031937Y026401D01*
X031955Y026401D01*
X031973Y026397D01*
X031990Y026389D01*
X032005Y026378D01*
X032017Y026365D01*
X032026Y026349D01*
X032032Y026331D01*
X032034Y026313D01*
X032032Y026295D01*
X032026Y026277D01*
X032017Y026261D01*
X032005Y026248D01*
X031990Y026237D01*
X031973Y026229D01*
X031955Y026225D01*
X031937Y026225D01*
X031919Y026229D01*
X031902Y026237D01*
X031887Y026248D01*
X031875Y026261D01*
X031866Y026277D01*
X031860Y026295D01*
X031858Y026313D01*
X029430Y028543D02*
X028930Y028543D01*
X028930Y029493D01*
X028430Y029493D01*
X028430Y028543D01*
X028930Y028543D01*
X029430Y028543D02*
X029430Y029493D01*
X028930Y029493D01*
X028980Y030793D02*
X029480Y030793D01*
X029480Y031743D01*
X028980Y031743D01*
X028980Y030793D01*
X029480Y030793D02*
X029980Y030793D01*
X029980Y031743D01*
X029480Y031743D01*
X031980Y031993D02*
X031980Y033343D01*
X031980Y033393D01*
X034780Y033393D01*
X034780Y031993D01*
X031980Y031993D01*
X025180Y031593D02*
X025130Y032743D01*
X025030Y032843D01*
X021330Y032843D01*
X021230Y032743D01*
X021180Y031593D01*
X024850Y032603D02*
X024852Y032623D01*
X024858Y032641D01*
X024867Y032659D01*
X024879Y032674D01*
X024894Y032686D01*
X024912Y032695D01*
X024930Y032701D01*
X024950Y032703D01*
X024970Y032701D01*
X024988Y032695D01*
X025006Y032686D01*
X025021Y032674D01*
X025033Y032659D01*
X025042Y032641D01*
X025048Y032623D01*
X025050Y032603D01*
X025048Y032583D01*
X025042Y032565D01*
X025033Y032547D01*
X025021Y032532D01*
X025006Y032520D01*
X024988Y032511D01*
X024970Y032505D01*
X024950Y032503D01*
X024930Y032505D01*
X024912Y032511D01*
X024894Y032520D01*
X024879Y032532D01*
X024867Y032547D01*
X024858Y032565D01*
X024852Y032583D01*
X024850Y032603D01*
X035879Y025509D02*
X036312Y025509D01*
X036312Y023817D01*
X035879Y023817D01*
X035879Y023777D01*
X036705Y023034D02*
X037155Y023034D01*
X037155Y022884D02*
X037155Y023184D01*
X036855Y022884D02*
X036705Y023034D01*
X036780Y024834D02*
X036705Y024909D01*
X036705Y025059D01*
X036780Y025134D01*
X036855Y025134D01*
X037155Y024834D01*
X037155Y025134D01*
X037769Y024761D02*
X037769Y024525D01*
X038910Y024525D01*
X038910Y024761D02*
X037769Y024761D01*
X009830Y031043D02*
X008430Y031043D01*
X008430Y033843D01*
X009780Y033843D01*
X009830Y033843D01*
X009830Y031043D01*
D18*
X010430Y031143D02*
X010430Y031643D01*
X010680Y031893D01*
X010430Y032143D01*
X010430Y032643D01*
X010680Y032893D01*
X010430Y033143D01*
X010430Y033643D01*
X010680Y033893D01*
X011180Y033893D01*
X011430Y033643D01*
X011430Y033143D01*
X011180Y032893D01*
X011430Y032643D01*
X011430Y032143D01*
X011180Y031893D01*
X011430Y031643D01*
X011430Y031143D01*
X011180Y030893D01*
X011430Y030643D01*
X011430Y030143D01*
X011180Y029893D01*
X011430Y029643D01*
X011430Y029143D01*
X011180Y028893D01*
X011430Y028643D01*
X011430Y028143D01*
X011180Y027893D01*
X011430Y027643D01*
X011430Y027143D01*
X011180Y026893D01*
X011430Y026643D01*
X011430Y026143D01*
X011180Y025893D01*
X011430Y025643D01*
X011430Y025143D01*
X011180Y024893D01*
X011430Y024643D01*
X011430Y024143D01*
X011180Y023893D01*
X011430Y023643D01*
X011430Y023143D01*
X011180Y022893D01*
X011430Y022643D01*
X011430Y022143D01*
X011180Y021893D01*
X011430Y021643D01*
X011430Y021143D01*
X011180Y020893D01*
X011430Y020643D01*
X011430Y020143D01*
X011180Y019893D01*
X011430Y019643D01*
X011430Y019143D01*
X011180Y018893D01*
X011430Y018643D01*
X011430Y018143D01*
X011180Y017893D01*
X011430Y017643D01*
X011430Y017143D01*
X011180Y016893D01*
X011430Y016643D01*
X011430Y016143D01*
X011180Y015893D01*
X011430Y015643D01*
X011430Y015143D01*
X011180Y014893D01*
X011430Y014643D01*
X011430Y014143D01*
X011180Y013893D01*
X011430Y013643D01*
X011430Y013143D01*
X011180Y012893D01*
X011430Y012643D01*
X011430Y012143D01*
X011180Y011893D01*
X011430Y011643D01*
X011430Y011143D01*
X011180Y010893D01*
X011430Y010643D01*
X011430Y010143D01*
X011180Y009893D01*
X010680Y009893D01*
X010430Y010143D01*
X010430Y010643D01*
X010680Y010893D01*
X010430Y011143D01*
X010430Y011643D01*
X010680Y011893D01*
X010430Y012143D01*
X010430Y012643D01*
X010680Y012893D01*
X010430Y013143D01*
X010430Y013643D01*
X010680Y013893D01*
X010430Y014143D01*
X010430Y014643D01*
X010680Y014893D01*
X010430Y015143D01*
X010430Y015643D01*
X010680Y015893D01*
X010430Y016143D01*
X010430Y016643D01*
X010680Y016893D01*
X010430Y017143D01*
X010430Y017643D01*
X010680Y017893D01*
X010430Y018143D01*
X010430Y018643D01*
X010680Y018893D01*
X010430Y019143D01*
X010430Y019643D01*
X010680Y019893D01*
X011180Y019893D01*
X010680Y019893D01*
X010430Y020143D01*
X010430Y020643D01*
X010680Y020893D01*
X010430Y021143D01*
X010430Y021643D01*
X010680Y021893D01*
X010430Y022143D01*
X010430Y022643D01*
X010680Y022893D01*
X010430Y023143D01*
X010430Y023643D01*
X010680Y023893D01*
X010430Y024143D01*
X010430Y024643D01*
X010680Y024893D01*
X010430Y025143D01*
X010430Y025643D01*
X010680Y025893D01*
X010430Y026143D01*
X010430Y026643D01*
X010680Y026893D01*
X010430Y027143D01*
X010430Y027643D01*
X010680Y027893D01*
X010430Y028143D01*
X010430Y028643D01*
X010680Y028893D01*
X010430Y029143D01*
X010430Y029643D01*
X010680Y029893D01*
X010430Y030143D01*
X010430Y030643D01*
X010680Y030893D01*
X010430Y031143D01*
X007658Y030456D02*
X007658Y033330D01*
X007461Y032602D02*
X007619Y032563D01*
X006399Y032602D02*
X006241Y032563D01*
X006202Y033330D02*
X006202Y030456D01*
X005430Y030643D02*
X005430Y030143D01*
X005180Y029893D01*
X005430Y029643D01*
X005430Y029143D01*
X005180Y028893D01*
X005430Y028643D01*
X005430Y028143D01*
X005180Y027893D01*
X005430Y027643D01*
X005430Y027143D01*
X005180Y026893D01*
X005430Y026643D01*
X005430Y026143D01*
X005180Y025893D01*
X005430Y025643D01*
X005430Y025143D01*
X005180Y024893D01*
X005430Y024643D01*
X005430Y024143D01*
X005180Y023893D01*
X005430Y023643D01*
X005430Y023143D01*
X005180Y022893D01*
X005430Y022643D01*
X005430Y022143D01*
X005180Y021893D01*
X005430Y021643D01*
X005430Y021143D01*
X005180Y020893D01*
X005430Y020643D01*
X005430Y020143D01*
X005680Y019893D01*
X006180Y019893D01*
X006430Y020143D01*
X006680Y019893D01*
X007180Y019893D01*
X007430Y020143D01*
X007680Y019893D01*
X008180Y019893D01*
X008430Y020143D01*
X008680Y019893D01*
X009180Y019893D01*
X009430Y020143D01*
X009680Y019893D01*
X010180Y019893D01*
X010430Y020143D01*
X010430Y020643D01*
X010180Y020893D01*
X009680Y020893D01*
X009430Y020643D01*
X009180Y020893D01*
X008680Y020893D01*
X008430Y020643D01*
X008180Y020893D01*
X007680Y020893D01*
X007430Y020643D01*
X007180Y020893D01*
X006680Y020893D01*
X006430Y020643D01*
X006180Y020893D01*
X005680Y020893D01*
X005430Y020643D01*
X005430Y020143D01*
X005180Y019893D01*
X005430Y019643D01*
X005430Y019143D01*
X005180Y018893D01*
X005430Y018643D01*
X005430Y018143D01*
X005180Y017893D01*
X005430Y017643D01*
X005430Y017143D01*
X005180Y016893D01*
X005430Y016643D01*
X005430Y016143D01*
X005180Y015893D01*
X005430Y015643D01*
X005430Y015143D01*
X005180Y014893D01*
X005430Y014643D01*
X005430Y014143D01*
X005180Y013893D01*
X005430Y013643D01*
X005430Y013143D01*
X005180Y012893D01*
X005430Y012643D01*
X005430Y012143D01*
X005180Y011893D01*
X005430Y011643D01*
X005430Y011143D01*
X005180Y010893D01*
X005430Y010643D01*
X005430Y010143D01*
X005180Y009893D01*
X004680Y009893D01*
X004430Y010143D01*
X004430Y010643D01*
X004680Y010893D01*
X004430Y011143D01*
X004430Y011643D01*
X004680Y011893D01*
X004430Y012143D01*
X004430Y012643D01*
X004680Y012893D01*
X004430Y013143D01*
X004430Y013643D01*
X004680Y013893D01*
X004430Y014143D01*
X004430Y014643D01*
X004680Y014893D01*
X004430Y015143D01*
X004430Y015643D01*
X004680Y015893D01*
X004430Y016143D01*
X004430Y016643D01*
X004680Y016893D01*
X004430Y017143D01*
X004430Y017643D01*
X004680Y017893D01*
X004430Y018143D01*
X004430Y018643D01*
X004680Y018893D01*
X004430Y019143D01*
X004430Y019643D01*
X004680Y019893D01*
X005180Y019893D01*
X004680Y019893D01*
X004430Y020143D01*
X004430Y020643D01*
X004680Y020893D01*
X004430Y021143D01*
X004430Y021643D01*
X004680Y021893D01*
X004430Y022143D01*
X004430Y022643D01*
X004680Y022893D01*
X004430Y023143D01*
X004430Y023643D01*
X004680Y023893D01*
X004430Y024143D01*
X004430Y024643D01*
X004680Y024893D01*
X004430Y025143D01*
X004430Y025643D01*
X004680Y025893D01*
X004430Y026143D01*
X004430Y026643D01*
X004680Y026893D01*
X004430Y027143D01*
X004430Y027643D01*
X004680Y027893D01*
X004430Y028143D01*
X004430Y028643D01*
X004680Y028893D01*
X004430Y029143D01*
X004430Y029643D01*
X004680Y029893D01*
X004430Y030143D01*
X004430Y030643D01*
X004680Y030893D01*
X004430Y031143D01*
X004430Y031643D01*
X004680Y031893D01*
X004430Y032143D01*
X004430Y032643D01*
X004680Y032893D01*
X004430Y033143D01*
X004430Y033643D01*
X004680Y033893D01*
X005180Y033893D01*
X005430Y033643D01*
X005430Y033143D01*
X005180Y032893D01*
X005430Y032643D01*
X005430Y032143D01*
X005180Y031893D01*
X005430Y031643D01*
X005430Y031143D01*
X005180Y030893D01*
X005430Y030643D01*
X002430Y030643D02*
X002430Y030143D01*
X002180Y029893D01*
X002430Y029643D01*
X002430Y029143D01*
X002180Y028893D01*
X002430Y028643D01*
X002430Y028143D01*
X002180Y027893D01*
X002430Y027643D01*
X002430Y027143D01*
X002180Y026893D01*
X002430Y026643D01*
X002430Y026143D01*
X002180Y025893D01*
X002430Y025643D01*
X002430Y025143D01*
X002180Y024893D01*
X002430Y024643D01*
X002430Y024143D01*
X002180Y023893D01*
X002430Y023643D01*
X002430Y023143D01*
X002180Y022893D01*
X002430Y022643D01*
X002430Y022143D01*
X002180Y021893D01*
X002430Y021643D01*
X002430Y021143D01*
X002180Y020893D01*
X002430Y020643D01*
X002430Y020143D01*
X002180Y019893D01*
X002430Y019643D01*
X002430Y019143D01*
X002180Y018893D01*
X002430Y018643D01*
X002430Y018143D01*
X002180Y017893D01*
X002430Y017643D01*
X002430Y017143D01*
X002180Y016893D01*
X002430Y016643D01*
X002430Y016143D01*
X002180Y015893D01*
X002430Y015643D01*
X002430Y015143D01*
X002180Y014893D01*
X002430Y014643D01*
X002430Y014143D01*
X002180Y013893D01*
X002430Y013643D01*
X002430Y013143D01*
X002180Y012893D01*
X002430Y012643D01*
X002430Y012143D01*
X002180Y011893D01*
X002430Y011643D01*
X002430Y011143D01*
X002180Y010893D01*
X002430Y010643D01*
X002430Y010143D01*
X002180Y009893D01*
X001680Y009893D01*
X001430Y010143D01*
X001430Y010643D01*
X001680Y010893D01*
X001430Y011143D01*
X001430Y011643D01*
X001680Y011893D01*
X001430Y012143D01*
X001430Y012643D01*
X001680Y012893D01*
X001430Y013143D01*
X001430Y013643D01*
X001680Y013893D01*
X001430Y014143D01*
X001430Y014643D01*
X001680Y014893D01*
X001430Y015143D01*
X001430Y015643D01*
X001680Y015893D01*
X001430Y016143D01*
X001430Y016643D01*
X001680Y016893D01*
X001430Y017143D01*
X001430Y017643D01*
X001680Y017893D01*
X001430Y018143D01*
X001430Y018643D01*
X001680Y018893D01*
X001430Y019143D01*
X001430Y019643D01*
X001680Y019893D01*
X001430Y020143D01*
X001430Y020643D01*
X001680Y020893D01*
X001430Y021143D01*
X001430Y021643D01*
X001680Y021893D01*
X001430Y022143D01*
X001430Y022643D01*
X001680Y022893D01*
X001430Y023143D01*
X001430Y023643D01*
X001680Y023893D01*
X001430Y024143D01*
X001430Y024643D01*
X001680Y024893D01*
X001430Y025143D01*
X001430Y025643D01*
X001680Y025893D01*
X001430Y026143D01*
X001430Y026643D01*
X001680Y026893D01*
X001430Y027143D01*
X001430Y027643D01*
X001680Y027893D01*
X001430Y028143D01*
X001430Y028643D01*
X001680Y028893D01*
X001430Y029143D01*
X001430Y029643D01*
X001680Y029893D01*
X001430Y030143D01*
X001430Y030643D01*
X001680Y030893D01*
X001430Y031143D01*
X001430Y031643D01*
X001680Y031893D01*
X001430Y032143D01*
X001430Y032643D01*
X001680Y032893D01*
X001430Y033143D01*
X001430Y033643D01*
X001680Y033893D01*
X002180Y033893D01*
X002430Y033643D01*
X002430Y033143D01*
X002180Y032893D01*
X002430Y032643D01*
X002430Y032143D01*
X002180Y031893D01*
X002430Y031643D01*
X002430Y031143D01*
X002180Y030893D01*
X002430Y030643D01*
X007615Y035500D02*
X008245Y035500D01*
X008261Y035505D01*
X008277Y035513D01*
X008291Y035523D01*
X008303Y035535D01*
X008313Y035550D01*
X008320Y035566D01*
X008324Y035583D01*
X008325Y035600D01*
X008323Y035618D01*
X008323Y036169D02*
X008325Y036187D01*
X008324Y036204D01*
X008320Y036221D01*
X008313Y036237D01*
X008303Y036252D01*
X008291Y036264D01*
X008277Y036274D01*
X008261Y036282D01*
X008245Y036287D01*
X007615Y036287D01*
X007599Y036282D01*
X007583Y036274D01*
X007569Y036264D01*
X007557Y036252D01*
X007547Y036237D01*
X007540Y036221D01*
X007536Y036204D01*
X007535Y036187D01*
X007537Y036169D01*
X007537Y035618D02*
X007535Y035600D01*
X007536Y035583D01*
X007540Y035566D01*
X007547Y035550D01*
X007557Y035535D01*
X007569Y035523D01*
X007583Y035513D01*
X007599Y035505D01*
X007615Y035500D01*
X013430Y033643D02*
X013430Y033143D01*
X013680Y032893D01*
X013430Y032643D01*
X013430Y032143D01*
X013680Y031893D01*
X013430Y031643D01*
X013430Y031143D01*
X013680Y030893D01*
X013430Y030643D01*
X013430Y030143D01*
X013680Y029893D01*
X013430Y029643D01*
X013430Y029143D01*
X013680Y028893D01*
X013430Y028643D01*
X013430Y028143D01*
X013680Y027893D01*
X013430Y027643D01*
X013430Y027143D01*
X013680Y026893D01*
X013430Y026643D01*
X013430Y026143D01*
X013680Y025893D01*
X013430Y025643D01*
X013430Y025143D01*
X013680Y024893D01*
X013430Y024643D01*
X013430Y024143D01*
X013680Y023893D01*
X013430Y023643D01*
X013430Y023143D01*
X013680Y022893D01*
X013430Y022643D01*
X013430Y022143D01*
X013680Y021893D01*
X013430Y021643D01*
X013430Y021143D01*
X013680Y020893D01*
X013430Y020643D01*
X013430Y020143D01*
X013680Y019893D01*
X013430Y019643D01*
X013430Y019143D01*
X013680Y018893D01*
X013430Y018643D01*
X013430Y018143D01*
X013680Y017893D01*
X013430Y017643D01*
X013430Y017143D01*
X013680Y016893D01*
X013430Y016643D01*
X013430Y016143D01*
X013680Y015893D01*
X013430Y015643D01*
X013430Y015143D01*
X013680Y014893D01*
X013430Y014643D01*
X013430Y014143D01*
X013680Y013893D01*
X013430Y013643D01*
X013430Y013143D01*
X013680Y012893D01*
X013430Y012643D01*
X013430Y012143D01*
X013680Y011893D01*
X013430Y011643D01*
X013430Y011143D01*
X013680Y010893D01*
X013430Y010643D01*
X013430Y010143D01*
X013680Y009893D01*
X014180Y009893D01*
X014430Y010143D01*
X014430Y010643D01*
X014180Y010893D01*
X014430Y011143D01*
X014430Y011643D01*
X014180Y011893D01*
X014430Y012143D01*
X014430Y012643D01*
X014180Y012893D01*
X014430Y013143D01*
X014430Y013643D01*
X014180Y013893D01*
X014430Y014143D01*
X014430Y014643D01*
X014180Y014893D01*
X014430Y015143D01*
X014430Y015643D01*
X014180Y015893D01*
X014430Y016143D01*
X014430Y016643D01*
X014180Y016893D01*
X014430Y017143D01*
X014430Y017643D01*
X014180Y017893D01*
X014430Y018143D01*
X014430Y018643D01*
X014180Y018893D01*
X014430Y019143D01*
X014430Y019643D01*
X014180Y019893D01*
X014430Y020143D01*
X014430Y020643D01*
X014180Y020893D01*
X014430Y021143D01*
X014430Y021643D01*
X014180Y021893D01*
X014430Y022143D01*
X014430Y022643D01*
X014180Y022893D01*
X014430Y023143D01*
X014430Y023643D01*
X014180Y023893D01*
X014430Y024143D01*
X014430Y024643D01*
X014180Y024893D01*
X014430Y025143D01*
X014430Y025643D01*
X014180Y025893D01*
X014430Y026143D01*
X014430Y026643D01*
X014180Y026893D01*
X014430Y027143D01*
X014430Y027643D01*
X014180Y027893D01*
X014430Y028143D01*
X014430Y028643D01*
X014180Y028893D01*
X014430Y029143D01*
X014430Y029643D01*
X014180Y029893D01*
X014430Y030143D01*
X014430Y030643D01*
X014180Y030893D01*
X014430Y031143D01*
X014430Y031643D01*
X014180Y031893D01*
X014430Y032143D01*
X014430Y032643D01*
X014180Y032893D01*
X014430Y033143D01*
X014430Y033643D01*
X014180Y033893D01*
X013680Y033893D01*
X013430Y033643D01*
X014930Y035643D02*
X014680Y035893D01*
X014680Y036393D01*
X014930Y036643D01*
X015430Y036643D01*
X015680Y036393D01*
X015930Y036643D01*
X016430Y036643D01*
X016680Y036393D01*
X016680Y035893D01*
X016430Y035643D01*
X015930Y035643D01*
X015680Y035893D01*
X015430Y035643D01*
X014930Y035643D01*
X019180Y035893D02*
X019430Y035643D01*
X019930Y035643D01*
X020180Y035893D01*
X020430Y035643D01*
X020930Y035643D01*
X021180Y035893D01*
X021430Y035643D01*
X021930Y035643D01*
X022180Y035893D01*
X022430Y035643D01*
X022930Y035643D01*
X023180Y035893D01*
X023430Y035643D01*
X023930Y035643D01*
X024180Y035893D01*
X024430Y035643D01*
X024930Y035643D01*
X025180Y035893D01*
X025180Y036393D01*
X024930Y036643D01*
X024430Y036643D01*
X024180Y036393D01*
X023930Y036643D01*
X023430Y036643D01*
X023180Y036393D01*
X022930Y036643D01*
X022430Y036643D01*
X022180Y036393D01*
X021930Y036643D01*
X021430Y036643D01*
X021180Y036393D01*
X020930Y036643D01*
X020430Y036643D01*
X020180Y036393D01*
X019930Y036643D01*
X019430Y036643D01*
X019180Y036393D01*
X019180Y035893D01*
X024786Y033958D02*
X024786Y033328D01*
X024787Y033328D02*
X024793Y033310D01*
X024802Y033292D01*
X024814Y033277D01*
X024830Y033265D01*
X024847Y033256D01*
X024866Y033250D01*
X024885Y033248D01*
X024905Y033250D01*
X025455Y033250D02*
X025473Y033248D01*
X025490Y033249D01*
X025507Y033253D01*
X025523Y033260D01*
X025538Y033270D01*
X025550Y033282D01*
X025560Y033296D01*
X025568Y033312D01*
X025573Y033328D01*
X025574Y033328D02*
X025574Y033958D01*
X025573Y033959D02*
X025568Y033975D01*
X025560Y033991D01*
X025550Y034005D01*
X025538Y034017D01*
X025523Y034027D01*
X025507Y034034D01*
X025490Y034038D01*
X025473Y034039D01*
X025455Y034037D01*
X025859Y033799D02*
X026036Y033799D01*
X025859Y033799D02*
X025859Y031988D01*
X026036Y031988D01*
X026036Y032500D02*
X026824Y032500D01*
X026824Y031988D02*
X027001Y031988D01*
X027001Y033799D01*
X026824Y033799D01*
X024905Y034037D02*
X024885Y034039D01*
X024866Y034037D01*
X024847Y034031D01*
X024830Y034022D01*
X024814Y034010D01*
X024802Y033995D01*
X024793Y033977D01*
X024787Y033959D01*
X026430Y035643D02*
X026930Y035643D01*
X027180Y035893D01*
X027430Y035643D01*
X027930Y035643D01*
X028180Y035893D01*
X028430Y035643D01*
X028930Y035643D01*
X029180Y035893D01*
X029430Y035643D01*
X029930Y035643D01*
X030180Y035893D01*
X030430Y035643D01*
X030930Y035643D01*
X031180Y035893D01*
X031430Y035643D01*
X031930Y035643D01*
X032180Y035893D01*
X032430Y035643D01*
X032930Y035643D01*
X033180Y035893D01*
X033430Y035643D01*
X033930Y035643D01*
X034180Y035893D01*
X034180Y036393D01*
X033930Y036643D01*
X033430Y036643D01*
X033180Y036393D01*
X032930Y036643D01*
X032430Y036643D01*
X032180Y036393D01*
X031930Y036643D01*
X031430Y036643D01*
X031180Y036393D01*
X030930Y036643D01*
X030430Y036643D01*
X030180Y036393D01*
X029930Y036643D01*
X029430Y036643D01*
X029180Y036393D01*
X028930Y036643D01*
X028430Y036643D01*
X028180Y036393D01*
X027930Y036643D01*
X027430Y036643D01*
X027180Y036393D01*
X026930Y036643D01*
X026430Y036643D01*
X026180Y036393D01*
X026180Y035893D01*
X026430Y035643D01*
X030609Y033799D02*
X030609Y031988D01*
X030786Y031988D01*
X031574Y031988D02*
X031751Y031988D01*
X031751Y033799D01*
X031574Y033799D01*
X031574Y033287D02*
X030786Y033287D01*
X030786Y033799D02*
X030609Y033799D01*
X033115Y033750D02*
X033745Y033750D01*
X033761Y033755D01*
X033777Y033763D01*
X033791Y033773D01*
X033803Y033785D01*
X033813Y033800D01*
X033820Y033816D01*
X033824Y033833D01*
X033825Y033850D01*
X033823Y033868D01*
X033823Y034419D02*
X033825Y034437D01*
X033824Y034454D01*
X033820Y034471D01*
X033813Y034487D01*
X033803Y034502D01*
X033791Y034514D01*
X033777Y034524D01*
X033761Y034532D01*
X033745Y034537D01*
X033115Y034537D01*
X033099Y034532D01*
X033083Y034524D01*
X033069Y034514D01*
X033057Y034502D01*
X033047Y034487D01*
X033040Y034471D01*
X033036Y034454D01*
X033035Y034437D01*
X033037Y034419D01*
X033037Y033868D02*
X033035Y033850D01*
X033036Y033833D01*
X033040Y033816D01*
X033047Y033800D01*
X033057Y033785D01*
X033069Y033773D01*
X033083Y033763D01*
X033099Y033755D01*
X033115Y033750D01*
X036339Y031915D02*
X036773Y031915D01*
X036339Y031915D02*
X036339Y031088D01*
X036339Y029120D02*
X036339Y028372D01*
X040631Y028372D01*
X040631Y031915D01*
X038623Y031915D01*
X038780Y022093D02*
X037080Y022093D01*
X036730Y021293D02*
X036730Y020500D01*
X037080Y019693D02*
X038780Y019693D01*
X039130Y020489D02*
X039130Y021293D01*
X037230Y020893D02*
X037232Y020945D01*
X037238Y020997D01*
X037248Y021049D01*
X037261Y021099D01*
X037278Y021149D01*
X037299Y021197D01*
X037324Y021243D01*
X037352Y021287D01*
X037383Y021329D01*
X037417Y021369D01*
X037454Y021406D01*
X037494Y021440D01*
X037536Y021471D01*
X037580Y021499D01*
X037626Y021524D01*
X037674Y021545D01*
X037724Y021562D01*
X037774Y021575D01*
X037826Y021585D01*
X037878Y021591D01*
X037930Y021593D01*
X037982Y021591D01*
X038034Y021585D01*
X038086Y021575D01*
X038136Y021562D01*
X038186Y021545D01*
X038234Y021524D01*
X038280Y021499D01*
X038324Y021471D01*
X038366Y021440D01*
X038406Y021406D01*
X038443Y021369D01*
X038477Y021329D01*
X038508Y021287D01*
X038536Y021243D01*
X038561Y021197D01*
X038582Y021149D01*
X038599Y021099D01*
X038612Y021049D01*
X038622Y020997D01*
X038628Y020945D01*
X038630Y020893D01*
X038628Y020841D01*
X038622Y020789D01*
X038612Y020737D01*
X038599Y020687D01*
X038582Y020637D01*
X038561Y020589D01*
X038536Y020543D01*
X038508Y020499D01*
X038477Y020457D01*
X038443Y020417D01*
X038406Y020380D01*
X038366Y020346D01*
X038324Y020315D01*
X038280Y020287D01*
X038234Y020262D01*
X038186Y020241D01*
X038136Y020224D01*
X038086Y020211D01*
X038034Y020201D01*
X037982Y020195D01*
X037930Y020193D01*
X037878Y020195D01*
X037826Y020201D01*
X037774Y020211D01*
X037724Y020224D01*
X037674Y020241D01*
X037626Y020262D01*
X037580Y020287D01*
X037536Y020315D01*
X037494Y020346D01*
X037454Y020380D01*
X037417Y020417D01*
X037383Y020457D01*
X037352Y020499D01*
X037324Y020543D01*
X037299Y020589D01*
X037278Y020637D01*
X037261Y020687D01*
X037248Y020737D01*
X037238Y020789D01*
X037232Y020841D01*
X037230Y020893D01*
X037030Y017643D02*
X036780Y017393D01*
X036530Y017643D01*
X036030Y017643D01*
X035780Y017393D01*
X035530Y017643D01*
X035030Y017643D01*
X034780Y017393D01*
X034530Y017643D01*
X034030Y017643D01*
X033780Y017393D01*
X033530Y017643D01*
X033030Y017643D01*
X032780Y017393D01*
X032530Y017643D01*
X032030Y017643D01*
X031780Y017393D01*
X031530Y017643D01*
X031030Y017643D01*
X030780Y017393D01*
X030530Y017643D01*
X030030Y017643D01*
X029780Y017393D01*
X029530Y017643D01*
X029030Y017643D01*
X028780Y017393D01*
X028530Y017643D01*
X028030Y017643D01*
X027780Y017393D01*
X027780Y016893D01*
X028030Y016643D01*
X028530Y016643D01*
X028780Y016893D01*
X029030Y016643D01*
X029530Y016643D01*
X029780Y016893D01*
X030030Y016643D01*
X030530Y016643D01*
X030780Y016893D01*
X031030Y016643D01*
X031530Y016643D01*
X031780Y016893D01*
X032030Y016643D01*
X032530Y016643D01*
X032780Y016893D01*
X033030Y016643D01*
X033530Y016643D01*
X033780Y016893D01*
X034030Y016643D01*
X034530Y016643D01*
X034780Y016893D01*
X035030Y016643D01*
X035530Y016643D01*
X035780Y016893D01*
X036030Y016643D01*
X036530Y016643D01*
X036780Y016893D01*
X037030Y016643D01*
X037530Y016643D01*
X037780Y016893D01*
X037780Y017393D01*
X037530Y017643D01*
X037030Y017643D01*
X038046Y015716D02*
X029975Y015716D01*
X029680Y015716D01*
X029680Y006070D01*
X029975Y006070D01*
X029975Y007055D01*
X038046Y007055D01*
X038046Y006070D01*
X029975Y006070D01*
X029975Y014732D02*
X038046Y014732D01*
X038046Y015716D01*
X040310Y013137D02*
X040546Y012862D01*
X040546Y008925D01*
X040310Y008649D01*
X029975Y014732D02*
X029975Y015716D01*
X027180Y016893D02*
X026930Y016643D01*
X026430Y016643D01*
X026180Y016893D01*
X025930Y016643D01*
X025430Y016643D01*
X025180Y016893D01*
X024930Y016643D01*
X024430Y016643D01*
X024180Y016893D01*
X023930Y016643D01*
X023430Y016643D01*
X023180Y016893D01*
X022930Y016643D01*
X022430Y016643D01*
X022180Y016893D01*
X021930Y016643D01*
X021430Y016643D01*
X021180Y016893D01*
X020930Y016643D01*
X020430Y016643D01*
X020180Y016893D01*
X019930Y016643D01*
X019430Y016643D01*
X019180Y016893D01*
X019180Y017393D01*
X019430Y017643D01*
X019930Y017643D01*
X020180Y017393D01*
X020430Y017643D01*
X020930Y017643D01*
X021180Y017393D01*
X021430Y017643D01*
X021930Y017643D01*
X022180Y017393D01*
X022430Y017643D01*
X022930Y017643D01*
X023180Y017393D01*
X023430Y017643D01*
X023930Y017643D01*
X024180Y017393D01*
X024430Y017643D01*
X024930Y017643D01*
X025180Y017393D01*
X025430Y017643D01*
X025930Y017643D01*
X026180Y017393D01*
X026430Y017643D01*
X026930Y017643D01*
X027180Y017393D01*
X027180Y016893D01*
X015430Y016643D02*
X015430Y016143D01*
X015180Y015893D01*
X015430Y015643D01*
X015430Y015143D01*
X015180Y014893D01*
X015430Y014643D01*
X015430Y014143D01*
X015180Y013893D01*
X014680Y013893D01*
X014430Y014143D01*
X014430Y014643D01*
X014680Y014893D01*
X014430Y015143D01*
X014430Y015643D01*
X014680Y015893D01*
X014430Y016143D01*
X014430Y016643D01*
X014680Y016893D01*
X015180Y016893D01*
X015430Y016643D01*
D19*
X023180Y031293D03*
D20*
X021455Y031543D03*
X024905Y031543D03*
D21*
X023680Y031543D03*
X022680Y031543D03*
D22*
X020805Y031805D02*
X020805Y031855D01*
X020805Y031830D02*
X020655Y031830D01*
X020655Y031805D02*
X020655Y031855D01*
X020680Y031904D02*
X020780Y031904D01*
X020805Y031929D01*
X020805Y031979D01*
X020780Y032004D01*
X020805Y032051D02*
X020805Y032151D01*
X020805Y032101D02*
X020655Y032101D01*
X020705Y032051D01*
X020680Y032004D02*
X020655Y031979D01*
X020655Y031929D01*
X020680Y031904D01*
X018131Y030582D02*
X018106Y030607D01*
X018006Y030607D01*
X017981Y030582D01*
X017981Y030532D01*
X018006Y030507D01*
X018031Y030507D01*
X018056Y030532D01*
X018056Y030607D01*
X018131Y030582D02*
X018131Y030532D01*
X018106Y030507D01*
X018106Y030459D02*
X018131Y030434D01*
X018131Y030384D01*
X018106Y030359D01*
X018006Y030359D01*
X017981Y030384D01*
X017981Y030434D01*
X018006Y030459D01*
X016435Y031779D02*
X016435Y031829D01*
X016410Y031854D01*
X016435Y031901D02*
X016335Y032001D01*
X016310Y032001D01*
X016285Y031976D01*
X016285Y031926D01*
X016310Y031901D01*
X016310Y031854D02*
X016285Y031829D01*
X016285Y031779D01*
X016310Y031754D01*
X016410Y031754D01*
X016435Y031779D01*
X016435Y031901D02*
X016435Y032001D01*
X016930Y035868D02*
X016955Y035893D01*
X016955Y035918D01*
X016930Y035943D01*
X016805Y035943D01*
X016805Y035918D02*
X016805Y035968D01*
X016805Y036016D02*
X016805Y036091D01*
X016830Y036116D01*
X016880Y036116D01*
X016905Y036091D01*
X016905Y036016D01*
X016955Y036016D02*
X016805Y036016D01*
X016855Y036163D02*
X016805Y036213D01*
X016955Y036213D01*
X016955Y036163D02*
X016955Y036263D01*
X016930Y036310D02*
X016955Y036335D01*
X016955Y036385D01*
X016930Y036410D01*
X016880Y036410D01*
X016855Y036385D01*
X016855Y036360D01*
X016880Y036310D01*
X016805Y036310D01*
X016805Y036410D01*
X010075Y031314D02*
X010075Y031214D01*
X010075Y031264D02*
X009925Y031264D01*
X009975Y031214D01*
X009925Y031167D02*
X009925Y031067D01*
X010075Y031067D01*
X010000Y031067D02*
X010000Y031117D01*
X007188Y033913D02*
X007163Y033888D01*
X007113Y033888D01*
X007088Y033913D01*
X007188Y034013D01*
X007188Y033913D01*
X007088Y033913D02*
X007088Y034013D01*
X007113Y034038D01*
X007163Y034038D01*
X007188Y034013D01*
X007040Y033888D02*
X006940Y033888D01*
X006990Y033888D02*
X006990Y034038D01*
X006940Y033988D01*
X006893Y034013D02*
X006868Y034038D01*
X006818Y034038D01*
X006793Y034013D01*
X006793Y033913D01*
X006818Y033888D01*
X006868Y033888D01*
X006893Y033913D01*
X007603Y036398D02*
X007578Y036423D01*
X007603Y036398D02*
X007653Y036398D01*
X007678Y036423D01*
X007678Y036448D01*
X007653Y036473D01*
X007603Y036473D01*
X007578Y036498D01*
X007578Y036523D01*
X007603Y036548D01*
X007653Y036548D01*
X007678Y036523D01*
X007775Y036548D02*
X007825Y036548D01*
X007800Y036548D02*
X007800Y036423D01*
X007775Y036398D01*
X007750Y036398D01*
X007725Y036423D01*
X007872Y036398D02*
X007972Y036398D01*
X007922Y036398D02*
X007922Y036548D01*
X007872Y036498D01*
X008019Y036473D02*
X008120Y036473D01*
X008095Y036398D02*
X008095Y036548D01*
X008019Y036473D01*
X008560Y027898D02*
X008535Y027873D01*
X008535Y027773D01*
X008560Y027748D01*
X008610Y027748D01*
X008635Y027773D01*
X008682Y027773D02*
X008707Y027748D01*
X008757Y027748D01*
X008782Y027773D01*
X008782Y027798D01*
X008757Y027823D01*
X008732Y027823D01*
X008757Y027823D02*
X008782Y027848D01*
X008782Y027873D01*
X008757Y027898D01*
X008707Y027898D01*
X008682Y027873D01*
X008635Y027873D02*
X008610Y027898D01*
X008560Y027898D01*
X018525Y021219D02*
X018550Y021244D01*
X018575Y021244D01*
X018600Y021219D01*
X018600Y021169D01*
X018575Y021144D01*
X018550Y021144D01*
X018525Y021169D01*
X018525Y021219D01*
X018600Y021219D02*
X018625Y021244D01*
X018650Y021244D01*
X018675Y021219D01*
X018675Y021169D01*
X018650Y021144D01*
X018625Y021144D01*
X018600Y021169D01*
X018650Y021097D02*
X018675Y021072D01*
X018675Y021022D01*
X018650Y020997D01*
X018550Y020997D01*
X018525Y021022D01*
X018525Y021072D01*
X018550Y021097D01*
X018525Y020948D02*
X018525Y020898D01*
X018525Y020923D02*
X018675Y020923D01*
X018675Y020898D02*
X018675Y020948D01*
X018060Y018221D02*
X018085Y018196D01*
X018085Y018146D01*
X018060Y018121D01*
X018085Y018074D02*
X018085Y017974D01*
X018085Y018024D02*
X017935Y018024D01*
X017985Y017974D01*
X017960Y017926D02*
X017935Y017901D01*
X017935Y017851D01*
X017960Y017826D01*
X018060Y017826D01*
X018085Y017851D01*
X018085Y017901D01*
X018060Y017926D01*
X017960Y018121D02*
X017935Y018146D01*
X017935Y018196D01*
X017960Y018221D01*
X017985Y018221D01*
X018010Y018196D01*
X018035Y018221D01*
X018060Y018221D01*
X018010Y018196D02*
X018010Y018171D01*
X016787Y016298D02*
X016812Y016273D01*
X016812Y016248D01*
X016787Y016223D01*
X016812Y016198D01*
X016812Y016173D01*
X016787Y016148D01*
X016737Y016148D01*
X016712Y016173D01*
X016665Y016148D02*
X016615Y016198D01*
X016640Y016198D02*
X016565Y016198D01*
X016565Y016148D02*
X016565Y016298D01*
X016640Y016298D01*
X016665Y016273D01*
X016665Y016223D01*
X016640Y016198D01*
X016712Y016273D02*
X016737Y016298D01*
X016787Y016298D01*
X016787Y016223D02*
X016762Y016223D01*
X015097Y017018D02*
X014997Y017018D01*
X014950Y017018D02*
X014850Y017018D01*
X014900Y017018D02*
X014900Y017168D01*
X014850Y017118D01*
X014802Y017093D02*
X014777Y017068D01*
X014702Y017068D01*
X014702Y017018D02*
X014702Y017168D01*
X014777Y017168D01*
X014802Y017143D01*
X014802Y017093D01*
X014655Y017168D02*
X014605Y017168D01*
X014630Y017168D02*
X014630Y017043D01*
X014605Y017018D01*
X014580Y017018D01*
X014555Y017043D01*
X014997Y017118D02*
X015047Y017168D01*
X015047Y017018D01*
X009205Y017614D02*
X009205Y017639D01*
X009180Y017664D01*
X009055Y017664D01*
X009055Y017639D02*
X009055Y017689D01*
X009055Y017736D02*
X009055Y017811D01*
X009080Y017836D01*
X009130Y017836D01*
X009155Y017811D01*
X009155Y017736D01*
X009205Y017736D02*
X009055Y017736D01*
X009105Y017884D02*
X009055Y017934D01*
X009205Y017934D01*
X009205Y017884D02*
X009205Y017984D01*
X009130Y018031D02*
X009130Y018131D01*
X009205Y018106D02*
X009055Y018106D01*
X009130Y018031D01*
X009205Y017614D02*
X009180Y017589D01*
X009185Y015601D02*
X009160Y015576D01*
X009160Y015501D01*
X009210Y015501D01*
X009235Y015526D01*
X009235Y015576D01*
X009210Y015601D01*
X009185Y015601D01*
X009110Y015551D02*
X009160Y015501D01*
X009210Y015454D02*
X009235Y015429D01*
X009235Y015379D01*
X009210Y015354D01*
X009110Y015354D01*
X009085Y015379D01*
X009085Y015429D01*
X009110Y015454D01*
X009110Y015551D02*
X009085Y015601D01*
X009085Y015305D02*
X009085Y015255D01*
X009085Y015280D02*
X009235Y015280D01*
X009235Y015255D02*
X009235Y015305D01*
X006210Y015898D02*
X006110Y015898D01*
X006062Y015898D02*
X005962Y015898D01*
X006012Y015898D02*
X006012Y016048D01*
X005962Y015998D01*
X005915Y016023D02*
X005890Y016048D01*
X005840Y016048D01*
X005815Y016023D01*
X005815Y015923D01*
X005840Y015898D01*
X005890Y015898D01*
X005915Y015923D01*
X006110Y015998D02*
X006160Y016048D01*
X006160Y015898D01*
X006775Y012673D02*
X006800Y012673D01*
X006900Y012573D01*
X006925Y012573D01*
X006925Y012501D02*
X006775Y012501D01*
X006850Y012426D01*
X006850Y012526D01*
X006775Y012573D02*
X006775Y012673D01*
X006800Y012378D02*
X006850Y012378D01*
X006875Y012353D01*
X006875Y012278D01*
X006925Y012278D02*
X006775Y012278D01*
X006775Y012353D01*
X006800Y012378D01*
X006875Y012328D02*
X006925Y012378D01*
X006175Y011648D02*
X006175Y011598D01*
X006150Y011573D01*
X006100Y011573D02*
X006075Y011623D01*
X006075Y011648D01*
X006100Y011673D01*
X006150Y011673D01*
X006175Y011648D01*
X006100Y011573D02*
X006025Y011573D01*
X006025Y011673D01*
X006100Y011526D02*
X006100Y011426D01*
X006025Y011501D01*
X006175Y011501D01*
X006175Y011378D02*
X006125Y011328D01*
X006125Y011353D02*
X006125Y011278D01*
X006175Y011278D02*
X006025Y011278D01*
X006025Y011353D01*
X006050Y011378D01*
X006100Y011378D01*
X006125Y011353D01*
X007775Y011353D02*
X007775Y011278D01*
X007925Y011278D01*
X007875Y011278D02*
X007875Y011353D01*
X007850Y011378D01*
X007800Y011378D01*
X007775Y011353D01*
X007875Y011328D02*
X007925Y011378D01*
X007850Y011426D02*
X007850Y011526D01*
X007850Y011573D02*
X007850Y011648D01*
X007875Y011673D01*
X007900Y011673D01*
X007925Y011648D01*
X007925Y011598D01*
X007900Y011573D01*
X007850Y011573D01*
X007800Y011623D01*
X007775Y011673D01*
X007775Y011501D02*
X007850Y011426D01*
X007925Y011501D02*
X007775Y011501D01*
X010785Y006298D02*
X010860Y006298D01*
X010885Y006273D01*
X010885Y006223D01*
X010860Y006198D01*
X010785Y006198D01*
X010785Y006148D02*
X010785Y006298D01*
X010932Y006298D02*
X010932Y006223D01*
X010982Y006248D01*
X011007Y006248D01*
X011032Y006223D01*
X011032Y006173D01*
X011007Y006148D01*
X010957Y006148D01*
X010932Y006173D01*
X010932Y006298D02*
X011032Y006298D01*
X012035Y006298D02*
X012110Y006298D01*
X012135Y006273D01*
X012135Y006223D01*
X012110Y006198D01*
X012035Y006198D01*
X012035Y006148D02*
X012035Y006298D01*
X012182Y006223D02*
X012282Y006223D01*
X012257Y006148D02*
X012257Y006298D01*
X012182Y006223D01*
X013035Y006198D02*
X013110Y006198D01*
X013135Y006223D01*
X013135Y006273D01*
X013110Y006298D01*
X013035Y006298D01*
X013035Y006148D01*
X013182Y006173D02*
X013207Y006148D01*
X013257Y006148D01*
X013282Y006173D01*
X013282Y006198D01*
X013257Y006223D01*
X013232Y006223D01*
X013257Y006223D02*
X013282Y006248D01*
X013282Y006273D01*
X013257Y006298D01*
X013207Y006298D01*
X013182Y006273D01*
X014285Y006298D02*
X014360Y006298D01*
X014385Y006273D01*
X014385Y006223D01*
X014360Y006198D01*
X014285Y006198D01*
X014285Y006148D02*
X014285Y006298D01*
X014432Y006298D02*
X014532Y006298D01*
X014532Y006273D01*
X014432Y006173D01*
X014432Y006148D01*
X015285Y006148D02*
X015285Y006298D01*
X015360Y006298D01*
X015385Y006273D01*
X015385Y006223D01*
X015360Y006198D01*
X015285Y006198D01*
X015432Y006173D02*
X015457Y006148D01*
X015507Y006148D01*
X015532Y006173D01*
X015532Y006198D01*
X015507Y006223D01*
X015432Y006223D01*
X015432Y006173D01*
X015432Y006223D02*
X015482Y006273D01*
X015532Y006298D01*
X016535Y006298D02*
X016610Y006298D01*
X016635Y006273D01*
X016635Y006223D01*
X016610Y006198D01*
X016535Y006198D01*
X016535Y006148D02*
X016535Y006298D01*
X016682Y006248D02*
X016732Y006298D01*
X016732Y006148D01*
X016682Y006148D02*
X016782Y006148D01*
X017535Y006148D02*
X017535Y006298D01*
X017610Y006298D01*
X017635Y006273D01*
X017635Y006223D01*
X017610Y006198D01*
X017535Y006198D01*
X017682Y006148D02*
X017782Y006248D01*
X017782Y006273D01*
X017757Y006298D01*
X017707Y006298D01*
X017682Y006273D01*
X017682Y006148D02*
X017782Y006148D01*
X017757Y008448D02*
X017732Y008473D01*
X017732Y008498D01*
X017757Y008523D01*
X017807Y008523D01*
X017832Y008498D01*
X017832Y008473D01*
X017807Y008448D01*
X017757Y008448D01*
X017757Y008523D02*
X017732Y008548D01*
X017732Y008573D01*
X017757Y008598D01*
X017807Y008598D01*
X017832Y008573D01*
X017832Y008548D01*
X017807Y008523D01*
X017685Y008523D02*
X017660Y008498D01*
X017585Y008498D01*
X017585Y008448D02*
X017585Y008598D01*
X017660Y008598D01*
X017685Y008573D01*
X017685Y008523D01*
X016832Y008523D02*
X016757Y008523D01*
X016732Y008548D01*
X016732Y008573D01*
X016757Y008598D01*
X016807Y008598D01*
X016832Y008573D01*
X016832Y008473D01*
X016807Y008448D01*
X016757Y008448D01*
X016732Y008473D01*
X016685Y008523D02*
X016660Y008498D01*
X016585Y008498D01*
X016585Y008448D02*
X016585Y008598D01*
X016660Y008598D01*
X016685Y008573D01*
X016685Y008523D01*
X015980Y008498D02*
X015980Y008473D01*
X015955Y008448D01*
X015905Y008448D01*
X015880Y008473D01*
X015832Y008448D02*
X015732Y008448D01*
X015782Y008448D02*
X015782Y008598D01*
X015732Y008548D01*
X015685Y008523D02*
X015660Y008498D01*
X015585Y008498D01*
X015585Y008448D02*
X015585Y008598D01*
X015660Y008598D01*
X015685Y008573D01*
X015685Y008523D01*
X015880Y008573D02*
X015905Y008598D01*
X015955Y008598D01*
X015980Y008573D01*
X015980Y008548D01*
X015955Y008523D01*
X015980Y008498D01*
X015955Y008523D02*
X015930Y008523D01*
X015955Y010948D02*
X015905Y010948D01*
X015880Y010973D01*
X015980Y011073D01*
X015980Y010973D01*
X015955Y010948D01*
X015880Y010973D02*
X015880Y011073D01*
X015905Y011098D01*
X015955Y011098D01*
X015980Y011073D01*
X015832Y010948D02*
X015732Y010948D01*
X015782Y010948D02*
X015782Y011098D01*
X015732Y011048D01*
X015685Y011023D02*
X015660Y010998D01*
X015585Y010998D01*
X015585Y010948D02*
X015585Y011098D01*
X015660Y011098D01*
X015685Y011073D01*
X015685Y011023D01*
X016585Y010998D02*
X016660Y010998D01*
X016685Y011023D01*
X016685Y011073D01*
X016660Y011098D01*
X016585Y011098D01*
X016585Y010948D01*
X016732Y010948D02*
X016832Y010948D01*
X016880Y010948D02*
X016980Y010948D01*
X016930Y010948D02*
X016930Y011098D01*
X016880Y011048D01*
X016782Y011098D02*
X016782Y010948D01*
X016732Y011048D02*
X016782Y011098D01*
X017585Y011098D02*
X017660Y011098D01*
X017685Y011073D01*
X017685Y011023D01*
X017660Y010998D01*
X017585Y010998D01*
X017585Y010948D02*
X017585Y011098D01*
X017732Y011048D02*
X017782Y011098D01*
X017782Y010948D01*
X017732Y010948D02*
X017832Y010948D01*
X017880Y010948D02*
X017980Y011048D01*
X017980Y011073D01*
X017955Y011098D01*
X017905Y011098D01*
X017880Y011073D01*
X017880Y010948D02*
X017980Y010948D01*
X029835Y010101D02*
X029860Y010051D01*
X029910Y010001D01*
X029910Y010076D01*
X029935Y010101D01*
X029960Y010101D01*
X029985Y010076D01*
X029985Y010026D01*
X029960Y010001D01*
X029910Y010001D01*
X029985Y009954D02*
X029835Y009854D01*
X029835Y009954D02*
X029985Y009854D01*
X028113Y023588D02*
X028063Y023588D01*
X028038Y023613D01*
X028038Y023663D02*
X028088Y023688D01*
X028113Y023688D01*
X028138Y023663D01*
X028138Y023613D01*
X028113Y023588D01*
X028038Y023663D02*
X028038Y023738D01*
X028138Y023738D01*
X027990Y023738D02*
X027890Y023588D01*
X027990Y023588D02*
X027890Y023738D01*
X029565Y026148D02*
X029565Y026298D01*
X029640Y026298D01*
X029665Y026273D01*
X029665Y026223D01*
X029640Y026198D01*
X029565Y026198D01*
X029615Y026198D02*
X029665Y026148D01*
X029712Y026173D02*
X029737Y026148D01*
X029787Y026148D01*
X029812Y026173D01*
X029812Y026223D01*
X029787Y026248D01*
X029762Y026248D01*
X029712Y026223D01*
X029712Y026298D01*
X029812Y026298D01*
X029860Y026273D02*
X029885Y026298D01*
X029935Y026298D01*
X029960Y026273D01*
X029960Y026248D01*
X029860Y026148D01*
X029960Y026148D01*
X029935Y027898D02*
X029885Y027898D01*
X029860Y027923D01*
X029812Y027923D02*
X029787Y027898D01*
X029737Y027898D01*
X029712Y027923D01*
X029712Y027973D02*
X029762Y027998D01*
X029787Y027998D01*
X029812Y027973D01*
X029812Y027923D01*
X029910Y027973D02*
X029935Y027973D01*
X029960Y027948D01*
X029960Y027923D01*
X029935Y027898D01*
X029935Y027973D02*
X029960Y027998D01*
X029960Y028023D01*
X029935Y028048D01*
X029885Y028048D01*
X029860Y028023D01*
X029812Y028048D02*
X029712Y028048D01*
X029712Y027973D01*
X029665Y027973D02*
X029640Y027948D01*
X029565Y027948D01*
X029565Y027898D02*
X029565Y028048D01*
X029640Y028048D01*
X029665Y028023D01*
X029665Y027973D01*
X029615Y027948D02*
X029665Y027898D01*
X028138Y027663D02*
X028038Y027663D01*
X028113Y027738D01*
X028113Y027588D01*
X027990Y027588D02*
X027890Y027738D01*
X027990Y027738D02*
X027890Y027588D01*
X030565Y029648D02*
X030565Y029798D01*
X030640Y029798D01*
X030665Y029773D01*
X030665Y029723D01*
X030640Y029698D01*
X030565Y029698D01*
X030615Y029698D02*
X030665Y029648D01*
X030712Y029723D02*
X030812Y029723D01*
X030860Y029673D02*
X030885Y029648D01*
X030935Y029648D01*
X030960Y029673D01*
X030960Y029698D01*
X030935Y029723D01*
X030910Y029723D01*
X030935Y029723D02*
X030960Y029748D01*
X030960Y029773D01*
X030935Y029798D01*
X030885Y029798D01*
X030860Y029773D01*
X030787Y029798D02*
X030712Y029723D01*
X030787Y029648D02*
X030787Y029798D01*
X031565Y029798D02*
X031640Y029798D01*
X031665Y029773D01*
X031665Y029723D01*
X031640Y029698D01*
X031565Y029698D01*
X031565Y029648D02*
X031565Y029798D01*
X031615Y029698D02*
X031665Y029648D01*
X031712Y029723D02*
X031812Y029723D01*
X031860Y029748D02*
X031885Y029723D01*
X031960Y029723D01*
X031960Y029673D02*
X031960Y029773D01*
X031935Y029798D01*
X031885Y029798D01*
X031860Y029773D01*
X031860Y029748D01*
X031860Y029673D02*
X031885Y029648D01*
X031935Y029648D01*
X031960Y029673D01*
X031787Y029648D02*
X031787Y029798D01*
X031712Y029723D01*
X033388Y028138D02*
X033363Y028113D01*
X033363Y028013D01*
X033388Y027988D01*
X033438Y027988D01*
X033463Y028013D01*
X033510Y027988D02*
X033610Y027988D01*
X033658Y027988D02*
X033658Y028013D01*
X033758Y028113D01*
X033758Y028138D01*
X033658Y028138D01*
X033560Y028138D02*
X033560Y027988D01*
X033510Y028088D02*
X033560Y028138D01*
X033463Y028113D02*
X033438Y028138D01*
X033388Y028138D01*
X034363Y028113D02*
X034363Y028013D01*
X034388Y027988D01*
X034438Y027988D01*
X034463Y028013D01*
X034510Y027988D02*
X034610Y027988D01*
X034560Y027988D02*
X034560Y028138D01*
X034510Y028088D01*
X034463Y028113D02*
X034438Y028138D01*
X034388Y028138D01*
X034363Y028113D01*
X034658Y028063D02*
X034733Y028063D01*
X034758Y028038D01*
X034758Y028013D01*
X034733Y027988D01*
X034683Y027988D01*
X034658Y028013D01*
X034658Y028063D01*
X034708Y028113D01*
X034758Y028138D01*
X035363Y026388D02*
X035438Y026388D01*
X035463Y026363D01*
X035463Y026313D01*
X035438Y026288D01*
X035363Y026288D01*
X035363Y026238D02*
X035363Y026388D01*
X035413Y026288D02*
X035463Y026238D01*
X035510Y026263D02*
X035535Y026238D01*
X035585Y026238D01*
X035610Y026263D01*
X035610Y026313D01*
X035585Y026338D01*
X035560Y026338D01*
X035510Y026313D01*
X035510Y026388D01*
X035610Y026388D01*
X035658Y026338D02*
X035708Y026388D01*
X035708Y026238D01*
X035658Y026238D02*
X035758Y026238D01*
X035685Y024548D02*
X035710Y024523D01*
X035610Y024423D01*
X035635Y024398D01*
X035685Y024398D01*
X035710Y024423D01*
X035710Y024523D01*
X035685Y024548D02*
X035635Y024548D01*
X035610Y024523D01*
X035610Y024423D01*
X035562Y024423D02*
X035537Y024398D01*
X035487Y024398D01*
X035462Y024423D01*
X035462Y024473D02*
X035512Y024498D01*
X035537Y024498D01*
X035562Y024473D01*
X035562Y024423D01*
X035462Y024473D02*
X035462Y024548D01*
X035562Y024548D01*
X035415Y024523D02*
X035415Y024473D01*
X035390Y024448D01*
X035315Y024448D01*
X035315Y024398D02*
X035315Y024548D01*
X035390Y024548D01*
X035415Y024523D01*
X035365Y024448D02*
X035415Y024398D01*
X032493Y026657D02*
X032493Y026758D01*
X032468Y026783D01*
X032418Y026783D01*
X032393Y026758D01*
X032393Y026733D01*
X032418Y026708D01*
X032493Y026708D01*
X032493Y026657D02*
X032468Y026632D01*
X032418Y026632D01*
X032393Y026657D01*
X032346Y026657D02*
X032321Y026632D01*
X032271Y026632D01*
X032246Y026657D01*
X032246Y026758D01*
X032271Y026783D01*
X032321Y026783D01*
X032346Y026758D01*
X032198Y026783D02*
X032148Y026783D01*
X032173Y026783D02*
X032173Y026632D01*
X032148Y026632D02*
X032198Y026632D01*
X031983Y031488D02*
X031983Y031638D01*
X031908Y031563D01*
X032008Y031563D01*
X031860Y031563D02*
X031760Y031563D01*
X031835Y031638D01*
X031835Y031488D01*
X031713Y031488D02*
X031663Y031538D01*
X031688Y031538D02*
X031613Y031538D01*
X031613Y031488D02*
X031613Y031638D01*
X031688Y031638D01*
X031713Y031613D01*
X031713Y031563D01*
X031688Y031538D01*
X031715Y033888D02*
X031740Y033913D01*
X031740Y034013D01*
X031715Y034038D01*
X031640Y034038D01*
X031640Y033888D01*
X031715Y033888D01*
X031788Y033888D02*
X031888Y033888D01*
X031838Y033888D02*
X031838Y034038D01*
X031788Y033988D01*
X033328Y034723D02*
X033353Y034698D01*
X033403Y034698D01*
X033428Y034723D01*
X033428Y034748D01*
X033403Y034773D01*
X033353Y034773D01*
X033328Y034798D01*
X033328Y034823D01*
X033353Y034848D01*
X033403Y034848D01*
X033428Y034823D01*
X033525Y034848D02*
X033575Y034848D01*
X033550Y034848D02*
X033550Y034723D01*
X033525Y034698D01*
X033500Y034698D01*
X033475Y034723D01*
X033622Y034698D02*
X033722Y034698D01*
X033672Y034698D02*
X033672Y034848D01*
X033622Y034798D01*
X034472Y033638D02*
X034572Y033638D01*
X034619Y033613D02*
X034644Y033638D01*
X034694Y033638D01*
X034719Y033613D01*
X034719Y033588D01*
X034619Y033488D01*
X034719Y033488D01*
X034522Y033563D02*
X034472Y033563D01*
X034472Y033488D02*
X034472Y033638D01*
X028682Y034073D02*
X028657Y034048D01*
X028607Y034048D01*
X028582Y034073D01*
X028535Y034048D02*
X028435Y034198D01*
X028535Y034198D02*
X028435Y034048D01*
X028582Y034173D02*
X028607Y034198D01*
X028657Y034198D01*
X028682Y034173D01*
X028682Y034148D01*
X028657Y034123D01*
X028682Y034098D01*
X028682Y034073D01*
X028657Y034123D02*
X028632Y034123D01*
X028038Y033888D02*
X027938Y033888D01*
X027988Y033888D02*
X027988Y034038D01*
X027938Y033988D01*
X027890Y034013D02*
X027865Y034038D01*
X027815Y034038D01*
X027790Y034013D01*
X027790Y033913D01*
X027815Y033888D01*
X027865Y033888D01*
X027890Y033913D01*
X025422Y034198D02*
X025322Y034198D01*
X025422Y034298D01*
X025422Y034323D01*
X025397Y034348D01*
X025347Y034348D01*
X025322Y034323D01*
X025275Y034348D02*
X025225Y034348D01*
X025250Y034348D02*
X025250Y034223D01*
X025225Y034198D01*
X025200Y034198D01*
X025175Y034223D01*
X025128Y034223D02*
X025103Y034198D01*
X025053Y034198D01*
X025028Y034223D01*
X025053Y034273D02*
X025103Y034273D01*
X025128Y034248D01*
X025128Y034223D01*
X025053Y034273D02*
X025028Y034298D01*
X025028Y034323D01*
X025053Y034348D01*
X025103Y034348D01*
X025128Y034323D01*
X025650Y032396D02*
X025625Y032371D01*
X025625Y032321D01*
X025650Y032296D01*
X025650Y032248D02*
X025625Y032223D01*
X025625Y032148D01*
X025775Y032148D01*
X025775Y032223D01*
X025750Y032248D01*
X025650Y032248D01*
X025775Y032296D02*
X025675Y032396D01*
X025650Y032396D01*
X025775Y032396D02*
X025775Y032296D01*
M02*
