G75*
G70*
%OFA0B0*%
%FSLAX24Y24*%
%IPPOS*%
%LPD*%
%AMOC8*
5,1,8,0,0,1.08239X$1,22.5*
%
%ADD10C,0.0000*%
%ADD11C,0.1457*%
%ADD12C,0.0780*%
%ADD13R,0.0780X0.0780*%
%ADD14OC8,0.0780*%
%ADD15C,0.0600*%
%ADD16C,0.1700*%
%ADD17C,0.1542*%
%ADD18C,0.0745*%
%ADD19C,0.0640*%
%ADD20R,0.0749X0.0670*%
%ADD21R,0.0670X0.0749*%
%ADD22R,0.0619X0.0737*%
%ADD23R,0.0290X0.0540*%
%ADD24R,0.0540X0.0290*%
%ADD25R,0.0631X0.0552*%
%ADD26R,0.1221X0.0591*%
%ADD27C,0.0640*%
%ADD28R,0.1024X0.1182*%
%ADD29OC8,0.0640*%
%ADD30R,0.0300X0.0840*%
%ADD31R,0.0552X0.0631*%
%ADD32R,0.0394X0.0926*%
%ADD33R,0.0394X0.1142*%
%ADD34R,0.0512X0.0512*%
%ADD35R,0.0335X0.0158*%
%ADD36R,0.0158X0.0335*%
%ADD37R,0.1080X0.1080*%
%ADD38R,0.0940X0.1140*%
%ADD39R,0.1140X0.0940*%
D10*
X000930Y005893D02*
X000930Y037389D01*
X040300Y037389D01*
X040300Y005893D01*
X000930Y005893D01*
X001463Y007403D02*
X001465Y007456D01*
X001471Y007509D01*
X001481Y007561D01*
X001494Y007612D01*
X001512Y007662D01*
X001533Y007711D01*
X001558Y007758D01*
X001586Y007802D01*
X001618Y007845D01*
X001652Y007885D01*
X001690Y007923D01*
X001730Y007957D01*
X001773Y007989D01*
X001818Y008017D01*
X001864Y008042D01*
X001913Y008063D01*
X001963Y008081D01*
X002014Y008094D01*
X002066Y008104D01*
X002119Y008110D01*
X002172Y008112D01*
X002225Y008110D01*
X002278Y008104D01*
X002330Y008094D01*
X002381Y008081D01*
X002431Y008063D01*
X002480Y008042D01*
X002527Y008017D01*
X002571Y007989D01*
X002614Y007957D01*
X002654Y007923D01*
X002692Y007885D01*
X002726Y007845D01*
X002758Y007802D01*
X002786Y007757D01*
X002811Y007711D01*
X002832Y007662D01*
X002850Y007612D01*
X002863Y007561D01*
X002873Y007509D01*
X002879Y007456D01*
X002881Y007403D01*
X002879Y007350D01*
X002873Y007297D01*
X002863Y007245D01*
X002850Y007194D01*
X002832Y007144D01*
X002811Y007095D01*
X002786Y007048D01*
X002758Y007004D01*
X002726Y006961D01*
X002692Y006921D01*
X002654Y006883D01*
X002614Y006849D01*
X002571Y006817D01*
X002526Y006789D01*
X002480Y006764D01*
X002431Y006743D01*
X002381Y006725D01*
X002330Y006712D01*
X002278Y006702D01*
X002225Y006696D01*
X002172Y006694D01*
X002119Y006696D01*
X002066Y006702D01*
X002014Y006712D01*
X001963Y006725D01*
X001913Y006743D01*
X001864Y006764D01*
X001817Y006789D01*
X001773Y006817D01*
X001730Y006849D01*
X001690Y006883D01*
X001652Y006921D01*
X001618Y006961D01*
X001586Y007004D01*
X001558Y007049D01*
X001533Y007095D01*
X001512Y007144D01*
X001494Y007194D01*
X001481Y007245D01*
X001471Y007297D01*
X001465Y007350D01*
X001463Y007403D01*
X017971Y023143D02*
X017973Y023196D01*
X017979Y023249D01*
X017989Y023301D01*
X018002Y023352D01*
X018020Y023402D01*
X018041Y023451D01*
X018066Y023498D01*
X018094Y023542D01*
X018126Y023585D01*
X018160Y023625D01*
X018198Y023663D01*
X018238Y023697D01*
X018281Y023729D01*
X018326Y023757D01*
X018372Y023782D01*
X018421Y023803D01*
X018471Y023821D01*
X018522Y023834D01*
X018574Y023844D01*
X018627Y023850D01*
X018680Y023852D01*
X018733Y023850D01*
X018786Y023844D01*
X018838Y023834D01*
X018889Y023821D01*
X018939Y023803D01*
X018988Y023782D01*
X019035Y023757D01*
X019079Y023729D01*
X019122Y023697D01*
X019162Y023663D01*
X019200Y023625D01*
X019234Y023585D01*
X019266Y023542D01*
X019294Y023497D01*
X019319Y023451D01*
X019340Y023402D01*
X019358Y023352D01*
X019371Y023301D01*
X019381Y023249D01*
X019387Y023196D01*
X019389Y023143D01*
X019387Y023090D01*
X019381Y023037D01*
X019371Y022985D01*
X019358Y022934D01*
X019340Y022884D01*
X019319Y022835D01*
X019294Y022788D01*
X019266Y022744D01*
X019234Y022701D01*
X019200Y022661D01*
X019162Y022623D01*
X019122Y022589D01*
X019079Y022557D01*
X019034Y022529D01*
X018988Y022504D01*
X018939Y022483D01*
X018889Y022465D01*
X018838Y022452D01*
X018786Y022442D01*
X018733Y022436D01*
X018680Y022434D01*
X018627Y022436D01*
X018574Y022442D01*
X018522Y022452D01*
X018471Y022465D01*
X018421Y022483D01*
X018372Y022504D01*
X018325Y022529D01*
X018281Y022557D01*
X018238Y022589D01*
X018198Y022623D01*
X018160Y022661D01*
X018126Y022701D01*
X018094Y022744D01*
X018066Y022789D01*
X018041Y022835D01*
X018020Y022884D01*
X018002Y022934D01*
X017989Y022985D01*
X017979Y023037D01*
X017973Y023090D01*
X017971Y023143D01*
X017971Y034143D02*
X017973Y034196D01*
X017979Y034249D01*
X017989Y034301D01*
X018002Y034352D01*
X018020Y034402D01*
X018041Y034451D01*
X018066Y034498D01*
X018094Y034542D01*
X018126Y034585D01*
X018160Y034625D01*
X018198Y034663D01*
X018238Y034697D01*
X018281Y034729D01*
X018326Y034757D01*
X018372Y034782D01*
X018421Y034803D01*
X018471Y034821D01*
X018522Y034834D01*
X018574Y034844D01*
X018627Y034850D01*
X018680Y034852D01*
X018733Y034850D01*
X018786Y034844D01*
X018838Y034834D01*
X018889Y034821D01*
X018939Y034803D01*
X018988Y034782D01*
X019035Y034757D01*
X019079Y034729D01*
X019122Y034697D01*
X019162Y034663D01*
X019200Y034625D01*
X019234Y034585D01*
X019266Y034542D01*
X019294Y034497D01*
X019319Y034451D01*
X019340Y034402D01*
X019358Y034352D01*
X019371Y034301D01*
X019381Y034249D01*
X019387Y034196D01*
X019389Y034143D01*
X019387Y034090D01*
X019381Y034037D01*
X019371Y033985D01*
X019358Y033934D01*
X019340Y033884D01*
X019319Y033835D01*
X019294Y033788D01*
X019266Y033744D01*
X019234Y033701D01*
X019200Y033661D01*
X019162Y033623D01*
X019122Y033589D01*
X019079Y033557D01*
X019034Y033529D01*
X018988Y033504D01*
X018939Y033483D01*
X018889Y033465D01*
X018838Y033452D01*
X018786Y033442D01*
X018733Y033436D01*
X018680Y033434D01*
X018627Y033436D01*
X018574Y033442D01*
X018522Y033452D01*
X018471Y033465D01*
X018421Y033483D01*
X018372Y033504D01*
X018325Y033529D01*
X018281Y033557D01*
X018238Y033589D01*
X018198Y033623D01*
X018160Y033661D01*
X018126Y033701D01*
X018094Y033744D01*
X018066Y033789D01*
X018041Y033835D01*
X018020Y033884D01*
X018002Y033934D01*
X017989Y033985D01*
X017979Y034037D01*
X017973Y034090D01*
X017971Y034143D01*
X001463Y036143D02*
X001465Y036196D01*
X001471Y036249D01*
X001481Y036301D01*
X001494Y036352D01*
X001512Y036402D01*
X001533Y036451D01*
X001558Y036498D01*
X001586Y036542D01*
X001618Y036585D01*
X001652Y036625D01*
X001690Y036663D01*
X001730Y036697D01*
X001773Y036729D01*
X001818Y036757D01*
X001864Y036782D01*
X001913Y036803D01*
X001963Y036821D01*
X002014Y036834D01*
X002066Y036844D01*
X002119Y036850D01*
X002172Y036852D01*
X002225Y036850D01*
X002278Y036844D01*
X002330Y036834D01*
X002381Y036821D01*
X002431Y036803D01*
X002480Y036782D01*
X002527Y036757D01*
X002571Y036729D01*
X002614Y036697D01*
X002654Y036663D01*
X002692Y036625D01*
X002726Y036585D01*
X002758Y036542D01*
X002786Y036497D01*
X002811Y036451D01*
X002832Y036402D01*
X002850Y036352D01*
X002863Y036301D01*
X002873Y036249D01*
X002879Y036196D01*
X002881Y036143D01*
X002879Y036090D01*
X002873Y036037D01*
X002863Y035985D01*
X002850Y035934D01*
X002832Y035884D01*
X002811Y035835D01*
X002786Y035788D01*
X002758Y035744D01*
X002726Y035701D01*
X002692Y035661D01*
X002654Y035623D01*
X002614Y035589D01*
X002571Y035557D01*
X002526Y035529D01*
X002480Y035504D01*
X002431Y035483D01*
X002381Y035465D01*
X002330Y035452D01*
X002278Y035442D01*
X002225Y035436D01*
X002172Y035434D01*
X002119Y035436D01*
X002066Y035442D01*
X002014Y035452D01*
X001963Y035465D01*
X001913Y035483D01*
X001864Y035504D01*
X001817Y035529D01*
X001773Y035557D01*
X001730Y035589D01*
X001690Y035623D01*
X001652Y035661D01*
X001618Y035701D01*
X001586Y035744D01*
X001558Y035789D01*
X001533Y035835D01*
X001512Y035884D01*
X001494Y035934D01*
X001481Y035985D01*
X001471Y036037D01*
X001465Y036090D01*
X001463Y036143D01*
X038471Y036143D02*
X038473Y036196D01*
X038479Y036249D01*
X038489Y036301D01*
X038502Y036352D01*
X038520Y036402D01*
X038541Y036451D01*
X038566Y036498D01*
X038594Y036542D01*
X038626Y036585D01*
X038660Y036625D01*
X038698Y036663D01*
X038738Y036697D01*
X038781Y036729D01*
X038826Y036757D01*
X038872Y036782D01*
X038921Y036803D01*
X038971Y036821D01*
X039022Y036834D01*
X039074Y036844D01*
X039127Y036850D01*
X039180Y036852D01*
X039233Y036850D01*
X039286Y036844D01*
X039338Y036834D01*
X039389Y036821D01*
X039439Y036803D01*
X039488Y036782D01*
X039535Y036757D01*
X039579Y036729D01*
X039622Y036697D01*
X039662Y036663D01*
X039700Y036625D01*
X039734Y036585D01*
X039766Y036542D01*
X039794Y036497D01*
X039819Y036451D01*
X039840Y036402D01*
X039858Y036352D01*
X039871Y036301D01*
X039881Y036249D01*
X039887Y036196D01*
X039889Y036143D01*
X039887Y036090D01*
X039881Y036037D01*
X039871Y035985D01*
X039858Y035934D01*
X039840Y035884D01*
X039819Y035835D01*
X039794Y035788D01*
X039766Y035744D01*
X039734Y035701D01*
X039700Y035661D01*
X039662Y035623D01*
X039622Y035589D01*
X039579Y035557D01*
X039534Y035529D01*
X039488Y035504D01*
X039439Y035483D01*
X039389Y035465D01*
X039338Y035452D01*
X039286Y035442D01*
X039233Y035436D01*
X039180Y035434D01*
X039127Y035436D01*
X039074Y035442D01*
X039022Y035452D01*
X038971Y035465D01*
X038921Y035483D01*
X038872Y035504D01*
X038825Y035529D01*
X038781Y035557D01*
X038738Y035589D01*
X038698Y035623D01*
X038660Y035661D01*
X038626Y035701D01*
X038594Y035744D01*
X038566Y035789D01*
X038541Y035835D01*
X038520Y035884D01*
X038502Y035934D01*
X038489Y035985D01*
X038479Y036037D01*
X038473Y036090D01*
X038471Y036143D01*
X037971Y017143D02*
X037973Y017196D01*
X037979Y017249D01*
X037989Y017301D01*
X038002Y017352D01*
X038020Y017402D01*
X038041Y017451D01*
X038066Y017498D01*
X038094Y017542D01*
X038126Y017585D01*
X038160Y017625D01*
X038198Y017663D01*
X038238Y017697D01*
X038281Y017729D01*
X038326Y017757D01*
X038372Y017782D01*
X038421Y017803D01*
X038471Y017821D01*
X038522Y017834D01*
X038574Y017844D01*
X038627Y017850D01*
X038680Y017852D01*
X038733Y017850D01*
X038786Y017844D01*
X038838Y017834D01*
X038889Y017821D01*
X038939Y017803D01*
X038988Y017782D01*
X039035Y017757D01*
X039079Y017729D01*
X039122Y017697D01*
X039162Y017663D01*
X039200Y017625D01*
X039234Y017585D01*
X039266Y017542D01*
X039294Y017497D01*
X039319Y017451D01*
X039340Y017402D01*
X039358Y017352D01*
X039371Y017301D01*
X039381Y017249D01*
X039387Y017196D01*
X039389Y017143D01*
X039387Y017090D01*
X039381Y017037D01*
X039371Y016985D01*
X039358Y016934D01*
X039340Y016884D01*
X039319Y016835D01*
X039294Y016788D01*
X039266Y016744D01*
X039234Y016701D01*
X039200Y016661D01*
X039162Y016623D01*
X039122Y016589D01*
X039079Y016557D01*
X039034Y016529D01*
X038988Y016504D01*
X038939Y016483D01*
X038889Y016465D01*
X038838Y016452D01*
X038786Y016442D01*
X038733Y016436D01*
X038680Y016434D01*
X038627Y016436D01*
X038574Y016442D01*
X038522Y016452D01*
X038471Y016465D01*
X038421Y016483D01*
X038372Y016504D01*
X038325Y016529D01*
X038281Y016557D01*
X038238Y016589D01*
X038198Y016623D01*
X038160Y016661D01*
X038126Y016701D01*
X038094Y016744D01*
X038066Y016789D01*
X038041Y016835D01*
X038020Y016884D01*
X038002Y016934D01*
X037989Y016985D01*
X037979Y017037D01*
X037973Y017090D01*
X037971Y017143D01*
X038471Y007403D02*
X038473Y007456D01*
X038479Y007509D01*
X038489Y007561D01*
X038502Y007612D01*
X038520Y007662D01*
X038541Y007711D01*
X038566Y007758D01*
X038594Y007802D01*
X038626Y007845D01*
X038660Y007885D01*
X038698Y007923D01*
X038738Y007957D01*
X038781Y007989D01*
X038826Y008017D01*
X038872Y008042D01*
X038921Y008063D01*
X038971Y008081D01*
X039022Y008094D01*
X039074Y008104D01*
X039127Y008110D01*
X039180Y008112D01*
X039233Y008110D01*
X039286Y008104D01*
X039338Y008094D01*
X039389Y008081D01*
X039439Y008063D01*
X039488Y008042D01*
X039535Y008017D01*
X039579Y007989D01*
X039622Y007957D01*
X039662Y007923D01*
X039700Y007885D01*
X039734Y007845D01*
X039766Y007802D01*
X039794Y007757D01*
X039819Y007711D01*
X039840Y007662D01*
X039858Y007612D01*
X039871Y007561D01*
X039881Y007509D01*
X039887Y007456D01*
X039889Y007403D01*
X039887Y007350D01*
X039881Y007297D01*
X039871Y007245D01*
X039858Y007194D01*
X039840Y007144D01*
X039819Y007095D01*
X039794Y007048D01*
X039766Y007004D01*
X039734Y006961D01*
X039700Y006921D01*
X039662Y006883D01*
X039622Y006849D01*
X039579Y006817D01*
X039534Y006789D01*
X039488Y006764D01*
X039439Y006743D01*
X039389Y006725D01*
X039338Y006712D01*
X039286Y006702D01*
X039233Y006696D01*
X039180Y006694D01*
X039127Y006696D01*
X039074Y006702D01*
X039022Y006712D01*
X038971Y006725D01*
X038921Y006743D01*
X038872Y006764D01*
X038825Y006789D01*
X038781Y006817D01*
X038738Y006849D01*
X038698Y006883D01*
X038660Y006921D01*
X038626Y006961D01*
X038594Y007004D01*
X038566Y007049D01*
X038541Y007095D01*
X038520Y007144D01*
X038502Y007194D01*
X038489Y007245D01*
X038479Y007297D01*
X038473Y007350D01*
X038471Y007403D01*
D11*
X039180Y007403D03*
X038680Y017143D03*
X018680Y023143D03*
X018680Y034143D03*
X002172Y036143D03*
X002172Y007403D03*
X039180Y036143D03*
D12*
X033680Y036143D03*
X032680Y036143D03*
X031680Y036143D03*
X030680Y036143D03*
X029680Y036143D03*
X028680Y036143D03*
X027680Y036143D03*
X024680Y036143D03*
X023680Y036143D03*
X022680Y036143D03*
X021680Y036143D03*
X020680Y036143D03*
X019680Y036143D03*
X016180Y036143D03*
X015180Y036143D03*
X013930Y033393D03*
X013930Y032393D03*
X013930Y031393D03*
X013930Y030393D03*
X013930Y029393D03*
X013930Y028393D03*
X013930Y027393D03*
X013930Y026393D03*
X013930Y025393D03*
X013930Y024393D03*
X013930Y023393D03*
X013930Y022393D03*
X013930Y021393D03*
X013930Y020393D03*
X013930Y019393D03*
X013930Y018393D03*
X013930Y017393D03*
X013930Y016393D03*
X014930Y016393D03*
X014930Y015393D03*
X014930Y014393D03*
X013930Y014393D03*
X013930Y013393D03*
X013930Y012393D03*
X013930Y011393D03*
X013930Y010393D03*
X010930Y010393D03*
X010930Y011393D03*
X010930Y012393D03*
X010930Y013393D03*
X010930Y014393D03*
X010930Y015393D03*
X010930Y016393D03*
X010930Y017393D03*
X010930Y018393D03*
X010930Y019393D03*
X010930Y020393D03*
X009930Y020393D03*
X008930Y020393D03*
X007930Y020393D03*
X006930Y020393D03*
X005930Y020393D03*
X004930Y020393D03*
X004930Y019393D03*
X004930Y018393D03*
X004930Y017393D03*
X004930Y016393D03*
X004930Y015393D03*
X004930Y014393D03*
X004930Y013393D03*
X004930Y012393D03*
X004930Y011393D03*
X004930Y010393D03*
X001930Y010393D03*
X001930Y011393D03*
X001930Y012393D03*
X001930Y013393D03*
X001930Y014393D03*
X001930Y015393D03*
X001930Y016393D03*
X001930Y017393D03*
X001930Y018393D03*
X001930Y019393D03*
X001930Y020393D03*
X001930Y021393D03*
X001930Y022393D03*
X001930Y023393D03*
X001930Y024393D03*
X001930Y025393D03*
X001930Y026393D03*
X001930Y027393D03*
X001930Y028393D03*
X001930Y029393D03*
X001930Y030393D03*
X001930Y031393D03*
X001930Y032393D03*
X001930Y033393D03*
X004930Y033393D03*
X004930Y032393D03*
X004930Y031393D03*
X004930Y030393D03*
X004930Y029393D03*
X004930Y028393D03*
X004930Y027393D03*
X004930Y026393D03*
X004930Y025393D03*
X004930Y024393D03*
X004930Y023393D03*
X004930Y022393D03*
X004930Y021393D03*
X010930Y021393D03*
X010930Y022393D03*
X010930Y023393D03*
X010930Y024393D03*
X010930Y025393D03*
X010930Y026393D03*
X010930Y027393D03*
X010930Y028393D03*
X010930Y029393D03*
X010930Y030393D03*
X010930Y031393D03*
X010930Y032393D03*
X010930Y033393D03*
X020680Y017143D03*
X021680Y017143D03*
X022680Y017143D03*
X023680Y017143D03*
X024680Y017143D03*
X025680Y017143D03*
X026680Y017143D03*
X028280Y017143D03*
X029280Y017143D03*
X030280Y017143D03*
X031280Y017143D03*
X032280Y017143D03*
X033280Y017143D03*
X034280Y017143D03*
X035280Y017143D03*
X036280Y017143D03*
X037280Y017143D03*
X036650Y020003D03*
X036650Y021783D03*
X039210Y021783D03*
X039210Y020003D03*
X013930Y015393D03*
D13*
X019680Y017143D03*
X026680Y036143D03*
D14*
X019680Y027143D03*
X019680Y026143D03*
X019680Y025143D03*
X018680Y025143D03*
X018680Y026143D03*
X018680Y027143D03*
D15*
X035786Y034143D03*
X036574Y034143D03*
X036430Y025037D03*
X036430Y024250D03*
D16*
X036576Y030143D03*
D17*
X037698Y032033D03*
X039036Y030143D03*
D18*
X038283Y025628D02*
X037578Y025628D01*
X037578Y023659D02*
X038283Y023659D01*
X008930Y007746D02*
X008930Y007041D01*
X006930Y007041D02*
X006930Y007746D01*
X004930Y007746D02*
X004930Y007041D01*
D19*
X007430Y017593D02*
X007430Y018193D01*
X008430Y018193D02*
X008430Y017593D01*
X022180Y031843D02*
X022180Y032443D01*
X023180Y032443D02*
X023180Y031843D01*
X024180Y031843D02*
X024180Y032443D01*
D20*
X027680Y032342D03*
X027680Y033444D03*
X008930Y029444D03*
X008930Y028342D03*
D21*
X016879Y031643D03*
X017981Y031643D03*
D22*
X026430Y031948D03*
X026430Y033838D03*
X031180Y033838D03*
X031180Y031948D03*
D23*
X033253Y034143D03*
X033607Y034143D03*
X008107Y035893D03*
X007753Y035893D03*
D24*
X025180Y033820D03*
X025180Y033466D03*
D25*
X030930Y029228D03*
X031930Y029228D03*
X031930Y028559D03*
X030930Y028559D03*
X029930Y027478D03*
X029930Y026809D03*
X029930Y025728D03*
X029930Y025059D03*
X033430Y028559D03*
X033430Y029228D03*
X034430Y029228D03*
X034430Y028559D03*
X035430Y027478D03*
X035430Y026809D03*
X035430Y025728D03*
X035430Y025059D03*
X031930Y030309D03*
X031930Y030978D03*
X016930Y015728D03*
X016930Y015059D03*
X006180Y014809D03*
X006180Y015478D03*
D26*
X015985Y029393D03*
X017875Y029393D03*
D27*
X027680Y029393D03*
X028930Y032393D03*
X027680Y025393D03*
X030467Y015224D03*
X031255Y015224D03*
X032042Y015224D03*
X032830Y015224D03*
X033617Y015224D03*
X034404Y015224D03*
X035192Y015224D03*
X035979Y015224D03*
X036767Y015224D03*
X037554Y015224D03*
X037554Y006563D03*
X036767Y006563D03*
X035979Y006563D03*
X035192Y006563D03*
X034404Y006563D03*
X033617Y006563D03*
X032830Y006563D03*
X032042Y006563D03*
X031255Y006563D03*
X030467Y006563D03*
D28*
X006930Y030614D03*
X006930Y033173D03*
D29*
X026680Y029393D03*
X026680Y028393D03*
X027680Y028393D03*
X026680Y025393D03*
X026680Y024393D03*
X027680Y024393D03*
X029930Y032393D03*
X029930Y033393D03*
X028930Y033393D03*
X028430Y011643D03*
X028430Y010643D03*
X028430Y009643D03*
X028430Y008643D03*
X027430Y008643D03*
X027430Y009643D03*
X027430Y010643D03*
X027430Y011643D03*
X030430Y011643D03*
X031430Y011643D03*
X031430Y010643D03*
X030430Y010643D03*
X032430Y010643D03*
X033430Y010643D03*
X034430Y010643D03*
X035430Y010643D03*
X036430Y010643D03*
X037430Y010643D03*
X038430Y010643D03*
X039430Y010643D03*
X039430Y011643D03*
X038430Y011643D03*
X037430Y011643D03*
X036430Y011643D03*
X035430Y011643D03*
X034430Y011643D03*
X033430Y011643D03*
X032430Y011643D03*
X028430Y007643D03*
X028430Y006643D03*
X027430Y006643D03*
X027430Y007643D03*
X020430Y007643D03*
X020430Y006643D03*
X019430Y006643D03*
X019430Y007643D03*
X019430Y008643D03*
X020430Y008643D03*
X020430Y009643D03*
X019430Y009643D03*
X019430Y010643D03*
X020430Y010643D03*
X020430Y011643D03*
X019430Y011643D03*
D30*
X008680Y014183D03*
X008180Y014183D03*
X007680Y014183D03*
X007180Y014183D03*
X007180Y016603D03*
X007680Y016603D03*
X008180Y016603D03*
X008680Y016603D03*
D31*
X008015Y012643D03*
X007345Y012643D03*
X007265Y011643D03*
X006595Y011643D03*
X008345Y011643D03*
X009015Y011643D03*
X016845Y017893D03*
X017515Y017893D03*
D32*
X017928Y019092D03*
X016924Y019092D03*
X016432Y019092D03*
X016432Y021194D03*
X016924Y021194D03*
X017436Y021194D03*
X017928Y021194D03*
D33*
X017436Y019200D03*
D34*
X017930Y012307D03*
X017930Y011480D03*
X016930Y011480D03*
X016930Y012307D03*
X015930Y012307D03*
X015930Y011480D03*
X015930Y009807D03*
X015930Y008980D03*
X016930Y008980D03*
X016930Y009807D03*
X017930Y009807D03*
X017930Y008980D03*
X017880Y007507D03*
X017880Y006680D03*
X016880Y006680D03*
X016880Y007507D03*
X015630Y007507D03*
X015630Y006680D03*
X014630Y006680D03*
X014630Y007507D03*
X013380Y007507D03*
X013380Y006680D03*
X012380Y006680D03*
X012380Y007507D03*
X011130Y007507D03*
X011130Y006680D03*
D35*
X032143Y025250D03*
X032143Y025446D03*
X032143Y025643D03*
X032143Y025840D03*
X032143Y026037D03*
X033717Y026037D03*
X033717Y025840D03*
X033717Y025643D03*
X033717Y025446D03*
X033717Y025250D03*
D36*
X033324Y024856D03*
X033127Y024856D03*
X032930Y024856D03*
X032733Y024856D03*
X032536Y024856D03*
X032536Y026431D03*
X032733Y026431D03*
X032930Y026431D03*
X033127Y026431D03*
X033324Y026431D03*
D37*
X032930Y025643D03*
D38*
X032574Y032693D03*
X034186Y032693D03*
D39*
X009130Y033249D03*
X009130Y031638D03*
M02*
