%
M48
M72
T01C0.0130
T02C0.0138
T03C0.0220
T04C0.0315
T05C0.0400
T06C0.0470
T07C0.1102
T08C0.1260
T09C0.1417
%
T01
X34680Y24893
X33680Y24643
X31680Y23643
X28430Y24143
X24680Y28893
X20180Y32393
X13430Y35143
X10430Y27893
X13180Y9143
X24105Y8668
X23930Y9643
X26080Y11693
X23930Y12393
X27930Y12393
X28180Y13893
X31930Y20893
X32655Y21468
X38180Y19393
X24580Y25893
X25630Y24393
X22680Y23093
X24880Y20843
X22130Y18693
X15930Y17643
X20730Y24243
X27430Y26643
X28630Y22643
X28380Y21393
X30930Y26643
X32930Y29893
X30930Y30643
X22180Y34143
X32180Y27143
X14680Y8393
X13680Y9643
X23680Y6393
X25930Y6393
X21430Y9643
X21180Y7393
X23930Y10393
X16180Y31143
X18930Y30893
X19180Y27643
X21430Y27893
X16805Y28568
X9430Y18643
X27180Y34643
X24430Y33143
X10430Y29893
X11430Y29893
X11430Y32893
X13430Y32893
X5430Y27893
X4430Y27893
X2430Y30893
X1430Y30893
X23680Y7668
X29105Y26168
X7130Y25093
X7330Y26493
X7430Y28193
X8830Y26493
X9730Y23193
X8030Y21343
X8530Y23793
X7330Y29593
X8030Y32893
X9630Y28893
X8030Y31493
X7230Y28993
X7730Y22443
X33705Y23218
X34805Y22193
X34055Y20293
X35655Y20068
X33780Y18893
X36955Y16068
X14880Y29968
X21155Y20893
X22480Y20168
X19755Y22793
X16005Y18993
X9955Y34068
X15580Y31693
X16455Y28043
X21155Y24393
X21355Y22593
X18355Y19518
X20005Y16443
X25355Y13193
X23455Y12993
X2605Y31418
X13405Y30068
X14430Y27943
X17480Y27168
X17480Y25243
X17305Y24643
X17555Y24143
X17455Y22618
X20955Y18968
X18780Y18418
X17880Y18418
X16205Y18418
X11280Y22893
X6880Y22768
X7980Y22768
X10155Y22868
X23055Y16393
X18005Y14268
X15530Y14268
X7705Y15968
X23655Y19493
X23655Y20993
X21430Y24993
X13155Y28893
X5555Y29293
X8330Y29293
X22930Y15293
X21905Y15293
X18655Y15293
X14955Y17943
X14755Y20693
X14755Y22193
X10455Y25768
X5280Y26893
X9730Y26193
X6230Y19368
X2705Y25893
X25455Y18668
X20880Y20193
X19730Y20193
X26080Y8193
X8255Y15793
X4330Y18893
X25230Y15568
X21630Y15568
X18005Y15568
X10080Y15893
X24180Y19368
X25355Y24993
X25805Y26868
X25805Y30043
X26955Y10368
X29180Y19443
X29655Y18818
X4580Y16893
X9505Y12893
X16580Y13618
X22180Y13518
X26230Y13568
X26955Y13568
X23080Y12993
X23930Y13843
X27230Y14718
X4255Y22668
X6480Y16293
X9555Y14893
X16580Y14543
X30255Y16118
X11705Y24893
X31255Y21568
X28705Y24618
X28705Y25368
X24205Y27868
X9755Y25468
X7230Y21893
X26755Y21118
X26105Y21368
X8980Y15443
X9880Y14168
X18005Y13443
X18855Y12593
X17880Y24468
X17205Y27968
X18730Y24368
X26855Y19943
X25455Y19943
X19155Y24068
X16830Y27468
X15030Y27668
X16880Y25568
X37280Y20693
X15305Y32518
X27330Y15818
X26955Y16193
X16805Y19793
X6780Y28018
X6730Y29018
X9730Y28418
X16280Y24118
X18530Y29918
X16305Y25318
X22580Y29243
X20155Y31668
X6130Y28993
X6780Y27568
X9730Y26568
X5830Y26293
X6930Y24393
X6830Y21593
X5730Y23843
X19905Y29918
X17830Y24893
X17280Y23893
X15830Y22918
X18855Y32318
X10330Y24268
X22780Y27393
X21705Y24693
X21705Y23318
X19930Y21543
X15830Y20493
X20280Y29918
X18105Y25868
X16580Y23893
X24105Y25993
X23580Y25193
X21105Y25193
X26380Y21068
X10005Y31168
X8930Y19468
X17055Y16218
X18230Y18143
X24830Y23768
X26130Y26468
X29530Y29243
X27930Y26893
X7180Y15968
X5530Y17618
X4155Y23893
X23880Y7193
X26405Y15268
X21805Y13893
X22830Y14918
X22805Y26318
X22030Y25018
X28880Y16118
X25355Y10993
X22805Y13393
X9630Y16068
X31755Y25168
X31755Y27718
X17930Y11018
X16930Y11018
X15930Y11018
X30630Y23443
X30180Y22393
X27930Y20143
X27430Y19643
X25630Y17843
X24655Y17843
X32305Y24218
X24930Y23393
X25680Y23393
X28930Y23643
X32930Y21143
X30980Y16118
X29505Y14993
X25805Y14118
X21305Y13168
X16330Y12718
X30480Y25293
X30155Y23943
X33430Y23893
X33280Y27093
X11130Y6218
X13330Y15593
X17130Y16668
X19730Y16168
X24905Y18393
X27680Y16943
X28180Y16443
X18455Y8993
X16930Y8518
X18905Y9743
X26230Y10093
X20130Y12093
X22980Y12093
X24080Y11243
X22930Y8143
X18905Y10743
X22755Y9343
X24205Y7893
X18405Y11093
X23705Y11093
X25680Y11893
X25680Y13568
X17405Y8518
X18905Y7168
X16330Y8118
X19880Y8093
X23080Y7668
X15830Y7993
X16430Y8518
X36930Y13393
T02
X32680Y25893
X32680Y25393
X33180Y25893
X33180Y25393
T03
X23455Y27318
X18405Y21043
X10355Y32793
X22805Y27893
X16930Y24218
X16930Y12843
X9080Y9518
X37605Y18318
X36955Y17943
X34755Y20143
X27455Y29968
X27180Y27643
X23705Y25793
X38155Y20243
X35905Y21043
X34930Y29968
X32530Y28568
X11780Y6693
X13980Y6693
X16280Y6668
X18480Y6693
X15105Y6268
X16230Y7168
X15930Y8443
T04
X36430Y25037
X36430Y24250
X30467Y15224
X31255Y15224
X32042Y15224
X32830Y15224
X33617Y15224
X34404Y15224
X35192Y15224
X35979Y15224
X36767Y15224
X37554Y15224
X30467Y6563
X31255Y6563
X32042Y6563
X32830Y6563
X33617Y6563
X34404Y6563
X35192Y6563
X35979Y6563
X36767Y6563
X37554Y6563
X36574Y34143
X35786Y34143
T05
X4930Y20393
X4930Y21393
X4930Y22393
X4930Y23393
X4930Y24393
X4930Y25393
X4930Y26393
X4930Y27393
X4930Y28393
X4930Y29393
X4930Y30393
X4930Y31393
X4930Y32393
X4930Y33393
X28280Y17143
X29280Y17143
X30280Y17143
X31280Y17143
X32280Y17143
X33280Y17143
X34280Y17143
X35280Y17143
X36280Y17143
X37280Y17143
X26680Y36143
X27680Y36143
X28680Y36143
X29680Y36143
X30680Y36143
X31680Y36143
X32680Y36143
X33680Y36143
X19680Y17143
X20680Y17143
X21680Y17143
X22680Y17143
X23680Y17143
X24680Y17143
X25680Y17143
X26680Y17143
X19680Y36143
X20680Y36143
X21680Y36143
X22680Y36143
X23680Y36143
X24680Y36143
X19680Y25143
X18680Y25143
X19680Y26143
X18680Y26143
X19680Y27143
X18680Y27143
X24180Y32143
X23180Y32143
X22180Y32143
X39210Y20003
X36650Y20003
X39210Y21783
X36650Y21783
X14930Y16393
X14930Y15393
X14930Y14393
X16180Y36143
X15180Y36143
X9930Y20393
X8930Y20393
X7930Y20393
X6930Y20393
X5930Y20393
X4930Y10393
X4930Y11393
X4930Y12393
X4930Y13393
X4930Y14393
X4930Y15393
X4930Y16393
X4930Y17393
X4930Y18393
X4930Y19393
X10930Y20393
X10930Y21393
X10930Y22393
X10930Y23393
X10930Y24393
X10930Y25393
X10930Y26393
X10930Y27393
X10930Y28393
X10930Y29393
X10930Y30393
X10930Y31393
X10930Y32393
X10930Y33393
X10930Y10393
X10930Y11393
X10930Y12393
X10930Y13393
X10930Y14393
X10930Y15393
X10930Y16393
X10930Y17393
X10930Y18393
X10930Y19393
X1930Y10393
X1930Y11393
X1930Y12393
X1930Y13393
X1930Y14393
X1930Y15393
X1930Y16393
X1930Y17393
X1930Y18393
X1930Y19393
X1930Y20393
X1930Y21393
X1930Y22393
X1930Y23393
X1930Y24393
X1930Y25393
X1930Y26393
X1930Y27393
X1930Y28393
X1930Y29393
X1930Y30393
X1930Y31393
X1930Y32393
X1930Y33393
X13930Y10393
X13930Y11393
X13930Y12393
X13930Y13393
X13930Y14393
X13930Y15393
X13930Y16393
X13930Y17393
X13930Y18393
X13930Y19393
X13930Y20393
X13930Y21393
X13930Y22393
X13930Y23393
X13930Y24393
X13930Y25393
X13930Y26393
X13930Y27393
X13930Y28393
X13930Y29393
X13930Y30393
X13930Y31393
X13930Y32393
X13930Y33393
X20430Y6643
X19430Y6643
X20430Y7643
X19430Y7643
X20430Y8643
X19430Y8643
X20430Y9643
X19430Y9643
X20430Y10643
X19430Y10643
X20430Y11643
X19430Y11643
X28430Y6643
X27430Y6643
X28430Y7643
X27430Y7643
X28430Y8643
X27430Y8643
X28430Y9643
X27430Y9643
X28430Y10643
X27430Y10643
X28430Y11643
X27430Y11643
X7430Y17893
X8430Y17893
X28930Y32393
X29930Y32393
X28930Y33393
X29930Y33393
X27680Y29393
X26680Y29393
X27680Y28393
X26680Y28393
X27680Y25393
X26680Y25393
X27680Y24393
X26680Y24393
X39430Y11643
X38430Y11643
X37430Y11643
X36430Y11643
X35430Y11643
X34430Y11643
X39430Y10643
X38430Y10643
X37430Y10643
X36430Y10643
X35430Y10643
X34430Y10643
X33430Y11643
X32430Y11643
X33430Y10643
X32430Y10643
X31430Y11643
X31430Y10643
X30430Y11643
X30430Y10643
T06
X37930Y23659
X37930Y25628
X4930Y7393
X6930Y7393
X8930Y7393
T07
X39036Y30143
X37698Y32033
T08
X36576Y30143
T09
X38680Y17143
X18680Y23143
X18680Y34143
X39180Y7403
X2172Y36143
X2172Y7403
X39180Y36143
M30
