G75*
G70*
%OFA0B0*%
%FSLAX24Y24*%
%IPPOS*%
%LPD*%
%AMOC8*
5,1,8,0,0,1.08239X$1,22.5*
%
%ADD10C,0.0000*%
%ADD11C,0.0740*%
%ADD12R,0.0740X0.0740*%
%ADD13OC8,0.0740*%
%ADD14R,0.0512X0.0591*%
%ADD15C,0.0560*%
%ADD16C,0.1660*%
%ADD17C,0.1502*%
%ADD18C,0.0705*%
%ADD19C,0.0600*%
%ADD20R,0.0984X0.0669*%
%ADD21R,0.1100X0.0900*%
%ADD22R,0.0579X0.0697*%
%ADD23R,0.0500X0.0250*%
%ADD24R,0.1095X0.1095*%
%ADD25R,0.3000X0.3000*%
%ADD26C,0.0660*%
%ADD27R,0.0591X0.0512*%
%ADD28C,0.0240*%
%ADD29OC8,0.0356*%
%ADD30C,0.0100*%
%ADD31C,0.0080*%
D10*
X000500Y000100D02*
X000500Y022096D01*
X039870Y022096D01*
X039870Y000100D01*
X000500Y000100D01*
X011291Y001600D02*
X011293Y001653D01*
X011299Y001706D01*
X011309Y001758D01*
X011322Y001809D01*
X011340Y001859D01*
X011361Y001908D01*
X011386Y001955D01*
X011414Y001999D01*
X011446Y002042D01*
X011480Y002082D01*
X011518Y002120D01*
X011558Y002154D01*
X011601Y002186D01*
X011646Y002214D01*
X011692Y002239D01*
X011741Y002260D01*
X011791Y002278D01*
X011842Y002291D01*
X011894Y002301D01*
X011947Y002307D01*
X012000Y002309D01*
X012053Y002307D01*
X012106Y002301D01*
X012158Y002291D01*
X012209Y002278D01*
X012259Y002260D01*
X012308Y002239D01*
X012355Y002214D01*
X012399Y002186D01*
X012442Y002154D01*
X012482Y002120D01*
X012520Y002082D01*
X012554Y002042D01*
X012586Y001999D01*
X012614Y001954D01*
X012639Y001908D01*
X012660Y001859D01*
X012678Y001809D01*
X012691Y001758D01*
X012701Y001706D01*
X012707Y001653D01*
X012709Y001600D01*
X012707Y001547D01*
X012701Y001494D01*
X012691Y001442D01*
X012678Y001391D01*
X012660Y001341D01*
X012639Y001292D01*
X012614Y001245D01*
X012586Y001201D01*
X012554Y001158D01*
X012520Y001118D01*
X012482Y001080D01*
X012442Y001046D01*
X012399Y001014D01*
X012354Y000986D01*
X012308Y000961D01*
X012259Y000940D01*
X012209Y000922D01*
X012158Y000909D01*
X012106Y000899D01*
X012053Y000893D01*
X012000Y000891D01*
X011947Y000893D01*
X011894Y000899D01*
X011842Y000909D01*
X011791Y000922D01*
X011741Y000940D01*
X011692Y000961D01*
X011645Y000986D01*
X011601Y001014D01*
X011558Y001046D01*
X011518Y001080D01*
X011480Y001118D01*
X011446Y001158D01*
X011414Y001201D01*
X011386Y001246D01*
X011361Y001292D01*
X011340Y001341D01*
X011322Y001391D01*
X011309Y001442D01*
X011299Y001494D01*
X011293Y001547D01*
X011291Y001600D01*
X031791Y003600D02*
X031793Y003653D01*
X031799Y003706D01*
X031809Y003758D01*
X031822Y003809D01*
X031840Y003859D01*
X031861Y003908D01*
X031886Y003955D01*
X031914Y003999D01*
X031946Y004042D01*
X031980Y004082D01*
X032018Y004120D01*
X032058Y004154D01*
X032101Y004186D01*
X032146Y004214D01*
X032192Y004239D01*
X032241Y004260D01*
X032291Y004278D01*
X032342Y004291D01*
X032394Y004301D01*
X032447Y004307D01*
X032500Y004309D01*
X032553Y004307D01*
X032606Y004301D01*
X032658Y004291D01*
X032709Y004278D01*
X032759Y004260D01*
X032808Y004239D01*
X032855Y004214D01*
X032899Y004186D01*
X032942Y004154D01*
X032982Y004120D01*
X033020Y004082D01*
X033054Y004042D01*
X033086Y003999D01*
X033114Y003954D01*
X033139Y003908D01*
X033160Y003859D01*
X033178Y003809D01*
X033191Y003758D01*
X033201Y003706D01*
X033207Y003653D01*
X033209Y003600D01*
X033207Y003547D01*
X033201Y003494D01*
X033191Y003442D01*
X033178Y003391D01*
X033160Y003341D01*
X033139Y003292D01*
X033114Y003245D01*
X033086Y003201D01*
X033054Y003158D01*
X033020Y003118D01*
X032982Y003080D01*
X032942Y003046D01*
X032899Y003014D01*
X032854Y002986D01*
X032808Y002961D01*
X032759Y002940D01*
X032709Y002922D01*
X032658Y002909D01*
X032606Y002899D01*
X032553Y002893D01*
X032500Y002891D01*
X032447Y002893D01*
X032394Y002899D01*
X032342Y002909D01*
X032291Y002922D01*
X032241Y002940D01*
X032192Y002961D01*
X032145Y002986D01*
X032101Y003014D01*
X032058Y003046D01*
X032018Y003080D01*
X031980Y003118D01*
X031946Y003158D01*
X031914Y003201D01*
X031886Y003246D01*
X031861Y003292D01*
X031840Y003341D01*
X031822Y003391D01*
X031809Y003442D01*
X031799Y003494D01*
X031793Y003547D01*
X031791Y003600D01*
X031791Y014600D02*
X031793Y014653D01*
X031799Y014706D01*
X031809Y014758D01*
X031822Y014809D01*
X031840Y014859D01*
X031861Y014908D01*
X031886Y014955D01*
X031914Y014999D01*
X031946Y015042D01*
X031980Y015082D01*
X032018Y015120D01*
X032058Y015154D01*
X032101Y015186D01*
X032146Y015214D01*
X032192Y015239D01*
X032241Y015260D01*
X032291Y015278D01*
X032342Y015291D01*
X032394Y015301D01*
X032447Y015307D01*
X032500Y015309D01*
X032553Y015307D01*
X032606Y015301D01*
X032658Y015291D01*
X032709Y015278D01*
X032759Y015260D01*
X032808Y015239D01*
X032855Y015214D01*
X032899Y015186D01*
X032942Y015154D01*
X032982Y015120D01*
X033020Y015082D01*
X033054Y015042D01*
X033086Y014999D01*
X033114Y014954D01*
X033139Y014908D01*
X033160Y014859D01*
X033178Y014809D01*
X033191Y014758D01*
X033201Y014706D01*
X033207Y014653D01*
X033209Y014600D01*
X033207Y014547D01*
X033201Y014494D01*
X033191Y014442D01*
X033178Y014391D01*
X033160Y014341D01*
X033139Y014292D01*
X033114Y014245D01*
X033086Y014201D01*
X033054Y014158D01*
X033020Y014118D01*
X032982Y014080D01*
X032942Y014046D01*
X032899Y014014D01*
X032854Y013986D01*
X032808Y013961D01*
X032759Y013940D01*
X032709Y013922D01*
X032658Y013909D01*
X032606Y013899D01*
X032553Y013893D01*
X032500Y013891D01*
X032447Y013893D01*
X032394Y013899D01*
X032342Y013909D01*
X032291Y013922D01*
X032241Y013940D01*
X032192Y013961D01*
X032145Y013986D01*
X032101Y014014D01*
X032058Y014046D01*
X032018Y014080D01*
X031980Y014118D01*
X031946Y014158D01*
X031914Y014201D01*
X031886Y014246D01*
X031861Y014292D01*
X031840Y014341D01*
X031822Y014391D01*
X031809Y014442D01*
X031799Y014494D01*
X031793Y014547D01*
X031791Y014600D01*
X011791Y020600D02*
X011793Y020653D01*
X011799Y020706D01*
X011809Y020758D01*
X011822Y020809D01*
X011840Y020859D01*
X011861Y020908D01*
X011886Y020955D01*
X011914Y020999D01*
X011946Y021042D01*
X011980Y021082D01*
X012018Y021120D01*
X012058Y021154D01*
X012101Y021186D01*
X012146Y021214D01*
X012192Y021239D01*
X012241Y021260D01*
X012291Y021278D01*
X012342Y021291D01*
X012394Y021301D01*
X012447Y021307D01*
X012500Y021309D01*
X012553Y021307D01*
X012606Y021301D01*
X012658Y021291D01*
X012709Y021278D01*
X012759Y021260D01*
X012808Y021239D01*
X012855Y021214D01*
X012899Y021186D01*
X012942Y021154D01*
X012982Y021120D01*
X013020Y021082D01*
X013054Y021042D01*
X013086Y020999D01*
X013114Y020954D01*
X013139Y020908D01*
X013160Y020859D01*
X013178Y020809D01*
X013191Y020758D01*
X013201Y020706D01*
X013207Y020653D01*
X013209Y020600D01*
X013207Y020547D01*
X013201Y020494D01*
X013191Y020442D01*
X013178Y020391D01*
X013160Y020341D01*
X013139Y020292D01*
X013114Y020245D01*
X013086Y020201D01*
X013054Y020158D01*
X013020Y020118D01*
X012982Y020080D01*
X012942Y020046D01*
X012899Y020014D01*
X012854Y019986D01*
X012808Y019961D01*
X012759Y019940D01*
X012709Y019922D01*
X012658Y019909D01*
X012606Y019899D01*
X012553Y019893D01*
X012500Y019891D01*
X012447Y019893D01*
X012394Y019899D01*
X012342Y019909D01*
X012291Y019922D01*
X012241Y019940D01*
X012192Y019961D01*
X012145Y019986D01*
X012101Y020014D01*
X012058Y020046D01*
X012018Y020080D01*
X011980Y020118D01*
X011946Y020158D01*
X011914Y020201D01*
X011886Y020246D01*
X011861Y020292D01*
X011840Y020341D01*
X011822Y020391D01*
X011809Y020442D01*
X011799Y020494D01*
X011793Y020547D01*
X011791Y020600D01*
D11*
X013900Y020600D03*
X014900Y020600D03*
X015900Y020600D03*
X016900Y020600D03*
X017900Y020600D03*
X018900Y020600D03*
X019900Y020600D03*
X020900Y020600D03*
X021900Y020600D03*
X022900Y020600D03*
X024500Y020600D03*
X025500Y020600D03*
X026500Y020600D03*
X027500Y020600D03*
X028500Y020600D03*
X029500Y020600D03*
X030500Y020600D03*
X029500Y010600D03*
X028500Y010600D03*
X027500Y010600D03*
X026500Y010600D03*
X025500Y010600D03*
X024500Y010600D03*
X023500Y010600D03*
X022500Y010600D03*
X021500Y010600D03*
X020500Y010600D03*
X019500Y010600D03*
X018500Y010600D03*
X017500Y010600D03*
X016500Y010600D03*
X015500Y010600D03*
X014500Y010600D03*
X013500Y010600D03*
X012500Y010600D03*
X011500Y010600D03*
X010500Y010600D03*
X009500Y010600D03*
X008500Y010600D03*
X007500Y010600D03*
X006500Y010600D03*
X002500Y010100D03*
X002500Y009100D03*
X002500Y011100D03*
X006500Y004600D03*
X007500Y004600D03*
X008500Y004600D03*
X009500Y004600D03*
X010500Y004600D03*
X011500Y004600D03*
X012500Y004600D03*
X013500Y004600D03*
X014500Y004600D03*
X015500Y004600D03*
X016500Y004600D03*
X017500Y004600D03*
X018500Y004600D03*
X019500Y004600D03*
X020500Y004600D03*
X021500Y004600D03*
X022500Y004600D03*
X023500Y004600D03*
X024500Y004600D03*
X025500Y004600D03*
X026500Y004600D03*
X027500Y004600D03*
X028500Y004600D03*
X029500Y004600D03*
X029500Y001600D03*
X030500Y001600D03*
X031500Y001600D03*
X028500Y001600D03*
X027500Y001600D03*
X026500Y001600D03*
X022500Y001600D03*
X021500Y001600D03*
X020500Y001600D03*
X019500Y001600D03*
X018500Y001600D03*
X017500Y001600D03*
X016500Y001600D03*
X014500Y001600D03*
X014500Y002600D03*
X006750Y002100D03*
X005750Y002100D03*
X004750Y002100D03*
X002890Y003380D03*
X001110Y003380D03*
X001110Y000820D03*
X002890Y000820D03*
D12*
X023500Y001600D03*
X031500Y020600D03*
D13*
X031500Y012600D03*
X032500Y012600D03*
X032500Y011600D03*
X031500Y011600D03*
X031500Y010600D03*
X032500Y010600D03*
D14*
X013874Y018100D03*
X013126Y018100D03*
X013126Y019100D03*
X013874Y019100D03*
D15*
X009894Y019100D03*
X009106Y019100D03*
D16*
X005854Y019600D03*
D17*
X003394Y019600D03*
X004732Y017710D03*
D18*
X003603Y015584D02*
X002898Y015584D01*
X002898Y013616D02*
X003603Y013616D01*
D19*
X012700Y013600D02*
X013300Y013600D01*
X013300Y014600D02*
X012700Y014600D01*
X012700Y015600D02*
X013300Y015600D01*
D20*
X010500Y015852D03*
X010500Y017348D03*
X010500Y013348D03*
X010500Y011852D03*
D21*
X009000Y011794D03*
X009000Y013406D03*
D22*
X009000Y015655D03*
X009000Y017545D03*
D23*
X007750Y012027D03*
X007750Y011673D03*
X011750Y011673D03*
X011750Y012027D03*
D24*
G36*
X034412Y019665D02*
X033639Y020438D01*
X034412Y021211D01*
X035185Y020438D01*
X034412Y019665D01*
G37*
G36*
X038088Y015989D02*
X037315Y016762D01*
X038088Y017535D01*
X038861Y016762D01*
X038088Y015989D01*
G37*
D25*
G36*
X036250Y016479D02*
X034129Y018600D01*
X036250Y020721D01*
X038371Y018600D01*
X036250Y016479D01*
G37*
D26*
X037500Y014600D03*
X038500Y014600D03*
X038500Y013600D03*
X037500Y013600D03*
X037500Y012600D03*
X038500Y012600D03*
X038500Y011600D03*
X037500Y011600D03*
X037500Y010600D03*
X038500Y010600D03*
X038500Y009600D03*
X037500Y009600D03*
X037500Y008600D03*
X038500Y008600D03*
X038500Y007600D03*
X037500Y007600D03*
X037500Y006600D03*
X038500Y006600D03*
X038500Y005600D03*
X037500Y005600D03*
X037500Y004600D03*
X038500Y004600D03*
X038500Y003600D03*
X037500Y003600D03*
X037500Y002600D03*
X038500Y002600D03*
D27*
X010250Y002724D03*
X010250Y001976D03*
D28*
X010250Y000850D01*
X010500Y000600D01*
X014500Y000600D01*
X014500Y001600D01*
X014500Y002600D02*
X019500Y002600D01*
X020500Y001600D01*
X019500Y001600D02*
X019500Y000600D01*
X035000Y000600D01*
X019500Y000600D02*
X017500Y000600D01*
X014500Y000600D01*
X017500Y000600D02*
X017500Y001600D01*
X008000Y000600D02*
X004500Y000600D01*
X004000Y001100D01*
X004000Y010600D01*
X003500Y011100D01*
X002500Y011100D01*
X006000Y012100D02*
X006000Y014600D01*
X007500Y013600D02*
X007500Y016100D01*
X008000Y016600D01*
X009752Y016600D01*
X010500Y015852D01*
X010500Y016100D02*
X011750Y014850D01*
X012500Y015600D01*
X013000Y015600D01*
X014000Y016100D02*
X011750Y018350D01*
X012500Y019100D01*
X013126Y019100D01*
X013126Y018100D01*
X011750Y018350D02*
X011000Y019100D01*
X011000Y021600D01*
X009106Y019100D02*
X009106Y017651D01*
X009000Y017545D01*
X010303Y017545D01*
X010500Y017348D01*
X009000Y015655D02*
X009000Y013406D01*
X008694Y013100D01*
X008000Y013100D01*
X007750Y012850D01*
X007750Y012027D01*
X007073Y012027D01*
X006500Y012600D01*
X006000Y012100D02*
X006427Y011673D01*
X007750Y011673D01*
X008878Y011673D01*
X009000Y011794D01*
X010500Y011852D02*
X010752Y011600D01*
X012500Y011600D01*
X013000Y012100D01*
X013000Y013600D01*
X013500Y013600D01*
X014000Y014100D01*
X014000Y016100D01*
X011750Y014850D02*
X011750Y012027D01*
X011750Y011673D02*
X010679Y011673D01*
X010500Y011852D01*
D29*
X013500Y012100D03*
X014500Y013100D03*
X015500Y013600D03*
X015000Y014100D03*
X015000Y016600D03*
X018000Y017100D03*
X019000Y017600D03*
X020000Y016600D03*
X021500Y018350D03*
X022500Y019100D03*
X015500Y019100D03*
X014500Y018600D03*
X012000Y019600D03*
X011000Y021600D03*
X007500Y018100D03*
X012000Y017100D03*
X007500Y013600D03*
X006000Y014600D03*
X006500Y012600D03*
X009000Y008850D03*
X009500Y008100D03*
X010500Y008600D03*
X008250Y007600D03*
X007250Y007100D03*
X008500Y006100D03*
X007500Y005600D03*
X005250Y004350D03*
X009500Y002100D03*
X008500Y001600D03*
X008000Y000600D03*
X011500Y003600D03*
X015500Y003100D03*
X015500Y001350D03*
X023500Y005600D03*
X023000Y006100D03*
X024000Y005100D03*
X025500Y005600D03*
X026500Y006100D03*
X031250Y004100D03*
X034500Y005600D03*
X034500Y006100D03*
X035500Y004100D03*
X035000Y000600D03*
X036000Y000600D03*
X024500Y001600D03*
X034500Y008100D03*
X034500Y008600D03*
X030500Y010600D03*
X030250Y014100D03*
X034500Y015100D03*
X033000Y016600D03*
X032000Y017100D03*
X032500Y017600D03*
X005500Y008600D03*
D30*
X006290Y008571D02*
X004290Y008571D01*
X004290Y008473D02*
X006290Y008473D01*
X006290Y008374D02*
X004290Y008374D01*
X004290Y008276D02*
X006290Y008276D01*
X006290Y008177D02*
X004290Y008177D01*
X004290Y008079D02*
X006290Y008079D01*
X006290Y007980D02*
X004290Y007980D01*
X004290Y007882D02*
X006290Y007882D01*
X006290Y007783D02*
X004290Y007783D01*
X004290Y007685D02*
X006290Y007685D01*
X006290Y007586D02*
X004290Y007586D01*
X004290Y007488D02*
X006290Y007488D01*
X006290Y007389D02*
X004290Y007389D01*
X004290Y007291D02*
X006290Y007291D01*
X006290Y007192D02*
X004290Y007192D01*
X004290Y007094D02*
X006290Y007094D01*
X006290Y007013D02*
X006413Y006890D01*
X006913Y006390D01*
X008298Y006390D01*
X008152Y006244D01*
X008152Y005956D01*
X008298Y005810D01*
X007782Y005810D01*
X007644Y005948D01*
X007356Y005948D01*
X007152Y005744D01*
X007152Y005456D01*
X007298Y005310D01*
X006913Y005310D01*
X006703Y005100D01*
X006607Y005140D01*
X006393Y005140D01*
X006194Y005058D01*
X006042Y004906D01*
X005960Y004707D01*
X005960Y004493D01*
X006042Y004294D01*
X006194Y004142D01*
X006393Y004060D01*
X006607Y004060D01*
X006806Y004142D01*
X006958Y004294D01*
X007000Y004396D01*
X007042Y004294D01*
X007194Y004142D01*
X007393Y004060D01*
X007607Y004060D01*
X007806Y004142D01*
X007958Y004294D01*
X008000Y004396D01*
X008042Y004294D01*
X008194Y004142D01*
X008393Y004060D01*
X008607Y004060D01*
X008806Y004142D01*
X008958Y004294D01*
X009000Y004396D01*
X009042Y004294D01*
X009194Y004142D01*
X009393Y004060D01*
X009607Y004060D01*
X009806Y004142D01*
X009958Y004294D01*
X010000Y004396D01*
X010042Y004294D01*
X010194Y004142D01*
X010393Y004060D01*
X010607Y004060D01*
X010806Y004142D01*
X010958Y004294D01*
X011000Y004396D01*
X011042Y004294D01*
X011194Y004142D01*
X011393Y004060D01*
X011607Y004060D01*
X011806Y004142D01*
X011958Y004294D01*
X012000Y004396D01*
X012042Y004294D01*
X012194Y004142D01*
X012393Y004060D01*
X012607Y004060D01*
X012806Y004142D01*
X012958Y004294D01*
X013000Y004396D01*
X013042Y004294D01*
X013194Y004142D01*
X013393Y004060D01*
X013607Y004060D01*
X013703Y004100D01*
X014290Y003513D01*
X014413Y003390D01*
X017413Y003390D01*
X017790Y003013D01*
X017913Y002890D01*
X024913Y002890D01*
X025290Y002513D01*
X025290Y001513D01*
X025790Y001013D01*
X025913Y000890D01*
X034798Y000890D01*
X034798Y000890D01*
X019790Y000890D01*
X019790Y001136D01*
X019806Y001142D01*
X019958Y001294D01*
X020000Y001396D01*
X020042Y001294D01*
X020194Y001142D01*
X020393Y001060D01*
X020607Y001060D01*
X020806Y001142D01*
X020958Y001294D01*
X021011Y001422D01*
X021018Y001400D01*
X021055Y001327D01*
X021103Y001261D01*
X021161Y001203D01*
X021227Y001155D01*
X021300Y001118D01*
X021378Y001093D01*
X021450Y001081D01*
X021450Y001550D01*
X021550Y001550D01*
X021550Y001650D01*
X022019Y001650D01*
X022450Y001650D01*
X022450Y002119D01*
X022378Y002107D01*
X022300Y002082D01*
X022227Y002045D01*
X022161Y001997D01*
X022103Y001939D01*
X022055Y001873D01*
X022018Y001800D01*
X022000Y001744D01*
X021982Y001800D01*
X021945Y001873D01*
X021897Y001939D01*
X021839Y001997D01*
X021773Y002045D01*
X021700Y002082D01*
X021622Y002107D01*
X021550Y002119D01*
X021550Y001650D01*
X021450Y001650D01*
X021450Y002119D01*
X021378Y002107D01*
X021300Y002082D01*
X021227Y002045D01*
X021161Y001997D01*
X021103Y001939D01*
X021055Y001873D01*
X021018Y001800D01*
X021011Y001778D01*
X020958Y001906D01*
X020806Y002058D01*
X020607Y002140D01*
X020393Y002140D01*
X020377Y002133D01*
X019746Y002764D01*
X019664Y002846D01*
X019558Y002890D01*
X014964Y002890D01*
X014958Y002906D01*
X014806Y003058D01*
X014607Y003140D01*
X014393Y003140D01*
X014194Y003058D01*
X014042Y002906D01*
X013960Y002707D01*
X013960Y002493D01*
X014042Y002294D01*
X014194Y002142D01*
X014296Y002100D01*
X014194Y002058D01*
X014042Y001906D01*
X013960Y001707D01*
X013960Y001493D01*
X014042Y001294D01*
X014194Y001142D01*
X014210Y001136D01*
X014210Y000890D01*
X012533Y000890D01*
X012745Y001102D01*
X012879Y001425D01*
X012879Y001775D01*
X012745Y002098D01*
X012498Y002345D01*
X012175Y002479D01*
X011825Y002479D01*
X011502Y002345D01*
X011255Y002098D01*
X011121Y001775D01*
X011121Y001425D01*
X011255Y001102D01*
X011467Y000890D01*
X010620Y000890D01*
X010540Y000970D01*
X010540Y001550D01*
X010616Y001550D01*
X010715Y001650D01*
X010715Y002302D01*
X010668Y002350D01*
X010715Y002398D01*
X010715Y003050D01*
X010616Y003150D01*
X009884Y003150D01*
X009785Y003050D01*
X009785Y002934D01*
X009537Y002934D01*
X009413Y002810D01*
X009290Y002687D01*
X009290Y002382D01*
X009152Y002244D01*
X009152Y001956D01*
X009356Y001752D01*
X009644Y001752D01*
X009785Y001892D01*
X009785Y001650D01*
X009884Y001550D01*
X009960Y001550D01*
X009960Y000792D01*
X010004Y000686D01*
X010336Y000354D01*
X010346Y000350D01*
X008242Y000350D01*
X008348Y000456D01*
X008348Y000744D01*
X008144Y000948D01*
X007856Y000948D01*
X007798Y000890D01*
X004620Y000890D01*
X004290Y001220D01*
X004290Y001799D01*
X004292Y001794D01*
X004444Y001642D01*
X004643Y001560D01*
X004857Y001560D01*
X005056Y001642D01*
X005208Y001794D01*
X005250Y001896D01*
X005292Y001794D01*
X005444Y001642D01*
X005643Y001560D01*
X005857Y001560D01*
X006056Y001642D01*
X006208Y001794D01*
X006250Y001896D01*
X006292Y001794D01*
X006444Y001642D01*
X006643Y001560D01*
X006857Y001560D01*
X007056Y001642D01*
X007208Y001794D01*
X007290Y001993D01*
X007290Y002207D01*
X007208Y002406D01*
X007056Y002558D01*
X006857Y002640D01*
X006643Y002640D01*
X006444Y002558D01*
X006292Y002406D01*
X006250Y002304D01*
X006208Y002406D01*
X006056Y002558D01*
X005857Y002640D01*
X005643Y002640D01*
X005444Y002558D01*
X005292Y002406D01*
X005250Y002304D01*
X005208Y002406D01*
X005056Y002558D01*
X004857Y002640D01*
X004643Y002640D01*
X004444Y002558D01*
X004292Y002406D01*
X004290Y002401D01*
X004290Y010658D01*
X004246Y010764D01*
X004164Y010846D01*
X003664Y011346D01*
X003558Y011390D01*
X002964Y011390D01*
X002958Y011406D01*
X002806Y011558D01*
X002607Y011640D01*
X002393Y011640D01*
X002194Y011558D01*
X002042Y011406D01*
X001960Y011207D01*
X001960Y010993D01*
X002042Y010794D01*
X002194Y010642D01*
X002296Y010600D01*
X002194Y010558D01*
X002042Y010406D01*
X001960Y010207D01*
X001960Y009993D01*
X002042Y009794D01*
X002194Y009642D01*
X002296Y009600D01*
X002194Y009558D01*
X002042Y009406D01*
X001960Y009207D01*
X001960Y008993D01*
X002042Y008794D01*
X002194Y008642D01*
X002393Y008560D01*
X002607Y008560D01*
X002806Y008642D01*
X002958Y008794D01*
X003040Y008993D01*
X003040Y009207D01*
X002958Y009406D01*
X002806Y009558D01*
X002704Y009600D01*
X002806Y009642D01*
X002958Y009794D01*
X003040Y009993D01*
X003040Y010207D01*
X002958Y010406D01*
X002806Y010558D01*
X002704Y010600D01*
X002806Y010642D01*
X002958Y010794D01*
X002964Y010810D01*
X003380Y010810D01*
X003710Y010480D01*
X003710Y001042D01*
X003754Y000936D01*
X004254Y000436D01*
X004336Y000354D01*
X004346Y000350D01*
X003166Y000350D01*
X003196Y000362D01*
X003348Y000514D01*
X003430Y000713D01*
X003430Y000927D01*
X003348Y001126D01*
X003196Y001278D01*
X002997Y001360D01*
X002783Y001360D01*
X002584Y001278D01*
X002432Y001126D01*
X002350Y000927D01*
X002350Y000713D01*
X002432Y000514D01*
X002584Y000362D01*
X002614Y000350D01*
X001333Y000350D01*
X001383Y000375D01*
X001449Y000423D01*
X001507Y000481D01*
X001555Y000547D01*
X001592Y000620D01*
X001617Y000698D01*
X001629Y000770D01*
X001160Y000770D01*
X001160Y000870D01*
X001060Y000870D01*
X001060Y001339D01*
X000988Y001327D01*
X000910Y001302D01*
X000837Y001265D01*
X000771Y001217D01*
X000750Y001195D01*
X000750Y003005D01*
X000771Y002983D01*
X000837Y002935D01*
X000910Y002898D01*
X000988Y002873D01*
X001060Y002861D01*
X001060Y003330D01*
X001160Y003330D01*
X001160Y003430D01*
X001060Y003430D01*
X001060Y003899D01*
X000988Y003887D01*
X000910Y003862D01*
X000837Y003825D01*
X000771Y003777D01*
X000750Y003755D01*
X000750Y021850D01*
X010758Y021850D01*
X010652Y021744D01*
X010652Y021456D01*
X010710Y021398D01*
X010710Y019042D01*
X010754Y018936D01*
X011504Y018186D01*
X011586Y018104D01*
X013710Y015980D01*
X013710Y015838D01*
X013698Y015866D01*
X013566Y015998D01*
X013393Y016070D01*
X012607Y016070D01*
X012434Y015998D01*
X012302Y015866D01*
X012263Y015773D01*
X012254Y015764D01*
X011750Y015260D01*
X011162Y015848D01*
X011162Y016257D01*
X011063Y016357D01*
X010638Y016357D01*
X010558Y016390D01*
X010442Y016390D01*
X010393Y016369D01*
X009916Y016846D01*
X009810Y016890D01*
X007942Y016890D01*
X007836Y016846D01*
X007754Y016764D01*
X007254Y016264D01*
X007210Y016158D01*
X007210Y013802D01*
X007152Y013744D01*
X007152Y013456D01*
X007356Y013252D01*
X007644Y013252D01*
X007848Y013456D01*
X007848Y013744D01*
X007790Y013802D01*
X007790Y015980D01*
X008120Y016310D01*
X009632Y016310D01*
X009838Y016104D01*
X009838Y015447D01*
X009937Y015347D01*
X010843Y015347D01*
X011460Y014730D01*
X011460Y012322D01*
X011430Y012322D01*
X011330Y012223D01*
X011330Y011963D01*
X011162Y011963D01*
X011162Y012257D01*
X011063Y012357D01*
X009937Y012357D01*
X009838Y012257D01*
X009838Y011447D01*
X009937Y011347D01*
X010604Y011347D01*
X010694Y011310D01*
X012558Y011310D01*
X012664Y011354D01*
X013164Y011854D01*
X013209Y011899D01*
X013356Y011752D01*
X013644Y011752D01*
X013782Y011890D01*
X031026Y011890D01*
X030960Y011824D01*
X030960Y011376D01*
X031026Y011310D01*
X012913Y011310D01*
X012703Y011100D01*
X012607Y011140D01*
X012393Y011140D01*
X012194Y011058D01*
X012042Y010906D01*
X012000Y010804D01*
X011958Y010906D01*
X011806Y011058D01*
X011607Y011140D01*
X011393Y011140D01*
X011194Y011058D01*
X011042Y010906D01*
X011000Y010804D01*
X010958Y010906D01*
X010806Y011058D01*
X010607Y011140D01*
X010393Y011140D01*
X010194Y011058D01*
X010042Y010906D01*
X010000Y010804D01*
X009958Y010906D01*
X009806Y011058D01*
X009607Y011140D01*
X009393Y011140D01*
X009194Y011058D01*
X009042Y010906D01*
X009000Y010804D01*
X008958Y010906D01*
X008806Y011058D01*
X008607Y011140D01*
X008393Y011140D01*
X008194Y011058D01*
X008042Y010906D01*
X008000Y010804D01*
X007958Y010906D01*
X007806Y011058D01*
X007607Y011140D01*
X007393Y011140D01*
X007194Y011058D01*
X007042Y010906D01*
X007000Y010804D01*
X006958Y010906D01*
X006806Y011058D01*
X006607Y011140D01*
X006393Y011140D01*
X006194Y011058D01*
X006042Y010906D01*
X005960Y010707D01*
X005960Y010493D01*
X006042Y010294D01*
X006194Y010142D01*
X006290Y010102D01*
X006290Y007013D01*
X006308Y006995D02*
X004290Y006995D01*
X004290Y006897D02*
X006406Y006897D01*
X006505Y006798D02*
X004290Y006798D01*
X004290Y006700D02*
X006603Y006700D01*
X006702Y006601D02*
X004290Y006601D01*
X004290Y006503D02*
X006800Y006503D01*
X006899Y006404D02*
X004290Y006404D01*
X004290Y006306D02*
X008213Y006306D01*
X008152Y006207D02*
X004290Y006207D01*
X004290Y006109D02*
X008152Y006109D01*
X008152Y006010D02*
X004290Y006010D01*
X004290Y005912D02*
X007319Y005912D01*
X007221Y005813D02*
X004290Y005813D01*
X004290Y005715D02*
X007152Y005715D01*
X007152Y005616D02*
X004290Y005616D01*
X004290Y005518D02*
X007152Y005518D01*
X007189Y005419D02*
X004290Y005419D01*
X004290Y005321D02*
X007287Y005321D01*
X006825Y005222D02*
X004290Y005222D01*
X004290Y005124D02*
X006353Y005124D01*
X006161Y005025D02*
X004290Y005025D01*
X004290Y004927D02*
X006063Y004927D01*
X006010Y004828D02*
X004290Y004828D01*
X004290Y004730D02*
X005969Y004730D01*
X005960Y004631D02*
X004290Y004631D01*
X004290Y004533D02*
X005960Y004533D01*
X005984Y004434D02*
X004290Y004434D01*
X004290Y004336D02*
X006025Y004336D01*
X006099Y004237D02*
X004290Y004237D01*
X004290Y004139D02*
X006203Y004139D01*
X006797Y004139D02*
X007203Y004139D01*
X007099Y004237D02*
X006901Y004237D01*
X006975Y004336D02*
X007025Y004336D01*
X007797Y004139D02*
X008203Y004139D01*
X008099Y004237D02*
X007901Y004237D01*
X007975Y004336D02*
X008025Y004336D01*
X008797Y004139D02*
X009203Y004139D01*
X009099Y004237D02*
X008901Y004237D01*
X008975Y004336D02*
X009025Y004336D01*
X009797Y004139D02*
X010203Y004139D01*
X010099Y004237D02*
X009901Y004237D01*
X009975Y004336D02*
X010025Y004336D01*
X010797Y004139D02*
X011203Y004139D01*
X011099Y004237D02*
X010901Y004237D01*
X010975Y004336D02*
X011025Y004336D01*
X011797Y004139D02*
X012203Y004139D01*
X012099Y004237D02*
X011901Y004237D01*
X011975Y004336D02*
X012025Y004336D01*
X012797Y004139D02*
X013203Y004139D01*
X013099Y004237D02*
X012901Y004237D01*
X012975Y004336D02*
X013025Y004336D01*
X013763Y004040D02*
X004290Y004040D01*
X004290Y003942D02*
X013862Y003942D01*
X013960Y003843D02*
X004290Y003843D01*
X004290Y003745D02*
X014059Y003745D01*
X014157Y003646D02*
X004290Y003646D01*
X004290Y003548D02*
X014256Y003548D01*
X014354Y003449D02*
X004290Y003449D01*
X004290Y003351D02*
X017453Y003351D01*
X017551Y003252D02*
X004290Y003252D01*
X004290Y003154D02*
X017650Y003154D01*
X017748Y003055D02*
X014809Y003055D01*
X014907Y002957D02*
X017847Y002957D01*
X017493Y003810D02*
X014587Y003810D01*
X014257Y004140D01*
X014300Y004118D01*
X014378Y004093D01*
X014450Y004081D01*
X014450Y004550D01*
X014550Y004550D01*
X014550Y004081D01*
X014622Y004093D01*
X014700Y004118D01*
X014773Y004155D01*
X014839Y004203D01*
X014897Y004261D01*
X014945Y004327D01*
X014982Y004400D01*
X014989Y004422D01*
X015042Y004294D01*
X015194Y004142D01*
X015393Y004060D01*
X015607Y004060D01*
X015806Y004142D01*
X015958Y004294D01*
X016000Y004396D01*
X016042Y004294D01*
X016194Y004142D01*
X016393Y004060D01*
X016607Y004060D01*
X016806Y004142D01*
X016958Y004294D01*
X017000Y004396D01*
X017042Y004294D01*
X017194Y004142D01*
X017290Y004102D01*
X017290Y004013D01*
X017493Y003810D01*
X017460Y003843D02*
X014554Y003843D01*
X014455Y003942D02*
X017362Y003942D01*
X017290Y004040D02*
X014357Y004040D01*
X014450Y004139D02*
X014550Y004139D01*
X014550Y004237D02*
X014450Y004237D01*
X014450Y004336D02*
X014550Y004336D01*
X014550Y004434D02*
X014450Y004434D01*
X014450Y004533D02*
X014550Y004533D01*
X014949Y004336D02*
X015025Y004336D01*
X015099Y004237D02*
X014872Y004237D01*
X014740Y004139D02*
X015203Y004139D01*
X015797Y004139D02*
X016203Y004139D01*
X016099Y004237D02*
X015901Y004237D01*
X015975Y004336D02*
X016025Y004336D01*
X016797Y004139D02*
X017203Y004139D01*
X017099Y004237D02*
X016901Y004237D01*
X016975Y004336D02*
X017025Y004336D01*
X014260Y004139D02*
X014258Y004139D01*
X014191Y003055D02*
X010711Y003055D01*
X010715Y002957D02*
X014093Y002957D01*
X014022Y002858D02*
X010715Y002858D01*
X010715Y002760D02*
X013982Y002760D01*
X013960Y002661D02*
X010715Y002661D01*
X010715Y002563D02*
X013960Y002563D01*
X013972Y002464D02*
X012210Y002464D01*
X012448Y002366D02*
X014013Y002366D01*
X014069Y002267D02*
X012576Y002267D01*
X012674Y002169D02*
X014168Y002169D01*
X014224Y002070D02*
X012756Y002070D01*
X012797Y001972D02*
X014108Y001972D01*
X014029Y001873D02*
X012838Y001873D01*
X012879Y001775D02*
X013988Y001775D01*
X013960Y001676D02*
X012879Y001676D01*
X012879Y001578D02*
X013960Y001578D01*
X013966Y001479D02*
X012879Y001479D01*
X012860Y001381D02*
X014006Y001381D01*
X014054Y001282D02*
X012819Y001282D01*
X012779Y001184D02*
X014153Y001184D01*
X014210Y001085D02*
X012728Y001085D01*
X012629Y000987D02*
X014210Y000987D01*
X014790Y000987D02*
X017210Y000987D01*
X017210Y000890D02*
X014790Y000890D01*
X014790Y001136D01*
X014806Y001142D01*
X014958Y001294D01*
X015040Y001493D01*
X015040Y001707D01*
X014958Y001906D01*
X014806Y002058D01*
X014704Y002100D01*
X014806Y002142D01*
X014958Y002294D01*
X014964Y002310D01*
X019380Y002310D01*
X019550Y002140D01*
X019393Y002140D01*
X019194Y002058D01*
X019042Y001906D01*
X019000Y001804D01*
X018958Y001906D01*
X018806Y002058D01*
X018607Y002140D01*
X018393Y002140D01*
X018194Y002058D01*
X018042Y001906D01*
X018000Y001804D01*
X017958Y001906D01*
X017806Y002058D01*
X017607Y002140D01*
X017393Y002140D01*
X017194Y002058D01*
X017042Y001906D01*
X017000Y001804D01*
X016958Y001906D01*
X016806Y002058D01*
X016607Y002140D01*
X016393Y002140D01*
X016194Y002058D01*
X016042Y001906D01*
X015960Y001707D01*
X015960Y001493D01*
X016042Y001294D01*
X016194Y001142D01*
X016393Y001060D01*
X016607Y001060D01*
X016806Y001142D01*
X016958Y001294D01*
X017000Y001396D01*
X017042Y001294D01*
X017194Y001142D01*
X017210Y001136D01*
X017210Y000890D01*
X017210Y001085D02*
X016668Y001085D01*
X016847Y001184D02*
X017153Y001184D01*
X017054Y001282D02*
X016946Y001282D01*
X016994Y001381D02*
X017006Y001381D01*
X017029Y001873D02*
X016971Y001873D01*
X016892Y001972D02*
X017108Y001972D01*
X017224Y002070D02*
X016776Y002070D01*
X016224Y002070D02*
X014776Y002070D01*
X014832Y002169D02*
X019521Y002169D01*
X019423Y002267D02*
X014931Y002267D01*
X014892Y001972D02*
X016108Y001972D01*
X016029Y001873D02*
X014971Y001873D01*
X015012Y001775D02*
X015988Y001775D01*
X015960Y001676D02*
X015040Y001676D01*
X015040Y001578D02*
X015960Y001578D01*
X015966Y001479D02*
X015034Y001479D01*
X014994Y001381D02*
X016006Y001381D01*
X016054Y001282D02*
X014946Y001282D01*
X014847Y001184D02*
X016153Y001184D01*
X016332Y001085D02*
X014790Y001085D01*
X011790Y002464D02*
X010715Y002464D01*
X010683Y002366D02*
X011552Y002366D01*
X011424Y002267D02*
X010715Y002267D01*
X010715Y002169D02*
X011326Y002169D01*
X011244Y002070D02*
X010715Y002070D01*
X010715Y001972D02*
X011203Y001972D01*
X011162Y001873D02*
X010715Y001873D01*
X010715Y001775D02*
X011121Y001775D01*
X011121Y001676D02*
X010715Y001676D01*
X010643Y001578D02*
X011121Y001578D01*
X011121Y001479D02*
X010540Y001479D01*
X010540Y001381D02*
X011140Y001381D01*
X011181Y001282D02*
X010540Y001282D01*
X010540Y001184D02*
X011221Y001184D01*
X011272Y001085D02*
X010540Y001085D01*
X010540Y000987D02*
X011371Y000987D01*
X010294Y000396D02*
X008288Y000396D01*
X008348Y000494D02*
X010196Y000494D01*
X010097Y000593D02*
X008348Y000593D01*
X008348Y000691D02*
X010002Y000691D01*
X009961Y000790D02*
X008303Y000790D01*
X008204Y000888D02*
X009960Y000888D01*
X009960Y000987D02*
X004524Y000987D01*
X004425Y001085D02*
X009960Y001085D01*
X009960Y001184D02*
X004327Y001184D01*
X004290Y001282D02*
X009960Y001282D01*
X009960Y001381D02*
X004290Y001381D01*
X004290Y001479D02*
X009960Y001479D01*
X009857Y001578D02*
X006900Y001578D01*
X007090Y001676D02*
X009785Y001676D01*
X009785Y001775D02*
X009667Y001775D01*
X009765Y001873D02*
X009785Y001873D01*
X009333Y001775D02*
X007188Y001775D01*
X007240Y001873D02*
X009235Y001873D01*
X009152Y001972D02*
X007281Y001972D01*
X007290Y002070D02*
X009152Y002070D01*
X009152Y002169D02*
X007290Y002169D01*
X007265Y002267D02*
X009175Y002267D01*
X009273Y002366D02*
X007225Y002366D01*
X007150Y002464D02*
X009290Y002464D01*
X009290Y002563D02*
X007044Y002563D01*
X006456Y002563D02*
X006044Y002563D01*
X006150Y002464D02*
X006350Y002464D01*
X006275Y002366D02*
X006225Y002366D01*
X006240Y001873D02*
X006260Y001873D01*
X006312Y001775D02*
X006188Y001775D01*
X006090Y001676D02*
X006410Y001676D01*
X006600Y001578D02*
X005900Y001578D01*
X005600Y001578D02*
X004900Y001578D01*
X005090Y001676D02*
X005410Y001676D01*
X005312Y001775D02*
X005188Y001775D01*
X005240Y001873D02*
X005260Y001873D01*
X005275Y002366D02*
X005225Y002366D01*
X005150Y002464D02*
X005350Y002464D01*
X005456Y002563D02*
X005044Y002563D01*
X004456Y002563D02*
X004290Y002563D01*
X004290Y002661D02*
X009290Y002661D01*
X009363Y002760D02*
X004290Y002760D01*
X004290Y002858D02*
X009461Y002858D01*
X009785Y002957D02*
X004290Y002957D01*
X004290Y003055D02*
X009789Y003055D01*
X006727Y005124D02*
X006647Y005124D01*
X007779Y005813D02*
X008295Y005813D01*
X008196Y005912D02*
X007681Y005912D01*
X007913Y006890D02*
X034913Y006890D01*
X034993Y006810D01*
X007087Y006810D01*
X006710Y007187D01*
X006710Y010102D01*
X006806Y010142D01*
X006958Y010294D01*
X007000Y010396D01*
X007042Y010294D01*
X007194Y010142D01*
X007290Y010102D01*
X007290Y007513D01*
X007413Y007390D01*
X007913Y006890D01*
X007906Y006897D02*
X007000Y006897D01*
X006902Y006995D02*
X007808Y006995D01*
X007709Y007094D02*
X006803Y007094D01*
X006710Y007192D02*
X007611Y007192D01*
X007512Y007291D02*
X006710Y007291D01*
X006710Y007389D02*
X007414Y007389D01*
X007315Y007488D02*
X006710Y007488D01*
X006710Y007586D02*
X007290Y007586D01*
X007290Y007685D02*
X006710Y007685D01*
X006710Y007783D02*
X007290Y007783D01*
X007290Y007882D02*
X006710Y007882D01*
X006710Y007980D02*
X007290Y007980D01*
X007290Y008079D02*
X006710Y008079D01*
X006710Y008177D02*
X007290Y008177D01*
X007290Y008276D02*
X006710Y008276D01*
X006710Y008374D02*
X007290Y008374D01*
X007290Y008473D02*
X006710Y008473D01*
X006710Y008571D02*
X007290Y008571D01*
X007290Y008670D02*
X006710Y008670D01*
X006710Y008768D02*
X007290Y008768D01*
X007290Y008867D02*
X006710Y008867D01*
X006710Y008965D02*
X007290Y008965D01*
X007290Y009064D02*
X006710Y009064D01*
X006710Y009162D02*
X007290Y009162D01*
X007290Y009261D02*
X006710Y009261D01*
X006710Y009359D02*
X007290Y009359D01*
X007290Y009458D02*
X006710Y009458D01*
X006710Y009556D02*
X007290Y009556D01*
X007290Y009655D02*
X006710Y009655D01*
X006710Y009753D02*
X007290Y009753D01*
X007290Y009852D02*
X006710Y009852D01*
X006710Y009950D02*
X007290Y009950D01*
X007290Y010049D02*
X006710Y010049D01*
X006811Y010147D02*
X007189Y010147D01*
X007091Y010246D02*
X006909Y010246D01*
X006978Y010344D02*
X007022Y010344D01*
X007013Y010837D02*
X006987Y010837D01*
X006929Y010935D02*
X007071Y010935D01*
X007170Y011034D02*
X006830Y011034D01*
X006627Y011132D02*
X007373Y011132D01*
X007430Y011378D02*
X008070Y011378D01*
X008075Y011383D01*
X008280Y011383D01*
X008280Y011274D01*
X008380Y011174D01*
X009620Y011174D01*
X009720Y011274D01*
X009720Y012315D01*
X009620Y012414D01*
X008380Y012414D01*
X008280Y012315D01*
X008280Y011963D01*
X008170Y011963D01*
X008170Y012223D01*
X008070Y012322D01*
X008040Y012322D01*
X008040Y012730D01*
X008120Y012810D01*
X008355Y012810D01*
X008380Y012786D01*
X009620Y012786D01*
X009720Y012885D01*
X009720Y013926D01*
X009620Y014026D01*
X009290Y014026D01*
X009290Y015137D01*
X009360Y015137D01*
X009459Y015236D01*
X009459Y016074D01*
X009360Y016174D01*
X008640Y016174D01*
X008541Y016074D01*
X008541Y015236D01*
X008640Y015137D01*
X008710Y015137D01*
X008710Y014026D01*
X008380Y014026D01*
X008280Y013926D01*
X008280Y013390D01*
X007942Y013390D01*
X007836Y013346D01*
X007754Y013264D01*
X007504Y013014D01*
X007460Y012908D01*
X007460Y012322D01*
X007430Y012322D01*
X007425Y012317D01*
X007193Y012317D01*
X006848Y012662D01*
X006848Y012744D01*
X006644Y012948D01*
X006356Y012948D01*
X006290Y012882D01*
X006290Y014398D01*
X006348Y014456D01*
X006348Y014744D01*
X006144Y014948D01*
X005856Y014948D01*
X005652Y014744D01*
X005652Y014456D01*
X005710Y014398D01*
X005710Y012042D01*
X005754Y011936D01*
X005836Y011854D01*
X006263Y011427D01*
X006369Y011383D01*
X007425Y011383D01*
X007430Y011378D01*
X007627Y011132D02*
X008373Y011132D01*
X008324Y011231D02*
X003780Y011231D01*
X003681Y011329D02*
X008280Y011329D01*
X008627Y011132D02*
X009373Y011132D01*
X009170Y011034D02*
X008830Y011034D01*
X008929Y010935D02*
X009071Y010935D01*
X009013Y010837D02*
X008987Y010837D01*
X009000Y010396D02*
X009042Y010294D01*
X009194Y010142D01*
X009290Y010102D01*
X009290Y009513D01*
X009413Y009390D01*
X009913Y008890D01*
X010298Y008890D01*
X010152Y008744D01*
X010152Y008456D01*
X010298Y008310D01*
X009782Y008310D01*
X009644Y008448D01*
X009356Y008448D01*
X009152Y008244D01*
X009152Y007956D01*
X009298Y007810D01*
X009087Y007810D01*
X008710Y008187D01*
X008710Y010102D01*
X008806Y010142D01*
X008958Y010294D01*
X009000Y010396D01*
X008978Y010344D02*
X009022Y010344D01*
X009091Y010246D02*
X008909Y010246D01*
X008811Y010147D02*
X009189Y010147D01*
X009290Y010049D02*
X008710Y010049D01*
X008710Y009950D02*
X009290Y009950D01*
X009290Y009852D02*
X008710Y009852D01*
X008710Y009753D02*
X009290Y009753D01*
X009290Y009655D02*
X008710Y009655D01*
X008710Y009556D02*
X009290Y009556D01*
X009345Y009458D02*
X008710Y009458D01*
X008710Y009359D02*
X009444Y009359D01*
X009542Y009261D02*
X008710Y009261D01*
X008710Y009162D02*
X009641Y009162D01*
X009739Y009064D02*
X008710Y009064D01*
X008710Y008965D02*
X009838Y008965D01*
X010176Y008768D02*
X008710Y008768D01*
X008710Y008670D02*
X010152Y008670D01*
X010152Y008571D02*
X008710Y008571D01*
X008710Y008473D02*
X010152Y008473D01*
X010234Y008374D02*
X009718Y008374D01*
X009282Y008374D02*
X008710Y008374D01*
X008710Y008276D02*
X009183Y008276D01*
X009152Y008177D02*
X008720Y008177D01*
X008818Y008079D02*
X009152Y008079D01*
X009152Y007980D02*
X008917Y007980D01*
X009015Y007882D02*
X009226Y007882D01*
X008815Y007488D02*
X007909Y007488D01*
X007811Y007586D02*
X008717Y007586D01*
X008618Y007685D02*
X007712Y007685D01*
X007710Y007687D02*
X007710Y010102D01*
X007806Y010142D01*
X007958Y010294D01*
X008000Y010396D01*
X008042Y010294D01*
X008194Y010142D01*
X008290Y010102D01*
X008290Y008013D01*
X008413Y007890D01*
X008913Y007390D01*
X034913Y007390D01*
X034993Y007310D01*
X008087Y007310D01*
X007710Y007687D01*
X007710Y007783D02*
X008520Y007783D01*
X008421Y007882D02*
X007710Y007882D01*
X007710Y007980D02*
X008323Y007980D01*
X008290Y008079D02*
X007710Y008079D01*
X007710Y008177D02*
X008290Y008177D01*
X008290Y008276D02*
X007710Y008276D01*
X007710Y008374D02*
X008290Y008374D01*
X008290Y008473D02*
X007710Y008473D01*
X007710Y008571D02*
X008290Y008571D01*
X008290Y008670D02*
X007710Y008670D01*
X007710Y008768D02*
X008290Y008768D01*
X008290Y008867D02*
X007710Y008867D01*
X007710Y008965D02*
X008290Y008965D01*
X008290Y009064D02*
X007710Y009064D01*
X007710Y009162D02*
X008290Y009162D01*
X008290Y009261D02*
X007710Y009261D01*
X007710Y009359D02*
X008290Y009359D01*
X008290Y009458D02*
X007710Y009458D01*
X007710Y009556D02*
X008290Y009556D01*
X008290Y009655D02*
X007710Y009655D01*
X007710Y009753D02*
X008290Y009753D01*
X008290Y009852D02*
X007710Y009852D01*
X007710Y009950D02*
X008290Y009950D01*
X008290Y010049D02*
X007710Y010049D01*
X007811Y010147D02*
X008189Y010147D01*
X008091Y010246D02*
X007909Y010246D01*
X007978Y010344D02*
X008022Y010344D01*
X008013Y010837D02*
X007987Y010837D01*
X007929Y010935D02*
X008071Y010935D01*
X008170Y011034D02*
X007830Y011034D01*
X006373Y011132D02*
X003878Y011132D01*
X003977Y011034D02*
X006170Y011034D01*
X006071Y010935D02*
X004075Y010935D01*
X004164Y010846D02*
X004164Y010846D01*
X004174Y010837D02*
X006013Y010837D01*
X005973Y010738D02*
X004257Y010738D01*
X004290Y010640D02*
X005960Y010640D01*
X005960Y010541D02*
X004290Y010541D01*
X004290Y010443D02*
X005981Y010443D01*
X006022Y010344D02*
X004290Y010344D01*
X004290Y010246D02*
X006091Y010246D01*
X006189Y010147D02*
X004290Y010147D01*
X004290Y010049D02*
X006290Y010049D01*
X006290Y009950D02*
X004290Y009950D01*
X004290Y009852D02*
X006290Y009852D01*
X006290Y009753D02*
X004290Y009753D01*
X004290Y009655D02*
X006290Y009655D01*
X006290Y009556D02*
X004290Y009556D01*
X004290Y009458D02*
X006290Y009458D01*
X006290Y009359D02*
X004290Y009359D01*
X004290Y009261D02*
X006290Y009261D01*
X006290Y009162D02*
X004290Y009162D01*
X004290Y009064D02*
X006290Y009064D01*
X006290Y008965D02*
X004290Y008965D01*
X004290Y008867D02*
X006290Y008867D01*
X006290Y008768D02*
X004290Y008768D01*
X004290Y008670D02*
X006290Y008670D01*
X008008Y007389D02*
X034914Y007389D01*
X035210Y007687D02*
X035087Y007810D01*
X034702Y007810D01*
X034848Y007956D01*
X034848Y008244D01*
X034742Y008350D01*
X034848Y008456D01*
X034848Y008744D01*
X034702Y008890D01*
X034913Y008890D01*
X036290Y007513D01*
X036413Y007390D01*
X037046Y007390D01*
X037076Y007317D01*
X037217Y007176D01*
X037401Y007100D01*
X037599Y007100D01*
X037783Y007176D01*
X037924Y007317D01*
X038000Y007501D01*
X038000Y007699D01*
X037924Y007883D01*
X037783Y008024D01*
X037599Y008100D01*
X037783Y008176D01*
X037924Y008317D01*
X038000Y008501D01*
X038000Y008699D01*
X037924Y008883D01*
X037783Y009024D01*
X037599Y009100D01*
X037783Y009176D01*
X037924Y009317D01*
X038000Y009501D01*
X038000Y009699D01*
X037924Y009883D01*
X037783Y010024D01*
X037599Y010100D01*
X037783Y010176D01*
X037924Y010317D01*
X038000Y010501D01*
X038000Y010699D01*
X037924Y010883D01*
X037783Y011024D01*
X037599Y011100D01*
X037783Y011176D01*
X037924Y011317D01*
X038000Y011501D01*
X038000Y011699D01*
X037924Y011883D01*
X037783Y012024D01*
X037599Y012100D01*
X037783Y012176D01*
X037924Y012317D01*
X038000Y012501D01*
X038000Y012699D01*
X037924Y012883D01*
X037783Y013024D01*
X037599Y013100D01*
X037783Y013176D01*
X037924Y013317D01*
X038000Y013501D01*
X038076Y013317D01*
X038217Y013176D01*
X038401Y013100D01*
X038599Y013100D01*
X038783Y013176D01*
X038924Y013317D01*
X039000Y013501D01*
X039000Y013699D01*
X038924Y013883D01*
X038783Y014024D01*
X038599Y014100D01*
X038783Y014176D01*
X038924Y014317D01*
X039000Y014501D01*
X039000Y014699D01*
X038924Y014883D01*
X038783Y015024D01*
X038599Y015100D01*
X038401Y015100D01*
X038217Y015024D01*
X038076Y014883D01*
X038000Y014699D01*
X037924Y014883D01*
X037783Y015024D01*
X037599Y015100D01*
X037401Y015100D01*
X037217Y015024D01*
X037076Y014883D01*
X037000Y014699D01*
X037000Y014501D01*
X037076Y014317D01*
X037083Y014310D01*
X034087Y014310D01*
X033710Y014687D01*
X033710Y019440D01*
X034053Y019783D01*
X034341Y019494D01*
X034482Y019494D01*
X035356Y020368D01*
X035356Y020509D01*
X034482Y021383D01*
X034341Y021383D01*
X033467Y020509D01*
X033467Y020368D01*
X033756Y020080D01*
X033290Y019614D01*
X033290Y016802D01*
X033144Y016948D01*
X032856Y016948D01*
X032718Y016810D01*
X032202Y016810D01*
X032348Y016956D01*
X032348Y017244D01*
X032202Y017390D01*
X032218Y017390D01*
X032356Y017252D01*
X032644Y017252D01*
X032848Y017456D01*
X032848Y017744D01*
X032644Y017948D01*
X032356Y017948D01*
X032218Y017810D01*
X019282Y017810D01*
X019144Y017948D01*
X018856Y017948D01*
X018652Y017744D01*
X018652Y017456D01*
X018798Y017310D01*
X018282Y017310D01*
X018144Y017448D01*
X017856Y017448D01*
X017652Y017244D01*
X017652Y016956D01*
X017856Y016752D01*
X018144Y016752D01*
X018282Y016890D01*
X019798Y016890D01*
X019652Y016744D01*
X019652Y016456D01*
X019856Y016252D01*
X020144Y016252D01*
X020282Y016390D01*
X032718Y016390D01*
X032798Y016310D01*
X031101Y016310D01*
X031091Y016320D01*
X030909Y016320D01*
X028899Y014310D01*
X015282Y014310D01*
X015144Y014448D01*
X014856Y014448D01*
X014652Y014244D01*
X014652Y013956D01*
X014856Y013752D01*
X015144Y013752D01*
X015282Y013890D01*
X015298Y013890D01*
X015152Y013744D01*
X015152Y013456D01*
X015298Y013310D01*
X014782Y013310D01*
X014644Y013448D01*
X014356Y013448D01*
X014152Y013244D01*
X014152Y012956D01*
X014356Y012752D01*
X014644Y012752D01*
X014782Y012890D01*
X031026Y012890D01*
X030960Y012824D01*
X030960Y012376D01*
X031026Y012310D01*
X013782Y012310D01*
X013644Y012448D01*
X013356Y012448D01*
X013290Y012382D01*
X013290Y013130D01*
X013393Y013130D01*
X013566Y013202D01*
X013698Y013334D01*
X013737Y013427D01*
X014164Y013854D01*
X014246Y013936D01*
X014290Y014042D01*
X014290Y016158D01*
X014246Y016264D01*
X012875Y017635D01*
X013452Y017635D01*
X013500Y017682D01*
X013548Y017635D01*
X014200Y017635D01*
X014300Y017734D01*
X014300Y017890D01*
X018087Y017890D01*
X018210Y018013D01*
X018337Y018140D01*
X021218Y018140D01*
X021356Y018002D01*
X021644Y018002D01*
X021848Y018206D01*
X021848Y018494D01*
X021644Y018698D01*
X021356Y018698D01*
X021218Y018560D01*
X018163Y018560D01*
X018040Y018437D01*
X017913Y018310D01*
X015210Y018310D01*
X015210Y018898D01*
X015356Y018752D01*
X015644Y018752D01*
X015782Y018890D01*
X022218Y018890D01*
X022356Y018752D01*
X022644Y018752D01*
X022848Y018956D01*
X022848Y019244D01*
X022644Y019448D01*
X022356Y019448D01*
X022218Y019310D01*
X015782Y019310D01*
X015644Y019448D01*
X015356Y019448D01*
X015210Y019302D01*
X015210Y020146D01*
X015358Y020294D01*
X015400Y020396D01*
X015442Y020294D01*
X015594Y020142D01*
X015793Y020060D01*
X016007Y020060D01*
X016206Y020142D01*
X016358Y020294D01*
X016411Y020422D01*
X016418Y020400D01*
X016455Y020327D01*
X016503Y020261D01*
X016561Y020203D01*
X016627Y020155D01*
X016700Y020118D01*
X016778Y020093D01*
X016850Y020081D01*
X016850Y020550D01*
X016950Y020550D01*
X016950Y020081D01*
X017022Y020093D01*
X017100Y020118D01*
X017173Y020155D01*
X017239Y020203D01*
X017297Y020261D01*
X017345Y020327D01*
X017382Y020400D01*
X017389Y020422D01*
X017442Y020294D01*
X017594Y020142D01*
X017793Y020060D01*
X018007Y020060D01*
X018206Y020142D01*
X018358Y020294D01*
X018400Y020396D01*
X018442Y020294D01*
X018594Y020142D01*
X018793Y020060D01*
X019007Y020060D01*
X019206Y020142D01*
X019358Y020294D01*
X019400Y020396D01*
X019442Y020294D01*
X019594Y020142D01*
X019793Y020060D01*
X020007Y020060D01*
X020206Y020142D01*
X020358Y020294D01*
X020400Y020396D01*
X020442Y020294D01*
X020594Y020142D01*
X020793Y020060D01*
X021007Y020060D01*
X021206Y020142D01*
X021358Y020294D01*
X021400Y020396D01*
X021442Y020294D01*
X021594Y020142D01*
X021793Y020060D01*
X022007Y020060D01*
X022206Y020142D01*
X022358Y020294D01*
X022400Y020396D01*
X022442Y020294D01*
X022594Y020142D01*
X022793Y020060D01*
X023007Y020060D01*
X023206Y020142D01*
X023358Y020294D01*
X023440Y020493D01*
X023440Y020707D01*
X023358Y020906D01*
X023206Y021058D01*
X023007Y021140D01*
X022793Y021140D01*
X022594Y021058D01*
X022442Y020906D01*
X022400Y020804D01*
X022358Y020906D01*
X022206Y021058D01*
X022007Y021140D01*
X021793Y021140D01*
X021594Y021058D01*
X021442Y020906D01*
X021400Y020804D01*
X021358Y020906D01*
X021206Y021058D01*
X021007Y021140D01*
X020793Y021140D01*
X020594Y021058D01*
X020442Y020906D01*
X020400Y020804D01*
X020358Y020906D01*
X020206Y021058D01*
X020007Y021140D01*
X019793Y021140D01*
X019594Y021058D01*
X019442Y020906D01*
X019400Y020804D01*
X019358Y020906D01*
X019206Y021058D01*
X019007Y021140D01*
X018793Y021140D01*
X018594Y021058D01*
X018442Y020906D01*
X018400Y020804D01*
X018358Y020906D01*
X018206Y021058D01*
X018007Y021140D01*
X017793Y021140D01*
X017594Y021058D01*
X017442Y020906D01*
X017389Y020778D01*
X017382Y020800D01*
X017345Y020873D01*
X017297Y020939D01*
X017239Y020997D01*
X017173Y021045D01*
X017100Y021082D01*
X017022Y021107D01*
X016950Y021119D01*
X016950Y020650D01*
X016850Y020650D01*
X016850Y021119D01*
X016778Y021107D01*
X016700Y021082D01*
X016627Y021045D01*
X016561Y020997D01*
X016503Y020939D01*
X016455Y020873D01*
X016418Y020800D01*
X016411Y020778D01*
X016358Y020906D01*
X016206Y021058D01*
X016007Y021140D01*
X015793Y021140D01*
X015594Y021058D01*
X015442Y020906D01*
X015400Y020804D01*
X015358Y020906D01*
X015206Y021058D01*
X015007Y021140D01*
X014793Y021140D01*
X014594Y021058D01*
X014442Y020906D01*
X014400Y020804D01*
X014358Y020906D01*
X014206Y021058D01*
X014007Y021140D01*
X013793Y021140D01*
X013594Y021058D01*
X013442Y020906D01*
X013379Y020752D01*
X013379Y020775D01*
X013245Y021098D01*
X012998Y021345D01*
X012675Y021479D01*
X012325Y021479D01*
X012002Y021345D01*
X011755Y021098D01*
X011621Y020775D01*
X011621Y020425D01*
X011755Y020102D01*
X012002Y019855D01*
X012325Y019721D01*
X012675Y019721D01*
X012998Y019855D01*
X013245Y020102D01*
X013379Y020425D01*
X013379Y020448D01*
X013442Y020294D01*
X013594Y020142D01*
X013664Y020113D01*
X013664Y019565D01*
X013548Y019565D01*
X013500Y019518D01*
X013452Y019565D01*
X012800Y019565D01*
X012700Y019466D01*
X012700Y019390D01*
X012442Y019390D01*
X012336Y019346D01*
X011750Y018760D01*
X011290Y019220D01*
X011290Y021398D01*
X011348Y021456D01*
X011348Y021744D01*
X011242Y021850D01*
X039500Y021850D01*
X039500Y000350D01*
X035242Y000350D01*
X035348Y000456D01*
X035348Y000744D01*
X035202Y000890D01*
X038587Y000890D01*
X039087Y001390D01*
X039210Y001513D01*
X039210Y012187D01*
X038970Y012427D01*
X039000Y012501D01*
X039000Y012699D01*
X038924Y012883D01*
X038783Y013024D01*
X038599Y013100D01*
X038401Y013100D01*
X038217Y013024D01*
X038076Y012883D01*
X038000Y012699D01*
X038000Y012501D01*
X038076Y012317D01*
X038217Y012176D01*
X038401Y012100D01*
X038217Y012024D01*
X038076Y011883D01*
X038000Y011699D01*
X038000Y011501D01*
X038076Y011317D01*
X038217Y011176D01*
X038401Y011100D01*
X038217Y011024D01*
X038076Y010883D01*
X038000Y010699D01*
X038000Y010501D01*
X038076Y010317D01*
X038217Y010176D01*
X038401Y010100D01*
X038217Y010024D01*
X038076Y009883D01*
X038000Y009699D01*
X038000Y009501D01*
X038076Y009317D01*
X038217Y009176D01*
X038401Y009100D01*
X038217Y009024D01*
X038076Y008883D01*
X038000Y008699D01*
X038000Y008501D01*
X038076Y008317D01*
X038217Y008176D01*
X038401Y008100D01*
X038217Y008024D01*
X038076Y007883D01*
X038000Y007699D01*
X038000Y007501D01*
X038076Y007317D01*
X038217Y007176D01*
X038401Y007100D01*
X038217Y007024D01*
X038076Y006883D01*
X038000Y006699D01*
X037924Y006883D01*
X037783Y007024D01*
X037599Y007100D01*
X037401Y007100D01*
X037217Y007024D01*
X037076Y006883D01*
X037046Y006810D01*
X036087Y006810D01*
X035210Y007687D01*
X035212Y007685D02*
X036118Y007685D01*
X036020Y007783D02*
X035114Y007783D01*
X035311Y007586D02*
X036217Y007586D01*
X036315Y007488D02*
X035409Y007488D01*
X035508Y007389D02*
X037046Y007389D01*
X037102Y007291D02*
X035606Y007291D01*
X035705Y007192D02*
X037201Y007192D01*
X037188Y006995D02*
X035902Y006995D01*
X036000Y006897D02*
X037089Y006897D01*
X037385Y007094D02*
X035803Y007094D01*
X036007Y006390D02*
X037046Y006390D01*
X037076Y006317D01*
X037217Y006176D01*
X037401Y006100D01*
X037599Y006100D01*
X037783Y006176D01*
X037924Y006317D01*
X038000Y006501D01*
X038000Y006699D01*
X038000Y006501D01*
X038076Y006317D01*
X038217Y006176D01*
X038401Y006100D01*
X038217Y006024D01*
X038076Y005883D01*
X038000Y005699D01*
X037924Y005883D01*
X037783Y006024D01*
X037599Y006100D01*
X037401Y006100D01*
X037217Y006024D01*
X037076Y005883D01*
X037046Y005810D01*
X036587Y005810D01*
X036007Y006390D01*
X036091Y006306D02*
X037087Y006306D01*
X037186Y006207D02*
X036190Y006207D01*
X036288Y006109D02*
X037380Y006109D01*
X037203Y006010D02*
X036387Y006010D01*
X036485Y005912D02*
X037104Y005912D01*
X037047Y005813D02*
X036584Y005813D01*
X036507Y005390D02*
X037046Y005390D01*
X037076Y005317D01*
X037217Y005176D01*
X037401Y005100D01*
X037599Y005100D01*
X037783Y005176D01*
X037924Y005317D01*
X038000Y005501D01*
X038000Y005699D01*
X038000Y005501D01*
X038076Y005317D01*
X038217Y005176D01*
X038401Y005100D01*
X038217Y005024D01*
X038076Y004883D01*
X038000Y004699D01*
X037924Y004883D01*
X037783Y005024D01*
X037599Y005100D01*
X037401Y005100D01*
X037217Y005024D01*
X037076Y004883D01*
X037058Y004839D01*
X036507Y005390D01*
X036576Y005321D02*
X037075Y005321D01*
X037171Y005222D02*
X036675Y005222D01*
X036773Y005124D02*
X037344Y005124D01*
X037220Y005025D02*
X036872Y005025D01*
X036970Y004927D02*
X037119Y004927D01*
X037656Y005124D02*
X038344Y005124D01*
X038401Y005100D02*
X038599Y005100D01*
X038783Y005024D01*
X038790Y005017D01*
X038790Y005183D01*
X038783Y005176D01*
X038599Y005100D01*
X038401Y005100D01*
X038220Y005025D02*
X037780Y005025D01*
X037881Y004927D02*
X038119Y004927D01*
X038053Y004828D02*
X037947Y004828D01*
X037988Y004730D02*
X038012Y004730D01*
X038000Y004699D02*
X038000Y004501D01*
X037927Y004324D01*
X038030Y004427D01*
X038000Y004501D01*
X038000Y004699D01*
X038000Y004631D02*
X038000Y004631D01*
X038000Y004533D02*
X038000Y004533D01*
X037972Y004434D02*
X038028Y004434D01*
X037939Y004336D02*
X037932Y004336D01*
X038656Y005124D02*
X038790Y005124D01*
X038780Y005025D02*
X038790Y005025D01*
X039210Y005025D02*
X039500Y005025D01*
X039500Y004927D02*
X039210Y004927D01*
X039210Y004828D02*
X039500Y004828D01*
X039500Y004730D02*
X039210Y004730D01*
X039210Y004631D02*
X039500Y004631D01*
X039500Y004533D02*
X039210Y004533D01*
X039210Y004434D02*
X039500Y004434D01*
X039500Y004336D02*
X039210Y004336D01*
X039210Y004237D02*
X039500Y004237D01*
X039500Y004139D02*
X039210Y004139D01*
X039210Y004040D02*
X039500Y004040D01*
X039500Y003942D02*
X039210Y003942D01*
X039210Y003843D02*
X039500Y003843D01*
X039500Y003745D02*
X039210Y003745D01*
X039210Y003646D02*
X039500Y003646D01*
X039500Y003548D02*
X039210Y003548D01*
X039210Y003449D02*
X039500Y003449D01*
X039500Y003351D02*
X039210Y003351D01*
X039210Y003252D02*
X039500Y003252D01*
X039500Y003154D02*
X039210Y003154D01*
X039210Y003055D02*
X039500Y003055D01*
X039500Y002957D02*
X039210Y002957D01*
X039210Y002858D02*
X039500Y002858D01*
X039500Y002760D02*
X039210Y002760D01*
X039210Y002661D02*
X039500Y002661D01*
X039500Y002563D02*
X039210Y002563D01*
X039210Y002464D02*
X039500Y002464D01*
X039500Y002366D02*
X039210Y002366D01*
X039210Y002267D02*
X039500Y002267D01*
X039500Y002169D02*
X039210Y002169D01*
X039210Y002070D02*
X039500Y002070D01*
X039500Y001972D02*
X039210Y001972D01*
X039210Y001873D02*
X039500Y001873D01*
X039500Y001775D02*
X039210Y001775D01*
X039210Y001676D02*
X039500Y001676D01*
X039500Y001578D02*
X039210Y001578D01*
X039176Y001479D02*
X039500Y001479D01*
X039500Y001381D02*
X039077Y001381D01*
X038979Y001282D02*
X039500Y001282D01*
X039500Y001184D02*
X038880Y001184D01*
X038782Y001085D02*
X039500Y001085D01*
X039500Y000987D02*
X038683Y000987D01*
X038413Y001310D02*
X038790Y001687D01*
X038790Y002217D01*
X038752Y002189D01*
X038684Y002155D01*
X038612Y002132D01*
X038550Y002122D01*
X038550Y002550D01*
X038450Y002550D01*
X038450Y002122D01*
X038388Y002132D01*
X038316Y002155D01*
X038248Y002189D01*
X038187Y002234D01*
X038134Y002287D01*
X038089Y002348D01*
X038055Y002416D01*
X038032Y002488D01*
X038022Y002550D01*
X038450Y002550D01*
X038450Y002650D01*
X038450Y003078D01*
X038388Y003068D01*
X038316Y003045D01*
X038248Y003011D01*
X038187Y002966D01*
X038134Y002913D01*
X038089Y002852D01*
X038055Y002784D01*
X038032Y002712D01*
X038022Y002650D01*
X038450Y002650D01*
X038550Y002650D01*
X038550Y003078D01*
X038612Y003068D01*
X038684Y003045D01*
X038752Y003011D01*
X038790Y002983D01*
X038790Y003183D01*
X038783Y003176D01*
X038599Y003100D01*
X038401Y003100D01*
X038327Y003130D01*
X038087Y002890D01*
X037883Y002890D01*
X037911Y002852D01*
X037945Y002784D01*
X037968Y002712D01*
X037978Y002650D01*
X037550Y002650D01*
X037550Y002550D01*
X037978Y002550D01*
X037968Y002488D01*
X037945Y002416D01*
X037911Y002348D01*
X037866Y002287D01*
X037813Y002234D01*
X037752Y002189D01*
X037684Y002155D01*
X037612Y002132D01*
X037550Y002122D01*
X037550Y002550D01*
X037450Y002550D01*
X037450Y002122D01*
X037388Y002132D01*
X037316Y002155D01*
X037248Y002189D01*
X037187Y002234D01*
X037134Y002287D01*
X037089Y002348D01*
X037055Y002416D01*
X037032Y002488D01*
X037022Y002550D01*
X037450Y002550D01*
X037450Y002650D01*
X037022Y002650D01*
X037032Y002712D01*
X037055Y002784D01*
X037089Y002852D01*
X037117Y002890D01*
X036087Y002890D01*
X035587Y002390D01*
X027413Y002390D01*
X027290Y002513D01*
X026710Y003093D01*
X026710Y002098D01*
X026806Y002058D01*
X026958Y001906D01*
X027000Y001804D01*
X027042Y001906D01*
X027194Y002058D01*
X027393Y002140D01*
X027607Y002140D01*
X027806Y002058D01*
X027958Y001906D01*
X028000Y001804D01*
X028042Y001906D01*
X028194Y002058D01*
X028393Y002140D01*
X028607Y002140D01*
X028806Y002058D01*
X028958Y001906D01*
X029000Y001804D01*
X029042Y001906D01*
X029194Y002058D01*
X029393Y002140D01*
X029607Y002140D01*
X029806Y002058D01*
X029958Y001906D01*
X030000Y001804D01*
X030042Y001906D01*
X030194Y002058D01*
X030393Y002140D01*
X030607Y002140D01*
X030806Y002058D01*
X030958Y001906D01*
X031000Y001804D01*
X031042Y001906D01*
X031194Y002058D01*
X031393Y002140D01*
X031607Y002140D01*
X031806Y002058D01*
X031958Y001906D01*
X032040Y001707D01*
X032040Y001493D01*
X031964Y001310D01*
X038413Y001310D01*
X038484Y001381D02*
X031994Y001381D01*
X032034Y001479D02*
X038582Y001479D01*
X038681Y001578D02*
X032040Y001578D01*
X032040Y001676D02*
X038779Y001676D01*
X038790Y001775D02*
X032012Y001775D01*
X031971Y001873D02*
X038790Y001873D01*
X038790Y001972D02*
X031892Y001972D01*
X031776Y002070D02*
X038790Y002070D01*
X038790Y002169D02*
X038710Y002169D01*
X038550Y002169D02*
X038450Y002169D01*
X038450Y002267D02*
X038550Y002267D01*
X038550Y002366D02*
X038450Y002366D01*
X038450Y002464D02*
X038550Y002464D01*
X038450Y002563D02*
X037550Y002563D01*
X037550Y002464D02*
X037450Y002464D01*
X037450Y002366D02*
X037550Y002366D01*
X037550Y002267D02*
X037450Y002267D01*
X037450Y002169D02*
X037550Y002169D01*
X037710Y002169D02*
X038290Y002169D01*
X038154Y002267D02*
X037846Y002267D01*
X037919Y002366D02*
X038081Y002366D01*
X038039Y002464D02*
X037961Y002464D01*
X037976Y002661D02*
X038024Y002661D01*
X038047Y002760D02*
X037953Y002760D01*
X037906Y002858D02*
X038094Y002858D01*
X038153Y002957D02*
X038178Y002957D01*
X038252Y003055D02*
X038347Y003055D01*
X038450Y003055D02*
X038550Y003055D01*
X038550Y002957D02*
X038450Y002957D01*
X038450Y002858D02*
X038550Y002858D01*
X038550Y002760D02*
X038450Y002760D01*
X038450Y002661D02*
X038550Y002661D01*
X038653Y003055D02*
X038790Y003055D01*
X038790Y003154D02*
X038729Y003154D01*
X037450Y002563D02*
X035759Y002563D01*
X035858Y002661D02*
X037024Y002661D01*
X037047Y002760D02*
X035956Y002760D01*
X036055Y002858D02*
X037094Y002858D01*
X037039Y002464D02*
X035661Y002464D01*
X035413Y002810D02*
X035790Y003187D01*
X035913Y003310D01*
X037083Y003310D01*
X037076Y003317D01*
X037046Y003390D01*
X036913Y003390D01*
X036790Y003513D01*
X036790Y003513D01*
X035913Y004390D01*
X032889Y004390D01*
X032998Y004345D01*
X033245Y004098D01*
X033379Y003775D01*
X033379Y003425D01*
X033245Y003102D01*
X032998Y002855D01*
X032889Y002810D01*
X035413Y002810D01*
X035461Y002858D02*
X033001Y002858D01*
X033099Y002957D02*
X035560Y002957D01*
X035658Y003055D02*
X033198Y003055D01*
X033266Y003154D02*
X035757Y003154D01*
X035855Y003252D02*
X033307Y003252D01*
X033348Y003351D02*
X037062Y003351D01*
X036854Y003449D02*
X033379Y003449D01*
X033379Y003548D02*
X036756Y003548D01*
X036657Y003646D02*
X033379Y003646D01*
X033379Y003745D02*
X036559Y003745D01*
X036460Y003843D02*
X033350Y003843D01*
X033310Y003942D02*
X036362Y003942D01*
X036263Y004040D02*
X033269Y004040D01*
X033204Y004139D02*
X036165Y004139D01*
X036066Y004237D02*
X033106Y004237D01*
X033007Y004336D02*
X035968Y004336D01*
X037829Y005222D02*
X038171Y005222D01*
X038075Y005321D02*
X037925Y005321D01*
X037966Y005419D02*
X038034Y005419D01*
X038000Y005518D02*
X038000Y005518D01*
X038000Y005616D02*
X038000Y005616D01*
X037994Y005715D02*
X038006Y005715D01*
X038047Y005813D02*
X037953Y005813D01*
X037896Y005912D02*
X038104Y005912D01*
X038203Y006010D02*
X037797Y006010D01*
X037814Y006207D02*
X038186Y006207D01*
X038087Y006306D02*
X037913Y006306D01*
X037960Y006404D02*
X038040Y006404D01*
X038000Y006503D02*
X038000Y006503D01*
X038000Y006601D02*
X038000Y006601D01*
X038000Y006700D02*
X038000Y006700D01*
X037959Y006798D02*
X038041Y006798D01*
X038089Y006897D02*
X037911Y006897D01*
X037812Y006995D02*
X038188Y006995D01*
X038201Y007192D02*
X037799Y007192D01*
X037898Y007291D02*
X038102Y007291D01*
X038046Y007389D02*
X037954Y007389D01*
X037995Y007488D02*
X038005Y007488D01*
X038000Y007586D02*
X038000Y007586D01*
X038000Y007685D02*
X038000Y007685D01*
X037965Y007783D02*
X038035Y007783D01*
X038075Y007882D02*
X037925Y007882D01*
X037827Y007980D02*
X038173Y007980D01*
X038349Y008079D02*
X037651Y008079D01*
X037599Y008100D02*
X037401Y008100D01*
X037217Y008176D01*
X037076Y008317D01*
X037046Y008390D01*
X036413Y008390D01*
X036290Y008513D01*
X035413Y009390D01*
X010913Y009390D01*
X010413Y009890D01*
X010290Y010013D01*
X010290Y010102D01*
X010194Y010142D01*
X010042Y010294D01*
X010000Y010396D01*
X009958Y010294D01*
X009806Y010142D01*
X009710Y010102D01*
X009710Y009687D01*
X010087Y009310D01*
X035087Y009310D01*
X035210Y009187D01*
X036587Y007810D01*
X037046Y007810D01*
X037076Y007883D01*
X037217Y008024D01*
X037401Y008100D01*
X037599Y008100D01*
X037784Y008177D02*
X038216Y008177D01*
X038117Y008276D02*
X037883Y008276D01*
X037948Y008374D02*
X038052Y008374D01*
X038012Y008473D02*
X037988Y008473D01*
X038000Y008571D02*
X038000Y008571D01*
X038000Y008670D02*
X038000Y008670D01*
X037972Y008768D02*
X038028Y008768D01*
X038069Y008867D02*
X037931Y008867D01*
X037842Y008965D02*
X038158Y008965D01*
X038312Y009064D02*
X037688Y009064D01*
X037599Y009100D02*
X037401Y009100D01*
X037599Y009100D01*
X037749Y009162D02*
X038251Y009162D01*
X038132Y009261D02*
X037868Y009261D01*
X037941Y009359D02*
X038059Y009359D01*
X038018Y009458D02*
X037982Y009458D01*
X038000Y009556D02*
X038000Y009556D01*
X038000Y009655D02*
X038000Y009655D01*
X037978Y009753D02*
X038022Y009753D01*
X038063Y009852D02*
X037937Y009852D01*
X037857Y009950D02*
X038143Y009950D01*
X038276Y010049D02*
X037724Y010049D01*
X037713Y010147D02*
X038287Y010147D01*
X038401Y010100D02*
X038599Y010100D01*
X038783Y010024D01*
X038790Y010017D01*
X038790Y010183D01*
X038783Y010176D01*
X038599Y010100D01*
X038401Y010100D01*
X038147Y010246D02*
X037853Y010246D01*
X037935Y010344D02*
X038065Y010344D01*
X038024Y010443D02*
X037976Y010443D01*
X038000Y010541D02*
X038000Y010541D01*
X038000Y010640D02*
X038000Y010640D01*
X037984Y010738D02*
X038016Y010738D01*
X038057Y010837D02*
X037943Y010837D01*
X037872Y010935D02*
X038128Y010935D01*
X038240Y011034D02*
X037760Y011034D01*
X037677Y011132D02*
X038323Y011132D01*
X038401Y011100D02*
X038599Y011100D01*
X038783Y011024D01*
X038790Y011017D01*
X038790Y011183D01*
X038783Y011176D01*
X038599Y011100D01*
X038401Y011100D01*
X038162Y011231D02*
X037838Y011231D01*
X037929Y011329D02*
X038071Y011329D01*
X038030Y011428D02*
X037970Y011428D01*
X038000Y011526D02*
X038000Y011526D01*
X038000Y011625D02*
X038000Y011625D01*
X037990Y011723D02*
X038010Y011723D01*
X038051Y011822D02*
X037949Y011822D01*
X037887Y011920D02*
X038113Y011920D01*
X038211Y012019D02*
X037789Y012019D01*
X037641Y012117D02*
X038359Y012117D01*
X038401Y012100D02*
X038599Y012100D01*
X038401Y012100D01*
X038599Y012100D02*
X038776Y012027D01*
X038673Y012130D01*
X038599Y012100D01*
X038641Y012117D02*
X038686Y012117D01*
X038984Y012413D02*
X039500Y012413D01*
X039500Y012511D02*
X039000Y012511D01*
X039000Y012610D02*
X039500Y012610D01*
X039500Y012708D02*
X038996Y012708D01*
X038956Y012807D02*
X039500Y012807D01*
X039500Y012905D02*
X038902Y012905D01*
X038804Y013004D02*
X039500Y013004D01*
X039500Y013102D02*
X038604Y013102D01*
X038396Y013102D02*
X037604Y013102D01*
X037599Y013100D02*
X037401Y013100D01*
X037217Y013176D01*
X037076Y013317D01*
X037046Y013390D01*
X015782Y013390D01*
X015702Y013310D01*
X036087Y013310D01*
X036210Y013187D01*
X036587Y012810D01*
X037046Y012810D01*
X037076Y012883D01*
X037217Y013024D01*
X037401Y013100D01*
X037599Y013100D01*
X037396Y013102D02*
X036295Y013102D01*
X036393Y013004D02*
X037196Y013004D01*
X037098Y012905D02*
X036492Y012905D01*
X036193Y012610D02*
X033040Y012610D01*
X033040Y012708D02*
X036095Y012708D01*
X035996Y012807D02*
X033040Y012807D01*
X033040Y012824D02*
X032974Y012890D01*
X035913Y012890D01*
X036290Y012513D01*
X036413Y012390D01*
X037046Y012390D01*
X037076Y012317D01*
X037217Y012176D01*
X037401Y012100D01*
X037599Y012100D01*
X037401Y012100D01*
X037217Y012024D01*
X037076Y011883D01*
X037046Y011810D01*
X036587Y011810D01*
X036210Y012187D01*
X036087Y012310D01*
X032974Y012310D01*
X033040Y012376D01*
X033040Y012824D01*
X033040Y012511D02*
X036292Y012511D01*
X036390Y012413D02*
X033040Y012413D01*
X032978Y012314D02*
X037079Y012314D01*
X037177Y012216D02*
X036181Y012216D01*
X036280Y012117D02*
X037359Y012117D01*
X037211Y012019D02*
X036378Y012019D01*
X036477Y011920D02*
X037113Y011920D01*
X037051Y011822D02*
X036575Y011822D01*
X036178Y011625D02*
X033040Y011625D01*
X033040Y011723D02*
X036080Y011723D01*
X035981Y011822D02*
X033040Y011822D01*
X033040Y011824D02*
X032974Y011890D01*
X035913Y011890D01*
X036413Y011390D01*
X037046Y011390D01*
X037076Y011317D01*
X037217Y011176D01*
X037401Y011100D01*
X037599Y011100D01*
X037401Y011100D01*
X037217Y011024D01*
X037076Y010883D01*
X037046Y010810D01*
X036587Y010810D01*
X036337Y011060D01*
X036337Y011060D01*
X036210Y011187D01*
X036087Y011310D01*
X032974Y011310D01*
X033040Y011376D01*
X033040Y011824D01*
X033040Y011526D02*
X036277Y011526D01*
X036375Y011428D02*
X033040Y011428D01*
X032993Y011329D02*
X037071Y011329D01*
X037162Y011231D02*
X036166Y011231D01*
X036265Y011132D02*
X037323Y011132D01*
X037240Y011034D02*
X036363Y011034D01*
X036462Y010935D02*
X037128Y010935D01*
X037057Y010837D02*
X036560Y010837D01*
X036262Y010541D02*
X033020Y010541D01*
X033020Y010550D02*
X032550Y010550D01*
X032550Y010650D01*
X033020Y010650D01*
X033020Y010815D01*
X032945Y010890D01*
X035913Y010890D01*
X036040Y010763D01*
X036413Y010390D01*
X037046Y010390D01*
X037076Y010317D01*
X037217Y010176D01*
X037401Y010100D01*
X037599Y010100D01*
X037401Y010100D01*
X037217Y010024D01*
X037076Y009883D01*
X037046Y009810D01*
X036587Y009810D01*
X036210Y010187D01*
X036087Y010310D01*
X032945Y010310D01*
X033020Y010385D01*
X033020Y010550D01*
X033020Y010443D02*
X036360Y010443D01*
X036163Y010640D02*
X032550Y010640D01*
X033020Y010738D02*
X036065Y010738D01*
X036040Y010763D02*
X036040Y010763D01*
X035966Y010837D02*
X032999Y010837D01*
X032979Y010344D02*
X037065Y010344D01*
X037147Y010246D02*
X036151Y010246D01*
X036250Y010147D02*
X037287Y010147D01*
X037276Y010049D02*
X036348Y010049D01*
X036447Y009950D02*
X037143Y009950D01*
X037063Y009852D02*
X036545Y009852D01*
X036247Y009556D02*
X035841Y009556D01*
X035939Y009458D02*
X036345Y009458D01*
X036290Y009513D02*
X036413Y009390D01*
X037046Y009390D01*
X037076Y009317D01*
X037217Y009176D01*
X037401Y009100D01*
X037217Y009024D01*
X037076Y008883D01*
X037046Y008810D01*
X036587Y008810D01*
X035710Y009687D01*
X035587Y009810D01*
X011087Y009810D01*
X010770Y010127D01*
X010806Y010142D01*
X010958Y010294D01*
X011000Y010396D01*
X011042Y010294D01*
X011194Y010142D01*
X011393Y010060D01*
X011607Y010060D01*
X011703Y010100D01*
X011913Y009890D01*
X035913Y009890D01*
X036290Y009513D01*
X036148Y009655D02*
X035742Y009655D01*
X035644Y009753D02*
X036050Y009753D01*
X035951Y009852D02*
X011045Y009852D01*
X010947Y009950D02*
X011853Y009950D01*
X011754Y010049D02*
X010848Y010049D01*
X010811Y010147D02*
X011189Y010147D01*
X011091Y010246D02*
X010909Y010246D01*
X010978Y010344D02*
X011022Y010344D01*
X011013Y010837D02*
X010987Y010837D01*
X010929Y010935D02*
X011071Y010935D01*
X011170Y011034D02*
X010830Y011034D01*
X010627Y011132D02*
X011373Y011132D01*
X011627Y011132D02*
X012373Y011132D01*
X012170Y011034D02*
X011830Y011034D01*
X011929Y010935D02*
X012071Y010935D01*
X012013Y010837D02*
X011987Y010837D01*
X012627Y011132D02*
X012735Y011132D01*
X012834Y011231D02*
X009676Y011231D01*
X009720Y011329D02*
X010648Y011329D01*
X010373Y011132D02*
X009627Y011132D01*
X009830Y011034D02*
X010170Y011034D01*
X010071Y010935D02*
X009929Y010935D01*
X009987Y010837D02*
X010013Y010837D01*
X010022Y010344D02*
X009978Y010344D01*
X009909Y010246D02*
X010091Y010246D01*
X010189Y010147D02*
X009811Y010147D01*
X009710Y010049D02*
X010290Y010049D01*
X010353Y009950D02*
X009710Y009950D01*
X009710Y009852D02*
X010451Y009852D01*
X010550Y009753D02*
X009710Y009753D01*
X009742Y009655D02*
X010648Y009655D01*
X010747Y009556D02*
X009841Y009556D01*
X009939Y009458D02*
X010845Y009458D01*
X010038Y009359D02*
X035444Y009359D01*
X035542Y009261D02*
X035136Y009261D01*
X035235Y009162D02*
X035641Y009162D01*
X035739Y009064D02*
X035333Y009064D01*
X035432Y008965D02*
X035838Y008965D01*
X035936Y008867D02*
X035530Y008867D01*
X035629Y008768D02*
X036035Y008768D01*
X036133Y008670D02*
X035727Y008670D01*
X035826Y008571D02*
X036232Y008571D01*
X036330Y008473D02*
X035924Y008473D01*
X036023Y008374D02*
X037052Y008374D01*
X037117Y008276D02*
X036121Y008276D01*
X036220Y008177D02*
X037216Y008177D01*
X037349Y008079D02*
X036318Y008079D01*
X036417Y007980D02*
X037173Y007980D01*
X037075Y007882D02*
X036515Y007882D01*
X035921Y007882D02*
X034774Y007882D01*
X034848Y007980D02*
X035823Y007980D01*
X035724Y008079D02*
X034848Y008079D01*
X034848Y008177D02*
X035626Y008177D01*
X035527Y008276D02*
X034817Y008276D01*
X034766Y008374D02*
X035429Y008374D01*
X035330Y008473D02*
X034848Y008473D01*
X034848Y008571D02*
X035232Y008571D01*
X035133Y008670D02*
X034848Y008670D01*
X034824Y008768D02*
X035035Y008768D01*
X034936Y008867D02*
X034726Y008867D01*
X036038Y009359D02*
X037059Y009359D01*
X037132Y009261D02*
X036136Y009261D01*
X036235Y009162D02*
X037251Y009162D01*
X037312Y009064D02*
X036333Y009064D01*
X036432Y008965D02*
X037158Y008965D01*
X037069Y008867D02*
X036530Y008867D01*
X038401Y009100D02*
X038599Y009100D01*
X038783Y009024D01*
X038790Y009017D01*
X038790Y009183D01*
X038783Y009176D01*
X038599Y009100D01*
X038401Y009100D01*
X038688Y009064D02*
X038790Y009064D01*
X038790Y009162D02*
X038749Y009162D01*
X039210Y009162D02*
X039500Y009162D01*
X039500Y009064D02*
X039210Y009064D01*
X039210Y008965D02*
X039500Y008965D01*
X039500Y008867D02*
X039210Y008867D01*
X039210Y008768D02*
X039500Y008768D01*
X039500Y008670D02*
X039210Y008670D01*
X039210Y008571D02*
X039500Y008571D01*
X039500Y008473D02*
X039210Y008473D01*
X039210Y008374D02*
X039500Y008374D01*
X039500Y008276D02*
X039210Y008276D01*
X039210Y008177D02*
X039500Y008177D01*
X039500Y008079D02*
X039210Y008079D01*
X039210Y007980D02*
X039500Y007980D01*
X039500Y007882D02*
X039210Y007882D01*
X039210Y007783D02*
X039500Y007783D01*
X039500Y007685D02*
X039210Y007685D01*
X039210Y007586D02*
X039500Y007586D01*
X039500Y007488D02*
X039210Y007488D01*
X039210Y007389D02*
X039500Y007389D01*
X039500Y007291D02*
X039210Y007291D01*
X039210Y007192D02*
X039500Y007192D01*
X039500Y007094D02*
X039210Y007094D01*
X039210Y006995D02*
X039500Y006995D01*
X039500Y006897D02*
X039210Y006897D01*
X039210Y006798D02*
X039500Y006798D01*
X039500Y006700D02*
X039210Y006700D01*
X039210Y006601D02*
X039500Y006601D01*
X039500Y006503D02*
X039210Y006503D01*
X039210Y006404D02*
X039500Y006404D01*
X039500Y006306D02*
X039210Y006306D01*
X039210Y006207D02*
X039500Y006207D01*
X039500Y006109D02*
X039210Y006109D01*
X039210Y006010D02*
X039500Y006010D01*
X039500Y005912D02*
X039210Y005912D01*
X039210Y005813D02*
X039500Y005813D01*
X039500Y005715D02*
X039210Y005715D01*
X039210Y005616D02*
X039500Y005616D01*
X039500Y005518D02*
X039210Y005518D01*
X039210Y005419D02*
X039500Y005419D01*
X039500Y005321D02*
X039210Y005321D01*
X039210Y005222D02*
X039500Y005222D01*
X039500Y005124D02*
X039210Y005124D01*
X038790Y006017D02*
X038783Y006024D01*
X038599Y006100D01*
X038401Y006100D01*
X038599Y006100D01*
X038783Y006176D01*
X038790Y006183D01*
X038790Y006017D01*
X038790Y006109D02*
X038620Y006109D01*
X038380Y006109D02*
X037620Y006109D01*
X038783Y007024D02*
X038790Y007017D01*
X038790Y007183D01*
X038783Y007176D01*
X038599Y007100D01*
X038401Y007100D01*
X038599Y007100D01*
X038783Y007024D01*
X038790Y007094D02*
X038615Y007094D01*
X038385Y007094D02*
X037615Y007094D01*
X038401Y008100D02*
X038599Y008100D01*
X038783Y008024D01*
X038790Y008017D01*
X038790Y008183D01*
X038783Y008176D01*
X038599Y008100D01*
X038401Y008100D01*
X038651Y008079D02*
X038790Y008079D01*
X038784Y008177D02*
X038790Y008177D01*
X039210Y009261D02*
X039500Y009261D01*
X039500Y009359D02*
X039210Y009359D01*
X039210Y009458D02*
X039500Y009458D01*
X039500Y009556D02*
X039210Y009556D01*
X039210Y009655D02*
X039500Y009655D01*
X039500Y009753D02*
X039210Y009753D01*
X039210Y009852D02*
X039500Y009852D01*
X039500Y009950D02*
X039210Y009950D01*
X039210Y010049D02*
X039500Y010049D01*
X039500Y010147D02*
X039210Y010147D01*
X039210Y010246D02*
X039500Y010246D01*
X039500Y010344D02*
X039210Y010344D01*
X039210Y010443D02*
X039500Y010443D01*
X039500Y010541D02*
X039210Y010541D01*
X039210Y010640D02*
X039500Y010640D01*
X039500Y010738D02*
X039210Y010738D01*
X039210Y010837D02*
X039500Y010837D01*
X039500Y010935D02*
X039210Y010935D01*
X039210Y011034D02*
X039500Y011034D01*
X039500Y011132D02*
X039210Y011132D01*
X039210Y011231D02*
X039500Y011231D01*
X039500Y011329D02*
X039210Y011329D01*
X039210Y011428D02*
X039500Y011428D01*
X039500Y011526D02*
X039210Y011526D01*
X039210Y011625D02*
X039500Y011625D01*
X039500Y011723D02*
X039210Y011723D01*
X039210Y011822D02*
X039500Y011822D01*
X039500Y011920D02*
X039210Y011920D01*
X039210Y012019D02*
X039500Y012019D01*
X039500Y012117D02*
X039210Y012117D01*
X039181Y012216D02*
X039500Y012216D01*
X039500Y012314D02*
X039083Y012314D01*
X038177Y012216D02*
X037823Y012216D01*
X037921Y012314D02*
X038079Y012314D01*
X038036Y012413D02*
X037964Y012413D01*
X038000Y012511D02*
X038000Y012511D01*
X038000Y012610D02*
X038000Y012610D01*
X037996Y012708D02*
X038004Y012708D01*
X038044Y012807D02*
X037956Y012807D01*
X037902Y012905D02*
X038098Y012905D01*
X038196Y013004D02*
X037804Y013004D01*
X037808Y013201D02*
X038192Y013201D01*
X038094Y013299D02*
X037906Y013299D01*
X037957Y013398D02*
X038043Y013398D01*
X038002Y013496D02*
X037998Y013496D01*
X038000Y013501D02*
X038000Y013699D01*
X038000Y013501D01*
X038000Y013595D02*
X038000Y013595D01*
X038000Y013693D02*
X038000Y013693D01*
X038000Y013699D02*
X038030Y013773D01*
X037927Y013876D01*
X038000Y013699D01*
X038011Y013792D02*
X037962Y013792D01*
X038310Y014087D02*
X038369Y014087D01*
X038401Y014100D02*
X038599Y014100D01*
X038401Y014100D01*
X038224Y014173D01*
X038327Y014070D01*
X038401Y014100D01*
X038631Y014087D02*
X039500Y014087D01*
X039500Y013989D02*
X038819Y013989D01*
X038917Y013890D02*
X039500Y013890D01*
X039500Y013792D02*
X038962Y013792D01*
X039000Y013693D02*
X039500Y013693D01*
X039500Y013595D02*
X039000Y013595D01*
X038998Y013496D02*
X039500Y013496D01*
X039500Y013398D02*
X038957Y013398D01*
X038906Y013299D02*
X039500Y013299D01*
X039500Y013201D02*
X038808Y013201D01*
X038793Y014186D02*
X039500Y014186D01*
X039500Y014284D02*
X038891Y014284D01*
X038951Y014383D02*
X039500Y014383D01*
X039500Y014481D02*
X038992Y014481D01*
X039000Y014580D02*
X039500Y014580D01*
X039500Y014678D02*
X039000Y014678D01*
X038968Y014777D02*
X039500Y014777D01*
X039500Y014875D02*
X038927Y014875D01*
X038834Y014974D02*
X039500Y014974D01*
X039500Y015072D02*
X038667Y015072D01*
X038333Y015072D02*
X037667Y015072D01*
X037834Y014974D02*
X038166Y014974D01*
X038073Y014875D02*
X037927Y014875D01*
X037968Y014777D02*
X038032Y014777D01*
X038000Y014699D02*
X038000Y014501D01*
X038000Y014699D01*
X038000Y014678D02*
X038000Y014678D01*
X038000Y014580D02*
X038000Y014580D01*
X038000Y014501D02*
X037924Y014317D01*
X037917Y014310D01*
X038083Y014310D01*
X038076Y014317D01*
X038000Y014501D01*
X037992Y014481D02*
X038008Y014481D01*
X038049Y014383D02*
X037951Y014383D01*
X037073Y014875D02*
X033710Y014875D01*
X033710Y014777D02*
X037032Y014777D01*
X037000Y014678D02*
X033719Y014678D01*
X033817Y014580D02*
X037000Y014580D01*
X037008Y014481D02*
X033916Y014481D01*
X034014Y014383D02*
X037049Y014383D01*
X037166Y014974D02*
X033710Y014974D01*
X033710Y015072D02*
X037333Y015072D01*
X038018Y015817D02*
X038159Y015817D01*
X039033Y016691D01*
X039033Y016832D01*
X038159Y017706D01*
X038018Y017706D01*
X037144Y016832D01*
X037144Y016691D01*
X038018Y015817D01*
X037975Y015860D02*
X033710Y015860D01*
X033710Y015762D02*
X039500Y015762D01*
X039500Y015860D02*
X038202Y015860D01*
X038300Y015959D02*
X039500Y015959D01*
X039500Y016057D02*
X038399Y016057D01*
X038497Y016156D02*
X039500Y016156D01*
X039500Y016254D02*
X038596Y016254D01*
X038694Y016353D02*
X039500Y016353D01*
X039500Y016451D02*
X038793Y016451D01*
X038891Y016550D02*
X039500Y016550D01*
X039500Y016648D02*
X038990Y016648D01*
X039033Y016747D02*
X039500Y016747D01*
X039500Y016845D02*
X039020Y016845D01*
X038921Y016944D02*
X039500Y016944D01*
X039500Y017042D02*
X038823Y017042D01*
X038724Y017141D02*
X039500Y017141D01*
X039500Y017239D02*
X038626Y017239D01*
X038527Y017338D02*
X039500Y017338D01*
X039500Y017436D02*
X038429Y017436D01*
X038330Y017535D02*
X039500Y017535D01*
X039500Y017633D02*
X038232Y017633D01*
X037945Y017633D02*
X037616Y017633D01*
X037518Y017535D02*
X037847Y017535D01*
X037748Y017436D02*
X037343Y017436D01*
X037381Y017398D02*
X036250Y018529D01*
X036321Y018600D01*
X037452Y017469D01*
X038491Y018508D01*
X038511Y018542D01*
X038521Y018580D01*
X038521Y018620D01*
X038511Y018658D01*
X038491Y018692D01*
X037452Y019731D01*
X036321Y018600D01*
X036250Y018671D01*
X036179Y018600D01*
X035048Y019731D01*
X034009Y018692D01*
X033989Y018658D01*
X033979Y018620D01*
X033979Y018580D01*
X033989Y018542D01*
X034009Y018508D01*
X035048Y017469D01*
X036179Y018600D01*
X036250Y018529D01*
X035119Y017398D01*
X036158Y016359D01*
X036192Y016339D01*
X036230Y016329D01*
X036270Y016329D01*
X036308Y016339D01*
X036342Y016359D01*
X037381Y017398D01*
X037321Y017338D02*
X037650Y017338D01*
X037551Y017239D02*
X037222Y017239D01*
X037124Y017141D02*
X037453Y017141D01*
X037354Y017042D02*
X037025Y017042D01*
X036927Y016944D02*
X037256Y016944D01*
X037157Y016845D02*
X036828Y016845D01*
X036730Y016747D02*
X037144Y016747D01*
X037187Y016648D02*
X036631Y016648D01*
X036533Y016550D02*
X037286Y016550D01*
X037384Y016451D02*
X036434Y016451D01*
X036332Y016353D02*
X037483Y016353D01*
X037581Y016254D02*
X033710Y016254D01*
X033710Y016156D02*
X037680Y016156D01*
X037778Y016057D02*
X033710Y016057D01*
X033710Y015959D02*
X037877Y015959D01*
X039500Y015663D02*
X033710Y015663D01*
X033710Y015565D02*
X039500Y015565D01*
X039500Y015466D02*
X033710Y015466D01*
X033710Y015368D02*
X039500Y015368D01*
X039500Y015269D02*
X033710Y015269D01*
X033710Y015171D02*
X039500Y015171D01*
X037192Y013201D02*
X036196Y013201D01*
X036098Y013299D02*
X037094Y013299D01*
X038677Y011132D02*
X038790Y011132D01*
X038790Y011034D02*
X038760Y011034D01*
X038790Y010147D02*
X038713Y010147D01*
X038724Y010049D02*
X038790Y010049D01*
X032111Y013810D02*
X032002Y013855D01*
X031755Y014102D01*
X031621Y014425D01*
X031621Y014775D01*
X031755Y015098D01*
X032002Y015345D01*
X032325Y015479D01*
X032675Y015479D01*
X032998Y015345D01*
X033245Y015098D01*
X033290Y014989D01*
X033290Y015890D01*
X031101Y015890D01*
X029091Y013880D01*
X028909Y013880D01*
X028899Y013890D01*
X015702Y013890D01*
X015782Y013810D01*
X032111Y013810D01*
X031967Y013890D02*
X029101Y013890D01*
X029200Y013989D02*
X031869Y013989D01*
X031770Y014087D02*
X029298Y014087D01*
X029397Y014186D02*
X031721Y014186D01*
X031680Y014284D02*
X029495Y014284D01*
X029594Y014383D02*
X031639Y014383D01*
X031621Y014481D02*
X029692Y014481D01*
X029791Y014580D02*
X031621Y014580D01*
X031621Y014678D02*
X029889Y014678D01*
X029988Y014777D02*
X031622Y014777D01*
X031663Y014875D02*
X030086Y014875D01*
X030185Y014974D02*
X031704Y014974D01*
X031744Y015072D02*
X030283Y015072D01*
X030382Y015171D02*
X031828Y015171D01*
X031926Y015269D02*
X030480Y015269D01*
X030579Y015368D02*
X032057Y015368D01*
X032295Y015466D02*
X030677Y015466D01*
X030776Y015565D02*
X033290Y015565D01*
X033290Y015663D02*
X030874Y015663D01*
X030973Y015762D02*
X033290Y015762D01*
X033290Y015860D02*
X031071Y015860D01*
X031000Y016100D02*
X029000Y014100D01*
X028971Y014383D02*
X015210Y014383D01*
X014790Y014383D02*
X014290Y014383D01*
X014290Y014481D02*
X029070Y014481D01*
X029168Y014580D02*
X014290Y014580D01*
X014290Y014678D02*
X029267Y014678D01*
X029365Y014777D02*
X014290Y014777D01*
X014290Y014875D02*
X029464Y014875D01*
X029562Y014974D02*
X014290Y014974D01*
X014290Y015072D02*
X029661Y015072D01*
X029759Y015171D02*
X014290Y015171D01*
X014290Y015269D02*
X029858Y015269D01*
X029956Y015368D02*
X014290Y015368D01*
X014290Y015466D02*
X030055Y015466D01*
X030153Y015565D02*
X014290Y015565D01*
X014290Y015663D02*
X030252Y015663D01*
X030350Y015762D02*
X014290Y015762D01*
X014290Y015860D02*
X030449Y015860D01*
X030547Y015959D02*
X014290Y015959D01*
X014290Y016057D02*
X030646Y016057D01*
X030744Y016156D02*
X014290Y016156D01*
X014250Y016254D02*
X019854Y016254D01*
X019755Y016353D02*
X014158Y016353D01*
X014059Y016451D02*
X019657Y016451D01*
X019652Y016550D02*
X013961Y016550D01*
X013862Y016648D02*
X019652Y016648D01*
X019654Y016747D02*
X013764Y016747D01*
X013665Y016845D02*
X017763Y016845D01*
X017664Y016944D02*
X013567Y016944D01*
X013468Y017042D02*
X017652Y017042D01*
X017652Y017141D02*
X013370Y017141D01*
X013271Y017239D02*
X017652Y017239D01*
X017745Y017338D02*
X013173Y017338D01*
X013074Y017436D02*
X017844Y017436D01*
X018156Y017436D02*
X018672Y017436D01*
X018652Y017535D02*
X012976Y017535D01*
X012877Y017633D02*
X018652Y017633D01*
X018652Y017732D02*
X014297Y017732D01*
X014300Y017830D02*
X018738Y017830D01*
X018836Y017929D02*
X018126Y017929D01*
X018224Y018027D02*
X021331Y018027D01*
X021232Y018126D02*
X018323Y018126D01*
X018024Y018421D02*
X015210Y018421D01*
X015210Y018323D02*
X017926Y018323D01*
X018123Y018520D02*
X015210Y018520D01*
X015210Y018618D02*
X021276Y018618D01*
X021724Y018618D02*
X033290Y018618D01*
X033290Y018520D02*
X021823Y018520D01*
X021848Y018421D02*
X033290Y018421D01*
X033290Y018323D02*
X021848Y018323D01*
X021848Y018224D02*
X033290Y018224D01*
X033290Y018126D02*
X021768Y018126D01*
X021669Y018027D02*
X033290Y018027D01*
X033290Y017929D02*
X032664Y017929D01*
X032762Y017830D02*
X033290Y017830D01*
X033290Y017732D02*
X032848Y017732D01*
X032848Y017633D02*
X033290Y017633D01*
X033290Y017535D02*
X032848Y017535D01*
X032828Y017436D02*
X033290Y017436D01*
X033290Y017338D02*
X032730Y017338D01*
X032348Y017239D02*
X033290Y017239D01*
X033290Y017141D02*
X032348Y017141D01*
X032348Y017042D02*
X033290Y017042D01*
X033290Y016944D02*
X033149Y016944D01*
X033247Y016845D02*
X033290Y016845D01*
X033710Y016845D02*
X035672Y016845D01*
X035770Y016747D02*
X033710Y016747D01*
X033710Y016648D02*
X035869Y016648D01*
X035967Y016550D02*
X033710Y016550D01*
X033710Y016451D02*
X036066Y016451D01*
X036168Y016353D02*
X033710Y016353D01*
X033710Y016944D02*
X035573Y016944D01*
X035475Y017042D02*
X033710Y017042D01*
X033710Y017141D02*
X035376Y017141D01*
X035278Y017239D02*
X033710Y017239D01*
X033710Y017338D02*
X035179Y017338D01*
X035157Y017436D02*
X033710Y017436D01*
X033710Y017535D02*
X034982Y017535D01*
X035114Y017535D02*
X035255Y017535D01*
X035212Y017633D02*
X035354Y017633D01*
X035311Y017732D02*
X035452Y017732D01*
X035409Y017830D02*
X035551Y017830D01*
X035508Y017929D02*
X035649Y017929D01*
X035606Y018027D02*
X035748Y018027D01*
X035705Y018126D02*
X035846Y018126D01*
X035803Y018224D02*
X035945Y018224D01*
X035902Y018323D02*
X036043Y018323D01*
X036000Y018421D02*
X036142Y018421D01*
X036099Y018520D02*
X036240Y018520D01*
X036260Y018520D02*
X036401Y018520D01*
X036358Y018421D02*
X036500Y018421D01*
X036457Y018323D02*
X036598Y018323D01*
X036555Y018224D02*
X036697Y018224D01*
X036654Y018126D02*
X036795Y018126D01*
X036752Y018027D02*
X036894Y018027D01*
X036851Y017929D02*
X036992Y017929D01*
X036949Y017830D02*
X037091Y017830D01*
X037048Y017732D02*
X037189Y017732D01*
X037146Y017633D02*
X037288Y017633D01*
X037245Y017535D02*
X037386Y017535D01*
X037715Y017732D02*
X039500Y017732D01*
X039500Y017830D02*
X037813Y017830D01*
X037912Y017929D02*
X039500Y017929D01*
X039500Y018027D02*
X038010Y018027D01*
X038109Y018126D02*
X039500Y018126D01*
X039500Y018224D02*
X038207Y018224D01*
X038306Y018323D02*
X039500Y018323D01*
X039500Y018421D02*
X038404Y018421D01*
X038498Y018520D02*
X039500Y018520D01*
X039500Y018618D02*
X038521Y018618D01*
X038467Y018717D02*
X039500Y018717D01*
X039500Y018815D02*
X038368Y018815D01*
X038270Y018914D02*
X039500Y018914D01*
X039500Y019012D02*
X038171Y019012D01*
X038073Y019111D02*
X039500Y019111D01*
X039500Y019209D02*
X037974Y019209D01*
X037876Y019308D02*
X039500Y019308D01*
X039500Y019406D02*
X037777Y019406D01*
X037679Y019505D02*
X039500Y019505D01*
X039500Y019603D02*
X037580Y019603D01*
X037482Y019702D02*
X039500Y019702D01*
X039500Y019800D02*
X037379Y019800D01*
X037381Y019802D02*
X036342Y020841D01*
X036308Y020861D01*
X036270Y020871D01*
X036230Y020871D01*
X036192Y020861D01*
X036158Y020841D01*
X035119Y019802D01*
X036250Y018671D01*
X037381Y019802D01*
X037422Y019702D02*
X037281Y019702D01*
X037324Y019603D02*
X037182Y019603D01*
X037225Y019505D02*
X037084Y019505D01*
X037127Y019406D02*
X036985Y019406D01*
X037028Y019308D02*
X036887Y019308D01*
X036930Y019209D02*
X036788Y019209D01*
X036831Y019111D02*
X036690Y019111D01*
X036733Y019012D02*
X036591Y019012D01*
X036634Y018914D02*
X036493Y018914D01*
X036536Y018815D02*
X036394Y018815D01*
X036437Y018717D02*
X036296Y018717D01*
X036204Y018717D02*
X036063Y018717D01*
X036106Y018815D02*
X035964Y018815D01*
X036007Y018914D02*
X035866Y018914D01*
X035909Y019012D02*
X035767Y019012D01*
X035810Y019111D02*
X035669Y019111D01*
X035712Y019209D02*
X035570Y019209D01*
X035613Y019308D02*
X035472Y019308D01*
X035515Y019406D02*
X035373Y019406D01*
X035416Y019505D02*
X035275Y019505D01*
X035318Y019603D02*
X035176Y019603D01*
X035219Y019702D02*
X035078Y019702D01*
X035018Y019702D02*
X034689Y019702D01*
X034788Y019800D02*
X035121Y019800D01*
X035215Y019899D02*
X034886Y019899D01*
X034985Y019997D02*
X035314Y019997D01*
X035412Y020096D02*
X035083Y020096D01*
X035182Y020194D02*
X035511Y020194D01*
X035609Y020293D02*
X035280Y020293D01*
X035356Y020391D02*
X035708Y020391D01*
X035806Y020490D02*
X035356Y020490D01*
X035277Y020588D02*
X035905Y020588D01*
X036003Y020687D02*
X035178Y020687D01*
X035080Y020785D02*
X036102Y020785D01*
X036398Y020785D02*
X039500Y020785D01*
X039500Y020687D02*
X036497Y020687D01*
X036595Y020588D02*
X039500Y020588D01*
X039500Y020490D02*
X036694Y020490D01*
X036792Y020391D02*
X039500Y020391D01*
X039500Y020293D02*
X036891Y020293D01*
X036989Y020194D02*
X039500Y020194D01*
X039500Y020096D02*
X037088Y020096D01*
X037186Y019997D02*
X039500Y019997D01*
X039500Y019899D02*
X037285Y019899D01*
X036339Y018618D02*
X036303Y018618D01*
X036197Y018618D02*
X036161Y018618D01*
X034723Y019406D02*
X033710Y019406D01*
X033710Y019308D02*
X034624Y019308D01*
X034526Y019209D02*
X033710Y019209D01*
X033710Y019111D02*
X034427Y019111D01*
X034329Y019012D02*
X033710Y019012D01*
X033710Y018914D02*
X034230Y018914D01*
X034132Y018815D02*
X033710Y018815D01*
X033710Y018717D02*
X034033Y018717D01*
X033979Y018618D02*
X033710Y018618D01*
X033710Y018520D02*
X034002Y018520D01*
X034096Y018421D02*
X033710Y018421D01*
X033710Y018323D02*
X034194Y018323D01*
X034293Y018224D02*
X033710Y018224D01*
X033710Y018126D02*
X034391Y018126D01*
X034490Y018027D02*
X033710Y018027D01*
X033710Y017929D02*
X034588Y017929D01*
X034687Y017830D02*
X033710Y017830D01*
X033710Y017732D02*
X034785Y017732D01*
X034884Y017633D02*
X033710Y017633D01*
X032851Y016944D02*
X032336Y016944D01*
X032237Y016845D02*
X032753Y016845D01*
X032755Y016353D02*
X020245Y016353D01*
X020146Y016254D02*
X030843Y016254D01*
X032255Y017338D02*
X032270Y017338D01*
X032238Y017830D02*
X019262Y017830D01*
X019164Y017929D02*
X032336Y017929D01*
X033290Y018717D02*
X015210Y018717D01*
X015210Y018815D02*
X015293Y018815D01*
X015707Y018815D02*
X022293Y018815D01*
X022707Y018815D02*
X033290Y018815D01*
X033290Y018914D02*
X022806Y018914D01*
X022848Y019012D02*
X033290Y019012D01*
X033290Y019111D02*
X022848Y019111D01*
X022848Y019209D02*
X033290Y019209D01*
X033290Y019308D02*
X022785Y019308D01*
X022686Y019406D02*
X033290Y019406D01*
X033290Y019505D02*
X015210Y019505D01*
X015210Y019603D02*
X033290Y019603D01*
X033378Y019702D02*
X015210Y019702D01*
X015210Y019800D02*
X033476Y019800D01*
X033575Y019899D02*
X015210Y019899D01*
X015210Y019997D02*
X033673Y019997D01*
X033740Y020096D02*
X031976Y020096D01*
X031940Y020060D02*
X032040Y020160D01*
X032040Y021040D01*
X031940Y021140D01*
X031060Y021140D01*
X030960Y021040D01*
X030960Y020901D01*
X030958Y020906D01*
X030806Y021058D01*
X030607Y021140D01*
X030393Y021140D01*
X030194Y021058D01*
X030042Y020906D01*
X030000Y020804D01*
X029958Y020906D01*
X029806Y021058D01*
X029607Y021140D01*
X029393Y021140D01*
X029194Y021058D01*
X029042Y020906D01*
X029000Y020804D01*
X028958Y020906D01*
X028806Y021058D01*
X028607Y021140D01*
X028393Y021140D01*
X028194Y021058D01*
X028042Y020906D01*
X028000Y020804D01*
X027958Y020906D01*
X027806Y021058D01*
X027607Y021140D01*
X027393Y021140D01*
X027194Y021058D01*
X027042Y020906D01*
X027000Y020804D01*
X026958Y020906D01*
X026806Y021058D01*
X026607Y021140D01*
X026393Y021140D01*
X026194Y021058D01*
X026042Y020906D01*
X026000Y020804D01*
X025958Y020906D01*
X025806Y021058D01*
X025607Y021140D01*
X025393Y021140D01*
X025194Y021058D01*
X025042Y020906D01*
X025000Y020804D01*
X024958Y020906D01*
X024806Y021058D01*
X024607Y021140D01*
X024393Y021140D01*
X024194Y021058D01*
X024042Y020906D01*
X023960Y020707D01*
X023960Y020493D01*
X024042Y020294D01*
X024194Y020142D01*
X024393Y020060D01*
X024607Y020060D01*
X024806Y020142D01*
X024958Y020294D01*
X025000Y020396D01*
X025042Y020294D01*
X025194Y020142D01*
X025393Y020060D01*
X025607Y020060D01*
X025806Y020142D01*
X025958Y020294D01*
X026000Y020396D01*
X026042Y020294D01*
X026194Y020142D01*
X026393Y020060D01*
X026607Y020060D01*
X026806Y020142D01*
X026958Y020294D01*
X027000Y020396D01*
X027042Y020294D01*
X027194Y020142D01*
X027393Y020060D01*
X027607Y020060D01*
X027806Y020142D01*
X027958Y020294D01*
X028000Y020396D01*
X028042Y020294D01*
X028194Y020142D01*
X028393Y020060D01*
X028607Y020060D01*
X028806Y020142D01*
X028958Y020294D01*
X029000Y020396D01*
X029042Y020294D01*
X029194Y020142D01*
X029393Y020060D01*
X029607Y020060D01*
X029806Y020142D01*
X029958Y020294D01*
X030000Y020396D01*
X030042Y020294D01*
X030194Y020142D01*
X030393Y020060D01*
X030607Y020060D01*
X030806Y020142D01*
X030958Y020294D01*
X030960Y020299D01*
X030960Y020160D01*
X031060Y020060D01*
X031940Y020060D01*
X032040Y020194D02*
X033641Y020194D01*
X033543Y020293D02*
X032040Y020293D01*
X032040Y020391D02*
X033467Y020391D01*
X033467Y020490D02*
X032040Y020490D01*
X032040Y020588D02*
X033546Y020588D01*
X033645Y020687D02*
X032040Y020687D01*
X032040Y020785D02*
X033743Y020785D01*
X033842Y020884D02*
X032040Y020884D01*
X032040Y020982D02*
X033940Y020982D01*
X034039Y021081D02*
X032000Y021081D01*
X031000Y021081D02*
X030751Y021081D01*
X030882Y020982D02*
X030960Y020982D01*
X030249Y021081D02*
X029751Y021081D01*
X029882Y020982D02*
X030118Y020982D01*
X030033Y020884D02*
X029967Y020884D01*
X029998Y020391D02*
X030002Y020391D01*
X030044Y020293D02*
X029956Y020293D01*
X029858Y020194D02*
X030142Y020194D01*
X030307Y020096D02*
X029693Y020096D01*
X029307Y020096D02*
X028693Y020096D01*
X028858Y020194D02*
X029142Y020194D01*
X029044Y020293D02*
X028956Y020293D01*
X028998Y020391D02*
X029002Y020391D01*
X029033Y020884D02*
X028967Y020884D01*
X028882Y020982D02*
X029118Y020982D01*
X029249Y021081D02*
X028751Y021081D01*
X028249Y021081D02*
X027751Y021081D01*
X027882Y020982D02*
X028118Y020982D01*
X028033Y020884D02*
X027967Y020884D01*
X027998Y020391D02*
X028002Y020391D01*
X028044Y020293D02*
X027956Y020293D01*
X027858Y020194D02*
X028142Y020194D01*
X028307Y020096D02*
X027693Y020096D01*
X027307Y020096D02*
X026693Y020096D01*
X026858Y020194D02*
X027142Y020194D01*
X027044Y020293D02*
X026956Y020293D01*
X026998Y020391D02*
X027002Y020391D01*
X027033Y020884D02*
X026967Y020884D01*
X026882Y020982D02*
X027118Y020982D01*
X027249Y021081D02*
X026751Y021081D01*
X026249Y021081D02*
X025751Y021081D01*
X025882Y020982D02*
X026118Y020982D01*
X026033Y020884D02*
X025967Y020884D01*
X025998Y020391D02*
X026002Y020391D01*
X026044Y020293D02*
X025956Y020293D01*
X025858Y020194D02*
X026142Y020194D01*
X026307Y020096D02*
X025693Y020096D01*
X025307Y020096D02*
X024693Y020096D01*
X024858Y020194D02*
X025142Y020194D01*
X025044Y020293D02*
X024956Y020293D01*
X024998Y020391D02*
X025002Y020391D01*
X025033Y020884D02*
X024967Y020884D01*
X024882Y020982D02*
X025118Y020982D01*
X025249Y021081D02*
X024751Y021081D01*
X024249Y021081D02*
X023151Y021081D01*
X023282Y020982D02*
X024118Y020982D01*
X024033Y020884D02*
X023367Y020884D01*
X023408Y020785D02*
X023992Y020785D01*
X023960Y020687D02*
X023440Y020687D01*
X023440Y020588D02*
X023960Y020588D01*
X023961Y020490D02*
X023439Y020490D01*
X023398Y020391D02*
X024002Y020391D01*
X024044Y020293D02*
X023356Y020293D01*
X023258Y020194D02*
X024142Y020194D01*
X024307Y020096D02*
X023093Y020096D01*
X022707Y020096D02*
X022093Y020096D01*
X022258Y020194D02*
X022542Y020194D01*
X022444Y020293D02*
X022356Y020293D01*
X022398Y020391D02*
X022402Y020391D01*
X022433Y020884D02*
X022367Y020884D01*
X022282Y020982D02*
X022518Y020982D01*
X022649Y021081D02*
X022151Y021081D01*
X021649Y021081D02*
X021151Y021081D01*
X021282Y020982D02*
X021518Y020982D01*
X021433Y020884D02*
X021367Y020884D01*
X021398Y020391D02*
X021402Y020391D01*
X021444Y020293D02*
X021356Y020293D01*
X021258Y020194D02*
X021542Y020194D01*
X021707Y020096D02*
X021093Y020096D01*
X020707Y020096D02*
X020093Y020096D01*
X020258Y020194D02*
X020542Y020194D01*
X020444Y020293D02*
X020356Y020293D01*
X020398Y020391D02*
X020402Y020391D01*
X020433Y020884D02*
X020367Y020884D01*
X020282Y020982D02*
X020518Y020982D01*
X020649Y021081D02*
X020151Y021081D01*
X019649Y021081D02*
X019151Y021081D01*
X019282Y020982D02*
X019518Y020982D01*
X019433Y020884D02*
X019367Y020884D01*
X019398Y020391D02*
X019402Y020391D01*
X019444Y020293D02*
X019356Y020293D01*
X019258Y020194D02*
X019542Y020194D01*
X019707Y020096D02*
X019093Y020096D01*
X018707Y020096D02*
X018093Y020096D01*
X018258Y020194D02*
X018542Y020194D01*
X018444Y020293D02*
X018356Y020293D01*
X018398Y020391D02*
X018402Y020391D01*
X018433Y020884D02*
X018367Y020884D01*
X018282Y020982D02*
X018518Y020982D01*
X018649Y021081D02*
X018151Y021081D01*
X017649Y021081D02*
X017102Y021081D01*
X016950Y021081D02*
X016850Y021081D01*
X016850Y020982D02*
X016950Y020982D01*
X016950Y020884D02*
X016850Y020884D01*
X016850Y020785D02*
X016950Y020785D01*
X016950Y020687D02*
X016850Y020687D01*
X016850Y020490D02*
X016950Y020490D01*
X016950Y020391D02*
X016850Y020391D01*
X016850Y020293D02*
X016950Y020293D01*
X016950Y020194D02*
X016850Y020194D01*
X016850Y020096D02*
X016950Y020096D01*
X017030Y020096D02*
X017707Y020096D01*
X017542Y020194D02*
X017226Y020194D01*
X017319Y020293D02*
X017444Y020293D01*
X017402Y020391D02*
X017377Y020391D01*
X017387Y020785D02*
X017392Y020785D01*
X017433Y020884D02*
X017337Y020884D01*
X017253Y020982D02*
X017518Y020982D01*
X016698Y021081D02*
X016151Y021081D01*
X016282Y020982D02*
X016547Y020982D01*
X016463Y020884D02*
X016367Y020884D01*
X016408Y020785D02*
X016413Y020785D01*
X016398Y020391D02*
X016423Y020391D01*
X016481Y020293D02*
X016356Y020293D01*
X016258Y020194D02*
X016574Y020194D01*
X016770Y020096D02*
X016093Y020096D01*
X015707Y020096D02*
X015210Y020096D01*
X015258Y020194D02*
X015542Y020194D01*
X015444Y020293D02*
X015356Y020293D01*
X015398Y020391D02*
X015402Y020391D01*
X015433Y020884D02*
X015367Y020884D01*
X015282Y020982D02*
X015518Y020982D01*
X015649Y021081D02*
X015151Y021081D01*
X014649Y021081D02*
X014151Y021081D01*
X014282Y020982D02*
X014518Y020982D01*
X014433Y020884D02*
X014367Y020884D01*
X014400Y020396D02*
X014442Y020294D01*
X014594Y020142D01*
X014790Y020061D01*
X014790Y018310D01*
X014300Y018310D01*
X014300Y018466D01*
X014200Y018565D01*
X013548Y018565D01*
X013500Y018518D01*
X013452Y018565D01*
X013416Y018565D01*
X013416Y018635D01*
X013452Y018635D01*
X013500Y018682D01*
X013548Y018635D01*
X014200Y018635D01*
X014300Y018734D01*
X014300Y019466D01*
X014200Y019565D01*
X014084Y019565D01*
X014084Y020092D01*
X014206Y020142D01*
X014358Y020294D01*
X014400Y020396D01*
X014398Y020391D02*
X014402Y020391D01*
X014444Y020293D02*
X014356Y020293D01*
X014258Y020194D02*
X014542Y020194D01*
X014707Y020096D02*
X014093Y020096D01*
X014084Y019997D02*
X014790Y019997D01*
X014790Y019899D02*
X014084Y019899D01*
X014084Y019800D02*
X014790Y019800D01*
X014790Y019702D02*
X014084Y019702D01*
X014084Y019603D02*
X014790Y019603D01*
X014790Y019505D02*
X014261Y019505D01*
X014300Y019406D02*
X014790Y019406D01*
X014790Y019308D02*
X014300Y019308D01*
X014300Y019209D02*
X014790Y019209D01*
X014790Y019111D02*
X014300Y019111D01*
X014300Y019012D02*
X014790Y019012D01*
X014790Y018914D02*
X014300Y018914D01*
X014300Y018815D02*
X014790Y018815D01*
X014790Y018717D02*
X014282Y018717D01*
X014246Y018520D02*
X014790Y018520D01*
X014790Y018618D02*
X013416Y018618D01*
X013498Y018520D02*
X013502Y018520D01*
X014300Y018421D02*
X014790Y018421D01*
X014790Y018323D02*
X014300Y018323D01*
X015210Y019308D02*
X015215Y019308D01*
X015210Y019406D02*
X015314Y019406D01*
X015686Y019406D02*
X022314Y019406D01*
X018770Y017338D02*
X018255Y017338D01*
X018237Y016845D02*
X019753Y016845D01*
X014692Y014284D02*
X014290Y014284D01*
X014290Y014186D02*
X014652Y014186D01*
X014652Y014087D02*
X014290Y014087D01*
X014268Y013989D02*
X014652Y013989D01*
X014718Y013890D02*
X014200Y013890D01*
X014102Y013792D02*
X014816Y013792D01*
X015152Y013693D02*
X014003Y013693D01*
X013905Y013595D02*
X015152Y013595D01*
X015152Y013496D02*
X013806Y013496D01*
X013725Y013398D02*
X014305Y013398D01*
X014207Y013299D02*
X013664Y013299D01*
X013564Y013201D02*
X014152Y013201D01*
X014152Y013102D02*
X013290Y013102D01*
X013290Y013004D02*
X014152Y013004D01*
X014203Y012905D02*
X013290Y012905D01*
X013290Y012807D02*
X014301Y012807D01*
X014699Y012807D02*
X030960Y012807D01*
X030960Y012708D02*
X013290Y012708D01*
X013290Y012610D02*
X030960Y012610D01*
X030960Y012511D02*
X013290Y012511D01*
X013290Y012413D02*
X013320Y012413D01*
X013680Y012413D02*
X030960Y012413D01*
X031022Y012314D02*
X013778Y012314D01*
X013714Y011822D02*
X030960Y011822D01*
X030960Y011723D02*
X013033Y011723D01*
X012935Y011625D02*
X030960Y011625D01*
X030960Y011526D02*
X012836Y011526D01*
X012738Y011428D02*
X030960Y011428D01*
X031007Y011329D02*
X012604Y011329D01*
X012380Y011890D02*
X012170Y011890D01*
X012170Y012223D01*
X012070Y012322D01*
X012040Y012322D01*
X012040Y014730D01*
X012489Y015179D01*
X012607Y015130D01*
X013393Y015130D01*
X013566Y015202D01*
X013698Y015334D01*
X013710Y015362D01*
X013710Y014787D01*
X013685Y014836D01*
X013643Y014893D01*
X013593Y014943D01*
X013536Y014985D01*
X013473Y015017D01*
X013405Y015039D01*
X013335Y015050D01*
X013050Y015050D01*
X013050Y014650D01*
X012950Y014650D01*
X012950Y015050D01*
X012665Y015050D01*
X012595Y015039D01*
X012527Y015017D01*
X012464Y014985D01*
X012407Y014943D01*
X012357Y014893D01*
X012315Y014836D01*
X012283Y014773D01*
X012261Y014705D01*
X012252Y014650D01*
X012950Y014650D01*
X012950Y014550D01*
X013050Y014550D01*
X013050Y014150D01*
X013335Y014150D01*
X013405Y014161D01*
X013473Y014183D01*
X013536Y014215D01*
X013593Y014257D01*
X013643Y014307D01*
X013685Y014364D01*
X013710Y014413D01*
X013710Y014220D01*
X013511Y014021D01*
X013393Y014070D01*
X012607Y014070D01*
X012434Y013998D01*
X012302Y013866D01*
X012230Y013693D01*
X012040Y013693D01*
X012040Y013595D02*
X012230Y013595D01*
X012230Y013507D02*
X012230Y013693D01*
X012271Y013792D02*
X012040Y013792D01*
X012040Y013890D02*
X012325Y013890D01*
X012424Y013989D02*
X012040Y013989D01*
X012040Y014087D02*
X013577Y014087D01*
X013675Y014186D02*
X013478Y014186D01*
X013620Y014284D02*
X013710Y014284D01*
X013710Y014383D02*
X013694Y014383D01*
X013050Y014383D02*
X012950Y014383D01*
X012950Y014481D02*
X013050Y014481D01*
X012950Y014550D02*
X012950Y014150D01*
X012665Y014150D01*
X012595Y014161D01*
X012527Y014183D01*
X012464Y014215D01*
X012407Y014257D01*
X012357Y014307D01*
X012315Y014364D01*
X012283Y014427D01*
X012261Y014495D01*
X012252Y014550D01*
X012950Y014550D01*
X012950Y014580D02*
X012040Y014580D01*
X012040Y014678D02*
X012257Y014678D01*
X012285Y014777D02*
X012087Y014777D01*
X012185Y014875D02*
X012344Y014875D01*
X012284Y014974D02*
X012449Y014974D01*
X012382Y015072D02*
X013710Y015072D01*
X013710Y014974D02*
X013551Y014974D01*
X013656Y014875D02*
X013710Y014875D01*
X013710Y015171D02*
X013491Y015171D01*
X013634Y015269D02*
X013710Y015269D01*
X013050Y014974D02*
X012950Y014974D01*
X012950Y014875D02*
X013050Y014875D01*
X013050Y014777D02*
X012950Y014777D01*
X012950Y014678D02*
X013050Y014678D01*
X013050Y014284D02*
X012950Y014284D01*
X012950Y014186D02*
X013050Y014186D01*
X012522Y014186D02*
X012040Y014186D01*
X012040Y014284D02*
X012380Y014284D01*
X012306Y014383D02*
X012040Y014383D01*
X012040Y014481D02*
X012265Y014481D01*
X011460Y014481D02*
X009290Y014481D01*
X009290Y014383D02*
X011460Y014383D01*
X011460Y014284D02*
X009290Y014284D01*
X009290Y014186D02*
X011460Y014186D01*
X011460Y014087D02*
X009290Y014087D01*
X009657Y013989D02*
X011460Y013989D01*
X011460Y013890D02*
X009720Y013890D01*
X009720Y013792D02*
X009905Y013792D01*
X009916Y013803D02*
X009888Y013775D01*
X009868Y013741D01*
X009858Y013702D01*
X009858Y013398D01*
X010450Y013398D01*
X010450Y013298D01*
X010550Y013298D01*
X010550Y012863D01*
X011012Y012863D01*
X011050Y012874D01*
X011084Y012893D01*
X011112Y012921D01*
X011132Y012955D01*
X011142Y012994D01*
X011142Y013298D01*
X010550Y013298D01*
X010550Y013398D01*
X011142Y013398D01*
X011142Y013702D01*
X011132Y013741D01*
X011112Y013775D01*
X011084Y013803D01*
X011050Y013822D01*
X011012Y013833D01*
X010550Y013833D01*
X010550Y013398D01*
X010450Y013398D01*
X010450Y013833D01*
X009988Y013833D01*
X009950Y013822D01*
X009916Y013803D01*
X009858Y013693D02*
X009720Y013693D01*
X009720Y013595D02*
X009858Y013595D01*
X009858Y013496D02*
X009720Y013496D01*
X009720Y013398D02*
X010450Y013398D01*
X010450Y013496D02*
X010550Y013496D01*
X010550Y013398D02*
X011460Y013398D01*
X011460Y013496D02*
X011142Y013496D01*
X011142Y013595D02*
X011460Y013595D01*
X011460Y013693D02*
X011142Y013693D01*
X011095Y013792D02*
X011460Y013792D01*
X012040Y013496D02*
X012234Y013496D01*
X012230Y013507D02*
X012302Y013334D01*
X012434Y013202D01*
X012607Y013130D01*
X012710Y013130D01*
X012710Y012220D01*
X012380Y011890D01*
X012410Y011920D02*
X012170Y011920D01*
X012170Y012019D02*
X012508Y012019D01*
X012607Y012117D02*
X012170Y012117D01*
X012170Y012216D02*
X012705Y012216D01*
X012710Y012314D02*
X012079Y012314D01*
X012040Y012413D02*
X012710Y012413D01*
X012710Y012511D02*
X012040Y012511D01*
X012040Y012610D02*
X012710Y012610D01*
X012710Y012708D02*
X012040Y012708D01*
X012040Y012807D02*
X012710Y012807D01*
X012710Y012905D02*
X012040Y012905D01*
X012040Y013004D02*
X012710Y013004D01*
X012710Y013102D02*
X012040Y013102D01*
X012040Y013201D02*
X012436Y013201D01*
X012336Y013299D02*
X012040Y013299D01*
X012040Y013398D02*
X012275Y013398D01*
X011460Y013299D02*
X010550Y013299D01*
X010550Y013201D02*
X010450Y013201D01*
X010450Y013298D02*
X010450Y012863D01*
X009988Y012863D01*
X009950Y012874D01*
X009916Y012893D01*
X009888Y012921D01*
X009868Y012955D01*
X009858Y012994D01*
X009858Y013298D01*
X010450Y013298D01*
X010450Y013299D02*
X009720Y013299D01*
X009720Y013201D02*
X009858Y013201D01*
X009858Y013102D02*
X009720Y013102D01*
X009720Y013004D02*
X009858Y013004D01*
X009904Y012905D02*
X009720Y012905D01*
X009641Y012807D02*
X011460Y012807D01*
X011460Y012905D02*
X011096Y012905D01*
X011142Y013004D02*
X011460Y013004D01*
X011460Y013102D02*
X011142Y013102D01*
X011142Y013201D02*
X011460Y013201D01*
X011460Y012708D02*
X008040Y012708D01*
X008040Y012610D02*
X011460Y012610D01*
X011460Y012511D02*
X008040Y012511D01*
X008040Y012413D02*
X008378Y012413D01*
X008280Y012314D02*
X008079Y012314D01*
X008170Y012216D02*
X008280Y012216D01*
X008280Y012117D02*
X008170Y012117D01*
X008170Y012019D02*
X008280Y012019D01*
X007460Y012413D02*
X007098Y012413D01*
X006999Y012511D02*
X007460Y012511D01*
X007460Y012610D02*
X006901Y012610D01*
X006848Y012708D02*
X007460Y012708D01*
X007460Y012807D02*
X006786Y012807D01*
X006687Y012905D02*
X007460Y012905D01*
X007500Y013004D02*
X006290Y013004D01*
X006290Y013102D02*
X007592Y013102D01*
X007690Y013201D02*
X006290Y013201D01*
X006290Y013299D02*
X007309Y013299D01*
X007210Y013398D02*
X006290Y013398D01*
X006290Y013496D02*
X007152Y013496D01*
X007152Y013595D02*
X006290Y013595D01*
X006290Y013693D02*
X007152Y013693D01*
X007199Y013792D02*
X006290Y013792D01*
X006290Y013890D02*
X007210Y013890D01*
X007210Y013989D02*
X006290Y013989D01*
X006290Y014087D02*
X007210Y014087D01*
X007210Y014186D02*
X006290Y014186D01*
X006290Y014284D02*
X007210Y014284D01*
X007210Y014383D02*
X006290Y014383D01*
X006348Y014481D02*
X007210Y014481D01*
X007210Y014580D02*
X006348Y014580D01*
X006348Y014678D02*
X007210Y014678D01*
X007210Y014777D02*
X006316Y014777D01*
X006217Y014875D02*
X007210Y014875D01*
X007210Y014974D02*
X000750Y014974D01*
X000750Y015072D02*
X002769Y015072D01*
X002794Y015062D02*
X003706Y015062D01*
X003898Y015141D01*
X004045Y015288D01*
X004125Y015480D01*
X004125Y015688D01*
X004045Y015880D01*
X003898Y016027D01*
X003706Y016107D01*
X002794Y016107D01*
X002602Y016027D01*
X002455Y015880D01*
X002375Y015688D01*
X002375Y015480D01*
X002455Y015288D01*
X002602Y015141D01*
X002794Y015062D01*
X002572Y015171D02*
X000750Y015171D01*
X000750Y015269D02*
X002474Y015269D01*
X002422Y015368D02*
X000750Y015368D01*
X000750Y015466D02*
X002381Y015466D01*
X002375Y015565D02*
X000750Y015565D01*
X000750Y015663D02*
X002375Y015663D01*
X002405Y015762D02*
X000750Y015762D01*
X000750Y015860D02*
X002446Y015860D01*
X002533Y015959D02*
X000750Y015959D01*
X000750Y016057D02*
X002674Y016057D01*
X003826Y016057D02*
X007210Y016057D01*
X007210Y015959D02*
X003967Y015959D01*
X004054Y015860D02*
X007210Y015860D01*
X007210Y015762D02*
X004095Y015762D01*
X004125Y015663D02*
X007210Y015663D01*
X007210Y015565D02*
X004125Y015565D01*
X004119Y015466D02*
X007210Y015466D01*
X007210Y015368D02*
X004078Y015368D01*
X004026Y015269D02*
X007210Y015269D01*
X007210Y015171D02*
X003928Y015171D01*
X003731Y015072D02*
X007210Y015072D01*
X007790Y015072D02*
X008710Y015072D01*
X008710Y014974D02*
X007790Y014974D01*
X007790Y014875D02*
X008710Y014875D01*
X008710Y014777D02*
X007790Y014777D01*
X007790Y014678D02*
X008710Y014678D01*
X008710Y014580D02*
X007790Y014580D01*
X007790Y014481D02*
X008710Y014481D01*
X008710Y014383D02*
X007790Y014383D01*
X007790Y014284D02*
X008710Y014284D01*
X008710Y014186D02*
X007790Y014186D01*
X007790Y014087D02*
X008710Y014087D01*
X008343Y013989D02*
X007790Y013989D01*
X007790Y013890D02*
X008280Y013890D01*
X008280Y013792D02*
X007801Y013792D01*
X007848Y013693D02*
X008280Y013693D01*
X008280Y013595D02*
X007848Y013595D01*
X007848Y013496D02*
X008280Y013496D01*
X008280Y013398D02*
X007790Y013398D01*
X007789Y013299D02*
X007691Y013299D01*
X008117Y012807D02*
X008359Y012807D01*
X009622Y012413D02*
X011460Y012413D01*
X011421Y012314D02*
X011105Y012314D01*
X011162Y012216D02*
X011330Y012216D01*
X011330Y012117D02*
X011162Y012117D01*
X011162Y012019D02*
X011330Y012019D01*
X010550Y012905D02*
X010450Y012905D01*
X010450Y013004D02*
X010550Y013004D01*
X010550Y013102D02*
X010450Y013102D01*
X010450Y013595D02*
X010550Y013595D01*
X010550Y013693D02*
X010450Y013693D01*
X010450Y013792D02*
X010550Y013792D01*
X011460Y014580D02*
X009290Y014580D01*
X009290Y014678D02*
X011460Y014678D01*
X011413Y014777D02*
X009290Y014777D01*
X009290Y014875D02*
X011315Y014875D01*
X011216Y014974D02*
X009290Y014974D01*
X009290Y015072D02*
X011118Y015072D01*
X011019Y015171D02*
X009394Y015171D01*
X009459Y015269D02*
X010921Y015269D01*
X011446Y015565D02*
X012054Y015565D01*
X012153Y015663D02*
X011347Y015663D01*
X011249Y015762D02*
X012251Y015762D01*
X012299Y015860D02*
X011162Y015860D01*
X011162Y015959D02*
X012394Y015959D01*
X012575Y016057D02*
X011162Y016057D01*
X011162Y016156D02*
X013534Y016156D01*
X013436Y016254D02*
X011162Y016254D01*
X011067Y016353D02*
X013337Y016353D01*
X013239Y016451D02*
X010311Y016451D01*
X010213Y016550D02*
X013140Y016550D01*
X013042Y016648D02*
X010114Y016648D01*
X010016Y016747D02*
X012943Y016747D01*
X012845Y016845D02*
X009917Y016845D01*
X009950Y016874D02*
X009988Y016863D01*
X010450Y016863D01*
X010450Y017298D01*
X010550Y017298D01*
X010550Y016863D01*
X011012Y016863D01*
X011050Y016874D01*
X011084Y016893D01*
X011112Y016921D01*
X011132Y016955D01*
X011142Y016994D01*
X011142Y017298D01*
X010550Y017298D01*
X010550Y017398D01*
X011142Y017398D01*
X011142Y017702D01*
X011132Y017741D01*
X011112Y017775D01*
X011084Y017803D01*
X011050Y017822D01*
X011012Y017833D01*
X010550Y017833D01*
X010550Y017398D01*
X010450Y017398D01*
X010450Y017298D01*
X009858Y017298D01*
X009858Y016994D01*
X009868Y016955D01*
X009888Y016921D01*
X009916Y016893D01*
X009950Y016874D01*
X009875Y016944D02*
X005207Y016944D01*
X005234Y016959D02*
X005328Y017031D01*
X005411Y017115D01*
X005483Y017208D01*
X005542Y017311D01*
X005587Y017420D01*
X005618Y017534D01*
X005633Y017651D01*
X005633Y017660D01*
X004782Y017660D01*
X004782Y016809D01*
X004791Y016809D01*
X004908Y016824D01*
X005023Y016855D01*
X005132Y016900D01*
X005234Y016959D01*
X005339Y017042D02*
X009858Y017042D01*
X009858Y017141D02*
X009430Y017141D01*
X009429Y017139D02*
X009439Y017177D01*
X009439Y017495D01*
X009050Y017495D01*
X009050Y017595D01*
X008950Y017595D01*
X008950Y018043D01*
X008691Y018043D01*
X008653Y018033D01*
X008619Y018013D01*
X008591Y017985D01*
X008571Y017951D01*
X008561Y017913D01*
X008561Y017595D01*
X008950Y017595D01*
X008950Y017495D01*
X008561Y017495D01*
X008561Y017177D01*
X008571Y017139D01*
X008591Y017104D01*
X008619Y017076D01*
X008653Y017057D01*
X008691Y017046D01*
X008950Y017046D01*
X008950Y017495D01*
X009050Y017495D01*
X009050Y017046D01*
X009309Y017046D01*
X009347Y017057D01*
X009381Y017076D01*
X009409Y017104D01*
X009429Y017139D01*
X009439Y017239D02*
X009858Y017239D01*
X009858Y017398D02*
X010450Y017398D01*
X010450Y017833D01*
X009988Y017833D01*
X009950Y017822D01*
X009916Y017803D01*
X009888Y017775D01*
X009868Y017741D01*
X009858Y017702D01*
X009858Y017398D01*
X009858Y017436D02*
X009439Y017436D01*
X009439Y017338D02*
X010450Y017338D01*
X010450Y017436D02*
X010550Y017436D01*
X010550Y017338D02*
X012352Y017338D01*
X012254Y017436D02*
X011142Y017436D01*
X011142Y017535D02*
X012155Y017535D01*
X012057Y017633D02*
X011142Y017633D01*
X011134Y017732D02*
X011958Y017732D01*
X011860Y017830D02*
X011022Y017830D01*
X010550Y017830D02*
X010450Y017830D01*
X010450Y017732D02*
X010550Y017732D01*
X010550Y017633D02*
X010450Y017633D01*
X010450Y017535D02*
X010550Y017535D01*
X010550Y017239D02*
X010450Y017239D01*
X010450Y017141D02*
X010550Y017141D01*
X010550Y017042D02*
X010450Y017042D01*
X010450Y016944D02*
X010550Y016944D01*
X011125Y016944D02*
X012746Y016944D01*
X012648Y017042D02*
X011142Y017042D01*
X011142Y017141D02*
X012549Y017141D01*
X012451Y017239D02*
X011142Y017239D01*
X011761Y017929D02*
X009435Y017929D01*
X009439Y017913D02*
X009429Y017951D01*
X009409Y017985D01*
X009381Y018013D01*
X009347Y018033D01*
X009309Y018043D01*
X009050Y018043D01*
X009050Y017595D01*
X009439Y017595D01*
X009439Y017913D01*
X009439Y017830D02*
X009978Y017830D01*
X009866Y017732D02*
X009439Y017732D01*
X009439Y017633D02*
X009858Y017633D01*
X009858Y017535D02*
X009050Y017535D01*
X009050Y017633D02*
X008950Y017633D01*
X008950Y017535D02*
X005618Y017535D01*
X005631Y017633D02*
X008561Y017633D01*
X008561Y017732D02*
X004782Y017732D01*
X004782Y017760D02*
X005633Y017760D01*
X005633Y017769D01*
X005618Y017886D01*
X005587Y018001D01*
X005542Y018110D01*
X005483Y018212D01*
X005411Y018306D01*
X005328Y018389D01*
X005234Y018461D01*
X005132Y018520D01*
X005023Y018565D01*
X004908Y018596D01*
X004791Y018611D01*
X004782Y018611D01*
X004782Y017760D01*
X004682Y017760D01*
X004682Y017660D01*
X003831Y017660D01*
X003831Y017651D01*
X003847Y017534D01*
X003877Y017420D01*
X003922Y017311D01*
X003981Y017208D01*
X004053Y017115D01*
X004137Y017031D01*
X004231Y016959D01*
X004333Y016900D01*
X004442Y016855D01*
X004556Y016824D01*
X004673Y016809D01*
X004682Y016809D01*
X004682Y017660D01*
X004782Y017660D01*
X004782Y017760D01*
X004782Y017830D02*
X004682Y017830D01*
X004682Y017760D02*
X004682Y018611D01*
X004673Y018611D01*
X004556Y018596D01*
X004442Y018565D01*
X004333Y018520D01*
X004231Y018461D01*
X004137Y018389D01*
X004053Y018306D01*
X003981Y018212D01*
X003922Y018110D01*
X003877Y018001D01*
X003847Y017886D01*
X003831Y017769D01*
X003831Y017760D01*
X004682Y017760D01*
X004682Y017732D02*
X000750Y017732D01*
X000750Y017830D02*
X003839Y017830D01*
X003858Y017929D02*
X000750Y017929D01*
X000750Y018027D02*
X003888Y018027D01*
X003931Y018126D02*
X000750Y018126D01*
X000750Y018224D02*
X003991Y018224D01*
X004070Y018323D02*
X000750Y018323D01*
X000750Y018421D02*
X004178Y018421D01*
X004332Y018520D02*
X000750Y018520D01*
X000750Y018618D02*
X005612Y018618D01*
X005655Y018600D02*
X005288Y018752D01*
X005007Y019034D01*
X004854Y019401D01*
X004854Y019799D01*
X005007Y020166D01*
X005288Y020448D01*
X005655Y020600D01*
X006053Y020600D01*
X006421Y020448D01*
X006702Y020166D01*
X006854Y019799D01*
X006854Y019401D01*
X006702Y019034D01*
X006421Y018752D01*
X006053Y018600D01*
X005655Y018600D01*
X005374Y018717D02*
X003579Y018717D01*
X003570Y018714D02*
X003684Y018745D01*
X003793Y018790D01*
X003895Y018849D01*
X003989Y018921D01*
X004073Y019005D01*
X004145Y019098D01*
X004204Y019201D01*
X004249Y019310D01*
X004279Y019424D01*
X004295Y019541D01*
X004295Y019550D01*
X003444Y019550D01*
X003444Y019650D01*
X004295Y019650D01*
X004295Y019659D01*
X004279Y019776D01*
X004249Y019890D01*
X004204Y019999D01*
X004145Y020102D01*
X004073Y020195D01*
X003989Y020279D01*
X003895Y020351D01*
X003793Y020410D01*
X003684Y020455D01*
X003570Y020486D01*
X003453Y020501D01*
X003444Y020501D01*
X003444Y019650D01*
X003344Y019650D01*
X003344Y020501D01*
X003335Y020501D01*
X003218Y020486D01*
X003103Y020455D01*
X002994Y020410D01*
X002892Y020351D01*
X002798Y020279D01*
X002715Y020195D01*
X002643Y020102D01*
X002584Y019999D01*
X002539Y019890D01*
X002508Y019776D01*
X002493Y019659D01*
X002493Y019650D01*
X003344Y019650D01*
X003344Y019550D01*
X003444Y019550D01*
X003444Y018699D01*
X003453Y018699D01*
X003570Y018714D01*
X003444Y018717D02*
X003344Y018717D01*
X003344Y018699D02*
X003344Y019550D01*
X002493Y019550D01*
X002493Y019541D01*
X002508Y019424D01*
X002539Y019310D01*
X002584Y019201D01*
X002643Y019098D01*
X002715Y019005D01*
X002798Y018921D01*
X002892Y018849D01*
X002994Y018790D01*
X003103Y018745D01*
X003218Y018714D01*
X003335Y018699D01*
X003344Y018699D01*
X003344Y018815D02*
X003444Y018815D01*
X003444Y018914D02*
X003344Y018914D01*
X003344Y019012D02*
X003444Y019012D01*
X003444Y019111D02*
X003344Y019111D01*
X003344Y019209D02*
X003444Y019209D01*
X003444Y019308D02*
X003344Y019308D01*
X003344Y019406D02*
X003444Y019406D01*
X003444Y019505D02*
X003344Y019505D01*
X003344Y019603D02*
X000750Y019603D01*
X000750Y019505D02*
X002497Y019505D01*
X002513Y019406D02*
X000750Y019406D01*
X000750Y019308D02*
X002539Y019308D01*
X002580Y019209D02*
X000750Y019209D01*
X000750Y019111D02*
X002636Y019111D01*
X002709Y019012D02*
X000750Y019012D01*
X000750Y018914D02*
X002808Y018914D01*
X002951Y018815D02*
X000750Y018815D01*
X000750Y018717D02*
X003209Y018717D01*
X003836Y018815D02*
X005225Y018815D01*
X005127Y018914D02*
X003979Y018914D01*
X004078Y019012D02*
X005028Y019012D01*
X004975Y019111D02*
X004152Y019111D01*
X004207Y019209D02*
X004934Y019209D01*
X004893Y019308D02*
X004248Y019308D01*
X004275Y019406D02*
X004854Y019406D01*
X004854Y019505D02*
X004290Y019505D01*
X004289Y019702D02*
X004854Y019702D01*
X004855Y019800D02*
X004273Y019800D01*
X004245Y019899D02*
X004896Y019899D01*
X004936Y019997D02*
X004205Y019997D01*
X004148Y020096D02*
X004977Y020096D01*
X005034Y020194D02*
X004074Y020194D01*
X003972Y020293D02*
X005133Y020293D01*
X005231Y020391D02*
X003826Y020391D01*
X003541Y020490D02*
X005389Y020490D01*
X005627Y020588D02*
X000750Y020588D01*
X000750Y020490D02*
X003246Y020490D01*
X003344Y020490D02*
X003444Y020490D01*
X003444Y020391D02*
X003344Y020391D01*
X003344Y020293D02*
X003444Y020293D01*
X003444Y020194D02*
X003344Y020194D01*
X003344Y020096D02*
X003444Y020096D01*
X003444Y019997D02*
X003344Y019997D01*
X003344Y019899D02*
X003444Y019899D01*
X003444Y019800D02*
X003344Y019800D01*
X003344Y019702D02*
X003444Y019702D01*
X003444Y019603D02*
X004854Y019603D01*
X006082Y020588D02*
X010710Y020588D01*
X010710Y020490D02*
X006320Y020490D01*
X006477Y020391D02*
X010710Y020391D01*
X010710Y020293D02*
X006576Y020293D01*
X006674Y020194D02*
X010710Y020194D01*
X010710Y020096D02*
X006731Y020096D01*
X006772Y019997D02*
X010710Y019997D01*
X010710Y019899D02*
X006813Y019899D01*
X006854Y019800D02*
X010710Y019800D01*
X010710Y019702D02*
X006854Y019702D01*
X006854Y019603D02*
X010710Y019603D01*
X010710Y019505D02*
X010093Y019505D01*
X010149Y019481D02*
X009983Y019550D01*
X009804Y019550D01*
X009639Y019481D01*
X009512Y019355D01*
X009488Y019297D01*
X009474Y019325D01*
X009434Y019380D01*
X009386Y019428D01*
X009332Y019468D01*
X009271Y019498D01*
X009207Y019519D01*
X009140Y019530D01*
X009135Y019530D01*
X009135Y019129D01*
X009078Y019129D01*
X009078Y019530D01*
X009072Y019530D01*
X009006Y019519D01*
X008941Y019498D01*
X008881Y019468D01*
X008826Y019428D01*
X008778Y019380D01*
X008739Y019325D01*
X008708Y019265D01*
X008687Y019201D01*
X008676Y019134D01*
X008676Y019129D01*
X009078Y019129D01*
X009078Y019071D01*
X009135Y019071D01*
X009135Y018670D01*
X009140Y018670D01*
X009207Y018681D01*
X009271Y018702D01*
X009332Y018732D01*
X009386Y018772D01*
X009434Y018820D01*
X009474Y018875D01*
X009488Y018903D01*
X009512Y018845D01*
X009639Y018719D01*
X009804Y018650D01*
X009983Y018650D01*
X010149Y018719D01*
X010275Y018845D01*
X010344Y019010D01*
X010344Y019190D01*
X010275Y019355D01*
X010149Y019481D01*
X010224Y019406D02*
X010710Y019406D01*
X010710Y019308D02*
X010295Y019308D01*
X010336Y019209D02*
X010710Y019209D01*
X010710Y019111D02*
X010344Y019111D01*
X010344Y019012D02*
X010723Y019012D01*
X010776Y018914D02*
X010304Y018914D01*
X010245Y018815D02*
X010875Y018815D01*
X010973Y018717D02*
X010144Y018717D01*
X009644Y018717D02*
X009301Y018717D01*
X009429Y018815D02*
X009542Y018815D01*
X009135Y018815D02*
X009078Y018815D01*
X009078Y018717D02*
X009135Y018717D01*
X009078Y018670D02*
X009078Y019071D01*
X008676Y019071D01*
X008676Y019066D01*
X008687Y018999D01*
X008708Y018935D01*
X008739Y018875D01*
X008778Y018820D01*
X008826Y018772D01*
X008881Y018732D01*
X008941Y018702D01*
X009006Y018681D01*
X009072Y018670D01*
X009078Y018670D01*
X008912Y018717D02*
X006334Y018717D01*
X006483Y018815D02*
X008783Y018815D01*
X008719Y018914D02*
X006582Y018914D01*
X006680Y019012D02*
X008685Y019012D01*
X008690Y019209D02*
X006775Y019209D01*
X006815Y019308D02*
X008729Y019308D01*
X008804Y019406D02*
X006854Y019406D01*
X006854Y019505D02*
X008960Y019505D01*
X009078Y019505D02*
X009135Y019505D01*
X009135Y019406D02*
X009078Y019406D01*
X009078Y019308D02*
X009135Y019308D01*
X009135Y019209D02*
X009078Y019209D01*
X009078Y019111D02*
X006734Y019111D01*
X006097Y018618D02*
X011072Y018618D01*
X011170Y018520D02*
X005133Y018520D01*
X005286Y018421D02*
X011269Y018421D01*
X011367Y018323D02*
X005394Y018323D01*
X005474Y018224D02*
X011466Y018224D01*
X011564Y018126D02*
X005533Y018126D01*
X005576Y018027D02*
X008642Y018027D01*
X008565Y017929D02*
X005607Y017929D01*
X005625Y017830D02*
X008561Y017830D01*
X008950Y017830D02*
X009050Y017830D01*
X009050Y017732D02*
X008950Y017732D01*
X008950Y017929D02*
X009050Y017929D01*
X009050Y018027D02*
X008950Y018027D01*
X009358Y018027D02*
X011663Y018027D01*
X011695Y018815D02*
X011805Y018815D01*
X011903Y018914D02*
X011597Y018914D01*
X011498Y019012D02*
X012002Y019012D01*
X012100Y019111D02*
X011400Y019111D01*
X011301Y019209D02*
X012199Y019209D01*
X012297Y019308D02*
X011290Y019308D01*
X011290Y019406D02*
X012700Y019406D01*
X012739Y019505D02*
X011290Y019505D01*
X011290Y019603D02*
X013664Y019603D01*
X013664Y019702D02*
X011290Y019702D01*
X011290Y019800D02*
X012135Y019800D01*
X011959Y019899D02*
X011290Y019899D01*
X011290Y019997D02*
X011860Y019997D01*
X011762Y020096D02*
X011290Y020096D01*
X011290Y020194D02*
X011717Y020194D01*
X011676Y020293D02*
X011290Y020293D01*
X011290Y020391D02*
X011635Y020391D01*
X011621Y020490D02*
X011290Y020490D01*
X011290Y020588D02*
X011621Y020588D01*
X011621Y020687D02*
X011290Y020687D01*
X011290Y020785D02*
X011626Y020785D01*
X011666Y020884D02*
X011290Y020884D01*
X011290Y020982D02*
X011707Y020982D01*
X011748Y021081D02*
X011290Y021081D01*
X011290Y021179D02*
X011836Y021179D01*
X011935Y021278D02*
X011290Y021278D01*
X011290Y021376D02*
X012078Y021376D01*
X012315Y021475D02*
X011348Y021475D01*
X011348Y021573D02*
X039500Y021573D01*
X039500Y021475D02*
X012685Y021475D01*
X012922Y021376D02*
X034334Y021376D01*
X034236Y021278D02*
X013065Y021278D01*
X013164Y021179D02*
X034137Y021179D01*
X034489Y021376D02*
X039500Y021376D01*
X039500Y021278D02*
X034587Y021278D01*
X034686Y021179D02*
X039500Y021179D01*
X039500Y021081D02*
X034784Y021081D01*
X034883Y020982D02*
X039500Y020982D01*
X039500Y020884D02*
X034981Y020884D01*
X034134Y019702D02*
X033972Y019702D01*
X033873Y019603D02*
X034232Y019603D01*
X034331Y019505D02*
X033775Y019505D01*
X034492Y019505D02*
X034821Y019505D01*
X034920Y019603D02*
X034591Y019603D01*
X031024Y020096D02*
X030693Y020096D01*
X030858Y020194D02*
X030960Y020194D01*
X030956Y020293D02*
X030960Y020293D01*
X032705Y015466D02*
X033290Y015466D01*
X033290Y015368D02*
X032943Y015368D01*
X033074Y015269D02*
X033290Y015269D01*
X033290Y015171D02*
X033172Y015171D01*
X033256Y015072D02*
X033290Y015072D01*
X031026Y010890D02*
X029932Y010890D01*
X029945Y010873D01*
X029982Y010800D01*
X030007Y010722D01*
X030019Y010650D01*
X029550Y010650D01*
X029550Y010550D01*
X030019Y010550D01*
X030007Y010478D01*
X029982Y010400D01*
X029945Y010327D01*
X029932Y010310D01*
X031026Y010310D01*
X030960Y010376D01*
X030960Y010824D01*
X031026Y010890D01*
X030973Y010837D02*
X029963Y010837D01*
X030002Y010738D02*
X030960Y010738D01*
X030960Y010640D02*
X029550Y010640D01*
X030017Y010541D02*
X030960Y010541D01*
X030960Y010443D02*
X029996Y010443D01*
X029953Y010344D02*
X030992Y010344D01*
X034500Y006100D02*
X026500Y006100D01*
X028500Y004600D02*
X029000Y004100D01*
X028847Y003942D02*
X026455Y003942D01*
X026393Y004060D02*
X026607Y004060D01*
X026806Y004142D01*
X026958Y004294D01*
X027000Y004396D01*
X027042Y004294D01*
X027194Y004142D01*
X027393Y004060D01*
X027607Y004060D01*
X027806Y004142D01*
X027958Y004294D01*
X028000Y004396D01*
X028042Y004294D01*
X028194Y004142D01*
X028393Y004060D01*
X028607Y004060D01*
X028693Y004096D01*
X028909Y003880D01*
X029091Y003880D01*
X029101Y003890D01*
X030587Y003890D01*
X030710Y004013D01*
X031087Y004390D01*
X032111Y004390D01*
X032002Y004345D01*
X031755Y004098D01*
X031621Y003775D01*
X031621Y003425D01*
X031755Y003102D01*
X032002Y002855D01*
X032111Y002810D01*
X027587Y002810D01*
X026298Y004099D01*
X026393Y004060D01*
X026357Y004040D02*
X028749Y004040D01*
X028203Y004139D02*
X027797Y004139D01*
X027901Y004237D02*
X028099Y004237D01*
X028025Y004336D02*
X027975Y004336D01*
X027203Y004139D02*
X026797Y004139D01*
X026901Y004237D02*
X027099Y004237D01*
X027025Y004336D02*
X026975Y004336D01*
X026554Y003843D02*
X031650Y003843D01*
X031621Y003745D02*
X026652Y003745D01*
X026751Y003646D02*
X031621Y003646D01*
X031621Y003548D02*
X026849Y003548D01*
X026948Y003449D02*
X031621Y003449D01*
X031652Y003351D02*
X027046Y003351D01*
X027145Y003252D02*
X031693Y003252D01*
X031734Y003154D02*
X027243Y003154D01*
X027342Y003055D02*
X031802Y003055D01*
X031901Y002957D02*
X027440Y002957D01*
X027539Y002858D02*
X031999Y002858D01*
X031224Y002070D02*
X030776Y002070D01*
X030892Y001972D02*
X031108Y001972D01*
X031029Y001873D02*
X030971Y001873D01*
X030224Y002070D02*
X029776Y002070D01*
X029892Y001972D02*
X030108Y001972D01*
X030029Y001873D02*
X029971Y001873D01*
X029224Y002070D02*
X028776Y002070D01*
X028892Y001972D02*
X029108Y001972D01*
X029029Y001873D02*
X028971Y001873D01*
X028224Y002070D02*
X027776Y002070D01*
X027892Y001972D02*
X028108Y001972D01*
X028029Y001873D02*
X027971Y001873D01*
X027224Y002070D02*
X026776Y002070D01*
X026710Y002169D02*
X037290Y002169D01*
X037154Y002267D02*
X026710Y002267D01*
X026710Y002366D02*
X037081Y002366D01*
X035303Y000790D02*
X039500Y000790D01*
X039500Y000888D02*
X035204Y000888D01*
X035348Y000691D02*
X039500Y000691D01*
X039500Y000593D02*
X035348Y000593D01*
X035348Y000494D02*
X039500Y000494D01*
X039500Y000396D02*
X035288Y000396D01*
X031690Y003942D02*
X030638Y003942D01*
X030737Y004040D02*
X031731Y004040D01*
X031796Y004139D02*
X030835Y004139D01*
X030934Y004237D02*
X031894Y004237D01*
X031993Y004336D02*
X031032Y004336D01*
X027339Y002464D02*
X026710Y002464D01*
X026710Y002563D02*
X027241Y002563D01*
X027142Y002661D02*
X026710Y002661D01*
X026710Y002760D02*
X027044Y002760D01*
X026945Y002858D02*
X026710Y002858D01*
X026710Y002957D02*
X026847Y002957D01*
X026748Y003055D02*
X026710Y003055D01*
X025290Y002464D02*
X020046Y002464D01*
X019948Y002563D02*
X025241Y002563D01*
X025142Y002661D02*
X019849Y002661D01*
X019751Y002760D02*
X025044Y002760D01*
X024945Y002858D02*
X019635Y002858D01*
X020145Y002366D02*
X025290Y002366D01*
X025290Y002267D02*
X020243Y002267D01*
X020342Y002169D02*
X025290Y002169D01*
X025290Y002070D02*
X024010Y002070D01*
X024040Y002040D02*
X023940Y002140D01*
X023060Y002140D01*
X022960Y002040D01*
X022960Y001843D01*
X022945Y001873D01*
X022897Y001939D01*
X022839Y001997D01*
X022773Y002045D01*
X022700Y002082D01*
X022622Y002107D01*
X022550Y002119D01*
X022550Y001650D01*
X022450Y001650D01*
X022450Y001550D01*
X021550Y001550D01*
X021550Y001081D01*
X021622Y001093D01*
X021700Y001118D01*
X021773Y001155D01*
X021839Y001203D01*
X021897Y001261D01*
X021945Y001327D01*
X021982Y001400D01*
X022000Y001456D01*
X022018Y001400D01*
X022055Y001327D01*
X022103Y001261D01*
X022161Y001203D01*
X022227Y001155D01*
X022300Y001118D01*
X022378Y001093D01*
X022450Y001081D01*
X022450Y001550D01*
X022550Y001550D01*
X022550Y001081D01*
X022622Y001093D01*
X022700Y001118D01*
X022773Y001155D01*
X022839Y001203D01*
X022897Y001261D01*
X022945Y001327D01*
X022960Y001357D01*
X022960Y001160D01*
X023060Y001060D01*
X023940Y001060D01*
X024040Y001160D01*
X024040Y002040D01*
X024040Y001972D02*
X025290Y001972D01*
X025290Y001873D02*
X024040Y001873D01*
X024040Y001775D02*
X025290Y001775D01*
X025290Y001676D02*
X024040Y001676D01*
X024040Y001578D02*
X025290Y001578D01*
X025324Y001479D02*
X024040Y001479D01*
X024040Y001381D02*
X025423Y001381D01*
X025521Y001282D02*
X024040Y001282D01*
X024040Y001184D02*
X025620Y001184D01*
X025718Y001085D02*
X023965Y001085D01*
X023035Y001085D02*
X022573Y001085D01*
X022550Y001085D02*
X022450Y001085D01*
X022427Y001085D02*
X021573Y001085D01*
X021550Y001085D02*
X021450Y001085D01*
X021427Y001085D02*
X020668Y001085D01*
X020847Y001184D02*
X021189Y001184D01*
X021088Y001282D02*
X020946Y001282D01*
X020994Y001381D02*
X021028Y001381D01*
X021450Y001381D02*
X021550Y001381D01*
X021550Y001479D02*
X021450Y001479D01*
X021550Y001578D02*
X022450Y001578D01*
X022450Y001676D02*
X022550Y001676D01*
X022550Y001775D02*
X022450Y001775D01*
X022450Y001873D02*
X022550Y001873D01*
X022550Y001972D02*
X022450Y001972D01*
X022450Y002070D02*
X022550Y002070D01*
X022723Y002070D02*
X022990Y002070D01*
X022960Y001972D02*
X022864Y001972D01*
X022944Y001873D02*
X022960Y001873D01*
X022277Y002070D02*
X021723Y002070D01*
X021864Y001972D02*
X022136Y001972D01*
X022056Y001873D02*
X021944Y001873D01*
X021990Y001775D02*
X022010Y001775D01*
X022028Y001381D02*
X021972Y001381D01*
X021912Y001282D02*
X022088Y001282D01*
X022189Y001184D02*
X021811Y001184D01*
X021550Y001184D02*
X021450Y001184D01*
X021450Y001282D02*
X021550Y001282D01*
X021550Y001676D02*
X021450Y001676D01*
X021450Y001775D02*
X021550Y001775D01*
X021550Y001873D02*
X021450Y001873D01*
X021450Y001972D02*
X021550Y001972D01*
X021550Y002070D02*
X021450Y002070D01*
X021277Y002070D02*
X020776Y002070D01*
X020892Y001972D02*
X021136Y001972D01*
X021056Y001873D02*
X020971Y001873D01*
X020153Y001184D02*
X019847Y001184D01*
X019790Y001085D02*
X020332Y001085D01*
X020054Y001282D02*
X019946Y001282D01*
X019994Y001381D02*
X020006Y001381D01*
X019790Y000987D02*
X025817Y000987D01*
X026971Y001873D02*
X027029Y001873D01*
X027108Y001972D02*
X026892Y001972D01*
X022960Y001282D02*
X022912Y001282D01*
X022960Y001184D02*
X022811Y001184D01*
X022550Y001184D02*
X022450Y001184D01*
X022450Y001282D02*
X022550Y001282D01*
X022550Y001381D02*
X022450Y001381D01*
X022450Y001479D02*
X022550Y001479D01*
X019224Y002070D02*
X018776Y002070D01*
X018892Y001972D02*
X019108Y001972D01*
X019029Y001873D02*
X018971Y001873D01*
X018224Y002070D02*
X017776Y002070D01*
X017892Y001972D02*
X018108Y001972D01*
X018029Y001873D02*
X017971Y001873D01*
X010274Y008867D02*
X008710Y008867D01*
X009720Y011428D02*
X009857Y011428D01*
X009838Y011526D02*
X009720Y011526D01*
X009720Y011625D02*
X009838Y011625D01*
X009838Y011723D02*
X009720Y011723D01*
X009720Y011822D02*
X009838Y011822D01*
X009838Y011920D02*
X009720Y011920D01*
X009720Y012019D02*
X009838Y012019D01*
X009838Y012117D02*
X009720Y012117D01*
X009720Y012216D02*
X009838Y012216D01*
X009895Y012314D02*
X009720Y012314D01*
X013132Y011822D02*
X013286Y011822D01*
X014695Y013398D02*
X015210Y013398D01*
X015184Y013792D02*
X015199Y013792D01*
X012509Y015171D02*
X012481Y015171D01*
X011956Y015466D02*
X011544Y015466D01*
X011643Y015368D02*
X011857Y015368D01*
X011759Y015269D02*
X011741Y015269D01*
X013425Y016057D02*
X013633Y016057D01*
X013606Y015959D02*
X013710Y015959D01*
X013701Y015860D02*
X013710Y015860D01*
X009917Y015368D02*
X009459Y015368D01*
X009459Y015466D02*
X009838Y015466D01*
X009838Y015565D02*
X009459Y015565D01*
X009459Y015663D02*
X009838Y015663D01*
X009838Y015762D02*
X009459Y015762D01*
X009459Y015860D02*
X009838Y015860D01*
X009838Y015959D02*
X009459Y015959D01*
X009459Y016057D02*
X009838Y016057D01*
X009786Y016156D02*
X009378Y016156D01*
X009688Y016254D02*
X008064Y016254D01*
X007966Y016156D02*
X008622Y016156D01*
X008541Y016057D02*
X007867Y016057D01*
X007790Y015959D02*
X008541Y015959D01*
X008541Y015860D02*
X007790Y015860D01*
X007790Y015762D02*
X008541Y015762D01*
X008541Y015663D02*
X007790Y015663D01*
X007790Y015565D02*
X008541Y015565D01*
X008541Y015466D02*
X007790Y015466D01*
X007790Y015368D02*
X008541Y015368D01*
X008541Y015269D02*
X007790Y015269D01*
X007790Y015171D02*
X008606Y015171D01*
X007210Y016156D02*
X000750Y016156D01*
X000750Y016254D02*
X007250Y016254D01*
X007342Y016353D02*
X000750Y016353D01*
X000750Y016451D02*
X007441Y016451D01*
X007539Y016550D02*
X000750Y016550D01*
X000750Y016648D02*
X007638Y016648D01*
X007736Y016747D02*
X000750Y016747D01*
X000750Y016845D02*
X004479Y016845D01*
X004682Y016845D02*
X004782Y016845D01*
X004782Y016944D02*
X004682Y016944D01*
X004682Y017042D02*
X004782Y017042D01*
X004782Y017141D02*
X004682Y017141D01*
X004682Y017239D02*
X004782Y017239D01*
X004782Y017338D02*
X004682Y017338D01*
X004682Y017436D02*
X004782Y017436D01*
X004782Y017535D02*
X004682Y017535D01*
X004682Y017633D02*
X004782Y017633D01*
X004782Y017929D02*
X004682Y017929D01*
X004682Y018027D02*
X004782Y018027D01*
X004782Y018126D02*
X004682Y018126D01*
X004682Y018224D02*
X004782Y018224D01*
X004782Y018323D02*
X004682Y018323D01*
X004682Y018421D02*
X004782Y018421D01*
X004782Y018520D02*
X004682Y018520D01*
X003833Y017633D02*
X000750Y017633D01*
X000750Y017535D02*
X003846Y017535D01*
X003873Y017436D02*
X000750Y017436D01*
X000750Y017338D02*
X003911Y017338D01*
X003964Y017239D02*
X000750Y017239D01*
X000750Y017141D02*
X004034Y017141D01*
X004126Y017042D02*
X000750Y017042D01*
X000750Y016944D02*
X004258Y016944D01*
X004985Y016845D02*
X007835Y016845D01*
X008570Y017141D02*
X005431Y017141D01*
X005501Y017239D02*
X008561Y017239D01*
X008561Y017338D02*
X005553Y017338D01*
X005592Y017436D02*
X008561Y017436D01*
X008950Y017436D02*
X009050Y017436D01*
X009050Y017338D02*
X008950Y017338D01*
X008950Y017239D02*
X009050Y017239D01*
X009050Y017141D02*
X008950Y017141D01*
X009078Y018914D02*
X009135Y018914D01*
X009135Y019012D02*
X009078Y019012D01*
X009483Y019308D02*
X009493Y019308D01*
X009563Y019406D02*
X009408Y019406D01*
X009253Y019505D02*
X009694Y019505D01*
X010710Y020687D02*
X000750Y020687D01*
X000750Y020785D02*
X010710Y020785D01*
X010710Y020884D02*
X000750Y020884D01*
X000750Y020982D02*
X010710Y020982D01*
X010710Y021081D02*
X000750Y021081D01*
X000750Y021179D02*
X010710Y021179D01*
X010710Y021278D02*
X000750Y021278D01*
X000750Y021376D02*
X010710Y021376D01*
X010652Y021475D02*
X000750Y021475D01*
X000750Y021573D02*
X010652Y021573D01*
X010652Y021672D02*
X000750Y021672D01*
X000750Y021770D02*
X010678Y021770D01*
X011322Y021770D02*
X039500Y021770D01*
X039500Y021672D02*
X011348Y021672D01*
X013252Y021081D02*
X013649Y021081D01*
X013518Y020982D02*
X013293Y020982D01*
X013334Y020884D02*
X013433Y020884D01*
X013392Y020785D02*
X013374Y020785D01*
X013365Y020391D02*
X013402Y020391D01*
X013444Y020293D02*
X013324Y020293D01*
X013283Y020194D02*
X013542Y020194D01*
X013664Y020096D02*
X013238Y020096D01*
X013140Y019997D02*
X013664Y019997D01*
X013664Y019899D02*
X013041Y019899D01*
X012865Y019800D02*
X013664Y019800D01*
X013874Y020574D02*
X013900Y020600D01*
X005783Y014875D02*
X000750Y014875D01*
X000750Y014777D02*
X005684Y014777D01*
X005652Y014678D02*
X000750Y014678D01*
X000750Y014580D02*
X005652Y014580D01*
X005652Y014481D02*
X000750Y014481D01*
X000750Y014383D02*
X005710Y014383D01*
X005710Y014284D02*
X000750Y014284D01*
X000750Y014186D02*
X005710Y014186D01*
X005710Y014087D02*
X003778Y014087D01*
X003795Y014081D02*
X003720Y014106D01*
X003642Y014118D01*
X003300Y014118D01*
X003300Y013666D01*
X003200Y013666D01*
X003200Y014118D01*
X002858Y014118D01*
X002780Y014106D01*
X002705Y014081D01*
X002634Y014046D01*
X002570Y013999D01*
X002514Y013943D01*
X002468Y013879D01*
X002432Y013809D01*
X002407Y013733D01*
X002397Y013666D01*
X003200Y013666D01*
X003200Y013566D01*
X002397Y013566D01*
X002407Y013498D01*
X002432Y013423D01*
X002468Y013352D01*
X002514Y013288D01*
X002570Y013232D01*
X002634Y013186D01*
X002705Y013150D01*
X002780Y013126D01*
X002858Y013113D01*
X003200Y013113D01*
X003200Y013566D01*
X003300Y013566D01*
X003300Y013666D01*
X004103Y013666D01*
X004093Y013733D01*
X004068Y013809D01*
X004032Y013879D01*
X003986Y013943D01*
X003930Y013999D01*
X003866Y014046D01*
X003795Y014081D01*
X003940Y013989D02*
X005710Y013989D01*
X005710Y013890D02*
X004024Y013890D01*
X004074Y013792D02*
X005710Y013792D01*
X005710Y013693D02*
X004099Y013693D01*
X004103Y013566D02*
X003300Y013566D01*
X003300Y013113D01*
X003642Y013113D01*
X003720Y013126D01*
X003795Y013150D01*
X003866Y013186D01*
X003930Y013232D01*
X003986Y013288D01*
X004032Y013352D01*
X004068Y013423D01*
X004093Y013498D01*
X004103Y013566D01*
X004092Y013496D02*
X005710Y013496D01*
X005710Y013398D02*
X004055Y013398D01*
X003994Y013299D02*
X005710Y013299D01*
X005710Y013201D02*
X003886Y013201D01*
X003300Y013201D02*
X003200Y013201D01*
X003200Y013299D02*
X003300Y013299D01*
X003300Y013398D02*
X003200Y013398D01*
X003200Y013496D02*
X003300Y013496D01*
X003300Y013595D02*
X005710Y013595D01*
X005710Y013102D02*
X000750Y013102D01*
X000750Y013004D02*
X005710Y013004D01*
X005710Y012905D02*
X000750Y012905D01*
X000750Y012807D02*
X005710Y012807D01*
X005710Y012708D02*
X000750Y012708D01*
X000750Y012610D02*
X005710Y012610D01*
X005710Y012511D02*
X000750Y012511D01*
X000750Y012413D02*
X005710Y012413D01*
X005710Y012314D02*
X000750Y012314D01*
X000750Y012216D02*
X005710Y012216D01*
X005710Y012117D02*
X000750Y012117D01*
X000750Y012019D02*
X005720Y012019D01*
X005770Y011920D02*
X000750Y011920D01*
X000750Y011822D02*
X005868Y011822D01*
X005967Y011723D02*
X000750Y011723D01*
X000750Y011625D02*
X002355Y011625D01*
X002162Y011526D02*
X000750Y011526D01*
X000750Y011428D02*
X002064Y011428D01*
X002010Y011329D02*
X000750Y011329D01*
X000750Y011231D02*
X001970Y011231D01*
X001960Y011132D02*
X000750Y011132D01*
X000750Y011034D02*
X001960Y011034D01*
X001984Y010935D02*
X000750Y010935D01*
X000750Y010837D02*
X002025Y010837D01*
X002098Y010738D02*
X000750Y010738D01*
X000750Y010640D02*
X002201Y010640D01*
X002177Y010541D02*
X000750Y010541D01*
X000750Y010443D02*
X002079Y010443D01*
X002017Y010344D02*
X000750Y010344D01*
X000750Y010246D02*
X001976Y010246D01*
X001960Y010147D02*
X000750Y010147D01*
X000750Y010049D02*
X001960Y010049D01*
X001978Y009950D02*
X000750Y009950D01*
X000750Y009852D02*
X002018Y009852D01*
X002083Y009753D02*
X000750Y009753D01*
X000750Y009655D02*
X002182Y009655D01*
X002192Y009556D02*
X000750Y009556D01*
X000750Y009458D02*
X002094Y009458D01*
X002023Y009359D02*
X000750Y009359D01*
X000750Y009261D02*
X001982Y009261D01*
X001960Y009162D02*
X000750Y009162D01*
X000750Y009064D02*
X001960Y009064D01*
X001971Y008965D02*
X000750Y008965D01*
X000750Y008867D02*
X002012Y008867D01*
X002068Y008768D02*
X000750Y008768D01*
X000750Y008670D02*
X002167Y008670D01*
X002366Y008571D02*
X000750Y008571D01*
X000750Y008473D02*
X003710Y008473D01*
X003710Y008571D02*
X002634Y008571D01*
X002833Y008670D02*
X003710Y008670D01*
X003710Y008768D02*
X002932Y008768D01*
X002988Y008867D02*
X003710Y008867D01*
X003710Y008965D02*
X003029Y008965D01*
X003040Y009064D02*
X003710Y009064D01*
X003710Y009162D02*
X003040Y009162D01*
X003018Y009261D02*
X003710Y009261D01*
X003710Y009359D02*
X002977Y009359D01*
X002906Y009458D02*
X003710Y009458D01*
X003710Y009556D02*
X002808Y009556D01*
X002818Y009655D02*
X003710Y009655D01*
X003710Y009753D02*
X002917Y009753D01*
X002982Y009852D02*
X003710Y009852D01*
X003710Y009950D02*
X003022Y009950D01*
X003040Y010049D02*
X003710Y010049D01*
X003710Y010147D02*
X003040Y010147D01*
X003024Y010246D02*
X003710Y010246D01*
X003710Y010344D02*
X002983Y010344D01*
X002921Y010443D02*
X003710Y010443D01*
X003649Y010541D02*
X002823Y010541D01*
X002799Y010640D02*
X003550Y010640D01*
X003452Y010738D02*
X002902Y010738D01*
X002936Y011428D02*
X006262Y011428D01*
X006164Y011526D02*
X002838Y011526D01*
X002645Y011625D02*
X006065Y011625D01*
X006290Y012905D02*
X006313Y012905D01*
X003300Y013693D02*
X003200Y013693D01*
X003200Y013595D02*
X000750Y013595D01*
X000750Y013693D02*
X002401Y013693D01*
X002426Y013792D02*
X000750Y013792D01*
X000750Y013890D02*
X002476Y013890D01*
X002560Y013989D02*
X000750Y013989D01*
X000750Y014087D02*
X002722Y014087D01*
X003200Y014087D02*
X003300Y014087D01*
X003300Y013989D02*
X003200Y013989D01*
X003200Y013890D02*
X003300Y013890D01*
X003300Y013792D02*
X003200Y013792D01*
X002445Y013398D02*
X000750Y013398D01*
X000750Y013496D02*
X002408Y013496D01*
X002506Y013299D02*
X000750Y013299D01*
X000750Y013201D02*
X002614Y013201D01*
X003710Y008374D02*
X000750Y008374D01*
X000750Y008276D02*
X003710Y008276D01*
X003710Y008177D02*
X000750Y008177D01*
X000750Y008079D02*
X003710Y008079D01*
X003710Y007980D02*
X000750Y007980D01*
X000750Y007882D02*
X003710Y007882D01*
X003710Y007783D02*
X000750Y007783D01*
X000750Y007685D02*
X003710Y007685D01*
X003710Y007586D02*
X000750Y007586D01*
X000750Y007488D02*
X003710Y007488D01*
X003710Y007389D02*
X000750Y007389D01*
X000750Y007291D02*
X003710Y007291D01*
X003710Y007192D02*
X000750Y007192D01*
X000750Y007094D02*
X003710Y007094D01*
X003710Y006995D02*
X000750Y006995D01*
X000750Y006897D02*
X003710Y006897D01*
X003710Y006798D02*
X000750Y006798D01*
X000750Y006700D02*
X003710Y006700D01*
X003710Y006601D02*
X000750Y006601D01*
X000750Y006503D02*
X003710Y006503D01*
X003710Y006404D02*
X000750Y006404D01*
X000750Y006306D02*
X003710Y006306D01*
X003710Y006207D02*
X000750Y006207D01*
X000750Y006109D02*
X003710Y006109D01*
X003710Y006010D02*
X000750Y006010D01*
X000750Y005912D02*
X003710Y005912D01*
X003710Y005813D02*
X000750Y005813D01*
X000750Y005715D02*
X003710Y005715D01*
X003710Y005616D02*
X000750Y005616D01*
X000750Y005518D02*
X003710Y005518D01*
X003710Y005419D02*
X000750Y005419D01*
X000750Y005321D02*
X003710Y005321D01*
X003710Y005222D02*
X000750Y005222D01*
X000750Y005124D02*
X003710Y005124D01*
X003710Y005025D02*
X000750Y005025D01*
X000750Y004927D02*
X003710Y004927D01*
X003710Y004828D02*
X000750Y004828D01*
X000750Y004730D02*
X003710Y004730D01*
X003710Y004631D02*
X000750Y004631D01*
X000750Y004533D02*
X003710Y004533D01*
X003710Y004434D02*
X000750Y004434D01*
X000750Y004336D02*
X003710Y004336D01*
X003710Y004237D02*
X000750Y004237D01*
X000750Y004139D02*
X003710Y004139D01*
X003710Y004040D02*
X000750Y004040D01*
X000750Y003942D02*
X003710Y003942D01*
X003710Y003843D02*
X003183Y003843D01*
X003196Y003838D02*
X002997Y003920D01*
X002783Y003920D01*
X002584Y003838D01*
X002432Y003686D01*
X002350Y003487D01*
X002350Y003273D01*
X002432Y003074D01*
X002584Y002922D01*
X002783Y002840D01*
X002997Y002840D01*
X003196Y002922D01*
X003348Y003074D01*
X003430Y003273D01*
X003430Y003487D01*
X003348Y003686D01*
X003196Y003838D01*
X003289Y003745D02*
X003710Y003745D01*
X003710Y003646D02*
X003364Y003646D01*
X003405Y003548D02*
X003710Y003548D01*
X003710Y003449D02*
X003430Y003449D01*
X003430Y003351D02*
X003710Y003351D01*
X003710Y003252D02*
X003421Y003252D01*
X003381Y003154D02*
X003710Y003154D01*
X003710Y003055D02*
X003329Y003055D01*
X003230Y002957D02*
X003710Y002957D01*
X003710Y002858D02*
X003041Y002858D01*
X002739Y002858D02*
X000750Y002858D01*
X000750Y002760D02*
X003710Y002760D01*
X003710Y002661D02*
X000750Y002661D01*
X000750Y002563D02*
X003710Y002563D01*
X003710Y002464D02*
X000750Y002464D01*
X000750Y002366D02*
X003710Y002366D01*
X003710Y002267D02*
X000750Y002267D01*
X000750Y002169D02*
X003710Y002169D01*
X003710Y002070D02*
X000750Y002070D01*
X000750Y001972D02*
X003710Y001972D01*
X003710Y001873D02*
X000750Y001873D01*
X000750Y001775D02*
X003710Y001775D01*
X003710Y001676D02*
X000750Y001676D01*
X000750Y001578D02*
X003710Y001578D01*
X003710Y001479D02*
X000750Y001479D01*
X000750Y001381D02*
X003710Y001381D01*
X003710Y001282D02*
X003186Y001282D01*
X003290Y001184D02*
X003710Y001184D01*
X003710Y001085D02*
X003365Y001085D01*
X003406Y000987D02*
X003733Y000987D01*
X003802Y000888D02*
X003430Y000888D01*
X003430Y000790D02*
X003900Y000790D01*
X003999Y000691D02*
X003421Y000691D01*
X003380Y000593D02*
X004097Y000593D01*
X004196Y000494D02*
X003328Y000494D01*
X003229Y000396D02*
X004294Y000396D01*
X002551Y000396D02*
X001410Y000396D01*
X001516Y000494D02*
X002452Y000494D01*
X002400Y000593D02*
X001578Y000593D01*
X001615Y000691D02*
X002359Y000691D01*
X002350Y000790D02*
X001160Y000790D01*
X001160Y000870D02*
X001629Y000870D01*
X001617Y000942D01*
X001592Y001020D01*
X001555Y001093D01*
X001507Y001159D01*
X001449Y001217D01*
X001383Y001265D01*
X001310Y001302D01*
X001232Y001327D01*
X001160Y001339D01*
X001160Y000870D01*
X001160Y000888D02*
X001060Y000888D01*
X001060Y000987D02*
X001160Y000987D01*
X001160Y001085D02*
X001060Y001085D01*
X001060Y001184D02*
X001160Y001184D01*
X001160Y001282D02*
X001060Y001282D01*
X000871Y001282D02*
X000750Y001282D01*
X001349Y001282D02*
X002594Y001282D01*
X002490Y001184D02*
X001482Y001184D01*
X001559Y001085D02*
X002415Y001085D01*
X002374Y000987D02*
X001603Y000987D01*
X001626Y000888D02*
X002350Y000888D01*
X004290Y001578D02*
X004600Y001578D01*
X004410Y001676D02*
X004290Y001676D01*
X004290Y001775D02*
X004312Y001775D01*
X004290Y002464D02*
X004350Y002464D01*
X002550Y002957D02*
X001412Y002957D01*
X001383Y002935D02*
X001449Y002983D01*
X001507Y003041D01*
X001555Y003107D01*
X001592Y003180D01*
X001617Y003258D01*
X001629Y003330D01*
X001160Y003330D01*
X001160Y002861D01*
X001232Y002873D01*
X001310Y002898D01*
X001383Y002935D01*
X001517Y003055D02*
X002451Y003055D01*
X002399Y003154D02*
X001578Y003154D01*
X001615Y003252D02*
X002359Y003252D01*
X002350Y003351D02*
X001160Y003351D01*
X001160Y003430D02*
X001629Y003430D01*
X001617Y003502D01*
X001592Y003580D01*
X001555Y003653D01*
X001507Y003719D01*
X001449Y003777D01*
X001383Y003825D01*
X001310Y003862D01*
X001232Y003887D01*
X001160Y003899D01*
X001160Y003430D01*
X001160Y003449D02*
X001060Y003449D01*
X001060Y003548D02*
X001160Y003548D01*
X001160Y003646D02*
X001060Y003646D01*
X001060Y003745D02*
X001160Y003745D01*
X001160Y003843D02*
X001060Y003843D01*
X000873Y003843D02*
X000750Y003843D01*
X001347Y003843D02*
X002597Y003843D01*
X002491Y003745D02*
X001481Y003745D01*
X001558Y003646D02*
X002416Y003646D01*
X002375Y003548D02*
X001602Y003548D01*
X001626Y003449D02*
X002350Y003449D01*
X001160Y003252D02*
X001060Y003252D01*
X001060Y003154D02*
X001160Y003154D01*
X001160Y003055D02*
X001060Y003055D01*
X001060Y002957D02*
X001160Y002957D01*
X000808Y002957D02*
X000750Y002957D01*
X000750Y019702D02*
X002498Y019702D01*
X002514Y019800D02*
X000750Y019800D01*
X000750Y019899D02*
X002542Y019899D01*
X002583Y019997D02*
X000750Y019997D01*
X000750Y020096D02*
X002639Y020096D01*
X002714Y020194D02*
X000750Y020194D01*
X000750Y020293D02*
X002816Y020293D01*
X002961Y020391D02*
X000750Y020391D01*
D31*
X013874Y020574D02*
X013874Y019100D01*
X015500Y019100D02*
X022500Y019100D01*
X021500Y018350D02*
X018250Y018350D01*
X018000Y018100D01*
X015000Y018100D01*
X015000Y020500D01*
X014900Y020600D01*
X015000Y018100D02*
X013874Y018100D01*
X018000Y017100D02*
X032000Y017100D01*
X032500Y017600D02*
X019000Y017600D01*
X020000Y016600D02*
X033000Y016600D01*
X033500Y016100D02*
X033500Y019527D01*
X034412Y020438D01*
X033500Y016100D02*
X031000Y016100D01*
X033500Y016100D02*
X033500Y014600D01*
X034000Y014100D01*
X038000Y014100D01*
X038500Y013600D01*
X037500Y013600D02*
X015500Y013600D01*
X015000Y014100D02*
X029000Y014100D01*
X036000Y013100D02*
X014500Y013100D01*
X013500Y012100D02*
X036000Y012100D01*
X036500Y011600D01*
X037500Y011600D01*
X038500Y012600D02*
X039000Y012100D01*
X039000Y001600D01*
X038500Y001100D01*
X026000Y001100D01*
X025500Y001600D01*
X025500Y002600D01*
X025000Y003100D01*
X018000Y003100D01*
X017500Y003600D01*
X014500Y003600D01*
X013500Y004600D01*
X010250Y002724D02*
X009624Y002724D01*
X009500Y002600D01*
X009500Y002100D01*
X007000Y005100D02*
X006500Y004600D01*
X007000Y005100D02*
X024000Y005100D01*
X023500Y004600D02*
X024000Y004100D01*
X026000Y004100D01*
X027500Y002600D01*
X035500Y002600D01*
X036000Y003100D01*
X038000Y003100D01*
X038500Y003600D01*
X037500Y003600D02*
X037000Y003600D01*
X036000Y004600D01*
X031000Y004600D01*
X030500Y004100D01*
X029000Y004100D01*
X026500Y003100D02*
X026000Y003600D01*
X018000Y003600D01*
X017500Y004100D01*
X017500Y004600D01*
X023000Y006100D02*
X008500Y006100D01*
X007500Y005600D02*
X023500Y005600D01*
X024500Y004600D02*
X025000Y005100D01*
X036000Y005100D01*
X037000Y004100D01*
X038000Y004100D01*
X038500Y004600D01*
X037500Y004600D02*
X037000Y004600D01*
X035000Y006600D01*
X007000Y006600D01*
X006500Y007100D01*
X006500Y010600D01*
X007500Y010600D02*
X007500Y007600D01*
X008000Y007100D01*
X035000Y007100D01*
X036500Y005600D01*
X037500Y005600D01*
X037500Y006600D02*
X036000Y006600D01*
X035000Y007600D01*
X009000Y007600D01*
X008500Y008100D01*
X008500Y010600D01*
X009500Y010600D02*
X009500Y009600D01*
X010000Y009100D01*
X035000Y009100D01*
X036500Y007600D01*
X037500Y007600D01*
X037500Y008600D02*
X036500Y008600D01*
X035500Y009600D01*
X011000Y009600D01*
X010500Y010100D01*
X010500Y010600D01*
X011500Y010600D02*
X012000Y010100D01*
X036000Y010100D01*
X036500Y009600D01*
X037500Y009600D01*
X037500Y010600D02*
X036500Y010600D01*
X036250Y010850D01*
X036000Y011100D01*
X013000Y011100D01*
X012500Y010600D01*
X010500Y008600D02*
X034500Y008600D01*
X034500Y008100D02*
X009500Y008100D01*
X025500Y005600D02*
X034500Y005600D01*
X026500Y003100D02*
X026500Y001600D01*
X036500Y012600D02*
X037500Y012600D01*
X036500Y012600D02*
X036000Y013100D01*
M02*
