G75*
G70*
%OFA0B0*%
%FSLAX24Y24*%
%IPPOS*%
%LPD*%
%AMOC8*
5,1,8,0,0,1.08239X$1,22.5*
%
%ADD10C,0.0000*%
%ADD11C,0.0740*%
%ADD12R,0.0740X0.0740*%
%ADD13OC8,0.0740*%
%ADD14C,0.0560*%
%ADD15C,0.1660*%
%ADD16C,0.1502*%
%ADD17C,0.0705*%
%ADD18C,0.0600*%
%ADD19C,0.0660*%
%ADD20R,0.0551X0.0748*%
%ADD21R,0.0709X0.0551*%
%ADD22R,0.0276X0.0591*%
%ADD23R,0.0866X0.0236*%
%ADD24R,0.0512X0.0630*%
%ADD25R,0.0630X0.0512*%
%ADD26R,0.0250X0.0500*%
%ADD27R,0.0591X0.0512*%
%ADD28R,0.0512X0.0591*%
%ADD29OC8,0.0356*%
%ADD30C,0.0240*%
%ADD31C,0.0080*%
%ADD32C,0.0100*%
D10*
X001500Y003413D02*
X001500Y025409D01*
X040870Y025409D01*
X040870Y003413D01*
X001500Y003413D01*
X012291Y004913D02*
X012293Y004966D01*
X012299Y005019D01*
X012309Y005071D01*
X012322Y005122D01*
X012340Y005172D01*
X012361Y005221D01*
X012386Y005268D01*
X012414Y005312D01*
X012446Y005355D01*
X012480Y005395D01*
X012518Y005433D01*
X012558Y005467D01*
X012601Y005499D01*
X012646Y005527D01*
X012692Y005552D01*
X012741Y005573D01*
X012791Y005591D01*
X012842Y005604D01*
X012894Y005614D01*
X012947Y005620D01*
X013000Y005622D01*
X013053Y005620D01*
X013106Y005614D01*
X013158Y005604D01*
X013209Y005591D01*
X013259Y005573D01*
X013308Y005552D01*
X013355Y005527D01*
X013399Y005499D01*
X013442Y005467D01*
X013482Y005433D01*
X013520Y005395D01*
X013554Y005355D01*
X013586Y005312D01*
X013614Y005267D01*
X013639Y005221D01*
X013660Y005172D01*
X013678Y005122D01*
X013691Y005071D01*
X013701Y005019D01*
X013707Y004966D01*
X013709Y004913D01*
X013707Y004860D01*
X013701Y004807D01*
X013691Y004755D01*
X013678Y004704D01*
X013660Y004654D01*
X013639Y004605D01*
X013614Y004558D01*
X013586Y004514D01*
X013554Y004471D01*
X013520Y004431D01*
X013482Y004393D01*
X013442Y004359D01*
X013399Y004327D01*
X013354Y004299D01*
X013308Y004274D01*
X013259Y004253D01*
X013209Y004235D01*
X013158Y004222D01*
X013106Y004212D01*
X013053Y004206D01*
X013000Y004204D01*
X012947Y004206D01*
X012894Y004212D01*
X012842Y004222D01*
X012791Y004235D01*
X012741Y004253D01*
X012692Y004274D01*
X012645Y004299D01*
X012601Y004327D01*
X012558Y004359D01*
X012518Y004393D01*
X012480Y004431D01*
X012446Y004471D01*
X012414Y004514D01*
X012386Y004559D01*
X012361Y004605D01*
X012340Y004654D01*
X012322Y004704D01*
X012309Y004755D01*
X012299Y004807D01*
X012293Y004860D01*
X012291Y004913D01*
X032791Y006913D02*
X032793Y006966D01*
X032799Y007019D01*
X032809Y007071D01*
X032822Y007122D01*
X032840Y007172D01*
X032861Y007221D01*
X032886Y007268D01*
X032914Y007312D01*
X032946Y007355D01*
X032980Y007395D01*
X033018Y007433D01*
X033058Y007467D01*
X033101Y007499D01*
X033146Y007527D01*
X033192Y007552D01*
X033241Y007573D01*
X033291Y007591D01*
X033342Y007604D01*
X033394Y007614D01*
X033447Y007620D01*
X033500Y007622D01*
X033553Y007620D01*
X033606Y007614D01*
X033658Y007604D01*
X033709Y007591D01*
X033759Y007573D01*
X033808Y007552D01*
X033855Y007527D01*
X033899Y007499D01*
X033942Y007467D01*
X033982Y007433D01*
X034020Y007395D01*
X034054Y007355D01*
X034086Y007312D01*
X034114Y007267D01*
X034139Y007221D01*
X034160Y007172D01*
X034178Y007122D01*
X034191Y007071D01*
X034201Y007019D01*
X034207Y006966D01*
X034209Y006913D01*
X034207Y006860D01*
X034201Y006807D01*
X034191Y006755D01*
X034178Y006704D01*
X034160Y006654D01*
X034139Y006605D01*
X034114Y006558D01*
X034086Y006514D01*
X034054Y006471D01*
X034020Y006431D01*
X033982Y006393D01*
X033942Y006359D01*
X033899Y006327D01*
X033854Y006299D01*
X033808Y006274D01*
X033759Y006253D01*
X033709Y006235D01*
X033658Y006222D01*
X033606Y006212D01*
X033553Y006206D01*
X033500Y006204D01*
X033447Y006206D01*
X033394Y006212D01*
X033342Y006222D01*
X033291Y006235D01*
X033241Y006253D01*
X033192Y006274D01*
X033145Y006299D01*
X033101Y006327D01*
X033058Y006359D01*
X033018Y006393D01*
X032980Y006431D01*
X032946Y006471D01*
X032914Y006514D01*
X032886Y006559D01*
X032861Y006605D01*
X032840Y006654D01*
X032822Y006704D01*
X032809Y006755D01*
X032799Y006807D01*
X032793Y006860D01*
X032791Y006913D01*
X032791Y017913D02*
X032793Y017966D01*
X032799Y018019D01*
X032809Y018071D01*
X032822Y018122D01*
X032840Y018172D01*
X032861Y018221D01*
X032886Y018268D01*
X032914Y018312D01*
X032946Y018355D01*
X032980Y018395D01*
X033018Y018433D01*
X033058Y018467D01*
X033101Y018499D01*
X033146Y018527D01*
X033192Y018552D01*
X033241Y018573D01*
X033291Y018591D01*
X033342Y018604D01*
X033394Y018614D01*
X033447Y018620D01*
X033500Y018622D01*
X033553Y018620D01*
X033606Y018614D01*
X033658Y018604D01*
X033709Y018591D01*
X033759Y018573D01*
X033808Y018552D01*
X033855Y018527D01*
X033899Y018499D01*
X033942Y018467D01*
X033982Y018433D01*
X034020Y018395D01*
X034054Y018355D01*
X034086Y018312D01*
X034114Y018267D01*
X034139Y018221D01*
X034160Y018172D01*
X034178Y018122D01*
X034191Y018071D01*
X034201Y018019D01*
X034207Y017966D01*
X034209Y017913D01*
X034207Y017860D01*
X034201Y017807D01*
X034191Y017755D01*
X034178Y017704D01*
X034160Y017654D01*
X034139Y017605D01*
X034114Y017558D01*
X034086Y017514D01*
X034054Y017471D01*
X034020Y017431D01*
X033982Y017393D01*
X033942Y017359D01*
X033899Y017327D01*
X033854Y017299D01*
X033808Y017274D01*
X033759Y017253D01*
X033709Y017235D01*
X033658Y017222D01*
X033606Y017212D01*
X033553Y017206D01*
X033500Y017204D01*
X033447Y017206D01*
X033394Y017212D01*
X033342Y017222D01*
X033291Y017235D01*
X033241Y017253D01*
X033192Y017274D01*
X033145Y017299D01*
X033101Y017327D01*
X033058Y017359D01*
X033018Y017393D01*
X032980Y017431D01*
X032946Y017471D01*
X032914Y017514D01*
X032886Y017559D01*
X032861Y017605D01*
X032840Y017654D01*
X032822Y017704D01*
X032809Y017755D01*
X032799Y017807D01*
X032793Y017860D01*
X032791Y017913D01*
X012791Y023913D02*
X012793Y023966D01*
X012799Y024019D01*
X012809Y024071D01*
X012822Y024122D01*
X012840Y024172D01*
X012861Y024221D01*
X012886Y024268D01*
X012914Y024312D01*
X012946Y024355D01*
X012980Y024395D01*
X013018Y024433D01*
X013058Y024467D01*
X013101Y024499D01*
X013146Y024527D01*
X013192Y024552D01*
X013241Y024573D01*
X013291Y024591D01*
X013342Y024604D01*
X013394Y024614D01*
X013447Y024620D01*
X013500Y024622D01*
X013553Y024620D01*
X013606Y024614D01*
X013658Y024604D01*
X013709Y024591D01*
X013759Y024573D01*
X013808Y024552D01*
X013855Y024527D01*
X013899Y024499D01*
X013942Y024467D01*
X013982Y024433D01*
X014020Y024395D01*
X014054Y024355D01*
X014086Y024312D01*
X014114Y024267D01*
X014139Y024221D01*
X014160Y024172D01*
X014178Y024122D01*
X014191Y024071D01*
X014201Y024019D01*
X014207Y023966D01*
X014209Y023913D01*
X014207Y023860D01*
X014201Y023807D01*
X014191Y023755D01*
X014178Y023704D01*
X014160Y023654D01*
X014139Y023605D01*
X014114Y023558D01*
X014086Y023514D01*
X014054Y023471D01*
X014020Y023431D01*
X013982Y023393D01*
X013942Y023359D01*
X013899Y023327D01*
X013854Y023299D01*
X013808Y023274D01*
X013759Y023253D01*
X013709Y023235D01*
X013658Y023222D01*
X013606Y023212D01*
X013553Y023206D01*
X013500Y023204D01*
X013447Y023206D01*
X013394Y023212D01*
X013342Y023222D01*
X013291Y023235D01*
X013241Y023253D01*
X013192Y023274D01*
X013145Y023299D01*
X013101Y023327D01*
X013058Y023359D01*
X013018Y023393D01*
X012980Y023431D01*
X012946Y023471D01*
X012914Y023514D01*
X012886Y023559D01*
X012861Y023605D01*
X012840Y023654D01*
X012822Y023704D01*
X012809Y023755D01*
X012799Y023807D01*
X012793Y023860D01*
X012791Y023913D01*
D11*
X014900Y023913D03*
X015900Y023913D03*
X016900Y023913D03*
X017900Y023913D03*
X018900Y023913D03*
X019900Y023913D03*
X020900Y023913D03*
X021900Y023913D03*
X022900Y023913D03*
X023900Y023913D03*
X025500Y023913D03*
X026500Y023913D03*
X027500Y023913D03*
X028500Y023913D03*
X029500Y023913D03*
X030500Y023913D03*
X031500Y023913D03*
X030500Y013913D03*
X029500Y013913D03*
X028500Y013913D03*
X027500Y013913D03*
X026500Y013913D03*
X025500Y013913D03*
X024500Y013913D03*
X023500Y013913D03*
X022500Y013913D03*
X021500Y013913D03*
X020500Y013913D03*
X019500Y013913D03*
X018500Y013913D03*
X017500Y013913D03*
X016500Y013913D03*
X015500Y013913D03*
X014500Y013913D03*
X013500Y013913D03*
X012500Y013913D03*
X011500Y013913D03*
X010500Y013913D03*
X009500Y013913D03*
X008500Y013913D03*
X007500Y013913D03*
X003500Y014413D03*
X003500Y013413D03*
X003500Y012413D03*
X003250Y009163D03*
X004250Y009163D03*
X007500Y007913D03*
X008500Y007913D03*
X009500Y007913D03*
X010500Y007913D03*
X011500Y007913D03*
X012500Y007913D03*
X013500Y007913D03*
X014500Y007913D03*
X015500Y007913D03*
X016500Y007913D03*
X017500Y007913D03*
X018500Y007913D03*
X019500Y007913D03*
X020500Y007913D03*
X021500Y007913D03*
X022500Y007913D03*
X023500Y007913D03*
X024500Y007913D03*
X025500Y007913D03*
X026500Y007913D03*
X027500Y007913D03*
X028500Y007913D03*
X029500Y007913D03*
X030500Y007913D03*
X030500Y004913D03*
X029500Y004913D03*
X028500Y004913D03*
X027500Y004913D03*
X023500Y004913D03*
X022500Y004913D03*
X021500Y004913D03*
X020500Y004913D03*
X019500Y004913D03*
X018500Y004913D03*
X017500Y004913D03*
X016000Y004913D03*
X016000Y005913D03*
X007750Y005413D03*
X006750Y005413D03*
X005750Y005413D03*
X003890Y006693D03*
X002110Y006693D03*
X002110Y004133D03*
X003890Y004133D03*
X031500Y004913D03*
X032500Y004913D03*
D12*
X024500Y004913D03*
X032500Y023913D03*
D13*
X032500Y015913D03*
X033500Y015913D03*
X033500Y014913D03*
X032500Y014913D03*
X032500Y013913D03*
X033500Y013913D03*
D14*
X005250Y017519D03*
X005250Y018307D03*
D15*
X005854Y022913D03*
D16*
X003394Y022913D03*
X004732Y021023D03*
D17*
X004603Y018897D02*
X003898Y018897D01*
X003898Y016929D02*
X004603Y016929D01*
D18*
X013700Y017413D02*
X014300Y017413D01*
X014300Y018413D02*
X013700Y018413D01*
X013700Y019413D02*
X014300Y019413D01*
D19*
X038500Y017913D03*
X039500Y017913D03*
X039500Y016913D03*
X038500Y016913D03*
X038500Y015913D03*
X039500Y015913D03*
X039500Y014913D03*
X038500Y014913D03*
X038500Y013913D03*
X039500Y013913D03*
X039500Y012913D03*
X038500Y012913D03*
X038500Y011913D03*
X039500Y011913D03*
X039500Y010913D03*
X038500Y010913D03*
X038500Y009913D03*
X039500Y009913D03*
X039500Y008913D03*
X038500Y008913D03*
X038500Y007913D03*
X039500Y007913D03*
X039500Y006913D03*
X038500Y006913D03*
X038500Y005913D03*
X039500Y005913D03*
D20*
X012343Y019082D03*
X007146Y018728D03*
D21*
X009350Y024240D03*
X011713Y024240D03*
D22*
X009390Y020381D03*
X009823Y020224D03*
X010256Y020067D03*
X010689Y020224D03*
X011122Y020067D03*
X011555Y020224D03*
X011988Y020224D03*
X008957Y020224D03*
D23*
X033976Y020163D03*
X033976Y019663D03*
X033976Y019163D03*
X036024Y019163D03*
X036024Y019663D03*
X036024Y020163D03*
X036024Y020663D03*
X037476Y020663D03*
X037476Y020163D03*
X037476Y019663D03*
X037476Y019163D03*
X039524Y019163D03*
X039524Y019663D03*
X039524Y020163D03*
X039524Y020663D03*
X039524Y022663D03*
X039524Y023163D03*
X039524Y023663D03*
X039524Y024163D03*
X037476Y024163D03*
X037476Y023663D03*
X037476Y023163D03*
X037476Y022663D03*
X036024Y022663D03*
X036024Y023163D03*
X036024Y023663D03*
X036024Y024163D03*
X033976Y024163D03*
X033976Y023663D03*
X033976Y023163D03*
X033976Y022663D03*
X033976Y020663D03*
D24*
X034106Y021413D03*
X034894Y021413D03*
X037356Y021413D03*
X038144Y021413D03*
X038956Y021413D03*
X039744Y021413D03*
D25*
X033000Y022269D03*
X033000Y023057D03*
D26*
X025427Y021913D03*
X025073Y021913D03*
X024427Y021913D03*
X024073Y021913D03*
X020677Y016913D03*
X020323Y016913D03*
X019677Y016913D03*
X019323Y016913D03*
D27*
X019500Y015998D03*
X018500Y015998D03*
X018500Y015328D03*
X019500Y015328D03*
X020500Y015328D03*
X020500Y015998D03*
X021500Y015998D03*
X021500Y015328D03*
X022500Y015328D03*
X022500Y015998D03*
X023500Y015998D03*
X024500Y015998D03*
X024500Y015328D03*
X023500Y015328D03*
X025500Y015328D03*
X025500Y015998D03*
X026500Y015998D03*
X026500Y015328D03*
X027500Y015328D03*
X027500Y015998D03*
X028500Y015998D03*
X029500Y015998D03*
X029500Y015328D03*
X028500Y015328D03*
X021000Y010248D03*
X021000Y009578D03*
X019000Y009578D03*
X019000Y010248D03*
X017000Y010248D03*
X017000Y009578D03*
X017500Y015328D03*
X017500Y015998D03*
D28*
X017915Y006913D03*
X018585Y006913D03*
X022915Y005913D03*
X023585Y005913D03*
X024665Y006413D03*
X025335Y006413D03*
X025665Y005413D03*
X026335Y005413D03*
D29*
X025350Y004813D03*
X022000Y004413D03*
X019000Y007413D03*
X015000Y006163D03*
X014500Y006413D03*
X014000Y005413D03*
X015000Y004913D03*
X014500Y004413D03*
X010500Y005163D03*
X010500Y005913D03*
X009000Y003913D03*
X006000Y007913D03*
X008500Y008913D03*
X009500Y009413D03*
X008250Y010413D03*
X009250Y010913D03*
X010500Y011413D03*
X010000Y012163D03*
X011500Y011913D03*
X006500Y011913D03*
X002500Y011413D03*
X006500Y015663D03*
X007250Y016413D03*
X008500Y018413D03*
X008000Y018913D03*
X007750Y019663D03*
X010750Y022413D03*
X012750Y022663D03*
X015500Y021913D03*
X016750Y022413D03*
X018250Y022413D03*
X018900Y021913D03*
X020250Y022413D03*
X021500Y022913D03*
X023500Y023413D03*
X024750Y024413D03*
X022500Y021413D03*
X020900Y020913D03*
X019900Y019913D03*
X018250Y020413D03*
X017000Y020913D03*
X017000Y021413D03*
X015500Y020663D03*
X017000Y019913D03*
X016250Y019413D03*
X016000Y017413D03*
X016500Y016913D03*
X015500Y016413D03*
X014500Y015413D03*
X024750Y020413D03*
X027000Y021413D03*
X028000Y021313D03*
X032000Y021413D03*
X033500Y021663D03*
X034750Y022663D03*
X036750Y022913D03*
X038250Y022413D03*
X038900Y023163D03*
X038400Y023913D03*
X036750Y024263D03*
X034750Y023913D03*
X031800Y024513D03*
X036750Y021413D03*
X038250Y020763D03*
X038750Y020413D03*
X038250Y019913D03*
X038750Y019163D03*
X036750Y019663D03*
X035200Y019713D03*
X033000Y019663D03*
X032500Y019663D03*
X031500Y018663D03*
X031000Y017913D03*
X034750Y017413D03*
X034750Y015913D03*
X034750Y014913D03*
X030500Y014913D03*
X035500Y011913D03*
X035500Y011413D03*
X035500Y009413D03*
X035500Y008913D03*
X036500Y007413D03*
X034500Y006413D03*
X036500Y005413D03*
X035500Y003913D03*
X033750Y004663D03*
X032250Y007413D03*
X027500Y009413D03*
X026500Y008913D03*
X025000Y008413D03*
X024500Y008913D03*
X024000Y009413D03*
X040000Y015413D03*
X040000Y017513D03*
X039850Y022113D03*
X016500Y023413D03*
X012000Y024913D03*
X010750Y024913D03*
D30*
X010432Y024640D02*
X009913Y024640D01*
X009908Y024651D02*
X009841Y024719D01*
X009752Y024755D01*
X008948Y024755D01*
X008860Y024719D01*
X008793Y024651D01*
X008756Y024563D01*
X008756Y023916D01*
X008793Y023828D01*
X008860Y023761D01*
X008948Y023724D01*
X009752Y023724D01*
X009841Y023761D01*
X009908Y023828D01*
X009945Y023916D01*
X009945Y024563D01*
X009908Y024651D01*
X009945Y024401D02*
X011116Y024401D01*
X011118Y024399D02*
X011118Y023916D01*
X011155Y023828D01*
X011222Y023761D01*
X011311Y023724D01*
X011793Y023724D01*
X012763Y022754D01*
X012841Y022676D01*
X012944Y022633D01*
X016134Y022633D01*
X016332Y022435D01*
X016332Y022240D01*
X016577Y021995D01*
X016923Y021995D01*
X017168Y022240D01*
X017168Y022586D01*
X016923Y022831D01*
X016728Y022831D01*
X016564Y022995D01*
X016673Y022995D01*
X016918Y023240D01*
X016918Y023303D01*
X017021Y023303D01*
X017087Y023330D01*
X017220Y023197D01*
X017220Y021784D01*
X017173Y021831D01*
X016827Y021831D01*
X016689Y021693D01*
X009444Y021693D01*
X009341Y021650D01*
X009152Y021461D01*
X009110Y021358D01*
X009110Y020874D01*
X009049Y020813D01*
X009026Y020759D01*
X008860Y020759D01*
X008860Y022014D01*
X008899Y022053D01*
X010519Y022053D01*
X010577Y021995D01*
X010923Y021995D01*
X011168Y022240D01*
X011168Y022586D01*
X010923Y022831D01*
X010577Y022831D01*
X010519Y022773D01*
X008678Y022773D01*
X008546Y022718D01*
X008445Y022617D01*
X008195Y022367D01*
X008140Y022235D01*
X008140Y020023D01*
X007981Y020023D01*
X007923Y020081D01*
X007577Y020081D01*
X007332Y019836D01*
X007332Y019490D01*
X007526Y019295D01*
X007506Y019307D01*
X007450Y019322D01*
X007163Y019322D01*
X007163Y018746D01*
X007128Y018746D01*
X007128Y019322D01*
X006841Y019322D01*
X006785Y019307D01*
X006735Y019278D01*
X006694Y019237D01*
X006665Y019187D01*
X006650Y019131D01*
X006650Y018746D01*
X007128Y018746D01*
X007128Y018710D01*
X007163Y018710D01*
X007163Y018134D01*
X007450Y018134D01*
X007506Y018149D01*
X007556Y018178D01*
X007597Y018219D01*
X007626Y018269D01*
X007641Y018325D01*
X007641Y018710D01*
X007163Y018710D01*
X007163Y018746D01*
X007641Y018746D01*
X007641Y019131D01*
X007626Y019187D01*
X007597Y019237D01*
X007589Y019245D01*
X007923Y019245D01*
X007981Y019303D01*
X010072Y019303D01*
X010204Y019358D01*
X010305Y019459D01*
X010377Y019531D01*
X010441Y019531D01*
X010530Y019568D01*
X010597Y019635D01*
X010619Y019689D01*
X010779Y019689D01*
X010779Y019686D01*
X010808Y019636D01*
X010849Y019595D01*
X010899Y019566D01*
X010955Y019551D01*
X011122Y019551D01*
X011122Y020067D01*
X011122Y020582D01*
X011065Y020582D01*
X011116Y020633D01*
X011205Y020633D01*
X011183Y020582D01*
X011122Y020582D01*
X011122Y020067D01*
X011122Y020067D01*
X011122Y020067D01*
X011122Y019551D01*
X011289Y019551D01*
X011345Y019566D01*
X011395Y019595D01*
X011436Y019636D01*
X011465Y019686D01*
X011465Y019689D01*
X011741Y019689D01*
X011772Y019702D01*
X011803Y019689D01*
X012174Y019689D01*
X012262Y019725D01*
X012329Y019793D01*
X012366Y019881D01*
X012366Y020383D01*
X014884Y020383D01*
X015513Y019754D01*
X015591Y019676D01*
X015694Y019633D01*
X016689Y019633D01*
X016827Y019495D01*
X017173Y019495D01*
X017220Y019542D01*
X017220Y019529D01*
X014763Y017072D01*
X014720Y016969D01*
X014720Y015784D01*
X014673Y015831D01*
X014327Y015831D01*
X014082Y015586D01*
X014082Y015240D01*
X014220Y015102D01*
X014220Y014457D01*
X014154Y014430D01*
X014000Y014276D01*
X013846Y014430D01*
X013621Y014523D01*
X013379Y014523D01*
X013154Y014430D01*
X013000Y014276D01*
X012846Y014430D01*
X012621Y014523D01*
X012379Y014523D01*
X012154Y014430D01*
X012000Y014276D01*
X011846Y014430D01*
X011621Y014523D01*
X011379Y014523D01*
X011154Y014430D01*
X011000Y014276D01*
X010846Y014430D01*
X010621Y014523D01*
X010379Y014523D01*
X010154Y014430D01*
X010000Y014276D01*
X009846Y014430D01*
X009621Y014523D01*
X009379Y014523D01*
X009154Y014430D01*
X009000Y014276D01*
X008846Y014430D01*
X008621Y014523D01*
X008379Y014523D01*
X008154Y014430D01*
X008000Y014276D01*
X007846Y014430D01*
X007621Y014523D01*
X007379Y014523D01*
X007154Y014430D01*
X006983Y014259D01*
X006890Y014034D01*
X006890Y013792D01*
X006983Y013567D01*
X007154Y013396D01*
X007379Y013303D01*
X007621Y013303D01*
X007846Y013396D01*
X008000Y013550D01*
X008154Y013396D01*
X008379Y013303D01*
X008621Y013303D01*
X008846Y013396D01*
X009000Y013550D01*
X009154Y013396D01*
X009379Y013303D01*
X009621Y013303D01*
X009846Y013396D01*
X010000Y013550D01*
X010154Y013396D01*
X010379Y013303D01*
X010621Y013303D01*
X010846Y013396D01*
X011000Y013550D01*
X011154Y013396D01*
X011379Y013303D01*
X011621Y013303D01*
X011846Y013396D01*
X012000Y013550D01*
X012154Y013396D01*
X012379Y013303D01*
X012621Y013303D01*
X012846Y013396D01*
X013000Y013550D01*
X013154Y013396D01*
X013379Y013303D01*
X013621Y013303D01*
X013846Y013396D01*
X014000Y013550D01*
X014154Y013396D01*
X014379Y013303D01*
X014621Y013303D01*
X014720Y013344D01*
X014720Y009029D01*
X014394Y008703D01*
X012942Y008703D01*
X012836Y008659D01*
X012754Y008577D01*
X012677Y008500D01*
X012621Y008523D01*
X012379Y008523D01*
X012154Y008430D01*
X012000Y008276D01*
X011846Y008430D01*
X011780Y008457D01*
X011780Y011602D01*
X011918Y011740D01*
X011918Y012086D01*
X011673Y012331D01*
X011327Y012331D01*
X011082Y012086D01*
X011082Y011740D01*
X011220Y011602D01*
X011220Y008457D01*
X011154Y008430D01*
X011000Y008276D01*
X010846Y008430D01*
X010780Y008457D01*
X010780Y011102D01*
X010918Y011240D01*
X010918Y011586D01*
X010673Y011831D01*
X010327Y011831D01*
X010082Y011586D01*
X010082Y011240D01*
X010220Y011102D01*
X010220Y008457D01*
X010154Y008430D01*
X010000Y008276D01*
X009846Y008430D01*
X009790Y008453D01*
X009790Y009112D01*
X009918Y009240D01*
X009918Y009586D01*
X009673Y009831D01*
X009327Y009831D01*
X009082Y009586D01*
X009082Y009240D01*
X009210Y009112D01*
X009210Y008453D01*
X009154Y008430D01*
X009000Y008276D01*
X008846Y008430D01*
X008780Y008457D01*
X008780Y008602D01*
X008918Y008740D01*
X008918Y009086D01*
X008673Y009331D01*
X008327Y009331D01*
X008082Y009086D01*
X008082Y008740D01*
X008220Y008602D01*
X008220Y008457D01*
X008154Y008430D01*
X008000Y008276D01*
X007846Y008430D01*
X007621Y008523D01*
X007379Y008523D01*
X007154Y008430D01*
X006983Y008259D01*
X006890Y008034D01*
X006890Y007792D01*
X006983Y007567D01*
X007154Y007396D01*
X007379Y007303D01*
X007621Y007303D01*
X007846Y007396D01*
X008000Y007550D01*
X008154Y007396D01*
X008379Y007303D01*
X008621Y007303D01*
X008846Y007396D01*
X009000Y007550D01*
X009154Y007396D01*
X009379Y007303D01*
X009621Y007303D01*
X009846Y007396D01*
X010000Y007550D01*
X010154Y007396D01*
X010379Y007303D01*
X010621Y007303D01*
X010846Y007396D01*
X011000Y007550D01*
X011154Y007396D01*
X011220Y007369D01*
X011220Y007029D01*
X011134Y006943D01*
X005944Y006943D01*
X005841Y006900D01*
X005763Y006822D01*
X005513Y006572D01*
X005470Y006469D01*
X005470Y005957D01*
X005404Y005930D01*
X005233Y005759D01*
X005140Y005534D01*
X005140Y005292D01*
X005181Y005193D01*
X004170Y005193D01*
X004170Y006149D01*
X004236Y006176D01*
X004407Y006347D01*
X004500Y006572D01*
X004500Y006814D01*
X004407Y007039D01*
X004236Y007210D01*
X004011Y007303D01*
X003769Y007303D01*
X003544Y007210D01*
X003373Y007039D01*
X003280Y006814D01*
X003280Y006572D01*
X003373Y006347D01*
X003544Y006176D01*
X003610Y006149D01*
X003610Y004677D01*
X003544Y004650D01*
X003373Y004479D01*
X003280Y004254D01*
X003280Y004012D01*
X003373Y003787D01*
X003497Y003663D01*
X002467Y003663D01*
X002494Y003683D01*
X002560Y003749D01*
X002615Y003824D01*
X002657Y003907D01*
X002685Y003995D01*
X002700Y004087D01*
X002700Y004133D01*
X002700Y004179D01*
X002685Y004271D01*
X002657Y004359D01*
X002615Y004442D01*
X002560Y004517D01*
X002494Y004583D01*
X002419Y004638D01*
X002336Y004680D01*
X002248Y004708D01*
X002156Y004723D01*
X002110Y004723D01*
X002110Y004133D01*
X002110Y004133D01*
X002110Y004723D01*
X002064Y004723D01*
X001972Y004708D01*
X001884Y004680D01*
X001801Y004638D01*
X001750Y004601D01*
X001750Y006225D01*
X001801Y006188D01*
X001884Y006146D01*
X001972Y006118D01*
X002064Y006103D01*
X002110Y006103D01*
X002156Y006103D01*
X002248Y006118D01*
X002336Y006146D01*
X002419Y006188D01*
X002494Y006243D01*
X002560Y006309D01*
X002615Y006384D01*
X002657Y006467D01*
X002685Y006555D01*
X002700Y006647D01*
X002700Y006693D01*
X002700Y006739D01*
X002685Y006831D01*
X002657Y006919D01*
X002615Y007002D01*
X002560Y007077D01*
X002494Y007143D01*
X002419Y007198D01*
X002336Y007240D01*
X002248Y007268D01*
X002156Y007283D01*
X002110Y007283D01*
X002110Y006693D01*
X002110Y006693D01*
X002110Y007283D01*
X002064Y007283D01*
X001972Y007268D01*
X001884Y007240D01*
X001801Y007198D01*
X001750Y007161D01*
X001750Y025163D01*
X010409Y025163D01*
X010332Y025086D01*
X010332Y024740D01*
X010577Y024495D01*
X010923Y024495D01*
X010973Y024544D01*
X011118Y024399D01*
X011118Y024163D02*
X009945Y024163D01*
X009945Y023924D02*
X011118Y023924D01*
X011831Y023686D02*
X006595Y023686D01*
X006511Y023769D02*
X006267Y023910D01*
X005995Y023983D01*
X005713Y023983D01*
X005441Y023910D01*
X005197Y023769D01*
X004998Y023570D01*
X004857Y023326D01*
X004784Y023054D01*
X004784Y022772D01*
X004857Y022500D01*
X004998Y022256D01*
X005197Y022057D01*
X005441Y021916D01*
X005713Y021843D01*
X005995Y021843D01*
X006267Y021916D01*
X006511Y022057D01*
X006710Y022256D01*
X006851Y022500D01*
X006924Y022772D01*
X006924Y023054D01*
X006851Y023326D01*
X006710Y023570D01*
X006511Y023769D01*
X006215Y023924D02*
X008756Y023924D01*
X008756Y024163D02*
X001750Y024163D01*
X001750Y024401D02*
X008756Y024401D01*
X008788Y024640D02*
X001750Y024640D01*
X001750Y024878D02*
X010332Y024878D01*
X010362Y025117D02*
X001750Y025117D01*
X001750Y023924D02*
X005494Y023924D01*
X005114Y023686D02*
X003983Y023686D01*
X003957Y023706D02*
X003864Y023764D01*
X003766Y023812D01*
X003663Y023848D01*
X003557Y023872D01*
X003514Y023877D01*
X003514Y023033D01*
X004358Y023033D01*
X004353Y023076D01*
X004328Y023182D01*
X004292Y023285D01*
X004245Y023384D01*
X004187Y023476D01*
X004119Y023561D01*
X004042Y023638D01*
X003957Y023706D01*
X004205Y023447D02*
X004927Y023447D01*
X004826Y023209D02*
X004319Y023209D01*
X004358Y022793D02*
X003514Y022793D01*
X003514Y023033D01*
X003274Y023033D01*
X003274Y023877D01*
X003231Y023872D01*
X003124Y023848D01*
X003021Y023812D01*
X002923Y023764D01*
X002831Y023706D01*
X002746Y023638D01*
X002668Y023561D01*
X002600Y023476D01*
X002542Y023384D01*
X002495Y023285D01*
X002459Y023182D01*
X002435Y023076D01*
X002430Y023033D01*
X003274Y023033D01*
X003274Y022793D01*
X003514Y022793D01*
X003514Y021949D01*
X003557Y021954D01*
X003663Y021978D01*
X003766Y022014D01*
X003864Y022062D01*
X003957Y022120D01*
X004042Y022188D01*
X004119Y022265D01*
X004187Y022350D01*
X004245Y022442D01*
X004292Y022541D01*
X004328Y022644D01*
X004353Y022750D01*
X004358Y022793D01*
X004348Y022732D02*
X004795Y022732D01*
X004784Y022970D02*
X003514Y022970D01*
X003514Y022732D02*
X003274Y022732D01*
X003274Y022793D02*
X003274Y021949D01*
X003231Y021954D01*
X003124Y021978D01*
X003021Y022014D01*
X002923Y022062D01*
X002831Y022120D01*
X002746Y022188D01*
X002668Y022265D01*
X002600Y022350D01*
X002542Y022442D01*
X002495Y022541D01*
X002459Y022644D01*
X002435Y022750D01*
X002430Y022793D01*
X003274Y022793D01*
X003274Y022970D02*
X001750Y022970D01*
X001750Y022732D02*
X002439Y022732D01*
X002518Y022493D02*
X001750Y022493D01*
X001750Y022255D02*
X002679Y022255D01*
X003018Y022016D02*
X001750Y022016D01*
X001750Y021778D02*
X004120Y021778D01*
X004084Y021749D02*
X004007Y021671D01*
X003939Y021586D01*
X003881Y021494D01*
X003834Y021395D01*
X003798Y021293D01*
X003773Y021186D01*
X003768Y021143D01*
X004612Y021143D01*
X004612Y020903D01*
X003768Y020903D01*
X003773Y020860D01*
X003798Y020754D01*
X003834Y020651D01*
X003881Y020553D01*
X003939Y020460D01*
X004007Y020375D01*
X004084Y020298D01*
X004169Y020230D01*
X004262Y020172D01*
X004360Y020125D01*
X004463Y020089D01*
X004569Y020064D01*
X004612Y020059D01*
X004612Y020903D01*
X004852Y020903D01*
X004852Y020059D01*
X004895Y020064D01*
X005002Y020089D01*
X005105Y020125D01*
X005203Y020172D01*
X005295Y020230D01*
X005380Y020298D01*
X005458Y020375D01*
X005526Y020460D01*
X005584Y020553D01*
X005631Y020651D01*
X005667Y020754D01*
X005691Y020860D01*
X005696Y020903D01*
X004852Y020903D01*
X004852Y021143D01*
X004612Y021143D01*
X004612Y021987D01*
X004569Y021982D01*
X004463Y021958D01*
X004360Y021922D01*
X004262Y021875D01*
X004169Y021817D01*
X004084Y021749D01*
X003909Y021539D02*
X001750Y021539D01*
X001750Y021301D02*
X003800Y021301D01*
X003782Y020824D02*
X001750Y020824D01*
X001750Y021062D02*
X004612Y021062D01*
X004612Y020824D02*
X004852Y020824D01*
X004852Y021062D02*
X008140Y021062D01*
X008140Y020824D02*
X005683Y020824D01*
X005599Y020585D02*
X008140Y020585D01*
X008140Y020347D02*
X005429Y020347D01*
X005057Y020108D02*
X008140Y020108D01*
X008500Y019663D02*
X007750Y019663D01*
X007332Y019631D02*
X001750Y019631D01*
X001750Y019393D02*
X003555Y019393D01*
X003562Y019400D02*
X003395Y019233D01*
X003305Y019015D01*
X003305Y018779D01*
X003395Y018562D01*
X003562Y018395D01*
X003780Y018305D01*
X004720Y018305D01*
X004730Y018309D01*
X004730Y018203D01*
X004809Y018012D01*
X004922Y017899D01*
X004869Y017845D01*
X004822Y017781D01*
X004787Y017711D01*
X004762Y017636D01*
X004750Y017559D01*
X004750Y017519D01*
X004750Y017483D01*
X004737Y017487D01*
X004648Y017501D01*
X004250Y017501D01*
X003852Y017501D01*
X003763Y017487D01*
X003678Y017459D01*
X003597Y017418D01*
X003525Y017365D01*
X003461Y017302D01*
X003408Y017229D01*
X003367Y017149D01*
X003339Y017063D01*
X003325Y016974D01*
X003325Y016929D01*
X004250Y016929D01*
X004250Y017501D01*
X004250Y016929D01*
X004250Y016929D01*
X004250Y016929D01*
X005175Y016929D01*
X005175Y016974D01*
X005167Y017026D01*
X005211Y017019D01*
X005250Y017019D01*
X005289Y017019D01*
X005367Y017032D01*
X005442Y017056D01*
X005512Y017092D01*
X005576Y017138D01*
X005631Y017194D01*
X005678Y017257D01*
X005713Y017327D01*
X005738Y017402D01*
X005750Y017480D01*
X005750Y017519D01*
X005250Y017519D01*
X005250Y017019D01*
X005250Y017519D01*
X005250Y017519D01*
X004750Y017519D01*
X005250Y017519D01*
X005250Y017519D01*
X005250Y017519D01*
X005750Y017519D01*
X005750Y017559D01*
X005738Y017636D01*
X005713Y017711D01*
X005678Y017781D01*
X005631Y017845D01*
X005578Y017899D01*
X005691Y018012D01*
X005770Y018203D01*
X005770Y018410D01*
X005691Y018601D01*
X005545Y018748D01*
X005353Y018827D01*
X005195Y018827D01*
X005195Y019015D01*
X005105Y019233D01*
X004938Y019400D01*
X004720Y019490D01*
X003780Y019490D01*
X003562Y019400D01*
X003363Y019154D02*
X001750Y019154D01*
X001750Y018916D02*
X003305Y018916D01*
X003347Y018677D02*
X001750Y018677D01*
X001750Y018439D02*
X003518Y018439D01*
X004731Y018200D02*
X001750Y018200D01*
X001750Y017962D02*
X004860Y017962D01*
X004793Y017723D02*
X001750Y017723D01*
X001750Y017485D02*
X003755Y017485D01*
X003420Y017246D02*
X001750Y017246D01*
X001750Y017008D02*
X003330Y017008D01*
X003325Y016929D02*
X003325Y016884D01*
X003339Y016795D01*
X003367Y016709D01*
X003408Y016629D01*
X003461Y016556D01*
X003525Y016492D01*
X003597Y016439D01*
X003678Y016398D01*
X003763Y016370D01*
X003852Y016356D01*
X004250Y016356D01*
X004648Y016356D01*
X004737Y016370D01*
X004822Y016398D01*
X004903Y016439D01*
X004975Y016492D01*
X005039Y016556D01*
X005092Y016629D01*
X005133Y016709D01*
X005161Y016795D01*
X005175Y016884D01*
X005175Y016929D01*
X004250Y016929D01*
X004250Y016929D01*
X003325Y016929D01*
X003347Y016769D02*
X001750Y016769D01*
X001750Y016531D02*
X003486Y016531D01*
X004250Y016531D02*
X004250Y016531D01*
X004250Y016356D02*
X004250Y016929D01*
X004250Y016929D01*
X004250Y016356D01*
X004250Y016769D02*
X004250Y016769D01*
X004250Y017008D02*
X004250Y017008D01*
X004250Y017246D02*
X004250Y017246D01*
X004250Y017485D02*
X004250Y017485D01*
X004745Y017485D02*
X004750Y017485D01*
X005250Y017485D02*
X005250Y017485D01*
X005250Y017246D02*
X005250Y017246D01*
X005170Y017008D02*
X006585Y017008D01*
X006824Y017246D02*
X005669Y017246D01*
X005750Y017485D02*
X007062Y017485D01*
X007301Y017723D02*
X005707Y017723D01*
X005640Y017962D02*
X007539Y017962D01*
X007578Y018200D02*
X007778Y018200D01*
X007641Y018439D02*
X008016Y018439D01*
X008082Y018504D02*
X005351Y015773D01*
X002928Y015773D01*
X002796Y015718D01*
X002695Y015617D01*
X002195Y015117D01*
X002140Y014985D01*
X002140Y012841D01*
X002195Y012709D01*
X002296Y012608D01*
X002796Y012108D01*
X002928Y012053D01*
X002997Y012053D01*
X003154Y011896D01*
X003379Y011803D01*
X003621Y011803D01*
X003846Y011896D01*
X004017Y012067D01*
X004110Y012292D01*
X004110Y012534D01*
X004017Y012759D01*
X003863Y012913D01*
X004003Y013053D01*
X005822Y013053D01*
X005954Y013108D01*
X006704Y013858D01*
X006805Y013959D01*
X006860Y014091D01*
X006860Y015432D01*
X006918Y015490D01*
X006918Y015836D01*
X006675Y016079D01*
X008591Y017995D01*
X008673Y017995D01*
X008918Y018240D01*
X008918Y018586D01*
X008673Y018831D01*
X008327Y018831D01*
X008082Y018586D01*
X008082Y018504D01*
X008173Y018677D02*
X007641Y018677D01*
X007641Y018916D02*
X011847Y018916D01*
X011847Y019064D02*
X011847Y018679D01*
X011862Y018623D01*
X011891Y018573D01*
X011932Y018532D01*
X011982Y018503D01*
X012038Y018488D01*
X012325Y018488D01*
X012325Y019064D01*
X012360Y019064D01*
X012360Y018488D01*
X012647Y018488D01*
X012703Y018503D01*
X012753Y018532D01*
X012794Y018573D01*
X012823Y018623D01*
X012838Y018679D01*
X012838Y019064D01*
X012360Y019064D01*
X012360Y019100D01*
X012325Y019100D01*
X012325Y019676D01*
X012038Y019676D01*
X011982Y019661D01*
X011932Y019632D01*
X011891Y019591D01*
X011862Y019541D01*
X011847Y019485D01*
X011847Y019100D01*
X012325Y019100D01*
X012325Y019064D01*
X011847Y019064D01*
X011847Y019154D02*
X007635Y019154D01*
X007429Y019393D02*
X004945Y019393D01*
X005137Y019154D02*
X006656Y019154D01*
X006650Y018916D02*
X005195Y018916D01*
X005615Y018677D02*
X006650Y018677D01*
X006650Y018710D02*
X006650Y018325D01*
X006665Y018269D01*
X006694Y018219D01*
X006735Y018178D01*
X006785Y018149D01*
X006841Y018134D01*
X007128Y018134D01*
X007128Y018710D01*
X006650Y018710D01*
X006650Y018439D02*
X005758Y018439D01*
X005769Y018200D02*
X006713Y018200D01*
X007128Y018200D02*
X007163Y018200D01*
X007163Y018439D02*
X007128Y018439D01*
X007128Y018677D02*
X007163Y018677D01*
X007163Y018916D02*
X007128Y018916D01*
X007128Y019154D02*
X007163Y019154D01*
X007365Y019870D02*
X001750Y019870D01*
X001750Y020108D02*
X004407Y020108D01*
X004612Y020108D02*
X004852Y020108D01*
X004852Y020347D02*
X004612Y020347D01*
X004612Y020585D02*
X004852Y020585D01*
X004852Y021143D02*
X005696Y021143D01*
X005691Y021186D01*
X005667Y021293D01*
X005631Y021395D01*
X005584Y021494D01*
X005526Y021586D01*
X005458Y021671D01*
X005380Y021749D01*
X005295Y021817D01*
X005203Y021875D01*
X005105Y021922D01*
X005002Y021958D01*
X004895Y021982D01*
X004852Y021987D01*
X004852Y021143D01*
X004852Y021301D02*
X004612Y021301D01*
X004612Y021539D02*
X004852Y021539D01*
X004852Y021778D02*
X004612Y021778D01*
X005268Y022016D02*
X003769Y022016D01*
X003514Y022016D02*
X003274Y022016D01*
X003274Y022255D02*
X003514Y022255D01*
X003514Y022493D02*
X003274Y022493D01*
X003274Y023209D02*
X003514Y023209D01*
X003514Y023447D02*
X003274Y023447D01*
X003274Y023686D02*
X003514Y023686D01*
X002805Y023686D02*
X001750Y023686D01*
X001750Y023447D02*
X002582Y023447D01*
X002468Y023209D02*
X001750Y023209D01*
X004109Y022255D02*
X005000Y022255D01*
X004861Y022493D02*
X004269Y022493D01*
X005344Y021778D02*
X008140Y021778D01*
X008140Y022016D02*
X006441Y022016D01*
X006709Y022255D02*
X008148Y022255D01*
X008321Y022493D02*
X006847Y022493D01*
X006913Y022732D02*
X008578Y022732D01*
X008750Y022413D02*
X010750Y022413D01*
X011023Y022732D02*
X012785Y022732D01*
X012547Y022970D02*
X006924Y022970D01*
X006883Y023209D02*
X012308Y023209D01*
X012070Y023447D02*
X006781Y023447D01*
X008500Y022163D02*
X008750Y022413D01*
X008500Y022163D02*
X008500Y019663D01*
X010000Y019663D01*
X010256Y019919D01*
X010256Y020067D01*
X010593Y019631D02*
X010813Y019631D01*
X011122Y019631D02*
X011122Y019631D01*
X011122Y019870D02*
X011122Y019870D01*
X011122Y020108D02*
X011122Y020108D01*
X011122Y020347D02*
X011122Y020347D01*
X011068Y020585D02*
X011185Y020585D01*
X012366Y020347D02*
X014921Y020347D01*
X015159Y020108D02*
X012366Y020108D01*
X012361Y019870D02*
X013393Y019870D01*
X013394Y019871D02*
X013242Y019719D01*
X013160Y019520D01*
X013160Y019306D01*
X013242Y019107D01*
X013394Y018955D01*
X013522Y018902D01*
X013500Y018895D01*
X013427Y018858D01*
X013361Y018810D01*
X013303Y018752D01*
X013255Y018686D01*
X013218Y018613D01*
X013193Y018535D01*
X013180Y018454D01*
X013180Y018413D01*
X014000Y018413D01*
X014820Y018413D01*
X014820Y018454D01*
X014807Y018535D01*
X014782Y018613D01*
X014745Y018686D01*
X014697Y018752D01*
X014639Y018810D01*
X014573Y018858D01*
X014500Y018895D01*
X014478Y018902D01*
X014606Y018955D01*
X014758Y019107D01*
X014840Y019306D01*
X014840Y019520D01*
X014758Y019719D01*
X014606Y019871D01*
X014407Y019953D01*
X013593Y019953D01*
X013394Y019871D01*
X013206Y019631D02*
X012755Y019631D01*
X012753Y019632D02*
X012703Y019661D01*
X012647Y019676D01*
X012360Y019676D01*
X012360Y019100D01*
X012838Y019100D01*
X012838Y019485D01*
X012823Y019541D01*
X012794Y019591D01*
X012753Y019632D01*
X012838Y019393D02*
X013160Y019393D01*
X013223Y019154D02*
X012838Y019154D01*
X012838Y018916D02*
X013490Y018916D01*
X013251Y018677D02*
X012837Y018677D01*
X013180Y018439D02*
X008918Y018439D01*
X008878Y018200D02*
X013225Y018200D01*
X013218Y018213D02*
X013255Y018140D01*
X013303Y018074D01*
X013361Y018016D01*
X013427Y017968D01*
X013500Y017931D01*
X013522Y017924D01*
X013394Y017871D01*
X013242Y017719D01*
X013160Y017520D01*
X013160Y017306D01*
X013242Y017107D01*
X013394Y016955D01*
X013593Y016873D01*
X014407Y016873D01*
X014606Y016955D01*
X014758Y017107D01*
X014840Y017306D01*
X014840Y017520D01*
X014758Y017719D01*
X014606Y017871D01*
X014478Y017924D01*
X014500Y017931D01*
X014573Y017968D01*
X014639Y018016D01*
X014697Y018074D01*
X014745Y018140D01*
X014782Y018213D01*
X014807Y018291D01*
X014820Y018372D01*
X014820Y018413D01*
X014000Y018413D01*
X014000Y018413D01*
X014000Y018413D01*
X013180Y018413D01*
X013180Y018372D01*
X013193Y018291D01*
X013218Y018213D01*
X013441Y017962D02*
X008558Y017962D01*
X008319Y017723D02*
X013246Y017723D01*
X013160Y017485D02*
X008081Y017485D01*
X007842Y017246D02*
X013185Y017246D01*
X013342Y017008D02*
X007604Y017008D01*
X007365Y016769D02*
X014720Y016769D01*
X014720Y016531D02*
X007127Y016531D01*
X006888Y016292D02*
X014720Y016292D01*
X014720Y016054D02*
X006701Y016054D01*
X006918Y015815D02*
X014311Y015815D01*
X014082Y015577D02*
X006918Y015577D01*
X006860Y015338D02*
X014082Y015338D01*
X014220Y015100D02*
X006860Y015100D01*
X006860Y014861D02*
X014220Y014861D01*
X014220Y014623D02*
X006860Y014623D01*
X006860Y014384D02*
X007108Y014384D01*
X006936Y014146D02*
X006860Y014146D01*
X006890Y013907D02*
X006753Y013907D01*
X006941Y013669D02*
X006515Y013669D01*
X006276Y013430D02*
X007120Y013430D01*
X007880Y013430D02*
X008120Y013430D01*
X008880Y013430D02*
X009120Y013430D01*
X009880Y013430D02*
X010120Y013430D01*
X010880Y013430D02*
X011120Y013430D01*
X011880Y013430D02*
X012120Y013430D01*
X012880Y013430D02*
X013120Y013430D01*
X013880Y013430D02*
X014120Y013430D01*
X014720Y013192D02*
X006038Y013192D01*
X005750Y013413D02*
X006500Y014163D01*
X006500Y015663D01*
X005631Y016054D02*
X001750Y016054D01*
X001750Y016292D02*
X005870Y016292D01*
X006108Y016531D02*
X005014Y016531D01*
X005153Y016769D02*
X006347Y016769D01*
X005393Y015815D02*
X001750Y015815D01*
X001750Y015577D02*
X002654Y015577D01*
X002416Y015338D02*
X001750Y015338D01*
X001750Y015100D02*
X002188Y015100D01*
X002140Y014861D02*
X001750Y014861D01*
X001750Y014623D02*
X002140Y014623D01*
X002140Y014384D02*
X001750Y014384D01*
X001750Y014146D02*
X002140Y014146D01*
X002140Y013907D02*
X001750Y013907D01*
X001750Y013669D02*
X002140Y013669D01*
X002140Y013430D02*
X001750Y013430D01*
X001750Y013192D02*
X002140Y013192D01*
X002140Y012953D02*
X001750Y012953D01*
X001750Y012715D02*
X002193Y012715D01*
X002428Y012476D02*
X001750Y012476D01*
X001750Y012238D02*
X002666Y012238D01*
X003000Y012413D02*
X002500Y012913D01*
X002500Y014913D01*
X003000Y015413D01*
X005500Y015413D01*
X008500Y018413D01*
X008827Y018677D02*
X011848Y018677D01*
X012325Y018677D02*
X012360Y018677D01*
X012360Y018916D02*
X012325Y018916D01*
X012325Y019154D02*
X012360Y019154D01*
X012360Y019393D02*
X012325Y019393D01*
X012325Y019631D02*
X012360Y019631D01*
X011931Y019631D02*
X011431Y019631D01*
X011847Y019393D02*
X010239Y019393D01*
X009059Y020824D02*
X008860Y020824D01*
X008860Y021062D02*
X009110Y021062D01*
X009110Y021301D02*
X008860Y021301D01*
X008860Y021539D02*
X009230Y021539D01*
X008860Y021778D02*
X016773Y021778D01*
X016944Y022016D02*
X017220Y022016D01*
X017220Y022255D02*
X017168Y022255D01*
X017168Y022493D02*
X017220Y022493D01*
X017220Y022732D02*
X017023Y022732D01*
X017220Y022970D02*
X016589Y022970D01*
X016887Y023209D02*
X017208Y023209D01*
X017780Y023209D02*
X018620Y023209D01*
X018620Y023369D02*
X018620Y022634D01*
X018423Y022831D01*
X018077Y022831D01*
X017832Y022586D01*
X017832Y022240D01*
X017970Y022102D01*
X017970Y020724D01*
X017832Y020586D01*
X017832Y020240D01*
X018077Y019995D01*
X018423Y019995D01*
X018620Y020192D01*
X018620Y019929D01*
X016841Y018150D01*
X016763Y018072D01*
X016720Y017969D01*
X016720Y017284D01*
X016673Y017331D01*
X016418Y017331D01*
X016418Y017586D01*
X016244Y017761D01*
X017737Y019254D01*
X017780Y019357D01*
X017780Y023257D01*
X017780Y023335D01*
X017854Y023323D01*
X017900Y023323D01*
X017946Y023323D01*
X018038Y023338D01*
X018126Y023366D01*
X018209Y023408D01*
X018284Y023463D01*
X018350Y023529D01*
X018381Y023572D01*
X018383Y023567D01*
X018554Y023396D01*
X018620Y023369D01*
X018503Y023447D02*
X018262Y023447D01*
X017900Y023447D02*
X017900Y023447D01*
X017900Y023323D02*
X017900Y023913D01*
X017900Y023913D01*
X017900Y024503D01*
X017946Y024503D01*
X018038Y024488D01*
X018126Y024460D01*
X018209Y024418D01*
X018284Y024363D01*
X018350Y024297D01*
X018381Y024254D01*
X018383Y024259D01*
X018554Y024430D01*
X018779Y024523D01*
X019021Y024523D01*
X019246Y024430D01*
X019400Y024276D01*
X019554Y024430D01*
X019779Y024523D01*
X020021Y024523D01*
X020246Y024430D01*
X020400Y024276D01*
X020554Y024430D01*
X020779Y024523D01*
X021021Y024523D01*
X021246Y024430D01*
X021400Y024276D01*
X021554Y024430D01*
X021779Y024523D01*
X022021Y024523D01*
X022246Y024430D01*
X022400Y024276D01*
X022554Y024430D01*
X022779Y024523D01*
X023021Y024523D01*
X023246Y024430D01*
X023400Y024276D01*
X023554Y024430D01*
X023779Y024523D01*
X024021Y024523D01*
X024246Y024430D01*
X024417Y024259D01*
X024510Y024034D01*
X024510Y023792D01*
X024417Y023567D01*
X024280Y023430D01*
X024280Y022403D01*
X024600Y022403D01*
X024688Y022366D01*
X024750Y022305D01*
X024812Y022366D01*
X024900Y022403D01*
X025220Y022403D01*
X025220Y023369D01*
X025154Y023396D01*
X024983Y023567D01*
X024890Y023792D01*
X024890Y024034D01*
X024983Y024259D01*
X025154Y024430D01*
X025379Y024523D01*
X025621Y024523D01*
X025846Y024430D01*
X026000Y024276D01*
X026154Y024430D01*
X026379Y024523D01*
X026621Y024523D01*
X026846Y024430D01*
X027000Y024276D01*
X027154Y024430D01*
X027379Y024523D01*
X027621Y024523D01*
X027846Y024430D01*
X028000Y024276D01*
X028154Y024430D01*
X028379Y024523D01*
X028621Y024523D01*
X028846Y024430D01*
X029000Y024276D01*
X029154Y024430D01*
X029379Y024523D01*
X029621Y024523D01*
X029846Y024430D01*
X030000Y024276D01*
X030154Y024430D01*
X030379Y024523D01*
X030621Y024523D01*
X030846Y024430D01*
X031000Y024276D01*
X031154Y024430D01*
X031379Y024523D01*
X031382Y024523D01*
X031382Y024553D01*
X014202Y024553D01*
X014304Y024450D01*
X014383Y024259D01*
X014554Y024430D01*
X014779Y024523D01*
X015021Y024523D01*
X015246Y024430D01*
X015400Y024276D01*
X015554Y024430D01*
X015779Y024523D01*
X016021Y024523D01*
X016246Y024430D01*
X016400Y024276D01*
X016554Y024430D01*
X016779Y024523D01*
X017021Y024523D01*
X017246Y024430D01*
X017417Y024259D01*
X017419Y024254D01*
X017450Y024297D01*
X017516Y024363D01*
X017591Y024418D01*
X017674Y024460D01*
X017762Y024488D01*
X017854Y024503D01*
X017900Y024503D01*
X017900Y023913D01*
X017900Y023913D01*
X017900Y023323D01*
X017900Y023686D02*
X017900Y023686D01*
X017900Y023924D02*
X017900Y023924D01*
X017900Y024163D02*
X017900Y024163D01*
X017900Y024401D02*
X017900Y024401D01*
X018232Y024401D02*
X018525Y024401D01*
X019275Y024401D02*
X019525Y024401D01*
X020275Y024401D02*
X020525Y024401D01*
X021275Y024401D02*
X021525Y024401D01*
X022275Y024401D02*
X022525Y024401D01*
X023275Y024401D02*
X023525Y024401D01*
X024275Y024401D02*
X025125Y024401D01*
X024943Y024163D02*
X024457Y024163D01*
X024510Y023924D02*
X024890Y023924D01*
X024934Y023686D02*
X024466Y023686D01*
X024297Y023447D02*
X025103Y023447D01*
X025220Y023209D02*
X024280Y023209D01*
X024280Y022970D02*
X025220Y022970D01*
X025220Y022732D02*
X024280Y022732D01*
X024280Y022493D02*
X025220Y022493D01*
X026780Y022493D02*
X027220Y022493D01*
X027220Y022255D02*
X026780Y022255D01*
X026780Y022016D02*
X027220Y022016D01*
X027220Y021778D02*
X026780Y021778D01*
X026780Y021539D02*
X027220Y021539D01*
X027220Y021301D02*
X026780Y021301D01*
X026780Y021062D02*
X027003Y021062D01*
X026780Y020857D02*
X026780Y023369D01*
X026846Y023396D01*
X027000Y023550D01*
X027154Y023396D01*
X027220Y023369D01*
X027220Y021279D01*
X026767Y020826D01*
X026780Y020857D01*
X027079Y020347D02*
X027288Y020347D01*
X027318Y020585D02*
X027526Y020585D01*
X027556Y020824D02*
X027765Y020824D01*
X027737Y021004D02*
X027780Y021107D01*
X027780Y023369D01*
X027846Y023396D01*
X028000Y023550D01*
X028154Y023396D01*
X028220Y023369D01*
X028220Y021279D01*
X025263Y018322D01*
X025220Y018219D01*
X025220Y016494D01*
X025157Y016494D01*
X025069Y016457D01*
X025001Y016389D01*
X025000Y016386D01*
X024999Y016389D01*
X024931Y016457D01*
X024843Y016494D01*
X024780Y016494D01*
X024780Y018047D01*
X027737Y021004D01*
X027761Y021062D02*
X028003Y021062D01*
X028220Y021301D02*
X027780Y021301D01*
X027780Y021539D02*
X028220Y021539D01*
X028220Y021778D02*
X027780Y021778D01*
X027780Y022016D02*
X028220Y022016D01*
X028220Y022255D02*
X027780Y022255D01*
X027780Y022493D02*
X028220Y022493D01*
X028220Y022732D02*
X027780Y022732D01*
X027780Y022970D02*
X028220Y022970D01*
X028220Y023209D02*
X027780Y023209D01*
X027897Y023447D02*
X028103Y023447D01*
X027220Y023209D02*
X026780Y023209D01*
X026780Y022970D02*
X027220Y022970D01*
X027220Y022732D02*
X026780Y022732D01*
X026897Y023447D02*
X027103Y023447D01*
X027125Y024401D02*
X026875Y024401D01*
X027875Y024401D02*
X028125Y024401D01*
X028875Y024401D02*
X029125Y024401D01*
X029875Y024401D02*
X030125Y024401D01*
X030875Y024401D02*
X031125Y024401D01*
X032218Y024523D02*
X032218Y024553D01*
X036005Y024553D01*
X035992Y024521D01*
X035543Y024521D01*
X035455Y024485D01*
X035387Y024417D01*
X035351Y024329D01*
X035351Y023997D01*
X035385Y023913D01*
X035351Y023829D01*
X035351Y023497D01*
X035387Y023409D01*
X035402Y023394D01*
X035386Y023366D01*
X035371Y023310D01*
X035371Y023302D01*
X035204Y023468D01*
X035072Y023523D01*
X034928Y023523D01*
X034649Y023523D01*
X034649Y023829D01*
X034613Y023917D01*
X034598Y023932D01*
X034614Y023960D01*
X034629Y024016D01*
X034629Y024163D01*
X034629Y024310D01*
X034614Y024366D01*
X034585Y024416D01*
X034545Y024457D01*
X034494Y024486D01*
X034438Y024501D01*
X033976Y024501D01*
X033514Y024501D01*
X033458Y024486D01*
X033408Y024457D01*
X033367Y024416D01*
X033338Y024366D01*
X033323Y024310D01*
X033323Y024163D01*
X033323Y024016D01*
X033338Y023960D01*
X033355Y023932D01*
X033340Y023917D01*
X033303Y023829D01*
X033303Y023533D01*
X033110Y023533D01*
X033110Y024331D01*
X033073Y024419D01*
X033006Y024486D01*
X032918Y024523D01*
X032218Y024523D01*
X033081Y024401D02*
X033359Y024401D01*
X033323Y024163D02*
X033976Y024163D01*
X033323Y024163D01*
X033110Y024163D01*
X033250Y024163D02*
X034750Y024163D01*
X034750Y023913D01*
X034606Y023924D02*
X035381Y023924D01*
X035351Y023686D02*
X034649Y023686D01*
X035225Y023447D02*
X035371Y023447D01*
X035000Y023163D02*
X035500Y022663D01*
X036024Y022663D01*
X036024Y022187D01*
X036000Y022163D01*
X038000Y022163D01*
X038250Y022413D01*
X038250Y022713D01*
X038324Y022639D01*
X039500Y022639D01*
X039524Y022663D01*
X039633Y022305D02*
X039572Y022279D01*
X038668Y022279D01*
X038668Y022240D01*
X038621Y022193D01*
X039256Y022193D01*
X039359Y022150D01*
X039561Y021948D01*
X039736Y021948D01*
X039736Y021421D01*
X039752Y021421D01*
X039752Y021948D01*
X039970Y021948D01*
X039970Y022305D01*
X039633Y022305D01*
X039493Y022016D02*
X039970Y022016D01*
X039970Y022255D02*
X038668Y022255D01*
X038250Y022713D02*
X038250Y023413D01*
X038000Y023663D01*
X038596Y023518D02*
X038711Y023633D01*
X038851Y023633D01*
X038851Y023497D01*
X038887Y023409D01*
X038902Y023394D01*
X038886Y023366D01*
X038871Y023310D01*
X038871Y023163D01*
X038871Y023016D01*
X038875Y022999D01*
X038610Y022999D01*
X038610Y023485D01*
X038596Y023518D01*
X038610Y023447D02*
X038871Y023447D01*
X038871Y023209D02*
X038610Y023209D01*
X038871Y023163D02*
X039524Y023163D01*
X038871Y023163D01*
X039524Y023163D02*
X039524Y023163D01*
X037476Y023163D02*
X037476Y022663D01*
X036823Y022663D01*
X036823Y022523D01*
X036697Y022523D01*
X036697Y022829D01*
X036660Y022917D01*
X036645Y022932D01*
X036662Y022960D01*
X036677Y023016D01*
X036677Y023163D01*
X036677Y023310D01*
X036662Y023366D01*
X036645Y023394D01*
X036660Y023409D01*
X036697Y023497D01*
X036697Y023633D01*
X036803Y023633D01*
X036803Y023497D01*
X036840Y023409D01*
X036855Y023394D01*
X036838Y023366D01*
X036823Y023310D01*
X036823Y023163D01*
X036823Y023016D01*
X036838Y022960D01*
X036865Y022913D01*
X036838Y022866D01*
X036823Y022810D01*
X036823Y022663D01*
X037476Y022663D01*
X037476Y022663D01*
X037476Y023001D01*
X037476Y023163D01*
X036823Y023163D01*
X037476Y023163D01*
X037476Y023163D01*
X037476Y023163D01*
X037476Y022663D01*
X037476Y022663D01*
X037476Y022732D02*
X037476Y022732D01*
X037476Y022970D02*
X037476Y022970D01*
X036836Y022970D02*
X036664Y022970D01*
X036677Y023163D02*
X036024Y023163D01*
X036677Y023163D01*
X036677Y023209D02*
X036823Y023209D01*
X036824Y023447D02*
X036676Y023447D01*
X036024Y023163D02*
X036024Y023163D01*
X036697Y022732D02*
X036823Y022732D01*
X036000Y022163D02*
X033356Y022163D01*
X033000Y022269D01*
X033976Y022663D02*
X033976Y022663D01*
X034629Y022663D01*
X034629Y022523D01*
X035131Y022523D01*
X034851Y022803D01*
X034629Y022803D01*
X034629Y022663D01*
X033976Y022663D01*
X033000Y023057D02*
X033250Y023663D01*
X033250Y024163D01*
X033347Y023924D02*
X033110Y023924D01*
X033110Y023686D02*
X033303Y023686D01*
X033976Y023663D02*
X033976Y023163D01*
X035000Y023163D01*
X034922Y022732D02*
X034629Y022732D01*
X033643Y021803D02*
X033434Y021803D01*
X033363Y021773D01*
X032780Y021773D01*
X032780Y021107D01*
X032737Y021004D01*
X029780Y018047D01*
X029780Y016494D01*
X029843Y016494D01*
X029931Y016457D01*
X029999Y016389D01*
X030035Y016301D01*
X030035Y015694D01*
X030022Y015663D01*
X030035Y015632D01*
X030035Y015025D01*
X029999Y014936D01*
X029931Y014869D01*
X029843Y014832D01*
X029780Y014832D01*
X029780Y014457D01*
X029846Y014430D01*
X030017Y014259D01*
X030019Y014254D01*
X030050Y014297D01*
X030116Y014363D01*
X030191Y014418D01*
X030274Y014460D01*
X030362Y014488D01*
X030454Y014503D01*
X030500Y014503D01*
X030500Y013913D01*
X030500Y013913D01*
X030500Y014503D01*
X030546Y014503D01*
X030638Y014488D01*
X030726Y014460D01*
X030809Y014418D01*
X030884Y014363D01*
X030950Y014297D01*
X031005Y014222D01*
X031047Y014139D01*
X031075Y014051D01*
X031090Y013959D01*
X031090Y013913D01*
X030500Y013913D01*
X030500Y013913D01*
X031090Y013913D01*
X031090Y013867D01*
X031075Y013775D01*
X031047Y013687D01*
X031005Y013604D01*
X030950Y013529D01*
X030884Y013463D01*
X030809Y013408D01*
X030726Y013366D01*
X030638Y013338D01*
X030546Y013323D01*
X030500Y013323D01*
X030500Y013913D01*
X030500Y013913D01*
X030500Y013323D01*
X030454Y013323D01*
X030362Y013338D01*
X030274Y013366D01*
X030191Y013408D01*
X030116Y013463D01*
X030050Y013529D01*
X030019Y013572D01*
X030017Y013567D01*
X029846Y013396D01*
X029621Y013303D01*
X029379Y013303D01*
X029154Y013396D01*
X029000Y013550D01*
X028846Y013396D01*
X028621Y013303D01*
X028379Y013303D01*
X028154Y013396D01*
X028000Y013550D01*
X027846Y013396D01*
X027621Y013303D01*
X027379Y013303D01*
X027154Y013396D01*
X027000Y013550D01*
X026846Y013396D01*
X026621Y013303D01*
X026379Y013303D01*
X026154Y013396D01*
X026000Y013550D01*
X025846Y013396D01*
X025621Y013303D01*
X025379Y013303D01*
X025154Y013396D01*
X025000Y013550D01*
X024846Y013396D01*
X024621Y013303D01*
X024379Y013303D01*
X024154Y013396D01*
X024000Y013550D01*
X023846Y013396D01*
X023621Y013303D01*
X023379Y013303D01*
X023154Y013396D01*
X023000Y013550D01*
X022846Y013396D01*
X022621Y013303D01*
X022379Y013303D01*
X022154Y013396D01*
X022000Y013550D01*
X021846Y013396D01*
X021621Y013303D01*
X021379Y013303D01*
X021280Y013344D01*
X021280Y010744D01*
X021343Y010744D01*
X021431Y010707D01*
X021499Y010639D01*
X021535Y010551D01*
X021535Y010528D01*
X021721Y010528D01*
X021824Y010485D01*
X022159Y010150D01*
X022237Y010072D01*
X022280Y009969D01*
X022280Y009529D01*
X022366Y009443D01*
X023582Y009443D01*
X023582Y009586D01*
X023827Y009831D01*
X024008Y009831D01*
X025336Y011159D01*
X025442Y011203D01*
X025558Y011203D01*
X025582Y011193D01*
X035129Y011193D01*
X035082Y011240D01*
X035082Y011586D01*
X035159Y011663D01*
X035082Y011740D01*
X035082Y012086D01*
X035327Y012331D01*
X035522Y012331D01*
X037841Y014650D01*
X037944Y014693D01*
X037974Y014693D01*
X037930Y014800D01*
X037930Y015026D01*
X038017Y015236D01*
X038177Y015396D01*
X038218Y015413D01*
X038177Y015430D01*
X038017Y015590D01*
X037930Y015800D01*
X037930Y016026D01*
X038017Y016236D01*
X038177Y016396D01*
X038218Y016413D01*
X038177Y016430D01*
X038017Y016590D01*
X037930Y016800D01*
X037930Y017026D01*
X038017Y017236D01*
X038177Y017396D01*
X038218Y017413D01*
X038177Y017430D01*
X038017Y017590D01*
X037930Y017800D01*
X037930Y018026D01*
X038017Y018236D01*
X038084Y018303D01*
X034509Y018303D01*
X034446Y018300D01*
X034438Y018303D01*
X034428Y018303D01*
X034370Y018327D01*
X034353Y018333D01*
X034449Y018102D01*
X034449Y017724D01*
X034304Y017376D01*
X034037Y017109D01*
X033689Y016964D01*
X033311Y016964D01*
X032963Y017109D01*
X032780Y017291D01*
X032780Y016496D01*
X033000Y016276D01*
X033247Y016523D01*
X033753Y016523D01*
X034110Y016166D01*
X034110Y015660D01*
X033863Y015413D01*
X034110Y015166D01*
X034110Y014660D01*
X033849Y014399D01*
X034090Y014157D01*
X034090Y013913D01*
X033500Y013913D01*
X033500Y013913D01*
X034090Y013913D01*
X034090Y013669D01*
X033744Y013323D01*
X033500Y013323D01*
X033500Y013913D01*
X033500Y013913D01*
X033500Y013323D01*
X033256Y013323D01*
X033014Y013564D01*
X032753Y013303D01*
X032247Y013303D01*
X031890Y013660D01*
X031890Y014133D01*
X031444Y014133D01*
X031341Y014176D01*
X030841Y014676D01*
X030763Y014754D01*
X030720Y014857D01*
X030720Y017602D01*
X030582Y017740D01*
X030582Y018086D01*
X030827Y018331D01*
X031173Y018331D01*
X031418Y018086D01*
X031418Y017740D01*
X031280Y017602D01*
X031280Y015029D01*
X031616Y014693D01*
X031890Y014693D01*
X031890Y015113D01*
X031754Y015249D01*
X031710Y015355D01*
X031710Y015471D01*
X031720Y015495D01*
X031720Y019219D01*
X031763Y019322D01*
X032082Y019641D01*
X032082Y019836D01*
X032327Y020081D01*
X032673Y020081D01*
X032750Y020004D01*
X032827Y020081D01*
X033173Y020081D01*
X033336Y019918D01*
X033303Y019997D01*
X033303Y020329D01*
X033340Y020417D01*
X033355Y020432D01*
X033338Y020460D01*
X033323Y020516D01*
X033323Y020663D01*
X033976Y020663D01*
X033976Y020663D01*
X033323Y020663D01*
X033323Y020810D01*
X033338Y020866D01*
X033367Y020916D01*
X033408Y020957D01*
X033458Y020986D01*
X033514Y021001D01*
X033652Y021001D01*
X033645Y021013D01*
X033630Y021069D01*
X033630Y021405D01*
X034098Y021405D01*
X034098Y021421D01*
X033630Y021421D01*
X033630Y021757D01*
X033643Y021803D01*
X033636Y021778D02*
X033373Y021778D01*
X033630Y021539D02*
X032780Y021539D01*
X032780Y021301D02*
X033630Y021301D01*
X033632Y021062D02*
X032761Y021062D01*
X032556Y020824D02*
X033327Y020824D01*
X033323Y020585D02*
X032318Y020585D01*
X032079Y020347D02*
X033311Y020347D01*
X033303Y020108D02*
X031841Y020108D01*
X031602Y019870D02*
X032115Y019870D01*
X032072Y019631D02*
X031364Y019631D01*
X031125Y019393D02*
X031834Y019393D01*
X031720Y019154D02*
X030887Y019154D01*
X030648Y018916D02*
X031720Y018916D01*
X031720Y018677D02*
X030410Y018677D01*
X030171Y018439D02*
X031720Y018439D01*
X031720Y018200D02*
X031304Y018200D01*
X031418Y017962D02*
X031720Y017962D01*
X031720Y017723D02*
X031401Y017723D01*
X031280Y017485D02*
X031720Y017485D01*
X031720Y017246D02*
X031280Y017246D01*
X031280Y017008D02*
X031720Y017008D01*
X031720Y016769D02*
X031280Y016769D01*
X031280Y016531D02*
X031720Y016531D01*
X031720Y016292D02*
X031280Y016292D01*
X031280Y016054D02*
X031720Y016054D01*
X031720Y015815D02*
X031280Y015815D01*
X031280Y015577D02*
X031720Y015577D01*
X031717Y015338D02*
X031280Y015338D01*
X031280Y015100D02*
X031890Y015100D01*
X031890Y014861D02*
X031448Y014861D01*
X031133Y014384D02*
X030855Y014384D01*
X030895Y014623D02*
X029780Y014623D01*
X029892Y014384D02*
X030145Y014384D01*
X030500Y014384D02*
X030500Y014384D01*
X030500Y014146D02*
X030500Y014146D01*
X030500Y013907D02*
X030500Y013907D01*
X030500Y013669D02*
X030500Y013669D01*
X030500Y013430D02*
X030500Y013430D01*
X030839Y013430D02*
X032120Y013430D01*
X031890Y013669D02*
X031038Y013669D01*
X031090Y013907D02*
X031890Y013907D01*
X031414Y014146D02*
X031044Y014146D01*
X030720Y014861D02*
X029912Y014861D01*
X030035Y015100D02*
X030720Y015100D01*
X030720Y015338D02*
X030035Y015338D01*
X030035Y015577D02*
X030720Y015577D01*
X030720Y015815D02*
X030035Y015815D01*
X030035Y016054D02*
X030720Y016054D01*
X030720Y016292D02*
X030035Y016292D01*
X029780Y016531D02*
X030720Y016531D01*
X030720Y016769D02*
X029780Y016769D01*
X029780Y017008D02*
X030720Y017008D01*
X030720Y017246D02*
X029780Y017246D01*
X029780Y017485D02*
X030720Y017485D01*
X030599Y017723D02*
X029780Y017723D01*
X029780Y017962D02*
X030582Y017962D01*
X030696Y018200D02*
X029933Y018200D01*
X032780Y017246D02*
X032825Y017246D01*
X032780Y017008D02*
X033207Y017008D01*
X032780Y016769D02*
X037943Y016769D01*
X037930Y017008D02*
X033793Y017008D01*
X034175Y017246D02*
X038027Y017246D01*
X038122Y017485D02*
X034349Y017485D01*
X034448Y017723D02*
X037962Y017723D01*
X037930Y017962D02*
X034449Y017962D01*
X034408Y018200D02*
X038002Y018200D01*
X038500Y017913D02*
X038500Y018663D01*
X037500Y018663D01*
X037476Y018687D01*
X037476Y019163D01*
X038000Y019163D01*
X038250Y019413D01*
X038250Y019913D01*
X038000Y020163D01*
X037476Y020163D01*
X037476Y019663D02*
X036823Y019663D01*
X036823Y019523D01*
X036677Y019523D01*
X036677Y019663D01*
X036677Y019810D01*
X036662Y019866D01*
X036645Y019894D01*
X036660Y019909D01*
X036697Y019997D01*
X036697Y020133D01*
X036803Y020133D01*
X036803Y019997D01*
X036840Y019909D01*
X036855Y019894D01*
X036838Y019866D01*
X036823Y019810D01*
X036823Y019663D01*
X037476Y019663D01*
X037476Y019663D01*
X036823Y019631D02*
X036677Y019631D01*
X036677Y019663D02*
X036024Y019663D01*
X036677Y019663D01*
X036660Y019870D02*
X036840Y019870D01*
X036803Y020108D02*
X036697Y020108D01*
X036024Y019663D02*
X036024Y019663D01*
X036024Y019163D02*
X037476Y019163D01*
X038369Y019023D02*
X038555Y019209D01*
X038610Y019341D01*
X038610Y019682D01*
X038668Y019740D01*
X038668Y019995D01*
X038851Y019995D01*
X038887Y019909D01*
X038902Y019894D01*
X038886Y019866D01*
X038871Y019810D01*
X038871Y019663D01*
X038871Y019516D01*
X038886Y019460D01*
X038902Y019432D01*
X038887Y019417D01*
X038851Y019329D01*
X038851Y019023D01*
X038369Y019023D01*
X038500Y019154D02*
X038851Y019154D01*
X038877Y019393D02*
X038610Y019393D01*
X038610Y019631D02*
X038871Y019631D01*
X038871Y019663D02*
X039524Y019663D01*
X039524Y019663D01*
X038871Y019663D01*
X038888Y019870D02*
X038668Y019870D01*
X039524Y019163D02*
X039524Y018937D01*
X039250Y018663D01*
X038500Y018663D01*
X038500Y017913D02*
X039500Y017913D01*
X040500Y017913D01*
X040500Y005413D01*
X040000Y004913D01*
X035500Y004913D01*
X035500Y003913D01*
X035000Y004413D02*
X034500Y003913D01*
X024500Y003913D01*
X024500Y004913D01*
X023898Y004476D02*
X023927Y004407D01*
X023994Y004340D01*
X024082Y004303D01*
X024140Y004303D01*
X024140Y004273D01*
X022418Y004273D01*
X022418Y004329D01*
X022454Y004323D01*
X022500Y004323D01*
X022546Y004323D01*
X022638Y004338D01*
X022726Y004366D01*
X022809Y004408D01*
X022884Y004463D01*
X022950Y004529D01*
X023000Y004597D01*
X023050Y004529D01*
X023116Y004463D01*
X023191Y004408D01*
X023274Y004366D01*
X023362Y004338D01*
X023454Y004323D01*
X023500Y004323D01*
X023546Y004323D01*
X023638Y004338D01*
X023726Y004366D01*
X023809Y004408D01*
X023884Y004463D01*
X023898Y004476D01*
X023967Y004367D02*
X023728Y004367D01*
X023500Y004367D02*
X023500Y004367D01*
X023500Y004323D02*
X023500Y004913D01*
X023500Y004913D01*
X023090Y004913D01*
X022500Y004913D01*
X022500Y004913D01*
X023500Y004913D01*
X023500Y004913D01*
X023500Y004323D01*
X023272Y004367D02*
X022728Y004367D01*
X022500Y004367D02*
X022500Y004367D01*
X022500Y004323D02*
X022500Y004913D01*
X022500Y004913D01*
X022500Y004323D01*
X022500Y004605D02*
X022500Y004605D01*
X022500Y004844D02*
X022500Y004844D01*
X023500Y004844D02*
X023500Y004844D01*
X023500Y004605D02*
X023500Y004605D01*
X024500Y003913D02*
X009000Y003913D01*
X008582Y003890D02*
X004450Y003890D01*
X004407Y003787D02*
X004500Y004012D01*
X004500Y004254D01*
X004407Y004479D01*
X004253Y004633D01*
X008556Y004633D01*
X008659Y004676D01*
X009616Y005633D01*
X010189Y005633D01*
X010327Y005495D01*
X010673Y005495D01*
X010811Y005633D01*
X012378Y005633D01*
X012196Y005450D01*
X012051Y005102D01*
X012051Y004724D01*
X012196Y004376D01*
X012298Y004273D01*
X009231Y004273D01*
X009173Y004331D01*
X008827Y004331D01*
X008582Y004086D01*
X008582Y003740D01*
X008659Y003663D01*
X004283Y003663D01*
X004407Y003787D01*
X004500Y004128D02*
X008624Y004128D01*
X008827Y004844D02*
X012051Y004844D01*
X012051Y005082D02*
X009065Y005082D01*
X009304Y005321D02*
X012142Y005321D01*
X012305Y005559D02*
X010738Y005559D01*
X010262Y005559D02*
X009542Y005559D01*
X012101Y004605D02*
X004280Y004605D01*
X004453Y004367D02*
X012204Y004367D01*
X013702Y004273D02*
X013804Y004376D01*
X013949Y004724D01*
X013949Y005102D01*
X013804Y005450D01*
X013622Y005633D01*
X014134Y005633D01*
X014591Y005176D01*
X014694Y005133D01*
X015431Y005133D01*
X015390Y005034D01*
X015390Y004792D01*
X015431Y004693D01*
X014811Y004693D01*
X014673Y004831D01*
X014327Y004831D01*
X014082Y004586D01*
X014082Y004273D01*
X013702Y004273D01*
X013796Y004367D02*
X014082Y004367D01*
X014101Y004605D02*
X013899Y004605D01*
X013949Y004844D02*
X015390Y004844D01*
X015410Y005082D02*
X013949Y005082D01*
X013858Y005321D02*
X014446Y005321D01*
X014208Y005559D02*
X013695Y005559D01*
X013426Y006193D02*
X013659Y006426D01*
X013737Y006504D01*
X013780Y006607D01*
X013780Y007369D01*
X013846Y007396D01*
X014000Y007550D01*
X014154Y007396D01*
X014379Y007303D01*
X014621Y007303D01*
X014846Y007396D01*
X015017Y007567D01*
X015019Y007572D01*
X015050Y007529D01*
X015116Y007463D01*
X015191Y007408D01*
X015274Y007366D01*
X015362Y007338D01*
X015454Y007323D01*
X015500Y007323D01*
X015546Y007323D01*
X015638Y007338D01*
X015726Y007366D01*
X015809Y007408D01*
X015884Y007463D01*
X015950Y007529D01*
X015981Y007572D01*
X015983Y007567D01*
X016154Y007396D01*
X016379Y007303D01*
X016621Y007303D01*
X016846Y007396D01*
X017000Y007550D01*
X017154Y007396D01*
X017379Y007303D01*
X017439Y007303D01*
X017419Y007256D01*
X017419Y007193D01*
X014944Y007193D01*
X014841Y007150D01*
X014522Y006831D01*
X014327Y006831D01*
X014082Y006586D01*
X014082Y006240D01*
X014129Y006193D01*
X013426Y006193D01*
X013508Y006275D02*
X014082Y006275D01*
X014082Y006513D02*
X013741Y006513D01*
X013780Y006752D02*
X014248Y006752D01*
X014682Y006990D02*
X013780Y006990D01*
X013780Y007229D02*
X017419Y007229D01*
X017083Y007467D02*
X016917Y007467D01*
X016083Y007467D02*
X015889Y007467D01*
X015500Y007467D02*
X015500Y007467D01*
X015500Y007323D02*
X015500Y007913D01*
X015500Y007913D01*
X015500Y008503D01*
X015546Y008503D01*
X015638Y008488D01*
X015720Y008462D01*
X015720Y013344D01*
X015621Y013303D01*
X015379Y013303D01*
X015280Y013344D01*
X015280Y008857D01*
X015237Y008754D01*
X015159Y008676D01*
X014879Y008396D01*
X015017Y008259D01*
X015019Y008254D01*
X015050Y008297D01*
X015116Y008363D01*
X015191Y008418D01*
X015274Y008460D01*
X015362Y008488D01*
X015454Y008503D01*
X015500Y008503D01*
X015500Y007913D01*
X015500Y007913D01*
X015500Y007323D01*
X015500Y007706D02*
X015500Y007706D01*
X015500Y007944D02*
X015500Y007944D01*
X015500Y008183D02*
X015500Y008183D01*
X015500Y008421D02*
X015500Y008421D01*
X015198Y008421D02*
X014904Y008421D01*
X015143Y008660D02*
X015720Y008660D01*
X015720Y008898D02*
X015280Y008898D01*
X015280Y009137D02*
X015720Y009137D01*
X015720Y009375D02*
X015280Y009375D01*
X015280Y009614D02*
X015720Y009614D01*
X015720Y009852D02*
X015280Y009852D01*
X015280Y010091D02*
X015720Y010091D01*
X015720Y010329D02*
X015280Y010329D01*
X015280Y010568D02*
X015720Y010568D01*
X015720Y010806D02*
X015280Y010806D01*
X015280Y011045D02*
X015720Y011045D01*
X015720Y011284D02*
X015280Y011284D01*
X015280Y011522D02*
X015720Y011522D01*
X015720Y011761D02*
X015280Y011761D01*
X015280Y011999D02*
X015720Y011999D01*
X015720Y012238D02*
X015280Y012238D01*
X015280Y012476D02*
X015720Y012476D01*
X015720Y012715D02*
X015280Y012715D01*
X015280Y012953D02*
X015720Y012953D01*
X015720Y013192D02*
X015280Y013192D01*
X014720Y012953D02*
X003903Y012953D01*
X004035Y012715D02*
X014720Y012715D01*
X014720Y012476D02*
X004110Y012476D01*
X004088Y012238D02*
X011233Y012238D01*
X011082Y011999D02*
X003949Y011999D01*
X003500Y012413D02*
X003000Y012413D01*
X003051Y011999D02*
X001750Y011999D01*
X001750Y011761D02*
X002256Y011761D01*
X002327Y011831D02*
X002082Y011586D01*
X002082Y011240D01*
X002327Y010995D01*
X002673Y010995D01*
X002731Y011053D01*
X005351Y011053D01*
X005640Y010764D01*
X005640Y008144D01*
X005582Y008086D01*
X005582Y007740D01*
X005827Y007495D01*
X006173Y007495D01*
X006418Y007740D01*
X006418Y008086D01*
X006360Y008144D01*
X006360Y010985D01*
X006305Y011117D01*
X006204Y011218D01*
X005704Y011718D01*
X005572Y011773D01*
X002731Y011773D01*
X002673Y011831D01*
X002327Y011831D01*
X002082Y011522D02*
X001750Y011522D01*
X001750Y011284D02*
X002082Y011284D01*
X002277Y011045D02*
X001750Y011045D01*
X001750Y010806D02*
X005597Y010806D01*
X005640Y010568D02*
X001750Y010568D01*
X001750Y010329D02*
X005640Y010329D01*
X005640Y010091D02*
X001750Y010091D01*
X001750Y009852D02*
X005640Y009852D01*
X005640Y009614D02*
X004662Y009614D01*
X004596Y009680D02*
X004371Y009773D01*
X004129Y009773D01*
X003904Y009680D01*
X003750Y009526D01*
X003596Y009680D01*
X003371Y009773D01*
X003129Y009773D01*
X002904Y009680D01*
X002733Y009509D01*
X002640Y009284D01*
X002640Y009042D01*
X002733Y008817D01*
X002904Y008646D01*
X003129Y008553D01*
X003371Y008553D01*
X003596Y008646D01*
X003750Y008800D01*
X003904Y008646D01*
X004129Y008553D01*
X004371Y008553D01*
X004596Y008646D01*
X004767Y008817D01*
X004860Y009042D01*
X004860Y009284D01*
X004767Y009509D01*
X004596Y009680D01*
X004822Y009375D02*
X005640Y009375D01*
X005640Y009137D02*
X004860Y009137D01*
X004801Y008898D02*
X005640Y008898D01*
X005640Y008660D02*
X004610Y008660D01*
X003890Y008660D02*
X003610Y008660D01*
X002890Y008660D02*
X001750Y008660D01*
X001750Y008898D02*
X002699Y008898D01*
X002640Y009137D02*
X001750Y009137D01*
X001750Y009375D02*
X002678Y009375D01*
X002838Y009614D02*
X001750Y009614D01*
X003662Y009614D02*
X003838Y009614D01*
X002723Y011045D02*
X005359Y011045D01*
X005500Y011413D02*
X006000Y010913D01*
X006000Y007913D01*
X006418Y007944D02*
X006890Y007944D01*
X006925Y007706D02*
X006384Y007706D01*
X006360Y008183D02*
X006952Y008183D01*
X007146Y008421D02*
X006360Y008421D01*
X006360Y008660D02*
X008162Y008660D01*
X008146Y008421D02*
X007854Y008421D01*
X008854Y008421D02*
X009146Y008421D01*
X009210Y008660D02*
X008838Y008660D01*
X008918Y008898D02*
X009210Y008898D01*
X009185Y009137D02*
X008867Y009137D01*
X009082Y009375D02*
X006360Y009375D01*
X006360Y009137D02*
X008133Y009137D01*
X008082Y008898D02*
X006360Y008898D01*
X006360Y009614D02*
X009110Y009614D01*
X009890Y009614D02*
X010220Y009614D01*
X010220Y009852D02*
X006360Y009852D01*
X006360Y010091D02*
X010220Y010091D01*
X010220Y010329D02*
X006360Y010329D01*
X006360Y010568D02*
X010220Y010568D01*
X010220Y010806D02*
X006360Y010806D01*
X006335Y011045D02*
X010220Y011045D01*
X010082Y011284D02*
X006139Y011284D01*
X005900Y011522D02*
X010082Y011522D01*
X010256Y011761D02*
X005602Y011761D01*
X005500Y011413D02*
X002500Y011413D01*
X003500Y013413D02*
X005750Y013413D01*
X007892Y014384D02*
X008108Y014384D01*
X008892Y014384D02*
X009108Y014384D01*
X009892Y014384D02*
X010108Y014384D01*
X010892Y014384D02*
X011108Y014384D01*
X011892Y014384D02*
X012108Y014384D01*
X012892Y014384D02*
X013108Y014384D01*
X013892Y014384D02*
X014108Y014384D01*
X014689Y015815D02*
X014720Y015815D01*
X014736Y017008D02*
X014658Y017008D01*
X014815Y017246D02*
X014937Y017246D01*
X014840Y017485D02*
X015176Y017485D01*
X015414Y017723D02*
X014754Y017723D01*
X014559Y017962D02*
X015653Y017962D01*
X015891Y018200D02*
X014775Y018200D01*
X014820Y018439D02*
X016130Y018439D01*
X016368Y018677D02*
X014749Y018677D01*
X014510Y018916D02*
X016607Y018916D01*
X016845Y019154D02*
X014777Y019154D01*
X014840Y019393D02*
X017084Y019393D01*
X016691Y019631D02*
X014794Y019631D01*
X014607Y019870D02*
X015398Y019870D01*
X017160Y018677D02*
X017368Y018677D01*
X017398Y018916D02*
X017607Y018916D01*
X017637Y019154D02*
X017845Y019154D01*
X017780Y019393D02*
X018084Y019393D01*
X018322Y019631D02*
X017780Y019631D01*
X017780Y019870D02*
X018561Y019870D01*
X018536Y020108D02*
X018620Y020108D01*
X017964Y020108D02*
X017780Y020108D01*
X017780Y020347D02*
X017832Y020347D01*
X017832Y020585D02*
X017780Y020585D01*
X017780Y020824D02*
X017970Y020824D01*
X017970Y021062D02*
X017780Y021062D01*
X017780Y021301D02*
X017970Y021301D01*
X017970Y021539D02*
X017780Y021539D01*
X017780Y021778D02*
X017970Y021778D01*
X017970Y022016D02*
X017780Y022016D01*
X017780Y022255D02*
X017832Y022255D01*
X017832Y022493D02*
X017780Y022493D01*
X017780Y022732D02*
X017977Y022732D01*
X017780Y022970D02*
X018620Y022970D01*
X018620Y022732D02*
X018523Y022732D01*
X016556Y022016D02*
X010944Y022016D01*
X011168Y022255D02*
X016332Y022255D01*
X016274Y022493D02*
X011168Y022493D01*
X010556Y022016D02*
X008862Y022016D01*
X008140Y021539D02*
X005555Y021539D01*
X005664Y021301D02*
X008140Y021301D01*
X004036Y020347D02*
X001750Y020347D01*
X001750Y020585D02*
X003865Y020585D01*
X012000Y024913D02*
X040000Y024913D01*
X040500Y024413D01*
X040500Y017913D01*
X040140Y017553D02*
X040140Y005562D01*
X039851Y005273D01*
X035860Y005273D01*
X035860Y007985D01*
X035805Y008117D01*
X035427Y008495D01*
X035673Y008495D01*
X035811Y008633D01*
X037384Y008633D01*
X037841Y008176D01*
X037944Y008133D01*
X037974Y008133D01*
X037930Y008026D01*
X037930Y007800D01*
X038017Y007590D01*
X038177Y007430D01*
X038218Y007413D01*
X038177Y007396D01*
X038017Y007236D01*
X037930Y007026D01*
X037930Y006800D01*
X038017Y006590D01*
X038177Y006430D01*
X038246Y006401D01*
X038212Y006383D01*
X038142Y006333D01*
X038080Y006271D01*
X038030Y006201D01*
X037990Y006124D01*
X037964Y006042D01*
X037950Y005956D01*
X037950Y005913D01*
X038500Y005913D01*
X039500Y005913D01*
X040050Y005913D01*
X040050Y005956D01*
X040036Y006042D01*
X040010Y006124D01*
X039970Y006201D01*
X039920Y006271D01*
X039858Y006333D01*
X039788Y006383D01*
X039754Y006401D01*
X039823Y006430D01*
X039983Y006590D01*
X040070Y006800D01*
X040070Y007026D01*
X039983Y007236D01*
X039823Y007396D01*
X039782Y007413D01*
X039823Y007430D01*
X039983Y007590D01*
X040070Y007800D01*
X040070Y008026D01*
X039983Y008236D01*
X039823Y008396D01*
X039782Y008413D01*
X039823Y008430D01*
X039983Y008590D01*
X040070Y008800D01*
X040070Y009026D01*
X039983Y009236D01*
X039823Y009396D01*
X039782Y009413D01*
X039823Y009430D01*
X039983Y009590D01*
X040070Y009800D01*
X040070Y010026D01*
X039983Y010236D01*
X039823Y010396D01*
X039782Y010413D01*
X039823Y010430D01*
X039983Y010590D01*
X040070Y010800D01*
X040070Y011026D01*
X039983Y011236D01*
X039823Y011396D01*
X039782Y011413D01*
X039823Y011430D01*
X039983Y011590D01*
X040070Y011800D01*
X040070Y012026D01*
X039983Y012236D01*
X039823Y012396D01*
X039782Y012413D01*
X039823Y012430D01*
X039983Y012590D01*
X040070Y012800D01*
X040070Y013026D01*
X039983Y013236D01*
X039823Y013396D01*
X039782Y013413D01*
X039823Y013430D01*
X040140Y013430D01*
X039983Y013590D02*
X040070Y013800D01*
X040070Y014026D01*
X039983Y014236D01*
X039823Y014396D01*
X039782Y014413D01*
X039823Y014430D01*
X039983Y014590D01*
X040070Y014800D01*
X040070Y015026D01*
X039983Y015236D01*
X039823Y015396D01*
X039782Y015413D01*
X039823Y015430D01*
X039983Y015590D01*
X040070Y015800D01*
X040070Y016026D01*
X039983Y016236D01*
X039823Y016396D01*
X039782Y016413D01*
X039823Y016430D01*
X039983Y016590D01*
X040070Y016800D01*
X040070Y017026D01*
X039983Y017236D01*
X039823Y017396D01*
X039782Y017413D01*
X039823Y017430D01*
X039946Y017553D01*
X040140Y017553D01*
X040140Y017485D02*
X039878Y017485D01*
X039973Y017246D02*
X040140Y017246D01*
X040140Y017008D02*
X040070Y017008D01*
X040057Y016769D02*
X040140Y016769D01*
X040140Y016531D02*
X039924Y016531D01*
X039927Y016292D02*
X040140Y016292D01*
X040140Y016054D02*
X040059Y016054D01*
X040070Y015815D02*
X040140Y015815D01*
X040140Y015577D02*
X039970Y015577D01*
X039881Y015338D02*
X040140Y015338D01*
X040140Y015100D02*
X040040Y015100D01*
X040070Y014861D02*
X040140Y014861D01*
X040140Y014623D02*
X039997Y014623D01*
X040140Y014384D02*
X039835Y014384D01*
X040021Y014146D02*
X040140Y014146D01*
X040140Y013907D02*
X040070Y013907D01*
X040016Y013669D02*
X040140Y013669D01*
X039983Y013590D02*
X039823Y013430D01*
X040002Y013192D02*
X040140Y013192D01*
X040140Y012953D02*
X040070Y012953D01*
X040035Y012715D02*
X040140Y012715D01*
X040140Y012476D02*
X039869Y012476D01*
X039982Y012238D02*
X040140Y012238D01*
X040140Y011999D02*
X040070Y011999D01*
X040054Y011761D02*
X040140Y011761D01*
X040140Y011522D02*
X039915Y011522D01*
X039936Y011284D02*
X040140Y011284D01*
X040140Y011045D02*
X040062Y011045D01*
X040070Y010806D02*
X040140Y010806D01*
X040140Y010568D02*
X039961Y010568D01*
X039890Y010329D02*
X040140Y010329D01*
X040140Y010091D02*
X040043Y010091D01*
X040070Y009852D02*
X040140Y009852D01*
X040140Y009614D02*
X039993Y009614D01*
X040140Y009375D02*
X039844Y009375D01*
X040024Y009137D02*
X040140Y009137D01*
X040140Y008898D02*
X040070Y008898D01*
X040012Y008660D02*
X040140Y008660D01*
X040140Y008421D02*
X039803Y008421D01*
X040005Y008183D02*
X040140Y008183D01*
X040140Y007944D02*
X040070Y007944D01*
X040031Y007706D02*
X040140Y007706D01*
X040140Y007467D02*
X039861Y007467D01*
X039986Y007229D02*
X040140Y007229D01*
X040140Y006990D02*
X040070Y006990D01*
X040050Y006752D02*
X040140Y006752D01*
X040140Y006513D02*
X039907Y006513D01*
X039916Y006275D02*
X040140Y006275D01*
X040140Y006036D02*
X040037Y006036D01*
X040050Y005913D02*
X039500Y005913D01*
X039500Y005913D01*
X039500Y005913D01*
X039050Y005913D01*
X038500Y005913D01*
X038500Y005913D01*
X038500Y005913D01*
X037950Y005913D01*
X037950Y005870D01*
X037964Y005784D01*
X037990Y005702D01*
X038030Y005625D01*
X038080Y005555D01*
X038142Y005493D01*
X038212Y005443D01*
X038289Y005403D01*
X038371Y005377D01*
X038457Y005363D01*
X038500Y005363D01*
X038543Y005363D01*
X038629Y005377D01*
X038711Y005403D01*
X038788Y005443D01*
X038858Y005493D01*
X038920Y005555D01*
X038970Y005625D01*
X039000Y005683D01*
X039030Y005625D01*
X039080Y005555D01*
X039142Y005493D01*
X039212Y005443D01*
X039289Y005403D01*
X039371Y005377D01*
X039457Y005363D01*
X039500Y005363D01*
X039543Y005363D01*
X039629Y005377D01*
X039711Y005403D01*
X039788Y005443D01*
X039858Y005493D01*
X039920Y005555D01*
X039970Y005625D01*
X040010Y005702D01*
X040036Y005784D01*
X040050Y005870D01*
X040050Y005913D01*
X040039Y005798D02*
X040140Y005798D01*
X040137Y005559D02*
X039923Y005559D01*
X039899Y005321D02*
X035860Y005321D01*
X035860Y005559D02*
X038077Y005559D01*
X037961Y005798D02*
X035860Y005798D01*
X035860Y006036D02*
X037963Y006036D01*
X038084Y006275D02*
X035860Y006275D01*
X035860Y006513D02*
X038093Y006513D01*
X037950Y006752D02*
X035860Y006752D01*
X035860Y006990D02*
X037930Y006990D01*
X038014Y007229D02*
X035860Y007229D01*
X035860Y007467D02*
X038139Y007467D01*
X037969Y007706D02*
X035860Y007706D01*
X035860Y007944D02*
X037930Y007944D01*
X037834Y008183D02*
X035739Y008183D01*
X035501Y008421D02*
X037596Y008421D01*
X035500Y007913D02*
X034500Y008913D01*
X029000Y008913D01*
X028500Y008413D01*
X028500Y007913D01*
X030500Y007913D02*
X034500Y007913D01*
X035000Y007413D01*
X035000Y004413D01*
X034640Y004562D02*
X034351Y004273D01*
X024860Y004273D01*
X024860Y004303D01*
X024918Y004303D01*
X025006Y004340D01*
X025073Y004407D01*
X025110Y004495D01*
X025110Y005133D01*
X025169Y005133D01*
X025169Y005070D01*
X025206Y004982D01*
X025273Y004914D01*
X025362Y004878D01*
X025969Y004878D01*
X026000Y004891D01*
X026031Y004878D01*
X026638Y004878D01*
X026726Y004914D01*
X026794Y004982D01*
X026831Y005070D01*
X026831Y005133D01*
X026931Y005133D01*
X026890Y005034D01*
X026890Y004792D01*
X026983Y004567D01*
X027154Y004396D01*
X027379Y004303D01*
X027621Y004303D01*
X027846Y004396D01*
X028000Y004550D01*
X028154Y004396D01*
X028379Y004303D01*
X028621Y004303D01*
X028846Y004396D01*
X029000Y004550D01*
X029154Y004396D01*
X029379Y004303D01*
X029621Y004303D01*
X029846Y004396D01*
X030000Y004550D01*
X030154Y004396D01*
X030379Y004303D01*
X030621Y004303D01*
X030846Y004396D01*
X031000Y004550D01*
X031154Y004396D01*
X031379Y004303D01*
X031621Y004303D01*
X031846Y004396D01*
X032000Y004550D01*
X032154Y004396D01*
X032379Y004303D01*
X032621Y004303D01*
X032846Y004396D01*
X033017Y004567D01*
X033110Y004792D01*
X033110Y005034D01*
X033017Y005259D01*
X032846Y005430D01*
X032621Y005523D01*
X032379Y005523D01*
X032323Y005500D01*
X032280Y005543D01*
X032280Y006969D01*
X032237Y007072D01*
X031756Y007553D01*
X032798Y007553D01*
X032696Y007450D01*
X032551Y007102D01*
X032551Y006724D01*
X032696Y006376D01*
X032963Y006109D01*
X033311Y005964D01*
X033689Y005964D01*
X034037Y006109D01*
X034304Y006376D01*
X034449Y006724D01*
X034449Y007102D01*
X034304Y007450D01*
X034202Y007553D01*
X034351Y007553D01*
X034640Y007264D01*
X034640Y004562D01*
X034640Y004605D02*
X033033Y004605D01*
X033110Y004844D02*
X034640Y004844D01*
X034640Y005082D02*
X033090Y005082D01*
X032955Y005321D02*
X034640Y005321D01*
X034640Y005559D02*
X032280Y005559D01*
X032280Y005798D02*
X034640Y005798D01*
X034640Y006036D02*
X033863Y006036D01*
X034204Y006275D02*
X034640Y006275D01*
X034640Y006513D02*
X034361Y006513D01*
X034449Y006752D02*
X034640Y006752D01*
X034640Y006990D02*
X034449Y006990D01*
X034396Y007229D02*
X034640Y007229D01*
X034436Y007467D02*
X034287Y007467D01*
X035500Y007913D02*
X035500Y004913D01*
X034445Y004367D02*
X032776Y004367D01*
X032224Y004367D02*
X031776Y004367D01*
X031224Y004367D02*
X030776Y004367D01*
X030224Y004367D02*
X029776Y004367D01*
X029224Y004367D02*
X028776Y004367D01*
X028224Y004367D02*
X027776Y004367D01*
X027224Y004367D02*
X025033Y004367D01*
X025110Y004605D02*
X026967Y004605D01*
X026890Y004844D02*
X025110Y004844D01*
X025110Y005082D02*
X025169Y005082D01*
X026831Y005082D02*
X026910Y005082D01*
X032280Y006036D02*
X033137Y006036D01*
X032796Y006275D02*
X032280Y006275D01*
X032280Y006513D02*
X032639Y006513D01*
X032551Y006752D02*
X032280Y006752D01*
X032271Y006990D02*
X032551Y006990D01*
X032604Y007229D02*
X032080Y007229D01*
X031841Y007467D02*
X032713Y007467D01*
X038500Y005913D02*
X038500Y005363D01*
X038500Y005913D01*
X038500Y005913D01*
X038500Y005798D02*
X038500Y005798D01*
X038500Y005559D02*
X038500Y005559D01*
X038923Y005559D02*
X039077Y005559D01*
X039500Y005559D02*
X039500Y005559D01*
X039500Y005363D02*
X039500Y005913D01*
X039500Y005913D01*
X039500Y005363D01*
X039500Y005798D02*
X039500Y005798D01*
X035082Y011284D02*
X021280Y011284D01*
X021280Y011522D02*
X035082Y011522D01*
X035082Y011761D02*
X021280Y011761D01*
X021280Y011999D02*
X035082Y011999D01*
X035233Y012238D02*
X021280Y012238D01*
X021280Y012476D02*
X035667Y012476D01*
X035906Y012715D02*
X021280Y012715D01*
X021280Y012953D02*
X036144Y012953D01*
X036383Y013192D02*
X021280Y013192D01*
X021880Y013430D02*
X022120Y013430D01*
X022880Y013430D02*
X023120Y013430D01*
X023880Y013430D02*
X024120Y013430D01*
X024880Y013430D02*
X025120Y013430D01*
X025880Y013430D02*
X026120Y013430D01*
X026880Y013430D02*
X027120Y013430D01*
X027880Y013430D02*
X028120Y013430D01*
X028880Y013430D02*
X029120Y013430D01*
X029880Y013430D02*
X030161Y013430D01*
X032880Y013430D02*
X033149Y013430D01*
X033500Y013430D02*
X033500Y013430D01*
X033500Y013669D02*
X033500Y013669D01*
X033500Y013907D02*
X033500Y013907D01*
X034090Y013907D02*
X037098Y013907D01*
X036860Y013669D02*
X034090Y013669D01*
X033851Y013430D02*
X036621Y013430D01*
X037337Y014146D02*
X034090Y014146D01*
X033863Y014384D02*
X037575Y014384D01*
X037814Y014623D02*
X034072Y014623D01*
X034110Y014861D02*
X037930Y014861D01*
X037960Y015100D02*
X034110Y015100D01*
X033938Y015338D02*
X038119Y015338D01*
X038030Y015577D02*
X034026Y015577D01*
X034110Y015815D02*
X037930Y015815D01*
X037941Y016054D02*
X034110Y016054D01*
X033984Y016292D02*
X038073Y016292D01*
X038076Y016531D02*
X032780Y016531D01*
X032984Y016292D02*
X033016Y016292D01*
X034500Y018663D02*
X034250Y018889D01*
X033976Y019163D01*
X033976Y019663D01*
X033976Y020163D01*
X034750Y020163D01*
X034894Y020307D01*
X034894Y021413D01*
X034534Y020663D02*
X033976Y020663D01*
X033976Y020523D01*
X033976Y020523D01*
X033976Y020663D01*
X033976Y020663D01*
X033976Y020878D01*
X033976Y020878D01*
X033976Y020663D01*
X033976Y020663D01*
X034534Y020663D01*
X034534Y020663D01*
X033976Y020663D02*
X033976Y020663D01*
X033976Y020585D02*
X033976Y020585D01*
X033976Y020824D02*
X033976Y020824D01*
X036280Y021021D02*
X036280Y021547D01*
X036366Y021633D01*
X036880Y021633D01*
X036880Y021421D01*
X037348Y021421D01*
X037348Y021405D01*
X036880Y021405D01*
X036880Y021069D01*
X036895Y021013D01*
X036923Y020966D01*
X036908Y020957D01*
X036867Y020916D01*
X036838Y020866D01*
X036823Y020810D01*
X036823Y020693D01*
X036697Y020693D01*
X036697Y020829D01*
X036660Y020917D01*
X036593Y020985D01*
X036504Y021021D01*
X036280Y021021D01*
X036280Y021062D02*
X036882Y021062D01*
X036880Y021301D02*
X036280Y021301D01*
X036280Y021539D02*
X036880Y021539D01*
X036750Y021413D02*
X036750Y020663D01*
X037476Y020663D01*
X037476Y020693D02*
X037476Y020878D01*
X037476Y020878D01*
X037476Y020693D01*
X037476Y020693D01*
X037476Y020824D02*
X037476Y020824D01*
X036827Y020824D02*
X036697Y020824D01*
X038250Y020763D02*
X038250Y021413D01*
X038956Y021413D01*
X038250Y021413D02*
X038144Y021413D01*
X039736Y021539D02*
X039752Y021539D01*
X039736Y021778D02*
X039752Y021778D01*
X037476Y024163D02*
X037376Y024263D01*
X036750Y024263D01*
X036697Y024329D02*
X036674Y024383D01*
X036848Y024383D01*
X036838Y024366D01*
X036823Y024310D01*
X036823Y024193D01*
X036697Y024193D01*
X036697Y024329D01*
X037476Y024383D02*
X037476Y024193D01*
X037476Y024193D01*
X037476Y024383D01*
X037476Y024383D01*
X037476Y024389D02*
X037476Y024163D01*
X035380Y024401D02*
X034594Y024401D01*
X034629Y024163D02*
X033976Y024163D01*
X033976Y024163D01*
X033976Y024501D01*
X033976Y024163D01*
X033976Y024163D01*
X033976Y024023D01*
X033976Y024023D01*
X033976Y024163D01*
X033976Y024163D01*
X033976Y024163D01*
X034629Y024163D01*
X035351Y024163D01*
X033976Y024163D02*
X033976Y024163D01*
X033976Y024401D02*
X033976Y024401D01*
X026125Y024401D02*
X025875Y024401D01*
X026841Y020108D02*
X027049Y020108D01*
X026811Y019870D02*
X026602Y019870D01*
X026572Y019631D02*
X026364Y019631D01*
X026334Y019393D02*
X026125Y019393D01*
X026095Y019154D02*
X025887Y019154D01*
X025857Y018916D02*
X025648Y018916D01*
X025618Y018677D02*
X025410Y018677D01*
X025380Y018439D02*
X025171Y018439D01*
X025220Y018200D02*
X024933Y018200D01*
X024780Y017962D02*
X025220Y017962D01*
X025220Y017723D02*
X024780Y017723D01*
X024780Y017485D02*
X025220Y017485D01*
X025220Y017246D02*
X024780Y017246D01*
X024780Y017008D02*
X025220Y017008D01*
X025220Y016769D02*
X024780Y016769D01*
X024780Y016531D02*
X025220Y016531D01*
X017130Y018439D02*
X016921Y018439D01*
X016891Y018200D02*
X016683Y018200D01*
X016841Y018150D02*
X016841Y018150D01*
X016720Y017962D02*
X016444Y017962D01*
X016281Y017723D02*
X016720Y017723D01*
X016720Y017485D02*
X016418Y017485D01*
X014720Y012238D02*
X011767Y012238D01*
X011918Y011999D02*
X014720Y011999D01*
X014720Y011761D02*
X011918Y011761D01*
X011780Y011522D02*
X014720Y011522D01*
X014720Y011284D02*
X011780Y011284D01*
X011780Y011045D02*
X014720Y011045D01*
X014720Y010806D02*
X011780Y010806D01*
X011780Y010568D02*
X014720Y010568D01*
X014720Y010329D02*
X011780Y010329D01*
X011780Y010091D02*
X014720Y010091D01*
X014720Y009852D02*
X011780Y009852D01*
X011780Y009614D02*
X014720Y009614D01*
X014720Y009375D02*
X011780Y009375D01*
X011780Y009137D02*
X014720Y009137D01*
X014590Y008898D02*
X011780Y008898D01*
X011780Y008660D02*
X012839Y008660D01*
X012146Y008421D02*
X011854Y008421D01*
X011220Y008660D02*
X010780Y008660D01*
X010780Y008898D02*
X011220Y008898D01*
X011220Y009137D02*
X010780Y009137D01*
X010780Y009375D02*
X011220Y009375D01*
X011220Y009614D02*
X010780Y009614D01*
X010780Y009852D02*
X011220Y009852D01*
X011220Y010091D02*
X010780Y010091D01*
X010780Y010329D02*
X011220Y010329D01*
X011220Y010568D02*
X010780Y010568D01*
X010780Y010806D02*
X011220Y010806D01*
X011220Y011045D02*
X010780Y011045D01*
X010918Y011284D02*
X011220Y011284D01*
X011220Y011522D02*
X010918Y011522D01*
X011082Y011761D02*
X010744Y011761D01*
X010220Y009375D02*
X009918Y009375D01*
X009815Y009137D02*
X010220Y009137D01*
X010220Y008898D02*
X009790Y008898D01*
X009790Y008660D02*
X010220Y008660D01*
X010146Y008421D02*
X009854Y008421D01*
X010854Y008421D02*
X011146Y008421D01*
X011083Y007467D02*
X010917Y007467D01*
X011220Y007229D02*
X004190Y007229D01*
X004427Y006990D02*
X011182Y006990D01*
X010083Y007467D02*
X009917Y007467D01*
X009083Y007467D02*
X008917Y007467D01*
X008083Y007467D02*
X007917Y007467D01*
X007083Y007467D02*
X001750Y007467D01*
X001750Y007229D02*
X001862Y007229D01*
X002110Y007229D02*
X002110Y007229D01*
X002110Y006990D02*
X002110Y006990D01*
X002110Y006752D02*
X002110Y006752D01*
X002110Y006693D02*
X002700Y006693D01*
X002110Y006693D01*
X002110Y006693D01*
X002110Y006103D01*
X002110Y006693D01*
X002110Y006693D01*
X002110Y006513D02*
X002110Y006513D01*
X002110Y006275D02*
X002110Y006275D01*
X002526Y006275D02*
X003445Y006275D01*
X003304Y006513D02*
X002672Y006513D01*
X002698Y006752D02*
X003280Y006752D01*
X003353Y006990D02*
X002621Y006990D01*
X002358Y007229D02*
X003590Y007229D01*
X004500Y006752D02*
X005693Y006752D01*
X005489Y006513D02*
X004476Y006513D01*
X004335Y006275D02*
X005470Y006275D01*
X005470Y006036D02*
X004170Y006036D01*
X004170Y005798D02*
X005272Y005798D01*
X005150Y005559D02*
X004170Y005559D01*
X004170Y005321D02*
X005140Y005321D01*
X003610Y005321D02*
X001750Y005321D01*
X001750Y005559D02*
X003610Y005559D01*
X003610Y005798D02*
X001750Y005798D01*
X001750Y006036D02*
X003610Y006036D01*
X003610Y005082D02*
X001750Y005082D01*
X001750Y004844D02*
X003610Y004844D01*
X003500Y004605D02*
X002463Y004605D01*
X002653Y004367D02*
X003327Y004367D01*
X003280Y004128D02*
X002700Y004128D01*
X002700Y004133D02*
X002110Y004133D01*
X002700Y004133D01*
X002648Y003890D02*
X003330Y003890D01*
X002110Y004133D02*
X002110Y004133D01*
X002110Y004367D02*
X002110Y004367D01*
X002110Y004605D02*
X002110Y004605D01*
X001757Y004605D02*
X001750Y004605D01*
X001750Y007706D02*
X005616Y007706D01*
X005582Y007944D02*
X001750Y007944D01*
X001750Y008183D02*
X005640Y008183D01*
X005640Y008421D02*
X001750Y008421D01*
X013917Y007467D02*
X014083Y007467D01*
X014917Y007467D02*
X015111Y007467D01*
X015116Y006633D02*
X014918Y006435D01*
X014918Y006240D01*
X014673Y005995D01*
X014564Y005995D01*
X014866Y005693D01*
X015431Y005693D01*
X015390Y005792D01*
X015390Y006034D01*
X015483Y006259D01*
X015654Y006430D01*
X015879Y006523D01*
X016121Y006523D01*
X016346Y006430D01*
X016517Y006259D01*
X016610Y006034D01*
X016610Y005792D01*
X016569Y005693D01*
X019056Y005693D01*
X019159Y005650D01*
X019233Y005576D01*
X019220Y005607D01*
X019220Y007369D01*
X019154Y007396D01*
X019000Y007550D01*
X018895Y007445D01*
X018976Y007412D01*
X019044Y007344D01*
X019081Y007256D01*
X019081Y006570D01*
X019044Y006482D01*
X018976Y006414D01*
X018888Y006378D01*
X018281Y006378D01*
X018250Y006391D01*
X018219Y006378D01*
X017612Y006378D01*
X017523Y006414D01*
X017456Y006482D01*
X017419Y006570D01*
X017419Y006633D01*
X015116Y006633D01*
X014996Y006513D02*
X015856Y006513D01*
X016144Y006513D02*
X017443Y006513D01*
X016609Y006036D02*
X019220Y006036D01*
X019220Y005798D02*
X016610Y005798D01*
X016501Y006275D02*
X019220Y006275D01*
X019220Y006513D02*
X019057Y006513D01*
X019081Y006752D02*
X019220Y006752D01*
X019220Y006990D02*
X019081Y006990D01*
X019081Y007229D02*
X019220Y007229D01*
X019083Y007467D02*
X018917Y007467D01*
X015499Y006275D02*
X014918Y006275D01*
X014715Y006036D02*
X015391Y006036D01*
X015390Y005798D02*
X014761Y005798D01*
X022280Y009614D02*
X023610Y009614D01*
X024029Y009852D02*
X022280Y009852D01*
X022218Y010091D02*
X024268Y010091D01*
X024506Y010329D02*
X021979Y010329D01*
X021528Y010568D02*
X024745Y010568D01*
X024983Y010806D02*
X021280Y010806D01*
X021280Y011045D02*
X025222Y011045D01*
X034500Y018663D02*
X037500Y018663D01*
X017568Y024401D02*
X017275Y024401D01*
X016525Y024401D02*
X016275Y024401D01*
X015525Y024401D02*
X015275Y024401D01*
X014525Y024401D02*
X014325Y024401D01*
D31*
X014900Y023913D02*
X015400Y023413D01*
X016250Y022913D02*
X016750Y022413D01*
X016250Y022913D02*
X013000Y022913D01*
X011713Y024200D01*
X011000Y024913D01*
X010750Y024913D01*
X011713Y024240D02*
X011713Y024200D01*
X009500Y021413D02*
X009390Y021303D01*
X009390Y020381D01*
X009823Y020224D02*
X009823Y020986D01*
X010000Y021163D01*
X015500Y021163D01*
X015750Y020913D01*
X017000Y020913D01*
X017000Y021413D02*
X009500Y021413D01*
X010750Y020663D02*
X011000Y020913D01*
X015250Y020913D01*
X015500Y020663D01*
X015000Y020663D02*
X015750Y019913D01*
X017000Y019913D01*
X017500Y019413D02*
X017500Y023313D01*
X016900Y023913D01*
X018900Y023913D02*
X018900Y021913D01*
X018900Y019813D01*
X017000Y017913D01*
X017000Y010248D01*
X017000Y009578D02*
X017000Y008413D01*
X017500Y007913D01*
X016500Y007913D02*
X016000Y008413D01*
X016000Y017413D01*
X016500Y016913D02*
X016500Y013913D01*
X015500Y013913D02*
X015500Y016413D01*
X015000Y016913D02*
X017500Y019413D01*
X018250Y020413D02*
X018250Y022413D01*
X019900Y022413D02*
X019900Y019913D01*
X019900Y019813D01*
X017625Y017538D01*
X017500Y017413D01*
X017500Y015998D01*
X017500Y015328D02*
X017500Y013913D01*
X018500Y013913D02*
X018500Y015328D01*
X019500Y015328D02*
X019500Y013913D01*
X020500Y013913D02*
X020500Y015328D01*
X020500Y015998D02*
X020677Y016175D01*
X020677Y016913D01*
X020677Y017590D01*
X022900Y019813D01*
X022900Y023913D01*
X023900Y023913D02*
X024000Y023813D01*
X024000Y021986D01*
X024073Y021913D01*
X024073Y021736D01*
X024000Y021663D01*
X024000Y019913D01*
X021500Y017413D01*
X021500Y015998D01*
X021500Y015328D02*
X021500Y013913D01*
X022500Y013913D02*
X022500Y015328D01*
X022500Y015998D02*
X022500Y017413D01*
X025500Y020413D01*
X025500Y021840D01*
X025427Y021913D01*
X025500Y021986D01*
X025500Y023913D01*
X026500Y023913D02*
X026500Y020913D01*
X023500Y017913D01*
X023500Y015998D01*
X024500Y015998D02*
X024500Y018163D01*
X027500Y021163D01*
X027500Y023913D01*
X028500Y023913D02*
X028500Y021163D01*
X025500Y018163D01*
X025500Y015998D01*
X025500Y015328D02*
X025500Y013913D01*
X024500Y013913D02*
X024500Y015328D01*
X023500Y015328D02*
X023500Y013913D01*
X026500Y013913D02*
X026500Y015328D01*
X026500Y015998D02*
X026500Y018163D01*
X029500Y021163D01*
X029500Y023913D01*
X030500Y023913D02*
X030500Y021163D01*
X027500Y018163D01*
X027500Y015998D01*
X027500Y015328D02*
X027500Y013913D01*
X028500Y013913D02*
X028500Y015328D01*
X029500Y015328D02*
X029500Y013913D01*
X031000Y014913D02*
X031000Y017913D01*
X029500Y018163D02*
X029500Y015998D01*
X028500Y015998D02*
X028500Y018163D01*
X031500Y021163D01*
X031500Y023913D01*
X032000Y024313D02*
X032000Y021413D01*
X032500Y021163D02*
X029500Y018163D01*
X032000Y019163D02*
X032500Y019663D01*
X032500Y019163D02*
X033000Y019663D01*
X032500Y019163D02*
X032500Y015913D01*
X032000Y015413D02*
X032000Y019163D01*
X032500Y021163D02*
X032500Y023913D01*
X032000Y024313D02*
X031800Y024513D01*
X036024Y024163D02*
X036250Y024187D01*
X036250Y024413D01*
X036500Y024663D01*
X039500Y024663D01*
X039524Y024639D01*
X039524Y024163D01*
X039250Y023913D02*
X038400Y023913D01*
X036500Y023913D01*
X036250Y023663D01*
X036024Y023663D01*
X037476Y023663D02*
X038000Y023663D01*
X039250Y023913D02*
X039500Y023663D01*
X039524Y023663D01*
X040250Y024163D02*
X040250Y020913D01*
X040000Y020663D01*
X039524Y020663D01*
X039424Y020663D01*
X039350Y020737D01*
X039350Y021763D01*
X039200Y021913D01*
X036250Y021913D01*
X036000Y021663D01*
X036000Y020663D01*
X035350Y020663D01*
X035200Y020513D01*
X035200Y019713D01*
X036024Y020163D02*
X036274Y020413D01*
X038750Y020413D01*
X039250Y020413D01*
X039500Y020163D01*
X039524Y020163D01*
X039524Y020663D02*
X039900Y020663D01*
X039524Y020663D02*
X039500Y020663D01*
X036250Y020687D02*
X036024Y020663D01*
X039750Y024663D02*
X040250Y024163D01*
X039750Y024663D02*
X039500Y024663D01*
X025073Y021913D02*
X024750Y021913D01*
X024750Y020413D01*
X023500Y019913D02*
X023500Y023413D01*
X022000Y023813D02*
X021900Y023913D01*
X022000Y023813D02*
X022000Y019913D01*
X019323Y017236D01*
X019323Y016913D01*
X019323Y016175D01*
X019500Y015998D01*
X018500Y015998D02*
X018500Y017413D01*
X020900Y019813D01*
X020900Y020913D01*
X020900Y023913D01*
X019900Y023913D02*
X019900Y022413D01*
X021500Y022913D02*
X021500Y019913D01*
X019000Y017413D01*
X019000Y010248D01*
X019665Y010248D01*
X020000Y009913D01*
X020000Y008913D01*
X020250Y008663D01*
X022750Y008663D01*
X023000Y008413D01*
X023000Y007163D01*
X023250Y006913D01*
X031000Y006913D01*
X031125Y006788D01*
X031500Y006413D01*
X031500Y004913D01*
X032000Y005413D02*
X032000Y006913D01*
X031500Y007413D01*
X024250Y007413D01*
X024000Y007663D01*
X024000Y008913D01*
X023750Y009163D01*
X022250Y009163D01*
X022000Y009413D01*
X022000Y009913D01*
X021665Y010248D01*
X021000Y010248D01*
X021000Y017413D01*
X023500Y019913D01*
X022500Y019913D02*
X022500Y021413D01*
X024427Y021913D02*
X024750Y021913D01*
X022500Y019913D02*
X020000Y017413D01*
X020000Y016913D01*
X019677Y016913D01*
X020000Y016913D02*
X020323Y016913D01*
X015000Y016913D02*
X015000Y008913D01*
X014500Y008413D01*
X013500Y007913D02*
X013500Y006663D01*
X013250Y006413D01*
X008750Y006413D01*
X007750Y005413D01*
X006750Y005413D02*
X006750Y004913D01*
X003890Y004913D01*
X003890Y004133D01*
X003890Y004913D02*
X003890Y006693D01*
X005750Y006413D02*
X005750Y005413D01*
X006750Y004913D02*
X008500Y004913D01*
X009500Y005913D01*
X010500Y005913D01*
X014250Y005913D01*
X014750Y005413D01*
X019000Y005413D01*
X019500Y004913D01*
X019750Y005413D02*
X019500Y005663D01*
X019500Y007913D01*
X019250Y008413D02*
X022250Y008413D01*
X022500Y008163D01*
X022500Y007913D01*
X023500Y007913D02*
X023500Y008663D01*
X023250Y008913D01*
X021250Y008913D01*
X021000Y009163D01*
X021000Y009578D01*
X019000Y009578D02*
X019000Y008663D01*
X019250Y008413D01*
X018500Y007913D02*
X018500Y006998D01*
X018585Y006913D01*
X017915Y006913D02*
X015000Y006913D01*
X014500Y006413D01*
X011500Y006913D02*
X011500Y007913D01*
X011500Y011913D01*
X010500Y011413D02*
X010500Y007913D01*
X008500Y007913D02*
X008500Y008913D01*
X006000Y006663D02*
X011250Y006663D01*
X011500Y006913D01*
X014500Y004413D02*
X022000Y004413D01*
X019750Y005413D02*
X025665Y005413D01*
X026335Y005413D02*
X028000Y005413D01*
X028500Y004913D01*
X029500Y004913D02*
X029500Y005413D01*
X029000Y005913D01*
X023585Y005913D01*
X022915Y005913D02*
X021000Y005913D01*
X020500Y006413D01*
X020500Y007913D01*
X021500Y007913D02*
X021500Y006913D01*
X022000Y006413D01*
X024665Y006413D01*
X025335Y006413D02*
X030000Y006413D01*
X030500Y005913D01*
X030500Y004913D01*
X035500Y008913D02*
X037500Y008913D01*
X038000Y008413D01*
X039000Y008413D01*
X039500Y008913D01*
X039000Y009413D02*
X039500Y009913D01*
X039000Y010413D02*
X039500Y010913D01*
X039000Y011413D02*
X039500Y011913D01*
X039000Y011413D02*
X037000Y011413D01*
X036000Y010413D01*
X026000Y010413D01*
X026500Y009913D02*
X036000Y009913D01*
X036500Y010413D02*
X039000Y010413D01*
X039000Y009413D02*
X035500Y009413D01*
X036000Y010913D02*
X025500Y010913D01*
X031000Y014913D02*
X031500Y014413D01*
X033000Y014413D01*
X033500Y014913D01*
X035500Y011913D02*
X038000Y014413D01*
X039000Y014413D01*
X039500Y014913D01*
X039500Y013913D02*
X039000Y013413D01*
X038000Y013413D02*
X036000Y011413D01*
X035500Y011413D01*
X036000Y010913D02*
X037500Y012413D01*
X039000Y012413D01*
X039500Y012913D01*
X014500Y013913D02*
X014500Y015413D01*
X011555Y020224D02*
X011555Y020468D01*
X011750Y020663D01*
X015000Y020663D01*
X010750Y020663D02*
X010750Y020285D01*
X010689Y020224D01*
X006000Y006663D02*
X005750Y006413D01*
D32*
X009500Y007913D02*
X009500Y009413D01*
X012500Y007913D02*
X013000Y008413D01*
X014500Y008413D01*
X024000Y009413D02*
X025500Y010913D01*
X026000Y010413D02*
X024500Y008913D01*
X025000Y008413D02*
X026500Y009913D01*
X027500Y009413D02*
X027500Y007913D01*
X026500Y007913D02*
X026500Y008913D01*
X032000Y005413D02*
X032500Y004913D01*
X036000Y009913D02*
X036500Y010413D01*
X038000Y013413D02*
X039000Y013413D01*
X032500Y014913D02*
X032000Y015413D01*
X020250Y022413D02*
X019900Y022413D01*
X016500Y023413D02*
X015400Y023413D01*
M02*
