G75*
G70*
%OFA0B0*%
%FSLAX24Y24*%
%IPPOS*%
%LPD*%
%AMOC8*
5,1,8,0,0,1.08239X$1,22.5*
%
%ADD10C,0.0000*%
%ADD11C,0.0740*%
%ADD12R,0.0740X0.0740*%
%ADD13OC8,0.0740*%
%ADD14C,0.0560*%
%ADD15C,0.1660*%
%ADD16C,0.1502*%
%ADD17C,0.0705*%
%ADD18C,0.0600*%
%ADD19R,0.1095X0.1095*%
%ADD20C,0.0660*%
%ADD21OC8,0.0356*%
%ADD22C,0.0240*%
%ADD23C,0.0080*%
%ADD24C,0.0100*%
D10*
X000500Y000100D02*
X000500Y022096D01*
X039870Y022096D01*
X039870Y000100D01*
X000500Y000100D01*
X011291Y001600D02*
X011293Y001653D01*
X011299Y001706D01*
X011309Y001758D01*
X011322Y001809D01*
X011340Y001859D01*
X011361Y001908D01*
X011386Y001955D01*
X011414Y001999D01*
X011446Y002042D01*
X011480Y002082D01*
X011518Y002120D01*
X011558Y002154D01*
X011601Y002186D01*
X011646Y002214D01*
X011692Y002239D01*
X011741Y002260D01*
X011791Y002278D01*
X011842Y002291D01*
X011894Y002301D01*
X011947Y002307D01*
X012000Y002309D01*
X012053Y002307D01*
X012106Y002301D01*
X012158Y002291D01*
X012209Y002278D01*
X012259Y002260D01*
X012308Y002239D01*
X012355Y002214D01*
X012399Y002186D01*
X012442Y002154D01*
X012482Y002120D01*
X012520Y002082D01*
X012554Y002042D01*
X012586Y001999D01*
X012614Y001954D01*
X012639Y001908D01*
X012660Y001859D01*
X012678Y001809D01*
X012691Y001758D01*
X012701Y001706D01*
X012707Y001653D01*
X012709Y001600D01*
X012707Y001547D01*
X012701Y001494D01*
X012691Y001442D01*
X012678Y001391D01*
X012660Y001341D01*
X012639Y001292D01*
X012614Y001245D01*
X012586Y001201D01*
X012554Y001158D01*
X012520Y001118D01*
X012482Y001080D01*
X012442Y001046D01*
X012399Y001014D01*
X012354Y000986D01*
X012308Y000961D01*
X012259Y000940D01*
X012209Y000922D01*
X012158Y000909D01*
X012106Y000899D01*
X012053Y000893D01*
X012000Y000891D01*
X011947Y000893D01*
X011894Y000899D01*
X011842Y000909D01*
X011791Y000922D01*
X011741Y000940D01*
X011692Y000961D01*
X011645Y000986D01*
X011601Y001014D01*
X011558Y001046D01*
X011518Y001080D01*
X011480Y001118D01*
X011446Y001158D01*
X011414Y001201D01*
X011386Y001246D01*
X011361Y001292D01*
X011340Y001341D01*
X011322Y001391D01*
X011309Y001442D01*
X011299Y001494D01*
X011293Y001547D01*
X011291Y001600D01*
X031791Y003600D02*
X031793Y003653D01*
X031799Y003706D01*
X031809Y003758D01*
X031822Y003809D01*
X031840Y003859D01*
X031861Y003908D01*
X031886Y003955D01*
X031914Y003999D01*
X031946Y004042D01*
X031980Y004082D01*
X032018Y004120D01*
X032058Y004154D01*
X032101Y004186D01*
X032146Y004214D01*
X032192Y004239D01*
X032241Y004260D01*
X032291Y004278D01*
X032342Y004291D01*
X032394Y004301D01*
X032447Y004307D01*
X032500Y004309D01*
X032553Y004307D01*
X032606Y004301D01*
X032658Y004291D01*
X032709Y004278D01*
X032759Y004260D01*
X032808Y004239D01*
X032855Y004214D01*
X032899Y004186D01*
X032942Y004154D01*
X032982Y004120D01*
X033020Y004082D01*
X033054Y004042D01*
X033086Y003999D01*
X033114Y003954D01*
X033139Y003908D01*
X033160Y003859D01*
X033178Y003809D01*
X033191Y003758D01*
X033201Y003706D01*
X033207Y003653D01*
X033209Y003600D01*
X033207Y003547D01*
X033201Y003494D01*
X033191Y003442D01*
X033178Y003391D01*
X033160Y003341D01*
X033139Y003292D01*
X033114Y003245D01*
X033086Y003201D01*
X033054Y003158D01*
X033020Y003118D01*
X032982Y003080D01*
X032942Y003046D01*
X032899Y003014D01*
X032854Y002986D01*
X032808Y002961D01*
X032759Y002940D01*
X032709Y002922D01*
X032658Y002909D01*
X032606Y002899D01*
X032553Y002893D01*
X032500Y002891D01*
X032447Y002893D01*
X032394Y002899D01*
X032342Y002909D01*
X032291Y002922D01*
X032241Y002940D01*
X032192Y002961D01*
X032145Y002986D01*
X032101Y003014D01*
X032058Y003046D01*
X032018Y003080D01*
X031980Y003118D01*
X031946Y003158D01*
X031914Y003201D01*
X031886Y003246D01*
X031861Y003292D01*
X031840Y003341D01*
X031822Y003391D01*
X031809Y003442D01*
X031799Y003494D01*
X031793Y003547D01*
X031791Y003600D01*
X031791Y014600D02*
X031793Y014653D01*
X031799Y014706D01*
X031809Y014758D01*
X031822Y014809D01*
X031840Y014859D01*
X031861Y014908D01*
X031886Y014955D01*
X031914Y014999D01*
X031946Y015042D01*
X031980Y015082D01*
X032018Y015120D01*
X032058Y015154D01*
X032101Y015186D01*
X032146Y015214D01*
X032192Y015239D01*
X032241Y015260D01*
X032291Y015278D01*
X032342Y015291D01*
X032394Y015301D01*
X032447Y015307D01*
X032500Y015309D01*
X032553Y015307D01*
X032606Y015301D01*
X032658Y015291D01*
X032709Y015278D01*
X032759Y015260D01*
X032808Y015239D01*
X032855Y015214D01*
X032899Y015186D01*
X032942Y015154D01*
X032982Y015120D01*
X033020Y015082D01*
X033054Y015042D01*
X033086Y014999D01*
X033114Y014954D01*
X033139Y014908D01*
X033160Y014859D01*
X033178Y014809D01*
X033191Y014758D01*
X033201Y014706D01*
X033207Y014653D01*
X033209Y014600D01*
X033207Y014547D01*
X033201Y014494D01*
X033191Y014442D01*
X033178Y014391D01*
X033160Y014341D01*
X033139Y014292D01*
X033114Y014245D01*
X033086Y014201D01*
X033054Y014158D01*
X033020Y014118D01*
X032982Y014080D01*
X032942Y014046D01*
X032899Y014014D01*
X032854Y013986D01*
X032808Y013961D01*
X032759Y013940D01*
X032709Y013922D01*
X032658Y013909D01*
X032606Y013899D01*
X032553Y013893D01*
X032500Y013891D01*
X032447Y013893D01*
X032394Y013899D01*
X032342Y013909D01*
X032291Y013922D01*
X032241Y013940D01*
X032192Y013961D01*
X032145Y013986D01*
X032101Y014014D01*
X032058Y014046D01*
X032018Y014080D01*
X031980Y014118D01*
X031946Y014158D01*
X031914Y014201D01*
X031886Y014246D01*
X031861Y014292D01*
X031840Y014341D01*
X031822Y014391D01*
X031809Y014442D01*
X031799Y014494D01*
X031793Y014547D01*
X031791Y014600D01*
X011791Y020600D02*
X011793Y020653D01*
X011799Y020706D01*
X011809Y020758D01*
X011822Y020809D01*
X011840Y020859D01*
X011861Y020908D01*
X011886Y020955D01*
X011914Y020999D01*
X011946Y021042D01*
X011980Y021082D01*
X012018Y021120D01*
X012058Y021154D01*
X012101Y021186D01*
X012146Y021214D01*
X012192Y021239D01*
X012241Y021260D01*
X012291Y021278D01*
X012342Y021291D01*
X012394Y021301D01*
X012447Y021307D01*
X012500Y021309D01*
X012553Y021307D01*
X012606Y021301D01*
X012658Y021291D01*
X012709Y021278D01*
X012759Y021260D01*
X012808Y021239D01*
X012855Y021214D01*
X012899Y021186D01*
X012942Y021154D01*
X012982Y021120D01*
X013020Y021082D01*
X013054Y021042D01*
X013086Y020999D01*
X013114Y020954D01*
X013139Y020908D01*
X013160Y020859D01*
X013178Y020809D01*
X013191Y020758D01*
X013201Y020706D01*
X013207Y020653D01*
X013209Y020600D01*
X013207Y020547D01*
X013201Y020494D01*
X013191Y020442D01*
X013178Y020391D01*
X013160Y020341D01*
X013139Y020292D01*
X013114Y020245D01*
X013086Y020201D01*
X013054Y020158D01*
X013020Y020118D01*
X012982Y020080D01*
X012942Y020046D01*
X012899Y020014D01*
X012854Y019986D01*
X012808Y019961D01*
X012759Y019940D01*
X012709Y019922D01*
X012658Y019909D01*
X012606Y019899D01*
X012553Y019893D01*
X012500Y019891D01*
X012447Y019893D01*
X012394Y019899D01*
X012342Y019909D01*
X012291Y019922D01*
X012241Y019940D01*
X012192Y019961D01*
X012145Y019986D01*
X012101Y020014D01*
X012058Y020046D01*
X012018Y020080D01*
X011980Y020118D01*
X011946Y020158D01*
X011914Y020201D01*
X011886Y020246D01*
X011861Y020292D01*
X011840Y020341D01*
X011822Y020391D01*
X011809Y020442D01*
X011799Y020494D01*
X011793Y020547D01*
X011791Y020600D01*
D11*
X013900Y020600D03*
X014900Y020600D03*
X015900Y020600D03*
X016900Y020600D03*
X017900Y020600D03*
X018900Y020600D03*
X019900Y020600D03*
X020900Y020600D03*
X021900Y020600D03*
X022900Y020600D03*
X024500Y020600D03*
X025500Y020600D03*
X026500Y020600D03*
X027500Y020600D03*
X028500Y020600D03*
X029500Y020600D03*
X030500Y020600D03*
X029500Y010600D03*
X028500Y010600D03*
X027500Y010600D03*
X026500Y010600D03*
X025500Y010600D03*
X024500Y010600D03*
X023500Y010600D03*
X022500Y010600D03*
X021500Y010600D03*
X020500Y010600D03*
X019500Y010600D03*
X018500Y010600D03*
X017500Y010600D03*
X016500Y010600D03*
X015500Y010600D03*
X014500Y010600D03*
X013500Y010600D03*
X012500Y010600D03*
X011500Y010600D03*
X010500Y010600D03*
X009500Y010600D03*
X008500Y010600D03*
X007500Y010600D03*
X006500Y010600D03*
X002500Y010100D03*
X002500Y009100D03*
X002500Y011100D03*
X002250Y005850D03*
X003250Y005850D03*
X006500Y004600D03*
X007500Y004600D03*
X008500Y004600D03*
X009500Y004600D03*
X010500Y004600D03*
X011500Y004600D03*
X012500Y004600D03*
X013500Y004600D03*
X014500Y004600D03*
X015500Y004600D03*
X016500Y004600D03*
X017500Y004600D03*
X018500Y004600D03*
X019500Y004600D03*
X020500Y004600D03*
X021500Y004600D03*
X022500Y004600D03*
X023500Y004600D03*
X024500Y004600D03*
X025500Y004600D03*
X026500Y004600D03*
X027500Y004600D03*
X028500Y004600D03*
X029500Y004600D03*
X029500Y001600D03*
X030500Y001600D03*
X031500Y001600D03*
X028500Y001600D03*
X027500Y001600D03*
X026500Y001600D03*
X022500Y001600D03*
X021500Y001600D03*
X020500Y001600D03*
X019500Y001600D03*
X018500Y001600D03*
X017500Y001600D03*
X016500Y001600D03*
X015000Y001600D03*
X015000Y002600D03*
X006750Y002100D03*
X005750Y002100D03*
X004750Y002100D03*
X002890Y003380D03*
X001110Y003380D03*
X001110Y000820D03*
X002890Y000820D03*
D12*
X023500Y001600D03*
X031500Y020600D03*
D13*
X031500Y012600D03*
X032500Y012600D03*
X032500Y011600D03*
X031500Y011600D03*
X031500Y010600D03*
X032500Y010600D03*
D14*
X009894Y019100D03*
X009106Y019100D03*
D15*
X005854Y019600D03*
D16*
X003394Y019600D03*
X004732Y017710D03*
D17*
X003603Y015584D02*
X002898Y015584D01*
X002898Y013616D02*
X003603Y013616D01*
D18*
X012700Y013600D02*
X013300Y013600D01*
X013300Y014600D02*
X012700Y014600D01*
X012700Y015600D02*
X013300Y015600D01*
D19*
G36*
X034412Y019665D02*
X033639Y020438D01*
X034412Y021211D01*
X035185Y020438D01*
X034412Y019665D01*
G37*
G36*
X038088Y015989D02*
X037315Y016762D01*
X038088Y017535D01*
X038861Y016762D01*
X038088Y015989D01*
G37*
D20*
X038500Y014600D03*
X037500Y014600D03*
X037500Y013600D03*
X038500Y013600D03*
X038500Y012600D03*
X037500Y012600D03*
X037500Y011600D03*
X038500Y011600D03*
X038500Y010600D03*
X037500Y010600D03*
X037500Y009600D03*
X038500Y009600D03*
X038500Y008600D03*
X037500Y008600D03*
X037500Y007600D03*
X038500Y007600D03*
X038500Y006600D03*
X037500Y006600D03*
X037500Y005600D03*
X038500Y005600D03*
X038500Y004600D03*
X037500Y004600D03*
X037500Y003600D03*
X038500Y003600D03*
X038500Y002600D03*
X037500Y002600D03*
D21*
X035500Y002100D03*
X033500Y003100D03*
X035500Y004100D03*
X034500Y005600D03*
X034500Y006100D03*
X031250Y004100D03*
X026500Y006100D03*
X025500Y005600D03*
X024000Y005100D03*
X023500Y005600D03*
X023000Y006100D03*
X018000Y004100D03*
X014000Y002850D03*
X013500Y003100D03*
X013000Y002100D03*
X014000Y001600D03*
X013500Y001100D03*
X009500Y002100D03*
X009000Y001350D03*
X008000Y000600D03*
X005000Y004600D03*
X007500Y005600D03*
X008500Y006100D03*
X007250Y007100D03*
X008250Y007600D03*
X009500Y008100D03*
X010500Y008600D03*
X009000Y008850D03*
X005500Y008600D03*
X001500Y008100D03*
X006500Y012600D03*
X007500Y013600D03*
X006000Y014600D03*
X010500Y014600D03*
X014500Y013100D03*
X015500Y013600D03*
X015000Y014100D03*
X013500Y012100D03*
X015000Y016600D03*
X018000Y017100D03*
X019000Y017600D03*
X020000Y016600D03*
X021500Y018350D03*
X022500Y019100D03*
X023750Y018850D03*
X015500Y019100D03*
X014500Y018600D03*
X012000Y019600D03*
X011000Y021600D03*
X007500Y018100D03*
X029750Y011600D03*
X030250Y014100D03*
X033000Y016600D03*
X032000Y017100D03*
X032500Y017600D03*
X038500Y015600D03*
X039000Y014100D03*
X036500Y013100D03*
X036500Y012100D03*
X036500Y011100D03*
X039000Y012100D03*
X034500Y008600D03*
X034500Y008100D03*
X025000Y001600D03*
X021000Y001100D03*
X032750Y001350D03*
X034500Y000600D03*
D22*
X034500Y001600D01*
X034500Y004600D01*
X033500Y005600D01*
X028000Y005600D01*
X027500Y005100D01*
X027500Y004600D01*
X029500Y004600D02*
X033500Y004600D01*
X034000Y004100D01*
X034000Y001100D01*
X033500Y000600D01*
X023500Y000600D01*
X023500Y001600D01*
X024110Y001531D02*
X025890Y001531D01*
X025890Y001479D02*
X025983Y001254D01*
X026154Y001083D01*
X026379Y000990D01*
X026621Y000990D01*
X026846Y001083D01*
X027000Y001237D01*
X027154Y001083D01*
X027379Y000990D01*
X027621Y000990D01*
X027846Y001083D01*
X028000Y001237D01*
X028154Y001083D01*
X028379Y000990D01*
X028621Y000990D01*
X028846Y001083D01*
X029000Y001237D01*
X029154Y001083D01*
X029379Y000990D01*
X029621Y000990D01*
X029846Y001083D01*
X030000Y001237D01*
X030154Y001083D01*
X030379Y000990D01*
X030621Y000990D01*
X030846Y001083D01*
X031000Y001237D01*
X031154Y001083D01*
X031379Y000990D01*
X031621Y000990D01*
X031846Y001083D01*
X032017Y001254D01*
X032110Y001479D01*
X032110Y001721D01*
X032017Y001946D01*
X031846Y002117D01*
X031621Y002210D01*
X031379Y002210D01*
X031323Y002187D01*
X031280Y002230D01*
X031280Y003656D01*
X031237Y003759D01*
X030756Y004240D01*
X031798Y004240D01*
X031696Y004137D01*
X031551Y003789D01*
X031551Y003411D01*
X031696Y003063D01*
X031963Y002796D01*
X032311Y002651D01*
X032689Y002651D01*
X033037Y002796D01*
X033304Y003063D01*
X033449Y003411D01*
X033449Y003789D01*
X033304Y004137D01*
X033202Y004240D01*
X033351Y004240D01*
X033640Y003951D01*
X033640Y001249D01*
X033351Y000960D01*
X023860Y000960D01*
X023860Y000990D01*
X023918Y000990D01*
X024006Y001027D01*
X024073Y001094D01*
X024110Y001182D01*
X024110Y001820D01*
X025931Y001820D01*
X025890Y001721D01*
X025890Y001479D01*
X025967Y001293D02*
X024110Y001293D01*
X024033Y001054D02*
X026224Y001054D01*
X026776Y001054D02*
X027224Y001054D01*
X027776Y001054D02*
X028224Y001054D01*
X028776Y001054D02*
X029224Y001054D01*
X029776Y001054D02*
X030224Y001054D01*
X030776Y001054D02*
X031224Y001054D01*
X031776Y001054D02*
X033445Y001054D01*
X033640Y001293D02*
X032033Y001293D01*
X032110Y001531D02*
X033640Y001531D01*
X033640Y001770D02*
X032090Y001770D01*
X031955Y002008D02*
X033640Y002008D01*
X033640Y002247D02*
X031280Y002247D01*
X031280Y002485D02*
X033640Y002485D01*
X033640Y002724D02*
X032863Y002724D01*
X033204Y002962D02*
X033640Y002962D01*
X033640Y003201D02*
X033361Y003201D01*
X033449Y003439D02*
X033640Y003439D01*
X033640Y003678D02*
X033449Y003678D01*
X033396Y003916D02*
X033640Y003916D01*
X033436Y004155D02*
X033287Y004155D01*
X034427Y005182D02*
X034673Y005182D01*
X034811Y005320D01*
X036384Y005320D01*
X036841Y004863D01*
X036944Y004820D01*
X036974Y004820D01*
X036930Y004713D01*
X036930Y004487D01*
X037017Y004277D01*
X037177Y004117D01*
X037218Y004100D01*
X037177Y004083D01*
X037017Y003923D01*
X036930Y003713D01*
X036930Y003487D01*
X037017Y003277D01*
X037177Y003117D01*
X037246Y003088D01*
X037212Y003070D01*
X037142Y003020D01*
X037080Y002958D01*
X037030Y002888D01*
X036990Y002811D01*
X036964Y002729D01*
X036950Y002643D01*
X036950Y002600D01*
X037500Y002600D01*
X038500Y002600D01*
X039050Y002600D01*
X039050Y002643D01*
X039036Y002729D01*
X039010Y002811D01*
X038970Y002888D01*
X038920Y002958D01*
X038858Y003020D01*
X038788Y003070D01*
X038754Y003088D01*
X038823Y003117D01*
X038983Y003277D01*
X039070Y003487D01*
X039070Y003713D01*
X038983Y003923D01*
X038823Y004083D01*
X038782Y004100D01*
X038823Y004117D01*
X038983Y004277D01*
X039070Y004487D01*
X039070Y004713D01*
X038983Y004923D01*
X038823Y005083D01*
X038782Y005100D01*
X038823Y005117D01*
X038983Y005277D01*
X039070Y005487D01*
X039070Y005713D01*
X038983Y005923D01*
X038823Y006083D01*
X038782Y006100D01*
X038823Y006117D01*
X038983Y006277D01*
X039070Y006487D01*
X039070Y006713D01*
X038983Y006923D01*
X038823Y007083D01*
X038782Y007100D01*
X038823Y007117D01*
X038983Y007277D01*
X039070Y007487D01*
X039070Y007713D01*
X038983Y007923D01*
X038823Y008083D01*
X038782Y008100D01*
X038823Y008117D01*
X038983Y008277D01*
X039070Y008487D01*
X039070Y008713D01*
X038983Y008923D01*
X038823Y009083D01*
X038782Y009100D01*
X038823Y009117D01*
X038983Y009277D01*
X039070Y009487D01*
X039070Y009713D01*
X038983Y009923D01*
X038823Y010083D01*
X038782Y010100D01*
X038823Y010117D01*
X039140Y010117D01*
X038983Y010277D02*
X039070Y010487D01*
X039070Y010713D01*
X038983Y010923D01*
X038823Y011083D01*
X038782Y011100D01*
X038823Y011117D01*
X038983Y011277D01*
X039070Y011487D01*
X039070Y011713D01*
X038983Y011923D01*
X038823Y012083D01*
X038782Y012100D01*
X038823Y012117D01*
X038983Y012277D01*
X039070Y012487D01*
X039070Y012713D01*
X038983Y012923D01*
X038823Y013083D01*
X038782Y013100D01*
X038823Y013117D01*
X038983Y013277D01*
X039070Y013487D01*
X039070Y013713D01*
X038983Y013923D01*
X038823Y014083D01*
X038782Y014100D01*
X038823Y014117D01*
X038946Y014240D01*
X039140Y014240D01*
X039140Y002249D01*
X038851Y001960D01*
X034860Y001960D01*
X034860Y004672D01*
X034805Y004804D01*
X034427Y005182D01*
X034501Y005109D02*
X036596Y005109D01*
X036834Y004870D02*
X034739Y004870D01*
X034860Y004632D02*
X036930Y004632D01*
X036969Y004393D02*
X034860Y004393D01*
X034860Y004155D02*
X037139Y004155D01*
X037014Y003916D02*
X034860Y003916D01*
X034860Y003678D02*
X036930Y003678D01*
X036950Y003439D02*
X034860Y003439D01*
X034860Y003201D02*
X037093Y003201D01*
X037084Y002962D02*
X034860Y002962D01*
X034860Y002724D02*
X036963Y002724D01*
X036950Y002600D02*
X036950Y002557D01*
X036964Y002471D01*
X036990Y002389D01*
X037030Y002312D01*
X037080Y002242D01*
X037142Y002180D01*
X037212Y002130D01*
X037289Y002090D01*
X037371Y002064D01*
X037457Y002050D01*
X037500Y002050D01*
X037543Y002050D01*
X037629Y002064D01*
X037711Y002090D01*
X037788Y002130D01*
X037858Y002180D01*
X037920Y002242D01*
X037970Y002312D01*
X038000Y002370D01*
X038030Y002312D01*
X038080Y002242D01*
X038142Y002180D01*
X038212Y002130D01*
X038289Y002090D01*
X038371Y002064D01*
X038457Y002050D01*
X038500Y002050D01*
X038543Y002050D01*
X038629Y002064D01*
X038711Y002090D01*
X038788Y002130D01*
X038858Y002180D01*
X038920Y002242D01*
X038970Y002312D01*
X039010Y002389D01*
X039036Y002471D01*
X039050Y002557D01*
X039050Y002600D01*
X038500Y002600D01*
X038500Y002600D01*
X038500Y002600D01*
X038500Y002050D01*
X038500Y002600D01*
X038500Y002600D01*
X037950Y002600D01*
X037500Y002600D01*
X037500Y002600D01*
X037500Y002050D01*
X037500Y002600D01*
X037500Y002600D01*
X037500Y002600D01*
X036950Y002600D01*
X036961Y002485D02*
X034860Y002485D01*
X034860Y002247D02*
X037077Y002247D01*
X037500Y002247D02*
X037500Y002247D01*
X037500Y002485D02*
X037500Y002485D01*
X037923Y002247D02*
X038077Y002247D01*
X038500Y002247D02*
X038500Y002247D01*
X038500Y002485D02*
X038500Y002485D01*
X038923Y002247D02*
X039137Y002247D01*
X039140Y002485D02*
X039039Y002485D01*
X039037Y002724D02*
X039140Y002724D01*
X039140Y002962D02*
X038916Y002962D01*
X038907Y003201D02*
X039140Y003201D01*
X039140Y003439D02*
X039050Y003439D01*
X039070Y003678D02*
X039140Y003678D01*
X039140Y003916D02*
X038986Y003916D01*
X038861Y004155D02*
X039140Y004155D01*
X039140Y004393D02*
X039031Y004393D01*
X039070Y004632D02*
X039140Y004632D01*
X039140Y004870D02*
X039005Y004870D01*
X039140Y005109D02*
X038803Y005109D01*
X039012Y005347D02*
X039140Y005347D01*
X039140Y005586D02*
X039070Y005586D01*
X039024Y005824D02*
X039140Y005824D01*
X039140Y006063D02*
X038844Y006063D01*
X038993Y006301D02*
X039140Y006301D01*
X039140Y006540D02*
X039070Y006540D01*
X039043Y006778D02*
X039140Y006778D01*
X039140Y007017D02*
X038890Y007017D01*
X038961Y007255D02*
X039140Y007255D01*
X039140Y007494D02*
X039070Y007494D01*
X039062Y007732D02*
X039140Y007732D01*
X039140Y007971D02*
X038936Y007971D01*
X038915Y008209D02*
X039140Y008209D01*
X039140Y008448D02*
X039054Y008448D01*
X039070Y008686D02*
X039140Y008686D01*
X039140Y008925D02*
X038982Y008925D01*
X038869Y009163D02*
X039140Y009163D01*
X039140Y009402D02*
X039035Y009402D01*
X039070Y009640D02*
X039140Y009640D01*
X039140Y009879D02*
X039002Y009879D01*
X038823Y010117D02*
X038983Y010277D01*
X039016Y010356D02*
X039140Y010356D01*
X039140Y010594D02*
X039070Y010594D01*
X039021Y010833D02*
X039140Y010833D01*
X039140Y011071D02*
X038835Y011071D01*
X038997Y011310D02*
X039140Y011310D01*
X039140Y011548D02*
X039070Y011548D01*
X039040Y011787D02*
X039140Y011787D01*
X039140Y012025D02*
X038881Y012025D01*
X038970Y012264D02*
X039140Y012264D01*
X039140Y012502D02*
X039070Y012502D01*
X039059Y012741D02*
X039140Y012741D01*
X039140Y012979D02*
X038927Y012979D01*
X038924Y013218D02*
X039140Y013218D01*
X039140Y013456D02*
X039057Y013456D01*
X039070Y013695D02*
X039140Y013695D01*
X039140Y013933D02*
X038973Y013933D01*
X038878Y014172D02*
X039140Y014172D01*
X039500Y014600D02*
X038500Y014600D01*
X037500Y014600D01*
X037279Y015126D02*
X034280Y015126D01*
X034280Y015364D02*
X039140Y015364D01*
X039140Y015126D02*
X038721Y015126D01*
X038823Y015083D02*
X038613Y015170D01*
X038387Y015170D01*
X038177Y015083D01*
X038054Y014960D01*
X037946Y014960D01*
X037823Y015083D01*
X037613Y015170D01*
X037387Y015170D01*
X037177Y015083D01*
X037017Y014923D01*
X036930Y014713D01*
X036930Y014487D01*
X037017Y014277D01*
X037177Y014117D01*
X037218Y014100D01*
X037177Y014083D01*
X037017Y013923D01*
X036930Y013713D01*
X036930Y013487D01*
X037017Y013277D01*
X037177Y013117D01*
X037218Y013100D01*
X037177Y013083D01*
X037017Y012923D01*
X036930Y012713D01*
X036930Y012487D01*
X037017Y012277D01*
X037177Y012117D01*
X037218Y012100D01*
X037177Y012083D01*
X037017Y011923D01*
X036930Y011713D01*
X036930Y011487D01*
X036974Y011380D01*
X036944Y011380D01*
X036841Y011337D01*
X034522Y009018D01*
X034327Y009018D01*
X034082Y008773D01*
X034082Y008427D01*
X034159Y008350D01*
X034082Y008273D01*
X034082Y007927D01*
X034129Y007880D01*
X024582Y007880D01*
X024558Y007890D01*
X024442Y007890D01*
X024336Y007846D01*
X023008Y006518D01*
X022827Y006518D01*
X022582Y006273D01*
X022582Y005927D01*
X022827Y005682D01*
X023082Y005682D01*
X023082Y005427D01*
X023322Y005187D01*
X023154Y005117D01*
X023000Y004963D01*
X022846Y005117D01*
X022780Y005144D01*
X022780Y005656D01*
X022737Y005759D01*
X022237Y006259D01*
X022159Y006337D01*
X022056Y006380D01*
X020616Y006380D01*
X020280Y006716D01*
X020280Y010031D01*
X020379Y009990D01*
X020621Y009990D01*
X020846Y010083D01*
X021000Y010237D01*
X021154Y010083D01*
X021379Y009990D01*
X021621Y009990D01*
X021846Y010083D01*
X022000Y010237D01*
X022154Y010083D01*
X022379Y009990D01*
X022621Y009990D01*
X022846Y010083D01*
X023000Y010237D01*
X023154Y010083D01*
X023379Y009990D01*
X023621Y009990D01*
X023846Y010083D01*
X024000Y010237D01*
X024154Y010083D01*
X024379Y009990D01*
X024621Y009990D01*
X024846Y010083D01*
X025000Y010237D01*
X025154Y010083D01*
X025379Y009990D01*
X025621Y009990D01*
X025846Y010083D01*
X026000Y010237D01*
X026154Y010083D01*
X026379Y009990D01*
X026621Y009990D01*
X026846Y010083D01*
X027000Y010237D01*
X027154Y010083D01*
X027379Y009990D01*
X027621Y009990D01*
X027846Y010083D01*
X028000Y010237D01*
X028154Y010083D01*
X028379Y009990D01*
X028621Y009990D01*
X028846Y010083D01*
X029017Y010254D01*
X029019Y010259D01*
X029050Y010216D01*
X029116Y010150D01*
X029191Y010095D01*
X029274Y010053D01*
X029362Y010025D01*
X029454Y010010D01*
X029500Y010010D01*
X029546Y010010D01*
X029638Y010025D01*
X029726Y010053D01*
X029809Y010095D01*
X029884Y010150D01*
X029950Y010216D01*
X030005Y010291D01*
X030047Y010374D01*
X030075Y010462D01*
X030090Y010554D01*
X030090Y010600D01*
X030090Y010646D01*
X030075Y010738D01*
X030047Y010826D01*
X030005Y010909D01*
X029950Y010984D01*
X029884Y011050D01*
X029809Y011105D01*
X029726Y011147D01*
X029638Y011175D01*
X029546Y011190D01*
X029500Y011190D01*
X029500Y010600D01*
X029500Y010600D01*
X030090Y010600D01*
X029500Y010600D01*
X029500Y010600D01*
X029500Y011190D01*
X029454Y011190D01*
X029362Y011175D01*
X029274Y011147D01*
X029191Y011105D01*
X029116Y011050D01*
X029050Y010984D01*
X029019Y010941D01*
X029017Y010946D01*
X028846Y011117D01*
X028780Y011144D01*
X028780Y013470D01*
X030720Y015410D01*
X030720Y012182D01*
X030710Y012158D01*
X030710Y012042D01*
X030754Y011936D01*
X030890Y011800D01*
X030890Y011347D01*
X031137Y011100D01*
X030890Y010853D01*
X030890Y010347D01*
X031247Y009990D01*
X031753Y009990D01*
X032014Y010251D01*
X032256Y010010D01*
X032500Y010010D01*
X032744Y010010D01*
X033090Y010356D01*
X033090Y010600D01*
X033090Y010844D01*
X032849Y011086D01*
X033083Y011320D01*
X033556Y011320D01*
X033659Y011363D01*
X033737Y011441D01*
X034237Y011941D01*
X034280Y012044D01*
X034280Y016156D01*
X034237Y016259D01*
X034159Y016337D01*
X033659Y016837D01*
X033556Y016880D01*
X033311Y016880D01*
X033173Y017018D01*
X032827Y017018D01*
X032790Y016981D01*
X032790Y017299D01*
X032918Y017427D01*
X032918Y017773D01*
X032673Y018018D01*
X032327Y018018D01*
X032082Y017773D01*
X032082Y017518D01*
X031827Y017518D01*
X031780Y017471D01*
X031780Y019990D01*
X031918Y019990D01*
X032006Y020027D01*
X032073Y020094D01*
X032110Y020182D01*
X032110Y021018D01*
X032073Y021106D01*
X032006Y021173D01*
X031918Y021210D01*
X031082Y021210D01*
X030994Y021173D01*
X030927Y021106D01*
X030906Y021057D01*
X030846Y021117D01*
X030621Y021210D01*
X030379Y021210D01*
X030154Y021117D01*
X030000Y020963D01*
X029846Y021117D01*
X029621Y021210D01*
X029379Y021210D01*
X029154Y021117D01*
X029000Y020963D01*
X028846Y021117D01*
X028621Y021210D01*
X028379Y021210D01*
X028154Y021117D01*
X028000Y020963D01*
X027846Y021117D01*
X027621Y021210D01*
X027379Y021210D01*
X027154Y021117D01*
X027000Y020963D01*
X026846Y021117D01*
X026621Y021210D01*
X026379Y021210D01*
X026154Y021117D01*
X026000Y020963D01*
X025846Y021117D01*
X025621Y021210D01*
X025379Y021210D01*
X025154Y021117D01*
X025000Y020963D01*
X024846Y021117D01*
X024621Y021210D01*
X024379Y021210D01*
X024154Y021117D01*
X023983Y020946D01*
X023890Y020721D01*
X023890Y020479D01*
X023983Y020254D01*
X024154Y020083D01*
X024220Y020056D01*
X024220Y016716D01*
X021341Y013837D01*
X021263Y013759D01*
X021220Y013656D01*
X021220Y011144D01*
X021154Y011117D01*
X021000Y010963D01*
X020846Y011117D01*
X020780Y011144D01*
X020780Y013984D01*
X023137Y016341D01*
X023180Y016444D01*
X023180Y020056D01*
X023246Y020083D01*
X023417Y020254D01*
X023510Y020479D01*
X023510Y020721D01*
X023417Y020946D01*
X023246Y021117D01*
X023021Y021210D01*
X022779Y021210D01*
X022554Y021117D01*
X022400Y020963D01*
X022246Y021117D01*
X022021Y021210D01*
X021779Y021210D01*
X021554Y021117D01*
X021400Y020963D01*
X021246Y021117D01*
X021021Y021210D01*
X020779Y021210D01*
X020554Y021117D01*
X020400Y020963D01*
X020246Y021117D01*
X020021Y021210D01*
X019779Y021210D01*
X019554Y021117D01*
X019400Y020963D01*
X019246Y021117D01*
X019021Y021210D01*
X018779Y021210D01*
X018554Y021117D01*
X018400Y020963D01*
X018246Y021117D01*
X018021Y021210D01*
X017779Y021210D01*
X017554Y021117D01*
X017383Y020946D01*
X017381Y020941D01*
X017350Y020984D01*
X017284Y021050D01*
X017209Y021105D01*
X017126Y021147D01*
X017038Y021175D01*
X016946Y021190D01*
X016900Y021190D01*
X016900Y020600D01*
X016900Y020600D01*
X016900Y020010D01*
X016946Y020010D01*
X017038Y020025D01*
X017126Y020053D01*
X017209Y020095D01*
X017284Y020150D01*
X017350Y020216D01*
X017381Y020259D01*
X017383Y020254D01*
X017554Y020083D01*
X017620Y020056D01*
X017620Y017311D01*
X017582Y017273D01*
X017582Y016927D01*
X017620Y016889D01*
X017620Y016616D01*
X015841Y014837D01*
X015763Y014759D01*
X015720Y014656D01*
X015720Y013971D01*
X015673Y014018D01*
X015418Y014018D01*
X015418Y014273D01*
X015244Y014448D01*
X016137Y015341D01*
X016180Y015444D01*
X016180Y015556D01*
X016180Y020056D01*
X016246Y020083D01*
X016417Y020254D01*
X016419Y020259D01*
X016450Y020216D01*
X016516Y020150D01*
X016591Y020095D01*
X016674Y020053D01*
X016762Y020025D01*
X016854Y020010D01*
X016900Y020010D01*
X016900Y020600D01*
X016900Y020600D01*
X016900Y021190D01*
X016854Y021190D01*
X016762Y021175D01*
X016674Y021147D01*
X016591Y021105D01*
X016516Y021050D01*
X016450Y020984D01*
X016419Y020941D01*
X016417Y020946D01*
X016246Y021117D01*
X016021Y021210D01*
X015779Y021210D01*
X015554Y021117D01*
X015400Y020963D01*
X015246Y021117D01*
X015021Y021210D01*
X014779Y021210D01*
X014554Y021117D01*
X014400Y020963D01*
X014246Y021117D01*
X014021Y021210D01*
X013779Y021210D01*
X013554Y021117D01*
X013383Y020946D01*
X013304Y021137D01*
X013202Y021240D01*
X034099Y021240D01*
X033434Y020574D01*
X033397Y020486D01*
X033397Y020391D01*
X033434Y020303D01*
X034276Y019461D01*
X034364Y019424D01*
X034459Y019424D01*
X034547Y019461D01*
X035389Y020303D01*
X035426Y020391D01*
X035426Y020486D01*
X035389Y020574D01*
X034724Y021240D01*
X038851Y021240D01*
X039140Y020951D01*
X039140Y014960D01*
X038946Y014960D01*
X038823Y015083D01*
X038279Y015126D02*
X037721Y015126D01*
X037002Y014887D02*
X034280Y014887D01*
X034280Y014649D02*
X036930Y014649D01*
X036962Y014410D02*
X034280Y014410D01*
X034280Y014172D02*
X037122Y014172D01*
X037027Y013933D02*
X034280Y013933D01*
X034280Y013695D02*
X036930Y013695D01*
X036943Y013456D02*
X034280Y013456D01*
X034280Y013218D02*
X037076Y013218D01*
X037073Y012979D02*
X034280Y012979D01*
X034280Y012741D02*
X036941Y012741D01*
X036930Y012502D02*
X034280Y012502D01*
X034280Y012264D02*
X037030Y012264D01*
X037119Y012025D02*
X034272Y012025D01*
X034082Y011787D02*
X036960Y011787D01*
X036930Y011548D02*
X033844Y011548D01*
X033072Y011310D02*
X036814Y011310D01*
X036575Y011071D02*
X032863Y011071D01*
X033090Y010833D02*
X036337Y010833D01*
X036098Y010594D02*
X033090Y010594D01*
X033090Y010600D02*
X032500Y010600D01*
X033090Y010600D01*
X033090Y010356D02*
X035860Y010356D01*
X035621Y010117D02*
X032851Y010117D01*
X032500Y010117D02*
X032500Y010117D01*
X032500Y010010D02*
X032500Y010600D01*
X032500Y010600D01*
X032500Y010010D01*
X032500Y010356D02*
X032500Y010356D01*
X032500Y010594D02*
X032500Y010594D01*
X032500Y010600D02*
X032500Y010600D01*
X032149Y010117D02*
X031880Y010117D01*
X031120Y010117D02*
X029839Y010117D01*
X030038Y010356D02*
X030890Y010356D01*
X030890Y010594D02*
X030090Y010594D01*
X030044Y010833D02*
X030890Y010833D01*
X031108Y011071D02*
X029855Y011071D01*
X029500Y011071D02*
X029500Y011071D01*
X029500Y010833D02*
X029500Y010833D01*
X029500Y010600D02*
X029500Y010010D01*
X029500Y010600D01*
X029500Y010600D01*
X029500Y010594D02*
X029500Y010594D01*
X029500Y010356D02*
X029500Y010356D01*
X029500Y010117D02*
X029500Y010117D01*
X029161Y010117D02*
X028880Y010117D01*
X028120Y010117D02*
X027880Y010117D01*
X027120Y010117D02*
X026880Y010117D01*
X026120Y010117D02*
X025880Y010117D01*
X025120Y010117D02*
X024880Y010117D01*
X024120Y010117D02*
X023880Y010117D01*
X023120Y010117D02*
X022880Y010117D01*
X022120Y010117D02*
X021880Y010117D01*
X021120Y010117D02*
X020880Y010117D01*
X020280Y009879D02*
X035383Y009879D01*
X035144Y009640D02*
X020280Y009640D01*
X020280Y009402D02*
X034906Y009402D01*
X034667Y009163D02*
X020280Y009163D01*
X020280Y008925D02*
X034233Y008925D01*
X034082Y008686D02*
X020280Y008686D01*
X020280Y008448D02*
X034082Y008448D01*
X034082Y008209D02*
X020280Y008209D01*
X020280Y007971D02*
X034082Y007971D01*
X029145Y011071D02*
X028892Y011071D01*
X028780Y011310D02*
X030928Y011310D01*
X030890Y011548D02*
X028780Y011548D01*
X028780Y011787D02*
X030890Y011787D01*
X030717Y012025D02*
X028780Y012025D01*
X028780Y012264D02*
X030720Y012264D01*
X030720Y012502D02*
X028780Y012502D01*
X028780Y012741D02*
X030720Y012741D01*
X030720Y012979D02*
X028780Y012979D01*
X028780Y013218D02*
X030720Y013218D01*
X030720Y013456D02*
X028780Y013456D01*
X029005Y013695D02*
X030720Y013695D01*
X030720Y013933D02*
X029243Y013933D01*
X029482Y014172D02*
X030720Y014172D01*
X030720Y014410D02*
X029720Y014410D01*
X029959Y014649D02*
X030720Y014649D01*
X030720Y014887D02*
X030197Y014887D01*
X030436Y015126D02*
X030720Y015126D01*
X030720Y015364D02*
X030674Y015364D01*
X033701Y016795D02*
X037074Y016795D01*
X037074Y016809D02*
X037074Y016714D01*
X037111Y016626D01*
X037953Y015784D01*
X038041Y015747D01*
X038136Y015747D01*
X038224Y015784D01*
X039066Y016626D01*
X039103Y016714D01*
X039103Y016809D01*
X039066Y016897D01*
X038224Y017739D01*
X038136Y017776D01*
X038041Y017776D01*
X037953Y017739D01*
X037111Y016897D01*
X037074Y016809D01*
X037180Y016557D02*
X033939Y016557D01*
X034178Y016318D02*
X037418Y016318D01*
X037657Y016080D02*
X034280Y016080D01*
X034280Y015841D02*
X037895Y015841D01*
X038282Y015841D02*
X039140Y015841D01*
X039140Y015603D02*
X034280Y015603D01*
X032790Y017034D02*
X037247Y017034D01*
X037485Y017272D02*
X032790Y017272D01*
X032918Y017511D02*
X037724Y017511D01*
X037976Y017749D02*
X032918Y017749D01*
X032704Y017988D02*
X039140Y017988D01*
X039140Y018226D02*
X031780Y018226D01*
X031780Y017988D02*
X032296Y017988D01*
X032082Y017749D02*
X031780Y017749D01*
X031780Y017511D02*
X031819Y017511D01*
X031780Y018465D02*
X039140Y018465D01*
X039140Y018703D02*
X031780Y018703D01*
X031780Y018942D02*
X039140Y018942D01*
X039140Y019180D02*
X031780Y019180D01*
X031780Y019419D02*
X039140Y019419D01*
X039140Y019657D02*
X034744Y019657D01*
X034982Y019896D02*
X039140Y019896D01*
X039140Y020134D02*
X035221Y020134D01*
X035418Y020373D02*
X039140Y020373D01*
X039140Y020611D02*
X035353Y020611D01*
X035114Y020850D02*
X039140Y020850D01*
X039003Y021088D02*
X034876Y021088D01*
X033947Y021088D02*
X032081Y021088D01*
X032110Y020850D02*
X033709Y020850D01*
X033470Y020611D02*
X032110Y020611D01*
X032110Y020373D02*
X033405Y020373D01*
X033602Y020134D02*
X032090Y020134D01*
X031780Y019896D02*
X033841Y019896D01*
X034079Y019657D02*
X031780Y019657D01*
X030919Y021088D02*
X030875Y021088D01*
X030125Y021088D02*
X029875Y021088D01*
X029125Y021088D02*
X028875Y021088D01*
X028125Y021088D02*
X027875Y021088D01*
X027125Y021088D02*
X026875Y021088D01*
X026125Y021088D02*
X025875Y021088D01*
X025125Y021088D02*
X024875Y021088D01*
X024125Y021088D02*
X023275Y021088D01*
X023457Y020850D02*
X023943Y020850D01*
X023890Y020611D02*
X023510Y020611D01*
X023466Y020373D02*
X023934Y020373D01*
X024103Y020134D02*
X023297Y020134D01*
X023180Y019896D02*
X024220Y019896D01*
X024220Y019657D02*
X023180Y019657D01*
X023180Y019419D02*
X024220Y019419D01*
X024220Y019180D02*
X023180Y019180D01*
X023180Y018942D02*
X024220Y018942D01*
X024220Y018703D02*
X023180Y018703D01*
X023180Y018465D02*
X024220Y018465D01*
X024220Y018226D02*
X023180Y018226D01*
X023180Y017988D02*
X024220Y017988D01*
X024220Y017749D02*
X023180Y017749D01*
X023180Y017511D02*
X024220Y017511D01*
X024220Y017272D02*
X023180Y017272D01*
X023180Y017034D02*
X024220Y017034D01*
X024220Y016795D02*
X023180Y016795D01*
X023180Y016557D02*
X024061Y016557D01*
X023822Y016318D02*
X023114Y016318D01*
X022875Y016080D02*
X023584Y016080D01*
X023345Y015841D02*
X022637Y015841D01*
X022398Y015603D02*
X023107Y015603D01*
X022868Y015364D02*
X022160Y015364D01*
X021921Y015126D02*
X022630Y015126D01*
X022391Y014887D02*
X021683Y014887D01*
X021444Y014649D02*
X022153Y014649D01*
X021914Y014410D02*
X021206Y014410D01*
X020967Y014172D02*
X021676Y014172D01*
X021437Y013933D02*
X020780Y013933D01*
X020780Y013695D02*
X021236Y013695D01*
X021220Y013456D02*
X020780Y013456D01*
X020780Y013218D02*
X021220Y013218D01*
X021220Y012979D02*
X020780Y012979D01*
X020780Y012741D02*
X021220Y012741D01*
X021220Y012502D02*
X020780Y012502D01*
X020780Y012264D02*
X021220Y012264D01*
X021220Y012025D02*
X020780Y012025D01*
X020780Y011787D02*
X021220Y011787D01*
X021220Y011548D02*
X020780Y011548D01*
X020780Y011310D02*
X021220Y011310D01*
X021108Y011071D02*
X020892Y011071D01*
X020280Y007732D02*
X024222Y007732D01*
X023983Y007494D02*
X020280Y007494D01*
X020280Y007255D02*
X023745Y007255D01*
X023506Y007017D02*
X020280Y007017D01*
X020280Y006778D02*
X023268Y006778D01*
X023029Y006540D02*
X020456Y006540D01*
X022195Y006301D02*
X022610Y006301D01*
X022582Y006063D02*
X022433Y006063D01*
X022672Y005824D02*
X022685Y005824D01*
X022780Y005586D02*
X023082Y005586D01*
X023162Y005347D02*
X022780Y005347D01*
X022854Y005109D02*
X023146Y005109D01*
X018220Y004056D02*
X018220Y002544D01*
X018263Y002441D01*
X018341Y002363D01*
X018494Y002210D01*
X018379Y002210D01*
X018313Y002183D01*
X018237Y002259D01*
X018159Y002337D01*
X018056Y002380D01*
X015569Y002380D01*
X015610Y002479D01*
X015610Y002721D01*
X015517Y002946D01*
X015346Y003117D01*
X015121Y003210D01*
X014879Y003210D01*
X014654Y003117D01*
X014483Y002946D01*
X014390Y002721D01*
X014390Y002479D01*
X014431Y002380D01*
X013866Y002380D01*
X013564Y002682D01*
X013673Y002682D01*
X013918Y002927D01*
X013918Y003191D01*
X014390Y003820D01*
X017056Y003820D01*
X017159Y003863D01*
X017313Y004017D01*
X017379Y003990D01*
X017621Y003990D01*
X017846Y004083D01*
X018000Y004237D01*
X018154Y004083D01*
X018220Y004056D01*
X018220Y003916D02*
X017212Y003916D01*
X017917Y004155D02*
X018083Y004155D01*
X018220Y003678D02*
X014283Y003678D01*
X014104Y003439D02*
X018220Y003439D01*
X018220Y003201D02*
X015144Y003201D01*
X014856Y003201D02*
X013925Y003201D01*
X013918Y002962D02*
X014499Y002962D01*
X014391Y002724D02*
X013715Y002724D01*
X013761Y002485D02*
X014390Y002485D01*
X014431Y001820D02*
X013694Y001820D01*
X013591Y001863D01*
X013134Y002320D01*
X012622Y002320D01*
X012804Y002137D01*
X012949Y001789D01*
X012949Y001411D01*
X012804Y001063D01*
X012702Y000960D01*
X013082Y000960D01*
X013082Y001273D01*
X013327Y001518D01*
X013673Y001518D01*
X013811Y001380D01*
X014431Y001380D01*
X014390Y001479D01*
X014390Y001721D01*
X014431Y001820D01*
X014410Y001770D02*
X012949Y001770D01*
X012949Y001531D02*
X014390Y001531D01*
X013446Y002008D02*
X012858Y002008D01*
X012695Y002247D02*
X013208Y002247D01*
X013101Y001293D02*
X012899Y001293D01*
X012796Y001054D02*
X013082Y001054D01*
X011298Y000960D02*
X008231Y000960D01*
X008173Y001018D01*
X007827Y001018D01*
X007582Y000773D01*
X007582Y000427D01*
X007659Y000350D01*
X003283Y000350D01*
X003407Y000474D01*
X003500Y000699D01*
X003500Y000941D01*
X003407Y001166D01*
X003253Y001320D01*
X007556Y001320D01*
X007659Y001363D01*
X008616Y002320D01*
X009129Y002320D01*
X009082Y002273D01*
X009082Y001927D01*
X009327Y001682D01*
X009673Y001682D01*
X009918Y001927D01*
X009918Y002273D01*
X009871Y002320D01*
X011378Y002320D01*
X011196Y002137D01*
X011051Y001789D01*
X011051Y001411D01*
X011196Y001063D01*
X011298Y000960D01*
X011204Y001054D02*
X003453Y001054D01*
X003500Y000816D02*
X007624Y000816D01*
X007582Y000577D02*
X003450Y000577D01*
X002497Y000350D02*
X001467Y000350D01*
X001494Y000370D01*
X001560Y000436D01*
X001615Y000511D01*
X001657Y000594D01*
X001685Y000682D01*
X001700Y000774D01*
X001700Y000820D01*
X001700Y000866D01*
X001685Y000958D01*
X001657Y001046D01*
X001615Y001129D01*
X001560Y001204D01*
X001494Y001270D01*
X001419Y001325D01*
X001336Y001367D01*
X001248Y001395D01*
X001156Y001410D01*
X001110Y001410D01*
X001110Y000820D01*
X001110Y000820D01*
X001700Y000820D01*
X001110Y000820D01*
X001110Y000820D01*
X001110Y001410D01*
X001064Y001410D01*
X000972Y001395D01*
X000884Y001367D01*
X000801Y001325D01*
X000750Y001288D01*
X000750Y002912D01*
X000801Y002875D01*
X000884Y002833D01*
X000972Y002805D01*
X001064Y002790D01*
X001110Y002790D01*
X001156Y002790D01*
X001248Y002805D01*
X001336Y002833D01*
X001419Y002875D01*
X001494Y002930D01*
X001560Y002996D01*
X001615Y003071D01*
X001657Y003154D01*
X001685Y003242D01*
X001700Y003334D01*
X001700Y003380D01*
X001700Y003426D01*
X001685Y003518D01*
X001657Y003606D01*
X001615Y003689D01*
X001560Y003764D01*
X001494Y003830D01*
X001419Y003885D01*
X001336Y003927D01*
X001248Y003955D01*
X001156Y003970D01*
X001110Y003970D01*
X001110Y003380D01*
X001110Y003380D01*
X001700Y003380D01*
X001110Y003380D01*
X001110Y003380D01*
X001110Y003970D01*
X001064Y003970D01*
X000972Y003955D01*
X000884Y003927D01*
X000801Y003885D01*
X000750Y003848D01*
X000750Y021850D01*
X010659Y021850D01*
X010582Y021773D01*
X010582Y021427D01*
X010827Y021182D01*
X011173Y021182D01*
X011231Y021240D01*
X011798Y021240D01*
X011696Y021137D01*
X011551Y020789D01*
X011551Y020411D01*
X011696Y020063D01*
X011963Y019796D01*
X012311Y019651D01*
X012689Y019651D01*
X013037Y019796D01*
X013304Y020063D01*
X013383Y020254D01*
X013554Y020083D01*
X013779Y019990D01*
X014021Y019990D01*
X014087Y020017D01*
X015082Y019022D01*
X015082Y018927D01*
X015327Y018682D01*
X015620Y018682D01*
X015620Y015616D01*
X013802Y013798D01*
X013758Y013906D01*
X013606Y014058D01*
X013478Y014111D01*
X013500Y014118D01*
X013573Y014155D01*
X013639Y014203D01*
X013697Y014261D01*
X013745Y014327D01*
X013782Y014400D01*
X013807Y014478D01*
X013820Y014559D01*
X013820Y014600D01*
X013820Y014641D01*
X013807Y014722D01*
X013782Y014800D01*
X013745Y014873D01*
X013697Y014939D01*
X013639Y014997D01*
X013573Y015045D01*
X013500Y015082D01*
X013478Y015089D01*
X013606Y015142D01*
X013758Y015294D01*
X013840Y015493D01*
X013840Y015707D01*
X013758Y015906D01*
X013606Y016058D01*
X013407Y016140D01*
X012593Y016140D01*
X012394Y016058D01*
X012242Y015906D01*
X012160Y015707D01*
X012160Y015493D01*
X012242Y015294D01*
X012394Y015142D01*
X012522Y015089D01*
X012500Y015082D01*
X012427Y015045D01*
X012361Y014997D01*
X012303Y014939D01*
X012255Y014873D01*
X012218Y014800D01*
X012193Y014722D01*
X012180Y014641D01*
X012180Y014600D01*
X013000Y014600D01*
X013820Y014600D01*
X013000Y014600D01*
X013000Y014600D01*
X013000Y014600D01*
X012180Y014600D01*
X012180Y014559D01*
X012193Y014478D01*
X012218Y014400D01*
X012255Y014327D01*
X012303Y014261D01*
X012361Y014203D01*
X012427Y014155D01*
X012500Y014118D01*
X012522Y014111D01*
X012394Y014058D01*
X012242Y013906D01*
X012160Y013707D01*
X012160Y013493D01*
X012242Y013294D01*
X012394Y013142D01*
X012593Y013060D01*
X013407Y013060D01*
X013606Y013142D01*
X013720Y013256D01*
X013720Y012471D01*
X013673Y012518D01*
X013327Y012518D01*
X013082Y012273D01*
X013082Y011927D01*
X013210Y011799D01*
X013210Y011140D01*
X013154Y011117D01*
X013000Y010963D01*
X012846Y011117D01*
X012621Y011210D01*
X012379Y011210D01*
X012154Y011117D01*
X012000Y010963D01*
X011846Y011117D01*
X011621Y011210D01*
X011379Y011210D01*
X011154Y011117D01*
X011000Y010963D01*
X010846Y011117D01*
X010621Y011210D01*
X010379Y011210D01*
X010154Y011117D01*
X010000Y010963D01*
X009846Y011117D01*
X009621Y011210D01*
X009379Y011210D01*
X009154Y011117D01*
X009000Y010963D01*
X008846Y011117D01*
X008621Y011210D01*
X008379Y011210D01*
X008154Y011117D01*
X008000Y010963D01*
X007846Y011117D01*
X007621Y011210D01*
X007379Y011210D01*
X007154Y011117D01*
X007000Y010963D01*
X006846Y011117D01*
X006621Y011210D01*
X006379Y011210D01*
X006154Y011117D01*
X005983Y010946D01*
X005890Y010721D01*
X005890Y010479D01*
X005983Y010254D01*
X006154Y010083D01*
X006379Y009990D01*
X006621Y009990D01*
X006846Y010083D01*
X007000Y010237D01*
X007154Y010083D01*
X007379Y009990D01*
X007621Y009990D01*
X007846Y010083D01*
X008000Y010237D01*
X008154Y010083D01*
X008379Y009990D01*
X008621Y009990D01*
X008846Y010083D01*
X009000Y010237D01*
X009154Y010083D01*
X009379Y009990D01*
X009621Y009990D01*
X009846Y010083D01*
X010000Y010237D01*
X010154Y010083D01*
X010379Y009990D01*
X010621Y009990D01*
X010846Y010083D01*
X011000Y010237D01*
X011154Y010083D01*
X011379Y009990D01*
X011621Y009990D01*
X011846Y010083D01*
X012000Y010237D01*
X012154Y010083D01*
X012379Y009990D01*
X012621Y009990D01*
X012846Y010083D01*
X013000Y010237D01*
X013154Y010083D01*
X013379Y009990D01*
X013621Y009990D01*
X013720Y010031D01*
X013720Y005716D01*
X013394Y005390D01*
X011942Y005390D01*
X011836Y005346D01*
X011754Y005264D01*
X011677Y005187D01*
X011621Y005210D01*
X011379Y005210D01*
X011154Y005117D01*
X011000Y004963D01*
X010846Y005117D01*
X010780Y005144D01*
X010780Y008289D01*
X010918Y008427D01*
X010918Y008773D01*
X010673Y009018D01*
X010327Y009018D01*
X010082Y008773D01*
X010082Y008427D01*
X010220Y008289D01*
X010220Y005144D01*
X010154Y005117D01*
X010000Y004963D01*
X009846Y005117D01*
X009780Y005144D01*
X009780Y007789D01*
X009918Y007927D01*
X009918Y008273D01*
X009673Y008518D01*
X009327Y008518D01*
X009082Y008273D01*
X009082Y007927D01*
X009220Y007789D01*
X009220Y005144D01*
X009154Y005117D01*
X009000Y004963D01*
X008846Y005117D01*
X008790Y005140D01*
X008790Y005799D01*
X008918Y005927D01*
X008918Y006273D01*
X008673Y006518D01*
X008327Y006518D01*
X008082Y006273D01*
X008082Y005927D01*
X008210Y005799D01*
X008210Y005140D01*
X008154Y005117D01*
X008000Y004963D01*
X007846Y005117D01*
X007780Y005144D01*
X007780Y005289D01*
X007918Y005427D01*
X007918Y005773D01*
X007673Y006018D01*
X007327Y006018D01*
X007082Y005773D01*
X007082Y005427D01*
X007220Y005289D01*
X007220Y005144D01*
X007154Y005117D01*
X007000Y004963D01*
X006846Y005117D01*
X006621Y005210D01*
X006379Y005210D01*
X006154Y005117D01*
X005983Y004946D01*
X005890Y004721D01*
X005890Y004479D01*
X005983Y004254D01*
X006154Y004083D01*
X006379Y003990D01*
X006621Y003990D01*
X006846Y004083D01*
X007000Y004237D01*
X007154Y004083D01*
X007379Y003990D01*
X007621Y003990D01*
X007846Y004083D01*
X008000Y004237D01*
X008154Y004083D01*
X008379Y003990D01*
X008621Y003990D01*
X008846Y004083D01*
X009000Y004237D01*
X009154Y004083D01*
X009379Y003990D01*
X009621Y003990D01*
X009846Y004083D01*
X010000Y004237D01*
X010154Y004083D01*
X010220Y004056D01*
X010220Y003716D01*
X010134Y003630D01*
X004944Y003630D01*
X004841Y003587D01*
X004763Y003509D01*
X004513Y003259D01*
X004470Y003156D01*
X004470Y002644D01*
X004404Y002617D01*
X004233Y002446D01*
X004140Y002221D01*
X004140Y001979D01*
X004181Y001880D01*
X003170Y001880D01*
X003170Y002836D01*
X003236Y002863D01*
X003407Y003034D01*
X003500Y003259D01*
X003500Y003501D01*
X003407Y003726D01*
X003236Y003897D01*
X003011Y003990D01*
X002769Y003990D01*
X002544Y003897D01*
X002373Y003726D01*
X002280Y003501D01*
X002280Y003259D01*
X002373Y003034D01*
X002544Y002863D01*
X002610Y002836D01*
X002610Y001364D01*
X002544Y001337D01*
X002373Y001166D01*
X002280Y000941D01*
X002280Y000699D01*
X002373Y000474D01*
X002497Y000350D01*
X002330Y000577D02*
X001648Y000577D01*
X001700Y000816D02*
X002280Y000816D01*
X002327Y001054D02*
X001653Y001054D01*
X001463Y001293D02*
X002500Y001293D01*
X002610Y001531D02*
X000750Y001531D01*
X000750Y001293D02*
X000757Y001293D01*
X001110Y001293D02*
X001110Y001293D01*
X001110Y001054D02*
X001110Y001054D01*
X000750Y001770D02*
X002610Y001770D01*
X002610Y002008D02*
X000750Y002008D01*
X000750Y002247D02*
X002610Y002247D01*
X002610Y002485D02*
X000750Y002485D01*
X000750Y002724D02*
X002610Y002724D01*
X002445Y002962D02*
X001526Y002962D01*
X001672Y003201D02*
X002304Y003201D01*
X002280Y003439D02*
X001698Y003439D01*
X001621Y003678D02*
X002353Y003678D01*
X002590Y003916D02*
X001358Y003916D01*
X001110Y003916D02*
X001110Y003916D01*
X001110Y003678D02*
X001110Y003678D01*
X001110Y003439D02*
X001110Y003439D01*
X001110Y003380D02*
X001110Y002790D01*
X001110Y003380D01*
X001110Y003380D01*
X001110Y003201D02*
X001110Y003201D01*
X001110Y002962D02*
X001110Y002962D01*
X000862Y003916D02*
X000750Y003916D01*
X000750Y004155D02*
X006083Y004155D01*
X005925Y004393D02*
X005384Y004393D01*
X005418Y004427D02*
X005418Y004773D01*
X005360Y004831D01*
X005360Y007672D01*
X005305Y007804D01*
X005204Y007905D01*
X004704Y008405D01*
X004572Y008460D01*
X001731Y008460D01*
X001673Y008518D01*
X001327Y008518D01*
X001082Y008273D01*
X001082Y007927D01*
X001327Y007682D01*
X001673Y007682D01*
X001731Y007740D01*
X004351Y007740D01*
X004640Y007451D01*
X004640Y004831D01*
X004582Y004773D01*
X004582Y004427D01*
X004827Y004182D01*
X005173Y004182D01*
X005418Y004427D01*
X005418Y004632D02*
X005890Y004632D01*
X005952Y004870D02*
X005360Y004870D01*
X005360Y005109D02*
X006146Y005109D01*
X006854Y005109D02*
X007146Y005109D01*
X007162Y005347D02*
X005360Y005347D01*
X005360Y005586D02*
X007082Y005586D01*
X007133Y005824D02*
X005360Y005824D01*
X005360Y006063D02*
X008082Y006063D01*
X008110Y006301D02*
X005360Y006301D01*
X005360Y006540D02*
X009220Y006540D01*
X009220Y006778D02*
X005360Y006778D01*
X005360Y007017D02*
X009220Y007017D01*
X009220Y007255D02*
X005360Y007255D01*
X005360Y007494D02*
X009220Y007494D01*
X009220Y007732D02*
X005335Y007732D01*
X005139Y007971D02*
X009082Y007971D01*
X009082Y008209D02*
X004900Y008209D01*
X004602Y008448D02*
X009256Y008448D01*
X009744Y008448D02*
X010082Y008448D01*
X010082Y008686D02*
X002949Y008686D01*
X003017Y008754D02*
X003110Y008979D01*
X003110Y009221D01*
X003017Y009446D01*
X002863Y009600D01*
X003003Y009740D01*
X004072Y009740D01*
X004204Y009795D01*
X004305Y009896D01*
X006591Y012182D01*
X006673Y012182D01*
X006918Y012427D01*
X006918Y012740D01*
X007072Y012740D01*
X007204Y012795D01*
X007591Y013182D01*
X007673Y013182D01*
X007918Y013427D01*
X007918Y013773D01*
X007673Y014018D01*
X007327Y014018D01*
X007082Y013773D01*
X007082Y013691D01*
X006851Y013460D01*
X005428Y013460D01*
X005296Y013405D01*
X005195Y013304D01*
X004351Y012460D01*
X001928Y012460D01*
X001796Y012405D01*
X001695Y012304D01*
X001195Y011804D01*
X001140Y011672D01*
X001140Y009528D01*
X001195Y009396D01*
X001296Y009295D01*
X001796Y008795D01*
X001928Y008740D01*
X001997Y008740D01*
X002154Y008583D01*
X002379Y008490D01*
X002621Y008490D01*
X002846Y008583D01*
X003017Y008754D01*
X003088Y008925D02*
X010233Y008925D01*
X010767Y008925D02*
X013720Y008925D01*
X013720Y009163D02*
X003110Y009163D01*
X003035Y009402D02*
X013720Y009402D01*
X013720Y009640D02*
X002903Y009640D01*
X002500Y010100D02*
X004000Y010100D01*
X006500Y012600D01*
X006755Y012264D02*
X013082Y012264D01*
X013082Y012025D02*
X006434Y012025D01*
X006196Y011787D02*
X013210Y011787D01*
X013210Y011548D02*
X005957Y011548D01*
X005719Y011310D02*
X013210Y011310D01*
X013108Y011071D02*
X012892Y011071D01*
X012108Y011071D02*
X011892Y011071D01*
X011108Y011071D02*
X010892Y011071D01*
X010108Y011071D02*
X009892Y011071D01*
X009108Y011071D02*
X008892Y011071D01*
X008108Y011071D02*
X007892Y011071D01*
X007108Y011071D02*
X006892Y011071D01*
X006108Y011071D02*
X005480Y011071D01*
X005242Y010833D02*
X005936Y010833D01*
X005890Y010594D02*
X005003Y010594D01*
X004765Y010356D02*
X005941Y010356D01*
X006120Y010117D02*
X004526Y010117D01*
X004288Y009879D02*
X013720Y009879D01*
X014280Y009879D02*
X014720Y009879D01*
X014621Y009990D02*
X014379Y009990D01*
X014280Y010031D01*
X014280Y005544D01*
X014237Y005441D01*
X014159Y005363D01*
X013879Y005083D01*
X014017Y004946D01*
X014019Y004941D01*
X014050Y004984D01*
X014116Y005050D01*
X014191Y005105D01*
X014274Y005147D01*
X014362Y005175D01*
X014454Y005190D01*
X014500Y005190D01*
X014500Y004600D01*
X014500Y004600D01*
X014500Y005190D01*
X014546Y005190D01*
X014638Y005175D01*
X014720Y005149D01*
X014720Y010031D01*
X014621Y009990D01*
X014720Y009640D02*
X014280Y009640D01*
X014280Y009402D02*
X014720Y009402D01*
X014720Y009163D02*
X014280Y009163D01*
X014280Y008925D02*
X014720Y008925D01*
X014720Y008686D02*
X014280Y008686D01*
X014280Y008448D02*
X014720Y008448D01*
X014720Y008209D02*
X014280Y008209D01*
X014280Y007971D02*
X014720Y007971D01*
X014720Y007732D02*
X014280Y007732D01*
X014280Y007494D02*
X014720Y007494D01*
X014720Y007255D02*
X014280Y007255D01*
X013720Y007255D02*
X010780Y007255D01*
X010780Y007494D02*
X013720Y007494D01*
X013720Y007732D02*
X010780Y007732D01*
X010780Y007971D02*
X013720Y007971D01*
X013720Y008209D02*
X010780Y008209D01*
X010918Y008448D02*
X013720Y008448D01*
X013720Y008686D02*
X010918Y008686D01*
X010220Y008209D02*
X009918Y008209D01*
X009918Y007971D02*
X010220Y007971D01*
X010220Y007732D02*
X009780Y007732D01*
X009780Y007494D02*
X010220Y007494D01*
X010220Y007255D02*
X009780Y007255D01*
X009780Y007017D02*
X010220Y007017D01*
X010220Y006778D02*
X009780Y006778D01*
X009780Y006540D02*
X010220Y006540D01*
X010220Y006301D02*
X009780Y006301D01*
X009780Y006063D02*
X010220Y006063D01*
X010220Y005824D02*
X009780Y005824D01*
X009780Y005586D02*
X010220Y005586D01*
X010220Y005347D02*
X009780Y005347D01*
X009854Y005109D02*
X010146Y005109D01*
X010780Y005347D02*
X011839Y005347D01*
X011146Y005109D02*
X010854Y005109D01*
X010780Y005586D02*
X013590Y005586D01*
X013720Y005824D02*
X010780Y005824D01*
X010780Y006063D02*
X013720Y006063D01*
X013720Y006301D02*
X010780Y006301D01*
X010780Y006540D02*
X013720Y006540D01*
X013720Y006778D02*
X010780Y006778D01*
X010780Y007017D02*
X013720Y007017D01*
X014280Y007017D02*
X014720Y007017D01*
X014720Y006778D02*
X014280Y006778D01*
X014280Y006540D02*
X014720Y006540D01*
X014720Y006301D02*
X014280Y006301D01*
X014280Y006063D02*
X014720Y006063D01*
X014720Y005824D02*
X014280Y005824D01*
X014280Y005586D02*
X014720Y005586D01*
X014720Y005347D02*
X014143Y005347D01*
X014198Y005109D02*
X013904Y005109D01*
X014500Y005109D02*
X014500Y005109D01*
X014500Y004870D02*
X014500Y004870D01*
X014500Y004632D02*
X014500Y004632D01*
X015501Y002962D02*
X018220Y002962D01*
X018220Y002724D02*
X015609Y002724D01*
X015610Y002485D02*
X018245Y002485D01*
X018249Y002247D02*
X018458Y002247D01*
X021500Y001600D02*
X021500Y001010D01*
X021546Y001010D01*
X021638Y001025D01*
X021726Y001053D01*
X021809Y001095D01*
X021884Y001150D01*
X021950Y001216D01*
X022000Y001284D01*
X022050Y001216D01*
X022116Y001150D01*
X022191Y001095D01*
X022274Y001053D01*
X022362Y001025D01*
X022454Y001010D01*
X022500Y001010D01*
X022546Y001010D01*
X022638Y001025D01*
X022726Y001053D01*
X022809Y001095D01*
X022884Y001150D01*
X022898Y001163D01*
X022927Y001094D01*
X022994Y001027D01*
X023082Y000990D01*
X023140Y000990D01*
X023140Y000960D01*
X021418Y000960D01*
X021418Y001016D01*
X021454Y001010D01*
X021500Y001010D01*
X021500Y001600D01*
X022090Y001600D01*
X022500Y001600D01*
X022500Y001600D01*
X022500Y001010D01*
X022500Y001600D01*
X022500Y001600D01*
X021500Y001600D01*
X021500Y001600D01*
X021500Y001600D01*
X021500Y001531D02*
X021500Y001531D01*
X021500Y001293D02*
X021500Y001293D01*
X021500Y001054D02*
X021500Y001054D01*
X021728Y001054D02*
X022272Y001054D01*
X022500Y001054D02*
X022500Y001054D01*
X022728Y001054D02*
X022967Y001054D01*
X022500Y001293D02*
X022500Y001293D01*
X022500Y001531D02*
X022500Y001531D01*
X023500Y000600D02*
X008000Y000600D01*
X007827Y001531D02*
X011051Y001531D01*
X011051Y001770D02*
X009761Y001770D01*
X009918Y002008D02*
X011142Y002008D01*
X011305Y002247D02*
X009918Y002247D01*
X009239Y001770D02*
X008065Y001770D01*
X008304Y002008D02*
X009082Y002008D01*
X009082Y002247D02*
X008542Y002247D01*
X011101Y001293D02*
X003280Y001293D01*
X003170Y002008D02*
X004140Y002008D01*
X004150Y002247D02*
X003170Y002247D01*
X003170Y002485D02*
X004272Y002485D01*
X004470Y002724D02*
X003170Y002724D01*
X003335Y002962D02*
X004470Y002962D01*
X004489Y003201D02*
X003476Y003201D01*
X003500Y003439D02*
X004693Y003439D01*
X003427Y003678D02*
X010182Y003678D01*
X010220Y003916D02*
X003190Y003916D01*
X004616Y004393D02*
X000750Y004393D01*
X000750Y004632D02*
X004582Y004632D01*
X004640Y004870D02*
X000750Y004870D01*
X000750Y005109D02*
X004640Y005109D01*
X004640Y005347D02*
X003610Y005347D01*
X003596Y005333D02*
X003767Y005504D01*
X003860Y005729D01*
X003860Y005971D01*
X003767Y006196D01*
X003596Y006367D01*
X003371Y006460D01*
X003129Y006460D01*
X002904Y006367D01*
X002750Y006213D01*
X002596Y006367D01*
X002371Y006460D01*
X002129Y006460D01*
X001904Y006367D01*
X001733Y006196D01*
X001640Y005971D01*
X001640Y005729D01*
X001733Y005504D01*
X001904Y005333D01*
X002129Y005240D01*
X002371Y005240D01*
X002596Y005333D01*
X002750Y005487D01*
X002904Y005333D01*
X003129Y005240D01*
X003371Y005240D01*
X003596Y005333D01*
X003801Y005586D02*
X004640Y005586D01*
X004640Y005824D02*
X003860Y005824D01*
X003822Y006063D02*
X004640Y006063D01*
X004640Y006301D02*
X003662Y006301D01*
X002838Y006301D02*
X002662Y006301D01*
X001838Y006301D02*
X000750Y006301D01*
X000750Y006063D02*
X001678Y006063D01*
X001640Y005824D02*
X000750Y005824D01*
X000750Y005586D02*
X001699Y005586D01*
X001890Y005347D02*
X000750Y005347D01*
X000750Y006540D02*
X004640Y006540D01*
X004640Y006778D02*
X000750Y006778D01*
X000750Y007017D02*
X004640Y007017D01*
X004640Y007255D02*
X000750Y007255D01*
X000750Y007494D02*
X004597Y007494D01*
X004359Y007732D02*
X001723Y007732D01*
X001500Y008100D02*
X004500Y008100D01*
X005000Y007600D01*
X005000Y004600D01*
X006917Y004155D02*
X007083Y004155D01*
X007917Y004155D02*
X008083Y004155D01*
X008917Y004155D02*
X009083Y004155D01*
X009917Y004155D02*
X010083Y004155D01*
X009146Y005109D02*
X008854Y005109D01*
X008790Y005347D02*
X009220Y005347D01*
X009220Y005586D02*
X008790Y005586D01*
X008815Y005824D02*
X009220Y005824D01*
X009220Y006063D02*
X008918Y006063D01*
X008890Y006301D02*
X009220Y006301D01*
X008185Y005824D02*
X007867Y005824D01*
X007918Y005586D02*
X008210Y005586D01*
X008210Y005347D02*
X007838Y005347D01*
X007854Y005109D02*
X008146Y005109D01*
X002890Y005347D02*
X002610Y005347D01*
X001277Y007732D02*
X000750Y007732D01*
X000750Y007971D02*
X001082Y007971D01*
X001082Y008209D02*
X000750Y008209D01*
X000750Y008448D02*
X001256Y008448D01*
X000750Y008686D02*
X002051Y008686D01*
X001666Y008925D02*
X000750Y008925D01*
X000750Y009163D02*
X001428Y009163D01*
X001193Y009402D02*
X000750Y009402D01*
X000750Y009640D02*
X001140Y009640D01*
X001140Y009879D02*
X000750Y009879D01*
X000750Y010117D02*
X001140Y010117D01*
X001140Y010356D02*
X000750Y010356D01*
X000750Y010594D02*
X001140Y010594D01*
X001140Y010833D02*
X000750Y010833D01*
X000750Y011071D02*
X001140Y011071D01*
X001140Y011310D02*
X000750Y011310D01*
X000750Y011548D02*
X001140Y011548D01*
X001500Y011600D02*
X002000Y012100D01*
X004500Y012100D01*
X005500Y013100D01*
X007000Y013100D01*
X007500Y013600D01*
X007758Y013933D02*
X012269Y013933D01*
X012160Y013695D02*
X007918Y013695D01*
X007918Y013456D02*
X012175Y013456D01*
X012319Y013218D02*
X007709Y013218D01*
X007388Y012979D02*
X013720Y012979D01*
X013720Y012741D02*
X007073Y012741D01*
X006918Y012502D02*
X013311Y012502D01*
X013689Y012502D02*
X013720Y012502D01*
X013720Y013218D02*
X013681Y013218D01*
X013731Y013933D02*
X013937Y013933D01*
X014176Y014172D02*
X013595Y014172D01*
X013785Y014410D02*
X014414Y014410D01*
X014653Y014649D02*
X013819Y014649D01*
X013734Y014887D02*
X014891Y014887D01*
X015130Y015126D02*
X013566Y015126D01*
X013787Y015364D02*
X015368Y015364D01*
X015607Y015603D02*
X013840Y015603D01*
X013785Y015841D02*
X015620Y015841D01*
X015620Y016080D02*
X013553Y016080D01*
X012447Y016080D02*
X006360Y016080D01*
X006360Y016318D02*
X015620Y016318D01*
X015620Y016557D02*
X006360Y016557D01*
X006360Y016567D02*
X006361Y016637D01*
X006360Y016638D01*
X006360Y018657D01*
X006511Y018744D01*
X006710Y018943D01*
X006851Y019187D01*
X006924Y019459D01*
X006924Y019740D01*
X009351Y019740D01*
X009534Y019557D01*
X009534Y019475D01*
X009486Y019428D01*
X009432Y019481D01*
X009368Y019528D01*
X009298Y019563D01*
X009223Y019588D01*
X009146Y019600D01*
X009106Y019600D01*
X009067Y019600D01*
X008989Y019588D01*
X008914Y019563D01*
X008844Y019528D01*
X008781Y019481D01*
X008725Y019426D01*
X008679Y019362D01*
X008643Y019292D01*
X008619Y019217D01*
X008606Y019139D01*
X008606Y019100D01*
X008606Y019061D01*
X008619Y018983D01*
X008643Y018908D01*
X008679Y018838D01*
X008725Y018774D01*
X008781Y018719D01*
X008844Y018672D01*
X008914Y018637D01*
X008989Y018612D01*
X009067Y018600D01*
X009106Y018600D01*
X009106Y019100D01*
X008606Y019100D01*
X009106Y019100D01*
X009106Y019100D01*
X009106Y019100D01*
X009106Y019600D01*
X009106Y019100D01*
X009106Y019100D01*
X009106Y018600D01*
X009146Y018600D01*
X009223Y018612D01*
X009298Y018637D01*
X009368Y018672D01*
X009432Y018719D01*
X009486Y018772D01*
X009599Y018659D01*
X009790Y018580D01*
X009997Y018580D01*
X010188Y018659D01*
X010335Y018805D01*
X010414Y018997D01*
X010414Y019203D01*
X010335Y019395D01*
X010254Y019475D01*
X010254Y019778D01*
X010199Y019910D01*
X009805Y020304D01*
X009704Y020405D01*
X009572Y020460D01*
X006505Y020460D01*
X006267Y020597D01*
X005995Y020670D01*
X005713Y020670D01*
X005441Y020597D01*
X005197Y020456D01*
X004998Y020257D01*
X004857Y020013D01*
X004784Y019741D01*
X004784Y019459D01*
X004857Y019187D01*
X004998Y018943D01*
X005197Y018744D01*
X005441Y018603D01*
X005640Y018550D01*
X005640Y018057D01*
X005631Y018082D01*
X005584Y018181D01*
X005526Y018273D01*
X005458Y018358D01*
X005380Y018436D01*
X005295Y018504D01*
X005203Y018562D01*
X005105Y018609D01*
X005002Y018645D01*
X004895Y018669D01*
X004852Y018674D01*
X004852Y017830D01*
X004612Y017830D01*
X004612Y017590D01*
X003768Y017590D01*
X003773Y017547D01*
X003798Y017441D01*
X003834Y017338D01*
X003881Y017240D01*
X003939Y017147D01*
X004007Y017062D01*
X004084Y016985D01*
X004145Y016937D01*
X004098Y016917D01*
X004033Y016891D01*
X004032Y016890D01*
X004030Y016889D01*
X003981Y016840D01*
X003931Y016791D01*
X003930Y016789D01*
X003929Y016788D01*
X003918Y016761D01*
X003333Y016177D01*
X002780Y016177D01*
X002562Y016087D01*
X002395Y015920D01*
X002305Y015702D01*
X002305Y015466D01*
X002395Y015249D01*
X002562Y015082D01*
X002780Y014992D01*
X003720Y014992D01*
X003938Y015082D01*
X004105Y015249D01*
X004195Y015466D01*
X004195Y015702D01*
X004105Y015920D01*
X004100Y015925D01*
X004398Y016223D01*
X005640Y016212D01*
X005640Y014831D01*
X005582Y014773D01*
X005582Y014427D01*
X005827Y014182D01*
X006173Y014182D01*
X006418Y014427D01*
X006418Y014773D01*
X006360Y014831D01*
X006360Y016567D01*
X006360Y016795D02*
X015620Y016795D01*
X015620Y017034D02*
X006360Y017034D01*
X006360Y017272D02*
X015620Y017272D01*
X015620Y017511D02*
X006360Y017511D01*
X006360Y017749D02*
X015620Y017749D01*
X015620Y017988D02*
X006360Y017988D01*
X006360Y018226D02*
X015620Y018226D01*
X015620Y018465D02*
X006360Y018465D01*
X006441Y018703D02*
X008802Y018703D01*
X008632Y018942D02*
X006709Y018942D01*
X006847Y019180D02*
X008613Y019180D01*
X008720Y019419D02*
X006913Y019419D01*
X006924Y019657D02*
X009434Y019657D01*
X009106Y019419D02*
X009106Y019419D01*
X009106Y019180D02*
X009106Y019180D01*
X009106Y018942D02*
X009106Y018942D01*
X009106Y018703D02*
X009106Y018703D01*
X009411Y018703D02*
X009555Y018703D01*
X009894Y019100D02*
X009894Y019706D01*
X009500Y020100D01*
X006500Y020100D01*
X006000Y019600D01*
X005854Y019600D01*
X006000Y019454D01*
X006000Y016569D01*
X004234Y016584D01*
X004234Y016569D01*
X003250Y015584D01*
X003982Y015126D02*
X005640Y015126D01*
X005640Y015364D02*
X004153Y015364D01*
X004195Y015603D02*
X005640Y015603D01*
X005640Y015841D02*
X004137Y015841D01*
X004254Y016080D02*
X005640Y016080D01*
X006000Y016569D02*
X006000Y014600D01*
X006418Y014649D02*
X012181Y014649D01*
X012215Y014410D02*
X006401Y014410D01*
X006360Y014887D02*
X012266Y014887D01*
X012434Y015126D02*
X006360Y015126D01*
X006360Y015364D02*
X012213Y015364D01*
X012160Y015603D02*
X006360Y015603D01*
X006360Y015841D02*
X012215Y015841D01*
X012405Y014172D02*
X003745Y014172D01*
X003737Y014174D02*
X003648Y014188D01*
X003250Y014188D01*
X002852Y014188D01*
X002763Y014174D01*
X002678Y014146D01*
X002597Y014105D01*
X002525Y014052D01*
X002461Y013989D01*
X002408Y013916D01*
X002367Y013836D01*
X002339Y013750D01*
X002325Y013661D01*
X002325Y013616D01*
X003250Y013616D01*
X003250Y014188D01*
X003250Y013616D01*
X003250Y013616D01*
X003250Y013616D01*
X004175Y013616D01*
X004175Y013661D01*
X004161Y013750D01*
X004133Y013836D01*
X004092Y013916D01*
X004039Y013989D01*
X003975Y014052D01*
X003903Y014105D01*
X003822Y014146D01*
X003737Y014174D01*
X004080Y013933D02*
X007242Y013933D01*
X007082Y013695D02*
X004170Y013695D01*
X004175Y013616D02*
X003250Y013616D01*
X003250Y013616D01*
X002325Y013616D01*
X002325Y013571D01*
X002339Y013482D01*
X002367Y013396D01*
X002408Y013316D01*
X002461Y013243D01*
X002525Y013179D01*
X002597Y013126D01*
X002678Y013085D01*
X002763Y013057D01*
X002852Y013043D01*
X003250Y013043D01*
X003648Y013043D01*
X003737Y013057D01*
X003822Y013085D01*
X003903Y013126D01*
X003975Y013179D01*
X004039Y013243D01*
X004092Y013316D01*
X004133Y013396D01*
X004161Y013482D01*
X004175Y013571D01*
X004175Y013616D01*
X004153Y013456D02*
X005419Y013456D01*
X005108Y013218D02*
X004014Y013218D01*
X003250Y013218D02*
X003250Y013218D01*
X003250Y013043D02*
X003250Y013616D01*
X003250Y013616D01*
X003250Y013043D01*
X003250Y013456D02*
X003250Y013456D01*
X003250Y013695D02*
X003250Y013695D01*
X003250Y013933D02*
X003250Y013933D01*
X003250Y014172D02*
X003250Y014172D01*
X002755Y014172D02*
X000750Y014172D01*
X000750Y014410D02*
X005599Y014410D01*
X005582Y014649D02*
X000750Y014649D01*
X000750Y014887D02*
X005640Y014887D01*
X003475Y016318D02*
X000750Y016318D01*
X000750Y016080D02*
X002555Y016080D01*
X002363Y015841D02*
X000750Y015841D01*
X000750Y015603D02*
X002305Y015603D01*
X002347Y015364D02*
X000750Y015364D01*
X000750Y015126D02*
X002518Y015126D01*
X002420Y013933D02*
X000750Y013933D01*
X000750Y013695D02*
X002330Y013695D01*
X002347Y013456D02*
X000750Y013456D01*
X000750Y013218D02*
X002486Y013218D01*
X001654Y012264D02*
X000750Y012264D01*
X000750Y012502D02*
X004393Y012502D01*
X004631Y012741D02*
X000750Y012741D01*
X000750Y012979D02*
X004870Y012979D01*
X001416Y012025D02*
X000750Y012025D01*
X000750Y011787D02*
X001188Y011787D01*
X001500Y011600D02*
X001500Y009600D01*
X002000Y009100D01*
X002500Y009100D01*
X006880Y010117D02*
X007120Y010117D01*
X007880Y010117D02*
X008120Y010117D01*
X008880Y010117D02*
X009120Y010117D01*
X009880Y010117D02*
X010120Y010117D01*
X010880Y010117D02*
X011120Y010117D01*
X011880Y010117D02*
X012120Y010117D01*
X012880Y010117D02*
X013120Y010117D01*
X015418Y014172D02*
X015720Y014172D01*
X015720Y014410D02*
X015281Y014410D01*
X015444Y014649D02*
X015720Y014649D01*
X015683Y014887D02*
X015891Y014887D01*
X015921Y015126D02*
X016130Y015126D01*
X016147Y015364D02*
X016368Y015364D01*
X016180Y015603D02*
X016607Y015603D01*
X016845Y015841D02*
X016180Y015841D01*
X016180Y016080D02*
X017084Y016080D01*
X017322Y016318D02*
X016180Y016318D01*
X016180Y016557D02*
X017561Y016557D01*
X017620Y016795D02*
X016180Y016795D01*
X016180Y017034D02*
X017582Y017034D01*
X017582Y017272D02*
X016180Y017272D01*
X016180Y017511D02*
X017620Y017511D01*
X017620Y017749D02*
X016180Y017749D01*
X016180Y017988D02*
X017620Y017988D01*
X017620Y018226D02*
X016180Y018226D01*
X016180Y018465D02*
X017620Y018465D01*
X017620Y018703D02*
X016180Y018703D01*
X016180Y018942D02*
X017620Y018942D01*
X017620Y019180D02*
X016180Y019180D01*
X016180Y019419D02*
X017620Y019419D01*
X017620Y019657D02*
X016180Y019657D01*
X016180Y019896D02*
X017620Y019896D01*
X017503Y020134D02*
X017262Y020134D01*
X016900Y020134D02*
X016900Y020134D01*
X016900Y020373D02*
X016900Y020373D01*
X016538Y020134D02*
X016297Y020134D01*
X016900Y020611D02*
X016900Y020611D01*
X016900Y020850D02*
X016900Y020850D01*
X016900Y021088D02*
X016900Y021088D01*
X016568Y021088D02*
X016275Y021088D01*
X015525Y021088D02*
X015275Y021088D01*
X014525Y021088D02*
X014275Y021088D01*
X013525Y021088D02*
X013325Y021088D01*
X013334Y020134D02*
X013503Y020134D01*
X013137Y019896D02*
X014208Y019896D01*
X014447Y019657D02*
X012702Y019657D01*
X012298Y019657D02*
X010254Y019657D01*
X010205Y019896D02*
X011863Y019896D01*
X011666Y020134D02*
X009975Y020134D01*
X009737Y020373D02*
X011567Y020373D01*
X011551Y020611D02*
X006215Y020611D01*
X005494Y020611D02*
X000750Y020611D01*
X000750Y020850D02*
X011577Y020850D01*
X011675Y021088D02*
X000750Y021088D01*
X000750Y021327D02*
X010682Y021327D01*
X010582Y021565D02*
X000750Y021565D01*
X000750Y021804D02*
X010612Y021804D01*
X011000Y021600D02*
X039000Y021600D01*
X039500Y021100D01*
X039500Y014600D01*
X039500Y002100D01*
X039000Y001600D01*
X034500Y001600D01*
X034860Y002008D02*
X038899Y002008D01*
X032137Y002724D02*
X031280Y002724D01*
X031280Y002962D02*
X031796Y002962D01*
X031639Y003201D02*
X031280Y003201D01*
X031280Y003439D02*
X031551Y003439D01*
X031551Y003678D02*
X031271Y003678D01*
X031080Y003916D02*
X031604Y003916D01*
X031713Y004155D02*
X030841Y004155D01*
X025910Y001770D02*
X024110Y001770D01*
X038520Y016080D02*
X039140Y016080D01*
X039140Y016318D02*
X038759Y016318D01*
X038997Y016557D02*
X039140Y016557D01*
X039140Y016795D02*
X039103Y016795D01*
X039140Y017034D02*
X038930Y017034D01*
X039140Y017272D02*
X038692Y017272D01*
X038453Y017511D02*
X039140Y017511D01*
X039140Y017749D02*
X038201Y017749D01*
X022525Y021088D02*
X022275Y021088D01*
X021525Y021088D02*
X021275Y021088D01*
X020525Y021088D02*
X020275Y021088D01*
X019525Y021088D02*
X019275Y021088D01*
X018525Y021088D02*
X018275Y021088D01*
X017525Y021088D02*
X017232Y021088D01*
X014685Y019419D02*
X010311Y019419D01*
X010414Y019180D02*
X014924Y019180D01*
X015082Y018942D02*
X010391Y018942D01*
X010232Y018703D02*
X015306Y018703D01*
X005640Y018465D02*
X005344Y018465D01*
X005268Y018703D02*
X003769Y018703D01*
X003766Y018701D02*
X003864Y018749D01*
X003957Y018807D01*
X004042Y018875D01*
X004119Y018952D01*
X004187Y019037D01*
X004245Y019129D01*
X004292Y019228D01*
X004328Y019331D01*
X004353Y019437D01*
X004358Y019480D01*
X003514Y019480D01*
X003514Y019720D01*
X004358Y019720D01*
X004353Y019763D01*
X004328Y019869D01*
X004292Y019972D01*
X004245Y020071D01*
X004187Y020163D01*
X004119Y020248D01*
X004042Y020325D01*
X003957Y020393D01*
X003864Y020451D01*
X003766Y020499D01*
X003663Y020535D01*
X003557Y020559D01*
X003514Y020564D01*
X003514Y019720D01*
X003274Y019720D01*
X003274Y020564D01*
X003231Y020559D01*
X003124Y020535D01*
X003021Y020499D01*
X002923Y020451D01*
X002831Y020393D01*
X002746Y020325D01*
X002668Y020248D01*
X002600Y020163D01*
X002542Y020071D01*
X002495Y019972D01*
X002459Y019869D01*
X002435Y019763D01*
X002430Y019720D01*
X003274Y019720D01*
X003274Y019480D01*
X003514Y019480D01*
X003514Y018636D01*
X003557Y018641D01*
X003663Y018665D01*
X003766Y018701D01*
X003514Y018703D02*
X003274Y018703D01*
X003274Y018636D02*
X003274Y019480D01*
X002430Y019480D01*
X002435Y019437D01*
X002459Y019331D01*
X002495Y019228D01*
X002542Y019129D01*
X002600Y019037D01*
X002668Y018952D01*
X002746Y018875D01*
X002831Y018807D01*
X002923Y018749D01*
X003021Y018701D01*
X003124Y018665D01*
X003231Y018641D01*
X003274Y018636D01*
X003018Y018703D02*
X000750Y018703D01*
X000750Y018465D02*
X004120Y018465D01*
X004084Y018436D02*
X004007Y018358D01*
X003939Y018273D01*
X003881Y018181D01*
X003834Y018082D01*
X003798Y017980D01*
X003773Y017873D01*
X003768Y017830D01*
X004612Y017830D01*
X004612Y018674D01*
X004569Y018669D01*
X004463Y018645D01*
X004360Y018609D01*
X004262Y018562D01*
X004169Y018504D01*
X004084Y018436D01*
X003909Y018226D02*
X000750Y018226D01*
X000750Y017988D02*
X003800Y017988D01*
X003782Y017511D02*
X000750Y017511D01*
X000750Y017749D02*
X004612Y017749D01*
X004612Y017988D02*
X004852Y017988D01*
X004852Y018226D02*
X004612Y018226D01*
X004612Y018465D02*
X004852Y018465D01*
X005555Y018226D02*
X005640Y018226D01*
X005000Y018942D02*
X004109Y018942D01*
X004269Y019180D02*
X004861Y019180D01*
X004795Y019419D02*
X004348Y019419D01*
X004784Y019657D02*
X003514Y019657D01*
X003514Y019419D02*
X003274Y019419D01*
X003274Y019657D02*
X000750Y019657D01*
X000750Y019419D02*
X002439Y019419D01*
X002518Y019180D02*
X000750Y019180D01*
X000750Y018942D02*
X002679Y018942D01*
X003274Y018942D02*
X003514Y018942D01*
X003514Y019180D02*
X003274Y019180D01*
X003274Y019896D02*
X003514Y019896D01*
X003514Y020134D02*
X003274Y020134D01*
X003274Y020373D02*
X003514Y020373D01*
X003983Y020373D02*
X005114Y020373D01*
X004927Y020134D02*
X004205Y020134D01*
X004319Y019896D02*
X004826Y019896D01*
X002805Y020373D02*
X000750Y020373D01*
X000750Y020134D02*
X002582Y020134D01*
X002468Y019896D02*
X000750Y019896D01*
X000750Y017272D02*
X003865Y017272D01*
X004036Y017034D02*
X000750Y017034D01*
X000750Y016795D02*
X003935Y016795D01*
X003713Y016557D02*
X000750Y016557D01*
D23*
X014000Y013600D02*
X015900Y015500D01*
X015900Y020600D01*
X015400Y019100D02*
X013900Y020600D01*
X017900Y020600D02*
X017900Y017100D01*
X017900Y016500D01*
X016000Y014600D01*
X016000Y005100D01*
X016500Y004600D01*
X017000Y004100D02*
X017500Y004600D01*
X017000Y004100D02*
X014250Y004100D01*
X013500Y003100D01*
X013250Y002600D02*
X009500Y002600D01*
X009500Y002100D01*
X009500Y002600D02*
X008500Y002600D01*
X007500Y001600D01*
X005750Y001600D01*
X005750Y002100D01*
X005750Y001600D02*
X002890Y001600D01*
X002890Y000820D01*
X002890Y001600D02*
X002890Y003380D01*
X004750Y003100D02*
X005000Y003350D01*
X010250Y003350D01*
X010500Y003600D01*
X010500Y004600D01*
X010500Y008600D01*
X009500Y008100D02*
X009500Y004600D01*
X007500Y004600D02*
X007500Y005600D01*
X007750Y003100D02*
X012250Y003100D01*
X012500Y003350D01*
X012500Y004600D01*
X013500Y005100D02*
X014000Y005600D01*
X014000Y013600D01*
X015000Y014100D02*
X015000Y005100D01*
X015500Y004600D01*
X018500Y004600D02*
X018500Y002600D01*
X019000Y002100D01*
X027000Y002100D01*
X027500Y001600D01*
X028500Y001600D02*
X028500Y002100D01*
X028000Y002600D01*
X020000Y002600D01*
X019500Y003100D01*
X019500Y004600D01*
X020500Y004600D02*
X020500Y003600D01*
X021000Y003100D01*
X029000Y003100D01*
X029500Y002600D01*
X029500Y001600D01*
X030500Y001600D02*
X030500Y003100D01*
X030000Y003600D01*
X022000Y003600D01*
X021500Y004100D01*
X021500Y004600D01*
X021500Y005100D01*
X021000Y005600D01*
X019500Y005600D01*
X019000Y006100D01*
X019000Y014100D01*
X021500Y016600D01*
X021500Y018350D01*
X022500Y019100D02*
X022500Y016600D01*
X020000Y014100D01*
X020000Y006600D01*
X020500Y006100D01*
X022000Y006100D01*
X022500Y005600D01*
X022500Y004600D01*
X023000Y004100D01*
X030500Y004100D01*
X031000Y003600D01*
X031000Y002100D01*
X034500Y005600D02*
X036500Y005600D01*
X037000Y005100D01*
X038000Y005100D01*
X038500Y005600D01*
X038000Y006100D02*
X038500Y006600D01*
X038000Y007100D02*
X038500Y007600D01*
X038000Y007100D02*
X035500Y007100D01*
X035000Y007100D02*
X025000Y007100D01*
X024500Y007600D02*
X035000Y007600D01*
X036500Y009100D01*
X038000Y009100D01*
X038500Y009600D01*
X038000Y010100D02*
X038500Y010600D01*
X038000Y011100D02*
X038500Y011600D01*
X038000Y011100D02*
X037000Y011100D01*
X034500Y008600D01*
X034500Y008100D02*
X035000Y008100D01*
X037000Y010100D01*
X038500Y008600D02*
X038000Y008100D01*
X036000Y008100D01*
X035000Y007100D01*
X035000Y006600D02*
X025500Y006600D01*
X025500Y010600D02*
X025500Y013600D01*
X026500Y013600D02*
X026500Y010600D01*
X027500Y010600D02*
X027500Y013600D01*
X028500Y013600D02*
X028500Y010600D01*
X031000Y012100D02*
X031000Y015600D01*
X032000Y016600D01*
X032000Y017100D01*
X031500Y016600D02*
X031500Y020600D01*
X030500Y020600D02*
X030500Y016600D01*
X029500Y016600D02*
X029500Y020600D01*
X028500Y020600D02*
X028500Y016600D01*
X027500Y016600D02*
X027500Y020600D01*
X026500Y020600D02*
X026500Y016600D01*
X023500Y013600D01*
X023500Y010600D01*
X024500Y010600D02*
X024500Y013600D01*
X027500Y016600D01*
X025500Y016600D02*
X025500Y020600D01*
X024500Y020600D02*
X024500Y016600D01*
X021500Y013600D01*
X021500Y010600D01*
X022500Y010600D02*
X022500Y013600D01*
X025500Y016600D01*
X022900Y016500D02*
X020500Y014100D01*
X020500Y010600D01*
X019500Y010600D02*
X019500Y014100D01*
X021900Y016500D01*
X021900Y020600D01*
X022900Y020600D02*
X022900Y016500D01*
X020900Y016500D02*
X018500Y014100D01*
X018500Y010600D01*
X017500Y010600D02*
X017500Y014100D01*
X019900Y016500D01*
X019900Y016600D02*
X019900Y020600D01*
X020900Y020600D02*
X020900Y016500D01*
X018900Y016500D02*
X018900Y017600D01*
X018900Y020600D01*
X018900Y016500D02*
X016500Y014100D01*
X016500Y010600D01*
X015500Y010600D02*
X015500Y013600D01*
X031500Y012600D02*
X031500Y015600D01*
X032500Y016600D01*
X033000Y016600D02*
X033500Y016600D01*
X034000Y016100D01*
X034000Y012100D01*
X033500Y011600D01*
X032500Y011600D01*
X034500Y006100D02*
X038000Y006100D01*
X021000Y001100D02*
X013500Y001100D01*
X013750Y002100D02*
X013250Y002600D01*
X013750Y002100D02*
X018000Y002100D01*
X018500Y001600D01*
X007750Y003100D02*
X006750Y002100D01*
X004750Y002100D02*
X004750Y003100D01*
D24*
X008500Y004600D02*
X008500Y006100D01*
X011500Y004600D02*
X012000Y005100D01*
X013500Y005100D01*
X013500Y010600D02*
X013500Y012100D01*
X014500Y013100D02*
X014500Y010600D01*
X023000Y006100D02*
X024500Y007600D01*
X025000Y007100D02*
X023500Y005600D01*
X024000Y005100D02*
X025500Y006600D01*
X026500Y006100D02*
X026500Y004600D01*
X025500Y004600D02*
X025500Y005600D01*
X031000Y002100D02*
X031500Y001600D01*
X035000Y006600D02*
X035500Y007100D01*
X037000Y010100D02*
X038000Y010100D01*
X031500Y011600D02*
X031000Y012100D01*
X028500Y013600D02*
X031500Y016600D01*
X032500Y016600D02*
X032500Y017600D01*
X030500Y016600D02*
X027500Y013600D01*
X026500Y013600D02*
X029500Y016600D01*
X028500Y016600D02*
X025500Y013600D01*
X020000Y016600D02*
X019900Y016600D01*
X019900Y016500D01*
X019000Y017600D02*
X018900Y017600D01*
X018000Y017100D02*
X017900Y017100D01*
X015500Y019100D02*
X015400Y019100D01*
M02*
