G75*
G70*
%OFA0B0*%
%FSLAX24Y24*%
%IPPOS*%
%LPD*%
%AMOC8*
5,1,8,0,0,1.08239X$1,22.5*
%
%ADD10C,0.0000*%
%ADD11C,0.0740*%
%ADD12R,0.0740X0.0740*%
%ADD13OC8,0.0740*%
%ADD14R,0.0512X0.0591*%
%ADD15C,0.0560*%
%ADD16C,0.1660*%
%ADD17C,0.1502*%
%ADD18C,0.0705*%
%ADD19C,0.0600*%
%ADD20R,0.0472X0.0787*%
%ADD21R,0.1100X0.0900*%
%ADD22R,0.0579X0.0697*%
%ADD23R,0.0250X0.0500*%
%ADD24R,0.0500X0.0250*%
%ADD25R,0.1560X0.1560*%
%ADD26R,0.1250X0.1250*%
%ADD27C,0.0660*%
%ADD28R,0.0591X0.0512*%
%ADD29R,0.0900X0.1100*%
%ADD30R,0.0669X0.0984*%
%ADD31R,0.0630X0.0512*%
%ADD32R,0.0551X0.1181*%
%ADD33C,0.0240*%
%ADD34OC8,0.0356*%
%ADD35C,0.0080*%
%ADD36C,0.0100*%
D10*
X001500Y003413D02*
X001500Y025409D01*
X040870Y025409D01*
X040870Y003413D01*
X001500Y003413D01*
X012291Y004913D02*
X012293Y004966D01*
X012299Y005019D01*
X012309Y005071D01*
X012322Y005122D01*
X012340Y005172D01*
X012361Y005221D01*
X012386Y005268D01*
X012414Y005312D01*
X012446Y005355D01*
X012480Y005395D01*
X012518Y005433D01*
X012558Y005467D01*
X012601Y005499D01*
X012646Y005527D01*
X012692Y005552D01*
X012741Y005573D01*
X012791Y005591D01*
X012842Y005604D01*
X012894Y005614D01*
X012947Y005620D01*
X013000Y005622D01*
X013053Y005620D01*
X013106Y005614D01*
X013158Y005604D01*
X013209Y005591D01*
X013259Y005573D01*
X013308Y005552D01*
X013355Y005527D01*
X013399Y005499D01*
X013442Y005467D01*
X013482Y005433D01*
X013520Y005395D01*
X013554Y005355D01*
X013586Y005312D01*
X013614Y005267D01*
X013639Y005221D01*
X013660Y005172D01*
X013678Y005122D01*
X013691Y005071D01*
X013701Y005019D01*
X013707Y004966D01*
X013709Y004913D01*
X013707Y004860D01*
X013701Y004807D01*
X013691Y004755D01*
X013678Y004704D01*
X013660Y004654D01*
X013639Y004605D01*
X013614Y004558D01*
X013586Y004514D01*
X013554Y004471D01*
X013520Y004431D01*
X013482Y004393D01*
X013442Y004359D01*
X013399Y004327D01*
X013354Y004299D01*
X013308Y004274D01*
X013259Y004253D01*
X013209Y004235D01*
X013158Y004222D01*
X013106Y004212D01*
X013053Y004206D01*
X013000Y004204D01*
X012947Y004206D01*
X012894Y004212D01*
X012842Y004222D01*
X012791Y004235D01*
X012741Y004253D01*
X012692Y004274D01*
X012645Y004299D01*
X012601Y004327D01*
X012558Y004359D01*
X012518Y004393D01*
X012480Y004431D01*
X012446Y004471D01*
X012414Y004514D01*
X012386Y004559D01*
X012361Y004605D01*
X012340Y004654D01*
X012322Y004704D01*
X012309Y004755D01*
X012299Y004807D01*
X012293Y004860D01*
X012291Y004913D01*
X032791Y006913D02*
X032793Y006966D01*
X032799Y007019D01*
X032809Y007071D01*
X032822Y007122D01*
X032840Y007172D01*
X032861Y007221D01*
X032886Y007268D01*
X032914Y007312D01*
X032946Y007355D01*
X032980Y007395D01*
X033018Y007433D01*
X033058Y007467D01*
X033101Y007499D01*
X033146Y007527D01*
X033192Y007552D01*
X033241Y007573D01*
X033291Y007591D01*
X033342Y007604D01*
X033394Y007614D01*
X033447Y007620D01*
X033500Y007622D01*
X033553Y007620D01*
X033606Y007614D01*
X033658Y007604D01*
X033709Y007591D01*
X033759Y007573D01*
X033808Y007552D01*
X033855Y007527D01*
X033899Y007499D01*
X033942Y007467D01*
X033982Y007433D01*
X034020Y007395D01*
X034054Y007355D01*
X034086Y007312D01*
X034114Y007267D01*
X034139Y007221D01*
X034160Y007172D01*
X034178Y007122D01*
X034191Y007071D01*
X034201Y007019D01*
X034207Y006966D01*
X034209Y006913D01*
X034207Y006860D01*
X034201Y006807D01*
X034191Y006755D01*
X034178Y006704D01*
X034160Y006654D01*
X034139Y006605D01*
X034114Y006558D01*
X034086Y006514D01*
X034054Y006471D01*
X034020Y006431D01*
X033982Y006393D01*
X033942Y006359D01*
X033899Y006327D01*
X033854Y006299D01*
X033808Y006274D01*
X033759Y006253D01*
X033709Y006235D01*
X033658Y006222D01*
X033606Y006212D01*
X033553Y006206D01*
X033500Y006204D01*
X033447Y006206D01*
X033394Y006212D01*
X033342Y006222D01*
X033291Y006235D01*
X033241Y006253D01*
X033192Y006274D01*
X033145Y006299D01*
X033101Y006327D01*
X033058Y006359D01*
X033018Y006393D01*
X032980Y006431D01*
X032946Y006471D01*
X032914Y006514D01*
X032886Y006559D01*
X032861Y006605D01*
X032840Y006654D01*
X032822Y006704D01*
X032809Y006755D01*
X032799Y006807D01*
X032793Y006860D01*
X032791Y006913D01*
X032791Y017913D02*
X032793Y017966D01*
X032799Y018019D01*
X032809Y018071D01*
X032822Y018122D01*
X032840Y018172D01*
X032861Y018221D01*
X032886Y018268D01*
X032914Y018312D01*
X032946Y018355D01*
X032980Y018395D01*
X033018Y018433D01*
X033058Y018467D01*
X033101Y018499D01*
X033146Y018527D01*
X033192Y018552D01*
X033241Y018573D01*
X033291Y018591D01*
X033342Y018604D01*
X033394Y018614D01*
X033447Y018620D01*
X033500Y018622D01*
X033553Y018620D01*
X033606Y018614D01*
X033658Y018604D01*
X033709Y018591D01*
X033759Y018573D01*
X033808Y018552D01*
X033855Y018527D01*
X033899Y018499D01*
X033942Y018467D01*
X033982Y018433D01*
X034020Y018395D01*
X034054Y018355D01*
X034086Y018312D01*
X034114Y018267D01*
X034139Y018221D01*
X034160Y018172D01*
X034178Y018122D01*
X034191Y018071D01*
X034201Y018019D01*
X034207Y017966D01*
X034209Y017913D01*
X034207Y017860D01*
X034201Y017807D01*
X034191Y017755D01*
X034178Y017704D01*
X034160Y017654D01*
X034139Y017605D01*
X034114Y017558D01*
X034086Y017514D01*
X034054Y017471D01*
X034020Y017431D01*
X033982Y017393D01*
X033942Y017359D01*
X033899Y017327D01*
X033854Y017299D01*
X033808Y017274D01*
X033759Y017253D01*
X033709Y017235D01*
X033658Y017222D01*
X033606Y017212D01*
X033553Y017206D01*
X033500Y017204D01*
X033447Y017206D01*
X033394Y017212D01*
X033342Y017222D01*
X033291Y017235D01*
X033241Y017253D01*
X033192Y017274D01*
X033145Y017299D01*
X033101Y017327D01*
X033058Y017359D01*
X033018Y017393D01*
X032980Y017431D01*
X032946Y017471D01*
X032914Y017514D01*
X032886Y017559D01*
X032861Y017605D01*
X032840Y017654D01*
X032822Y017704D01*
X032809Y017755D01*
X032799Y017807D01*
X032793Y017860D01*
X032791Y017913D01*
X012791Y023913D02*
X012793Y023966D01*
X012799Y024019D01*
X012809Y024071D01*
X012822Y024122D01*
X012840Y024172D01*
X012861Y024221D01*
X012886Y024268D01*
X012914Y024312D01*
X012946Y024355D01*
X012980Y024395D01*
X013018Y024433D01*
X013058Y024467D01*
X013101Y024499D01*
X013146Y024527D01*
X013192Y024552D01*
X013241Y024573D01*
X013291Y024591D01*
X013342Y024604D01*
X013394Y024614D01*
X013447Y024620D01*
X013500Y024622D01*
X013553Y024620D01*
X013606Y024614D01*
X013658Y024604D01*
X013709Y024591D01*
X013759Y024573D01*
X013808Y024552D01*
X013855Y024527D01*
X013899Y024499D01*
X013942Y024467D01*
X013982Y024433D01*
X014020Y024395D01*
X014054Y024355D01*
X014086Y024312D01*
X014114Y024267D01*
X014139Y024221D01*
X014160Y024172D01*
X014178Y024122D01*
X014191Y024071D01*
X014201Y024019D01*
X014207Y023966D01*
X014209Y023913D01*
X014207Y023860D01*
X014201Y023807D01*
X014191Y023755D01*
X014178Y023704D01*
X014160Y023654D01*
X014139Y023605D01*
X014114Y023558D01*
X014086Y023514D01*
X014054Y023471D01*
X014020Y023431D01*
X013982Y023393D01*
X013942Y023359D01*
X013899Y023327D01*
X013854Y023299D01*
X013808Y023274D01*
X013759Y023253D01*
X013709Y023235D01*
X013658Y023222D01*
X013606Y023212D01*
X013553Y023206D01*
X013500Y023204D01*
X013447Y023206D01*
X013394Y023212D01*
X013342Y023222D01*
X013291Y023235D01*
X013241Y023253D01*
X013192Y023274D01*
X013145Y023299D01*
X013101Y023327D01*
X013058Y023359D01*
X013018Y023393D01*
X012980Y023431D01*
X012946Y023471D01*
X012914Y023514D01*
X012886Y023559D01*
X012861Y023605D01*
X012840Y023654D01*
X012822Y023704D01*
X012809Y023755D01*
X012799Y023807D01*
X012793Y023860D01*
X012791Y023913D01*
D11*
X014900Y023913D03*
X015900Y023913D03*
X016900Y023913D03*
X017900Y023913D03*
X018900Y023913D03*
X019900Y023913D03*
X020900Y023913D03*
X021900Y023913D03*
X022900Y023913D03*
X023900Y023913D03*
X025500Y023913D03*
X026500Y023913D03*
X027500Y023913D03*
X028500Y023913D03*
X029500Y023913D03*
X030500Y023913D03*
X031500Y023913D03*
X030500Y013913D03*
X029500Y013913D03*
X028500Y013913D03*
X027500Y013913D03*
X026500Y013913D03*
X025500Y013913D03*
X024500Y013913D03*
X023500Y013913D03*
X022500Y013913D03*
X021500Y013913D03*
X020500Y013913D03*
X019500Y013913D03*
X018500Y013913D03*
X017500Y013913D03*
X016500Y013913D03*
X015500Y013913D03*
X014500Y013913D03*
X013500Y013913D03*
X012500Y013913D03*
X011500Y013913D03*
X010500Y013913D03*
X009500Y013913D03*
X008500Y013913D03*
X007500Y013913D03*
X003500Y014413D03*
X003500Y013413D03*
X003500Y012413D03*
X003250Y009163D03*
X004250Y009163D03*
X007500Y007913D03*
X008500Y007913D03*
X009500Y007913D03*
X010500Y007913D03*
X011500Y007913D03*
X012500Y007913D03*
X013500Y007913D03*
X014500Y007913D03*
X015500Y007913D03*
X016500Y007913D03*
X017500Y007913D03*
X018500Y007913D03*
X019500Y007913D03*
X020500Y007913D03*
X021500Y007913D03*
X022500Y007913D03*
X023500Y007913D03*
X024500Y007913D03*
X025500Y007913D03*
X026500Y007913D03*
X027500Y007913D03*
X028500Y007913D03*
X029500Y007913D03*
X030500Y007913D03*
X030500Y004913D03*
X029500Y004913D03*
X028500Y004913D03*
X027500Y004913D03*
X023500Y004913D03*
X022500Y004913D03*
X021500Y004913D03*
X020500Y004913D03*
X019500Y004913D03*
X018500Y004913D03*
X017500Y004913D03*
X016000Y004913D03*
X016000Y005913D03*
X007750Y005413D03*
X006750Y005413D03*
X005750Y005413D03*
X003890Y006693D03*
X002110Y006693D03*
X002110Y004133D03*
X003890Y004133D03*
X031500Y004913D03*
X032500Y004913D03*
D12*
X024500Y004913D03*
X032500Y023913D03*
D13*
X032500Y015913D03*
X033500Y015913D03*
X033500Y014913D03*
X032500Y014913D03*
X032500Y013913D03*
X033500Y013913D03*
D14*
X014835Y021413D03*
X014165Y021413D03*
X014165Y022413D03*
X014835Y022413D03*
D15*
X005250Y018307D03*
X005250Y017519D03*
D16*
X005854Y022913D03*
D17*
X003394Y022913D03*
X004732Y021023D03*
D18*
X004603Y018897D02*
X003898Y018897D01*
X003898Y016929D02*
X004603Y016929D01*
D19*
X013700Y017413D02*
X014300Y017413D01*
X014300Y018413D02*
X013700Y018413D01*
X013700Y019413D02*
X014300Y019413D01*
D20*
X011500Y020112D03*
X011500Y021214D03*
X012500Y016464D03*
X012500Y015362D03*
D21*
X008250Y015607D03*
X008250Y017219D03*
D22*
X010000Y019468D03*
X012500Y019608D03*
X012500Y017718D03*
X010000Y021358D03*
D23*
X009677Y018413D03*
X009323Y018413D03*
D24*
X011500Y018736D03*
X011500Y019090D03*
D25*
X035677Y021486D03*
D26*
X035677Y018386D03*
X035677Y024586D03*
D27*
X038500Y017913D03*
X039500Y017913D03*
X039500Y016913D03*
X038500Y016913D03*
X038500Y015913D03*
X039500Y015913D03*
X039500Y014913D03*
X038500Y014913D03*
X038500Y013913D03*
X039500Y013913D03*
X039500Y012913D03*
X038500Y012913D03*
X038500Y011913D03*
X039500Y011913D03*
X039500Y010913D03*
X038500Y010913D03*
X038500Y009913D03*
X039500Y009913D03*
X039500Y008913D03*
X038500Y008913D03*
X038500Y007913D03*
X039500Y007913D03*
X039500Y006913D03*
X038500Y006913D03*
X038500Y005913D03*
X039500Y005913D03*
D28*
X011250Y005998D03*
X011250Y005328D03*
X010750Y023328D03*
X010750Y023998D03*
D29*
X004056Y010413D03*
X002444Y010413D03*
D30*
X002502Y007913D03*
X003998Y007913D03*
D31*
X007750Y020519D03*
X007750Y021307D03*
D32*
X010500Y017358D03*
X010500Y015468D03*
D33*
X010606Y015362D01*
X012500Y015362D01*
X013449Y015362D01*
X014000Y015913D01*
X014000Y017413D01*
X012750Y017413D01*
X012500Y017663D01*
X012500Y017718D01*
X012445Y017663D01*
X011750Y017663D01*
X011500Y017913D01*
X011500Y018736D01*
X011500Y019090D02*
X011500Y020112D01*
X011500Y020108D01*
X012500Y020108D01*
X012500Y019608D01*
X013029Y019631D02*
X013206Y019631D01*
X013225Y019678D02*
X013160Y019520D01*
X013160Y019306D01*
X013242Y019107D01*
X013394Y018955D01*
X013522Y018902D01*
X013500Y018895D01*
X013427Y018858D01*
X013361Y018810D01*
X013303Y018752D01*
X013255Y018686D01*
X013218Y018613D01*
X013193Y018535D01*
X013180Y018454D01*
X013180Y018413D01*
X014000Y018413D01*
X014000Y018413D01*
X013180Y018413D01*
X013180Y018372D01*
X013193Y018291D01*
X013218Y018213D01*
X013255Y018140D01*
X013303Y018074D01*
X013361Y018016D01*
X013427Y017968D01*
X013500Y017931D01*
X013522Y017924D01*
X013394Y017871D01*
X013296Y017773D01*
X013029Y017773D01*
X013029Y018114D01*
X012993Y018202D01*
X012925Y018270D01*
X012837Y018307D01*
X012163Y018307D01*
X012075Y018270D01*
X012007Y018202D01*
X011971Y018114D01*
X011971Y018023D01*
X011899Y018023D01*
X011860Y018062D01*
X011860Y018397D01*
X011886Y018407D01*
X011953Y018475D01*
X011990Y018563D01*
X011990Y018909D01*
X011988Y018913D01*
X011990Y018917D01*
X011990Y019165D01*
X012007Y019123D01*
X012075Y019056D01*
X012163Y019019D01*
X012837Y019019D01*
X012925Y019056D01*
X012993Y019123D01*
X013029Y019212D01*
X013029Y019748D01*
X013156Y019748D01*
X013225Y019678D01*
X013160Y019393D02*
X013029Y019393D01*
X013005Y019154D02*
X013223Y019154D01*
X013490Y018916D02*
X011989Y018916D01*
X011990Y019154D02*
X011995Y019154D01*
X011990Y018677D02*
X013251Y018677D01*
X013180Y018439D02*
X011917Y018439D01*
X011860Y018200D02*
X012006Y018200D01*
X011189Y017723D02*
X010996Y017723D01*
X011140Y017841D02*
X011195Y017709D01*
X011445Y017459D01*
X011546Y017358D01*
X011678Y017303D01*
X011978Y017303D01*
X012007Y017234D01*
X012075Y017166D01*
X012163Y017130D01*
X012524Y017130D01*
X012546Y017108D01*
X012618Y017078D01*
X012500Y017078D01*
X012235Y017078D01*
X012179Y017063D01*
X012129Y017034D01*
X012088Y016993D01*
X012059Y016943D01*
X012044Y016887D01*
X012044Y016464D01*
X012044Y016042D01*
X012059Y015986D01*
X012088Y015935D01*
X012096Y015927D01*
X012060Y015891D01*
X012024Y015803D01*
X012024Y015722D01*
X011016Y015722D01*
X011016Y016106D01*
X010979Y016195D01*
X010912Y016262D01*
X010823Y016299D01*
X010177Y016299D01*
X010088Y016262D01*
X010021Y016195D01*
X009984Y016106D01*
X009984Y014830D01*
X010021Y014742D01*
X010088Y014674D01*
X010177Y014638D01*
X010823Y014638D01*
X010912Y014674D01*
X010979Y014742D01*
X011016Y014830D01*
X011016Y015002D01*
X012024Y015002D01*
X012024Y014920D01*
X012060Y014832D01*
X012128Y014765D01*
X012216Y014728D01*
X012784Y014728D01*
X012872Y014765D01*
X012940Y014832D01*
X012976Y014920D01*
X012976Y015002D01*
X013520Y015002D01*
X013653Y015057D01*
X014082Y015486D01*
X014082Y015240D01*
X014327Y014995D01*
X014673Y014995D01*
X014811Y015133D01*
X031890Y015133D01*
X031890Y014693D01*
X013944Y014693D01*
X013841Y014650D01*
X013687Y014496D01*
X013621Y014523D01*
X013379Y014523D01*
X013154Y014430D01*
X013000Y014276D01*
X012846Y014430D01*
X012621Y014523D01*
X012379Y014523D01*
X012154Y014430D01*
X012000Y014276D01*
X011846Y014430D01*
X011621Y014523D01*
X011379Y014523D01*
X011154Y014430D01*
X011000Y014276D01*
X010846Y014430D01*
X010621Y014523D01*
X010379Y014523D01*
X010154Y014430D01*
X010000Y014276D01*
X009846Y014430D01*
X009621Y014523D01*
X009379Y014523D01*
X009154Y014430D01*
X009000Y014276D01*
X008846Y014430D01*
X008621Y014523D01*
X008379Y014523D01*
X008154Y014430D01*
X008000Y014276D01*
X007846Y014430D01*
X007621Y014523D01*
X007379Y014523D01*
X007154Y014430D01*
X006983Y014259D01*
X006890Y014034D01*
X006890Y013792D01*
X006983Y013567D01*
X007154Y013396D01*
X007220Y013369D01*
X007220Y010357D01*
X007263Y010254D01*
X007341Y010176D01*
X007841Y009676D01*
X007944Y009633D01*
X009129Y009633D01*
X009082Y009586D01*
X009082Y009240D01*
X009129Y009193D01*
X008811Y009193D01*
X008673Y009331D01*
X008327Y009331D01*
X008082Y009086D01*
X008082Y008740D01*
X008129Y008693D01*
X007944Y008693D01*
X007841Y008650D01*
X007687Y008496D01*
X007621Y008523D01*
X007379Y008523D01*
X007154Y008430D01*
X006983Y008259D01*
X006890Y008034D01*
X006890Y007792D01*
X006983Y007567D01*
X007154Y007396D01*
X007379Y007303D01*
X007621Y007303D01*
X007846Y007396D01*
X008000Y007550D01*
X008154Y007396D01*
X008379Y007303D01*
X008621Y007303D01*
X008846Y007396D01*
X009000Y007550D01*
X009154Y007396D01*
X009379Y007303D01*
X009621Y007303D01*
X009846Y007396D01*
X010000Y007550D01*
X010154Y007396D01*
X010379Y007303D01*
X010621Y007303D01*
X010846Y007396D01*
X011000Y007550D01*
X011154Y007396D01*
X011379Y007303D01*
X011621Y007303D01*
X011846Y007396D01*
X012000Y007550D01*
X012154Y007396D01*
X012379Y007303D01*
X012621Y007303D01*
X012846Y007396D01*
X013000Y007550D01*
X013154Y007396D01*
X013379Y007303D01*
X013621Y007303D01*
X013846Y007396D01*
X014000Y007550D01*
X014140Y007410D01*
X014140Y007273D01*
X006649Y007273D01*
X006360Y007562D01*
X006360Y007682D01*
X006418Y007740D01*
X006418Y008086D01*
X006173Y008331D01*
X005827Y008331D01*
X005582Y008086D01*
X005582Y007740D01*
X005640Y007682D01*
X005640Y007341D01*
X005695Y007209D01*
X006195Y006709D01*
X006296Y006608D01*
X006428Y006553D01*
X014082Y006553D01*
X014082Y006240D01*
X014220Y006102D01*
X014220Y004724D01*
X014082Y004586D01*
X014082Y004273D01*
X013702Y004273D01*
X013804Y004376D01*
X013949Y004724D01*
X013949Y005102D01*
X013804Y005450D01*
X013537Y005717D01*
X013189Y005862D01*
X012811Y005862D01*
X012463Y005717D01*
X012196Y005450D01*
X012051Y005102D01*
X012051Y004724D01*
X012196Y004376D01*
X012298Y004273D01*
X011649Y004273D01*
X011610Y004312D01*
X011610Y004839D01*
X011681Y004869D01*
X011749Y004936D01*
X011785Y005025D01*
X011785Y005632D01*
X011772Y005663D01*
X011785Y005694D01*
X011785Y006301D01*
X011749Y006389D01*
X011681Y006457D01*
X011593Y006494D01*
X010907Y006494D01*
X010819Y006457D01*
X010751Y006389D01*
X010715Y006301D01*
X010715Y006290D01*
X010673Y006331D01*
X010327Y006331D01*
X010082Y006086D01*
X010082Y005740D01*
X010327Y005495D01*
X010673Y005495D01*
X010715Y005536D01*
X010715Y005025D01*
X010751Y004936D01*
X010819Y004869D01*
X010890Y004839D01*
X010890Y004091D01*
X010945Y003959D01*
X011046Y003858D01*
X011195Y003709D01*
X011241Y003663D01*
X009341Y003663D01*
X009418Y003740D01*
X009418Y004086D01*
X009173Y004331D01*
X008827Y004331D01*
X008769Y004273D01*
X005649Y004273D01*
X005360Y004562D01*
X005360Y004940D01*
X005404Y004896D01*
X005629Y004803D01*
X005871Y004803D01*
X006096Y004896D01*
X006250Y005050D01*
X006404Y004896D01*
X006629Y004803D01*
X006871Y004803D01*
X007096Y004896D01*
X007250Y005050D01*
X007404Y004896D01*
X007629Y004803D01*
X007871Y004803D01*
X008096Y004896D01*
X008267Y005067D01*
X008360Y005292D01*
X008360Y005534D01*
X008267Y005759D01*
X008096Y005930D01*
X007871Y006023D01*
X007629Y006023D01*
X007404Y005930D01*
X007250Y005776D01*
X007096Y005930D01*
X006871Y006023D01*
X006629Y006023D01*
X006404Y005930D01*
X006250Y005776D01*
X006096Y005930D01*
X005871Y006023D01*
X005629Y006023D01*
X005404Y005930D01*
X005360Y005886D01*
X005360Y013985D01*
X005305Y014117D01*
X005204Y014218D01*
X004704Y014718D01*
X004572Y014773D01*
X004003Y014773D01*
X003846Y014930D01*
X003621Y015023D01*
X003379Y015023D01*
X003154Y014930D01*
X002983Y014759D01*
X002890Y014534D01*
X002890Y014292D01*
X002983Y014067D01*
X003137Y013913D01*
X002983Y013759D01*
X002890Y013534D01*
X002890Y013292D01*
X002983Y013067D01*
X003137Y012913D01*
X002983Y012759D01*
X002890Y012534D01*
X002890Y012292D01*
X002983Y012067D01*
X003154Y011896D01*
X003379Y011803D01*
X003621Y011803D01*
X003846Y011896D01*
X004017Y012067D01*
X004110Y012292D01*
X004110Y012534D01*
X004017Y012759D01*
X003863Y012913D01*
X004017Y013067D01*
X004110Y013292D01*
X004110Y013534D01*
X004017Y013759D01*
X003863Y013913D01*
X004003Y014053D01*
X004351Y014053D01*
X004640Y013764D01*
X004640Y011167D01*
X004553Y011203D01*
X003558Y011203D01*
X003470Y011166D01*
X003402Y011099D01*
X003366Y011011D01*
X003366Y010232D01*
X003134Y010001D01*
X003134Y011011D01*
X003098Y011099D01*
X003030Y011166D01*
X002942Y011203D01*
X002881Y011203D01*
X002918Y011240D01*
X002918Y011586D01*
X002673Y011831D01*
X002327Y011831D01*
X002082Y011586D01*
X002082Y011240D01*
X002084Y011237D01*
X002084Y011203D01*
X001947Y011203D01*
X001859Y011166D01*
X001791Y011099D01*
X001754Y011011D01*
X001754Y009815D01*
X001791Y009727D01*
X001859Y009660D01*
X001947Y009623D01*
X002084Y009623D01*
X002084Y008631D01*
X002031Y008609D01*
X001964Y008541D01*
X001927Y008453D01*
X001927Y007373D01*
X001964Y007285D01*
X001979Y007270D01*
X001972Y007268D01*
X001884Y007240D01*
X001801Y007198D01*
X001750Y007161D01*
X001750Y025163D01*
X010409Y025163D01*
X010332Y025086D01*
X010332Y024740D01*
X010470Y024602D01*
X010470Y024494D01*
X010407Y024494D01*
X010319Y024457D01*
X010251Y024389D01*
X010215Y024301D01*
X010215Y023694D01*
X010228Y023663D01*
X010215Y023632D01*
X010215Y023025D01*
X010251Y022936D01*
X010319Y022869D01*
X010390Y022839D01*
X010390Y022644D01*
X010332Y022586D01*
X010332Y022240D01*
X010577Y021995D01*
X010923Y021995D01*
X010981Y022053D01*
X011851Y022053D01*
X012445Y021459D01*
X012546Y021358D01*
X013478Y020426D01*
X013377Y020468D01*
X011976Y020468D01*
X011976Y020553D01*
X011940Y020641D01*
X011904Y020677D01*
X011912Y020685D01*
X011941Y020736D01*
X011956Y020792D01*
X011956Y021214D01*
X011500Y021214D01*
X011044Y021214D01*
X011044Y020792D01*
X011059Y020736D01*
X011088Y020685D01*
X011096Y020677D01*
X011060Y020641D01*
X011024Y020553D01*
X011024Y020523D01*
X008928Y020523D01*
X008796Y020468D01*
X008695Y020367D01*
X008195Y019867D01*
X008168Y019802D01*
X008168Y019836D01*
X008110Y019894D01*
X008110Y020023D01*
X008113Y020023D01*
X008201Y020060D01*
X008268Y020127D01*
X008305Y020216D01*
X008305Y020823D01*
X008268Y020911D01*
X008249Y020930D01*
X008270Y020966D01*
X008285Y021022D01*
X008285Y021299D01*
X007758Y021299D01*
X007758Y021315D01*
X007742Y021315D01*
X007742Y021783D01*
X007406Y021783D01*
X007350Y021768D01*
X007300Y021739D01*
X007259Y021698D01*
X007230Y021648D01*
X007215Y021592D01*
X007215Y021315D01*
X007742Y021315D01*
X007742Y021299D01*
X007215Y021299D01*
X007215Y021022D01*
X007230Y020966D01*
X007251Y020930D01*
X007232Y020911D01*
X007214Y020870D01*
X007214Y021985D01*
X007160Y022117D01*
X007058Y022218D01*
X006824Y022453D01*
X006851Y022500D01*
X006924Y022772D01*
X006924Y023054D01*
X006851Y023326D01*
X006710Y023570D01*
X006511Y023769D01*
X006267Y023910D01*
X005995Y023983D01*
X005713Y023983D01*
X005441Y023910D01*
X005197Y023769D01*
X004998Y023570D01*
X004857Y023326D01*
X004784Y023054D01*
X004784Y022772D01*
X004857Y022500D01*
X004998Y022256D01*
X005197Y022057D01*
X005441Y021916D01*
X005713Y021843D01*
X005995Y021843D01*
X006267Y021916D01*
X006315Y021943D01*
X006494Y021764D01*
X006494Y019273D01*
X005065Y019273D01*
X004938Y019400D01*
X004720Y019490D01*
X003780Y019490D01*
X003562Y019400D01*
X003395Y019233D01*
X003305Y019015D01*
X003305Y018779D01*
X003395Y018562D01*
X003562Y018395D01*
X003780Y018305D01*
X004720Y018305D01*
X004730Y018309D01*
X004730Y018203D01*
X004809Y018012D01*
X004922Y017899D01*
X004869Y017845D01*
X004822Y017781D01*
X004787Y017711D01*
X004762Y017636D01*
X004750Y017559D01*
X004750Y017519D01*
X004750Y017483D01*
X004737Y017487D01*
X004648Y017501D01*
X004250Y017501D01*
X003852Y017501D01*
X003763Y017487D01*
X003678Y017459D01*
X003597Y017418D01*
X003525Y017365D01*
X003461Y017302D01*
X003408Y017229D01*
X003367Y017149D01*
X003339Y017063D01*
X003325Y016974D01*
X003325Y016929D01*
X004250Y016929D01*
X004250Y017501D01*
X004250Y016929D01*
X004250Y016929D01*
X005175Y016929D01*
X005175Y016974D01*
X005167Y017026D01*
X005211Y017019D01*
X005250Y017019D01*
X005289Y017019D01*
X005367Y017032D01*
X005442Y017056D01*
X005512Y017092D01*
X005576Y017138D01*
X005631Y017194D01*
X005678Y017257D01*
X005713Y017327D01*
X005738Y017402D01*
X005750Y017480D01*
X005750Y017519D01*
X005250Y017519D01*
X005250Y017019D01*
X005250Y017519D01*
X005250Y017519D01*
X005250Y017519D01*
X004750Y017519D01*
X005250Y017519D01*
X005250Y017519D01*
X005750Y017519D01*
X005750Y017559D01*
X005738Y017636D01*
X005713Y017711D01*
X005678Y017781D01*
X005631Y017845D01*
X005578Y017899D01*
X005691Y018012D01*
X005770Y018203D01*
X005770Y018410D01*
X005711Y018553D01*
X006494Y018553D01*
X006494Y017487D01*
X006549Y017355D01*
X006945Y016959D01*
X007046Y016858D01*
X007178Y016803D01*
X007460Y016803D01*
X007460Y016721D01*
X007497Y016633D01*
X007564Y016565D01*
X007652Y016529D01*
X008662Y016529D01*
X008431Y016297D01*
X007652Y016297D01*
X007564Y016261D01*
X007497Y016193D01*
X007460Y016105D01*
X007460Y016023D01*
X006731Y016023D01*
X006673Y016081D01*
X006327Y016081D01*
X006082Y015836D01*
X006082Y015490D01*
X006327Y015245D01*
X006673Y015245D01*
X006731Y015303D01*
X007460Y015303D01*
X007460Y015110D01*
X007497Y015022D01*
X007564Y014954D01*
X007652Y014917D01*
X008848Y014917D01*
X008936Y014954D01*
X009003Y015022D01*
X009040Y015110D01*
X009040Y015888D01*
X009982Y016831D01*
X010004Y016884D01*
X010004Y016738D01*
X010019Y016682D01*
X010048Y016632D01*
X010089Y016591D01*
X010139Y016562D01*
X010195Y016547D01*
X010482Y016547D01*
X010482Y017340D01*
X010518Y017340D01*
X010518Y017376D01*
X010482Y017376D01*
X010482Y018168D01*
X010195Y018168D01*
X010139Y018153D01*
X010089Y018124D01*
X010048Y018084D01*
X010037Y018064D01*
X010037Y018103D01*
X010042Y018115D01*
X010042Y018269D01*
X010305Y018532D01*
X010360Y018664D01*
X010360Y018889D01*
X010425Y018916D01*
X010493Y018984D01*
X010529Y019072D01*
X010529Y019803D01*
X011024Y019803D01*
X011024Y019670D01*
X011060Y019582D01*
X011128Y019515D01*
X011140Y019510D01*
X011140Y019429D01*
X011114Y019419D01*
X011047Y019351D01*
X011010Y019263D01*
X011010Y018917D01*
X011012Y018913D01*
X011010Y018909D01*
X011010Y018563D01*
X011047Y018475D01*
X011114Y018407D01*
X011140Y018397D01*
X011140Y017841D01*
X011140Y017962D02*
X010996Y017962D01*
X010996Y017977D02*
X010981Y018033D01*
X010952Y018084D01*
X010911Y018124D01*
X010861Y018153D01*
X010805Y018168D01*
X010518Y018168D01*
X010518Y017376D01*
X010996Y017376D01*
X010996Y017977D01*
X011140Y018200D02*
X010042Y018200D01*
X010212Y018439D02*
X011083Y018439D01*
X011010Y018677D02*
X010360Y018677D01*
X010424Y018916D02*
X011011Y018916D01*
X011010Y019154D02*
X010529Y019154D01*
X010529Y019393D02*
X011088Y019393D01*
X011040Y019631D02*
X010529Y019631D01*
X010000Y019468D02*
X010000Y018736D01*
X009677Y018413D01*
X009677Y017035D01*
X008250Y015607D01*
X008194Y015663D01*
X006500Y015663D01*
X006234Y015338D02*
X001750Y015338D01*
X001750Y015100D02*
X007464Y015100D01*
X007108Y014384D02*
X005038Y014384D01*
X004800Y014623D02*
X013814Y014623D01*
X013696Y015100D02*
X014222Y015100D01*
X014082Y015338D02*
X013934Y015338D01*
X013393Y015815D02*
X012971Y015815D01*
X012976Y015803D02*
X012940Y015891D01*
X012904Y015927D01*
X012912Y015935D01*
X012941Y015986D01*
X012956Y016042D01*
X012956Y016464D01*
X012500Y016464D01*
X012500Y016464D01*
X012044Y016464D01*
X012500Y016464D01*
X012500Y016464D01*
X012956Y016464D01*
X012956Y016887D01*
X012941Y016943D01*
X012912Y016993D01*
X012871Y017034D01*
X012838Y017053D01*
X013296Y017053D01*
X013394Y016955D01*
X013593Y016873D01*
X013640Y016873D01*
X013640Y016062D01*
X013300Y015722D01*
X012976Y015722D01*
X012976Y015803D01*
X012956Y016054D02*
X013631Y016054D01*
X013640Y016292D02*
X012956Y016292D01*
X012956Y016531D02*
X013640Y016531D01*
X013640Y016769D02*
X012956Y016769D01*
X012898Y017008D02*
X013342Y017008D01*
X012500Y017008D02*
X012500Y017008D01*
X012500Y017078D02*
X012500Y016464D01*
X012500Y017078D01*
X012500Y016769D02*
X012500Y016769D01*
X012500Y016531D02*
X012500Y016531D01*
X012500Y016464D02*
X012500Y016464D01*
X012044Y016531D02*
X009682Y016531D01*
X009921Y016769D02*
X010004Y016769D01*
X010482Y016769D02*
X010518Y016769D01*
X010518Y016547D02*
X010805Y016547D01*
X010861Y016562D01*
X010911Y016591D01*
X010952Y016632D01*
X010981Y016682D01*
X010996Y016738D01*
X010996Y017340D01*
X010518Y017340D01*
X010518Y016547D01*
X010839Y016292D02*
X012044Y016292D01*
X012044Y016054D02*
X011016Y016054D01*
X011016Y015815D02*
X012029Y015815D01*
X012044Y016769D02*
X010996Y016769D01*
X010996Y017008D02*
X012102Y017008D01*
X012002Y017246D02*
X010996Y017246D01*
X010996Y017485D02*
X011419Y017485D01*
X010518Y017485D02*
X010482Y017485D01*
X010482Y017723D02*
X010518Y017723D01*
X010518Y017962D02*
X010482Y017962D01*
X010482Y017246D02*
X010518Y017246D01*
X010518Y017008D02*
X010482Y017008D01*
X010161Y016292D02*
X009444Y016292D01*
X009205Y016054D02*
X009984Y016054D01*
X009984Y015815D02*
X009040Y015815D01*
X009040Y015577D02*
X009984Y015577D01*
X009984Y015338D02*
X009040Y015338D01*
X009036Y015100D02*
X009984Y015100D01*
X009984Y014861D02*
X003915Y014861D01*
X003500Y014413D02*
X004500Y014413D01*
X005000Y013913D01*
X005000Y009163D01*
X004250Y009163D01*
X004456Y008588D02*
X004596Y008646D01*
X004640Y008690D01*
X004640Y004341D01*
X004695Y004209D01*
X005195Y003709D01*
X005241Y003663D01*
X004283Y003663D01*
X004407Y003787D01*
X004500Y004012D01*
X004500Y004254D01*
X004407Y004479D01*
X004236Y004650D01*
X004011Y004743D01*
X003769Y004743D01*
X003544Y004650D01*
X003373Y004479D01*
X003280Y004254D01*
X003280Y004012D01*
X003373Y003787D01*
X003497Y003663D01*
X002467Y003663D01*
X002494Y003683D01*
X002560Y003749D01*
X002615Y003824D01*
X002657Y003907D01*
X002685Y003995D01*
X002700Y004087D01*
X002700Y004133D01*
X002700Y004179D01*
X002685Y004271D01*
X002657Y004359D01*
X002615Y004442D01*
X002560Y004517D01*
X002494Y004583D01*
X002419Y004638D01*
X002336Y004680D01*
X002248Y004708D01*
X002156Y004723D01*
X002110Y004723D01*
X002110Y004133D01*
X002110Y004133D01*
X002110Y004723D01*
X002064Y004723D01*
X001972Y004708D01*
X001884Y004680D01*
X001801Y004638D01*
X001750Y004601D01*
X001750Y006225D01*
X001801Y006188D01*
X001884Y006146D01*
X001972Y006118D01*
X002064Y006103D01*
X002110Y006103D01*
X002156Y006103D01*
X002248Y006118D01*
X002336Y006146D01*
X002419Y006188D01*
X002494Y006243D01*
X002560Y006309D01*
X002615Y006384D01*
X002657Y006467D01*
X002685Y006555D01*
X002700Y006647D01*
X002700Y006693D01*
X002700Y006739D01*
X002685Y006831D01*
X002657Y006919D01*
X002615Y007002D01*
X002560Y007077D01*
X002494Y007143D01*
X002442Y007181D01*
X002884Y007181D01*
X002973Y007217D01*
X003040Y007285D01*
X003077Y007373D01*
X003077Y008453D01*
X003040Y008541D01*
X002973Y008609D01*
X002884Y008645D01*
X002804Y008645D01*
X002804Y008746D01*
X002904Y008646D01*
X003129Y008553D01*
X003371Y008553D01*
X003596Y008646D01*
X003750Y008800D01*
X003904Y008646D01*
X004045Y008588D01*
X004045Y007960D01*
X004553Y007960D01*
X004553Y008434D01*
X004538Y008490D01*
X004509Y008540D01*
X004468Y008581D01*
X004456Y008588D01*
X004610Y008660D02*
X004640Y008660D01*
X004640Y008421D02*
X004553Y008421D01*
X004553Y008183D02*
X004640Y008183D01*
X004640Y007944D02*
X004045Y007944D01*
X004045Y007960D02*
X004045Y007866D01*
X004553Y007866D01*
X004553Y007392D01*
X004538Y007336D01*
X004509Y007286D01*
X004468Y007245D01*
X004418Y007216D01*
X004362Y007201D01*
X004245Y007201D01*
X004407Y007039D01*
X004500Y006814D01*
X004500Y006572D01*
X004407Y006347D01*
X004236Y006176D01*
X004011Y006083D01*
X003769Y006083D01*
X003544Y006176D01*
X003373Y006347D01*
X003280Y006572D01*
X003280Y006814D01*
X003373Y007039D01*
X003544Y007210D01*
X003570Y007221D01*
X003528Y007245D01*
X003487Y007286D01*
X003458Y007336D01*
X003443Y007392D01*
X003443Y007866D01*
X003951Y007866D01*
X003951Y007960D01*
X003443Y007960D01*
X003443Y008434D01*
X003458Y008490D01*
X003487Y008540D01*
X003528Y008581D01*
X003578Y008610D01*
X003634Y008625D01*
X003951Y008625D01*
X003951Y007960D01*
X004045Y007960D01*
X003951Y007944D02*
X003077Y007944D01*
X003077Y007706D02*
X003443Y007706D01*
X003443Y007467D02*
X003077Y007467D01*
X002984Y007229D02*
X003556Y007229D01*
X003353Y006990D02*
X002621Y006990D01*
X002698Y006752D02*
X003280Y006752D01*
X003304Y006513D02*
X002672Y006513D01*
X002700Y006693D02*
X002110Y006693D01*
X002700Y006693D01*
X002110Y006693D02*
X002110Y006693D01*
X002110Y006103D01*
X002110Y006693D01*
X002110Y006693D01*
X002110Y006513D02*
X002110Y006513D01*
X002110Y006275D02*
X002110Y006275D01*
X002526Y006275D02*
X003445Y006275D01*
X004335Y006275D02*
X004640Y006275D01*
X004640Y006513D02*
X004476Y006513D01*
X004500Y006752D02*
X004640Y006752D01*
X004640Y006990D02*
X004427Y006990D01*
X004440Y007229D02*
X004640Y007229D01*
X004640Y007467D02*
X004553Y007467D01*
X004553Y007706D02*
X004640Y007706D01*
X005360Y007706D02*
X005616Y007706D01*
X005640Y007467D02*
X005360Y007467D01*
X005360Y007229D02*
X005687Y007229D01*
X005913Y006990D02*
X005360Y006990D01*
X005360Y006752D02*
X006152Y006752D01*
X006500Y006913D02*
X014500Y006913D01*
X014500Y007913D01*
X015500Y007913D02*
X015500Y007913D01*
X015500Y007323D01*
X015546Y007323D01*
X015638Y007338D01*
X015726Y007366D01*
X015809Y007408D01*
X015884Y007463D01*
X015950Y007529D01*
X015981Y007572D01*
X015983Y007567D01*
X016154Y007396D01*
X016379Y007303D01*
X016621Y007303D01*
X016846Y007396D01*
X017000Y007550D01*
X017154Y007396D01*
X017379Y007303D01*
X017621Y007303D01*
X017846Y007396D01*
X018000Y007550D01*
X018154Y007396D01*
X018379Y007303D01*
X018621Y007303D01*
X018846Y007396D01*
X019000Y007550D01*
X019154Y007396D01*
X019379Y007303D01*
X019621Y007303D01*
X019846Y007396D01*
X020000Y007550D01*
X020154Y007396D01*
X020379Y007303D01*
X020621Y007303D01*
X020846Y007396D01*
X021000Y007550D01*
X021154Y007396D01*
X021379Y007303D01*
X021621Y007303D01*
X021846Y007396D01*
X022000Y007550D01*
X022154Y007396D01*
X022379Y007303D01*
X022621Y007303D01*
X022846Y007396D01*
X023000Y007550D01*
X023154Y007396D01*
X023379Y007303D01*
X023621Y007303D01*
X023846Y007396D01*
X024000Y007550D01*
X024154Y007396D01*
X024379Y007303D01*
X024621Y007303D01*
X024687Y007330D01*
X024841Y007176D01*
X024944Y007133D01*
X026884Y007133D01*
X027994Y006023D01*
X026899Y006023D01*
X026204Y006718D01*
X026072Y006773D01*
X019149Y006773D01*
X018704Y007218D01*
X018572Y007273D01*
X014860Y007273D01*
X014860Y007410D01*
X015017Y007567D01*
X015019Y007572D01*
X015050Y007529D01*
X015116Y007463D01*
X015191Y007408D01*
X015274Y007366D01*
X015362Y007338D01*
X015454Y007323D01*
X015500Y007323D01*
X015500Y007913D01*
X015500Y007706D02*
X015500Y007706D01*
X015500Y007467D02*
X015500Y007467D01*
X015889Y007467D02*
X016083Y007467D01*
X015111Y007467D02*
X014917Y007467D01*
X014083Y007467D02*
X013917Y007467D01*
X013083Y007467D02*
X012917Y007467D01*
X012083Y007467D02*
X011917Y007467D01*
X011083Y007467D02*
X010917Y007467D01*
X010083Y007467D02*
X009917Y007467D01*
X009083Y007467D02*
X008917Y007467D01*
X008083Y007467D02*
X007917Y007467D01*
X007083Y007467D02*
X006455Y007467D01*
X006384Y007706D02*
X006925Y007706D01*
X006890Y007944D02*
X006418Y007944D01*
X006321Y008183D02*
X006952Y008183D01*
X007146Y008421D02*
X005360Y008421D01*
X005360Y008183D02*
X005679Y008183D01*
X005582Y007944D02*
X005360Y007944D01*
X006000Y007913D02*
X006000Y007413D01*
X006500Y006913D01*
X005360Y006513D02*
X014082Y006513D01*
X014082Y006275D02*
X011785Y006275D01*
X011785Y006036D02*
X014220Y006036D01*
X014220Y005798D02*
X013342Y005798D01*
X013695Y005559D02*
X014220Y005559D01*
X014220Y005321D02*
X013858Y005321D01*
X013949Y005082D02*
X014220Y005082D01*
X014220Y004844D02*
X013949Y004844D01*
X013899Y004605D02*
X014101Y004605D01*
X014082Y004367D02*
X013796Y004367D01*
X014780Y004724D02*
X014780Y006102D01*
X014918Y006240D01*
X014918Y006553D01*
X018351Y006553D01*
X018631Y006273D01*
X016503Y006273D01*
X016346Y006430D01*
X016121Y006523D01*
X015879Y006523D01*
X015654Y006430D01*
X015483Y006259D01*
X015390Y006034D01*
X015390Y005792D01*
X015483Y005567D01*
X015637Y005413D01*
X015483Y005259D01*
X015390Y005034D01*
X015390Y004792D01*
X015483Y004567D01*
X015640Y004410D01*
X015640Y004273D01*
X014918Y004273D01*
X014918Y004586D01*
X014780Y004724D01*
X014780Y004844D02*
X015390Y004844D01*
X015410Y005082D02*
X014780Y005082D01*
X014780Y005321D02*
X015545Y005321D01*
X015491Y005559D02*
X014780Y005559D01*
X014780Y005798D02*
X015390Y005798D01*
X015391Y006036D02*
X014780Y006036D01*
X014918Y006275D02*
X015499Y006275D01*
X015856Y006513D02*
X014918Y006513D01*
X014500Y006913D02*
X018500Y006913D01*
X019000Y006413D01*
X026000Y006413D01*
X026750Y005663D01*
X034750Y005663D01*
X035500Y004913D01*
X040000Y004913D01*
X040500Y005413D01*
X040500Y015663D01*
X040250Y015913D01*
X039500Y015913D01*
X039946Y015553D02*
X040101Y015553D01*
X040140Y015514D01*
X040140Y005562D01*
X039851Y005273D01*
X035649Y005273D01*
X035289Y005633D01*
X036556Y005633D01*
X036659Y005676D01*
X036737Y005754D01*
X036737Y005754D01*
X037116Y006133D01*
X037995Y006133D01*
X037990Y006124D01*
X037964Y006042D01*
X037950Y005956D01*
X037950Y005913D01*
X038500Y005913D01*
X039500Y005913D01*
X040050Y005913D01*
X040050Y005956D01*
X040036Y006042D01*
X040010Y006124D01*
X039970Y006201D01*
X039920Y006271D01*
X039858Y006333D01*
X039788Y006383D01*
X039754Y006401D01*
X039823Y006430D01*
X039983Y006590D01*
X040070Y006800D01*
X040070Y007026D01*
X039983Y007236D01*
X039823Y007396D01*
X039782Y007413D01*
X039823Y007430D01*
X039983Y007590D01*
X040070Y007800D01*
X040070Y008026D01*
X039983Y008236D01*
X039823Y008396D01*
X039782Y008413D01*
X039823Y008430D01*
X039983Y008590D01*
X040070Y008800D01*
X040070Y009026D01*
X039983Y009236D01*
X039823Y009396D01*
X039782Y009413D01*
X039823Y009430D01*
X039983Y009590D01*
X040070Y009800D01*
X040070Y010026D01*
X039983Y010236D01*
X039823Y010396D01*
X039782Y010413D01*
X039823Y010430D01*
X039983Y010590D01*
X040070Y010800D01*
X040070Y011026D01*
X039983Y011236D01*
X039823Y011396D01*
X039782Y011413D01*
X039823Y011430D01*
X039983Y011590D01*
X040070Y011800D01*
X040070Y012026D01*
X039983Y012236D01*
X039823Y012396D01*
X039782Y012413D01*
X039823Y012430D01*
X039983Y012590D01*
X040070Y012800D01*
X040070Y013026D01*
X039983Y013236D01*
X039823Y013396D01*
X039782Y013413D01*
X039823Y013430D01*
X040140Y013430D01*
X039983Y013590D02*
X040070Y013800D01*
X040070Y014026D01*
X039983Y014236D01*
X039823Y014396D01*
X039782Y014413D01*
X039823Y014430D01*
X039983Y014590D01*
X040070Y014800D01*
X040070Y015026D01*
X039983Y015236D01*
X039823Y015396D01*
X039782Y015413D01*
X039823Y015430D01*
X039946Y015553D01*
X039881Y015338D02*
X040140Y015338D01*
X040140Y015100D02*
X040040Y015100D01*
X040070Y014861D02*
X040140Y014861D01*
X040140Y014623D02*
X039997Y014623D01*
X040140Y014384D02*
X039835Y014384D01*
X040021Y014146D02*
X040140Y014146D01*
X040140Y013907D02*
X040070Y013907D01*
X040016Y013669D02*
X040140Y013669D01*
X039983Y013590D02*
X039823Y013430D01*
X040002Y013192D02*
X040140Y013192D01*
X040140Y012953D02*
X040070Y012953D01*
X040035Y012715D02*
X040140Y012715D01*
X040140Y012476D02*
X039869Y012476D01*
X039982Y012238D02*
X040140Y012238D01*
X040140Y011999D02*
X040070Y011999D01*
X040054Y011761D02*
X040140Y011761D01*
X040140Y011522D02*
X039915Y011522D01*
X039936Y011284D02*
X040140Y011284D01*
X040140Y011045D02*
X040062Y011045D01*
X040070Y010806D02*
X040140Y010806D01*
X040140Y010568D02*
X039961Y010568D01*
X039890Y010329D02*
X040140Y010329D01*
X040140Y010091D02*
X040043Y010091D01*
X040070Y009852D02*
X040140Y009852D01*
X040140Y009614D02*
X039993Y009614D01*
X040140Y009375D02*
X039844Y009375D01*
X040024Y009137D02*
X040140Y009137D01*
X040140Y008898D02*
X040070Y008898D01*
X040012Y008660D02*
X040140Y008660D01*
X040140Y008421D02*
X039803Y008421D01*
X040005Y008183D02*
X040140Y008183D01*
X040140Y007944D02*
X040070Y007944D01*
X040031Y007706D02*
X040140Y007706D01*
X040140Y007467D02*
X039861Y007467D01*
X039986Y007229D02*
X040140Y007229D01*
X040140Y006990D02*
X040070Y006990D01*
X040050Y006752D02*
X040140Y006752D01*
X040140Y006513D02*
X039907Y006513D01*
X039916Y006275D02*
X040140Y006275D01*
X040140Y006036D02*
X040037Y006036D01*
X040050Y005913D02*
X039500Y005913D01*
X039500Y005913D01*
X039500Y005913D01*
X039050Y005913D01*
X038500Y005913D01*
X038500Y005913D01*
X038500Y005913D01*
X037950Y005913D01*
X037950Y005870D01*
X037964Y005784D01*
X037990Y005702D01*
X038030Y005625D01*
X038080Y005555D01*
X038142Y005493D01*
X038212Y005443D01*
X038289Y005403D01*
X038371Y005377D01*
X038457Y005363D01*
X038500Y005363D01*
X038543Y005363D01*
X038629Y005377D01*
X038711Y005403D01*
X038788Y005443D01*
X038858Y005493D01*
X038920Y005555D01*
X038970Y005625D01*
X039000Y005683D01*
X039030Y005625D01*
X039080Y005555D01*
X039142Y005493D01*
X039212Y005443D01*
X039289Y005403D01*
X039371Y005377D01*
X039457Y005363D01*
X039500Y005363D01*
X039543Y005363D01*
X039629Y005377D01*
X039711Y005403D01*
X039788Y005443D01*
X039858Y005493D01*
X039920Y005555D01*
X039970Y005625D01*
X040010Y005702D01*
X040036Y005784D01*
X040050Y005870D01*
X040050Y005913D01*
X040039Y005798D02*
X040140Y005798D01*
X040137Y005559D02*
X039923Y005559D01*
X039899Y005321D02*
X035601Y005321D01*
X035363Y005559D02*
X038077Y005559D01*
X037961Y005798D02*
X036781Y005798D01*
X037019Y006036D02*
X037963Y006036D01*
X038500Y005913D02*
X038500Y005913D01*
X038500Y005363D01*
X038500Y005913D01*
X038500Y005798D02*
X038500Y005798D01*
X038500Y005559D02*
X038500Y005559D01*
X038923Y005559D02*
X039077Y005559D01*
X039500Y005559D02*
X039500Y005559D01*
X039500Y005363D02*
X039500Y005913D01*
X039500Y005913D01*
X039500Y005363D01*
X039500Y005798D02*
X039500Y005798D01*
X040440Y004844D02*
X040500Y004844D01*
X040500Y004904D02*
X040500Y003663D01*
X035841Y003663D01*
X035918Y003740D01*
X035918Y004086D01*
X035673Y004331D01*
X035327Y004331D01*
X035269Y004273D01*
X027256Y004273D01*
X027313Y004330D01*
X027379Y004303D01*
X027621Y004303D01*
X027846Y004396D01*
X028000Y004550D01*
X028154Y004396D01*
X028379Y004303D01*
X028621Y004303D01*
X028846Y004396D01*
X029000Y004550D01*
X029154Y004396D01*
X029379Y004303D01*
X029621Y004303D01*
X029846Y004396D01*
X030000Y004550D01*
X030154Y004396D01*
X030379Y004303D01*
X030621Y004303D01*
X030846Y004396D01*
X031000Y004550D01*
X031154Y004396D01*
X031379Y004303D01*
X031621Y004303D01*
X031846Y004396D01*
X032000Y004550D01*
X032154Y004396D01*
X032379Y004303D01*
X032621Y004303D01*
X032846Y004396D01*
X033017Y004567D01*
X033110Y004792D01*
X033110Y005034D01*
X033017Y005259D01*
X032973Y005303D01*
X034601Y005303D01*
X035195Y004709D01*
X035296Y004608D01*
X035428Y004553D01*
X040072Y004553D01*
X040204Y004608D01*
X040500Y004904D01*
X040500Y004605D02*
X040198Y004605D01*
X040500Y004367D02*
X032776Y004367D01*
X033033Y004605D02*
X035302Y004605D01*
X035195Y004709D02*
X035195Y004709D01*
X035060Y004844D02*
X033110Y004844D01*
X033090Y005082D02*
X034821Y005082D01*
X034122Y006193D02*
X034304Y006376D01*
X034449Y006724D01*
X034449Y007102D01*
X034304Y007450D01*
X034122Y007633D01*
X036884Y007633D01*
X037763Y006754D01*
X037824Y006693D01*
X036944Y006693D01*
X036841Y006650D01*
X036763Y006572D01*
X036763Y006572D01*
X036384Y006193D01*
X034122Y006193D01*
X034204Y006275D02*
X036466Y006275D01*
X036705Y006513D02*
X034361Y006513D01*
X034449Y006752D02*
X037765Y006752D01*
X037763Y006754D02*
X037763Y006754D01*
X037527Y006990D02*
X034449Y006990D01*
X034396Y007229D02*
X037288Y007229D01*
X037050Y007467D02*
X034287Y007467D01*
X032878Y007633D02*
X032696Y007450D01*
X032551Y007102D01*
X032551Y006724D01*
X032696Y006376D01*
X032878Y006193D01*
X028616Y006193D01*
X027506Y007303D01*
X027621Y007303D01*
X027846Y007396D01*
X028000Y007550D01*
X028154Y007396D01*
X028379Y007303D01*
X028621Y007303D01*
X028846Y007396D01*
X029000Y007550D01*
X029154Y007396D01*
X029379Y007303D01*
X029621Y007303D01*
X029687Y007330D01*
X029841Y007176D01*
X029944Y007133D01*
X031556Y007133D01*
X031659Y007176D01*
X031737Y007254D01*
X032116Y007633D01*
X032878Y007633D01*
X032713Y007467D02*
X031950Y007467D01*
X031712Y007229D02*
X032604Y007229D01*
X032551Y006990D02*
X027818Y006990D01*
X028057Y006752D02*
X032551Y006752D01*
X032639Y006513D02*
X028295Y006513D01*
X028534Y006275D02*
X032796Y006275D01*
X029788Y007229D02*
X027580Y007229D01*
X027917Y007467D02*
X028083Y007467D01*
X028917Y007467D02*
X029083Y007467D01*
X027504Y006513D02*
X026409Y006513D01*
X026647Y006275D02*
X027742Y006275D01*
X027981Y006036D02*
X026886Y006036D01*
X026344Y005559D02*
X021363Y005559D01*
X021399Y005523D02*
X020869Y006053D01*
X025851Y006053D01*
X026445Y005459D01*
X026546Y005358D01*
X026678Y005303D01*
X027027Y005303D01*
X026983Y005259D01*
X026890Y005034D01*
X026890Y004792D01*
X026917Y004726D01*
X026884Y004693D01*
X025110Y004693D01*
X025110Y005331D01*
X025073Y005419D01*
X025006Y005486D01*
X024918Y005523D01*
X024082Y005523D01*
X023994Y005486D01*
X023927Y005419D01*
X023898Y005350D01*
X023884Y005363D01*
X023809Y005418D01*
X023726Y005460D01*
X023638Y005488D01*
X023546Y005503D01*
X023500Y005503D01*
X023500Y004913D01*
X023500Y004913D01*
X023500Y005503D01*
X023454Y005503D01*
X023362Y005488D01*
X023274Y005460D01*
X023191Y005418D01*
X023116Y005363D01*
X023050Y005297D01*
X023000Y005229D01*
X022950Y005297D01*
X022884Y005363D01*
X022809Y005418D01*
X022726Y005460D01*
X022638Y005488D01*
X022546Y005503D01*
X022500Y005503D01*
X022500Y004913D01*
X022500Y004913D01*
X022500Y005503D01*
X022454Y005503D01*
X022362Y005488D01*
X022274Y005460D01*
X022191Y005418D01*
X022116Y005363D01*
X022050Y005297D01*
X022019Y005254D01*
X022017Y005259D01*
X021846Y005430D01*
X021621Y005523D01*
X021399Y005523D01*
X021124Y005798D02*
X026106Y005798D01*
X025867Y006036D02*
X020886Y006036D01*
X020500Y005913D02*
X016000Y005913D01*
X016501Y006275D02*
X018629Y006275D01*
X018390Y006513D02*
X016144Y006513D01*
X016917Y007467D02*
X017083Y007467D01*
X017917Y007467D02*
X018083Y007467D01*
X018678Y007229D02*
X024788Y007229D01*
X024083Y007467D02*
X023917Y007467D01*
X023083Y007467D02*
X022917Y007467D01*
X022083Y007467D02*
X021917Y007467D01*
X021083Y007467D02*
X020917Y007467D01*
X020083Y007467D02*
X019917Y007467D01*
X019083Y007467D02*
X018917Y007467D01*
X018932Y006990D02*
X027027Y006990D01*
X027265Y006752D02*
X026122Y006752D01*
X026635Y005321D02*
X025110Y005321D01*
X025110Y005082D02*
X026910Y005082D01*
X026890Y004844D02*
X025110Y004844D01*
X023500Y004913D02*
X022500Y004913D01*
X023090Y004913D01*
X023500Y004913D01*
X023500Y004913D01*
X023500Y005082D02*
X023500Y005082D01*
X023500Y005321D02*
X023500Y005321D01*
X023074Y005321D02*
X022926Y005321D01*
X022500Y005321D02*
X022500Y005321D01*
X022500Y005082D02*
X022500Y005082D01*
X022500Y004913D02*
X022500Y004913D01*
X022074Y005321D02*
X021955Y005321D01*
X021500Y004913D02*
X020500Y005913D01*
X020500Y004913D02*
X020500Y003913D01*
X035500Y003913D01*
X035918Y003890D02*
X040500Y003890D01*
X040500Y004128D02*
X035876Y004128D01*
X032224Y004367D02*
X031776Y004367D01*
X031224Y004367D02*
X030776Y004367D01*
X030224Y004367D02*
X029776Y004367D01*
X029224Y004367D02*
X028776Y004367D01*
X028224Y004367D02*
X027776Y004367D01*
X020500Y003913D02*
X018500Y003913D01*
X018500Y004913D01*
X018500Y003913D02*
X016000Y003913D01*
X016000Y004913D01*
X015467Y004605D02*
X014899Y004605D01*
X014918Y004367D02*
X015640Y004367D01*
X016000Y003913D02*
X011500Y003913D01*
X011250Y004163D01*
X011250Y005328D01*
X011785Y005321D02*
X012142Y005321D01*
X012051Y005082D02*
X011785Y005082D01*
X011621Y004844D02*
X012051Y004844D01*
X012101Y004605D02*
X011610Y004605D01*
X011610Y004367D02*
X012204Y004367D01*
X011195Y003709D02*
X011195Y003709D01*
X011046Y003858D02*
X011046Y003858D01*
X011014Y003890D02*
X009418Y003890D01*
X009376Y004128D02*
X010890Y004128D01*
X010890Y004367D02*
X005555Y004367D01*
X005360Y004605D02*
X010890Y004605D01*
X010879Y004844D02*
X007970Y004844D01*
X008273Y005082D02*
X010715Y005082D01*
X010715Y005321D02*
X008360Y005321D01*
X008350Y005559D02*
X010262Y005559D01*
X010082Y005798D02*
X008228Y005798D01*
X007272Y005798D02*
X007228Y005798D01*
X006272Y005798D02*
X006228Y005798D01*
X005360Y006036D02*
X010082Y006036D01*
X010271Y006275D02*
X005360Y006275D01*
X004640Y006036D02*
X001750Y006036D01*
X001750Y005798D02*
X004640Y005798D01*
X004640Y005559D02*
X001750Y005559D01*
X001750Y005321D02*
X004640Y005321D01*
X004640Y005082D02*
X001750Y005082D01*
X001750Y004844D02*
X004640Y004844D01*
X004640Y004605D02*
X004280Y004605D01*
X004453Y004367D02*
X004640Y004367D01*
X004775Y004128D02*
X004500Y004128D01*
X004450Y003890D02*
X005014Y003890D01*
X005500Y003913D02*
X005000Y004413D01*
X005000Y009163D01*
X005360Y009137D02*
X008133Y009137D01*
X008082Y008898D02*
X005360Y008898D01*
X005360Y008660D02*
X007865Y008660D01*
X009082Y009375D02*
X005360Y009375D01*
X005360Y009614D02*
X009110Y009614D01*
X008824Y010193D02*
X008116Y010193D01*
X007780Y010529D01*
X007780Y013369D01*
X007846Y013396D01*
X008000Y013550D01*
X008154Y013396D01*
X008220Y013369D01*
X008220Y010857D01*
X008263Y010754D01*
X008824Y010193D01*
X008688Y010329D02*
X007979Y010329D01*
X007780Y010568D02*
X008449Y010568D01*
X008241Y010806D02*
X007780Y010806D01*
X007780Y011045D02*
X008220Y011045D01*
X008220Y011284D02*
X007780Y011284D01*
X007780Y011522D02*
X008220Y011522D01*
X008220Y011761D02*
X007780Y011761D01*
X007780Y011999D02*
X008220Y011999D01*
X008220Y012238D02*
X007780Y012238D01*
X007780Y012476D02*
X008220Y012476D01*
X008220Y012715D02*
X007780Y012715D01*
X007780Y012953D02*
X008220Y012953D01*
X008220Y013192D02*
X007780Y013192D01*
X007880Y013430D02*
X008120Y013430D01*
X008780Y013369D02*
X008846Y013396D01*
X009000Y013550D01*
X009154Y013396D01*
X009220Y013369D01*
X009220Y011357D01*
X009263Y011254D01*
X009341Y011176D01*
X009824Y010693D01*
X009116Y010693D01*
X008780Y011029D01*
X008780Y013369D01*
X008880Y013430D02*
X009120Y013430D01*
X009220Y013192D02*
X008780Y013192D01*
X008780Y012953D02*
X009220Y012953D01*
X009220Y012715D02*
X008780Y012715D01*
X008780Y012476D02*
X009220Y012476D01*
X009220Y012238D02*
X008780Y012238D01*
X008780Y011999D02*
X009220Y011999D01*
X009220Y011761D02*
X008780Y011761D01*
X008780Y011522D02*
X009220Y011522D01*
X009251Y011284D02*
X008780Y011284D01*
X008780Y011045D02*
X009472Y011045D01*
X009711Y010806D02*
X009002Y010806D01*
X010025Y011284D02*
X010082Y011284D01*
X010082Y011240D02*
X010129Y011193D01*
X010116Y011193D01*
X009780Y011529D01*
X009780Y013369D01*
X009846Y013396D01*
X010000Y013550D01*
X010154Y013396D01*
X010220Y013369D01*
X010220Y012857D01*
X010263Y012754D01*
X010341Y012676D01*
X010841Y012176D01*
X010944Y012133D01*
X011129Y012133D01*
X011082Y012086D01*
X011082Y011740D01*
X011129Y011693D01*
X010811Y011693D01*
X010673Y011831D01*
X010327Y011831D01*
X010082Y011586D01*
X010082Y011240D01*
X010082Y011522D02*
X009787Y011522D01*
X009780Y011761D02*
X010256Y011761D01*
X010744Y011761D02*
X011082Y011761D01*
X011082Y011999D02*
X009780Y011999D01*
X009780Y012238D02*
X010780Y012238D01*
X010541Y012476D02*
X009780Y012476D01*
X009780Y012715D02*
X010303Y012715D01*
X010220Y012953D02*
X009780Y012953D01*
X009780Y013192D02*
X010220Y013192D01*
X010120Y013430D02*
X009880Y013430D01*
X009892Y014384D02*
X010108Y014384D01*
X010892Y014384D02*
X011108Y014384D01*
X011016Y014861D02*
X012048Y014861D01*
X012108Y014384D02*
X011892Y014384D01*
X012892Y014384D02*
X013108Y014384D01*
X012952Y014861D02*
X031890Y014861D01*
X031890Y015100D02*
X014778Y015100D01*
X014811Y015693D02*
X014673Y015831D01*
X014356Y015831D01*
X014360Y015841D01*
X014360Y016873D01*
X014407Y016873D01*
X014606Y016955D01*
X014758Y017107D01*
X014796Y017200D01*
X015204Y017608D01*
X015305Y017709D01*
X015360Y017841D01*
X015360Y019985D01*
X015305Y020117D01*
X015204Y020218D01*
X014954Y020468D01*
X014822Y020523D01*
X014399Y020523D01*
X014044Y020878D01*
X014469Y020878D01*
X014500Y020891D01*
X014531Y020878D01*
X015123Y020878D01*
X015082Y020836D01*
X015082Y020490D01*
X015327Y020245D01*
X015673Y020245D01*
X015918Y020490D01*
X015918Y020685D01*
X016582Y021349D01*
X016582Y021240D01*
X016659Y021163D01*
X016582Y021086D01*
X016582Y020740D01*
X016827Y020495D01*
X017173Y020495D01*
X017311Y020633D01*
X017879Y020633D01*
X017832Y020586D01*
X017832Y020240D01*
X017879Y020193D01*
X017311Y020193D01*
X017173Y020331D01*
X016827Y020331D01*
X016582Y020086D01*
X016582Y019740D01*
X016827Y019495D01*
X017173Y019495D01*
X017311Y019633D01*
X019589Y019633D01*
X019727Y019495D01*
X020073Y019495D01*
X020318Y019740D01*
X020318Y020086D01*
X020271Y020133D01*
X024439Y020133D01*
X024577Y019995D01*
X024923Y019995D01*
X025168Y020240D01*
X025168Y020586D01*
X025121Y020633D01*
X030634Y020633D01*
X030720Y020547D01*
X030720Y018224D01*
X030582Y018086D01*
X030582Y017740D01*
X030629Y017693D01*
X016311Y017693D01*
X016173Y017831D01*
X015827Y017831D01*
X015582Y017586D01*
X015582Y017240D01*
X015827Y016995D01*
X016082Y016995D01*
X016082Y016740D01*
X016129Y016693D01*
X015811Y016693D01*
X015673Y016831D01*
X015327Y016831D01*
X015082Y016586D01*
X015082Y016240D01*
X015327Y015995D01*
X015673Y015995D01*
X015811Y016133D01*
X031890Y016133D01*
X031890Y015693D01*
X014811Y015693D01*
X014689Y015815D02*
X031890Y015815D01*
X031890Y016054D02*
X015732Y016054D01*
X015268Y016054D02*
X014360Y016054D01*
X014360Y016292D02*
X015082Y016292D01*
X015082Y016531D02*
X014360Y016531D01*
X014360Y016769D02*
X015265Y016769D01*
X015735Y016769D02*
X016082Y016769D01*
X015814Y017008D02*
X014658Y017008D01*
X014842Y017246D02*
X015582Y017246D01*
X015582Y017485D02*
X015081Y017485D01*
X015311Y017723D02*
X015719Y017723D01*
X015360Y017962D02*
X030582Y017962D01*
X030599Y017723D02*
X016281Y017723D01*
X015360Y018200D02*
X030696Y018200D01*
X030720Y018439D02*
X015360Y018439D01*
X015360Y018677D02*
X030720Y018677D01*
X030720Y018916D02*
X015360Y018916D01*
X015360Y019154D02*
X030720Y019154D01*
X030720Y019393D02*
X015360Y019393D01*
X015360Y019631D02*
X016691Y019631D01*
X016582Y019870D02*
X015360Y019870D01*
X015309Y020108D02*
X016604Y020108D01*
X015775Y020347D02*
X017832Y020347D01*
X017832Y020585D02*
X017263Y020585D01*
X016737Y020585D02*
X015918Y020585D01*
X016056Y020824D02*
X016582Y020824D01*
X016582Y021062D02*
X016295Y021062D01*
X016533Y021301D02*
X016582Y021301D01*
X015620Y021693D02*
X015331Y021693D01*
X015331Y021756D01*
X015294Y021844D01*
X015226Y021912D01*
X015223Y021913D01*
X015226Y021914D01*
X015294Y021982D01*
X015331Y022070D01*
X015331Y022756D01*
X015294Y022844D01*
X015226Y022912D01*
X015138Y022948D01*
X015129Y022948D01*
X015140Y023352D01*
X015246Y023396D01*
X015400Y023550D01*
X015554Y023396D01*
X015620Y023369D01*
X015620Y021693D01*
X015620Y021778D02*
X015322Y021778D01*
X015308Y022016D02*
X015620Y022016D01*
X015620Y022255D02*
X015331Y022255D01*
X015331Y022493D02*
X015620Y022493D01*
X015620Y022732D02*
X015331Y022732D01*
X015130Y022970D02*
X015620Y022970D01*
X015620Y023209D02*
X015136Y023209D01*
X015297Y023447D02*
X015503Y023447D01*
X014581Y023385D02*
X014569Y022948D01*
X014531Y022948D01*
X014500Y022935D01*
X014469Y022948D01*
X013862Y022948D01*
X013773Y022912D01*
X013706Y022844D01*
X013676Y022773D01*
X013428Y022773D01*
X013296Y022718D01*
X012750Y022172D01*
X012360Y022562D01*
X012360Y024682D01*
X012418Y024740D01*
X012418Y025086D01*
X012341Y025163D01*
X034812Y025163D01*
X034812Y024893D01*
X032011Y024893D01*
X031973Y024931D01*
X031627Y024931D01*
X031382Y024686D01*
X031382Y024523D01*
X031379Y024523D01*
X031154Y024430D01*
X031000Y024276D01*
X030846Y024430D01*
X030621Y024523D01*
X030379Y024523D01*
X030154Y024430D01*
X030000Y024276D01*
X029846Y024430D01*
X029621Y024523D01*
X029379Y024523D01*
X029154Y024430D01*
X029000Y024276D01*
X028846Y024430D01*
X028621Y024523D01*
X028379Y024523D01*
X028154Y024430D01*
X028000Y024276D01*
X027846Y024430D01*
X027621Y024523D01*
X027379Y024523D01*
X027154Y024430D01*
X027000Y024276D01*
X026846Y024430D01*
X026621Y024523D01*
X026379Y024523D01*
X026154Y024430D01*
X026000Y024276D01*
X025846Y024430D01*
X025621Y024523D01*
X025379Y024523D01*
X025154Y024430D01*
X024983Y024259D01*
X024890Y024034D01*
X024890Y023792D01*
X024931Y023693D01*
X024469Y023693D01*
X024510Y023792D01*
X024510Y024034D01*
X024417Y024259D01*
X024246Y024430D01*
X024021Y024523D01*
X023779Y024523D01*
X023554Y024430D01*
X023400Y024276D01*
X023246Y024430D01*
X023021Y024523D01*
X022779Y024523D01*
X022554Y024430D01*
X022400Y024276D01*
X022246Y024430D01*
X022021Y024523D01*
X021779Y024523D01*
X021554Y024430D01*
X021400Y024276D01*
X021246Y024430D01*
X021021Y024523D01*
X020779Y024523D01*
X020554Y024430D01*
X020400Y024276D01*
X020246Y024430D01*
X020021Y024523D01*
X019779Y024523D01*
X019554Y024430D01*
X019400Y024276D01*
X019246Y024430D01*
X019021Y024523D01*
X018779Y024523D01*
X018554Y024430D01*
X018383Y024259D01*
X018381Y024254D01*
X018350Y024297D01*
X018284Y024363D01*
X018209Y024418D01*
X018126Y024460D01*
X018038Y024488D01*
X017946Y024503D01*
X017900Y024503D01*
X017900Y023913D01*
X017900Y023913D01*
X017900Y024503D01*
X017854Y024503D01*
X017762Y024488D01*
X017674Y024460D01*
X017591Y024418D01*
X017516Y024363D01*
X017450Y024297D01*
X017419Y024254D01*
X017417Y024259D01*
X017246Y024430D01*
X017021Y024523D01*
X016779Y024523D01*
X016554Y024430D01*
X016400Y024276D01*
X016246Y024430D01*
X016021Y024523D01*
X015779Y024523D01*
X015554Y024430D01*
X015400Y024276D01*
X015246Y024430D01*
X015021Y024523D01*
X014779Y024523D01*
X014554Y024430D01*
X014383Y024259D01*
X014304Y024450D01*
X014037Y024717D01*
X013689Y024862D01*
X013311Y024862D01*
X012963Y024717D01*
X012696Y024450D01*
X012551Y024102D01*
X012551Y023724D01*
X012696Y023376D01*
X012963Y023109D01*
X013311Y022964D01*
X013689Y022964D01*
X014037Y023109D01*
X014304Y023376D01*
X014383Y023567D01*
X014554Y023396D01*
X014581Y023385D01*
X014503Y023447D02*
X014334Y023447D01*
X014137Y023209D02*
X014576Y023209D01*
X014569Y022970D02*
X013702Y022970D01*
X013298Y022970D02*
X012360Y022970D01*
X012360Y022732D02*
X013328Y022732D01*
X013071Y022493D02*
X012429Y022493D01*
X012668Y022255D02*
X012832Y022255D01*
X012750Y021663D02*
X013500Y022413D01*
X014165Y022413D01*
X014165Y021413D01*
X014099Y020824D02*
X015082Y020824D01*
X015082Y020585D02*
X014337Y020585D01*
X014250Y020163D02*
X014750Y020163D01*
X015000Y019913D01*
X015000Y017913D01*
X014500Y017413D01*
X014000Y017413D01*
X013441Y017962D02*
X013029Y017962D01*
X012994Y018200D02*
X013225Y018200D01*
X014000Y019413D02*
X013305Y020108D01*
X012500Y020108D01*
X011963Y020585D02*
X013319Y020585D01*
X013080Y020824D02*
X011956Y020824D01*
X011956Y021062D02*
X012842Y021062D01*
X012603Y021301D02*
X011956Y021301D01*
X011956Y021214D02*
X011956Y021637D01*
X011941Y021693D01*
X011912Y021743D01*
X011871Y021784D01*
X011821Y021813D01*
X011765Y021828D01*
X011500Y021828D01*
X011235Y021828D01*
X011179Y021813D01*
X011129Y021784D01*
X011088Y021743D01*
X011059Y021693D01*
X011044Y021637D01*
X011044Y021214D01*
X011500Y021214D01*
X011500Y021214D01*
X011500Y021214D01*
X011303Y020858D01*
X010000Y021358D01*
X010106Y020964D01*
X010025Y021062D02*
X009975Y021062D01*
X009975Y020824D02*
X010025Y020824D01*
X010025Y020789D02*
X010318Y020789D01*
X010374Y020804D01*
X010424Y020833D01*
X010465Y020874D01*
X010494Y020925D01*
X010509Y020980D01*
X010509Y021333D01*
X010025Y021333D01*
X010025Y021383D01*
X009975Y021383D01*
X009975Y021926D01*
X009682Y021926D01*
X009626Y021911D01*
X009576Y021882D01*
X009535Y021841D01*
X009506Y021791D01*
X009491Y021735D01*
X009491Y021383D01*
X009975Y021383D01*
X009975Y021333D01*
X009491Y021333D01*
X009491Y020980D01*
X009506Y020925D01*
X009535Y020874D01*
X009576Y020833D01*
X009626Y020804D01*
X009682Y020789D01*
X009975Y020789D01*
X009975Y021333D01*
X010025Y021333D01*
X010025Y020789D01*
X010407Y020824D02*
X011044Y020824D01*
X011044Y021062D02*
X010509Y021062D01*
X010509Y021301D02*
X011044Y021301D01*
X011044Y021539D02*
X010509Y021539D01*
X010509Y021383D02*
X010509Y021735D01*
X010494Y021791D01*
X010465Y021841D01*
X010424Y021882D01*
X010374Y021911D01*
X010318Y021926D01*
X010025Y021926D01*
X010025Y021383D01*
X010509Y021383D01*
X010498Y021778D02*
X011122Y021778D01*
X010944Y022016D02*
X011888Y022016D01*
X011878Y021778D02*
X012126Y021778D01*
X011956Y021539D02*
X012365Y021539D01*
X012546Y021358D02*
X012546Y021358D01*
X012750Y021663D02*
X014250Y020163D01*
X015076Y020347D02*
X015225Y020347D01*
X015204Y020218D02*
X015204Y020218D01*
X017309Y019631D02*
X019591Y019631D01*
X020209Y019631D02*
X030720Y019631D01*
X030720Y019870D02*
X020318Y019870D01*
X020296Y020108D02*
X024464Y020108D01*
X025036Y020108D02*
X030720Y020108D01*
X030720Y020347D02*
X025168Y020347D01*
X025168Y020585D02*
X030682Y020585D01*
X030997Y021062D02*
X031720Y021062D01*
X031720Y021102D02*
X031720Y018029D01*
X031384Y017693D01*
X031371Y017693D01*
X031418Y017740D01*
X031418Y018086D01*
X031280Y018224D01*
X031280Y020719D01*
X031237Y020822D01*
X030909Y021150D01*
X030806Y021193D01*
X022871Y021193D01*
X022918Y021240D01*
X022918Y021586D01*
X022871Y021633D01*
X031629Y021633D01*
X031582Y021586D01*
X031582Y021240D01*
X031720Y021102D01*
X031582Y021301D02*
X022918Y021301D01*
X022918Y021539D02*
X031582Y021539D01*
X032554Y022255D02*
X033963Y022255D01*
X034120Y022097D02*
X033584Y022633D01*
X032176Y022633D01*
X033237Y021572D01*
X033280Y021469D01*
X033280Y019974D01*
X033418Y019836D01*
X033418Y019490D01*
X033173Y019245D01*
X032827Y019245D01*
X032750Y019322D01*
X032673Y019245D01*
X032327Y019245D01*
X032280Y019292D01*
X032280Y017857D01*
X032237Y017754D01*
X032159Y017676D01*
X031676Y017193D01*
X032878Y017193D01*
X032696Y017376D01*
X032551Y017724D01*
X032551Y018102D01*
X032696Y018450D01*
X032963Y018717D01*
X033311Y018862D01*
X033689Y018862D01*
X034037Y018717D01*
X034304Y018450D01*
X034449Y018102D01*
X034449Y017724D01*
X034304Y017376D01*
X034122Y017193D01*
X037999Y017193D01*
X038017Y017236D01*
X038177Y017396D01*
X038218Y017413D01*
X038177Y017430D01*
X038017Y017590D01*
X037930Y017800D01*
X037930Y018026D01*
X038017Y018236D01*
X038177Y018396D01*
X038387Y018483D01*
X038613Y018483D01*
X038823Y018396D01*
X038983Y018236D01*
X039000Y018195D01*
X039017Y018236D01*
X039177Y018396D01*
X039387Y018483D01*
X039613Y018483D01*
X039823Y018396D01*
X039983Y018236D01*
X040070Y018026D01*
X040070Y017800D01*
X039983Y017590D01*
X039823Y017430D01*
X039782Y017413D01*
X039823Y017396D01*
X039898Y017321D01*
X040140Y017562D01*
X040140Y024264D01*
X039851Y024553D01*
X036542Y024553D01*
X036542Y023913D01*
X036505Y023825D01*
X036438Y023758D01*
X036350Y023721D01*
X035004Y023721D01*
X034916Y023758D01*
X034848Y023825D01*
X034812Y023913D01*
X034812Y024333D01*
X033109Y024333D01*
X033110Y024331D01*
X033110Y023693D01*
X038029Y023693D01*
X037982Y023740D01*
X037982Y024086D01*
X038227Y024331D01*
X038573Y024331D01*
X038818Y024086D01*
X038818Y023740D01*
X038680Y023602D01*
X038680Y023129D01*
X038909Y022900D01*
X038987Y022822D01*
X039030Y022719D01*
X039030Y020724D01*
X039168Y020586D01*
X039168Y020240D01*
X038923Y019995D01*
X038668Y019995D01*
X038668Y019740D01*
X038423Y019495D01*
X038077Y019495D01*
X037832Y019740D01*
X037832Y020086D01*
X037890Y020144D01*
X037890Y020532D01*
X037832Y020590D01*
X037832Y020936D01*
X037890Y020994D01*
X037890Y022182D01*
X037832Y022240D01*
X037832Y022586D01*
X038077Y022831D01*
X038186Y022831D01*
X038163Y022854D01*
X038120Y022957D01*
X038120Y023133D01*
X033876Y023133D01*
X034559Y022450D01*
X034637Y022372D01*
X034677Y022276D01*
X034677Y022295D01*
X034692Y022351D01*
X034721Y022401D01*
X034762Y022442D01*
X034812Y022471D01*
X034868Y022486D01*
X035557Y022486D01*
X035557Y021606D01*
X035797Y021606D01*
X036677Y021606D01*
X036677Y022295D01*
X036662Y022351D01*
X036633Y022401D01*
X036592Y022442D01*
X036542Y022471D01*
X036486Y022486D01*
X035797Y022486D01*
X035797Y021606D01*
X035797Y021366D01*
X036677Y021366D01*
X036677Y020677D01*
X036662Y020621D01*
X036633Y020571D01*
X036592Y020530D01*
X036542Y020501D01*
X036486Y020486D01*
X035797Y020486D01*
X035797Y021366D01*
X035557Y021366D01*
X035557Y020486D01*
X034868Y020486D01*
X034812Y020501D01*
X034802Y020507D01*
X035178Y020131D01*
X035373Y020131D01*
X035618Y019886D01*
X035618Y019540D01*
X035373Y019295D01*
X035027Y019295D01*
X034782Y019540D01*
X034782Y019735D01*
X034163Y020354D01*
X034120Y020457D01*
X034120Y022097D01*
X034120Y022016D02*
X032793Y022016D01*
X033031Y021778D02*
X034120Y021778D01*
X034120Y021539D02*
X033251Y021539D01*
X033280Y021301D02*
X034120Y021301D01*
X034120Y021062D02*
X033280Y021062D01*
X033280Y020824D02*
X034120Y020824D01*
X034120Y020585D02*
X033280Y020585D01*
X033280Y020347D02*
X034171Y020347D01*
X034409Y020108D02*
X033280Y020108D01*
X033385Y019870D02*
X034648Y019870D01*
X034782Y019631D02*
X033418Y019631D01*
X033321Y019393D02*
X034929Y019393D01*
X035004Y019251D02*
X034916Y019215D01*
X034848Y019147D01*
X034812Y019059D01*
X034812Y017713D01*
X034848Y017625D01*
X034916Y017558D01*
X035004Y017521D01*
X036350Y017521D01*
X036438Y017558D01*
X036505Y017625D01*
X036542Y017713D01*
X036542Y019059D01*
X036505Y019147D01*
X036438Y019215D01*
X036350Y019251D01*
X035004Y019251D01*
X034855Y019154D02*
X032280Y019154D01*
X032280Y018916D02*
X034812Y018916D01*
X034812Y018677D02*
X034078Y018677D01*
X034309Y018439D02*
X034812Y018439D01*
X034812Y018200D02*
X034408Y018200D01*
X034449Y017962D02*
X034812Y017962D01*
X034812Y017723D02*
X034448Y017723D01*
X034349Y017485D02*
X038122Y017485D01*
X038027Y017246D02*
X034175Y017246D01*
X032825Y017246D02*
X031729Y017246D01*
X031967Y017485D02*
X032651Y017485D01*
X032552Y017723D02*
X032206Y017723D01*
X032280Y017962D02*
X032551Y017962D01*
X032592Y018200D02*
X032280Y018200D01*
X032280Y018439D02*
X032691Y018439D01*
X032922Y018677D02*
X032280Y018677D01*
X031720Y018677D02*
X031280Y018677D01*
X031280Y018439D02*
X031720Y018439D01*
X031720Y018200D02*
X031304Y018200D01*
X031418Y017962D02*
X031653Y017962D01*
X031414Y017723D02*
X031401Y017723D01*
X031280Y018916D02*
X031720Y018916D01*
X031720Y019154D02*
X031280Y019154D01*
X031280Y019393D02*
X031720Y019393D01*
X031720Y019631D02*
X031280Y019631D01*
X031280Y019870D02*
X031720Y019870D01*
X031720Y020108D02*
X031280Y020108D01*
X031280Y020347D02*
X031720Y020347D01*
X031720Y020585D02*
X031280Y020585D01*
X031235Y020824D02*
X031720Y020824D01*
X032316Y022493D02*
X033724Y022493D01*
X034039Y022970D02*
X038120Y022970D01*
X037977Y022732D02*
X034277Y022732D01*
X034516Y022493D02*
X037832Y022493D01*
X037832Y022255D02*
X036677Y022255D01*
X036677Y022016D02*
X037890Y022016D01*
X037890Y021778D02*
X036677Y021778D01*
X036677Y021301D02*
X037890Y021301D01*
X037890Y021539D02*
X035797Y021539D01*
X035797Y021301D02*
X035557Y021301D01*
X035557Y021062D02*
X035797Y021062D01*
X035797Y020824D02*
X035557Y020824D01*
X035557Y020585D02*
X035797Y020585D01*
X036641Y020585D02*
X037837Y020585D01*
X037832Y020824D02*
X036677Y020824D01*
X036677Y021062D02*
X037890Y021062D01*
X038250Y020763D02*
X038250Y022413D01*
X039030Y022493D02*
X040140Y022493D01*
X040140Y022255D02*
X039030Y022255D01*
X039030Y022016D02*
X040140Y022016D01*
X040140Y021778D02*
X039030Y021778D01*
X039030Y021539D02*
X040140Y021539D01*
X040140Y021301D02*
X039030Y021301D01*
X039030Y021062D02*
X040140Y021062D01*
X040140Y020824D02*
X039030Y020824D01*
X039168Y020585D02*
X040140Y020585D01*
X040140Y020347D02*
X039168Y020347D01*
X039036Y020108D02*
X040140Y020108D01*
X040140Y019870D02*
X038668Y019870D01*
X038559Y019631D02*
X040140Y019631D01*
X040140Y019393D02*
X035471Y019393D01*
X035618Y019631D02*
X037941Y019631D01*
X037832Y019870D02*
X035618Y019870D01*
X035396Y020108D02*
X037854Y020108D01*
X037890Y020347D02*
X034962Y020347D01*
X035557Y021778D02*
X035797Y021778D01*
X035797Y022016D02*
X035557Y022016D01*
X035557Y022255D02*
X035797Y022255D01*
X036542Y023924D02*
X037982Y023924D01*
X038058Y024163D02*
X036542Y024163D01*
X036542Y024401D02*
X040003Y024401D01*
X040140Y024163D02*
X038742Y024163D01*
X038818Y023924D02*
X040140Y023924D01*
X040140Y023686D02*
X038764Y023686D01*
X038680Y023447D02*
X040140Y023447D01*
X040140Y023209D02*
X038680Y023209D01*
X038839Y022970D02*
X040140Y022970D01*
X040140Y022732D02*
X039025Y022732D01*
X038250Y020763D02*
X038250Y019913D01*
X036498Y019154D02*
X040140Y019154D01*
X040140Y018916D02*
X036542Y018916D01*
X036542Y018677D02*
X040140Y018677D01*
X040140Y018439D02*
X039721Y018439D01*
X039998Y018200D02*
X040140Y018200D01*
X040140Y017962D02*
X040070Y017962D01*
X040038Y017723D02*
X040140Y017723D01*
X040062Y017485D02*
X039878Y017485D01*
X040000Y016913D02*
X040500Y017413D01*
X040500Y024413D01*
X040000Y024913D01*
X036254Y024913D01*
X035677Y024586D01*
X034812Y024163D02*
X033110Y024163D01*
X033110Y023924D02*
X034812Y023924D01*
X034812Y025117D02*
X012388Y025117D01*
X012418Y024878D02*
X031574Y024878D01*
X031382Y024640D02*
X014115Y024640D01*
X014325Y024401D02*
X014525Y024401D01*
X015275Y024401D02*
X015525Y024401D01*
X016275Y024401D02*
X016525Y024401D01*
X017275Y024401D02*
X017568Y024401D01*
X017900Y024401D02*
X017900Y024401D01*
X017900Y024163D02*
X017900Y024163D01*
X017900Y023924D02*
X017900Y023924D01*
X018232Y024401D02*
X018525Y024401D01*
X019275Y024401D02*
X019525Y024401D01*
X020275Y024401D02*
X020525Y024401D01*
X021275Y024401D02*
X021525Y024401D01*
X022275Y024401D02*
X022525Y024401D01*
X023275Y024401D02*
X023525Y024401D01*
X024275Y024401D02*
X025125Y024401D01*
X024943Y024163D02*
X024457Y024163D01*
X024510Y023924D02*
X024890Y023924D01*
X025875Y024401D02*
X026125Y024401D01*
X026875Y024401D02*
X027125Y024401D01*
X027875Y024401D02*
X028125Y024401D01*
X028875Y024401D02*
X029125Y024401D01*
X029875Y024401D02*
X030125Y024401D01*
X030875Y024401D02*
X031125Y024401D01*
X036542Y018439D02*
X038279Y018439D01*
X038002Y018200D02*
X036542Y018200D01*
X036542Y017962D02*
X037930Y017962D01*
X037962Y017723D02*
X036542Y017723D01*
X038721Y018439D02*
X039279Y018439D01*
X039002Y018200D02*
X038998Y018200D01*
X039500Y016913D02*
X040000Y016913D01*
X038177Y015430D02*
X038017Y015590D01*
X037999Y015633D01*
X037444Y015633D01*
X037341Y015676D01*
X037263Y015754D01*
X037263Y015754D01*
X036884Y016133D01*
X034110Y016133D01*
X034110Y015693D01*
X037056Y015693D01*
X037159Y015650D01*
X037237Y015572D01*
X037616Y015193D01*
X037999Y015193D01*
X038017Y015236D01*
X038177Y015396D01*
X038218Y015413D01*
X038177Y015430D01*
X038119Y015338D02*
X037471Y015338D01*
X037232Y015577D02*
X038030Y015577D01*
X037202Y015815D02*
X034110Y015815D01*
X034110Y016054D02*
X036964Y016054D01*
X036884Y015133D02*
X037263Y014754D01*
X037341Y014676D01*
X037444Y014633D01*
X037999Y014633D01*
X038017Y014590D01*
X038177Y014430D01*
X038218Y014413D01*
X038177Y014396D01*
X038017Y014236D01*
X037999Y014193D01*
X037616Y014193D01*
X037409Y014400D01*
X037409Y014400D01*
X037237Y014572D01*
X037159Y014650D01*
X037056Y014693D01*
X034110Y014693D01*
X034110Y015133D01*
X036884Y015133D01*
X036918Y015100D02*
X034110Y015100D01*
X034110Y014861D02*
X037156Y014861D01*
X037263Y014754D02*
X037263Y014754D01*
X037186Y014623D02*
X038003Y014623D01*
X038165Y014384D02*
X037425Y014384D01*
X037013Y014004D02*
X037013Y014004D01*
X037341Y013676D01*
X037444Y013633D01*
X037999Y013633D01*
X038017Y013590D01*
X038177Y013430D01*
X037379Y013430D01*
X037237Y013572D02*
X037159Y013650D01*
X037056Y013693D01*
X034090Y013693D01*
X034090Y013913D01*
X034090Y014133D01*
X036884Y014133D01*
X037013Y014004D01*
X037110Y013907D02*
X034090Y013907D01*
X034090Y013913D02*
X033500Y013913D01*
X034090Y013913D01*
X033500Y013913D02*
X033500Y013913D01*
X031890Y013907D02*
X031090Y013907D01*
X031090Y013913D02*
X030500Y013913D01*
X031090Y013913D01*
X031090Y013959D01*
X031075Y014051D01*
X031049Y014133D01*
X031890Y014133D01*
X031890Y013693D01*
X031049Y013693D01*
X031075Y013775D01*
X031090Y013867D01*
X031090Y013913D01*
X030500Y013913D02*
X030500Y013913D01*
X037115Y013669D02*
X037359Y013669D01*
X037237Y013572D02*
X037616Y013193D01*
X037999Y013193D01*
X038017Y013236D01*
X038177Y013396D01*
X038218Y013413D01*
X038177Y013430D01*
X012863Y023209D02*
X012360Y023209D01*
X012360Y023447D02*
X012666Y023447D01*
X012567Y023686D02*
X012360Y023686D01*
X012360Y023924D02*
X012551Y023924D01*
X012577Y024163D02*
X012360Y024163D01*
X012360Y024401D02*
X012675Y024401D01*
X012885Y024640D02*
X012360Y024640D01*
X012000Y024913D02*
X012000Y022413D01*
X010750Y022413D01*
X010750Y023328D01*
X010215Y023447D02*
X006781Y023447D01*
X006883Y023209D02*
X010215Y023209D01*
X010237Y022970D02*
X006924Y022970D01*
X006913Y022732D02*
X010390Y022732D01*
X010332Y022493D02*
X006847Y022493D01*
X007022Y022255D02*
X010332Y022255D01*
X010556Y022016D02*
X007201Y022016D01*
X007214Y021778D02*
X007387Y021778D01*
X007215Y021539D02*
X007214Y021539D01*
X007214Y021301D02*
X007742Y021301D01*
X007758Y021301D02*
X009491Y021301D01*
X009491Y021539D02*
X008285Y021539D01*
X008285Y021592D02*
X008270Y021648D01*
X008241Y021698D01*
X008200Y021739D01*
X008150Y021768D01*
X008094Y021783D01*
X007758Y021783D01*
X007758Y021315D01*
X008285Y021315D01*
X008285Y021592D01*
X008113Y021778D02*
X009502Y021778D01*
X009975Y021778D02*
X010025Y021778D01*
X010025Y021539D02*
X009975Y021539D01*
X009975Y021301D02*
X010025Y021301D01*
X009491Y021062D02*
X008285Y021062D01*
X008305Y020824D02*
X009593Y020824D01*
X009000Y020163D02*
X011502Y020163D01*
X011500Y020112D01*
X011037Y020585D02*
X008305Y020585D01*
X008305Y020347D02*
X008674Y020347D01*
X008695Y020367D02*
X008695Y020367D01*
X008436Y020108D02*
X008249Y020108D01*
X008197Y019870D02*
X008135Y019870D01*
X008140Y019462D02*
X008140Y018644D01*
X008082Y018586D01*
X008082Y018240D01*
X008327Y017995D01*
X008673Y017995D01*
X008890Y018212D01*
X008890Y017891D01*
X008848Y017909D01*
X007652Y017909D01*
X007564Y017872D01*
X007497Y017804D01*
X007460Y017716D01*
X007460Y017523D01*
X007399Y017523D01*
X007214Y017708D01*
X007214Y020169D01*
X007232Y020127D01*
X007299Y020060D01*
X007387Y020023D01*
X007390Y020023D01*
X007390Y019894D01*
X007332Y019836D01*
X007332Y019490D01*
X007577Y019245D01*
X007923Y019245D01*
X008140Y019462D01*
X008140Y019393D02*
X008071Y019393D01*
X008140Y019154D02*
X007214Y019154D01*
X007214Y018916D02*
X008140Y018916D01*
X008140Y018677D02*
X007214Y018677D01*
X007214Y018439D02*
X008082Y018439D01*
X008122Y018200D02*
X007214Y018200D01*
X007214Y017962D02*
X008890Y017962D01*
X008878Y018200D02*
X008890Y018200D01*
X009250Y018340D02*
X009323Y018413D01*
X009250Y018340D02*
X009250Y017413D01*
X009056Y017219D01*
X008250Y017219D01*
X008194Y017163D01*
X007250Y017163D01*
X006854Y017559D01*
X006854Y018913D01*
X006854Y021913D01*
X005854Y022913D01*
X004927Y023447D02*
X004205Y023447D01*
X004187Y023476D02*
X004119Y023561D01*
X004042Y023638D01*
X003957Y023706D01*
X003864Y023764D01*
X003766Y023812D01*
X003663Y023848D01*
X003557Y023872D01*
X003514Y023877D01*
X003514Y023033D01*
X004358Y023033D01*
X004353Y023076D01*
X004328Y023182D01*
X004292Y023285D01*
X004245Y023384D01*
X004187Y023476D01*
X003983Y023686D02*
X005114Y023686D01*
X005494Y023924D02*
X001750Y023924D01*
X001750Y023686D02*
X002805Y023686D01*
X002831Y023706D02*
X002746Y023638D01*
X002668Y023561D01*
X002600Y023476D01*
X002542Y023384D01*
X002495Y023285D01*
X002459Y023182D01*
X002435Y023076D01*
X002430Y023033D01*
X003274Y023033D01*
X003274Y023877D01*
X003231Y023872D01*
X003124Y023848D01*
X003021Y023812D01*
X002923Y023764D01*
X002831Y023706D01*
X002582Y023447D02*
X001750Y023447D01*
X001750Y023209D02*
X002468Y023209D01*
X002430Y022793D02*
X002435Y022750D01*
X002459Y022644D01*
X002495Y022541D01*
X002542Y022442D01*
X002600Y022350D01*
X002668Y022265D01*
X002746Y022188D01*
X002831Y022120D01*
X002923Y022062D01*
X003021Y022014D01*
X003124Y021978D01*
X003231Y021954D01*
X003274Y021949D01*
X003274Y022793D01*
X003514Y022793D01*
X003514Y023033D01*
X003274Y023033D01*
X003274Y022793D01*
X002430Y022793D01*
X002439Y022732D02*
X001750Y022732D01*
X001750Y022970D02*
X003274Y022970D01*
X003274Y022732D02*
X003514Y022732D01*
X003514Y022793D02*
X003514Y021949D01*
X003557Y021954D01*
X003663Y021978D01*
X003766Y022014D01*
X003864Y022062D01*
X003957Y022120D01*
X004042Y022188D01*
X004119Y022265D01*
X004187Y022350D01*
X004245Y022442D01*
X004292Y022541D01*
X004328Y022644D01*
X004353Y022750D01*
X004358Y022793D01*
X003514Y022793D01*
X003514Y022970D02*
X004784Y022970D01*
X004795Y022732D02*
X004348Y022732D01*
X004269Y022493D02*
X004861Y022493D01*
X005000Y022255D02*
X004109Y022255D01*
X004262Y021875D02*
X004169Y021817D01*
X004084Y021749D01*
X004007Y021671D01*
X003939Y021586D01*
X003881Y021494D01*
X003834Y021395D01*
X003798Y021293D01*
X003773Y021186D01*
X003768Y021143D01*
X004612Y021143D01*
X004612Y020903D01*
X003768Y020903D01*
X003773Y020860D01*
X003798Y020754D01*
X003834Y020651D01*
X003881Y020553D01*
X003939Y020460D01*
X004007Y020375D01*
X004084Y020298D01*
X004169Y020230D01*
X004262Y020172D01*
X004360Y020125D01*
X004463Y020089D01*
X004569Y020064D01*
X004612Y020059D01*
X004612Y020903D01*
X004852Y020903D01*
X004852Y020059D01*
X004895Y020064D01*
X005002Y020089D01*
X005105Y020125D01*
X005203Y020172D01*
X005295Y020230D01*
X005380Y020298D01*
X005458Y020375D01*
X005526Y020460D01*
X005584Y020553D01*
X005631Y020651D01*
X005667Y020754D01*
X005691Y020860D01*
X005696Y020903D01*
X004852Y020903D01*
X004852Y021143D01*
X004612Y021143D01*
X004612Y021987D01*
X004569Y021982D01*
X004463Y021958D01*
X004360Y021922D01*
X004262Y021875D01*
X004120Y021778D02*
X001750Y021778D01*
X001750Y022016D02*
X003018Y022016D01*
X003274Y022016D02*
X003514Y022016D01*
X003514Y022255D02*
X003274Y022255D01*
X003274Y022493D02*
X003514Y022493D01*
X003769Y022016D02*
X005268Y022016D01*
X005203Y021875D02*
X005105Y021922D01*
X005002Y021958D01*
X004895Y021982D01*
X004852Y021987D01*
X004852Y021143D01*
X005696Y021143D01*
X005691Y021186D01*
X005667Y021293D01*
X005631Y021395D01*
X005584Y021494D01*
X005526Y021586D01*
X005458Y021671D01*
X005380Y021749D01*
X005295Y021817D01*
X005203Y021875D01*
X005344Y021778D02*
X006481Y021778D01*
X006494Y021539D02*
X005555Y021539D01*
X005664Y021301D02*
X006494Y021301D01*
X006494Y021062D02*
X004852Y021062D01*
X004852Y020824D02*
X004612Y020824D01*
X004612Y021062D02*
X001750Y021062D01*
X001750Y020824D02*
X003782Y020824D01*
X003865Y020585D02*
X001750Y020585D01*
X001750Y020347D02*
X004036Y020347D01*
X004407Y020108D02*
X001750Y020108D01*
X001750Y019870D02*
X006494Y019870D01*
X006494Y020108D02*
X005057Y020108D01*
X004852Y020108D02*
X004612Y020108D01*
X004612Y020347D02*
X004852Y020347D01*
X004852Y020585D02*
X004612Y020585D01*
X005429Y020347D02*
X006494Y020347D01*
X006494Y020585D02*
X005599Y020585D01*
X005683Y020824D02*
X006494Y020824D01*
X007214Y021062D02*
X007215Y021062D01*
X007742Y021539D02*
X007758Y021539D01*
X007742Y021778D02*
X007758Y021778D01*
X007750Y020519D02*
X007750Y019663D01*
X007332Y019631D02*
X007214Y019631D01*
X007214Y019393D02*
X007429Y019393D01*
X007365Y019870D02*
X007214Y019870D01*
X007214Y020108D02*
X007251Y020108D01*
X006494Y019631D02*
X001750Y019631D01*
X001750Y019393D02*
X003555Y019393D01*
X003363Y019154D02*
X001750Y019154D01*
X001750Y018916D02*
X003305Y018916D01*
X003347Y018677D02*
X001750Y018677D01*
X001750Y018439D02*
X003518Y018439D01*
X004250Y018897D02*
X004266Y018913D01*
X005250Y018913D01*
X005250Y018307D01*
X004860Y017962D02*
X001750Y017962D01*
X001750Y018200D02*
X004731Y018200D01*
X004793Y017723D02*
X001750Y017723D01*
X001750Y017485D02*
X003755Y017485D01*
X003420Y017246D02*
X001750Y017246D01*
X001750Y017008D02*
X003330Y017008D01*
X003325Y016929D02*
X003325Y016884D01*
X003339Y016795D01*
X003367Y016709D01*
X003408Y016629D01*
X003461Y016556D01*
X003525Y016492D01*
X003597Y016439D01*
X003678Y016398D01*
X003763Y016370D01*
X003852Y016356D01*
X004250Y016356D01*
X004648Y016356D01*
X004737Y016370D01*
X004822Y016398D01*
X004903Y016439D01*
X004975Y016492D01*
X005039Y016556D01*
X005092Y016629D01*
X005133Y016709D01*
X005161Y016795D01*
X005175Y016884D01*
X005175Y016929D01*
X004250Y016929D01*
X004250Y016929D01*
X004250Y016929D01*
X003325Y016929D01*
X003347Y016769D02*
X001750Y016769D01*
X001750Y016531D02*
X003486Y016531D01*
X004250Y016531D02*
X004250Y016531D01*
X004250Y016356D02*
X004250Y016929D01*
X004250Y016929D01*
X004250Y016356D01*
X004250Y016769D02*
X004250Y016769D01*
X004250Y017008D02*
X004250Y017008D01*
X004250Y017246D02*
X004250Y017246D01*
X004250Y017485D02*
X004250Y017485D01*
X004745Y017485D02*
X004750Y017485D01*
X005250Y017485D02*
X005250Y017485D01*
X005250Y017246D02*
X005250Y017246D01*
X005170Y017008D02*
X006896Y017008D01*
X006658Y017246D02*
X005669Y017246D01*
X005750Y017485D02*
X006495Y017485D01*
X006494Y017723D02*
X005707Y017723D01*
X005640Y017962D02*
X006494Y017962D01*
X006494Y018200D02*
X005769Y018200D01*
X005758Y018439D02*
X006494Y018439D01*
X006854Y018913D02*
X005250Y018913D01*
X004945Y019393D02*
X006494Y019393D01*
X008500Y019663D02*
X008500Y018413D01*
X007463Y017723D02*
X007214Y017723D01*
X007460Y016769D02*
X005153Y016769D01*
X005014Y016531D02*
X007647Y016531D01*
X007639Y016292D02*
X001750Y016292D01*
X001750Y016054D02*
X006299Y016054D01*
X006082Y015815D02*
X001750Y015815D01*
X001750Y015577D02*
X006082Y015577D01*
X006701Y016054D02*
X007460Y016054D01*
X007892Y014384D02*
X008108Y014384D01*
X008892Y014384D02*
X009108Y014384D01*
X006936Y014146D02*
X005277Y014146D01*
X005360Y013907D02*
X006890Y013907D01*
X006941Y013669D02*
X005360Y013669D01*
X005360Y013430D02*
X007120Y013430D01*
X007220Y013192D02*
X005360Y013192D01*
X005360Y012953D02*
X007220Y012953D01*
X007220Y012715D02*
X005360Y012715D01*
X005360Y012476D02*
X007220Y012476D01*
X007220Y012238D02*
X005360Y012238D01*
X005360Y011999D02*
X007220Y011999D01*
X007220Y011761D02*
X005360Y011761D01*
X005360Y011522D02*
X007220Y011522D01*
X007220Y011284D02*
X005360Y011284D01*
X005360Y011045D02*
X007220Y011045D01*
X007220Y010806D02*
X005360Y010806D01*
X005360Y010568D02*
X007220Y010568D01*
X007232Y010329D02*
X005360Y010329D01*
X005360Y010091D02*
X007426Y010091D01*
X007665Y009852D02*
X005360Y009852D01*
X004056Y010413D02*
X003250Y009607D01*
X003250Y009163D01*
X002890Y008660D02*
X002804Y008660D01*
X003077Y008421D02*
X003443Y008421D01*
X003443Y008183D02*
X003077Y008183D01*
X002502Y007913D02*
X002444Y007970D01*
X002444Y010413D01*
X002444Y011357D01*
X002500Y011413D01*
X002256Y011761D02*
X001750Y011761D01*
X001750Y011999D02*
X003051Y011999D01*
X002912Y012238D02*
X001750Y012238D01*
X001750Y012476D02*
X002890Y012476D01*
X002965Y012715D02*
X001750Y012715D01*
X001750Y012953D02*
X003097Y012953D01*
X002931Y013192D02*
X001750Y013192D01*
X001750Y013430D02*
X002890Y013430D01*
X002946Y013669D02*
X001750Y013669D01*
X001750Y013907D02*
X003131Y013907D01*
X002951Y014146D02*
X001750Y014146D01*
X001750Y014384D02*
X002890Y014384D01*
X002927Y014623D02*
X001750Y014623D01*
X001750Y014861D02*
X003085Y014861D01*
X003869Y013907D02*
X004497Y013907D01*
X004640Y013669D02*
X004054Y013669D01*
X004110Y013430D02*
X004640Y013430D01*
X004640Y013192D02*
X004069Y013192D01*
X003903Y012953D02*
X004640Y012953D01*
X004640Y012715D02*
X004035Y012715D01*
X004110Y012476D02*
X004640Y012476D01*
X004640Y012238D02*
X004088Y012238D01*
X003949Y011999D02*
X004640Y011999D01*
X004640Y011761D02*
X002744Y011761D01*
X002918Y011522D02*
X004640Y011522D01*
X004640Y011284D02*
X002918Y011284D01*
X003120Y011045D02*
X003380Y011045D01*
X003366Y010806D02*
X003134Y010806D01*
X003134Y010568D02*
X003366Y010568D01*
X003366Y010329D02*
X003134Y010329D01*
X003134Y010091D02*
X003224Y010091D01*
X002084Y009614D02*
X001750Y009614D01*
X001750Y009852D02*
X001754Y009852D01*
X001750Y010091D02*
X001754Y010091D01*
X001750Y010329D02*
X001754Y010329D01*
X001750Y010568D02*
X001754Y010568D01*
X001750Y010806D02*
X001754Y010806D01*
X001750Y011045D02*
X001769Y011045D01*
X001750Y011284D02*
X002082Y011284D01*
X002082Y011522D02*
X001750Y011522D01*
X001750Y009375D02*
X002084Y009375D01*
X002084Y009137D02*
X001750Y009137D01*
X001750Y008898D02*
X002084Y008898D01*
X002084Y008660D02*
X001750Y008660D01*
X001750Y008421D02*
X001927Y008421D01*
X001927Y008183D02*
X001750Y008183D01*
X001750Y007944D02*
X001927Y007944D01*
X001927Y007706D02*
X001750Y007706D01*
X001750Y007467D02*
X001927Y007467D01*
X001862Y007229D02*
X001750Y007229D01*
X003951Y008183D02*
X004045Y008183D01*
X004045Y008421D02*
X003951Y008421D01*
X003890Y008660D02*
X003610Y008660D01*
X005360Y004844D02*
X005530Y004844D01*
X005970Y004844D02*
X006530Y004844D01*
X006970Y004844D02*
X007530Y004844D01*
X009000Y003913D02*
X005500Y003913D01*
X003500Y004605D02*
X002463Y004605D01*
X002653Y004367D02*
X003327Y004367D01*
X003280Y004128D02*
X002700Y004128D01*
X002700Y004133D02*
X002110Y004133D01*
X002700Y004133D01*
X002648Y003890D02*
X003330Y003890D01*
X002110Y004133D02*
X002110Y004133D01*
X002110Y004367D02*
X002110Y004367D01*
X002110Y004605D02*
X002110Y004605D01*
X001757Y004605D02*
X001750Y004605D01*
X011785Y005559D02*
X012305Y005559D01*
X012658Y005798D02*
X011785Y005798D01*
X008500Y019663D02*
X009000Y020163D01*
X011500Y021214D02*
X011500Y021828D01*
X011500Y021214D01*
X011956Y021214D01*
X011500Y021214D02*
X011500Y021214D01*
X011500Y021301D02*
X011500Y021301D01*
X011500Y021539D02*
X011500Y021539D01*
X011500Y021778D02*
X011500Y021778D01*
X012000Y022413D02*
X012750Y021663D01*
X010218Y023686D02*
X006595Y023686D01*
X006215Y023924D02*
X010215Y023924D01*
X010215Y024163D02*
X001750Y024163D01*
X001750Y024401D02*
X010263Y024401D01*
X010432Y024640D02*
X001750Y024640D01*
X001750Y024878D02*
X010332Y024878D01*
X010362Y025117D02*
X001750Y025117D01*
X003274Y023686D02*
X003514Y023686D01*
X003514Y023447D02*
X003274Y023447D01*
X003274Y023209D02*
X003514Y023209D01*
X004319Y023209D02*
X004826Y023209D01*
X002679Y022255D02*
X001750Y022255D01*
X001750Y022493D02*
X002518Y022493D01*
X001750Y021539D02*
X003909Y021539D01*
X003800Y021301D02*
X001750Y021301D01*
X004612Y021301D02*
X004852Y021301D01*
X004852Y021539D02*
X004612Y021539D01*
X004612Y021778D02*
X004852Y021778D01*
D34*
X007750Y019663D03*
X008000Y018913D03*
X008500Y018413D03*
X007250Y016413D03*
X006500Y015663D03*
X010000Y012163D03*
X010500Y011413D03*
X011500Y011913D03*
X009250Y010913D03*
X008250Y010413D03*
X009500Y009413D03*
X008500Y008913D03*
X006000Y007913D03*
X010500Y005913D03*
X010500Y005163D03*
X009000Y003913D03*
X014000Y005413D03*
X015000Y004913D03*
X014500Y004413D03*
X015000Y006163D03*
X014500Y006413D03*
X019000Y007413D03*
X024000Y009413D03*
X024500Y008913D03*
X025000Y008413D03*
X026500Y008913D03*
X027500Y009413D03*
X032250Y007413D03*
X034500Y006413D03*
X036500Y007413D03*
X035500Y008913D03*
X035500Y009413D03*
X035500Y011413D03*
X035500Y011913D03*
X034750Y014913D03*
X034750Y015913D03*
X034750Y017413D03*
X031500Y018663D03*
X031000Y017913D03*
X032500Y019663D03*
X033000Y019663D03*
X035200Y019713D03*
X036750Y019663D03*
X038250Y019913D03*
X038750Y020413D03*
X038250Y020763D03*
X036750Y021413D03*
X038250Y022413D03*
X038900Y023163D03*
X038400Y023913D03*
X036750Y024263D03*
X034750Y023913D03*
X036750Y022913D03*
X034750Y022663D03*
X033500Y021663D03*
X032000Y021413D03*
X028000Y021313D03*
X027000Y021413D03*
X024750Y020413D03*
X022500Y021413D03*
X020900Y020913D03*
X019900Y019913D03*
X018250Y020413D03*
X017000Y020913D03*
X017000Y021413D03*
X016750Y022413D03*
X018250Y022413D03*
X018900Y021913D03*
X020250Y022413D03*
X021500Y022913D03*
X023500Y023413D03*
X024750Y024413D03*
X031800Y024513D03*
X039850Y022113D03*
X038750Y019163D03*
X040000Y017513D03*
X040000Y015413D03*
X030500Y014913D03*
X017000Y019913D03*
X016250Y019413D03*
X015500Y020663D03*
X015500Y021913D03*
X016500Y023413D03*
X012750Y022663D03*
X010750Y022413D03*
X010750Y024913D03*
X012000Y024913D03*
X016000Y017413D03*
X016500Y016913D03*
X015500Y016413D03*
X014500Y015413D03*
X006500Y011913D03*
X002500Y011413D03*
X022000Y004413D03*
X025350Y004813D03*
X033750Y004663D03*
X035500Y003913D03*
X036500Y005413D03*
D35*
X036500Y005913D02*
X037000Y006413D01*
X039000Y006413D01*
X039500Y006913D01*
X038500Y006913D02*
X038000Y006913D01*
X037000Y007913D01*
X032000Y007913D01*
X031500Y007413D01*
X030000Y007413D01*
X029500Y007913D01*
X028500Y005913D02*
X027000Y007413D01*
X025000Y007413D01*
X024500Y007913D01*
X025000Y008413D02*
X008000Y008413D01*
X007500Y007913D01*
X008500Y008913D02*
X024500Y008913D01*
X024000Y009413D02*
X009500Y009413D01*
X009000Y010413D02*
X008500Y010913D01*
X008500Y013913D01*
X007500Y013913D02*
X007500Y010413D01*
X008000Y009913D01*
X036000Y009913D01*
X038000Y007913D01*
X038500Y007913D01*
X039000Y007413D02*
X039500Y007913D01*
X039000Y007413D02*
X038000Y007413D01*
X037000Y008413D01*
X026000Y008413D01*
X025500Y007913D01*
X026500Y008913D02*
X035500Y008913D01*
X037000Y009913D02*
X038500Y009913D01*
X038500Y010913D02*
X037500Y010913D01*
X036000Y012413D01*
X011000Y012413D01*
X010500Y012913D01*
X010500Y013913D01*
X009500Y013913D02*
X009500Y011413D01*
X010000Y010913D01*
X036000Y010913D01*
X037000Y009913D01*
X036000Y010413D02*
X009000Y010413D01*
X010500Y011413D02*
X035500Y011413D01*
X035500Y011913D02*
X011500Y011913D01*
X012000Y012913D02*
X011500Y013413D01*
X011500Y013913D01*
X012500Y013913D02*
X013000Y013413D01*
X037000Y013413D01*
X037500Y012913D01*
X038500Y012913D01*
X038500Y013913D02*
X037500Y013913D01*
X037250Y014163D01*
X037000Y014413D01*
X014000Y014413D01*
X013500Y013913D01*
X012000Y012913D02*
X036500Y012913D01*
X037500Y011913D01*
X038500Y011913D01*
X036000Y010413D02*
X037500Y008913D01*
X038500Y008913D01*
X036500Y005913D02*
X028500Y005913D01*
X027500Y004913D02*
X027000Y004413D01*
X022000Y004413D01*
X014500Y004413D02*
X014500Y006413D01*
X011250Y005998D02*
X011165Y005913D01*
X010500Y005913D01*
X014500Y015413D02*
X037000Y015413D01*
X037500Y014913D01*
X038500Y014913D01*
X038500Y015913D02*
X037500Y015913D01*
X037000Y016413D01*
X015500Y016413D01*
X016500Y016913D02*
X038500Y016913D01*
X035200Y019713D02*
X034400Y020513D01*
X034400Y022213D01*
X033700Y022913D01*
X021500Y022913D01*
X015900Y022913D01*
X015900Y021563D01*
X015750Y021413D01*
X014835Y021413D01*
X015500Y020663D02*
X016750Y021913D01*
X018900Y021913D01*
X032000Y021913D01*
X032500Y021413D01*
X032500Y019663D01*
X033000Y019663D02*
X033000Y021413D01*
X032000Y022413D01*
X020250Y022413D01*
X020900Y020913D02*
X030750Y020913D01*
X031000Y020663D01*
X031000Y017913D01*
X031500Y017413D02*
X032000Y017913D01*
X032000Y021413D01*
X031800Y024513D02*
X031900Y024613D01*
X035650Y024613D01*
X035677Y024586D01*
X038400Y023913D02*
X038400Y023413D01*
X038400Y023013D01*
X038750Y022663D01*
X038750Y020413D01*
X038400Y023413D02*
X023500Y023413D01*
X016500Y023413D01*
X015900Y023913D02*
X015900Y022913D01*
X016750Y022413D02*
X018250Y022413D01*
X017000Y021413D02*
X022500Y021413D01*
X020900Y020913D02*
X017000Y020913D01*
X018250Y020413D02*
X024750Y020413D01*
X019900Y019913D02*
X017000Y019913D01*
X016000Y017413D02*
X031500Y017413D01*
X014835Y022413D02*
X014874Y023887D01*
X010750Y023998D02*
X010750Y024913D01*
D36*
X014874Y023887D02*
X014900Y023913D01*
X027500Y009413D02*
X035500Y009413D01*
M02*
