G75*
G70*
%OFA0B0*%
%FSLAX24Y24*%
%IPPOS*%
%LPD*%
%AMOC8*
5,1,8,0,0,1.08239X$1,22.5*
%
%ADD10C,0.0000*%
%ADD11C,0.1457*%
%ADD12C,0.0780*%
%ADD13R,0.0780X0.0780*%
%ADD14OC8,0.0780*%
%ADD15C,0.0600*%
%ADD16C,0.1700*%
%ADD17C,0.1542*%
%ADD18C,0.0745*%
%ADD19C,0.0640*%
%ADD20R,0.1135X0.1135*%
%ADD21C,0.0700*%
D10*
X000500Y000100D02*
X000500Y022096D01*
X039870Y022096D01*
X039870Y000100D01*
X000500Y000100D01*
X011291Y001600D02*
X011293Y001653D01*
X011299Y001706D01*
X011309Y001758D01*
X011322Y001809D01*
X011340Y001859D01*
X011361Y001908D01*
X011386Y001955D01*
X011414Y001999D01*
X011446Y002042D01*
X011480Y002082D01*
X011518Y002120D01*
X011558Y002154D01*
X011601Y002186D01*
X011646Y002214D01*
X011692Y002239D01*
X011741Y002260D01*
X011791Y002278D01*
X011842Y002291D01*
X011894Y002301D01*
X011947Y002307D01*
X012000Y002309D01*
X012053Y002307D01*
X012106Y002301D01*
X012158Y002291D01*
X012209Y002278D01*
X012259Y002260D01*
X012308Y002239D01*
X012355Y002214D01*
X012399Y002186D01*
X012442Y002154D01*
X012482Y002120D01*
X012520Y002082D01*
X012554Y002042D01*
X012586Y001999D01*
X012614Y001954D01*
X012639Y001908D01*
X012660Y001859D01*
X012678Y001809D01*
X012691Y001758D01*
X012701Y001706D01*
X012707Y001653D01*
X012709Y001600D01*
X012707Y001547D01*
X012701Y001494D01*
X012691Y001442D01*
X012678Y001391D01*
X012660Y001341D01*
X012639Y001292D01*
X012614Y001245D01*
X012586Y001201D01*
X012554Y001158D01*
X012520Y001118D01*
X012482Y001080D01*
X012442Y001046D01*
X012399Y001014D01*
X012354Y000986D01*
X012308Y000961D01*
X012259Y000940D01*
X012209Y000922D01*
X012158Y000909D01*
X012106Y000899D01*
X012053Y000893D01*
X012000Y000891D01*
X011947Y000893D01*
X011894Y000899D01*
X011842Y000909D01*
X011791Y000922D01*
X011741Y000940D01*
X011692Y000961D01*
X011645Y000986D01*
X011601Y001014D01*
X011558Y001046D01*
X011518Y001080D01*
X011480Y001118D01*
X011446Y001158D01*
X011414Y001201D01*
X011386Y001246D01*
X011361Y001292D01*
X011340Y001341D01*
X011322Y001391D01*
X011309Y001442D01*
X011299Y001494D01*
X011293Y001547D01*
X011291Y001600D01*
X031791Y003600D02*
X031793Y003653D01*
X031799Y003706D01*
X031809Y003758D01*
X031822Y003809D01*
X031840Y003859D01*
X031861Y003908D01*
X031886Y003955D01*
X031914Y003999D01*
X031946Y004042D01*
X031980Y004082D01*
X032018Y004120D01*
X032058Y004154D01*
X032101Y004186D01*
X032146Y004214D01*
X032192Y004239D01*
X032241Y004260D01*
X032291Y004278D01*
X032342Y004291D01*
X032394Y004301D01*
X032447Y004307D01*
X032500Y004309D01*
X032553Y004307D01*
X032606Y004301D01*
X032658Y004291D01*
X032709Y004278D01*
X032759Y004260D01*
X032808Y004239D01*
X032855Y004214D01*
X032899Y004186D01*
X032942Y004154D01*
X032982Y004120D01*
X033020Y004082D01*
X033054Y004042D01*
X033086Y003999D01*
X033114Y003954D01*
X033139Y003908D01*
X033160Y003859D01*
X033178Y003809D01*
X033191Y003758D01*
X033201Y003706D01*
X033207Y003653D01*
X033209Y003600D01*
X033207Y003547D01*
X033201Y003494D01*
X033191Y003442D01*
X033178Y003391D01*
X033160Y003341D01*
X033139Y003292D01*
X033114Y003245D01*
X033086Y003201D01*
X033054Y003158D01*
X033020Y003118D01*
X032982Y003080D01*
X032942Y003046D01*
X032899Y003014D01*
X032854Y002986D01*
X032808Y002961D01*
X032759Y002940D01*
X032709Y002922D01*
X032658Y002909D01*
X032606Y002899D01*
X032553Y002893D01*
X032500Y002891D01*
X032447Y002893D01*
X032394Y002899D01*
X032342Y002909D01*
X032291Y002922D01*
X032241Y002940D01*
X032192Y002961D01*
X032145Y002986D01*
X032101Y003014D01*
X032058Y003046D01*
X032018Y003080D01*
X031980Y003118D01*
X031946Y003158D01*
X031914Y003201D01*
X031886Y003246D01*
X031861Y003292D01*
X031840Y003341D01*
X031822Y003391D01*
X031809Y003442D01*
X031799Y003494D01*
X031793Y003547D01*
X031791Y003600D01*
X031791Y014600D02*
X031793Y014653D01*
X031799Y014706D01*
X031809Y014758D01*
X031822Y014809D01*
X031840Y014859D01*
X031861Y014908D01*
X031886Y014955D01*
X031914Y014999D01*
X031946Y015042D01*
X031980Y015082D01*
X032018Y015120D01*
X032058Y015154D01*
X032101Y015186D01*
X032146Y015214D01*
X032192Y015239D01*
X032241Y015260D01*
X032291Y015278D01*
X032342Y015291D01*
X032394Y015301D01*
X032447Y015307D01*
X032500Y015309D01*
X032553Y015307D01*
X032606Y015301D01*
X032658Y015291D01*
X032709Y015278D01*
X032759Y015260D01*
X032808Y015239D01*
X032855Y015214D01*
X032899Y015186D01*
X032942Y015154D01*
X032982Y015120D01*
X033020Y015082D01*
X033054Y015042D01*
X033086Y014999D01*
X033114Y014954D01*
X033139Y014908D01*
X033160Y014859D01*
X033178Y014809D01*
X033191Y014758D01*
X033201Y014706D01*
X033207Y014653D01*
X033209Y014600D01*
X033207Y014547D01*
X033201Y014494D01*
X033191Y014442D01*
X033178Y014391D01*
X033160Y014341D01*
X033139Y014292D01*
X033114Y014245D01*
X033086Y014201D01*
X033054Y014158D01*
X033020Y014118D01*
X032982Y014080D01*
X032942Y014046D01*
X032899Y014014D01*
X032854Y013986D01*
X032808Y013961D01*
X032759Y013940D01*
X032709Y013922D01*
X032658Y013909D01*
X032606Y013899D01*
X032553Y013893D01*
X032500Y013891D01*
X032447Y013893D01*
X032394Y013899D01*
X032342Y013909D01*
X032291Y013922D01*
X032241Y013940D01*
X032192Y013961D01*
X032145Y013986D01*
X032101Y014014D01*
X032058Y014046D01*
X032018Y014080D01*
X031980Y014118D01*
X031946Y014158D01*
X031914Y014201D01*
X031886Y014246D01*
X031861Y014292D01*
X031840Y014341D01*
X031822Y014391D01*
X031809Y014442D01*
X031799Y014494D01*
X031793Y014547D01*
X031791Y014600D01*
X011791Y020600D02*
X011793Y020653D01*
X011799Y020706D01*
X011809Y020758D01*
X011822Y020809D01*
X011840Y020859D01*
X011861Y020908D01*
X011886Y020955D01*
X011914Y020999D01*
X011946Y021042D01*
X011980Y021082D01*
X012018Y021120D01*
X012058Y021154D01*
X012101Y021186D01*
X012146Y021214D01*
X012192Y021239D01*
X012241Y021260D01*
X012291Y021278D01*
X012342Y021291D01*
X012394Y021301D01*
X012447Y021307D01*
X012500Y021309D01*
X012553Y021307D01*
X012606Y021301D01*
X012658Y021291D01*
X012709Y021278D01*
X012759Y021260D01*
X012808Y021239D01*
X012855Y021214D01*
X012899Y021186D01*
X012942Y021154D01*
X012982Y021120D01*
X013020Y021082D01*
X013054Y021042D01*
X013086Y020999D01*
X013114Y020954D01*
X013139Y020908D01*
X013160Y020859D01*
X013178Y020809D01*
X013191Y020758D01*
X013201Y020706D01*
X013207Y020653D01*
X013209Y020600D01*
X013207Y020547D01*
X013201Y020494D01*
X013191Y020442D01*
X013178Y020391D01*
X013160Y020341D01*
X013139Y020292D01*
X013114Y020245D01*
X013086Y020201D01*
X013054Y020158D01*
X013020Y020118D01*
X012982Y020080D01*
X012942Y020046D01*
X012899Y020014D01*
X012854Y019986D01*
X012808Y019961D01*
X012759Y019940D01*
X012709Y019922D01*
X012658Y019909D01*
X012606Y019899D01*
X012553Y019893D01*
X012500Y019891D01*
X012447Y019893D01*
X012394Y019899D01*
X012342Y019909D01*
X012291Y019922D01*
X012241Y019940D01*
X012192Y019961D01*
X012145Y019986D01*
X012101Y020014D01*
X012058Y020046D01*
X012018Y020080D01*
X011980Y020118D01*
X011946Y020158D01*
X011914Y020201D01*
X011886Y020246D01*
X011861Y020292D01*
X011840Y020341D01*
X011822Y020391D01*
X011809Y020442D01*
X011799Y020494D01*
X011793Y020547D01*
X011791Y020600D01*
D11*
X012500Y020600D03*
X032500Y014600D03*
X032500Y003600D03*
X012000Y001600D03*
D12*
X014500Y001600D03*
X014500Y002600D03*
X016500Y001600D03*
X017500Y001600D03*
X018500Y001600D03*
X019500Y001600D03*
X020500Y001600D03*
X021500Y001600D03*
X022500Y001600D03*
X026500Y001600D03*
X027500Y001600D03*
X028500Y001600D03*
X029500Y001600D03*
X030500Y001600D03*
X031500Y001600D03*
X029500Y004600D03*
X028500Y004600D03*
X027500Y004600D03*
X026500Y004600D03*
X025500Y004600D03*
X024500Y004600D03*
X023500Y004600D03*
X022500Y004600D03*
X021500Y004600D03*
X020500Y004600D03*
X019500Y004600D03*
X018500Y004600D03*
X017500Y004600D03*
X016500Y004600D03*
X015500Y004600D03*
X014500Y004600D03*
X013500Y004600D03*
X012500Y004600D03*
X011500Y004600D03*
X010500Y004600D03*
X009500Y004600D03*
X008500Y004600D03*
X007500Y004600D03*
X006500Y004600D03*
X002890Y003380D03*
X001110Y003380D03*
X004750Y002100D03*
X005750Y002100D03*
X006750Y002100D03*
X002890Y000820D03*
X001110Y000820D03*
X002500Y009100D03*
X002500Y010100D03*
X002500Y011100D03*
X006500Y010600D03*
X007500Y010600D03*
X008500Y010600D03*
X009500Y010600D03*
X010500Y010600D03*
X011500Y010600D03*
X012500Y010600D03*
X013500Y010600D03*
X014500Y010600D03*
X015500Y010600D03*
X016500Y010600D03*
X017500Y010600D03*
X018500Y010600D03*
X019500Y010600D03*
X020500Y010600D03*
X021500Y010600D03*
X022500Y010600D03*
X023500Y010600D03*
X024500Y010600D03*
X025500Y010600D03*
X026500Y010600D03*
X027500Y010600D03*
X028500Y010600D03*
X029500Y010600D03*
X029500Y020600D03*
X030500Y020600D03*
X028500Y020600D03*
X027500Y020600D03*
X026500Y020600D03*
X025500Y020600D03*
X024500Y020600D03*
X022900Y020600D03*
X021900Y020600D03*
X020900Y020600D03*
X019900Y020600D03*
X018900Y020600D03*
X017900Y020600D03*
X016900Y020600D03*
X015900Y020600D03*
X014900Y020600D03*
X013900Y020600D03*
D13*
X031500Y020600D03*
X023500Y001600D03*
D14*
X031500Y010600D03*
X032500Y010600D03*
X032500Y011600D03*
X031500Y011600D03*
X031500Y012600D03*
X032500Y012600D03*
D15*
X009894Y019100D03*
X009106Y019100D03*
D16*
X005854Y019600D03*
D17*
X003394Y019600D03*
X004732Y017710D03*
D18*
X003603Y015584D02*
X002898Y015584D01*
X002898Y013616D02*
X003603Y013616D01*
D19*
X012700Y013600D02*
X013300Y013600D01*
X013300Y014600D02*
X012700Y014600D01*
X012700Y015600D02*
X013300Y015600D01*
D20*
G36*
X034412Y019637D02*
X033611Y020438D01*
X034412Y021239D01*
X035213Y020438D01*
X034412Y019637D01*
G37*
G36*
X038088Y015961D02*
X037287Y016762D01*
X038088Y017563D01*
X038889Y016762D01*
X038088Y015961D01*
G37*
D21*
X038500Y014600D03*
X037500Y014600D03*
X037500Y013600D03*
X038500Y013600D03*
X038500Y012600D03*
X037500Y012600D03*
X037500Y011600D03*
X038500Y011600D03*
X038500Y010600D03*
X037500Y010600D03*
X037500Y009600D03*
X038500Y009600D03*
X038500Y008600D03*
X037500Y008600D03*
X037500Y007600D03*
X038500Y007600D03*
X038500Y006600D03*
X037500Y006600D03*
X037500Y005600D03*
X038500Y005600D03*
X038500Y004600D03*
X037500Y004600D03*
X037500Y003600D03*
X038500Y003600D03*
X038500Y002600D03*
X037500Y002600D03*
M02*
