G75*
G70*
%OFA0B0*%
%FSLAX24Y24*%
%IPPOS*%
%LPD*%
%AMOC8*
5,1,8,0,0,1.08239X$1,22.5*
%
%ADD10C,0.0000*%
%ADD11C,0.0740*%
%ADD12R,0.0740X0.0740*%
%ADD13OC8,0.0740*%
%ADD14R,0.0512X0.0591*%
%ADD15C,0.0560*%
%ADD16C,0.1660*%
%ADD17C,0.1502*%
%ADD18C,0.0705*%
%ADD19C,0.0600*%
%ADD20R,0.0984X0.0669*%
%ADD21R,0.1100X0.0900*%
%ADD22R,0.0579X0.0697*%
%ADD23R,0.0500X0.0250*%
%ADD24R,0.1095X0.1095*%
%ADD25R,0.3000X0.3000*%
%ADD26C,0.0660*%
%ADD27R,0.0591X0.0512*%
%ADD28R,0.0900X0.1100*%
%ADD29R,0.0669X0.0984*%
%ADD30C,0.0240*%
%ADD31OC8,0.0356*%
%ADD32C,0.0080*%
%ADD33C,0.0100*%
D10*
X000500Y000100D02*
X000500Y022096D01*
X039870Y022096D01*
X039870Y000100D01*
X000500Y000100D01*
X011291Y001600D02*
X011293Y001653D01*
X011299Y001706D01*
X011309Y001758D01*
X011322Y001809D01*
X011340Y001859D01*
X011361Y001908D01*
X011386Y001955D01*
X011414Y001999D01*
X011446Y002042D01*
X011480Y002082D01*
X011518Y002120D01*
X011558Y002154D01*
X011601Y002186D01*
X011646Y002214D01*
X011692Y002239D01*
X011741Y002260D01*
X011791Y002278D01*
X011842Y002291D01*
X011894Y002301D01*
X011947Y002307D01*
X012000Y002309D01*
X012053Y002307D01*
X012106Y002301D01*
X012158Y002291D01*
X012209Y002278D01*
X012259Y002260D01*
X012308Y002239D01*
X012355Y002214D01*
X012399Y002186D01*
X012442Y002154D01*
X012482Y002120D01*
X012520Y002082D01*
X012554Y002042D01*
X012586Y001999D01*
X012614Y001954D01*
X012639Y001908D01*
X012660Y001859D01*
X012678Y001809D01*
X012691Y001758D01*
X012701Y001706D01*
X012707Y001653D01*
X012709Y001600D01*
X012707Y001547D01*
X012701Y001494D01*
X012691Y001442D01*
X012678Y001391D01*
X012660Y001341D01*
X012639Y001292D01*
X012614Y001245D01*
X012586Y001201D01*
X012554Y001158D01*
X012520Y001118D01*
X012482Y001080D01*
X012442Y001046D01*
X012399Y001014D01*
X012354Y000986D01*
X012308Y000961D01*
X012259Y000940D01*
X012209Y000922D01*
X012158Y000909D01*
X012106Y000899D01*
X012053Y000893D01*
X012000Y000891D01*
X011947Y000893D01*
X011894Y000899D01*
X011842Y000909D01*
X011791Y000922D01*
X011741Y000940D01*
X011692Y000961D01*
X011645Y000986D01*
X011601Y001014D01*
X011558Y001046D01*
X011518Y001080D01*
X011480Y001118D01*
X011446Y001158D01*
X011414Y001201D01*
X011386Y001246D01*
X011361Y001292D01*
X011340Y001341D01*
X011322Y001391D01*
X011309Y001442D01*
X011299Y001494D01*
X011293Y001547D01*
X011291Y001600D01*
X031791Y003600D02*
X031793Y003653D01*
X031799Y003706D01*
X031809Y003758D01*
X031822Y003809D01*
X031840Y003859D01*
X031861Y003908D01*
X031886Y003955D01*
X031914Y003999D01*
X031946Y004042D01*
X031980Y004082D01*
X032018Y004120D01*
X032058Y004154D01*
X032101Y004186D01*
X032146Y004214D01*
X032192Y004239D01*
X032241Y004260D01*
X032291Y004278D01*
X032342Y004291D01*
X032394Y004301D01*
X032447Y004307D01*
X032500Y004309D01*
X032553Y004307D01*
X032606Y004301D01*
X032658Y004291D01*
X032709Y004278D01*
X032759Y004260D01*
X032808Y004239D01*
X032855Y004214D01*
X032899Y004186D01*
X032942Y004154D01*
X032982Y004120D01*
X033020Y004082D01*
X033054Y004042D01*
X033086Y003999D01*
X033114Y003954D01*
X033139Y003908D01*
X033160Y003859D01*
X033178Y003809D01*
X033191Y003758D01*
X033201Y003706D01*
X033207Y003653D01*
X033209Y003600D01*
X033207Y003547D01*
X033201Y003494D01*
X033191Y003442D01*
X033178Y003391D01*
X033160Y003341D01*
X033139Y003292D01*
X033114Y003245D01*
X033086Y003201D01*
X033054Y003158D01*
X033020Y003118D01*
X032982Y003080D01*
X032942Y003046D01*
X032899Y003014D01*
X032854Y002986D01*
X032808Y002961D01*
X032759Y002940D01*
X032709Y002922D01*
X032658Y002909D01*
X032606Y002899D01*
X032553Y002893D01*
X032500Y002891D01*
X032447Y002893D01*
X032394Y002899D01*
X032342Y002909D01*
X032291Y002922D01*
X032241Y002940D01*
X032192Y002961D01*
X032145Y002986D01*
X032101Y003014D01*
X032058Y003046D01*
X032018Y003080D01*
X031980Y003118D01*
X031946Y003158D01*
X031914Y003201D01*
X031886Y003246D01*
X031861Y003292D01*
X031840Y003341D01*
X031822Y003391D01*
X031809Y003442D01*
X031799Y003494D01*
X031793Y003547D01*
X031791Y003600D01*
X031791Y014600D02*
X031793Y014653D01*
X031799Y014706D01*
X031809Y014758D01*
X031822Y014809D01*
X031840Y014859D01*
X031861Y014908D01*
X031886Y014955D01*
X031914Y014999D01*
X031946Y015042D01*
X031980Y015082D01*
X032018Y015120D01*
X032058Y015154D01*
X032101Y015186D01*
X032146Y015214D01*
X032192Y015239D01*
X032241Y015260D01*
X032291Y015278D01*
X032342Y015291D01*
X032394Y015301D01*
X032447Y015307D01*
X032500Y015309D01*
X032553Y015307D01*
X032606Y015301D01*
X032658Y015291D01*
X032709Y015278D01*
X032759Y015260D01*
X032808Y015239D01*
X032855Y015214D01*
X032899Y015186D01*
X032942Y015154D01*
X032982Y015120D01*
X033020Y015082D01*
X033054Y015042D01*
X033086Y014999D01*
X033114Y014954D01*
X033139Y014908D01*
X033160Y014859D01*
X033178Y014809D01*
X033191Y014758D01*
X033201Y014706D01*
X033207Y014653D01*
X033209Y014600D01*
X033207Y014547D01*
X033201Y014494D01*
X033191Y014442D01*
X033178Y014391D01*
X033160Y014341D01*
X033139Y014292D01*
X033114Y014245D01*
X033086Y014201D01*
X033054Y014158D01*
X033020Y014118D01*
X032982Y014080D01*
X032942Y014046D01*
X032899Y014014D01*
X032854Y013986D01*
X032808Y013961D01*
X032759Y013940D01*
X032709Y013922D01*
X032658Y013909D01*
X032606Y013899D01*
X032553Y013893D01*
X032500Y013891D01*
X032447Y013893D01*
X032394Y013899D01*
X032342Y013909D01*
X032291Y013922D01*
X032241Y013940D01*
X032192Y013961D01*
X032145Y013986D01*
X032101Y014014D01*
X032058Y014046D01*
X032018Y014080D01*
X031980Y014118D01*
X031946Y014158D01*
X031914Y014201D01*
X031886Y014246D01*
X031861Y014292D01*
X031840Y014341D01*
X031822Y014391D01*
X031809Y014442D01*
X031799Y014494D01*
X031793Y014547D01*
X031791Y014600D01*
X011791Y020600D02*
X011793Y020653D01*
X011799Y020706D01*
X011809Y020758D01*
X011822Y020809D01*
X011840Y020859D01*
X011861Y020908D01*
X011886Y020955D01*
X011914Y020999D01*
X011946Y021042D01*
X011980Y021082D01*
X012018Y021120D01*
X012058Y021154D01*
X012101Y021186D01*
X012146Y021214D01*
X012192Y021239D01*
X012241Y021260D01*
X012291Y021278D01*
X012342Y021291D01*
X012394Y021301D01*
X012447Y021307D01*
X012500Y021309D01*
X012553Y021307D01*
X012606Y021301D01*
X012658Y021291D01*
X012709Y021278D01*
X012759Y021260D01*
X012808Y021239D01*
X012855Y021214D01*
X012899Y021186D01*
X012942Y021154D01*
X012982Y021120D01*
X013020Y021082D01*
X013054Y021042D01*
X013086Y020999D01*
X013114Y020954D01*
X013139Y020908D01*
X013160Y020859D01*
X013178Y020809D01*
X013191Y020758D01*
X013201Y020706D01*
X013207Y020653D01*
X013209Y020600D01*
X013207Y020547D01*
X013201Y020494D01*
X013191Y020442D01*
X013178Y020391D01*
X013160Y020341D01*
X013139Y020292D01*
X013114Y020245D01*
X013086Y020201D01*
X013054Y020158D01*
X013020Y020118D01*
X012982Y020080D01*
X012942Y020046D01*
X012899Y020014D01*
X012854Y019986D01*
X012808Y019961D01*
X012759Y019940D01*
X012709Y019922D01*
X012658Y019909D01*
X012606Y019899D01*
X012553Y019893D01*
X012500Y019891D01*
X012447Y019893D01*
X012394Y019899D01*
X012342Y019909D01*
X012291Y019922D01*
X012241Y019940D01*
X012192Y019961D01*
X012145Y019986D01*
X012101Y020014D01*
X012058Y020046D01*
X012018Y020080D01*
X011980Y020118D01*
X011946Y020158D01*
X011914Y020201D01*
X011886Y020246D01*
X011861Y020292D01*
X011840Y020341D01*
X011822Y020391D01*
X011809Y020442D01*
X011799Y020494D01*
X011793Y020547D01*
X011791Y020600D01*
D11*
X013900Y020600D03*
X014900Y020600D03*
X015900Y020600D03*
X016900Y020600D03*
X017900Y020600D03*
X018900Y020600D03*
X019900Y020600D03*
X020900Y020600D03*
X021900Y020600D03*
X022900Y020600D03*
X024500Y020600D03*
X025500Y020600D03*
X026500Y020600D03*
X027500Y020600D03*
X028500Y020600D03*
X029500Y020600D03*
X030500Y020600D03*
X029500Y010600D03*
X028500Y010600D03*
X027500Y010600D03*
X026500Y010600D03*
X025500Y010600D03*
X024500Y010600D03*
X023500Y010600D03*
X022500Y010600D03*
X021500Y010600D03*
X020500Y010600D03*
X019500Y010600D03*
X018500Y010600D03*
X017500Y010600D03*
X016500Y010600D03*
X015500Y010600D03*
X014500Y010600D03*
X013500Y010600D03*
X012500Y010600D03*
X011500Y010600D03*
X010500Y010600D03*
X009500Y010600D03*
X008500Y010600D03*
X007500Y010600D03*
X006500Y010600D03*
X002500Y010100D03*
X002500Y009100D03*
X002500Y011100D03*
X002250Y005850D03*
X003250Y005850D03*
X006500Y004600D03*
X007500Y004600D03*
X008500Y004600D03*
X009500Y004600D03*
X010500Y004600D03*
X011500Y004600D03*
X012500Y004600D03*
X013500Y004600D03*
X014500Y004600D03*
X015500Y004600D03*
X016500Y004600D03*
X017500Y004600D03*
X018500Y004600D03*
X019500Y004600D03*
X020500Y004600D03*
X021500Y004600D03*
X022500Y004600D03*
X023500Y004600D03*
X024500Y004600D03*
X025500Y004600D03*
X026500Y004600D03*
X027500Y004600D03*
X028500Y004600D03*
X029500Y004600D03*
X029500Y001600D03*
X030500Y001600D03*
X031500Y001600D03*
X028500Y001600D03*
X027500Y001600D03*
X026500Y001600D03*
X022500Y001600D03*
X021500Y001600D03*
X020500Y001600D03*
X019500Y001600D03*
X018500Y001600D03*
X017500Y001600D03*
X016500Y001600D03*
X015000Y001600D03*
X015000Y002600D03*
X006750Y002100D03*
X005750Y002100D03*
X004750Y002100D03*
X002890Y003380D03*
X001110Y003380D03*
X001110Y000820D03*
X002890Y000820D03*
D12*
X023500Y001600D03*
X031500Y020600D03*
D13*
X031500Y012600D03*
X032500Y012600D03*
X032500Y011600D03*
X031500Y011600D03*
X031500Y010600D03*
X032500Y010600D03*
D14*
X013874Y018100D03*
X013126Y018100D03*
X013126Y019100D03*
X013874Y019100D03*
D15*
X009894Y019100D03*
X009106Y019100D03*
D16*
X005854Y019600D03*
D17*
X003394Y019600D03*
X004732Y017710D03*
D18*
X003603Y015584D02*
X002898Y015584D01*
X002898Y013616D02*
X003603Y013616D01*
D19*
X012700Y013600D02*
X013300Y013600D01*
X013300Y014600D02*
X012700Y014600D01*
X012700Y015600D02*
X013300Y015600D01*
D20*
X010500Y015852D03*
X010500Y017348D03*
X010500Y013348D03*
X010500Y011852D03*
D21*
X009000Y011794D03*
X009000Y013406D03*
D22*
X009000Y015655D03*
X009000Y017545D03*
D23*
X007750Y012027D03*
X007750Y011673D03*
X011750Y011673D03*
X011750Y012027D03*
D24*
G36*
X034412Y019665D02*
X033639Y020438D01*
X034412Y021211D01*
X035185Y020438D01*
X034412Y019665D01*
G37*
G36*
X038088Y015989D02*
X037315Y016762D01*
X038088Y017535D01*
X038861Y016762D01*
X038088Y015989D01*
G37*
D25*
G36*
X036250Y016479D02*
X034129Y018600D01*
X036250Y020721D01*
X038371Y018600D01*
X036250Y016479D01*
G37*
D26*
X037500Y014600D03*
X038500Y014600D03*
X038500Y013600D03*
X037500Y013600D03*
X037500Y012600D03*
X038500Y012600D03*
X038500Y011600D03*
X037500Y011600D03*
X037500Y010600D03*
X038500Y010600D03*
X038500Y009600D03*
X037500Y009600D03*
X037500Y008600D03*
X038500Y008600D03*
X038500Y007600D03*
X037500Y007600D03*
X037500Y006600D03*
X038500Y006600D03*
X038500Y005600D03*
X037500Y005600D03*
X037500Y004600D03*
X038500Y004600D03*
X038500Y003600D03*
X037500Y003600D03*
X037500Y002600D03*
X038500Y002600D03*
D27*
X010250Y002724D03*
X010250Y001976D03*
D28*
X003056Y007100D03*
X001444Y007100D03*
D29*
X001502Y004600D03*
X002998Y004600D03*
D30*
X002951Y004632D02*
X002077Y004632D01*
X002077Y004870D02*
X002443Y004870D01*
X002443Y004647D02*
X002951Y004647D01*
X002951Y004553D01*
X002443Y004553D01*
X002443Y004079D01*
X002458Y004023D01*
X002487Y003973D01*
X002528Y003932D01*
X002570Y003908D01*
X002544Y003897D01*
X002373Y003726D01*
X002280Y003501D01*
X002280Y003259D01*
X002373Y003034D01*
X002544Y002863D01*
X002769Y002770D01*
X003011Y002770D01*
X003236Y002863D01*
X003407Y003034D01*
X003500Y003259D01*
X003500Y003501D01*
X003407Y003726D01*
X003245Y003888D01*
X003362Y003888D01*
X003418Y003903D01*
X003468Y003932D01*
X003509Y003973D01*
X003538Y004023D01*
X003553Y004079D01*
X003553Y004553D01*
X003045Y004553D01*
X003045Y004647D01*
X003553Y004647D01*
X003553Y005121D01*
X003538Y005177D01*
X003509Y005227D01*
X003468Y005268D01*
X003456Y005275D01*
X003596Y005333D01*
X003640Y005377D01*
X003640Y001028D01*
X003695Y000896D01*
X004195Y000396D01*
X004241Y000350D01*
X003283Y000350D01*
X003407Y000474D01*
X003500Y000699D01*
X003500Y000941D01*
X003407Y001166D01*
X003236Y001337D01*
X003011Y001430D01*
X002769Y001430D01*
X002544Y001337D01*
X002373Y001166D01*
X002280Y000941D01*
X002280Y000699D01*
X002373Y000474D01*
X002497Y000350D01*
X001467Y000350D01*
X001494Y000370D01*
X001560Y000436D01*
X001615Y000511D01*
X001657Y000594D01*
X001685Y000682D01*
X001700Y000774D01*
X001700Y000820D01*
X001700Y000866D01*
X001685Y000958D01*
X001657Y001046D01*
X001615Y001129D01*
X001560Y001204D01*
X001494Y001270D01*
X001419Y001325D01*
X001336Y001367D01*
X001248Y001395D01*
X001156Y001410D01*
X001110Y001410D01*
X001110Y000820D01*
X001110Y000820D01*
X001700Y000820D01*
X001110Y000820D01*
X001110Y000820D01*
X001110Y001410D01*
X001064Y001410D01*
X000972Y001395D01*
X000884Y001367D01*
X000801Y001325D01*
X000750Y001288D01*
X000750Y002912D01*
X000801Y002875D01*
X000884Y002833D01*
X000972Y002805D01*
X001064Y002790D01*
X001110Y002790D01*
X001156Y002790D01*
X001248Y002805D01*
X001336Y002833D01*
X001419Y002875D01*
X001494Y002930D01*
X001560Y002996D01*
X001615Y003071D01*
X001657Y003154D01*
X001685Y003242D01*
X001700Y003334D01*
X001700Y003380D01*
X001700Y003426D01*
X001685Y003518D01*
X001657Y003606D01*
X001615Y003689D01*
X001560Y003764D01*
X001494Y003830D01*
X001442Y003868D01*
X001884Y003868D01*
X001973Y003904D01*
X002040Y003972D01*
X002077Y004060D01*
X002077Y005140D01*
X002040Y005228D01*
X001973Y005296D01*
X001884Y005332D01*
X001804Y005332D01*
X001804Y005433D01*
X001904Y005333D01*
X002129Y005240D01*
X002371Y005240D01*
X002596Y005333D01*
X002750Y005487D01*
X002904Y005333D01*
X003045Y005275D01*
X003045Y004647D01*
X002951Y004647D01*
X002951Y005312D01*
X002634Y005312D01*
X002578Y005297D01*
X002528Y005268D01*
X002487Y005227D01*
X002458Y005177D01*
X002443Y005121D01*
X002443Y004647D01*
X002443Y004393D02*
X002077Y004393D01*
X002077Y004155D02*
X002443Y004155D01*
X002556Y003916D02*
X001984Y003916D01*
X001621Y003678D02*
X002353Y003678D01*
X002280Y003439D02*
X001698Y003439D01*
X001700Y003380D02*
X001110Y003380D01*
X001110Y003380D01*
X001700Y003380D01*
X001672Y003201D02*
X002304Y003201D01*
X002445Y002962D02*
X001526Y002962D01*
X001110Y002962D02*
X001110Y002962D01*
X001110Y002790D02*
X001110Y003380D01*
X001110Y003380D01*
X001110Y002790D01*
X000750Y002724D02*
X003640Y002724D01*
X003640Y002962D02*
X003335Y002962D01*
X003476Y003201D02*
X003640Y003201D01*
X003640Y003439D02*
X003500Y003439D01*
X003427Y003678D02*
X003640Y003678D01*
X003640Y003916D02*
X003440Y003916D01*
X003553Y004155D02*
X003640Y004155D01*
X003640Y004393D02*
X003553Y004393D01*
X003640Y004632D02*
X003045Y004632D01*
X003045Y004870D02*
X002951Y004870D01*
X002951Y005109D02*
X003045Y005109D01*
X002890Y005347D02*
X002610Y005347D01*
X002443Y005109D02*
X002077Y005109D01*
X001890Y005347D02*
X001804Y005347D01*
X002250Y005850D02*
X002250Y006294D01*
X003056Y007100D01*
X002366Y007017D02*
X002134Y007017D01*
X002134Y006778D02*
X002224Y006778D01*
X002134Y006688D02*
X002134Y007698D01*
X002098Y007786D01*
X002030Y007853D01*
X001942Y007890D01*
X001881Y007890D01*
X001918Y007927D01*
X001918Y008273D01*
X001673Y008518D01*
X001327Y008518D01*
X001082Y008273D01*
X001082Y007927D01*
X001084Y007924D01*
X001084Y007890D01*
X000947Y007890D01*
X000859Y007853D01*
X000791Y007786D01*
X000754Y007698D01*
X000754Y006502D01*
X000791Y006414D01*
X000859Y006347D01*
X000947Y006310D01*
X001084Y006310D01*
X001084Y005318D01*
X001031Y005296D01*
X000964Y005228D01*
X000927Y005140D01*
X000927Y004060D01*
X000964Y003972D01*
X000979Y003957D01*
X000972Y003955D01*
X000884Y003927D01*
X000801Y003885D01*
X000750Y003848D01*
X000750Y021850D01*
X010659Y021850D01*
X010582Y021773D01*
X010582Y021427D01*
X010640Y021369D01*
X010640Y019028D01*
X010695Y018896D01*
X011445Y018146D01*
X011546Y018045D01*
X013482Y016109D01*
X013407Y016140D01*
X012593Y016140D01*
X012394Y016058D01*
X012242Y015906D01*
X012204Y015813D01*
X012195Y015804D01*
X012195Y015804D01*
X011750Y015359D01*
X011232Y015877D01*
X011232Y016234D01*
X011196Y016323D01*
X011128Y016390D01*
X011040Y016427D01*
X010652Y016427D01*
X010572Y016460D01*
X010428Y016460D01*
X010409Y016452D01*
X010068Y016793D01*
X010453Y016793D01*
X010453Y017301D01*
X009788Y017301D01*
X009788Y016984D01*
X009794Y016960D01*
X007928Y016960D01*
X007796Y016905D01*
X007695Y016804D01*
X007195Y016304D01*
X007140Y016172D01*
X007140Y013831D01*
X007082Y013773D01*
X007082Y013427D01*
X007327Y013182D01*
X007573Y013182D01*
X007445Y013054D01*
X007390Y012922D01*
X007390Y012387D01*
X007222Y012387D01*
X006918Y012691D01*
X006918Y012773D01*
X006673Y013018D01*
X006360Y013018D01*
X006360Y014369D01*
X006418Y014427D01*
X006418Y014773D01*
X006173Y015018D01*
X005827Y015018D01*
X005582Y014773D01*
X005582Y014427D01*
X005640Y014369D01*
X005640Y012028D01*
X005695Y011896D01*
X005796Y011795D01*
X006223Y011368D01*
X006356Y011313D01*
X007440Y011313D01*
X007452Y011308D01*
X008048Y011308D01*
X008060Y011313D01*
X008210Y011313D01*
X008210Y011297D01*
X008247Y011209D01*
X008284Y011171D01*
X008154Y011117D01*
X008000Y010963D01*
X007846Y011117D01*
X007621Y011210D01*
X007379Y011210D01*
X007154Y011117D01*
X007000Y010963D01*
X006846Y011117D01*
X006621Y011210D01*
X006379Y011210D01*
X006154Y011117D01*
X005983Y010946D01*
X005890Y010721D01*
X005890Y010479D01*
X005983Y010254D01*
X006154Y010083D01*
X006220Y010056D01*
X006220Y007044D01*
X006263Y006941D01*
X006341Y006863D01*
X006841Y006363D01*
X006944Y006320D01*
X008129Y006320D01*
X008082Y006273D01*
X008082Y005927D01*
X008129Y005880D01*
X007811Y005880D01*
X007673Y006018D01*
X007327Y006018D01*
X007082Y005773D01*
X007082Y005427D01*
X007129Y005380D01*
X006944Y005380D01*
X006841Y005337D01*
X006687Y005183D01*
X006621Y005210D01*
X006379Y005210D01*
X006154Y005117D01*
X005983Y004946D01*
X005890Y004721D01*
X005890Y004479D01*
X005983Y004254D01*
X006154Y004083D01*
X006379Y003990D01*
X006621Y003990D01*
X006846Y004083D01*
X007000Y004237D01*
X007154Y004083D01*
X007379Y003990D01*
X007621Y003990D01*
X007846Y004083D01*
X008000Y004237D01*
X008154Y004083D01*
X008379Y003990D01*
X008621Y003990D01*
X008846Y004083D01*
X009000Y004237D01*
X009154Y004083D01*
X009379Y003990D01*
X009621Y003990D01*
X009846Y004083D01*
X010000Y004237D01*
X010154Y004083D01*
X010379Y003990D01*
X010621Y003990D01*
X010846Y004083D01*
X011000Y004237D01*
X011154Y004083D01*
X011379Y003990D01*
X011621Y003990D01*
X011846Y004083D01*
X012000Y004237D01*
X012154Y004083D01*
X012379Y003990D01*
X012621Y003990D01*
X012846Y004083D01*
X013000Y004237D01*
X013140Y004097D01*
X013140Y003960D01*
X005649Y003960D01*
X005360Y004249D01*
X005360Y004369D01*
X005418Y004427D01*
X005418Y004773D01*
X005173Y005018D01*
X004827Y005018D01*
X004582Y004773D01*
X004582Y004427D01*
X004640Y004369D01*
X004640Y004028D01*
X004695Y003896D01*
X005195Y003396D01*
X005296Y003295D01*
X005428Y003240D01*
X013082Y003240D01*
X013082Y002927D01*
X013220Y002789D01*
X013220Y001411D01*
X013082Y001273D01*
X013082Y000960D01*
X012702Y000960D01*
X012804Y001063D01*
X012949Y001411D01*
X012949Y001789D01*
X012804Y002137D01*
X012537Y002404D01*
X012189Y002549D01*
X011811Y002549D01*
X011463Y002404D01*
X011196Y002137D01*
X011051Y001789D01*
X011051Y001411D01*
X011196Y001063D01*
X011298Y000960D01*
X010649Y000960D01*
X010610Y000999D01*
X010610Y001487D01*
X010681Y001517D01*
X010749Y001584D01*
X010785Y001672D01*
X010785Y002280D01*
X010756Y002350D01*
X010785Y002420D01*
X010785Y003028D01*
X010749Y003116D01*
X010681Y003183D01*
X010593Y003220D01*
X009907Y003220D01*
X009819Y003183D01*
X009751Y003116D01*
X009715Y003028D01*
X009715Y003004D01*
X009568Y003004D01*
X009465Y002961D01*
X009341Y002837D01*
X009263Y002759D01*
X009220Y002656D01*
X009220Y002411D01*
X009082Y002273D01*
X009082Y001927D01*
X009327Y001682D01*
X009673Y001682D01*
X009715Y001723D01*
X009715Y001672D01*
X009751Y001584D01*
X009819Y001517D01*
X009890Y001487D01*
X009890Y000778D01*
X009945Y000646D01*
X010046Y000545D01*
X010241Y000350D01*
X008341Y000350D01*
X008418Y000427D01*
X008418Y000773D01*
X008173Y001018D01*
X007827Y001018D01*
X007769Y000960D01*
X004649Y000960D01*
X004360Y001249D01*
X004360Y001627D01*
X004404Y001583D01*
X004629Y001490D01*
X004871Y001490D01*
X005096Y001583D01*
X005250Y001737D01*
X005404Y001583D01*
X005629Y001490D01*
X005871Y001490D01*
X006096Y001583D01*
X006250Y001737D01*
X006404Y001583D01*
X006629Y001490D01*
X006871Y001490D01*
X007096Y001583D01*
X007267Y001754D01*
X007360Y001979D01*
X007360Y002221D01*
X007267Y002446D01*
X007096Y002617D01*
X006871Y002710D01*
X006629Y002710D01*
X006404Y002617D01*
X006250Y002463D01*
X006096Y002617D01*
X005871Y002710D01*
X005629Y002710D01*
X005404Y002617D01*
X005250Y002463D01*
X005096Y002617D01*
X004871Y002710D01*
X004629Y002710D01*
X004404Y002617D01*
X004360Y002573D01*
X004360Y010672D01*
X004305Y010804D01*
X004204Y010905D01*
X003704Y011405D01*
X003572Y011460D01*
X003003Y011460D01*
X002846Y011617D01*
X002621Y011710D01*
X002379Y011710D01*
X002154Y011617D01*
X001983Y011446D01*
X001890Y011221D01*
X001890Y010979D01*
X001983Y010754D01*
X002137Y010600D01*
X001983Y010446D01*
X001890Y010221D01*
X001890Y009979D01*
X001983Y009754D01*
X002137Y009600D01*
X001983Y009446D01*
X001890Y009221D01*
X001890Y008979D01*
X001983Y008754D01*
X002154Y008583D01*
X002379Y008490D01*
X002621Y008490D01*
X002846Y008583D01*
X003017Y008754D01*
X003110Y008979D01*
X003110Y009221D01*
X003017Y009446D01*
X002863Y009600D01*
X003017Y009754D01*
X003110Y009979D01*
X003110Y010221D01*
X003017Y010446D01*
X002863Y010600D01*
X003003Y010740D01*
X003351Y010740D01*
X003640Y010451D01*
X003640Y007854D01*
X003553Y007890D01*
X002558Y007890D01*
X002470Y007853D01*
X002402Y007786D01*
X002366Y007698D01*
X002366Y006919D01*
X002134Y006688D01*
X001444Y007100D02*
X001444Y008044D01*
X001500Y008100D01*
X001918Y008209D02*
X003640Y008209D01*
X003640Y007971D02*
X001918Y007971D01*
X002120Y007732D02*
X002380Y007732D01*
X002366Y007494D02*
X002134Y007494D01*
X002134Y007255D02*
X002366Y007255D01*
X001444Y007100D02*
X001444Y004657D01*
X001502Y004600D01*
X000927Y004632D02*
X000750Y004632D01*
X000750Y004870D02*
X000927Y004870D01*
X000927Y005109D02*
X000750Y005109D01*
X000750Y005347D02*
X001084Y005347D01*
X001084Y005586D02*
X000750Y005586D01*
X000750Y005824D02*
X001084Y005824D01*
X001084Y006063D02*
X000750Y006063D01*
X000750Y006301D02*
X001084Y006301D01*
X000754Y006540D02*
X000750Y006540D01*
X000750Y006778D02*
X000754Y006778D01*
X000750Y007017D02*
X000754Y007017D01*
X000750Y007255D02*
X000754Y007255D01*
X000750Y007494D02*
X000754Y007494D01*
X000750Y007732D02*
X000769Y007732D01*
X000750Y007971D02*
X001082Y007971D01*
X001082Y008209D02*
X000750Y008209D01*
X000750Y008448D02*
X001256Y008448D01*
X001744Y008448D02*
X003640Y008448D01*
X003640Y008686D02*
X002949Y008686D01*
X003088Y008925D02*
X003640Y008925D01*
X003640Y009163D02*
X003110Y009163D01*
X003035Y009402D02*
X003640Y009402D01*
X003640Y009640D02*
X002903Y009640D01*
X003069Y009879D02*
X003640Y009879D01*
X003640Y010117D02*
X003110Y010117D01*
X003054Y010356D02*
X003640Y010356D01*
X003497Y010594D02*
X002869Y010594D01*
X002131Y010594D02*
X000750Y010594D01*
X000750Y010356D02*
X001946Y010356D01*
X001890Y010117D02*
X000750Y010117D01*
X000750Y009879D02*
X001931Y009879D01*
X002097Y009640D02*
X000750Y009640D01*
X000750Y009402D02*
X001965Y009402D01*
X001890Y009163D02*
X000750Y009163D01*
X000750Y008925D02*
X001912Y008925D01*
X002051Y008686D02*
X000750Y008686D01*
X003500Y011100D02*
X004000Y010600D01*
X004000Y005850D01*
X003250Y005850D01*
X004000Y005850D02*
X004000Y001100D01*
X004500Y000600D01*
X008000Y000600D01*
X008418Y000577D02*
X010014Y000577D01*
X009890Y000816D02*
X008376Y000816D01*
X006970Y001531D02*
X009804Y001531D01*
X009890Y001293D02*
X004360Y001293D01*
X004360Y001531D02*
X004530Y001531D01*
X004970Y001531D02*
X005530Y001531D01*
X005970Y001531D02*
X006530Y001531D01*
X007273Y001770D02*
X009239Y001770D01*
X009082Y002008D02*
X007360Y002008D01*
X007350Y002247D02*
X009082Y002247D01*
X009220Y002485D02*
X007228Y002485D01*
X006272Y002485D02*
X006228Y002485D01*
X005272Y002485D02*
X005228Y002485D01*
X004360Y002724D02*
X009248Y002724D01*
X009467Y002962D02*
X004360Y002962D01*
X004360Y003201D02*
X009860Y003201D01*
X010640Y003201D02*
X013082Y003201D01*
X013082Y002962D02*
X010785Y002962D01*
X010785Y002724D02*
X013220Y002724D01*
X013220Y002485D02*
X012342Y002485D01*
X012695Y002247D02*
X013220Y002247D01*
X013220Y002008D02*
X012858Y002008D01*
X012949Y001770D02*
X013220Y001770D01*
X013220Y001531D02*
X012949Y001531D01*
X012899Y001293D02*
X013101Y001293D01*
X013082Y001054D02*
X012796Y001054D01*
X013780Y001411D02*
X013918Y001273D01*
X013918Y000960D01*
X014640Y000960D01*
X014640Y001097D01*
X014483Y001254D01*
X014390Y001479D01*
X014390Y001721D01*
X014483Y001946D01*
X014637Y002100D01*
X014483Y002254D01*
X014390Y002479D01*
X014390Y002721D01*
X014483Y002946D01*
X014654Y003117D01*
X014879Y003210D01*
X015121Y003210D01*
X015346Y003117D01*
X015503Y002960D01*
X017631Y002960D01*
X017351Y003240D01*
X013918Y003240D01*
X013918Y002927D01*
X013780Y002789D01*
X013780Y001411D01*
X013780Y001531D02*
X014390Y001531D01*
X014410Y001770D02*
X013780Y001770D01*
X013780Y002008D02*
X014545Y002008D01*
X014491Y002247D02*
X013780Y002247D01*
X013780Y002485D02*
X014390Y002485D01*
X014391Y002724D02*
X013780Y002724D01*
X013918Y002962D02*
X014499Y002962D01*
X014856Y003201D02*
X013918Y003201D01*
X013500Y003600D02*
X013500Y004600D01*
X013917Y004155D02*
X014111Y004155D01*
X014116Y004150D02*
X014191Y004095D01*
X014274Y004053D01*
X014362Y004025D01*
X014454Y004010D01*
X014500Y004010D01*
X014546Y004010D01*
X014638Y004025D01*
X014726Y004053D01*
X014809Y004095D01*
X014884Y004150D01*
X014950Y004216D01*
X014981Y004259D01*
X014983Y004254D01*
X015154Y004083D01*
X015379Y003990D01*
X015621Y003990D01*
X015846Y004083D01*
X016000Y004237D01*
X016154Y004083D01*
X016379Y003990D01*
X016621Y003990D01*
X016846Y004083D01*
X017000Y004237D01*
X017154Y004083D01*
X017379Y003990D01*
X017621Y003990D01*
X017846Y004083D01*
X018000Y004237D01*
X018154Y004083D01*
X018379Y003990D01*
X018621Y003990D01*
X018846Y004083D01*
X019000Y004237D01*
X019154Y004083D01*
X019379Y003990D01*
X019621Y003990D01*
X019846Y004083D01*
X020000Y004237D01*
X020154Y004083D01*
X020379Y003990D01*
X020621Y003990D01*
X020846Y004083D01*
X021000Y004237D01*
X021154Y004083D01*
X021379Y003990D01*
X021621Y003990D01*
X021846Y004083D01*
X022000Y004237D01*
X022154Y004083D01*
X022379Y003990D01*
X022621Y003990D01*
X022846Y004083D01*
X023000Y004237D01*
X023154Y004083D01*
X023379Y003990D01*
X023621Y003990D01*
X023687Y004017D01*
X023841Y003863D01*
X023944Y003820D01*
X025884Y003820D01*
X026994Y002710D01*
X025899Y002710D01*
X025204Y003405D01*
X025072Y003460D01*
X018149Y003460D01*
X017704Y003905D01*
X017572Y003960D01*
X013860Y003960D01*
X013860Y004097D01*
X014017Y004254D01*
X014019Y004259D01*
X014050Y004216D01*
X014116Y004150D01*
X014500Y004155D02*
X014500Y004155D01*
X014500Y004010D02*
X014500Y004600D01*
X014500Y004600D01*
X014500Y004010D01*
X014889Y004155D02*
X015083Y004155D01*
X014500Y004393D02*
X014500Y004393D01*
X013083Y004155D02*
X012917Y004155D01*
X013500Y003600D02*
X017500Y003600D01*
X018000Y003100D01*
X025000Y003100D01*
X025750Y002350D01*
X033750Y002350D01*
X034500Y001600D01*
X039000Y001600D01*
X039500Y002100D01*
X039500Y012350D01*
X039250Y012600D01*
X038500Y012600D01*
X038946Y012240D02*
X039101Y012240D01*
X039140Y012201D01*
X039140Y002249D01*
X038851Y001960D01*
X034649Y001960D01*
X034289Y002320D01*
X035444Y002320D01*
X035556Y002320D01*
X035659Y002363D01*
X036116Y002820D01*
X036995Y002820D01*
X036990Y002811D01*
X036964Y002729D01*
X036950Y002643D01*
X036950Y002600D01*
X037500Y002600D01*
X038500Y002600D01*
X039050Y002600D01*
X039050Y002643D01*
X039036Y002729D01*
X039010Y002811D01*
X038970Y002888D01*
X038920Y002958D01*
X038858Y003020D01*
X038788Y003070D01*
X038754Y003088D01*
X038823Y003117D01*
X038983Y003277D01*
X039070Y003487D01*
X039070Y003713D01*
X038983Y003923D01*
X038823Y004083D01*
X038782Y004100D01*
X038823Y004117D01*
X038983Y004277D01*
X039070Y004487D01*
X039070Y004713D01*
X038983Y004923D01*
X038823Y005083D01*
X038782Y005100D01*
X038823Y005117D01*
X038983Y005277D01*
X039070Y005487D01*
X039070Y005713D01*
X038983Y005923D01*
X038823Y006083D01*
X038782Y006100D01*
X038823Y006117D01*
X038983Y006277D01*
X039070Y006487D01*
X039070Y006713D01*
X038983Y006923D01*
X038823Y007083D01*
X038782Y007100D01*
X038823Y007117D01*
X038983Y007277D01*
X039070Y007487D01*
X039070Y007713D01*
X038983Y007923D01*
X038823Y008083D01*
X038782Y008100D01*
X038823Y008117D01*
X038983Y008277D01*
X039070Y008487D01*
X039070Y008713D01*
X038983Y008923D01*
X038823Y009083D01*
X038782Y009100D01*
X038823Y009117D01*
X038983Y009277D01*
X039070Y009487D01*
X039070Y009713D01*
X038983Y009923D01*
X038823Y010083D01*
X038782Y010100D01*
X038823Y010117D01*
X039140Y010117D01*
X038983Y010277D02*
X039070Y010487D01*
X039070Y010713D01*
X038983Y010923D01*
X038823Y011083D01*
X038782Y011100D01*
X038823Y011117D01*
X038983Y011277D01*
X039070Y011487D01*
X039070Y011713D01*
X038983Y011923D01*
X038823Y012083D01*
X038782Y012100D01*
X038823Y012117D01*
X038946Y012240D01*
X038881Y012025D02*
X039140Y012025D01*
X039140Y011787D02*
X039040Y011787D01*
X039070Y011548D02*
X039140Y011548D01*
X039140Y011310D02*
X038997Y011310D01*
X039140Y011071D02*
X038835Y011071D01*
X039021Y010833D02*
X039140Y010833D01*
X039140Y010594D02*
X039070Y010594D01*
X039016Y010356D02*
X039140Y010356D01*
X038983Y010277D02*
X038823Y010117D01*
X039002Y009879D02*
X039140Y009879D01*
X039140Y009640D02*
X039070Y009640D01*
X039035Y009402D02*
X039140Y009402D01*
X039140Y009163D02*
X038869Y009163D01*
X038982Y008925D02*
X039140Y008925D01*
X039140Y008686D02*
X039070Y008686D01*
X039054Y008448D02*
X039140Y008448D01*
X039140Y008209D02*
X038915Y008209D01*
X038936Y007971D02*
X039140Y007971D01*
X039140Y007732D02*
X039062Y007732D01*
X039070Y007494D02*
X039140Y007494D01*
X039140Y007255D02*
X038961Y007255D01*
X038890Y007017D02*
X039140Y007017D01*
X039140Y006778D02*
X039043Y006778D01*
X039070Y006540D02*
X039140Y006540D01*
X039140Y006301D02*
X038993Y006301D01*
X039140Y006063D02*
X038844Y006063D01*
X039024Y005824D02*
X039140Y005824D01*
X039140Y005586D02*
X039070Y005586D01*
X039012Y005347D02*
X039140Y005347D01*
X039140Y005109D02*
X038803Y005109D01*
X039005Y004870D02*
X039140Y004870D01*
X039140Y004632D02*
X039070Y004632D01*
X039031Y004393D02*
X039140Y004393D01*
X039140Y004155D02*
X038861Y004155D01*
X038986Y003916D02*
X039140Y003916D01*
X039140Y003678D02*
X039070Y003678D01*
X039050Y003439D02*
X039140Y003439D01*
X039140Y003201D02*
X038907Y003201D01*
X038916Y002962D02*
X039140Y002962D01*
X039140Y002724D02*
X039037Y002724D01*
X039050Y002600D02*
X038500Y002600D01*
X038500Y002600D01*
X038500Y002600D01*
X038500Y002050D01*
X038543Y002050D01*
X038629Y002064D01*
X038711Y002090D01*
X038788Y002130D01*
X038858Y002180D01*
X038920Y002242D01*
X038970Y002312D01*
X039010Y002389D01*
X039036Y002471D01*
X039050Y002557D01*
X039050Y002600D01*
X039039Y002485D02*
X039140Y002485D01*
X039137Y002247D02*
X038923Y002247D01*
X038899Y002008D02*
X034601Y002008D01*
X034363Y002247D02*
X037077Y002247D01*
X037080Y002242D02*
X037142Y002180D01*
X037212Y002130D01*
X037289Y002090D01*
X037371Y002064D01*
X037457Y002050D01*
X037500Y002050D01*
X037543Y002050D01*
X037629Y002064D01*
X037711Y002090D01*
X037788Y002130D01*
X037858Y002180D01*
X037920Y002242D01*
X037970Y002312D01*
X038000Y002370D01*
X038030Y002312D01*
X038080Y002242D01*
X038142Y002180D01*
X038212Y002130D01*
X038289Y002090D01*
X038371Y002064D01*
X038457Y002050D01*
X038500Y002050D01*
X038500Y002600D01*
X038500Y002600D01*
X038050Y002600D01*
X037500Y002600D01*
X037500Y002600D01*
X037500Y002050D01*
X037500Y002600D01*
X037500Y002600D01*
X037500Y002600D01*
X036950Y002600D01*
X036950Y002557D01*
X036964Y002471D01*
X036990Y002389D01*
X037030Y002312D01*
X037080Y002242D01*
X036961Y002485D02*
X035781Y002485D01*
X036019Y002724D02*
X036963Y002724D01*
X037500Y002485D02*
X037500Y002485D01*
X037500Y002247D02*
X037500Y002247D01*
X037923Y002247D02*
X038077Y002247D01*
X038500Y002247D02*
X038500Y002247D01*
X038500Y002485D02*
X038500Y002485D01*
X039500Y001591D02*
X039500Y000350D01*
X034841Y000350D01*
X034918Y000427D01*
X034918Y000773D01*
X034673Y001018D01*
X034327Y001018D01*
X034269Y000960D01*
X026256Y000960D01*
X026313Y001017D01*
X026379Y000990D01*
X026621Y000990D01*
X026846Y001083D01*
X027000Y001237D01*
X027154Y001083D01*
X027379Y000990D01*
X027621Y000990D01*
X027846Y001083D01*
X028000Y001237D01*
X028154Y001083D01*
X028379Y000990D01*
X028621Y000990D01*
X028846Y001083D01*
X029000Y001237D01*
X029154Y001083D01*
X029379Y000990D01*
X029621Y000990D01*
X029846Y001083D01*
X030000Y001237D01*
X030154Y001083D01*
X030379Y000990D01*
X030621Y000990D01*
X030846Y001083D01*
X031000Y001237D01*
X031154Y001083D01*
X031379Y000990D01*
X031621Y000990D01*
X031846Y001083D01*
X032017Y001254D01*
X032110Y001479D01*
X032110Y001721D01*
X032017Y001946D01*
X031973Y001990D01*
X033601Y001990D01*
X034195Y001396D01*
X034296Y001295D01*
X034428Y001240D01*
X038928Y001240D01*
X039072Y001240D01*
X039204Y001295D01*
X039500Y001591D01*
X039500Y001531D02*
X039440Y001531D01*
X039500Y001293D02*
X039198Y001293D01*
X039500Y001054D02*
X031776Y001054D01*
X032033Y001293D02*
X034302Y001293D01*
X034060Y001531D02*
X032110Y001531D01*
X032090Y001770D02*
X033821Y001770D01*
X034876Y000816D02*
X039500Y000816D01*
X039500Y000577D02*
X034918Y000577D01*
X034500Y000600D02*
X019500Y000600D01*
X019500Y001600D01*
X020500Y001600D02*
X019500Y002600D01*
X015000Y002600D01*
X015501Y002962D02*
X017629Y002962D01*
X017390Y003201D02*
X015144Y003201D01*
X015917Y004155D02*
X016083Y004155D01*
X016917Y004155D02*
X017083Y004155D01*
X017678Y003916D02*
X023788Y003916D01*
X023083Y004155D02*
X022917Y004155D01*
X022083Y004155D02*
X021917Y004155D01*
X021083Y004155D02*
X020917Y004155D01*
X020083Y004155D02*
X019917Y004155D01*
X019083Y004155D02*
X018917Y004155D01*
X018083Y004155D02*
X017917Y004155D01*
X017932Y003678D02*
X026027Y003678D01*
X026265Y003439D02*
X025122Y003439D01*
X025409Y003201D02*
X026504Y003201D01*
X026742Y002962D02*
X025647Y002962D01*
X025886Y002724D02*
X026981Y002724D01*
X027295Y003201D02*
X031639Y003201D01*
X031696Y003063D02*
X031878Y002880D01*
X027616Y002880D01*
X026506Y003990D01*
X026621Y003990D01*
X026846Y004083D01*
X027000Y004237D01*
X027154Y004083D01*
X027379Y003990D01*
X027621Y003990D01*
X027846Y004083D01*
X028000Y004237D01*
X028154Y004083D01*
X028379Y003990D01*
X028621Y003990D01*
X028687Y004017D01*
X028841Y003863D01*
X028944Y003820D01*
X030556Y003820D01*
X030659Y003863D01*
X030737Y003941D01*
X031116Y004320D01*
X031878Y004320D01*
X031696Y004137D01*
X031551Y003789D01*
X031551Y003411D01*
X031696Y003063D01*
X031796Y002962D02*
X027534Y002962D01*
X027057Y003439D02*
X031551Y003439D01*
X031551Y003678D02*
X026818Y003678D01*
X026580Y003916D02*
X028788Y003916D01*
X028083Y004155D02*
X027917Y004155D01*
X027083Y004155D02*
X026917Y004155D01*
X025445Y002146D02*
X024851Y002740D01*
X019869Y002740D01*
X020399Y002210D01*
X020621Y002210D01*
X020846Y002117D01*
X021017Y001946D01*
X021019Y001941D01*
X021050Y001984D01*
X021116Y002050D01*
X021191Y002105D01*
X021274Y002147D01*
X021362Y002175D01*
X021454Y002190D01*
X021500Y002190D01*
X021500Y001600D01*
X021500Y001600D01*
X022090Y001600D01*
X022500Y001600D01*
X022500Y001600D01*
X022500Y002190D01*
X022546Y002190D01*
X022638Y002175D01*
X022726Y002147D01*
X022809Y002105D01*
X022884Y002050D01*
X022898Y002037D01*
X022927Y002106D01*
X022994Y002173D01*
X023082Y002210D01*
X023918Y002210D01*
X024006Y002173D01*
X024073Y002106D01*
X024110Y002018D01*
X024110Y001380D01*
X025884Y001380D01*
X025917Y001413D01*
X025890Y001479D01*
X025890Y001721D01*
X025983Y001946D01*
X026027Y001990D01*
X025678Y001990D01*
X025546Y002045D01*
X025445Y002146D01*
X025344Y002247D02*
X020363Y002247D01*
X020124Y002485D02*
X025106Y002485D01*
X024867Y002724D02*
X019886Y002724D01*
X020955Y002008D02*
X021074Y002008D01*
X021500Y002008D02*
X021500Y002008D01*
X021500Y002190D02*
X021500Y001600D01*
X021500Y001600D01*
X022500Y001600D01*
X022500Y002190D01*
X022454Y002190D01*
X022362Y002175D01*
X022274Y002147D01*
X022191Y002105D01*
X022116Y002050D01*
X022050Y001984D01*
X022000Y001916D01*
X021950Y001984D01*
X021884Y002050D01*
X021809Y002105D01*
X021726Y002147D01*
X021638Y002175D01*
X021546Y002190D01*
X021500Y002190D01*
X021926Y002008D02*
X022074Y002008D01*
X022500Y002008D02*
X022500Y002008D01*
X022500Y001770D02*
X022500Y001770D01*
X022500Y001600D02*
X022500Y001600D01*
X021500Y001770D02*
X021500Y001770D01*
X019500Y000600D02*
X017500Y000600D01*
X017500Y001600D01*
X017500Y000600D02*
X015000Y000600D01*
X015000Y001600D01*
X014467Y001293D02*
X013899Y001293D01*
X013918Y001054D02*
X014640Y001054D01*
X015000Y000600D02*
X010500Y000600D01*
X010250Y000850D01*
X010250Y001976D01*
X010785Y002008D02*
X011142Y002008D01*
X011051Y001770D02*
X010785Y001770D01*
X010696Y001531D02*
X011051Y001531D01*
X011101Y001293D02*
X010610Y001293D01*
X010610Y001054D02*
X011204Y001054D01*
X009890Y001054D02*
X004555Y001054D01*
X004014Y000577D02*
X003450Y000577D01*
X003500Y000816D02*
X003775Y000816D01*
X003640Y001054D02*
X003453Y001054D01*
X003280Y001293D02*
X003640Y001293D01*
X003640Y001531D02*
X000750Y001531D01*
X000750Y001293D02*
X000757Y001293D01*
X001110Y001293D02*
X001110Y001293D01*
X001110Y001054D02*
X001110Y001054D01*
X001463Y001293D02*
X002500Y001293D01*
X002327Y001054D02*
X001653Y001054D01*
X001700Y000816D02*
X002280Y000816D01*
X002330Y000577D02*
X001648Y000577D01*
X000750Y001770D02*
X003640Y001770D01*
X003640Y002008D02*
X000750Y002008D01*
X000750Y002247D02*
X003640Y002247D01*
X003640Y002485D02*
X000750Y002485D01*
X001110Y003201D02*
X001110Y003201D01*
X000862Y003916D02*
X000750Y003916D01*
X000750Y004155D02*
X000927Y004155D01*
X000927Y004393D02*
X000750Y004393D01*
X003553Y004870D02*
X003640Y004870D01*
X003640Y005109D02*
X003553Y005109D01*
X003610Y005347D02*
X003640Y005347D01*
X004360Y005347D02*
X006865Y005347D01*
X007082Y005586D02*
X004360Y005586D01*
X004360Y005824D02*
X007133Y005824D01*
X006665Y006540D02*
X004360Y006540D01*
X004360Y006778D02*
X006426Y006778D01*
X006232Y007017D02*
X004360Y007017D01*
X004360Y007255D02*
X006220Y007255D01*
X006220Y007494D02*
X004360Y007494D01*
X004360Y007732D02*
X006220Y007732D01*
X006220Y007971D02*
X004360Y007971D01*
X004360Y008209D02*
X006220Y008209D01*
X006220Y008448D02*
X004360Y008448D01*
X004360Y008686D02*
X006220Y008686D01*
X006220Y008925D02*
X004360Y008925D01*
X004360Y009163D02*
X006220Y009163D01*
X006220Y009402D02*
X004360Y009402D01*
X004360Y009640D02*
X006220Y009640D01*
X006220Y009879D02*
X004360Y009879D01*
X004360Y010117D02*
X006120Y010117D01*
X005941Y010356D02*
X004360Y010356D01*
X004360Y010594D02*
X005890Y010594D01*
X005936Y010833D02*
X004277Y010833D01*
X004038Y011071D02*
X006108Y011071D01*
X006043Y011548D02*
X002915Y011548D01*
X002500Y011100D02*
X003500Y011100D01*
X003800Y011310D02*
X007448Y011310D01*
X007108Y011071D02*
X006892Y011071D01*
X007892Y011071D02*
X008108Y011071D01*
X008052Y011310D02*
X008210Y011310D01*
X007750Y011673D02*
X006427Y011673D01*
X006000Y012100D01*
X006000Y014600D01*
X005696Y014887D02*
X000750Y014887D01*
X000750Y014649D02*
X005582Y014649D01*
X005599Y014410D02*
X000750Y014410D01*
X000750Y014172D02*
X002755Y014172D01*
X002763Y014174D02*
X002678Y014146D01*
X002597Y014105D01*
X002525Y014052D01*
X002461Y013989D01*
X002408Y013916D01*
X002367Y013836D01*
X002339Y013750D01*
X002325Y013661D01*
X002325Y013616D01*
X003250Y013616D01*
X003250Y014188D01*
X002852Y014188D01*
X002763Y014174D01*
X002420Y013933D02*
X000750Y013933D01*
X000750Y013695D02*
X002330Y013695D01*
X002325Y013616D02*
X002325Y013571D01*
X002339Y013482D01*
X002367Y013396D01*
X002408Y013316D01*
X002461Y013243D01*
X002525Y013179D01*
X002597Y013126D01*
X002678Y013085D01*
X002763Y013057D01*
X002852Y013043D01*
X003250Y013043D01*
X003648Y013043D01*
X003737Y013057D01*
X003822Y013085D01*
X003903Y013126D01*
X003975Y013179D01*
X004039Y013243D01*
X004092Y013316D01*
X004133Y013396D01*
X004161Y013482D01*
X004175Y013571D01*
X004175Y013616D01*
X004175Y013661D01*
X004161Y013750D01*
X004133Y013836D01*
X004092Y013916D01*
X004039Y013989D01*
X003975Y014052D01*
X003903Y014105D01*
X003822Y014146D01*
X003737Y014174D01*
X003648Y014188D01*
X003250Y014188D01*
X003250Y013616D01*
X003250Y013616D01*
X003250Y013616D01*
X004175Y013616D01*
X003250Y013616D01*
X003250Y013616D01*
X002325Y013616D01*
X002347Y013456D02*
X000750Y013456D01*
X000750Y013218D02*
X002486Y013218D01*
X003250Y013218D02*
X003250Y013218D01*
X003250Y013043D02*
X003250Y013616D01*
X003250Y013616D01*
X003250Y013043D01*
X004014Y013218D02*
X005640Y013218D01*
X005640Y013456D02*
X004153Y013456D01*
X004170Y013695D02*
X005640Y013695D01*
X005640Y013933D02*
X004080Y013933D01*
X003745Y014172D02*
X005640Y014172D01*
X006360Y014172D02*
X007140Y014172D01*
X007140Y014410D02*
X006401Y014410D01*
X006418Y014649D02*
X007140Y014649D01*
X007140Y014887D02*
X006304Y014887D01*
X007140Y015126D02*
X003982Y015126D01*
X003938Y015082D02*
X004105Y015249D01*
X004195Y015466D01*
X004195Y015702D01*
X004105Y015920D01*
X003938Y016087D01*
X003720Y016177D01*
X002780Y016177D01*
X002562Y016087D01*
X002395Y015920D01*
X002305Y015702D01*
X002305Y015466D01*
X002395Y015249D01*
X002562Y015082D01*
X002780Y014992D01*
X003720Y014992D01*
X003938Y015082D01*
X004153Y015364D02*
X007140Y015364D01*
X007140Y015603D02*
X004195Y015603D01*
X004137Y015841D02*
X007140Y015841D01*
X007140Y016080D02*
X003945Y016080D01*
X004463Y016776D02*
X004569Y016751D01*
X004612Y016746D01*
X004612Y017590D01*
X003768Y017590D01*
X003773Y017547D01*
X003798Y017441D01*
X003834Y017338D01*
X003881Y017240D01*
X003939Y017147D01*
X004007Y017062D01*
X004084Y016985D01*
X004169Y016917D01*
X004262Y016859D01*
X004360Y016812D01*
X004463Y016776D01*
X004407Y016795D02*
X000750Y016795D01*
X000750Y016557D02*
X007447Y016557D01*
X007686Y016795D02*
X005057Y016795D01*
X005105Y016812D02*
X005203Y016859D01*
X005295Y016917D01*
X005380Y016985D01*
X005458Y017062D01*
X005526Y017147D01*
X005584Y017240D01*
X005631Y017338D01*
X005667Y017441D01*
X005691Y017547D01*
X005696Y017590D01*
X004852Y017590D01*
X004852Y016746D01*
X004895Y016751D01*
X005002Y016776D01*
X005105Y016812D01*
X004852Y016795D02*
X004612Y016795D01*
X004612Y017034D02*
X004852Y017034D01*
X004852Y017272D02*
X004612Y017272D01*
X004612Y017511D02*
X004852Y017511D01*
X004852Y017590D02*
X004612Y017590D01*
X004612Y017830D01*
X003768Y017830D01*
X003773Y017873D01*
X003798Y017980D01*
X003834Y018082D01*
X003881Y018181D01*
X003939Y018273D01*
X004007Y018358D01*
X004084Y018436D01*
X004169Y018504D01*
X004262Y018562D01*
X004360Y018609D01*
X004463Y018645D01*
X004569Y018669D01*
X004612Y018674D01*
X004612Y017830D01*
X004852Y017830D01*
X004852Y018674D01*
X004895Y018669D01*
X005002Y018645D01*
X005105Y018609D01*
X005203Y018562D01*
X005295Y018504D01*
X005380Y018436D01*
X005458Y018358D01*
X005526Y018273D01*
X005584Y018181D01*
X005631Y018082D01*
X005667Y017980D01*
X005691Y017873D01*
X005696Y017830D01*
X004852Y017830D01*
X004852Y017590D01*
X004852Y017749D02*
X008491Y017749D01*
X008491Y017922D02*
X008491Y017570D01*
X008975Y017570D01*
X008975Y018113D01*
X008682Y018113D01*
X008626Y018098D01*
X008576Y018069D01*
X008535Y018028D01*
X008506Y017978D01*
X008491Y017922D01*
X008511Y017988D02*
X005664Y017988D01*
X005555Y018226D02*
X011365Y018226D01*
X011445Y018146D02*
X011445Y018146D01*
X011546Y018045D02*
X011546Y018045D01*
X011603Y017988D02*
X009489Y017988D01*
X009494Y017978D02*
X009465Y018028D01*
X009424Y018069D01*
X009374Y018098D01*
X009318Y018113D01*
X009025Y018113D01*
X009025Y017570D01*
X008975Y017570D01*
X008975Y017520D01*
X008491Y017520D01*
X008491Y017167D01*
X008506Y017112D01*
X008535Y017061D01*
X008576Y017020D01*
X008626Y016991D01*
X008682Y016976D01*
X008975Y016976D01*
X008975Y017520D01*
X009025Y017520D01*
X009025Y017570D01*
X009509Y017570D01*
X009509Y017922D01*
X009494Y017978D01*
X009509Y017749D02*
X009798Y017749D01*
X009803Y017768D02*
X009788Y017712D01*
X009788Y017395D01*
X010453Y017395D01*
X010453Y017301D01*
X010547Y017301D01*
X010547Y016793D01*
X011021Y016793D01*
X011077Y016808D01*
X011127Y016837D01*
X011168Y016878D01*
X011197Y016928D01*
X011212Y016984D01*
X011212Y017301D01*
X010547Y017301D01*
X010547Y017395D01*
X010453Y017395D01*
X010453Y017903D01*
X009979Y017903D01*
X009923Y017888D01*
X009873Y017859D01*
X009832Y017818D01*
X009803Y017768D01*
X009788Y017511D02*
X009509Y017511D01*
X009509Y017520D02*
X009025Y017520D01*
X009025Y016976D01*
X009318Y016976D01*
X009374Y016991D01*
X009424Y017020D01*
X009465Y017061D01*
X009494Y017112D01*
X009509Y017167D01*
X009509Y017520D01*
X009509Y017272D02*
X009788Y017272D01*
X009788Y017034D02*
X009438Y017034D01*
X009025Y017034D02*
X008975Y017034D01*
X008975Y017272D02*
X009025Y017272D01*
X009025Y017511D02*
X008975Y017511D01*
X009000Y017545D02*
X010303Y017545D01*
X010500Y017348D01*
X010547Y017395D02*
X010547Y017903D01*
X011021Y017903D01*
X011077Y017888D01*
X011127Y017859D01*
X011168Y017818D01*
X011197Y017768D01*
X011212Y017712D01*
X011212Y017395D01*
X010547Y017395D01*
X010547Y017511D02*
X010453Y017511D01*
X010453Y017749D02*
X010547Y017749D01*
X011202Y017749D02*
X011842Y017749D01*
X012080Y017511D02*
X011212Y017511D01*
X011212Y017272D02*
X012319Y017272D01*
X012557Y017034D02*
X011212Y017034D01*
X011027Y016795D02*
X012796Y016795D01*
X013034Y016557D02*
X010305Y016557D01*
X010453Y016795D02*
X010547Y016795D01*
X010547Y017034D02*
X010453Y017034D01*
X010453Y017272D02*
X010547Y017272D01*
X009752Y016600D02*
X010500Y015852D01*
X010500Y016100D02*
X011750Y014850D01*
X012500Y015600D01*
X013000Y015600D01*
X012215Y015841D02*
X011268Y015841D01*
X011507Y015603D02*
X011993Y015603D01*
X011755Y015364D02*
X011745Y015364D01*
X011750Y014850D02*
X011750Y012027D01*
X012240Y012025D02*
X012416Y012025D01*
X012351Y011960D02*
X012240Y011960D01*
X012240Y012200D01*
X012203Y012288D01*
X012136Y012356D01*
X012110Y012366D01*
X012110Y014701D01*
X012228Y014819D01*
X012218Y014800D01*
X012193Y014722D01*
X012180Y014641D01*
X012180Y014600D01*
X013000Y014600D01*
X013000Y014600D01*
X012180Y014600D01*
X012180Y014559D01*
X012193Y014478D01*
X012218Y014400D01*
X012255Y014327D01*
X012303Y014261D01*
X012361Y014203D01*
X012427Y014155D01*
X012500Y014118D01*
X012522Y014111D01*
X012394Y014058D01*
X012242Y013906D01*
X012160Y013707D01*
X012160Y013493D01*
X012242Y013294D01*
X012394Y013142D01*
X012593Y013060D01*
X012640Y013060D01*
X012640Y012249D01*
X012351Y011960D01*
X012500Y011600D02*
X013000Y012100D01*
X013000Y013600D01*
X013500Y013600D01*
X014000Y014100D01*
X014000Y016100D01*
X011750Y018350D01*
X012500Y019100D01*
X013126Y019100D01*
X013126Y018100D01*
X013044Y017565D02*
X013430Y017565D01*
X013500Y017594D01*
X013570Y017565D01*
X014178Y017565D01*
X014266Y017601D01*
X014333Y017669D01*
X014370Y017757D01*
X014370Y017820D01*
X018056Y017820D01*
X018159Y017863D01*
X018237Y017941D01*
X018237Y017941D01*
X018366Y018070D01*
X021189Y018070D01*
X021327Y017932D01*
X021673Y017932D01*
X021918Y018177D01*
X021918Y018523D01*
X021673Y018768D01*
X021327Y018768D01*
X021189Y018630D01*
X018194Y018630D01*
X018091Y018587D01*
X018013Y018509D01*
X018013Y018509D01*
X017884Y018380D01*
X015280Y018380D01*
X015280Y018729D01*
X015327Y018682D01*
X015673Y018682D01*
X015811Y018820D01*
X022189Y018820D01*
X022327Y018682D01*
X022673Y018682D01*
X022918Y018927D01*
X022918Y019273D01*
X022673Y019518D01*
X022327Y019518D01*
X022189Y019380D01*
X015811Y019380D01*
X015673Y019518D01*
X015327Y019518D01*
X015280Y019471D01*
X015280Y020117D01*
X015400Y020237D01*
X015554Y020083D01*
X015779Y019990D01*
X016021Y019990D01*
X016246Y020083D01*
X016417Y020254D01*
X016419Y020259D01*
X016450Y020216D01*
X016516Y020150D01*
X016591Y020095D01*
X016674Y020053D01*
X016762Y020025D01*
X016854Y020010D01*
X016900Y020010D01*
X016946Y020010D01*
X017038Y020025D01*
X017126Y020053D01*
X017209Y020095D01*
X017284Y020150D01*
X017350Y020216D01*
X017381Y020259D01*
X017383Y020254D01*
X017554Y020083D01*
X017779Y019990D01*
X018021Y019990D01*
X018246Y020083D01*
X018400Y020237D01*
X018554Y020083D01*
X018779Y019990D01*
X019021Y019990D01*
X019246Y020083D01*
X019400Y020237D01*
X019554Y020083D01*
X019779Y019990D01*
X020021Y019990D01*
X020246Y020083D01*
X020400Y020237D01*
X020554Y020083D01*
X020779Y019990D01*
X021021Y019990D01*
X021246Y020083D01*
X021400Y020237D01*
X021554Y020083D01*
X021779Y019990D01*
X022021Y019990D01*
X022246Y020083D01*
X022400Y020237D01*
X022554Y020083D01*
X022779Y019990D01*
X023021Y019990D01*
X023246Y020083D01*
X023417Y020254D01*
X023510Y020479D01*
X023510Y020721D01*
X023417Y020946D01*
X023246Y021117D01*
X023021Y021210D01*
X022779Y021210D01*
X022554Y021117D01*
X022400Y020963D01*
X022246Y021117D01*
X022021Y021210D01*
X021779Y021210D01*
X021554Y021117D01*
X021400Y020963D01*
X021246Y021117D01*
X021021Y021210D01*
X020779Y021210D01*
X020554Y021117D01*
X020400Y020963D01*
X020246Y021117D01*
X020021Y021210D01*
X019779Y021210D01*
X019554Y021117D01*
X019400Y020963D01*
X019246Y021117D01*
X019021Y021210D01*
X018779Y021210D01*
X018554Y021117D01*
X018400Y020963D01*
X018246Y021117D01*
X018021Y021210D01*
X017779Y021210D01*
X017554Y021117D01*
X017383Y020946D01*
X017381Y020941D01*
X017350Y020984D01*
X017284Y021050D01*
X017209Y021105D01*
X017126Y021147D01*
X017038Y021175D01*
X016946Y021190D01*
X016900Y021190D01*
X016900Y020600D01*
X016900Y020600D01*
X016900Y021190D01*
X016854Y021190D01*
X016762Y021175D01*
X016674Y021147D01*
X016591Y021105D01*
X016516Y021050D01*
X016450Y020984D01*
X016419Y020941D01*
X016417Y020946D01*
X016246Y021117D01*
X016021Y021210D01*
X015779Y021210D01*
X015554Y021117D01*
X015400Y020963D01*
X015246Y021117D01*
X015021Y021210D01*
X014779Y021210D01*
X014554Y021117D01*
X014400Y020963D01*
X014246Y021117D01*
X014021Y021210D01*
X013779Y021210D01*
X013554Y021117D01*
X013383Y020946D01*
X013304Y021137D01*
X013037Y021404D01*
X012689Y021549D01*
X012311Y021549D01*
X011963Y021404D01*
X011696Y021137D01*
X011551Y020789D01*
X011551Y020411D01*
X011696Y020063D01*
X011963Y019796D01*
X012311Y019651D01*
X012689Y019651D01*
X013037Y019796D01*
X013304Y020063D01*
X013383Y020254D01*
X013554Y020083D01*
X013594Y020066D01*
X013594Y019635D01*
X013570Y019635D01*
X013500Y019606D01*
X013430Y019635D01*
X012822Y019635D01*
X012734Y019599D01*
X012667Y019531D01*
X012637Y019460D01*
X012428Y019460D01*
X012296Y019405D01*
X011750Y018859D01*
X011360Y019249D01*
X011360Y021369D01*
X011418Y021427D01*
X011418Y021773D01*
X011341Y021850D01*
X039500Y021850D01*
X039500Y012859D01*
X039454Y012905D01*
X039322Y012960D01*
X038946Y012960D01*
X038823Y013083D01*
X038782Y013100D01*
X038823Y013117D01*
X038983Y013277D01*
X039070Y013487D01*
X039070Y013713D01*
X038983Y013923D01*
X038823Y014083D01*
X038782Y014100D01*
X038823Y014117D01*
X038983Y014277D01*
X039070Y014487D01*
X039070Y014713D01*
X038983Y014923D01*
X038823Y015083D01*
X038613Y015170D01*
X038387Y015170D01*
X038177Y015083D01*
X038017Y014923D01*
X038000Y014882D01*
X037983Y014923D01*
X037823Y015083D01*
X037613Y015170D01*
X037387Y015170D01*
X037177Y015083D01*
X037017Y014923D01*
X036930Y014713D01*
X036930Y014487D01*
X036974Y014380D01*
X034116Y014380D01*
X033780Y014716D01*
X033780Y019411D01*
X034053Y019684D01*
X034276Y019461D01*
X034364Y019424D01*
X034459Y019424D01*
X034547Y019461D01*
X035389Y020303D01*
X035426Y020391D01*
X035426Y020486D01*
X035389Y020574D01*
X034547Y021416D01*
X034459Y021453D01*
X034364Y021453D01*
X034276Y021416D01*
X033434Y020574D01*
X033397Y020486D01*
X033397Y020391D01*
X033434Y020303D01*
X033657Y020080D01*
X033263Y019686D01*
X033220Y019583D01*
X033220Y016971D01*
X033173Y017018D01*
X032827Y017018D01*
X032689Y016880D01*
X032371Y016880D01*
X032418Y016927D01*
X032418Y017182D01*
X032673Y017182D01*
X032918Y017427D01*
X032918Y017773D01*
X032673Y018018D01*
X032327Y018018D01*
X032189Y017880D01*
X019311Y017880D01*
X019173Y018018D01*
X018827Y018018D01*
X018582Y017773D01*
X018582Y017427D01*
X018629Y017380D01*
X018311Y017380D01*
X018173Y017518D01*
X017827Y017518D01*
X017582Y017273D01*
X017582Y016927D01*
X017827Y016682D01*
X018173Y016682D01*
X018311Y016820D01*
X019629Y016820D01*
X019582Y016773D01*
X019582Y016427D01*
X019827Y016182D01*
X020173Y016182D01*
X020311Y016320D01*
X030810Y016320D01*
X028870Y014380D01*
X015311Y014380D01*
X015173Y014518D01*
X014827Y014518D01*
X014582Y014273D01*
X014582Y013927D01*
X014827Y013682D01*
X015082Y013682D01*
X015082Y013427D01*
X015129Y013380D01*
X014811Y013380D01*
X014673Y013518D01*
X014327Y013518D01*
X014082Y013273D01*
X014082Y012927D01*
X014327Y012682D01*
X014673Y012682D01*
X014811Y012820D01*
X030890Y012820D01*
X030890Y012380D01*
X013811Y012380D01*
X013673Y012518D01*
X013360Y012518D01*
X013360Y013060D01*
X013407Y013060D01*
X013606Y013142D01*
X013758Y013294D01*
X013796Y013387D01*
X014204Y013795D01*
X014305Y013896D01*
X014360Y014028D01*
X014360Y016172D01*
X014305Y016304D01*
X014204Y016405D01*
X014204Y016405D01*
X013044Y017565D01*
X013099Y017511D02*
X017819Y017511D01*
X017582Y017272D02*
X013337Y017272D01*
X013576Y017034D02*
X017582Y017034D01*
X017714Y016795D02*
X013814Y016795D01*
X014053Y016557D02*
X019582Y016557D01*
X019604Y016795D02*
X018286Y016795D01*
X018181Y017511D02*
X018582Y017511D01*
X018582Y017749D02*
X014367Y017749D01*
X014370Y018380D02*
X014720Y018380D01*
X014720Y020014D01*
X014554Y020083D01*
X014400Y020237D01*
X014246Y020083D01*
X014154Y020045D01*
X014154Y019635D01*
X014178Y019635D01*
X014266Y019599D01*
X014333Y019531D01*
X014370Y019443D01*
X014370Y018757D01*
X014333Y018669D01*
X014266Y018601D01*
X014263Y018600D01*
X014266Y018599D01*
X014333Y018531D01*
X014370Y018443D01*
X014370Y018380D01*
X014361Y018465D02*
X014720Y018465D01*
X014720Y018703D02*
X014348Y018703D01*
X014370Y018942D02*
X014720Y018942D01*
X014720Y019180D02*
X014370Y019180D01*
X014370Y019419D02*
X014720Y019419D01*
X014720Y019657D02*
X014154Y019657D01*
X014154Y019896D02*
X014720Y019896D01*
X014503Y020134D02*
X014297Y020134D01*
X013594Y019896D02*
X013137Y019896D01*
X013334Y020134D02*
X013503Y020134D01*
X013594Y019657D02*
X012702Y019657D01*
X012298Y019657D02*
X011360Y019657D01*
X011360Y019419D02*
X012328Y019419D01*
X012071Y019180D02*
X011429Y019180D01*
X011668Y018942D02*
X011832Y018942D01*
X011750Y018350D02*
X011000Y019100D01*
X011000Y021600D01*
X011418Y021565D02*
X039500Y021565D01*
X039500Y021327D02*
X034637Y021327D01*
X034876Y021088D02*
X039500Y021088D01*
X039500Y020850D02*
X036433Y020850D01*
X036385Y020897D02*
X036335Y020926D01*
X036279Y020941D01*
X036221Y020941D01*
X036165Y020926D01*
X036115Y020897D01*
X035119Y019901D01*
X036250Y018770D01*
X036080Y018600D01*
X034949Y019731D01*
X033953Y018735D01*
X033924Y018685D01*
X033909Y018629D01*
X033909Y018571D01*
X033924Y018515D01*
X033953Y018465D01*
X034949Y017469D01*
X036080Y018600D01*
X036250Y018430D01*
X036420Y018600D01*
X037551Y017469D01*
X038547Y018465D01*
X038576Y018515D01*
X038591Y018571D01*
X038591Y018629D01*
X038576Y018685D01*
X038547Y018735D01*
X037551Y019731D01*
X036420Y018600D01*
X036250Y018770D01*
X037381Y019901D01*
X036385Y020897D01*
X036067Y020850D02*
X035114Y020850D01*
X035353Y020611D02*
X035829Y020611D01*
X035590Y020373D02*
X035418Y020373D01*
X035352Y020134D02*
X035221Y020134D01*
X035124Y019896D02*
X034982Y019896D01*
X035023Y019657D02*
X035363Y019657D01*
X035262Y019419D02*
X035601Y019419D01*
X035500Y019180D02*
X035840Y019180D01*
X035739Y018942D02*
X036078Y018942D01*
X035977Y018703D02*
X036183Y018703D01*
X036317Y018703D02*
X036523Y018703D01*
X036555Y018465D02*
X036284Y018465D01*
X036250Y018430D02*
X037381Y017299D01*
X036385Y016303D01*
X036335Y016274D01*
X036279Y016259D01*
X036221Y016259D01*
X036165Y016274D01*
X036115Y016303D01*
X035119Y017299D01*
X036250Y018430D01*
X036216Y018465D02*
X035945Y018465D01*
X036046Y018226D02*
X035706Y018226D01*
X035807Y017988D02*
X035468Y017988D01*
X035569Y017749D02*
X035229Y017749D01*
X035330Y017511D02*
X034991Y017511D01*
X034907Y017511D02*
X033780Y017511D01*
X033780Y017749D02*
X034669Y017749D01*
X034430Y017988D02*
X033780Y017988D01*
X033780Y018226D02*
X034192Y018226D01*
X033953Y018465D02*
X033780Y018465D01*
X033780Y018703D02*
X033934Y018703D01*
X033780Y018942D02*
X034159Y018942D01*
X034398Y019180D02*
X033780Y019180D01*
X033788Y019419D02*
X034636Y019419D01*
X034744Y019657D02*
X034875Y019657D01*
X034079Y019657D02*
X034026Y019657D01*
X033473Y019896D02*
X015280Y019896D01*
X015297Y020134D02*
X015503Y020134D01*
X015280Y019657D02*
X033251Y019657D01*
X033220Y019419D02*
X022773Y019419D01*
X022918Y019180D02*
X033220Y019180D01*
X033220Y018942D02*
X022918Y018942D01*
X022694Y018703D02*
X033220Y018703D01*
X033220Y018465D02*
X021918Y018465D01*
X021918Y018226D02*
X033220Y018226D01*
X033220Y017988D02*
X032704Y017988D01*
X032918Y017749D02*
X033220Y017749D01*
X033220Y017511D02*
X032918Y017511D01*
X032763Y017272D02*
X033220Y017272D01*
X033220Y017034D02*
X032418Y017034D01*
X033780Y017034D02*
X035384Y017034D01*
X035146Y017272D02*
X033780Y017272D01*
X033780Y016795D02*
X035623Y016795D01*
X035861Y016557D02*
X033780Y016557D01*
X033780Y016318D02*
X036100Y016318D01*
X036400Y016318D02*
X037418Y016318D01*
X037180Y016557D02*
X036639Y016557D01*
X036877Y016795D02*
X037074Y016795D01*
X037074Y016809D02*
X037074Y016714D01*
X037111Y016626D01*
X037953Y015784D01*
X038041Y015747D01*
X038136Y015747D01*
X038224Y015784D01*
X039066Y016626D01*
X039103Y016714D01*
X039103Y016809D01*
X039066Y016897D01*
X038224Y017739D01*
X038136Y017776D01*
X038041Y017776D01*
X037953Y017739D01*
X037111Y016897D01*
X037074Y016809D01*
X037116Y017034D02*
X037247Y017034D01*
X037354Y017272D02*
X037485Y017272D01*
X037509Y017511D02*
X037170Y017511D01*
X037271Y017749D02*
X036931Y017749D01*
X037032Y017988D02*
X036693Y017988D01*
X036794Y018226D02*
X036454Y018226D01*
X036422Y018942D02*
X036761Y018942D01*
X036660Y019180D02*
X037000Y019180D01*
X036899Y019419D02*
X037238Y019419D01*
X037137Y019657D02*
X037477Y019657D01*
X037625Y019657D02*
X039500Y019657D01*
X039500Y019419D02*
X037864Y019419D01*
X038102Y019180D02*
X039500Y019180D01*
X039500Y018942D02*
X038341Y018942D01*
X038566Y018703D02*
X039500Y018703D01*
X039500Y018465D02*
X038547Y018465D01*
X038308Y018226D02*
X039500Y018226D01*
X039500Y017988D02*
X038070Y017988D01*
X037976Y017749D02*
X037831Y017749D01*
X037724Y017511D02*
X037593Y017511D01*
X038201Y017749D02*
X039500Y017749D01*
X039500Y017511D02*
X038453Y017511D01*
X038692Y017272D02*
X039500Y017272D01*
X039500Y017034D02*
X038930Y017034D01*
X039103Y016795D02*
X039500Y016795D01*
X039500Y016557D02*
X038997Y016557D01*
X038759Y016318D02*
X039500Y016318D01*
X039500Y016080D02*
X038520Y016080D01*
X038282Y015841D02*
X039500Y015841D01*
X039500Y015603D02*
X033780Y015603D01*
X033780Y015841D02*
X037895Y015841D01*
X037657Y016080D02*
X033780Y016080D01*
X033220Y015820D02*
X033220Y015222D01*
X033037Y015404D01*
X032689Y015549D01*
X032311Y015549D01*
X031963Y015404D01*
X031696Y015137D01*
X031551Y014789D01*
X031551Y014411D01*
X031696Y014063D01*
X031878Y013880D01*
X029190Y013880D01*
X031130Y015820D01*
X033220Y015820D01*
X033220Y015603D02*
X030913Y015603D01*
X030674Y015364D02*
X031922Y015364D01*
X031691Y015126D02*
X030436Y015126D01*
X030197Y014887D02*
X031592Y014887D01*
X031551Y014649D02*
X029959Y014649D01*
X029720Y014410D02*
X031552Y014410D01*
X031651Y014172D02*
X029482Y014172D01*
X029243Y013933D02*
X031825Y013933D01*
X030890Y012741D02*
X014732Y012741D01*
X014268Y012741D02*
X013360Y012741D01*
X013360Y012979D02*
X014082Y012979D01*
X014082Y013218D02*
X013681Y013218D01*
X013865Y013456D02*
X014265Y013456D01*
X014104Y013695D02*
X014814Y013695D01*
X014735Y013456D02*
X015082Y013456D01*
X014582Y013933D02*
X014320Y013933D01*
X014360Y014172D02*
X014582Y014172D01*
X014719Y014410D02*
X014360Y014410D01*
X014360Y014649D02*
X029138Y014649D01*
X029377Y014887D02*
X014360Y014887D01*
X014360Y015126D02*
X029615Y015126D01*
X029854Y015364D02*
X014360Y015364D01*
X014360Y015603D02*
X030092Y015603D01*
X030331Y015841D02*
X014360Y015841D01*
X014360Y016080D02*
X030569Y016080D01*
X030808Y016318D02*
X020309Y016318D01*
X019691Y016318D02*
X014291Y016318D01*
X013273Y016318D02*
X011197Y016318D01*
X011232Y016080D02*
X012447Y016080D01*
X011390Y014701D02*
X010814Y015277D01*
X009960Y015277D01*
X009872Y015314D01*
X009804Y015381D01*
X009768Y015470D01*
X009768Y016075D01*
X009603Y016240D01*
X009346Y016240D01*
X009425Y016207D01*
X009493Y016139D01*
X009529Y016051D01*
X009529Y015259D01*
X009493Y015171D01*
X009425Y015103D01*
X009360Y015076D01*
X009360Y014096D01*
X009598Y014096D01*
X009686Y014059D01*
X009753Y013991D01*
X009790Y013903D01*
X009790Y013720D01*
X009803Y013768D01*
X009832Y013818D01*
X009873Y013859D01*
X009923Y013888D01*
X009979Y013903D01*
X010453Y013903D01*
X010453Y013395D01*
X010547Y013395D01*
X010547Y013903D01*
X011021Y013903D01*
X011077Y013888D01*
X011127Y013859D01*
X011168Y013818D01*
X011197Y013768D01*
X011212Y013712D01*
X011212Y013395D01*
X010547Y013395D01*
X010547Y013301D01*
X010547Y012793D01*
X011021Y012793D01*
X011077Y012808D01*
X011127Y012837D01*
X011168Y012878D01*
X011197Y012928D01*
X011212Y012984D01*
X011212Y013301D01*
X010547Y013301D01*
X010453Y013301D01*
X010453Y012793D01*
X009979Y012793D01*
X009923Y012808D01*
X009873Y012837D01*
X009832Y012878D01*
X009803Y012928D01*
X009790Y012976D01*
X009790Y012908D01*
X009753Y012820D01*
X009686Y012752D01*
X009598Y012716D01*
X008402Y012716D01*
X008343Y012740D01*
X008149Y012740D01*
X008110Y012701D01*
X008110Y012366D01*
X008136Y012356D01*
X008203Y012288D01*
X008210Y012272D01*
X008210Y012292D01*
X008247Y012380D01*
X008314Y012448D01*
X008402Y012484D01*
X009598Y012484D01*
X009686Y012448D01*
X009753Y012380D01*
X009790Y012292D01*
X009790Y012288D01*
X009804Y012323D01*
X009872Y012390D01*
X009960Y012427D01*
X011040Y012427D01*
X011128Y012390D01*
X011196Y012323D01*
X011232Y012234D01*
X011232Y012033D01*
X011260Y012033D01*
X011260Y012200D01*
X011297Y012288D01*
X011364Y012356D01*
X011390Y012366D01*
X011390Y014701D01*
X011390Y014649D02*
X009360Y014649D01*
X009360Y014887D02*
X011204Y014887D01*
X010965Y015126D02*
X009448Y015126D01*
X009529Y015364D02*
X009822Y015364D01*
X009768Y015603D02*
X009529Y015603D01*
X009529Y015841D02*
X009768Y015841D01*
X009763Y016080D02*
X009518Y016080D01*
X009752Y016600D02*
X008000Y016600D01*
X007500Y016100D01*
X007500Y013600D01*
X007082Y013695D02*
X006360Y013695D01*
X006360Y013933D02*
X007140Y013933D01*
X007082Y013456D02*
X006360Y013456D01*
X006360Y013218D02*
X007291Y013218D01*
X007414Y012979D02*
X006712Y012979D01*
X006918Y012741D02*
X007390Y012741D01*
X007390Y012502D02*
X007107Y012502D01*
X007073Y012027D02*
X006500Y012600D01*
X007073Y012027D02*
X007750Y012027D01*
X007750Y012850D01*
X008000Y013100D01*
X008694Y013100D01*
X009000Y013406D01*
X009000Y015655D01*
X007209Y016318D02*
X000750Y016318D01*
X000750Y016080D02*
X002555Y016080D01*
X002363Y015841D02*
X000750Y015841D01*
X000750Y015603D02*
X002305Y015603D01*
X002347Y015364D02*
X000750Y015364D01*
X000750Y015126D02*
X002518Y015126D01*
X003250Y014172D02*
X003250Y014172D01*
X003250Y013933D02*
X003250Y013933D01*
X003250Y013695D02*
X003250Y013695D01*
X003250Y013456D02*
X003250Y013456D01*
X005640Y012979D02*
X000750Y012979D01*
X000750Y012741D02*
X005640Y012741D01*
X005640Y012502D02*
X000750Y012502D01*
X000750Y012264D02*
X005640Y012264D01*
X005641Y012025D02*
X000750Y012025D01*
X000750Y011787D02*
X005804Y011787D01*
X007750Y011673D02*
X008878Y011673D01*
X009000Y011794D01*
X009790Y011416D02*
X009804Y011381D01*
X009872Y011314D01*
X009960Y011277D01*
X010590Y011277D01*
X010680Y011240D01*
X012572Y011240D01*
X012704Y011295D01*
X013204Y011795D01*
X013209Y011800D01*
X013327Y011682D01*
X013673Y011682D01*
X013811Y011820D01*
X030890Y011820D01*
X030890Y011380D01*
X012944Y011380D01*
X012841Y011337D01*
X012687Y011183D01*
X012621Y011210D01*
X012379Y011210D01*
X012154Y011117D01*
X012000Y010963D01*
X011846Y011117D01*
X011621Y011210D01*
X011379Y011210D01*
X011154Y011117D01*
X011000Y010963D01*
X010846Y011117D01*
X010621Y011210D01*
X010379Y011210D01*
X010154Y011117D01*
X010000Y010963D01*
X009846Y011117D01*
X009716Y011171D01*
X009753Y011209D01*
X009790Y011297D01*
X009790Y011416D01*
X009790Y011310D02*
X009882Y011310D01*
X009892Y011071D02*
X010108Y011071D01*
X010892Y011071D02*
X011108Y011071D01*
X011892Y011071D02*
X012108Y011071D01*
X012719Y011310D02*
X012814Y011310D01*
X012957Y011548D02*
X030890Y011548D01*
X030890Y011787D02*
X013778Y011787D01*
X013222Y011787D02*
X013196Y011787D01*
X012500Y011600D02*
X010752Y011600D01*
X010500Y011852D01*
X010679Y011673D01*
X011750Y011673D01*
X011286Y012264D02*
X011220Y012264D01*
X011390Y012502D02*
X008110Y012502D01*
X009658Y012741D02*
X011390Y012741D01*
X011390Y012979D02*
X011211Y012979D01*
X011212Y013218D02*
X011390Y013218D01*
X011390Y013456D02*
X011212Y013456D01*
X011212Y013695D02*
X011390Y013695D01*
X011390Y013933D02*
X009778Y013933D01*
X009360Y014172D02*
X011390Y014172D01*
X011390Y014410D02*
X009360Y014410D01*
X010453Y013695D02*
X010547Y013695D01*
X010547Y013456D02*
X010453Y013456D01*
X010453Y013218D02*
X010547Y013218D01*
X010547Y012979D02*
X010453Y012979D01*
X012110Y012979D02*
X012640Y012979D01*
X012640Y012741D02*
X012110Y012741D01*
X012110Y012502D02*
X012640Y012502D01*
X012640Y012264D02*
X012214Y012264D01*
X013689Y012502D02*
X030890Y012502D01*
X033110Y012502D02*
X036202Y012502D01*
X036263Y012441D02*
X036263Y012441D01*
X036341Y012363D01*
X036444Y012320D01*
X036999Y012320D01*
X037017Y012277D01*
X037177Y012117D01*
X037218Y012100D01*
X037177Y012083D01*
X037017Y011923D01*
X036999Y011880D01*
X036616Y011880D01*
X036237Y012259D01*
X036159Y012337D01*
X036056Y012380D01*
X033110Y012380D01*
X033110Y012820D01*
X035884Y012820D01*
X036263Y012441D01*
X036232Y012264D02*
X037030Y012264D01*
X037119Y012025D02*
X036471Y012025D01*
X035918Y011787D02*
X033110Y011787D01*
X033110Y011820D02*
X035884Y011820D01*
X036263Y011441D01*
X036341Y011363D01*
X036444Y011320D01*
X036999Y011320D01*
X037017Y011277D01*
X037177Y011117D01*
X037218Y011100D01*
X037177Y011083D01*
X037017Y010923D01*
X036999Y010880D01*
X036616Y010880D01*
X036409Y011087D01*
X036237Y011259D01*
X036159Y011337D01*
X036056Y011380D01*
X033110Y011380D01*
X033110Y011820D01*
X033110Y011548D02*
X036156Y011548D01*
X036263Y011441D02*
X036263Y011441D01*
X036186Y011310D02*
X037003Y011310D01*
X037165Y011071D02*
X036425Y011071D01*
X036409Y011087D02*
X036409Y011087D01*
X036013Y010691D02*
X036013Y010691D01*
X036341Y010363D01*
X036444Y010320D01*
X036999Y010320D01*
X037017Y010277D01*
X037177Y010117D01*
X036379Y010117D01*
X036237Y010259D02*
X036616Y009880D01*
X036999Y009880D01*
X037017Y009923D01*
X037177Y010083D01*
X037218Y010100D01*
X037177Y010117D01*
X036359Y010356D02*
X036115Y010356D01*
X036159Y010337D02*
X036056Y010380D01*
X033090Y010380D01*
X033090Y010600D01*
X033090Y010820D01*
X035884Y010820D01*
X036013Y010691D01*
X036110Y010594D02*
X033090Y010594D01*
X033090Y010600D02*
X032500Y010600D01*
X033090Y010600D01*
X032500Y010600D02*
X032500Y010600D01*
X030890Y010594D02*
X030090Y010594D01*
X030090Y010600D02*
X029500Y010600D01*
X030090Y010600D01*
X030090Y010646D01*
X030075Y010738D01*
X030049Y010820D01*
X030890Y010820D01*
X030890Y010380D01*
X030049Y010380D01*
X030075Y010462D01*
X030090Y010554D01*
X030090Y010600D01*
X029500Y010600D02*
X029500Y010600D01*
X033110Y012741D02*
X035964Y012741D01*
X036237Y013259D02*
X036616Y012880D01*
X036999Y012880D01*
X037017Y012923D01*
X037177Y013083D01*
X037218Y013100D01*
X037177Y013117D01*
X037017Y013277D01*
X036999Y013320D01*
X036176Y013320D01*
X036237Y013259D01*
X036278Y013218D02*
X037076Y013218D01*
X037073Y012979D02*
X036517Y012979D01*
X036962Y014410D02*
X034086Y014410D01*
X033847Y014649D02*
X036930Y014649D01*
X037002Y014887D02*
X033780Y014887D01*
X033780Y015126D02*
X037279Y015126D01*
X037721Y015126D02*
X038279Y015126D01*
X038002Y014887D02*
X037998Y014887D01*
X038721Y015126D02*
X039500Y015126D01*
X039500Y015364D02*
X033780Y015364D01*
X033220Y015364D02*
X033078Y015364D01*
X028900Y014410D02*
X015281Y014410D01*
X012405Y014172D02*
X012110Y014172D01*
X012110Y014410D02*
X012215Y014410D01*
X012181Y014649D02*
X012110Y014649D01*
X012110Y013933D02*
X012269Y013933D01*
X012160Y013695D02*
X012110Y013695D01*
X012110Y013456D02*
X012175Y013456D01*
X012110Y013218D02*
X012319Y013218D01*
X009154Y010083D02*
X009000Y010237D01*
X008846Y010083D01*
X008780Y010056D01*
X008780Y008216D01*
X009116Y007880D01*
X009129Y007880D01*
X009082Y007927D01*
X009082Y008273D01*
X009327Y008518D01*
X009673Y008518D01*
X009811Y008380D01*
X010129Y008380D01*
X010082Y008427D01*
X010082Y008773D01*
X010129Y008820D01*
X009944Y008820D01*
X009841Y008863D01*
X009341Y009363D01*
X009263Y009441D01*
X009220Y009544D01*
X009220Y010056D01*
X009154Y010083D01*
X009120Y010117D02*
X008880Y010117D01*
X008780Y009879D02*
X009220Y009879D01*
X009220Y009640D02*
X008780Y009640D01*
X008780Y009402D02*
X009303Y009402D01*
X009541Y009163D02*
X008780Y009163D01*
X008780Y008925D02*
X009780Y008925D01*
X010082Y008686D02*
X008780Y008686D01*
X008780Y008448D02*
X009256Y008448D01*
X009082Y008209D02*
X008787Y008209D01*
X009025Y007971D02*
X009082Y007971D01*
X008472Y007732D02*
X007780Y007732D01*
X007780Y007716D02*
X007780Y010056D01*
X007846Y010083D01*
X008000Y010237D01*
X008154Y010083D01*
X008220Y010056D01*
X008220Y008044D01*
X008263Y007941D01*
X008341Y007863D01*
X008824Y007380D01*
X008116Y007380D01*
X007780Y007716D01*
X007780Y007971D02*
X008251Y007971D01*
X008220Y008209D02*
X007780Y008209D01*
X007780Y008448D02*
X008220Y008448D01*
X008220Y008686D02*
X007780Y008686D01*
X007780Y008925D02*
X008220Y008925D01*
X008220Y009163D02*
X007780Y009163D01*
X007780Y009402D02*
X008220Y009402D01*
X008220Y009640D02*
X007780Y009640D01*
X007780Y009879D02*
X008220Y009879D01*
X008120Y010117D02*
X007880Y010117D01*
X007220Y010056D02*
X007220Y007544D01*
X007263Y007441D01*
X007341Y007363D01*
X007341Y007363D01*
X007824Y006880D01*
X007116Y006880D01*
X006780Y007216D01*
X006780Y010056D01*
X006846Y010083D01*
X007000Y010237D01*
X007154Y010083D01*
X007220Y010056D01*
X007120Y010117D02*
X006880Y010117D01*
X006780Y009879D02*
X007220Y009879D01*
X007220Y009640D02*
X006780Y009640D01*
X006780Y009402D02*
X007220Y009402D01*
X007220Y009163D02*
X006780Y009163D01*
X006780Y008925D02*
X007220Y008925D01*
X007220Y008686D02*
X006780Y008686D01*
X006780Y008448D02*
X007220Y008448D01*
X007220Y008209D02*
X006780Y008209D01*
X006780Y007971D02*
X007220Y007971D01*
X007220Y007732D02*
X006780Y007732D01*
X006780Y007494D02*
X007241Y007494D01*
X007449Y007255D02*
X006780Y007255D01*
X006979Y007017D02*
X007688Y007017D01*
X008002Y007494D02*
X008711Y007494D01*
X009744Y008448D02*
X010082Y008448D01*
X008110Y006301D02*
X004360Y006301D01*
X004360Y006063D02*
X008082Y006063D01*
X006146Y005109D02*
X004360Y005109D01*
X004360Y004870D02*
X004679Y004870D01*
X004582Y004632D02*
X004360Y004632D01*
X004360Y004393D02*
X004616Y004393D01*
X004640Y004155D02*
X004360Y004155D01*
X004360Y003916D02*
X004687Y003916D01*
X004913Y003678D02*
X004360Y003678D01*
X004360Y003439D02*
X005152Y003439D01*
X005500Y003600D02*
X013500Y003600D01*
X012083Y004155D02*
X011917Y004155D01*
X011083Y004155D02*
X010917Y004155D01*
X010083Y004155D02*
X009917Y004155D01*
X009083Y004155D02*
X008917Y004155D01*
X008083Y004155D02*
X007917Y004155D01*
X007083Y004155D02*
X006917Y004155D01*
X006083Y004155D02*
X005455Y004155D01*
X005384Y004393D02*
X005925Y004393D01*
X005890Y004632D02*
X005418Y004632D01*
X005321Y004870D02*
X005952Y004870D01*
X005000Y004600D02*
X005000Y004100D01*
X005500Y003600D01*
X010785Y002485D02*
X011658Y002485D01*
X011305Y002247D02*
X010785Y002247D01*
X024110Y002008D02*
X025635Y002008D01*
X025910Y001770D02*
X024110Y001770D01*
X024110Y001531D02*
X025890Y001531D01*
X026776Y001054D02*
X027224Y001054D01*
X027776Y001054D02*
X028224Y001054D01*
X028776Y001054D02*
X029224Y001054D01*
X029776Y001054D02*
X030224Y001054D01*
X030776Y001054D02*
X031224Y001054D01*
X033122Y002880D02*
X033304Y003063D01*
X033449Y003411D01*
X033449Y003789D01*
X033304Y004137D01*
X033122Y004320D01*
X035884Y004320D01*
X036763Y003441D01*
X036824Y003380D01*
X035944Y003380D01*
X035841Y003337D01*
X035763Y003259D01*
X035384Y002880D01*
X033122Y002880D01*
X033204Y002962D02*
X035466Y002962D01*
X035705Y003201D02*
X033361Y003201D01*
X033449Y003439D02*
X036765Y003439D01*
X036527Y003678D02*
X033449Y003678D01*
X033396Y003916D02*
X036288Y003916D01*
X036050Y004155D02*
X033287Y004155D01*
X031713Y004155D02*
X030950Y004155D01*
X030712Y003916D02*
X031604Y003916D01*
X036237Y010259D02*
X036159Y010337D01*
X038927Y012979D02*
X039500Y012979D01*
X039500Y013218D02*
X038924Y013218D01*
X039057Y013456D02*
X039500Y013456D01*
X039500Y013695D02*
X039070Y013695D01*
X038973Y013933D02*
X039500Y013933D01*
X039500Y014172D02*
X038878Y014172D01*
X039038Y014410D02*
X039500Y014410D01*
X039500Y014649D02*
X039070Y014649D01*
X038998Y014887D02*
X039500Y014887D01*
X032296Y017988D02*
X021729Y017988D01*
X021271Y017988D02*
X019204Y017988D01*
X018796Y017988D02*
X018283Y017988D01*
X017969Y018465D02*
X015280Y018465D01*
X015280Y018703D02*
X015306Y018703D01*
X015694Y018703D02*
X021262Y018703D01*
X021738Y018703D02*
X022306Y018703D01*
X022227Y019419D02*
X015773Y019419D01*
X016297Y020134D02*
X016538Y020134D01*
X016900Y020134D02*
X016900Y020134D01*
X016900Y020010D02*
X016900Y020600D01*
X016900Y020600D01*
X016900Y020010D01*
X016900Y020373D02*
X016900Y020373D01*
X017262Y020134D02*
X017503Y020134D01*
X018297Y020134D02*
X018503Y020134D01*
X019297Y020134D02*
X019503Y020134D01*
X020297Y020134D02*
X020503Y020134D01*
X021297Y020134D02*
X021503Y020134D01*
X022297Y020134D02*
X022503Y020134D01*
X023297Y020134D02*
X024103Y020134D01*
X024154Y020083D02*
X024379Y019990D01*
X024621Y019990D01*
X024846Y020083D01*
X025000Y020237D01*
X025154Y020083D01*
X025379Y019990D01*
X025621Y019990D01*
X025846Y020083D01*
X026000Y020237D01*
X026154Y020083D01*
X026379Y019990D01*
X026621Y019990D01*
X026846Y020083D01*
X027000Y020237D01*
X027154Y020083D01*
X027379Y019990D01*
X027621Y019990D01*
X027846Y020083D01*
X028000Y020237D01*
X028154Y020083D01*
X028379Y019990D01*
X028621Y019990D01*
X028846Y020083D01*
X029000Y020237D01*
X029154Y020083D01*
X029379Y019990D01*
X029621Y019990D01*
X029846Y020083D01*
X030000Y020237D01*
X030154Y020083D01*
X030379Y019990D01*
X030621Y019990D01*
X030846Y020083D01*
X030906Y020143D01*
X030927Y020094D01*
X030994Y020027D01*
X031082Y019990D01*
X031918Y019990D01*
X032006Y020027D01*
X032073Y020094D01*
X032110Y020182D01*
X032110Y021018D01*
X032073Y021106D01*
X032006Y021173D01*
X031918Y021210D01*
X031082Y021210D01*
X030994Y021173D01*
X030927Y021106D01*
X030906Y021057D01*
X030846Y021117D01*
X030621Y021210D01*
X030379Y021210D01*
X030154Y021117D01*
X030000Y020963D01*
X029846Y021117D01*
X029621Y021210D01*
X029379Y021210D01*
X029154Y021117D01*
X029000Y020963D01*
X028846Y021117D01*
X028621Y021210D01*
X028379Y021210D01*
X028154Y021117D01*
X028000Y020963D01*
X027846Y021117D01*
X027621Y021210D01*
X027379Y021210D01*
X027154Y021117D01*
X027000Y020963D01*
X026846Y021117D01*
X026621Y021210D01*
X026379Y021210D01*
X026154Y021117D01*
X026000Y020963D01*
X025846Y021117D01*
X025621Y021210D01*
X025379Y021210D01*
X025154Y021117D01*
X025000Y020963D01*
X024846Y021117D01*
X024621Y021210D01*
X024379Y021210D01*
X024154Y021117D01*
X023983Y020946D01*
X023890Y020721D01*
X023890Y020479D01*
X023983Y020254D01*
X024154Y020083D01*
X023934Y020373D02*
X023466Y020373D01*
X023510Y020611D02*
X023890Y020611D01*
X023943Y020850D02*
X023457Y020850D01*
X023275Y021088D02*
X024125Y021088D01*
X024875Y021088D02*
X025125Y021088D01*
X025875Y021088D02*
X026125Y021088D01*
X026875Y021088D02*
X027125Y021088D01*
X027875Y021088D02*
X028125Y021088D01*
X028875Y021088D02*
X029125Y021088D01*
X029875Y021088D02*
X030125Y021088D01*
X030875Y021088D02*
X030919Y021088D01*
X032081Y021088D02*
X033947Y021088D01*
X033709Y020850D02*
X032110Y020850D01*
X032110Y020611D02*
X033470Y020611D01*
X033405Y020373D02*
X032110Y020373D01*
X032090Y020134D02*
X033602Y020134D01*
X034186Y021327D02*
X013115Y021327D01*
X013325Y021088D02*
X013525Y021088D01*
X014275Y021088D02*
X014525Y021088D01*
X015275Y021088D02*
X015525Y021088D01*
X016275Y021088D02*
X016568Y021088D01*
X016900Y021088D02*
X016900Y021088D01*
X016900Y020850D02*
X016900Y020850D01*
X016900Y020611D02*
X016900Y020611D01*
X017232Y021088D02*
X017525Y021088D01*
X018275Y021088D02*
X018525Y021088D01*
X019275Y021088D02*
X019525Y021088D01*
X020275Y021088D02*
X020525Y021088D01*
X021275Y021088D02*
X021525Y021088D01*
X022275Y021088D02*
X022525Y021088D01*
X024897Y020134D02*
X025103Y020134D01*
X025897Y020134D02*
X026103Y020134D01*
X026897Y020134D02*
X027103Y020134D01*
X027897Y020134D02*
X028103Y020134D01*
X028897Y020134D02*
X029103Y020134D01*
X029897Y020134D02*
X030103Y020134D01*
X030897Y020134D02*
X030910Y020134D01*
X036671Y020611D02*
X039500Y020611D01*
X039500Y020373D02*
X036910Y020373D01*
X037148Y020134D02*
X039500Y020134D01*
X039500Y019896D02*
X037376Y019896D01*
X039500Y021804D02*
X011388Y021804D01*
X011360Y021327D02*
X011885Y021327D01*
X011675Y021088D02*
X011360Y021088D01*
X011360Y020850D02*
X011577Y020850D01*
X011551Y020611D02*
X011360Y020611D01*
X011360Y020373D02*
X011567Y020373D01*
X011666Y020134D02*
X011360Y020134D01*
X011360Y019896D02*
X011863Y019896D01*
X010640Y019896D02*
X006883Y019896D01*
X006851Y020013D02*
X006924Y019741D01*
X006924Y019459D01*
X006851Y019187D01*
X006710Y018943D01*
X006511Y018744D01*
X006267Y018603D01*
X005995Y018530D01*
X005713Y018530D01*
X005441Y018603D01*
X005197Y018744D01*
X004998Y018943D01*
X004857Y019187D01*
X004784Y019459D01*
X004784Y019741D01*
X004857Y020013D01*
X004998Y020257D01*
X005197Y020456D01*
X005441Y020597D01*
X005713Y020670D01*
X005995Y020670D01*
X006267Y020597D01*
X006511Y020456D01*
X006710Y020257D01*
X006851Y020013D01*
X006781Y020134D02*
X010640Y020134D01*
X010640Y020373D02*
X006595Y020373D01*
X006215Y020611D02*
X010640Y020611D01*
X010640Y020850D02*
X000750Y020850D01*
X000750Y021088D02*
X010640Y021088D01*
X010640Y021327D02*
X000750Y021327D01*
X000750Y021565D02*
X010582Y021565D01*
X010612Y021804D02*
X000750Y021804D01*
X000750Y020611D02*
X005494Y020611D01*
X005114Y020373D02*
X003983Y020373D01*
X003957Y020393D02*
X003864Y020451D01*
X003766Y020499D01*
X003663Y020535D01*
X003557Y020559D01*
X003514Y020564D01*
X003514Y019720D01*
X004358Y019720D01*
X004353Y019763D01*
X004328Y019869D01*
X004292Y019972D01*
X004245Y020071D01*
X004187Y020163D01*
X004119Y020248D01*
X004042Y020325D01*
X003957Y020393D01*
X003514Y020373D02*
X003274Y020373D01*
X003231Y020559D02*
X003274Y020564D01*
X003274Y019720D01*
X003514Y019720D01*
X003514Y019480D01*
X004358Y019480D01*
X004353Y019437D01*
X004328Y019331D01*
X004292Y019228D01*
X004245Y019129D01*
X004187Y019037D01*
X004119Y018952D01*
X004042Y018875D01*
X003957Y018807D01*
X003864Y018749D01*
X003766Y018701D01*
X003663Y018665D01*
X003557Y018641D01*
X003514Y018636D01*
X003514Y019480D01*
X003274Y019480D01*
X003274Y018636D01*
X003231Y018641D01*
X003124Y018665D01*
X003021Y018701D01*
X002923Y018749D01*
X002831Y018807D01*
X002746Y018875D01*
X002668Y018952D01*
X002600Y019037D01*
X002542Y019129D01*
X002495Y019228D01*
X002459Y019331D01*
X002435Y019437D01*
X002430Y019480D01*
X003274Y019480D01*
X003274Y019720D01*
X002430Y019720D01*
X002435Y019763D01*
X002459Y019869D01*
X002495Y019972D01*
X002542Y020071D01*
X002600Y020163D01*
X002668Y020248D01*
X002746Y020325D01*
X002831Y020393D01*
X002923Y020451D01*
X003021Y020499D01*
X003124Y020535D01*
X003231Y020559D01*
X003274Y020134D02*
X003514Y020134D01*
X003514Y019896D02*
X003274Y019896D01*
X003274Y019657D02*
X000750Y019657D01*
X000750Y019419D02*
X002439Y019419D01*
X002518Y019180D02*
X000750Y019180D01*
X000750Y018942D02*
X002679Y018942D01*
X003018Y018703D02*
X000750Y018703D01*
X000750Y018465D02*
X004120Y018465D01*
X003909Y018226D02*
X000750Y018226D01*
X000750Y017988D02*
X003800Y017988D01*
X003782Y017511D02*
X000750Y017511D01*
X000750Y017749D02*
X004612Y017749D01*
X004612Y017988D02*
X004852Y017988D01*
X004852Y018226D02*
X004612Y018226D01*
X004612Y018465D02*
X004852Y018465D01*
X005268Y018703D02*
X003769Y018703D01*
X003514Y018703D02*
X003274Y018703D01*
X003274Y018942D02*
X003514Y018942D01*
X003514Y019180D02*
X003274Y019180D01*
X003274Y019419D02*
X003514Y019419D01*
X003514Y019657D02*
X004784Y019657D01*
X004795Y019419D02*
X004348Y019419D01*
X004269Y019180D02*
X004861Y019180D01*
X005000Y018942D02*
X004109Y018942D01*
X005344Y018465D02*
X011126Y018465D01*
X010888Y018703D02*
X010232Y018703D01*
X010188Y018659D02*
X010335Y018805D01*
X010414Y018997D01*
X010414Y019203D01*
X010335Y019395D01*
X010188Y019541D01*
X009997Y019620D01*
X009790Y019620D01*
X009599Y019541D01*
X009486Y019428D01*
X009432Y019481D01*
X009368Y019528D01*
X009298Y019563D01*
X009223Y019588D01*
X009146Y019600D01*
X009106Y019600D01*
X009067Y019600D01*
X008989Y019588D01*
X008914Y019563D01*
X008844Y019528D01*
X008781Y019481D01*
X008725Y019426D01*
X008679Y019362D01*
X008643Y019292D01*
X008619Y019217D01*
X008606Y019139D01*
X008606Y019100D01*
X008606Y019061D01*
X008619Y018983D01*
X008643Y018908D01*
X008679Y018838D01*
X008725Y018774D01*
X008781Y018719D01*
X008844Y018672D01*
X008914Y018637D01*
X008989Y018612D01*
X009067Y018600D01*
X009106Y018600D01*
X009106Y019100D01*
X008606Y019100D01*
X009106Y019100D01*
X009106Y019100D01*
X009106Y019100D01*
X009106Y019600D01*
X009106Y019100D01*
X009106Y019100D01*
X009106Y017651D01*
X009000Y017545D01*
X008975Y017749D02*
X009025Y017749D01*
X009025Y017988D02*
X008975Y017988D01*
X008491Y017511D02*
X005683Y017511D01*
X005599Y017272D02*
X008491Y017272D01*
X008562Y017034D02*
X005429Y017034D01*
X004036Y017034D02*
X000750Y017034D01*
X000750Y017272D02*
X003865Y017272D01*
X006441Y018703D02*
X008802Y018703D01*
X008632Y018942D02*
X006709Y018942D01*
X006847Y019180D02*
X008613Y019180D01*
X008720Y019419D02*
X006913Y019419D01*
X006924Y019657D02*
X010640Y019657D01*
X010640Y019419D02*
X010311Y019419D01*
X010414Y019180D02*
X010640Y019180D01*
X010676Y018942D02*
X010391Y018942D01*
X010188Y018659D02*
X009997Y018580D01*
X009790Y018580D01*
X009599Y018659D01*
X009486Y018772D01*
X009432Y018719D01*
X009368Y018672D01*
X009298Y018637D01*
X009223Y018612D01*
X009146Y018600D01*
X009106Y018600D01*
X009106Y019100D01*
X009106Y019180D02*
X009106Y019180D01*
X009106Y018942D02*
X009106Y018942D01*
X009106Y018703D02*
X009106Y018703D01*
X009411Y018703D02*
X009555Y018703D01*
X009106Y019419D02*
X009106Y019419D01*
X004927Y020134D02*
X004205Y020134D01*
X004319Y019896D02*
X004826Y019896D01*
X002805Y020373D02*
X000750Y020373D01*
X000750Y020134D02*
X002582Y020134D01*
X002468Y019896D02*
X000750Y019896D01*
X000750Y011548D02*
X002085Y011548D01*
X001927Y011310D02*
X000750Y011310D01*
X000750Y011071D02*
X001890Y011071D01*
X001951Y010833D02*
X000750Y010833D01*
D31*
X001500Y008100D03*
X005500Y008600D03*
X007250Y007100D03*
X008250Y007600D03*
X009500Y008100D03*
X010500Y008600D03*
X009000Y008850D03*
X008500Y006100D03*
X007500Y005600D03*
X005000Y004600D03*
X009500Y002100D03*
X009000Y001350D03*
X008000Y000600D03*
X013000Y002100D03*
X014000Y001600D03*
X013500Y001100D03*
X014000Y002850D03*
X013500Y003100D03*
X018000Y004100D03*
X023000Y006100D03*
X023500Y005600D03*
X024000Y005100D03*
X025500Y005600D03*
X026500Y006100D03*
X031250Y004100D03*
X033500Y003100D03*
X035500Y004100D03*
X034500Y005600D03*
X034500Y006100D03*
X034500Y008100D03*
X034500Y008600D03*
X036500Y011100D03*
X036500Y012100D03*
X036500Y013100D03*
X039000Y012100D03*
X039000Y014100D03*
X038500Y015600D03*
X033000Y016600D03*
X032000Y017100D03*
X032500Y017600D03*
X030250Y014100D03*
X029750Y011600D03*
X020000Y016600D03*
X019000Y017600D03*
X018000Y017100D03*
X015000Y016600D03*
X014500Y018600D03*
X015500Y019100D03*
X012000Y019600D03*
X011000Y021600D03*
X007500Y018100D03*
X006000Y014600D03*
X007500Y013600D03*
X006500Y012600D03*
X010500Y014600D03*
X014500Y013100D03*
X015500Y013600D03*
X015000Y014100D03*
X013500Y012100D03*
X021500Y018350D03*
X022500Y019100D03*
X023750Y018850D03*
X035500Y002100D03*
X034500Y000600D03*
X032750Y001350D03*
X025000Y001600D03*
X021000Y001100D03*
D32*
X026000Y001100D01*
X026500Y001600D01*
X027500Y002600D02*
X035500Y002600D01*
X036000Y003100D01*
X038000Y003100D01*
X038500Y003600D01*
X037500Y003600D02*
X037000Y003600D01*
X036000Y004600D01*
X031000Y004600D01*
X030500Y004100D01*
X029000Y004100D01*
X028500Y004600D01*
X027500Y002600D02*
X026000Y004100D01*
X024000Y004100D01*
X023500Y004600D01*
X024000Y005100D02*
X007000Y005100D01*
X006500Y004600D01*
X007500Y005600D02*
X023500Y005600D01*
X023000Y006100D02*
X008500Y006100D01*
X007000Y006600D02*
X006500Y007100D01*
X006500Y010600D01*
X007500Y010600D02*
X007500Y007600D01*
X008000Y007100D01*
X035000Y007100D01*
X036500Y005600D01*
X037500Y005600D01*
X037500Y004600D02*
X037000Y004600D01*
X035000Y006600D01*
X007000Y006600D01*
X008500Y008100D02*
X009000Y007600D01*
X035000Y007600D01*
X036000Y006600D01*
X037500Y006600D01*
X037500Y007600D02*
X036500Y007600D01*
X035000Y009100D01*
X010000Y009100D01*
X009500Y009600D01*
X009500Y010600D01*
X008500Y010600D02*
X008500Y008100D01*
X009500Y008100D02*
X034500Y008100D01*
X034500Y008600D02*
X010500Y008600D01*
X011000Y009600D02*
X010500Y010100D01*
X010500Y010600D01*
X011500Y010600D02*
X012000Y010100D01*
X036000Y010100D01*
X036500Y009600D01*
X037500Y009600D01*
X037500Y010600D02*
X036500Y010600D01*
X036250Y010850D01*
X036000Y011100D01*
X013000Y011100D01*
X012500Y010600D01*
X011000Y009600D02*
X035500Y009600D01*
X036500Y008600D01*
X037500Y008600D01*
X034500Y005600D02*
X025500Y005600D01*
X025000Y005100D02*
X024500Y004600D01*
X025000Y005100D02*
X036000Y005100D01*
X037000Y004100D01*
X038000Y004100D01*
X038500Y004600D01*
X037500Y011600D02*
X036500Y011600D01*
X036000Y012100D01*
X013500Y012100D01*
X014500Y013100D02*
X036000Y013100D01*
X036500Y012600D01*
X037500Y012600D01*
X037500Y013600D02*
X015500Y013600D01*
X015000Y014100D02*
X029000Y014100D01*
X031000Y016100D02*
X033500Y016100D01*
X033500Y019527D01*
X034412Y020438D01*
X032500Y017600D02*
X019000Y017600D01*
X018250Y018350D02*
X018000Y018100D01*
X015000Y018100D01*
X015000Y020500D01*
X014900Y020600D01*
X013874Y020574D02*
X013874Y019100D01*
X015500Y019100D02*
X022500Y019100D01*
X021500Y018350D02*
X018250Y018350D01*
X018000Y017100D02*
X032000Y017100D01*
X033000Y016600D02*
X020000Y016600D01*
X015000Y018100D02*
X013874Y018100D01*
X033500Y016100D02*
X033500Y014600D01*
X034000Y014100D01*
X038000Y014100D01*
X038500Y013600D01*
X013500Y003100D02*
X013500Y001100D01*
X010250Y002724D02*
X009624Y002724D01*
X009500Y002600D01*
X009500Y002100D01*
D33*
X026500Y006100D02*
X034500Y006100D01*
X029000Y014100D02*
X031000Y016100D01*
X013900Y020600D02*
X013874Y020574D01*
M02*
