G75*
G70*
%OFA0B0*%
%FSLAX24Y24*%
%IPPOS*%
%LPD*%
%AMOC8*
5,1,8,0,0,1.08239X$1,22.5*
%
%ADD10C,0.0000*%
%ADD11C,0.1457*%
%ADD12C,0.0780*%
%ADD13R,0.0780X0.0780*%
%ADD14OC8,0.0780*%
%ADD15R,0.0552X0.0631*%
%ADD16C,0.0600*%
%ADD17C,0.1700*%
%ADD18C,0.1542*%
%ADD19C,0.0745*%
%ADD20C,0.0640*%
%ADD21R,0.0512X0.0827*%
%ADD22R,0.1140X0.0940*%
%ADD23R,0.0619X0.0737*%
%ADD24R,0.0290X0.0540*%
%ADD25R,0.0540X0.0290*%
%ADD26R,0.1600X0.1600*%
%ADD27R,0.1290X0.1290*%
%ADD28C,0.0700*%
%ADD29R,0.0631X0.0552*%
%ADD30R,0.0940X0.1140*%
%ADD31R,0.0709X0.1024*%
%ADD32R,0.0670X0.0552*%
%ADD33R,0.0591X0.1221*%
D10*
X001500Y003413D02*
X001500Y025409D01*
X040870Y025409D01*
X040870Y003413D01*
X001500Y003413D01*
X012291Y004913D02*
X012293Y004966D01*
X012299Y005019D01*
X012309Y005071D01*
X012322Y005122D01*
X012340Y005172D01*
X012361Y005221D01*
X012386Y005268D01*
X012414Y005312D01*
X012446Y005355D01*
X012480Y005395D01*
X012518Y005433D01*
X012558Y005467D01*
X012601Y005499D01*
X012646Y005527D01*
X012692Y005552D01*
X012741Y005573D01*
X012791Y005591D01*
X012842Y005604D01*
X012894Y005614D01*
X012947Y005620D01*
X013000Y005622D01*
X013053Y005620D01*
X013106Y005614D01*
X013158Y005604D01*
X013209Y005591D01*
X013259Y005573D01*
X013308Y005552D01*
X013355Y005527D01*
X013399Y005499D01*
X013442Y005467D01*
X013482Y005433D01*
X013520Y005395D01*
X013554Y005355D01*
X013586Y005312D01*
X013614Y005267D01*
X013639Y005221D01*
X013660Y005172D01*
X013678Y005122D01*
X013691Y005071D01*
X013701Y005019D01*
X013707Y004966D01*
X013709Y004913D01*
X013707Y004860D01*
X013701Y004807D01*
X013691Y004755D01*
X013678Y004704D01*
X013660Y004654D01*
X013639Y004605D01*
X013614Y004558D01*
X013586Y004514D01*
X013554Y004471D01*
X013520Y004431D01*
X013482Y004393D01*
X013442Y004359D01*
X013399Y004327D01*
X013354Y004299D01*
X013308Y004274D01*
X013259Y004253D01*
X013209Y004235D01*
X013158Y004222D01*
X013106Y004212D01*
X013053Y004206D01*
X013000Y004204D01*
X012947Y004206D01*
X012894Y004212D01*
X012842Y004222D01*
X012791Y004235D01*
X012741Y004253D01*
X012692Y004274D01*
X012645Y004299D01*
X012601Y004327D01*
X012558Y004359D01*
X012518Y004393D01*
X012480Y004431D01*
X012446Y004471D01*
X012414Y004514D01*
X012386Y004559D01*
X012361Y004605D01*
X012340Y004654D01*
X012322Y004704D01*
X012309Y004755D01*
X012299Y004807D01*
X012293Y004860D01*
X012291Y004913D01*
X032791Y006913D02*
X032793Y006966D01*
X032799Y007019D01*
X032809Y007071D01*
X032822Y007122D01*
X032840Y007172D01*
X032861Y007221D01*
X032886Y007268D01*
X032914Y007312D01*
X032946Y007355D01*
X032980Y007395D01*
X033018Y007433D01*
X033058Y007467D01*
X033101Y007499D01*
X033146Y007527D01*
X033192Y007552D01*
X033241Y007573D01*
X033291Y007591D01*
X033342Y007604D01*
X033394Y007614D01*
X033447Y007620D01*
X033500Y007622D01*
X033553Y007620D01*
X033606Y007614D01*
X033658Y007604D01*
X033709Y007591D01*
X033759Y007573D01*
X033808Y007552D01*
X033855Y007527D01*
X033899Y007499D01*
X033942Y007467D01*
X033982Y007433D01*
X034020Y007395D01*
X034054Y007355D01*
X034086Y007312D01*
X034114Y007267D01*
X034139Y007221D01*
X034160Y007172D01*
X034178Y007122D01*
X034191Y007071D01*
X034201Y007019D01*
X034207Y006966D01*
X034209Y006913D01*
X034207Y006860D01*
X034201Y006807D01*
X034191Y006755D01*
X034178Y006704D01*
X034160Y006654D01*
X034139Y006605D01*
X034114Y006558D01*
X034086Y006514D01*
X034054Y006471D01*
X034020Y006431D01*
X033982Y006393D01*
X033942Y006359D01*
X033899Y006327D01*
X033854Y006299D01*
X033808Y006274D01*
X033759Y006253D01*
X033709Y006235D01*
X033658Y006222D01*
X033606Y006212D01*
X033553Y006206D01*
X033500Y006204D01*
X033447Y006206D01*
X033394Y006212D01*
X033342Y006222D01*
X033291Y006235D01*
X033241Y006253D01*
X033192Y006274D01*
X033145Y006299D01*
X033101Y006327D01*
X033058Y006359D01*
X033018Y006393D01*
X032980Y006431D01*
X032946Y006471D01*
X032914Y006514D01*
X032886Y006559D01*
X032861Y006605D01*
X032840Y006654D01*
X032822Y006704D01*
X032809Y006755D01*
X032799Y006807D01*
X032793Y006860D01*
X032791Y006913D01*
X032791Y017913D02*
X032793Y017966D01*
X032799Y018019D01*
X032809Y018071D01*
X032822Y018122D01*
X032840Y018172D01*
X032861Y018221D01*
X032886Y018268D01*
X032914Y018312D01*
X032946Y018355D01*
X032980Y018395D01*
X033018Y018433D01*
X033058Y018467D01*
X033101Y018499D01*
X033146Y018527D01*
X033192Y018552D01*
X033241Y018573D01*
X033291Y018591D01*
X033342Y018604D01*
X033394Y018614D01*
X033447Y018620D01*
X033500Y018622D01*
X033553Y018620D01*
X033606Y018614D01*
X033658Y018604D01*
X033709Y018591D01*
X033759Y018573D01*
X033808Y018552D01*
X033855Y018527D01*
X033899Y018499D01*
X033942Y018467D01*
X033982Y018433D01*
X034020Y018395D01*
X034054Y018355D01*
X034086Y018312D01*
X034114Y018267D01*
X034139Y018221D01*
X034160Y018172D01*
X034178Y018122D01*
X034191Y018071D01*
X034201Y018019D01*
X034207Y017966D01*
X034209Y017913D01*
X034207Y017860D01*
X034201Y017807D01*
X034191Y017755D01*
X034178Y017704D01*
X034160Y017654D01*
X034139Y017605D01*
X034114Y017558D01*
X034086Y017514D01*
X034054Y017471D01*
X034020Y017431D01*
X033982Y017393D01*
X033942Y017359D01*
X033899Y017327D01*
X033854Y017299D01*
X033808Y017274D01*
X033759Y017253D01*
X033709Y017235D01*
X033658Y017222D01*
X033606Y017212D01*
X033553Y017206D01*
X033500Y017204D01*
X033447Y017206D01*
X033394Y017212D01*
X033342Y017222D01*
X033291Y017235D01*
X033241Y017253D01*
X033192Y017274D01*
X033145Y017299D01*
X033101Y017327D01*
X033058Y017359D01*
X033018Y017393D01*
X032980Y017431D01*
X032946Y017471D01*
X032914Y017514D01*
X032886Y017559D01*
X032861Y017605D01*
X032840Y017654D01*
X032822Y017704D01*
X032809Y017755D01*
X032799Y017807D01*
X032793Y017860D01*
X032791Y017913D01*
X012791Y023913D02*
X012793Y023966D01*
X012799Y024019D01*
X012809Y024071D01*
X012822Y024122D01*
X012840Y024172D01*
X012861Y024221D01*
X012886Y024268D01*
X012914Y024312D01*
X012946Y024355D01*
X012980Y024395D01*
X013018Y024433D01*
X013058Y024467D01*
X013101Y024499D01*
X013146Y024527D01*
X013192Y024552D01*
X013241Y024573D01*
X013291Y024591D01*
X013342Y024604D01*
X013394Y024614D01*
X013447Y024620D01*
X013500Y024622D01*
X013553Y024620D01*
X013606Y024614D01*
X013658Y024604D01*
X013709Y024591D01*
X013759Y024573D01*
X013808Y024552D01*
X013855Y024527D01*
X013899Y024499D01*
X013942Y024467D01*
X013982Y024433D01*
X014020Y024395D01*
X014054Y024355D01*
X014086Y024312D01*
X014114Y024267D01*
X014139Y024221D01*
X014160Y024172D01*
X014178Y024122D01*
X014191Y024071D01*
X014201Y024019D01*
X014207Y023966D01*
X014209Y023913D01*
X014207Y023860D01*
X014201Y023807D01*
X014191Y023755D01*
X014178Y023704D01*
X014160Y023654D01*
X014139Y023605D01*
X014114Y023558D01*
X014086Y023514D01*
X014054Y023471D01*
X014020Y023431D01*
X013982Y023393D01*
X013942Y023359D01*
X013899Y023327D01*
X013854Y023299D01*
X013808Y023274D01*
X013759Y023253D01*
X013709Y023235D01*
X013658Y023222D01*
X013606Y023212D01*
X013553Y023206D01*
X013500Y023204D01*
X013447Y023206D01*
X013394Y023212D01*
X013342Y023222D01*
X013291Y023235D01*
X013241Y023253D01*
X013192Y023274D01*
X013145Y023299D01*
X013101Y023327D01*
X013058Y023359D01*
X013018Y023393D01*
X012980Y023431D01*
X012946Y023471D01*
X012914Y023514D01*
X012886Y023559D01*
X012861Y023605D01*
X012840Y023654D01*
X012822Y023704D01*
X012809Y023755D01*
X012799Y023807D01*
X012793Y023860D01*
X012791Y023913D01*
D11*
X013500Y023913D03*
X033500Y017913D03*
X033500Y006913D03*
X013000Y004913D03*
D12*
X016000Y004913D03*
X016000Y005913D03*
X017500Y004913D03*
X018500Y004913D03*
X019500Y004913D03*
X020500Y004913D03*
X021500Y004913D03*
X022500Y004913D03*
X023500Y004913D03*
X027500Y004913D03*
X028500Y004913D03*
X029500Y004913D03*
X030500Y004913D03*
X031500Y004913D03*
X032500Y004913D03*
X030500Y007913D03*
X029500Y007913D03*
X028500Y007913D03*
X027500Y007913D03*
X026500Y007913D03*
X025500Y007913D03*
X024500Y007913D03*
X023500Y007913D03*
X022500Y007913D03*
X021500Y007913D03*
X020500Y007913D03*
X019500Y007913D03*
X018500Y007913D03*
X017500Y007913D03*
X016500Y007913D03*
X015500Y007913D03*
X014500Y007913D03*
X013500Y007913D03*
X012500Y007913D03*
X011500Y007913D03*
X010500Y007913D03*
X009500Y007913D03*
X008500Y007913D03*
X007500Y007913D03*
X004250Y009163D03*
X003250Y009163D03*
X003890Y006693D03*
X002110Y006693D03*
X005750Y005413D03*
X006750Y005413D03*
X007750Y005413D03*
X003890Y004133D03*
X002110Y004133D03*
X003500Y012413D03*
X003500Y013413D03*
X003500Y014413D03*
X007500Y013913D03*
X008500Y013913D03*
X009500Y013913D03*
X010500Y013913D03*
X011500Y013913D03*
X012500Y013913D03*
X013500Y013913D03*
X014500Y013913D03*
X015500Y013913D03*
X016500Y013913D03*
X017500Y013913D03*
X018500Y013913D03*
X019500Y013913D03*
X020500Y013913D03*
X021500Y013913D03*
X022500Y013913D03*
X023500Y013913D03*
X024500Y013913D03*
X025500Y013913D03*
X026500Y013913D03*
X027500Y013913D03*
X028500Y013913D03*
X029500Y013913D03*
X030500Y013913D03*
X030500Y023913D03*
X029500Y023913D03*
X028500Y023913D03*
X027500Y023913D03*
X026500Y023913D03*
X025500Y023913D03*
X023900Y023913D03*
X022900Y023913D03*
X021900Y023913D03*
X020900Y023913D03*
X019900Y023913D03*
X018900Y023913D03*
X017900Y023913D03*
X016900Y023913D03*
X015900Y023913D03*
X014900Y023913D03*
X031500Y023913D03*
D13*
X032500Y023913D03*
X024500Y004913D03*
D14*
X032500Y013913D03*
X033500Y013913D03*
X033500Y014913D03*
X032500Y014913D03*
X032500Y015913D03*
X033500Y015913D03*
D15*
X014835Y021413D03*
X014165Y021413D03*
X014165Y022413D03*
X014835Y022413D03*
D16*
X005250Y018307D03*
X005250Y017519D03*
D17*
X005854Y022913D03*
D18*
X003394Y022913D03*
X004732Y021023D03*
D19*
X004603Y018897D02*
X003898Y018897D01*
X003898Y016929D02*
X004603Y016929D01*
D20*
X013700Y017413D02*
X014300Y017413D01*
X014300Y018413D02*
X013700Y018413D01*
X013700Y019413D02*
X014300Y019413D01*
D21*
X011500Y020112D03*
X011500Y021214D03*
X012500Y016464D03*
X012500Y015362D03*
D22*
X008250Y015607D03*
X008250Y017219D03*
D23*
X010000Y019468D03*
X012500Y019608D03*
X012500Y017718D03*
X010000Y021358D03*
D24*
X009677Y018413D03*
X009323Y018413D03*
D25*
X011500Y018736D03*
X011500Y019090D03*
D26*
X035677Y021486D03*
D27*
X035677Y018386D03*
X035677Y024586D03*
D28*
X038500Y017913D03*
X039500Y017913D03*
X039500Y016913D03*
X038500Y016913D03*
X038500Y015913D03*
X039500Y015913D03*
X039500Y014913D03*
X038500Y014913D03*
X038500Y013913D03*
X039500Y013913D03*
X039500Y012913D03*
X038500Y012913D03*
X038500Y011913D03*
X039500Y011913D03*
X039500Y010913D03*
X038500Y010913D03*
X038500Y009913D03*
X039500Y009913D03*
X039500Y008913D03*
X038500Y008913D03*
X038500Y007913D03*
X039500Y007913D03*
X039500Y006913D03*
X038500Y006913D03*
X038500Y005913D03*
X039500Y005913D03*
D29*
X011250Y005998D03*
X011250Y005328D03*
X010750Y023328D03*
X010750Y023998D03*
D30*
X004056Y010413D03*
X002444Y010413D03*
D31*
X002502Y007913D03*
X003998Y007913D03*
D32*
X007750Y020519D03*
X007750Y021307D03*
D33*
X010500Y017358D03*
X010500Y015468D03*
M02*
