%
M48
M72
T01C0.0236
T02C0.0315
T03C0.0400
T04C0.0470
T05C0.0730
T06C0.1102
T07C0.1260
T08C0.1417
%
T01
X30500Y10600
X36000Y600
X5250Y4350
X5500Y8600
X35500Y4100
X34500Y15100
X12000Y19600
X15000Y16600
X7500Y18100
X12000Y17100
X24500Y1600
X15500Y3100
X11500Y3600
X7250Y7100
X8250Y7600
X31250Y4100
X15500Y1350
X14500Y18600
X30250Y14100
X9000Y8850
X8500Y1600
X20000Y16600
X33000Y16600
X19000Y17600
X32500Y17600
X15500Y13600
X14500Y13100
X13500Y12100
X8000Y600
X35000Y600
X11000Y21600
X34500Y6100
X26500Y6100
X34500Y5600
X25500Y5600
X22500Y19100
X15500Y19100
X21500Y18350
X18000Y17100
X32000Y17100
X15000Y14100
X34500Y8600
X10500Y8600
X34500Y8100
X9500Y8100
X23000Y6100
X8500Y6100
X23500Y5600
X7500Y5600
X24000Y5100
X6000Y14600
X7500Y13600
X6500Y12600
X9500Y2100
T02
X9106Y19100
X9894Y19100
T03
X16500Y10600
X17500Y10600
X18500Y10600
X19500Y10600
X20500Y10600
X21500Y10600
X22500Y10600
X23500Y10600
X24500Y10600
X25500Y10600
X26500Y10600
X27500Y10600
X28500Y10600
X29500Y10600
X16500Y4600
X17500Y4600
X18500Y4600
X19500Y4600
X20500Y4600
X21500Y4600
X22500Y4600
X23500Y4600
X24500Y4600
X25500Y4600
X26500Y4600
X27500Y4600
X28500Y4600
X29500Y4600
X6500Y10600
X7500Y10600
X8500Y10600
X9500Y10600
X10500Y10600
X11500Y10600
X12500Y10600
X13500Y10600
X14500Y10600
X15500Y10600
X6500Y4600
X7500Y4600
X8500Y4600
X9500Y4600
X10500Y4600
X11500Y4600
X12500Y4600
X13500Y4600
X14500Y4600
X15500Y4600
X22900Y20600
X21900Y20600
X20900Y20600
X19900Y20600
X18900Y20600
X17900Y20600
X16900Y20600
X15900Y20600
X14900Y20600
X13900Y20600
X23500Y1600
X22500Y1600
X21500Y1600
X20500Y1600
X19500Y1600
X18500Y1600
X17500Y1600
X16500Y1600
X31500Y20600
X30500Y20600
X29500Y20600
X28500Y20600
X27500Y20600
X26500Y20600
X25500Y20600
X24500Y20600
X31500Y1600
X30500Y1600
X29500Y1600
X28500Y1600
X27500Y1600
X26500Y1600
X31500Y12600
X32500Y12600
X31500Y11600
X32500Y11600
X31500Y10600
X32500Y10600
X13000Y15600
X13000Y14600
X13000Y13600
X2500Y9100
X2500Y10100
X2500Y11100
X1110Y820
X1110Y3380
X2890Y820
X2890Y3380
X6750Y2100
X5750Y2100
X4750Y2100
X37500Y14600
X37500Y13600
X37500Y12600
X37500Y11600
X37500Y10600
X37500Y9600
X37500Y8600
X37500Y7600
X37500Y6600
X37500Y5600
X37500Y4600
X37500Y3600
X37500Y2600
X38500Y2600
X38500Y3600
X38500Y4600
X38500Y5600
X38500Y6600
X38500Y7600
X38500Y8600
X38500Y9600
X38500Y10600
X38500Y11600
X38500Y12600
X38500Y13600
X38500Y14600
X14500Y1600
X14500Y2600
T04
X3250Y15584
X3250Y13616
T05
X34412Y20438
X38088Y16762
T06
X3394Y19600
X4732Y17710
T07
X5854Y19600
T08
X12500Y20600
X32500Y14600
X32500Y3600
X12000Y1600
M30
