G75*
G70*
%OFA0B0*%
%FSLAX24Y24*%
%IPPOS*%
%LPD*%
%AMOC8*
5,1,8,0,0,1.08239X$1,22.5*
%
%ADD10C,0.0000*%
%ADD11C,0.0740*%
%ADD12R,0.0740X0.0740*%
%ADD13OC8,0.0740*%
%ADD14C,0.0560*%
%ADD15C,0.1660*%
%ADD16C,0.1502*%
%ADD17C,0.0705*%
%ADD18C,0.0600*%
%ADD19R,0.1095X0.1095*%
%ADD20C,0.0660*%
%ADD21OC8,0.0356*%
%ADD22C,0.0100*%
%ADD23C,0.0080*%
%ADD24C,0.0240*%
D10*
X000500Y000100D02*
X000500Y022096D01*
X039870Y022096D01*
X039870Y000100D01*
X000500Y000100D01*
X011291Y001600D02*
X011293Y001653D01*
X011299Y001706D01*
X011309Y001758D01*
X011322Y001809D01*
X011340Y001859D01*
X011361Y001908D01*
X011386Y001955D01*
X011414Y001999D01*
X011446Y002042D01*
X011480Y002082D01*
X011518Y002120D01*
X011558Y002154D01*
X011601Y002186D01*
X011646Y002214D01*
X011692Y002239D01*
X011741Y002260D01*
X011791Y002278D01*
X011842Y002291D01*
X011894Y002301D01*
X011947Y002307D01*
X012000Y002309D01*
X012053Y002307D01*
X012106Y002301D01*
X012158Y002291D01*
X012209Y002278D01*
X012259Y002260D01*
X012308Y002239D01*
X012355Y002214D01*
X012399Y002186D01*
X012442Y002154D01*
X012482Y002120D01*
X012520Y002082D01*
X012554Y002042D01*
X012586Y001999D01*
X012614Y001954D01*
X012639Y001908D01*
X012660Y001859D01*
X012678Y001809D01*
X012691Y001758D01*
X012701Y001706D01*
X012707Y001653D01*
X012709Y001600D01*
X012707Y001547D01*
X012701Y001494D01*
X012691Y001442D01*
X012678Y001391D01*
X012660Y001341D01*
X012639Y001292D01*
X012614Y001245D01*
X012586Y001201D01*
X012554Y001158D01*
X012520Y001118D01*
X012482Y001080D01*
X012442Y001046D01*
X012399Y001014D01*
X012354Y000986D01*
X012308Y000961D01*
X012259Y000940D01*
X012209Y000922D01*
X012158Y000909D01*
X012106Y000899D01*
X012053Y000893D01*
X012000Y000891D01*
X011947Y000893D01*
X011894Y000899D01*
X011842Y000909D01*
X011791Y000922D01*
X011741Y000940D01*
X011692Y000961D01*
X011645Y000986D01*
X011601Y001014D01*
X011558Y001046D01*
X011518Y001080D01*
X011480Y001118D01*
X011446Y001158D01*
X011414Y001201D01*
X011386Y001246D01*
X011361Y001292D01*
X011340Y001341D01*
X011322Y001391D01*
X011309Y001442D01*
X011299Y001494D01*
X011293Y001547D01*
X011291Y001600D01*
X031791Y003600D02*
X031793Y003653D01*
X031799Y003706D01*
X031809Y003758D01*
X031822Y003809D01*
X031840Y003859D01*
X031861Y003908D01*
X031886Y003955D01*
X031914Y003999D01*
X031946Y004042D01*
X031980Y004082D01*
X032018Y004120D01*
X032058Y004154D01*
X032101Y004186D01*
X032146Y004214D01*
X032192Y004239D01*
X032241Y004260D01*
X032291Y004278D01*
X032342Y004291D01*
X032394Y004301D01*
X032447Y004307D01*
X032500Y004309D01*
X032553Y004307D01*
X032606Y004301D01*
X032658Y004291D01*
X032709Y004278D01*
X032759Y004260D01*
X032808Y004239D01*
X032855Y004214D01*
X032899Y004186D01*
X032942Y004154D01*
X032982Y004120D01*
X033020Y004082D01*
X033054Y004042D01*
X033086Y003999D01*
X033114Y003954D01*
X033139Y003908D01*
X033160Y003859D01*
X033178Y003809D01*
X033191Y003758D01*
X033201Y003706D01*
X033207Y003653D01*
X033209Y003600D01*
X033207Y003547D01*
X033201Y003494D01*
X033191Y003442D01*
X033178Y003391D01*
X033160Y003341D01*
X033139Y003292D01*
X033114Y003245D01*
X033086Y003201D01*
X033054Y003158D01*
X033020Y003118D01*
X032982Y003080D01*
X032942Y003046D01*
X032899Y003014D01*
X032854Y002986D01*
X032808Y002961D01*
X032759Y002940D01*
X032709Y002922D01*
X032658Y002909D01*
X032606Y002899D01*
X032553Y002893D01*
X032500Y002891D01*
X032447Y002893D01*
X032394Y002899D01*
X032342Y002909D01*
X032291Y002922D01*
X032241Y002940D01*
X032192Y002961D01*
X032145Y002986D01*
X032101Y003014D01*
X032058Y003046D01*
X032018Y003080D01*
X031980Y003118D01*
X031946Y003158D01*
X031914Y003201D01*
X031886Y003246D01*
X031861Y003292D01*
X031840Y003341D01*
X031822Y003391D01*
X031809Y003442D01*
X031799Y003494D01*
X031793Y003547D01*
X031791Y003600D01*
X031791Y014600D02*
X031793Y014653D01*
X031799Y014706D01*
X031809Y014758D01*
X031822Y014809D01*
X031840Y014859D01*
X031861Y014908D01*
X031886Y014955D01*
X031914Y014999D01*
X031946Y015042D01*
X031980Y015082D01*
X032018Y015120D01*
X032058Y015154D01*
X032101Y015186D01*
X032146Y015214D01*
X032192Y015239D01*
X032241Y015260D01*
X032291Y015278D01*
X032342Y015291D01*
X032394Y015301D01*
X032447Y015307D01*
X032500Y015309D01*
X032553Y015307D01*
X032606Y015301D01*
X032658Y015291D01*
X032709Y015278D01*
X032759Y015260D01*
X032808Y015239D01*
X032855Y015214D01*
X032899Y015186D01*
X032942Y015154D01*
X032982Y015120D01*
X033020Y015082D01*
X033054Y015042D01*
X033086Y014999D01*
X033114Y014954D01*
X033139Y014908D01*
X033160Y014859D01*
X033178Y014809D01*
X033191Y014758D01*
X033201Y014706D01*
X033207Y014653D01*
X033209Y014600D01*
X033207Y014547D01*
X033201Y014494D01*
X033191Y014442D01*
X033178Y014391D01*
X033160Y014341D01*
X033139Y014292D01*
X033114Y014245D01*
X033086Y014201D01*
X033054Y014158D01*
X033020Y014118D01*
X032982Y014080D01*
X032942Y014046D01*
X032899Y014014D01*
X032854Y013986D01*
X032808Y013961D01*
X032759Y013940D01*
X032709Y013922D01*
X032658Y013909D01*
X032606Y013899D01*
X032553Y013893D01*
X032500Y013891D01*
X032447Y013893D01*
X032394Y013899D01*
X032342Y013909D01*
X032291Y013922D01*
X032241Y013940D01*
X032192Y013961D01*
X032145Y013986D01*
X032101Y014014D01*
X032058Y014046D01*
X032018Y014080D01*
X031980Y014118D01*
X031946Y014158D01*
X031914Y014201D01*
X031886Y014246D01*
X031861Y014292D01*
X031840Y014341D01*
X031822Y014391D01*
X031809Y014442D01*
X031799Y014494D01*
X031793Y014547D01*
X031791Y014600D01*
X011791Y020600D02*
X011793Y020653D01*
X011799Y020706D01*
X011809Y020758D01*
X011822Y020809D01*
X011840Y020859D01*
X011861Y020908D01*
X011886Y020955D01*
X011914Y020999D01*
X011946Y021042D01*
X011980Y021082D01*
X012018Y021120D01*
X012058Y021154D01*
X012101Y021186D01*
X012146Y021214D01*
X012192Y021239D01*
X012241Y021260D01*
X012291Y021278D01*
X012342Y021291D01*
X012394Y021301D01*
X012447Y021307D01*
X012500Y021309D01*
X012553Y021307D01*
X012606Y021301D01*
X012658Y021291D01*
X012709Y021278D01*
X012759Y021260D01*
X012808Y021239D01*
X012855Y021214D01*
X012899Y021186D01*
X012942Y021154D01*
X012982Y021120D01*
X013020Y021082D01*
X013054Y021042D01*
X013086Y020999D01*
X013114Y020954D01*
X013139Y020908D01*
X013160Y020859D01*
X013178Y020809D01*
X013191Y020758D01*
X013201Y020706D01*
X013207Y020653D01*
X013209Y020600D01*
X013207Y020547D01*
X013201Y020494D01*
X013191Y020442D01*
X013178Y020391D01*
X013160Y020341D01*
X013139Y020292D01*
X013114Y020245D01*
X013086Y020201D01*
X013054Y020158D01*
X013020Y020118D01*
X012982Y020080D01*
X012942Y020046D01*
X012899Y020014D01*
X012854Y019986D01*
X012808Y019961D01*
X012759Y019940D01*
X012709Y019922D01*
X012658Y019909D01*
X012606Y019899D01*
X012553Y019893D01*
X012500Y019891D01*
X012447Y019893D01*
X012394Y019899D01*
X012342Y019909D01*
X012291Y019922D01*
X012241Y019940D01*
X012192Y019961D01*
X012145Y019986D01*
X012101Y020014D01*
X012058Y020046D01*
X012018Y020080D01*
X011980Y020118D01*
X011946Y020158D01*
X011914Y020201D01*
X011886Y020246D01*
X011861Y020292D01*
X011840Y020341D01*
X011822Y020391D01*
X011809Y020442D01*
X011799Y020494D01*
X011793Y020547D01*
X011791Y020600D01*
D11*
X013900Y020600D03*
X014900Y020600D03*
X015900Y020600D03*
X016900Y020600D03*
X017900Y020600D03*
X018900Y020600D03*
X019900Y020600D03*
X020900Y020600D03*
X021900Y020600D03*
X022900Y020600D03*
X024500Y020600D03*
X025500Y020600D03*
X026500Y020600D03*
X027500Y020600D03*
X028500Y020600D03*
X029500Y020600D03*
X030500Y020600D03*
X029500Y010600D03*
X028500Y010600D03*
X027500Y010600D03*
X026500Y010600D03*
X025500Y010600D03*
X024500Y010600D03*
X023500Y010600D03*
X022500Y010600D03*
X021500Y010600D03*
X020500Y010600D03*
X019500Y010600D03*
X018500Y010600D03*
X017500Y010600D03*
X016500Y010600D03*
X015500Y010600D03*
X014500Y010600D03*
X013500Y010600D03*
X012500Y010600D03*
X011500Y010600D03*
X010500Y010600D03*
X009500Y010600D03*
X008500Y010600D03*
X007500Y010600D03*
X006500Y010600D03*
X002500Y010100D03*
X002500Y009100D03*
X002500Y011100D03*
X006500Y004600D03*
X007500Y004600D03*
X008500Y004600D03*
X009500Y004600D03*
X010500Y004600D03*
X011500Y004600D03*
X012500Y004600D03*
X013500Y004600D03*
X014500Y004600D03*
X015500Y004600D03*
X016500Y004600D03*
X017500Y004600D03*
X018500Y004600D03*
X019500Y004600D03*
X020500Y004600D03*
X021500Y004600D03*
X022500Y004600D03*
X023500Y004600D03*
X024500Y004600D03*
X025500Y004600D03*
X026500Y004600D03*
X027500Y004600D03*
X028500Y004600D03*
X029500Y004600D03*
X029500Y001600D03*
X030500Y001600D03*
X031500Y001600D03*
X028500Y001600D03*
X027500Y001600D03*
X026500Y001600D03*
X022500Y001600D03*
X021500Y001600D03*
X020500Y001600D03*
X019500Y001600D03*
X018500Y001600D03*
X017500Y001600D03*
X016500Y001600D03*
X014500Y001600D03*
X014500Y002600D03*
X006750Y002100D03*
X005750Y002100D03*
X004750Y002100D03*
X002890Y003380D03*
X001110Y003380D03*
X001110Y000820D03*
X002890Y000820D03*
D12*
X023500Y001600D03*
X031500Y020600D03*
D13*
X031500Y012600D03*
X032500Y012600D03*
X032500Y011600D03*
X031500Y011600D03*
X031500Y010600D03*
X032500Y010600D03*
D14*
X009894Y019100D03*
X009106Y019100D03*
D15*
X005854Y019600D03*
D16*
X003394Y019600D03*
X004732Y017710D03*
D17*
X003603Y015584D02*
X002898Y015584D01*
X002898Y013616D02*
X003603Y013616D01*
D18*
X012700Y013600D02*
X013300Y013600D01*
X013300Y014600D02*
X012700Y014600D01*
X012700Y015600D02*
X013300Y015600D01*
D19*
G36*
X034412Y019665D02*
X033639Y020438D01*
X034412Y021211D01*
X035185Y020438D01*
X034412Y019665D01*
G37*
G36*
X038088Y015989D02*
X037315Y016762D01*
X038088Y017535D01*
X038861Y016762D01*
X038088Y015989D01*
G37*
D20*
X038500Y014600D03*
X037500Y014600D03*
X037500Y013600D03*
X038500Y013600D03*
X038500Y012600D03*
X037500Y012600D03*
X037500Y011600D03*
X038500Y011600D03*
X038500Y010600D03*
X037500Y010600D03*
X037500Y009600D03*
X038500Y009600D03*
X038500Y008600D03*
X037500Y008600D03*
X037500Y007600D03*
X038500Y007600D03*
X038500Y006600D03*
X037500Y006600D03*
X037500Y005600D03*
X038500Y005600D03*
X038500Y004600D03*
X037500Y004600D03*
X037500Y003600D03*
X038500Y003600D03*
X038500Y002600D03*
X037500Y002600D03*
D21*
X035500Y004100D03*
X034500Y005600D03*
X034500Y006100D03*
X031250Y004100D03*
X026500Y006100D03*
X025500Y005600D03*
X024000Y005100D03*
X023500Y005600D03*
X023000Y006100D03*
X024500Y001600D03*
X015500Y001350D03*
X015500Y003100D03*
X011500Y003600D03*
X009500Y002100D03*
X008500Y001600D03*
X008000Y000600D03*
X005250Y004350D03*
X007500Y005600D03*
X008500Y006100D03*
X007250Y007100D03*
X008250Y007600D03*
X009500Y008100D03*
X010500Y008600D03*
X009000Y008850D03*
X005500Y008600D03*
X006500Y012600D03*
X007500Y013600D03*
X006000Y014600D03*
X007500Y018100D03*
X012000Y017100D03*
X014500Y018600D03*
X015500Y019100D03*
X018000Y017100D03*
X019000Y017600D03*
X020000Y016600D03*
X021500Y018350D03*
X022500Y019100D03*
X015000Y016600D03*
X015000Y014100D03*
X015500Y013600D03*
X014500Y013100D03*
X013500Y012100D03*
X012000Y019600D03*
X011000Y021600D03*
X030250Y014100D03*
X034500Y015100D03*
X033000Y016600D03*
X032000Y017100D03*
X032500Y017600D03*
X030500Y010600D03*
X034500Y008600D03*
X034500Y008100D03*
X035000Y000600D03*
X036000Y000600D03*
D22*
X035348Y000593D02*
X039500Y000593D01*
X039500Y000691D02*
X035348Y000691D01*
X035348Y000744D02*
X035290Y000802D01*
X035290Y001310D01*
X039058Y001310D01*
X039164Y001354D01*
X039246Y001436D01*
X039500Y001690D01*
X039500Y000350D01*
X035242Y000350D01*
X035348Y000456D01*
X035348Y000744D01*
X035303Y000790D02*
X039500Y000790D01*
X039500Y000888D02*
X035290Y000888D01*
X035290Y000987D02*
X039500Y000987D01*
X039500Y001085D02*
X035290Y001085D01*
X035290Y001184D02*
X039500Y001184D01*
X039500Y001282D02*
X035290Y001282D01*
X035120Y001890D02*
X034790Y002220D01*
X034790Y004658D01*
X034746Y004764D01*
X033746Y005764D01*
X033664Y005846D01*
X033558Y005890D01*
X027942Y005890D01*
X027836Y005846D01*
X027754Y005764D01*
X027336Y005346D01*
X027254Y005264D01*
X027210Y005158D01*
X027210Y005064D01*
X027194Y005058D01*
X027042Y004906D01*
X027000Y004804D01*
X026958Y004906D01*
X026806Y005058D01*
X026720Y005093D01*
X026720Y005828D01*
X026848Y005956D01*
X026848Y006244D01*
X026702Y006390D01*
X034298Y006390D01*
X034152Y006244D01*
X034152Y005956D01*
X034258Y005850D01*
X034152Y005744D01*
X034152Y005456D01*
X034356Y005252D01*
X034644Y005252D01*
X034782Y005390D01*
X036413Y005390D01*
X036913Y004890D01*
X037083Y004890D01*
X037076Y004883D01*
X037000Y004699D01*
X037000Y004501D01*
X037076Y004317D01*
X037217Y004176D01*
X037401Y004100D01*
X037217Y004024D01*
X037076Y003883D01*
X037000Y003699D01*
X037000Y003501D01*
X037076Y003317D01*
X037217Y003176D01*
X037401Y003100D01*
X037599Y003100D01*
X037783Y003176D01*
X037924Y003317D01*
X038000Y003501D01*
X038000Y003699D01*
X037924Y003883D01*
X037783Y004024D01*
X037599Y004100D01*
X037401Y004100D01*
X037599Y004100D01*
X037783Y004176D01*
X037924Y004317D01*
X038000Y004501D01*
X038076Y004317D01*
X038217Y004176D01*
X038401Y004100D01*
X038217Y004024D01*
X038076Y003883D01*
X038000Y003699D01*
X038000Y003501D01*
X038076Y003317D01*
X038217Y003176D01*
X038401Y003100D01*
X038599Y003100D01*
X038783Y003176D01*
X038924Y003317D01*
X039000Y003501D01*
X039000Y003699D01*
X038924Y003883D01*
X038783Y004024D01*
X038599Y004100D01*
X038401Y004100D01*
X038599Y004100D01*
X038783Y004176D01*
X038924Y004317D01*
X039000Y004501D01*
X039000Y004699D01*
X038924Y004883D01*
X038783Y005024D01*
X038599Y005100D01*
X038783Y005176D01*
X038924Y005317D01*
X039000Y005501D01*
X039000Y005699D01*
X038924Y005883D01*
X038783Y006024D01*
X038599Y006100D01*
X038783Y006176D01*
X038924Y006317D01*
X039000Y006501D01*
X039000Y006699D01*
X038924Y006883D01*
X038783Y007024D01*
X038599Y007100D01*
X038783Y007176D01*
X038924Y007317D01*
X039000Y007501D01*
X039000Y007699D01*
X038924Y007883D01*
X038783Y008024D01*
X038599Y008100D01*
X038783Y008176D01*
X038924Y008317D01*
X039000Y008501D01*
X039000Y008699D01*
X038924Y008883D01*
X038783Y009024D01*
X038599Y009100D01*
X038783Y009176D01*
X038924Y009317D01*
X039000Y009501D01*
X039000Y009699D01*
X038924Y009883D01*
X038783Y010024D01*
X038599Y010100D01*
X038783Y010176D01*
X038924Y010317D01*
X039000Y010501D01*
X039000Y010699D01*
X038924Y010883D01*
X038783Y011024D01*
X038599Y011100D01*
X038783Y011176D01*
X038924Y011317D01*
X039000Y011501D01*
X039000Y011699D01*
X038924Y011883D01*
X038783Y012024D01*
X038599Y012100D01*
X038783Y012176D01*
X038924Y012317D01*
X039000Y012501D01*
X039000Y012699D01*
X038924Y012883D01*
X038783Y013024D01*
X038599Y013100D01*
X038401Y013100D01*
X038217Y013024D01*
X038076Y012883D01*
X038000Y012699D01*
X037924Y012883D01*
X037783Y013024D01*
X037599Y013100D01*
X037783Y013176D01*
X037924Y013317D01*
X038000Y013501D01*
X038000Y013699D01*
X037924Y013883D01*
X037783Y014024D01*
X037599Y014100D01*
X037401Y014100D01*
X037217Y014024D01*
X037076Y013883D01*
X037000Y013699D01*
X037000Y013501D01*
X037076Y013317D01*
X037217Y013176D01*
X037401Y013100D01*
X037599Y013100D01*
X037401Y013100D01*
X037217Y013024D01*
X037076Y012883D01*
X037000Y012699D01*
X037000Y012501D01*
X037076Y012317D01*
X037217Y012176D01*
X037401Y012100D01*
X037599Y012100D01*
X037783Y012176D01*
X037924Y012317D01*
X038000Y012501D01*
X038000Y012699D01*
X038000Y012501D01*
X038076Y012317D01*
X038217Y012176D01*
X038401Y012100D01*
X038599Y012100D01*
X038401Y012100D01*
X038217Y012024D01*
X038076Y011883D01*
X038000Y011699D01*
X037924Y011883D01*
X037783Y012024D01*
X037599Y012100D01*
X037401Y012100D01*
X037217Y012024D01*
X037076Y011883D01*
X037000Y011699D01*
X037000Y011501D01*
X037076Y011317D01*
X037083Y011310D01*
X036913Y011310D01*
X034551Y008948D01*
X034356Y008948D01*
X034152Y008744D01*
X034152Y008456D01*
X034258Y008350D01*
X034152Y008244D01*
X034152Y007956D01*
X034298Y007810D01*
X024601Y007810D01*
X024591Y007820D01*
X024409Y007820D01*
X023037Y006448D01*
X022856Y006448D01*
X022652Y006244D01*
X022652Y005956D01*
X022856Y005752D01*
X023144Y005752D01*
X023348Y005956D01*
X023348Y006137D01*
X024601Y007390D01*
X034993Y007390D01*
X034913Y007310D01*
X025101Y007310D01*
X025091Y007320D01*
X024909Y007320D01*
X023537Y005948D01*
X023356Y005948D01*
X023152Y005744D01*
X023152Y005456D01*
X023356Y005252D01*
X023644Y005252D01*
X023848Y005456D01*
X023848Y005637D01*
X025101Y006890D01*
X034979Y006890D01*
X034899Y006810D01*
X025601Y006810D01*
X025591Y006820D01*
X025409Y006820D01*
X024037Y005448D01*
X023856Y005448D01*
X023652Y005244D01*
X023652Y005122D01*
X023607Y005140D01*
X023393Y005140D01*
X023194Y005058D01*
X023042Y004906D01*
X023000Y004804D01*
X022958Y004906D01*
X022806Y005058D01*
X022710Y005098D01*
X022710Y005687D01*
X022210Y006187D01*
X022087Y006310D01*
X020587Y006310D01*
X020210Y006687D01*
X020210Y010136D01*
X020393Y010060D01*
X020607Y010060D01*
X020806Y010142D01*
X020958Y010294D01*
X021000Y010396D01*
X021042Y010294D01*
X021194Y010142D01*
X021393Y010060D01*
X021607Y010060D01*
X021806Y010142D01*
X021958Y010294D01*
X022000Y010396D01*
X022042Y010294D01*
X022194Y010142D01*
X022393Y010060D01*
X022607Y010060D01*
X022806Y010142D01*
X022958Y010294D01*
X023000Y010396D01*
X023042Y010294D01*
X023194Y010142D01*
X023393Y010060D01*
X023607Y010060D01*
X023806Y010142D01*
X023958Y010294D01*
X024000Y010396D01*
X024042Y010294D01*
X024194Y010142D01*
X024393Y010060D01*
X024607Y010060D01*
X024806Y010142D01*
X024958Y010294D01*
X025000Y010396D01*
X025042Y010294D01*
X025194Y010142D01*
X025393Y010060D01*
X025607Y010060D01*
X025806Y010142D01*
X025958Y010294D01*
X026000Y010396D01*
X026042Y010294D01*
X026194Y010142D01*
X026393Y010060D01*
X026607Y010060D01*
X026806Y010142D01*
X026958Y010294D01*
X027000Y010396D01*
X027042Y010294D01*
X027194Y010142D01*
X027393Y010060D01*
X027607Y010060D01*
X027806Y010142D01*
X027958Y010294D01*
X028000Y010396D01*
X028042Y010294D01*
X028194Y010142D01*
X028393Y010060D01*
X028607Y010060D01*
X028806Y010142D01*
X028958Y010294D01*
X029011Y010422D01*
X029018Y010400D01*
X029055Y010327D01*
X029103Y010261D01*
X029161Y010203D01*
X029227Y010155D01*
X029300Y010118D01*
X029378Y010093D01*
X029450Y010081D01*
X029450Y010550D01*
X029550Y010550D01*
X029550Y010650D01*
X029450Y010650D01*
X029450Y011119D01*
X029378Y011107D01*
X029300Y011082D01*
X029227Y011045D01*
X029161Y010997D01*
X029103Y010939D01*
X029055Y010873D01*
X029018Y010800D01*
X029011Y010778D01*
X028958Y010906D01*
X028806Y011058D01*
X028710Y011098D01*
X028710Y013499D01*
X030790Y015579D01*
X030790Y012201D01*
X030780Y012191D01*
X030780Y012009D01*
X030963Y011826D01*
X030960Y011824D01*
X030960Y011376D01*
X031236Y011100D01*
X030960Y010824D01*
X030960Y010376D01*
X031276Y010060D01*
X031724Y010060D01*
X032014Y010350D01*
X032285Y010080D01*
X032450Y010080D01*
X032450Y010550D01*
X032550Y010550D01*
X032550Y010650D01*
X033020Y010650D01*
X033020Y010815D01*
X032750Y011086D01*
X033040Y011376D01*
X033040Y011390D01*
X033587Y011390D01*
X033710Y011513D01*
X034210Y012013D01*
X034210Y016187D01*
X034087Y016310D01*
X033587Y016810D01*
X033282Y016810D01*
X033144Y016948D01*
X032856Y016948D01*
X032720Y016812D01*
X032720Y017328D01*
X032848Y017456D01*
X032848Y017744D01*
X032644Y017948D01*
X032356Y017948D01*
X032152Y017744D01*
X032152Y017456D01*
X032280Y017328D01*
X032280Y017312D01*
X032144Y017448D01*
X031856Y017448D01*
X031710Y017302D01*
X031710Y020060D01*
X031940Y020060D01*
X032040Y020160D01*
X032040Y021040D01*
X031940Y021140D01*
X031060Y021140D01*
X030960Y021040D01*
X030960Y020901D01*
X030958Y020906D01*
X030806Y021058D01*
X030607Y021140D01*
X030393Y021140D01*
X030194Y021058D01*
X030042Y020906D01*
X030000Y020804D01*
X029958Y020906D01*
X029806Y021058D01*
X029607Y021140D01*
X029393Y021140D01*
X029194Y021058D01*
X029042Y020906D01*
X029000Y020804D01*
X028958Y020906D01*
X028806Y021058D01*
X028607Y021140D01*
X028393Y021140D01*
X028194Y021058D01*
X028042Y020906D01*
X028000Y020804D01*
X027958Y020906D01*
X027806Y021058D01*
X027607Y021140D01*
X027393Y021140D01*
X027194Y021058D01*
X027042Y020906D01*
X027000Y020804D01*
X026958Y020906D01*
X026806Y021058D01*
X026607Y021140D01*
X026393Y021140D01*
X026194Y021058D01*
X026042Y020906D01*
X026000Y020804D01*
X025958Y020906D01*
X025806Y021058D01*
X025607Y021140D01*
X025393Y021140D01*
X025194Y021058D01*
X025042Y020906D01*
X025000Y020804D01*
X024958Y020906D01*
X024806Y021058D01*
X024607Y021140D01*
X024393Y021140D01*
X024194Y021058D01*
X024042Y020906D01*
X023960Y020707D01*
X023960Y020493D01*
X024042Y020294D01*
X024194Y020142D01*
X024290Y020102D01*
X024290Y016687D01*
X021413Y013810D01*
X021290Y013687D01*
X021290Y011098D01*
X021194Y011058D01*
X021042Y010906D01*
X021000Y010804D01*
X020958Y010906D01*
X020806Y011058D01*
X020710Y011098D01*
X020710Y014013D01*
X023110Y016413D01*
X023110Y020102D01*
X023206Y020142D01*
X023358Y020294D01*
X023440Y020493D01*
X023440Y020707D01*
X023358Y020906D01*
X023206Y021058D01*
X023007Y021140D01*
X022793Y021140D01*
X022594Y021058D01*
X022442Y020906D01*
X022400Y020804D01*
X022358Y020906D01*
X022206Y021058D01*
X022007Y021140D01*
X021793Y021140D01*
X021594Y021058D01*
X021442Y020906D01*
X021400Y020804D01*
X021358Y020906D01*
X021206Y021058D01*
X021007Y021140D01*
X020793Y021140D01*
X020594Y021058D01*
X020442Y020906D01*
X020400Y020804D01*
X020358Y020906D01*
X020206Y021058D01*
X020007Y021140D01*
X019793Y021140D01*
X019594Y021058D01*
X019442Y020906D01*
X019400Y020804D01*
X019358Y020906D01*
X019206Y021058D01*
X019007Y021140D01*
X018793Y021140D01*
X018594Y021058D01*
X018442Y020906D01*
X018400Y020804D01*
X018358Y020906D01*
X018206Y021058D01*
X018007Y021140D01*
X017793Y021140D01*
X017594Y021058D01*
X017442Y020906D01*
X017389Y020778D01*
X017382Y020800D01*
X017345Y020873D01*
X017297Y020939D01*
X017239Y020997D01*
X017173Y021045D01*
X017100Y021082D01*
X017022Y021107D01*
X016950Y021119D01*
X016950Y020650D01*
X016850Y020650D01*
X016850Y021119D01*
X016778Y021107D01*
X016700Y021082D01*
X016627Y021045D01*
X016561Y020997D01*
X016503Y020939D01*
X016455Y020873D01*
X016418Y020800D01*
X016411Y020778D01*
X016358Y020906D01*
X016206Y021058D01*
X016007Y021140D01*
X015793Y021140D01*
X015594Y021058D01*
X015442Y020906D01*
X015400Y020804D01*
X015358Y020906D01*
X015206Y021058D01*
X015007Y021140D01*
X014793Y021140D01*
X014594Y021058D01*
X014442Y020906D01*
X014400Y020804D01*
X014358Y020906D01*
X014206Y021058D01*
X014007Y021140D01*
X013793Y021140D01*
X013594Y021058D01*
X013442Y020906D01*
X013379Y020752D01*
X013379Y020775D01*
X013245Y021098D01*
X013033Y021310D01*
X034268Y021310D01*
X033467Y020509D01*
X033467Y020368D01*
X034341Y019494D01*
X034482Y019494D01*
X035356Y020368D01*
X035356Y020509D01*
X034555Y021310D01*
X038880Y021310D01*
X039210Y020980D01*
X039210Y014890D01*
X038917Y014890D01*
X038783Y015024D01*
X038599Y015100D01*
X038401Y015100D01*
X038217Y015024D01*
X038083Y014890D01*
X037917Y014890D01*
X037783Y015024D01*
X037599Y015100D01*
X037401Y015100D01*
X037217Y015024D01*
X037076Y014883D01*
X037000Y014699D01*
X037000Y014501D01*
X037076Y014317D01*
X037217Y014176D01*
X037401Y014100D01*
X037599Y014100D01*
X037783Y014176D01*
X037917Y014310D01*
X038083Y014310D01*
X038217Y014176D01*
X038401Y014100D01*
X038217Y014024D01*
X038076Y013883D01*
X038000Y013699D01*
X038000Y013501D01*
X038076Y013317D01*
X038217Y013176D01*
X038401Y013100D01*
X038599Y013100D01*
X038783Y013176D01*
X038924Y013317D01*
X039000Y013501D01*
X039000Y013699D01*
X038924Y013883D01*
X038783Y014024D01*
X038599Y014100D01*
X038401Y014100D01*
X038599Y014100D01*
X038783Y014176D01*
X038917Y014310D01*
X039210Y014310D01*
X039210Y002220D01*
X038880Y001890D01*
X035120Y001890D01*
X035039Y001972D02*
X038961Y001972D01*
X039060Y002070D02*
X034940Y002070D01*
X034842Y002169D02*
X037290Y002169D01*
X037316Y002155D02*
X037388Y002132D01*
X037450Y002122D01*
X037450Y002550D01*
X037550Y002550D01*
X037550Y002650D01*
X037978Y002650D01*
X037968Y002712D01*
X037945Y002784D01*
X037911Y002852D01*
X037866Y002913D01*
X037813Y002966D01*
X037752Y003011D01*
X037684Y003045D01*
X037612Y003068D01*
X037550Y003078D01*
X037550Y002650D01*
X037450Y002650D01*
X037450Y003078D01*
X037388Y003068D01*
X037316Y003045D01*
X037248Y003011D01*
X037187Y002966D01*
X037134Y002913D01*
X037089Y002852D01*
X037055Y002784D01*
X037032Y002712D01*
X037022Y002650D01*
X037450Y002650D01*
X037450Y002550D01*
X037022Y002550D01*
X037032Y002488D01*
X037055Y002416D01*
X037089Y002348D01*
X037134Y002287D01*
X037187Y002234D01*
X037248Y002189D01*
X037316Y002155D01*
X037450Y002169D02*
X037550Y002169D01*
X037550Y002122D02*
X037612Y002132D01*
X037684Y002155D01*
X037752Y002189D01*
X037813Y002234D01*
X037866Y002287D01*
X037911Y002348D01*
X037945Y002416D01*
X037968Y002488D01*
X037978Y002550D01*
X037550Y002550D01*
X037550Y002122D01*
X037550Y002267D02*
X037450Y002267D01*
X037450Y002366D02*
X037550Y002366D01*
X037550Y002464D02*
X037450Y002464D01*
X037450Y002563D02*
X034790Y002563D01*
X034790Y002661D02*
X037024Y002661D01*
X037047Y002760D02*
X034790Y002760D01*
X034790Y002858D02*
X037094Y002858D01*
X037178Y002957D02*
X034790Y002957D01*
X034790Y003055D02*
X037347Y003055D01*
X037450Y003055D02*
X037550Y003055D01*
X037550Y002957D02*
X037450Y002957D01*
X037450Y002858D02*
X037550Y002858D01*
X037550Y002760D02*
X037450Y002760D01*
X037450Y002661D02*
X037550Y002661D01*
X037550Y002563D02*
X038450Y002563D01*
X038450Y002550D02*
X038022Y002550D01*
X038032Y002488D01*
X038055Y002416D01*
X038089Y002348D01*
X038134Y002287D01*
X038187Y002234D01*
X038248Y002189D01*
X038316Y002155D01*
X038388Y002132D01*
X038450Y002122D01*
X038450Y002550D01*
X038550Y002550D01*
X038550Y002650D01*
X038978Y002650D01*
X038968Y002712D01*
X038945Y002784D01*
X038911Y002852D01*
X038866Y002913D01*
X038813Y002966D01*
X038752Y003011D01*
X038684Y003045D01*
X038612Y003068D01*
X038550Y003078D01*
X038550Y002650D01*
X038450Y002650D01*
X038450Y003078D01*
X038388Y003068D01*
X038316Y003045D01*
X038248Y003011D01*
X038187Y002966D01*
X038134Y002913D01*
X038089Y002852D01*
X038055Y002784D01*
X038032Y002712D01*
X038022Y002650D01*
X038450Y002650D01*
X038450Y002550D01*
X038450Y002464D02*
X038550Y002464D01*
X038550Y002550D02*
X038550Y002122D01*
X038612Y002132D01*
X038684Y002155D01*
X038752Y002189D01*
X038813Y002234D01*
X038866Y002287D01*
X038911Y002348D01*
X038945Y002416D01*
X038968Y002488D01*
X038978Y002550D01*
X038550Y002550D01*
X038550Y002563D02*
X039210Y002563D01*
X039210Y002661D02*
X038976Y002661D01*
X038953Y002760D02*
X039210Y002760D01*
X039210Y002858D02*
X038906Y002858D01*
X038822Y002957D02*
X039210Y002957D01*
X039210Y003055D02*
X038653Y003055D01*
X038550Y003055D02*
X038450Y003055D01*
X038450Y002957D02*
X038550Y002957D01*
X038550Y002858D02*
X038450Y002858D01*
X038450Y002760D02*
X038550Y002760D01*
X038550Y002661D02*
X038450Y002661D01*
X038450Y002366D02*
X038550Y002366D01*
X038550Y002267D02*
X038450Y002267D01*
X038450Y002169D02*
X038550Y002169D01*
X038710Y002169D02*
X039158Y002169D01*
X039210Y002267D02*
X038846Y002267D01*
X038919Y002366D02*
X039210Y002366D01*
X039210Y002464D02*
X038961Y002464D01*
X038290Y002169D02*
X037710Y002169D01*
X037846Y002267D02*
X038154Y002267D01*
X038081Y002366D02*
X037919Y002366D01*
X037961Y002464D02*
X038039Y002464D01*
X038024Y002661D02*
X037976Y002661D01*
X037953Y002760D02*
X038047Y002760D01*
X038094Y002858D02*
X037906Y002858D01*
X037822Y002957D02*
X038178Y002957D01*
X038347Y003055D02*
X037653Y003055D01*
X037729Y003154D02*
X038271Y003154D01*
X038141Y003252D02*
X037859Y003252D01*
X037938Y003351D02*
X038062Y003351D01*
X038021Y003449D02*
X037979Y003449D01*
X038000Y003548D02*
X038000Y003548D01*
X038000Y003646D02*
X038000Y003646D01*
X037981Y003745D02*
X038019Y003745D01*
X038059Y003843D02*
X037941Y003843D01*
X037866Y003942D02*
X038134Y003942D01*
X038256Y004040D02*
X037744Y004040D01*
X037692Y004139D02*
X038308Y004139D01*
X038156Y004237D02*
X037844Y004237D01*
X037932Y004336D02*
X038068Y004336D01*
X038028Y004434D02*
X037972Y004434D01*
X038000Y004501D02*
X038000Y004699D01*
X038076Y004883D01*
X038083Y004890D01*
X037917Y004890D01*
X037924Y004883D01*
X038000Y004699D01*
X038000Y004501D01*
X038000Y004533D02*
X038000Y004533D01*
X038000Y004631D02*
X038000Y004631D01*
X037988Y004730D02*
X038012Y004730D01*
X038053Y004828D02*
X037947Y004828D01*
X038224Y005027D02*
X038327Y005130D01*
X038401Y005100D01*
X038599Y005100D01*
X038401Y005100D01*
X038224Y005027D01*
X038320Y005124D02*
X038344Y005124D01*
X038656Y005124D02*
X039210Y005124D01*
X039210Y005222D02*
X038829Y005222D01*
X038925Y005321D02*
X039210Y005321D01*
X039210Y005419D02*
X038966Y005419D01*
X039000Y005518D02*
X039210Y005518D01*
X039210Y005616D02*
X039000Y005616D01*
X038994Y005715D02*
X039210Y005715D01*
X039210Y005813D02*
X038953Y005813D01*
X038896Y005912D02*
X039210Y005912D01*
X039210Y006010D02*
X038797Y006010D01*
X038814Y006207D02*
X039210Y006207D01*
X039210Y006109D02*
X038620Y006109D01*
X038599Y006100D02*
X038401Y006100D01*
X038327Y006130D01*
X038224Y006027D01*
X038401Y006100D01*
X038599Y006100D01*
X038380Y006109D02*
X038305Y006109D01*
X038913Y006306D02*
X039210Y006306D01*
X039210Y006404D02*
X038960Y006404D01*
X039000Y006503D02*
X039210Y006503D01*
X039210Y006601D02*
X039000Y006601D01*
X039000Y006700D02*
X039210Y006700D01*
X039210Y006798D02*
X038959Y006798D01*
X038911Y006897D02*
X039210Y006897D01*
X039210Y006995D02*
X038812Y006995D01*
X038799Y007192D02*
X039210Y007192D01*
X039210Y007094D02*
X038615Y007094D01*
X038599Y007100D02*
X038401Y007100D01*
X038327Y007130D01*
X038224Y007027D01*
X038401Y007100D01*
X038599Y007100D01*
X038385Y007094D02*
X038291Y007094D01*
X038898Y007291D02*
X039210Y007291D01*
X039210Y007389D02*
X038954Y007389D01*
X038995Y007488D02*
X039210Y007488D01*
X039210Y007586D02*
X039000Y007586D01*
X039000Y007685D02*
X039210Y007685D01*
X039210Y007783D02*
X038965Y007783D01*
X038925Y007882D02*
X039210Y007882D01*
X039210Y007980D02*
X038827Y007980D01*
X038651Y008079D02*
X039210Y008079D01*
X039210Y008177D02*
X038784Y008177D01*
X038883Y008276D02*
X039210Y008276D01*
X039210Y008374D02*
X038948Y008374D01*
X038988Y008473D02*
X039210Y008473D01*
X039210Y008571D02*
X039000Y008571D01*
X039000Y008670D02*
X039210Y008670D01*
X039210Y008768D02*
X038972Y008768D01*
X038931Y008867D02*
X039210Y008867D01*
X039210Y008965D02*
X038842Y008965D01*
X038688Y009064D02*
X039210Y009064D01*
X039210Y009162D02*
X038749Y009162D01*
X038868Y009261D02*
X039210Y009261D01*
X039210Y009359D02*
X038941Y009359D01*
X038982Y009458D02*
X039210Y009458D01*
X039210Y009556D02*
X039000Y009556D01*
X039000Y009655D02*
X039210Y009655D01*
X039210Y009753D02*
X038978Y009753D01*
X038937Y009852D02*
X039210Y009852D01*
X039210Y009950D02*
X038857Y009950D01*
X038724Y010049D02*
X039210Y010049D01*
X039210Y010147D02*
X038713Y010147D01*
X038599Y010100D02*
X038401Y010100D01*
X038327Y010130D01*
X038224Y010027D01*
X038401Y010100D01*
X038599Y010100D01*
X038853Y010246D02*
X039210Y010246D01*
X039210Y010344D02*
X038935Y010344D01*
X038976Y010443D02*
X039210Y010443D01*
X039210Y010541D02*
X039000Y010541D01*
X039000Y010640D02*
X039210Y010640D01*
X039210Y010738D02*
X038984Y010738D01*
X038943Y010837D02*
X039210Y010837D01*
X039210Y010935D02*
X038872Y010935D01*
X038760Y011034D02*
X039210Y011034D01*
X039210Y011132D02*
X038677Y011132D01*
X038599Y011100D02*
X038401Y011100D01*
X038327Y011130D01*
X038224Y011027D01*
X038401Y011100D01*
X038599Y011100D01*
X038838Y011231D02*
X039210Y011231D01*
X039210Y011329D02*
X038929Y011329D01*
X038970Y011428D02*
X039210Y011428D01*
X039210Y011526D02*
X039000Y011526D01*
X039000Y011625D02*
X039210Y011625D01*
X039210Y011723D02*
X038990Y011723D01*
X038949Y011822D02*
X039210Y011822D01*
X039210Y011920D02*
X038887Y011920D01*
X038789Y012019D02*
X039210Y012019D01*
X039210Y012117D02*
X038641Y012117D01*
X038823Y012216D02*
X039210Y012216D01*
X039210Y012314D02*
X038921Y012314D01*
X038964Y012413D02*
X039210Y012413D01*
X039210Y012511D02*
X039000Y012511D01*
X039000Y012610D02*
X039210Y012610D01*
X039210Y012708D02*
X038996Y012708D01*
X038956Y012807D02*
X039210Y012807D01*
X039210Y012905D02*
X038902Y012905D01*
X038804Y013004D02*
X039210Y013004D01*
X039210Y013102D02*
X038604Y013102D01*
X038396Y013102D02*
X037604Y013102D01*
X037396Y013102D02*
X034210Y013102D01*
X034210Y013004D02*
X037196Y013004D01*
X037098Y012905D02*
X034210Y012905D01*
X034210Y012807D02*
X037044Y012807D01*
X037004Y012708D02*
X034210Y012708D01*
X034210Y012610D02*
X037000Y012610D01*
X037000Y012511D02*
X034210Y012511D01*
X034210Y012413D02*
X037036Y012413D01*
X037079Y012314D02*
X034210Y012314D01*
X034210Y012216D02*
X037177Y012216D01*
X037211Y012019D02*
X034210Y012019D01*
X034210Y012117D02*
X037359Y012117D01*
X037641Y012117D02*
X038359Y012117D01*
X038211Y012019D02*
X037789Y012019D01*
X037887Y011920D02*
X038113Y011920D01*
X038051Y011822D02*
X037949Y011822D01*
X037990Y011723D02*
X038010Y011723D01*
X038000Y011699D02*
X038000Y011501D01*
X038000Y011699D01*
X038000Y011625D02*
X038000Y011625D01*
X038000Y011526D02*
X038000Y011526D01*
X038000Y011501D02*
X037927Y011324D01*
X038030Y011427D01*
X038000Y011501D01*
X037970Y011428D02*
X038030Y011428D01*
X037932Y011329D02*
X037929Y011329D01*
X038231Y011034D02*
X038240Y011034D01*
X037071Y011329D02*
X032993Y011329D01*
X032894Y011231D02*
X036834Y011231D01*
X036735Y011132D02*
X032796Y011132D01*
X032802Y011034D02*
X036637Y011034D01*
X036538Y010935D02*
X032900Y010935D01*
X032999Y010837D02*
X036440Y010837D01*
X036341Y010738D02*
X033020Y010738D01*
X033020Y010550D02*
X032550Y010550D01*
X032550Y010080D01*
X032715Y010080D01*
X033020Y010385D01*
X033020Y010550D01*
X033020Y010541D02*
X036144Y010541D01*
X036046Y010443D02*
X033020Y010443D01*
X032979Y010344D02*
X035947Y010344D01*
X035849Y010246D02*
X032881Y010246D01*
X032782Y010147D02*
X035750Y010147D01*
X035652Y010049D02*
X020210Y010049D01*
X020210Y009950D02*
X035553Y009950D01*
X035455Y009852D02*
X020210Y009852D01*
X020210Y009753D02*
X035356Y009753D01*
X035258Y009655D02*
X020210Y009655D01*
X020210Y009556D02*
X035159Y009556D01*
X035061Y009458D02*
X020210Y009458D01*
X020210Y009359D02*
X034962Y009359D01*
X034864Y009261D02*
X020210Y009261D01*
X020210Y009162D02*
X034765Y009162D01*
X034667Y009064D02*
X020210Y009064D01*
X020210Y008965D02*
X034568Y008965D01*
X034274Y008867D02*
X020210Y008867D01*
X020210Y008768D02*
X034176Y008768D01*
X034152Y008670D02*
X020210Y008670D01*
X020210Y008571D02*
X034152Y008571D01*
X034152Y008473D02*
X020210Y008473D01*
X020210Y008374D02*
X034234Y008374D01*
X034183Y008276D02*
X020210Y008276D01*
X020210Y008177D02*
X034152Y008177D01*
X034152Y008079D02*
X020210Y008079D01*
X020210Y007980D02*
X034152Y007980D01*
X034226Y007882D02*
X020210Y007882D01*
X020210Y007783D02*
X024372Y007783D01*
X024273Y007685D02*
X020210Y007685D01*
X020210Y007586D02*
X024175Y007586D01*
X024076Y007488D02*
X020210Y007488D01*
X020210Y007389D02*
X023978Y007389D01*
X023879Y007291D02*
X020210Y007291D01*
X020210Y007192D02*
X023781Y007192D01*
X023682Y007094D02*
X020210Y007094D01*
X020210Y006995D02*
X023584Y006995D01*
X023485Y006897D02*
X020210Y006897D01*
X020210Y006798D02*
X023387Y006798D01*
X023288Y006700D02*
X020210Y006700D01*
X020296Y006601D02*
X023190Y006601D01*
X023091Y006503D02*
X020394Y006503D01*
X020493Y006404D02*
X022812Y006404D01*
X022713Y006306D02*
X022091Y006306D01*
X022190Y006207D02*
X022652Y006207D01*
X022652Y006109D02*
X022288Y006109D01*
X022387Y006010D02*
X022652Y006010D01*
X022696Y005912D02*
X022485Y005912D01*
X022584Y005813D02*
X022795Y005813D01*
X022682Y005715D02*
X023152Y005715D01*
X023152Y005616D02*
X022710Y005616D01*
X022710Y005518D02*
X023152Y005518D01*
X023189Y005419D02*
X022710Y005419D01*
X022710Y005321D02*
X023287Y005321D01*
X023353Y005124D02*
X022710Y005124D01*
X022710Y005222D02*
X023652Y005222D01*
X023647Y005124D02*
X023652Y005124D01*
X023713Y005321D02*
X023728Y005321D01*
X023811Y005419D02*
X023827Y005419D01*
X023848Y005518D02*
X024106Y005518D01*
X024205Y005616D02*
X023848Y005616D01*
X023926Y005715D02*
X024303Y005715D01*
X024402Y005813D02*
X024024Y005813D01*
X024123Y005912D02*
X024500Y005912D01*
X024599Y006010D02*
X024221Y006010D01*
X024320Y006109D02*
X024697Y006109D01*
X024796Y006207D02*
X024418Y006207D01*
X024517Y006306D02*
X024894Y006306D01*
X024993Y006404D02*
X024615Y006404D01*
X024714Y006503D02*
X025091Y006503D01*
X025190Y006601D02*
X024812Y006601D01*
X024911Y006700D02*
X025288Y006700D01*
X025387Y006798D02*
X025009Y006798D01*
X025000Y007100D02*
X023500Y005600D01*
X023221Y005813D02*
X023205Y005813D01*
X023304Y005912D02*
X023319Y005912D01*
X023348Y006010D02*
X023599Y006010D01*
X023697Y006109D02*
X023348Y006109D01*
X023418Y006207D02*
X023796Y006207D01*
X023894Y006306D02*
X023517Y006306D01*
X023615Y006404D02*
X023993Y006404D01*
X024091Y006503D02*
X023714Y006503D01*
X023812Y006601D02*
X024190Y006601D01*
X024288Y006700D02*
X023911Y006700D01*
X024009Y006798D02*
X024387Y006798D01*
X024485Y006897D02*
X024108Y006897D01*
X024206Y006995D02*
X024584Y006995D01*
X024682Y007094D02*
X024305Y007094D01*
X024403Y007192D02*
X024781Y007192D01*
X024879Y007291D02*
X024502Y007291D01*
X024600Y007389D02*
X034992Y007389D01*
X035500Y007100D02*
X035000Y006600D01*
X034213Y006306D02*
X026787Y006306D01*
X026848Y006207D02*
X034152Y006207D01*
X034152Y006109D02*
X026848Y006109D01*
X026848Y006010D02*
X034152Y006010D01*
X034196Y005912D02*
X026804Y005912D01*
X026720Y005813D02*
X027803Y005813D01*
X027704Y005715D02*
X026720Y005715D01*
X026720Y005616D02*
X027606Y005616D01*
X027507Y005518D02*
X026720Y005518D01*
X026720Y005419D02*
X027409Y005419D01*
X027310Y005321D02*
X026720Y005321D01*
X026720Y005222D02*
X027237Y005222D01*
X027210Y005124D02*
X026720Y005124D01*
X026839Y005025D02*
X027161Y005025D01*
X027063Y004927D02*
X026937Y004927D01*
X026990Y004828D02*
X027010Y004828D01*
X026500Y004600D02*
X026500Y006100D01*
X025500Y005600D02*
X025500Y004600D01*
X024000Y005100D02*
X025500Y006600D01*
X024500Y007600D02*
X023000Y006100D01*
X022839Y005025D02*
X023161Y005025D01*
X023063Y004927D02*
X022937Y004927D01*
X022990Y004828D02*
X023010Y004828D01*
X018536Y002267D02*
X018130Y002267D01*
X018087Y002310D02*
X014964Y002310D01*
X015040Y002493D01*
X015040Y002707D01*
X014958Y002906D01*
X014806Y003058D01*
X014607Y003140D01*
X014393Y003140D01*
X014194Y003058D01*
X014042Y002906D01*
X013960Y002707D01*
X013960Y002493D01*
X014036Y002310D01*
X013837Y002310D01*
X013460Y002687D01*
X013337Y002810D01*
X008413Y002810D01*
X008290Y002687D01*
X008290Y002687D01*
X007413Y001810D01*
X007214Y001810D01*
X007290Y001993D01*
X007290Y002207D01*
X007250Y002303D01*
X007837Y002890D01*
X012337Y002890D01*
X012587Y003140D01*
X012710Y003263D01*
X012710Y004102D01*
X012806Y004142D01*
X012958Y004294D01*
X013000Y004396D01*
X013042Y004294D01*
X013194Y004142D01*
X013393Y004060D01*
X013607Y004060D01*
X013806Y004142D01*
X013958Y004294D01*
X014011Y004422D01*
X014018Y004400D01*
X014055Y004327D01*
X014103Y004261D01*
X014161Y004203D01*
X014227Y004155D01*
X014300Y004118D01*
X014378Y004093D01*
X014450Y004081D01*
X014450Y004550D01*
X014550Y004550D01*
X014550Y004081D01*
X014622Y004093D01*
X014700Y004118D01*
X014773Y004155D01*
X014839Y004203D01*
X014897Y004261D01*
X014945Y004327D01*
X014982Y004400D01*
X014989Y004422D01*
X015042Y004294D01*
X015194Y004142D01*
X015393Y004060D01*
X015607Y004060D01*
X015806Y004142D01*
X015958Y004294D01*
X016000Y004396D01*
X016042Y004294D01*
X016194Y004142D01*
X016393Y004060D01*
X016607Y004060D01*
X016806Y004142D01*
X016958Y004294D01*
X017000Y004396D01*
X017042Y004294D01*
X017194Y004142D01*
X017393Y004060D01*
X017607Y004060D01*
X017806Y004142D01*
X017958Y004294D01*
X018000Y004396D01*
X018042Y004294D01*
X018194Y004142D01*
X018290Y004102D01*
X018290Y002513D01*
X018413Y002390D01*
X018702Y002101D01*
X018607Y002140D01*
X018393Y002140D01*
X018297Y002100D01*
X018210Y002187D01*
X018087Y002310D01*
X018228Y002169D02*
X018635Y002169D01*
X018438Y002366D02*
X014987Y002366D01*
X015028Y002464D02*
X018339Y002464D01*
X018290Y002563D02*
X015040Y002563D01*
X015040Y002661D02*
X018290Y002661D01*
X018290Y002760D02*
X015018Y002760D01*
X014978Y002858D02*
X018290Y002858D01*
X018290Y002957D02*
X014907Y002957D01*
X014809Y003055D02*
X018290Y003055D01*
X018290Y003154D02*
X012600Y003154D01*
X012502Y003055D02*
X014191Y003055D01*
X014093Y002957D02*
X012403Y002957D01*
X012699Y003252D02*
X018290Y003252D01*
X018290Y003351D02*
X012710Y003351D01*
X012710Y003449D02*
X018290Y003449D01*
X018290Y003548D02*
X012710Y003548D01*
X012710Y003646D02*
X018290Y003646D01*
X018290Y003745D02*
X012710Y003745D01*
X012710Y003843D02*
X018290Y003843D01*
X018290Y003942D02*
X012710Y003942D01*
X012710Y004040D02*
X018290Y004040D01*
X018203Y004139D02*
X017797Y004139D01*
X017901Y004237D02*
X018099Y004237D01*
X018025Y004336D02*
X017975Y004336D01*
X017203Y004139D02*
X016797Y004139D01*
X016901Y004237D02*
X017099Y004237D01*
X017025Y004336D02*
X016975Y004336D01*
X016203Y004139D02*
X015797Y004139D01*
X015901Y004237D02*
X016099Y004237D01*
X016025Y004336D02*
X015975Y004336D01*
X015203Y004139D02*
X014740Y004139D01*
X014872Y004237D02*
X015099Y004237D01*
X015025Y004336D02*
X014949Y004336D01*
X014550Y004336D02*
X014450Y004336D01*
X014450Y004434D02*
X014550Y004434D01*
X014550Y004533D02*
X014450Y004533D01*
X014450Y004650D02*
X014450Y005119D01*
X014378Y005107D01*
X014300Y005082D01*
X014227Y005045D01*
X014161Y004997D01*
X014103Y004939D01*
X014055Y004873D01*
X014018Y004800D01*
X014011Y004778D01*
X013958Y004906D01*
X013806Y005058D01*
X013770Y005073D01*
X014087Y005390D01*
X014210Y005513D01*
X014210Y010136D01*
X014393Y010060D01*
X014607Y010060D01*
X014790Y010136D01*
X014790Y005032D01*
X014773Y005045D01*
X014700Y005082D01*
X014622Y005107D01*
X014550Y005119D01*
X014550Y004650D01*
X014450Y004650D01*
X014450Y004730D02*
X014550Y004730D01*
X014550Y004828D02*
X014450Y004828D01*
X014450Y004927D02*
X014550Y004927D01*
X014550Y005025D02*
X014450Y005025D01*
X014200Y005025D02*
X013839Y005025D01*
X013820Y005124D02*
X014790Y005124D01*
X014790Y005222D02*
X013919Y005222D01*
X014017Y005321D02*
X014790Y005321D01*
X014790Y005419D02*
X014116Y005419D01*
X014087Y005390D02*
X014087Y005390D01*
X014210Y005518D02*
X014790Y005518D01*
X014790Y005616D02*
X014210Y005616D01*
X014210Y005715D02*
X014790Y005715D01*
X014790Y005813D02*
X014210Y005813D01*
X014210Y005912D02*
X014790Y005912D01*
X014790Y006010D02*
X014210Y006010D01*
X014210Y006109D02*
X014790Y006109D01*
X014790Y006207D02*
X014210Y006207D01*
X014210Y006306D02*
X014790Y006306D01*
X014790Y006404D02*
X014210Y006404D01*
X014210Y006503D02*
X014790Y006503D01*
X014790Y006601D02*
X014210Y006601D01*
X014210Y006700D02*
X014790Y006700D01*
X014790Y006798D02*
X014210Y006798D01*
X014210Y006897D02*
X014790Y006897D01*
X014790Y006995D02*
X014210Y006995D01*
X014210Y007094D02*
X014790Y007094D01*
X014790Y007192D02*
X014210Y007192D01*
X014210Y007291D02*
X014790Y007291D01*
X014790Y007389D02*
X014210Y007389D01*
X014210Y007488D02*
X014790Y007488D01*
X014790Y007586D02*
X014210Y007586D01*
X014210Y007685D02*
X014790Y007685D01*
X014790Y007783D02*
X014210Y007783D01*
X014210Y007882D02*
X014790Y007882D01*
X014790Y007980D02*
X014210Y007980D01*
X014210Y008079D02*
X014790Y008079D01*
X014790Y008177D02*
X014210Y008177D01*
X014210Y008276D02*
X014790Y008276D01*
X014790Y008374D02*
X014210Y008374D01*
X014210Y008473D02*
X014790Y008473D01*
X014790Y008571D02*
X014210Y008571D01*
X014210Y008670D02*
X014790Y008670D01*
X014790Y008768D02*
X014210Y008768D01*
X014210Y008867D02*
X014790Y008867D01*
X014790Y008965D02*
X014210Y008965D01*
X014210Y009064D02*
X014790Y009064D01*
X014790Y009162D02*
X014210Y009162D01*
X014210Y009261D02*
X014790Y009261D01*
X014790Y009359D02*
X014210Y009359D01*
X014210Y009458D02*
X014790Y009458D01*
X014790Y009556D02*
X014210Y009556D01*
X014210Y009655D02*
X014790Y009655D01*
X014790Y009753D02*
X014210Y009753D01*
X014210Y009852D02*
X014790Y009852D01*
X014790Y009950D02*
X014210Y009950D01*
X014210Y010049D02*
X014790Y010049D01*
X014500Y010600D02*
X014500Y013100D01*
X013790Y013102D02*
X007412Y013102D01*
X007314Y013004D02*
X013790Y013004D01*
X013790Y012905D02*
X007215Y012905D01*
X007164Y012854D02*
X007562Y013252D01*
X007644Y013252D01*
X007848Y013456D01*
X007848Y013744D01*
X007644Y013948D01*
X007356Y013948D01*
X007152Y013744D01*
X007152Y013662D01*
X006880Y013390D01*
X005442Y013390D01*
X005336Y013346D01*
X005254Y013264D01*
X004380Y012390D01*
X001942Y012390D01*
X001836Y012346D01*
X001754Y012264D01*
X001254Y011764D01*
X001210Y011658D01*
X001210Y009542D01*
X001254Y009436D01*
X001336Y009354D01*
X001836Y008854D01*
X001942Y008810D01*
X002036Y008810D01*
X002042Y008794D01*
X002194Y008642D01*
X002393Y008560D01*
X002607Y008560D01*
X002806Y008642D01*
X002958Y008794D01*
X003040Y008993D01*
X003040Y009207D01*
X002958Y009406D01*
X002806Y009558D01*
X002704Y009600D01*
X002806Y009642D01*
X002958Y009794D01*
X002964Y009810D01*
X004058Y009810D01*
X004164Y009854D01*
X006562Y012252D01*
X006644Y012252D01*
X006848Y012456D01*
X006848Y012744D01*
X006782Y012810D01*
X007058Y012810D01*
X007164Y012854D01*
X006848Y012708D02*
X013790Y012708D01*
X013790Y012610D02*
X006848Y012610D01*
X006848Y012511D02*
X013790Y012511D01*
X013790Y012413D02*
X013680Y012413D01*
X013644Y012448D02*
X013356Y012448D01*
X013152Y012244D01*
X013152Y011956D01*
X013280Y011828D01*
X013280Y011093D01*
X013194Y011058D01*
X013042Y010906D01*
X013000Y010804D01*
X012958Y010906D01*
X012806Y011058D01*
X012607Y011140D01*
X012393Y011140D01*
X012194Y011058D01*
X012042Y010906D01*
X012000Y010804D01*
X011958Y010906D01*
X011806Y011058D01*
X011607Y011140D01*
X011393Y011140D01*
X011194Y011058D01*
X011042Y010906D01*
X011000Y010804D01*
X010958Y010906D01*
X010806Y011058D01*
X010607Y011140D01*
X010393Y011140D01*
X010194Y011058D01*
X010042Y010906D01*
X010000Y010804D01*
X009958Y010906D01*
X009806Y011058D01*
X009607Y011140D01*
X009393Y011140D01*
X009194Y011058D01*
X009042Y010906D01*
X009000Y010804D01*
X008958Y010906D01*
X008806Y011058D01*
X008607Y011140D01*
X008393Y011140D01*
X008194Y011058D01*
X008042Y010906D01*
X008000Y010804D01*
X007958Y010906D01*
X007806Y011058D01*
X007607Y011140D01*
X007393Y011140D01*
X007194Y011058D01*
X007042Y010906D01*
X007000Y010804D01*
X006958Y010906D01*
X006806Y011058D01*
X006607Y011140D01*
X006393Y011140D01*
X006194Y011058D01*
X006042Y010906D01*
X005960Y010707D01*
X005960Y010493D01*
X006042Y010294D01*
X006194Y010142D01*
X006393Y010060D01*
X006607Y010060D01*
X006806Y010142D01*
X006958Y010294D01*
X007000Y010396D01*
X007042Y010294D01*
X007194Y010142D01*
X007393Y010060D01*
X007607Y010060D01*
X007806Y010142D01*
X007958Y010294D01*
X008000Y010396D01*
X008042Y010294D01*
X008194Y010142D01*
X008393Y010060D01*
X008607Y010060D01*
X008806Y010142D01*
X008958Y010294D01*
X009000Y010396D01*
X009042Y010294D01*
X009194Y010142D01*
X009393Y010060D01*
X009607Y010060D01*
X009806Y010142D01*
X009958Y010294D01*
X010000Y010396D01*
X010042Y010294D01*
X010194Y010142D01*
X010393Y010060D01*
X010607Y010060D01*
X010806Y010142D01*
X010958Y010294D01*
X011000Y010396D01*
X011042Y010294D01*
X011194Y010142D01*
X011393Y010060D01*
X011607Y010060D01*
X011806Y010142D01*
X011958Y010294D01*
X012000Y010396D01*
X012042Y010294D01*
X012194Y010142D01*
X012393Y010060D01*
X012607Y010060D01*
X012806Y010142D01*
X012958Y010294D01*
X013000Y010396D01*
X013042Y010294D01*
X013194Y010142D01*
X013393Y010060D01*
X013607Y010060D01*
X013790Y010136D01*
X013790Y005687D01*
X013423Y005320D01*
X011909Y005320D01*
X011693Y005104D01*
X011607Y005140D01*
X011393Y005140D01*
X011194Y005058D01*
X011042Y004906D01*
X011000Y004804D01*
X010958Y004906D01*
X010806Y005058D01*
X010710Y005098D01*
X010710Y008318D01*
X010848Y008456D01*
X010848Y008744D01*
X010644Y008948D01*
X010356Y008948D01*
X010152Y008744D01*
X010152Y008456D01*
X010290Y008318D01*
X010290Y005098D01*
X010194Y005058D01*
X010042Y004906D01*
X010000Y004804D01*
X009958Y004906D01*
X009806Y005058D01*
X009710Y005098D01*
X009710Y007818D01*
X009848Y007956D01*
X009848Y008244D01*
X009644Y008448D01*
X009356Y008448D01*
X009152Y008244D01*
X009152Y007956D01*
X009290Y007818D01*
X009290Y005098D01*
X009194Y005058D01*
X009042Y004906D01*
X009000Y004804D01*
X008958Y004906D01*
X008806Y005058D01*
X008720Y005093D01*
X008720Y005828D01*
X008848Y005956D01*
X008848Y006244D01*
X008644Y006448D01*
X008356Y006448D01*
X008152Y006244D01*
X008152Y005956D01*
X008280Y005828D01*
X008280Y005093D01*
X008194Y005058D01*
X008042Y004906D01*
X008000Y004804D01*
X007958Y004906D01*
X007806Y005058D01*
X007710Y005098D01*
X007710Y005318D01*
X007848Y005456D01*
X007848Y005744D01*
X007644Y005948D01*
X007356Y005948D01*
X007152Y005744D01*
X007152Y005456D01*
X007290Y005318D01*
X007290Y005098D01*
X007194Y005058D01*
X007042Y004906D01*
X007000Y004804D01*
X006958Y004906D01*
X006806Y005058D01*
X006607Y005140D01*
X006393Y005140D01*
X006194Y005058D01*
X006042Y004906D01*
X005960Y004707D01*
X005960Y004493D01*
X006042Y004294D01*
X006194Y004142D01*
X006393Y004060D01*
X006607Y004060D01*
X006806Y004142D01*
X006958Y004294D01*
X007000Y004396D01*
X007042Y004294D01*
X007194Y004142D01*
X007393Y004060D01*
X007607Y004060D01*
X007806Y004142D01*
X007958Y004294D01*
X008000Y004396D01*
X008042Y004294D01*
X008194Y004142D01*
X008393Y004060D01*
X008607Y004060D01*
X008806Y004142D01*
X008958Y004294D01*
X009000Y004396D01*
X009042Y004294D01*
X009194Y004142D01*
X009393Y004060D01*
X009607Y004060D01*
X009806Y004142D01*
X009958Y004294D01*
X010000Y004396D01*
X010042Y004294D01*
X010194Y004142D01*
X010290Y004102D01*
X010290Y003687D01*
X010163Y003560D01*
X004913Y003560D01*
X004790Y003437D01*
X004540Y003187D01*
X004540Y002598D01*
X004444Y002558D01*
X004292Y002406D01*
X004210Y002207D01*
X004210Y001993D01*
X004286Y001810D01*
X003100Y001810D01*
X003100Y002882D01*
X003196Y002922D01*
X003348Y003074D01*
X003430Y003273D01*
X003430Y003487D01*
X003348Y003686D01*
X003196Y003838D01*
X002997Y003920D01*
X002783Y003920D01*
X002584Y003838D01*
X002432Y003686D01*
X002350Y003487D01*
X002350Y003273D01*
X002432Y003074D01*
X002584Y002922D01*
X002680Y002882D01*
X002680Y001318D01*
X002584Y001278D01*
X002432Y001126D01*
X002350Y000927D01*
X002350Y000713D01*
X002432Y000514D01*
X002584Y000362D01*
X002614Y000350D01*
X001333Y000350D01*
X001383Y000375D01*
X001449Y000423D01*
X001507Y000481D01*
X001555Y000547D01*
X001592Y000620D01*
X001617Y000698D01*
X001629Y000770D01*
X001160Y000770D01*
X001160Y000870D01*
X001060Y000870D01*
X001060Y001339D01*
X000988Y001327D01*
X000910Y001302D01*
X000837Y001265D01*
X000771Y001217D01*
X000750Y001195D01*
X000750Y003005D01*
X000771Y002983D01*
X000837Y002935D01*
X000910Y002898D01*
X000988Y002873D01*
X001060Y002861D01*
X001060Y003330D01*
X001160Y003330D01*
X001160Y003430D01*
X001060Y003430D01*
X001060Y003899D01*
X000988Y003887D01*
X000910Y003862D01*
X000837Y003825D01*
X000771Y003777D01*
X000750Y003755D01*
X000750Y021850D01*
X010758Y021850D01*
X010652Y021744D01*
X010652Y021456D01*
X010856Y021252D01*
X011144Y021252D01*
X011202Y021310D01*
X011967Y021310D01*
X011755Y021098D01*
X011621Y020775D01*
X011621Y020425D01*
X011755Y020102D01*
X012002Y019855D01*
X012325Y019721D01*
X012675Y019721D01*
X012998Y019855D01*
X013245Y020102D01*
X013379Y020425D01*
X013379Y020448D01*
X013442Y020294D01*
X013594Y020142D01*
X013793Y020060D01*
X014007Y020060D01*
X014103Y020100D01*
X015152Y019051D01*
X015152Y018956D01*
X015356Y018752D01*
X015644Y018752D01*
X015690Y018798D01*
X015690Y015587D01*
X013790Y013687D01*
X013790Y012302D01*
X013644Y012448D01*
X013778Y012314D02*
X013790Y012314D01*
X013500Y012100D02*
X013500Y010600D01*
X013013Y010837D02*
X012987Y010837D01*
X012929Y010935D02*
X013071Y010935D01*
X013170Y011034D02*
X012830Y011034D01*
X012627Y011132D02*
X013280Y011132D01*
X013280Y011231D02*
X005541Y011231D01*
X005639Y011329D02*
X013280Y011329D01*
X013280Y011428D02*
X005738Y011428D01*
X005836Y011526D02*
X013280Y011526D01*
X013280Y011625D02*
X005935Y011625D01*
X006033Y011723D02*
X013280Y011723D01*
X013280Y011822D02*
X006132Y011822D01*
X006230Y011920D02*
X013188Y011920D01*
X013152Y012019D02*
X006329Y012019D01*
X006427Y012117D02*
X013152Y012117D01*
X013152Y012216D02*
X006526Y012216D01*
X006706Y012314D02*
X013222Y012314D01*
X013320Y012413D02*
X006805Y012413D01*
X006786Y012807D02*
X013790Y012807D01*
X013566Y013202D02*
X013393Y013130D01*
X012607Y013130D01*
X012434Y013202D01*
X012302Y013334D01*
X012230Y013507D01*
X012230Y013693D01*
X007848Y013693D01*
X007848Y013595D02*
X012230Y013595D01*
X012230Y013693D02*
X012302Y013866D01*
X012434Y013998D01*
X012607Y014070D01*
X013393Y014070D01*
X013566Y013998D01*
X013698Y013866D01*
X013770Y013693D01*
X013796Y013693D01*
X013770Y013693D02*
X013770Y013507D01*
X013698Y013334D01*
X013566Y013202D01*
X013564Y013201D02*
X013790Y013201D01*
X013790Y013299D02*
X013664Y013299D01*
X013725Y013398D02*
X013790Y013398D01*
X013790Y013496D02*
X013766Y013496D01*
X013770Y013595D02*
X013790Y013595D01*
X013729Y013792D02*
X013895Y013792D01*
X013993Y013890D02*
X013675Y013890D01*
X013576Y013989D02*
X014092Y013989D01*
X014190Y014087D02*
X003778Y014087D01*
X003795Y014081D02*
X003720Y014106D01*
X003642Y014118D01*
X003300Y014118D01*
X003300Y013666D01*
X003200Y013666D01*
X003200Y014118D01*
X002858Y014118D01*
X002780Y014106D01*
X002705Y014081D01*
X002634Y014046D01*
X002570Y013999D01*
X002514Y013943D01*
X002468Y013879D01*
X002432Y013809D01*
X002407Y013733D01*
X002397Y013666D01*
X003200Y013666D01*
X003200Y013566D01*
X002397Y013566D01*
X002407Y013498D01*
X002432Y013423D01*
X002468Y013352D01*
X002514Y013288D01*
X002570Y013232D01*
X002634Y013186D01*
X002705Y013150D01*
X002780Y013126D01*
X002858Y013113D01*
X003200Y013113D01*
X003200Y013566D01*
X003300Y013566D01*
X003300Y013666D01*
X004103Y013666D01*
X004093Y013733D01*
X004068Y013809D01*
X004032Y013879D01*
X003986Y013943D01*
X003930Y013999D01*
X003866Y014046D01*
X003795Y014081D01*
X003940Y013989D02*
X012424Y013989D01*
X012325Y013890D02*
X007702Y013890D01*
X007801Y013792D02*
X012271Y013792D01*
X012234Y013496D02*
X007848Y013496D01*
X007790Y013398D02*
X012275Y013398D01*
X012336Y013299D02*
X007691Y013299D01*
X007511Y013201D02*
X012436Y013201D01*
X012595Y014161D02*
X012665Y014150D01*
X012950Y014150D01*
X012950Y014550D01*
X013050Y014550D01*
X013050Y014650D01*
X012950Y014650D01*
X012950Y015050D01*
X012665Y015050D01*
X012595Y015039D01*
X012527Y015017D01*
X012464Y014985D01*
X012407Y014943D01*
X012357Y014893D01*
X012315Y014836D01*
X012283Y014773D01*
X012261Y014705D01*
X012252Y014650D01*
X012950Y014650D01*
X012950Y014550D01*
X012252Y014550D01*
X012261Y014495D01*
X012283Y014427D01*
X012315Y014364D01*
X012357Y014307D01*
X012407Y014257D01*
X012464Y014215D01*
X012527Y014183D01*
X012595Y014161D01*
X012522Y014186D02*
X000750Y014186D01*
X000750Y014284D02*
X005824Y014284D01*
X005856Y014252D02*
X005652Y014456D01*
X005652Y014744D01*
X005710Y014802D01*
X005710Y016281D01*
X004369Y016293D01*
X004001Y015925D01*
X004045Y015880D01*
X004125Y015688D01*
X004125Y015480D01*
X004045Y015288D01*
X003898Y015141D01*
X003706Y015062D01*
X002794Y015062D01*
X002602Y015141D01*
X002455Y015288D01*
X002375Y015480D01*
X002375Y015688D01*
X002455Y015880D01*
X002602Y016027D01*
X002794Y016107D01*
X003362Y016107D01*
X003977Y016722D01*
X003988Y016749D01*
X003989Y016749D01*
X003990Y016751D01*
X004030Y016790D01*
X004070Y016830D01*
X004071Y016831D01*
X004072Y016832D01*
X004124Y016853D01*
X004177Y016874D01*
X004178Y016874D01*
X004179Y016875D01*
X004236Y016874D01*
X004292Y016874D01*
X004293Y016874D01*
X004399Y016873D01*
X004333Y016900D01*
X004231Y016959D01*
X004137Y017031D01*
X004053Y017115D01*
X003981Y017208D01*
X003922Y017311D01*
X003877Y017420D01*
X003847Y017534D01*
X003831Y017651D01*
X003831Y017660D01*
X004682Y017660D01*
X004682Y017760D01*
X003831Y017760D01*
X003831Y017769D01*
X003847Y017886D01*
X003877Y018001D01*
X003922Y018110D01*
X003981Y018212D01*
X004053Y018306D01*
X004137Y018389D01*
X004231Y018461D01*
X004333Y018520D01*
X004442Y018565D01*
X004556Y018596D01*
X004673Y018611D01*
X004682Y018611D01*
X004682Y017760D01*
X004782Y017760D01*
X004782Y018611D01*
X004791Y018611D01*
X004908Y018596D01*
X005023Y018565D01*
X005132Y018520D01*
X005234Y018461D01*
X005328Y018389D01*
X005411Y018306D01*
X005483Y018212D01*
X005542Y018110D01*
X005587Y018001D01*
X005618Y017886D01*
X005633Y017769D01*
X005633Y017760D01*
X004782Y017760D01*
X004782Y017660D01*
X005633Y017660D01*
X005633Y017651D01*
X005618Y017534D01*
X005587Y017420D01*
X005542Y017311D01*
X005483Y017208D01*
X005411Y017115D01*
X005328Y017031D01*
X005234Y016959D01*
X005132Y016900D01*
X005051Y016867D01*
X005710Y016861D01*
X005710Y018600D01*
X005655Y018600D01*
X005288Y018752D01*
X005007Y019034D01*
X004854Y019401D01*
X004854Y019799D01*
X005007Y020166D01*
X005288Y020448D01*
X005655Y020600D01*
X006053Y020600D01*
X006421Y020448D01*
X006478Y020390D01*
X009558Y020390D01*
X009664Y020346D01*
X009746Y020264D01*
X010140Y019871D01*
X010184Y019764D01*
X010184Y019446D01*
X010275Y019355D01*
X010344Y019190D01*
X010344Y019010D01*
X010275Y018845D01*
X010149Y018719D01*
X009983Y018650D01*
X009804Y018650D01*
X009639Y018719D01*
X009512Y018845D01*
X009488Y018903D01*
X009474Y018875D01*
X009434Y018820D01*
X009386Y018772D01*
X009332Y018732D01*
X009271Y018702D01*
X009207Y018681D01*
X009140Y018670D01*
X009135Y018670D01*
X009135Y019071D01*
X009078Y019071D01*
X009078Y018670D01*
X009072Y018670D01*
X009006Y018681D01*
X008941Y018702D01*
X008881Y018732D01*
X008826Y018772D01*
X008778Y018820D01*
X008739Y018875D01*
X008708Y018935D01*
X008687Y018999D01*
X008676Y019066D01*
X008676Y019071D01*
X009078Y019071D01*
X009078Y019129D01*
X009078Y019530D01*
X009072Y019530D01*
X009006Y019519D01*
X008941Y019498D01*
X008881Y019468D01*
X008826Y019428D01*
X008778Y019380D01*
X008739Y019325D01*
X008708Y019265D01*
X008687Y019201D01*
X008676Y019134D01*
X008676Y019129D01*
X009078Y019129D01*
X009135Y019129D01*
X009135Y019530D01*
X009140Y019530D01*
X009207Y019519D01*
X009271Y019498D01*
X009332Y019468D01*
X009386Y019428D01*
X009434Y019380D01*
X009474Y019325D01*
X009488Y019297D01*
X009512Y019355D01*
X009604Y019446D01*
X009604Y019586D01*
X009380Y019810D01*
X006850Y019810D01*
X006854Y019799D01*
X006854Y019401D01*
X006702Y019034D01*
X006421Y018752D01*
X006290Y018698D01*
X006290Y016625D01*
X006291Y016624D01*
X006290Y016567D01*
X006290Y014802D01*
X006348Y014744D01*
X006348Y014456D01*
X006144Y014252D01*
X005856Y014252D01*
X005725Y014383D02*
X000750Y014383D01*
X000750Y014481D02*
X005652Y014481D01*
X005652Y014580D02*
X000750Y014580D01*
X000750Y014678D02*
X005652Y014678D01*
X005684Y014777D02*
X000750Y014777D01*
X000750Y014875D02*
X005710Y014875D01*
X005710Y014974D02*
X000750Y014974D01*
X000750Y015072D02*
X002769Y015072D01*
X002572Y015171D02*
X000750Y015171D01*
X000750Y015269D02*
X002474Y015269D01*
X002422Y015368D02*
X000750Y015368D01*
X000750Y015466D02*
X002381Y015466D01*
X002375Y015565D02*
X000750Y015565D01*
X000750Y015663D02*
X002375Y015663D01*
X002405Y015762D02*
X000750Y015762D01*
X000750Y015860D02*
X002446Y015860D01*
X002533Y015959D02*
X000750Y015959D01*
X000750Y016057D02*
X002674Y016057D01*
X003411Y016156D02*
X000750Y016156D01*
X000750Y016254D02*
X003510Y016254D01*
X003608Y016353D02*
X000750Y016353D01*
X000750Y016451D02*
X003707Y016451D01*
X003805Y016550D02*
X000750Y016550D01*
X000750Y016648D02*
X003904Y016648D01*
X003988Y016747D02*
X000750Y016747D01*
X000750Y016845D02*
X004106Y016845D01*
X004258Y016944D02*
X000750Y016944D01*
X000750Y017042D02*
X004126Y017042D01*
X004034Y017141D02*
X000750Y017141D01*
X000750Y017239D02*
X003964Y017239D01*
X003911Y017338D02*
X000750Y017338D01*
X000750Y017436D02*
X003873Y017436D01*
X003846Y017535D02*
X000750Y017535D01*
X000750Y017633D02*
X003833Y017633D01*
X003839Y017830D02*
X000750Y017830D01*
X000750Y017732D02*
X004682Y017732D01*
X004682Y017830D02*
X004782Y017830D01*
X004782Y017732D02*
X005710Y017732D01*
X005710Y017830D02*
X005625Y017830D01*
X005607Y017929D02*
X005710Y017929D01*
X005710Y018027D02*
X005576Y018027D01*
X005533Y018126D02*
X005710Y018126D01*
X005710Y018224D02*
X005474Y018224D01*
X005394Y018323D02*
X005710Y018323D01*
X005710Y018421D02*
X005286Y018421D01*
X005133Y018520D02*
X005710Y018520D01*
X005612Y018618D02*
X000750Y018618D01*
X000750Y018520D02*
X004332Y018520D01*
X004178Y018421D02*
X000750Y018421D01*
X000750Y018323D02*
X004070Y018323D01*
X003991Y018224D02*
X000750Y018224D01*
X000750Y018126D02*
X003931Y018126D01*
X003888Y018027D02*
X000750Y018027D01*
X000750Y017929D02*
X003858Y017929D01*
X004682Y017929D02*
X004782Y017929D01*
X004782Y018027D02*
X004682Y018027D01*
X004682Y018126D02*
X004782Y018126D01*
X004782Y018224D02*
X004682Y018224D01*
X004682Y018323D02*
X004782Y018323D01*
X004782Y018421D02*
X004682Y018421D01*
X004682Y018520D02*
X004782Y018520D01*
X005127Y018914D02*
X003979Y018914D01*
X003989Y018921D02*
X004073Y019005D01*
X004145Y019098D01*
X004204Y019201D01*
X004249Y019310D01*
X004279Y019424D01*
X004295Y019541D01*
X004295Y019550D01*
X003444Y019550D01*
X003444Y019650D01*
X004295Y019650D01*
X004295Y019659D01*
X004279Y019776D01*
X004249Y019890D01*
X004204Y019999D01*
X004145Y020102D01*
X004073Y020195D01*
X003989Y020279D01*
X003895Y020351D01*
X003793Y020410D01*
X003684Y020455D01*
X003570Y020486D01*
X003453Y020501D01*
X003444Y020501D01*
X003444Y019650D01*
X003344Y019650D01*
X003344Y020501D01*
X003335Y020501D01*
X003218Y020486D01*
X003103Y020455D01*
X002994Y020410D01*
X002892Y020351D01*
X002798Y020279D01*
X002715Y020195D01*
X002643Y020102D01*
X002584Y019999D01*
X002539Y019890D01*
X002508Y019776D01*
X002493Y019659D01*
X002493Y019650D01*
X003344Y019650D01*
X003344Y019550D01*
X003444Y019550D01*
X003444Y018699D01*
X003453Y018699D01*
X003570Y018714D01*
X003684Y018745D01*
X003793Y018790D01*
X003895Y018849D01*
X003989Y018921D01*
X004078Y019012D02*
X005028Y019012D01*
X004975Y019111D02*
X004152Y019111D01*
X004207Y019209D02*
X004934Y019209D01*
X004893Y019308D02*
X004248Y019308D01*
X004275Y019406D02*
X004854Y019406D01*
X004854Y019505D02*
X004290Y019505D01*
X004289Y019702D02*
X004854Y019702D01*
X004855Y019800D02*
X004273Y019800D01*
X004245Y019899D02*
X004896Y019899D01*
X004936Y019997D02*
X004205Y019997D01*
X004148Y020096D02*
X004977Y020096D01*
X005034Y020194D02*
X004074Y020194D01*
X003972Y020293D02*
X005133Y020293D01*
X005231Y020391D02*
X003826Y020391D01*
X003541Y020490D02*
X005389Y020490D01*
X005627Y020588D02*
X000750Y020588D01*
X000750Y020490D02*
X003246Y020490D01*
X003344Y020490D02*
X003444Y020490D01*
X003444Y020391D02*
X003344Y020391D01*
X003344Y020293D02*
X003444Y020293D01*
X003444Y020194D02*
X003344Y020194D01*
X003344Y020096D02*
X003444Y020096D01*
X003444Y019997D02*
X003344Y019997D01*
X003344Y019899D02*
X003444Y019899D01*
X003444Y019800D02*
X003344Y019800D01*
X003344Y019702D02*
X003444Y019702D01*
X003444Y019603D02*
X004854Y019603D01*
X005225Y018815D02*
X003836Y018815D01*
X003579Y018717D02*
X005374Y018717D01*
X006290Y018618D02*
X015690Y018618D01*
X015690Y018520D02*
X006290Y018520D01*
X006290Y018421D02*
X015690Y018421D01*
X015690Y018323D02*
X006290Y018323D01*
X006290Y018224D02*
X015690Y018224D01*
X015690Y018126D02*
X006290Y018126D01*
X006290Y018027D02*
X015690Y018027D01*
X015690Y017929D02*
X006290Y017929D01*
X006290Y017830D02*
X015690Y017830D01*
X015690Y017732D02*
X006290Y017732D01*
X006290Y017633D02*
X015690Y017633D01*
X015690Y017535D02*
X006290Y017535D01*
X006290Y017436D02*
X015690Y017436D01*
X015690Y017338D02*
X006290Y017338D01*
X006290Y017239D02*
X015690Y017239D01*
X015690Y017141D02*
X006290Y017141D01*
X006290Y017042D02*
X015690Y017042D01*
X015690Y016944D02*
X006290Y016944D01*
X006290Y016845D02*
X015690Y016845D01*
X015690Y016747D02*
X006290Y016747D01*
X006290Y016648D02*
X015690Y016648D01*
X015690Y016550D02*
X006290Y016550D01*
X006290Y016451D02*
X015690Y016451D01*
X015690Y016353D02*
X006290Y016353D01*
X006290Y016254D02*
X015690Y016254D01*
X015690Y016156D02*
X006290Y016156D01*
X006290Y016057D02*
X012575Y016057D01*
X012607Y016070D02*
X012434Y015998D01*
X012302Y015866D01*
X012230Y015693D01*
X012230Y015507D01*
X012302Y015334D01*
X012434Y015202D01*
X012607Y015130D01*
X013393Y015130D01*
X013566Y015202D01*
X013698Y015334D01*
X013770Y015507D01*
X013770Y015693D01*
X013698Y015866D01*
X013566Y015998D01*
X013393Y016070D01*
X012607Y016070D01*
X012394Y015959D02*
X006290Y015959D01*
X006290Y015860D02*
X012299Y015860D01*
X012258Y015762D02*
X006290Y015762D01*
X006290Y015663D02*
X012230Y015663D01*
X012230Y015565D02*
X006290Y015565D01*
X006290Y015466D02*
X012247Y015466D01*
X012288Y015368D02*
X006290Y015368D01*
X006290Y015269D02*
X012366Y015269D01*
X012509Y015171D02*
X006290Y015171D01*
X006290Y015072D02*
X015175Y015072D01*
X015077Y014974D02*
X013551Y014974D01*
X013536Y014985D02*
X013473Y015017D01*
X013405Y015039D01*
X013335Y015050D01*
X013050Y015050D01*
X013050Y014650D01*
X013748Y014650D01*
X013739Y014705D01*
X013717Y014773D01*
X013685Y014836D01*
X013643Y014893D01*
X013593Y014943D01*
X013536Y014985D01*
X013656Y014875D02*
X014978Y014875D01*
X014880Y014777D02*
X013715Y014777D01*
X013743Y014678D02*
X014781Y014678D01*
X014683Y014580D02*
X013050Y014580D01*
X013050Y014550D02*
X013748Y014550D01*
X013739Y014495D01*
X013717Y014427D01*
X013685Y014364D01*
X013643Y014307D01*
X013593Y014257D01*
X013536Y014215D01*
X013473Y014183D01*
X013405Y014161D01*
X013335Y014150D01*
X013050Y014150D01*
X013050Y014550D01*
X013050Y014481D02*
X012950Y014481D01*
X012950Y014383D02*
X013050Y014383D01*
X013050Y014284D02*
X012950Y014284D01*
X012950Y014186D02*
X013050Y014186D01*
X013478Y014186D02*
X014289Y014186D01*
X014387Y014284D02*
X013620Y014284D01*
X013694Y014383D02*
X014486Y014383D01*
X014584Y014481D02*
X013735Y014481D01*
X013050Y014678D02*
X012950Y014678D01*
X012950Y014580D02*
X006348Y014580D01*
X006348Y014678D02*
X012257Y014678D01*
X012285Y014777D02*
X006316Y014777D01*
X006290Y014875D02*
X012344Y014875D01*
X012449Y014974D02*
X006290Y014974D01*
X005710Y015072D02*
X003731Y015072D01*
X003928Y015171D02*
X005710Y015171D01*
X005710Y015269D02*
X004026Y015269D01*
X004078Y015368D02*
X005710Y015368D01*
X005710Y015466D02*
X004119Y015466D01*
X004125Y015565D02*
X005710Y015565D01*
X005710Y015663D02*
X004125Y015663D01*
X004095Y015762D02*
X005710Y015762D01*
X005710Y015860D02*
X004054Y015860D01*
X004034Y015959D02*
X005710Y015959D01*
X005710Y016057D02*
X004133Y016057D01*
X004231Y016156D02*
X005710Y016156D01*
X005710Y016254D02*
X004330Y016254D01*
X005207Y016944D02*
X005710Y016944D01*
X005710Y017042D02*
X005339Y017042D01*
X005431Y017141D02*
X005710Y017141D01*
X005710Y017239D02*
X005501Y017239D01*
X005553Y017338D02*
X005710Y017338D01*
X005710Y017436D02*
X005592Y017436D01*
X005618Y017535D02*
X005710Y017535D01*
X005710Y017633D02*
X005631Y017633D01*
X006334Y018717D02*
X008912Y018717D01*
X008783Y018815D02*
X006483Y018815D01*
X006582Y018914D02*
X008719Y018914D01*
X008685Y019012D02*
X006680Y019012D01*
X006734Y019111D02*
X009078Y019111D01*
X009078Y019209D02*
X009135Y019209D01*
X009135Y019308D02*
X009078Y019308D01*
X009078Y019406D02*
X009135Y019406D01*
X009135Y019505D02*
X009078Y019505D01*
X008960Y019505D02*
X006854Y019505D01*
X006854Y019603D02*
X009587Y019603D01*
X009604Y019505D02*
X009253Y019505D01*
X009408Y019406D02*
X009563Y019406D01*
X009493Y019308D02*
X009483Y019308D01*
X009488Y019702D02*
X006854Y019702D01*
X006854Y019800D02*
X009390Y019800D01*
X009915Y020096D02*
X011762Y020096D01*
X011717Y020194D02*
X009816Y020194D01*
X009718Y020293D02*
X011676Y020293D01*
X011635Y020391D02*
X006477Y020391D01*
X006320Y020490D02*
X011621Y020490D01*
X011621Y020588D02*
X006082Y020588D01*
X006854Y019406D02*
X008804Y019406D01*
X008729Y019308D02*
X006815Y019308D01*
X006775Y019209D02*
X008690Y019209D01*
X009078Y019012D02*
X009135Y019012D01*
X009135Y018914D02*
X009078Y018914D01*
X009078Y018815D02*
X009135Y018815D01*
X009135Y018717D02*
X009078Y018717D01*
X009301Y018717D02*
X009644Y018717D01*
X009542Y018815D02*
X009429Y018815D01*
X010144Y018717D02*
X015690Y018717D01*
X015293Y018815D02*
X010245Y018815D01*
X010304Y018914D02*
X015194Y018914D01*
X015152Y019012D02*
X010344Y019012D01*
X010344Y019111D02*
X015092Y019111D01*
X014994Y019209D02*
X010336Y019209D01*
X010295Y019308D02*
X014895Y019308D01*
X014797Y019406D02*
X010224Y019406D01*
X010184Y019505D02*
X014698Y019505D01*
X014600Y019603D02*
X010184Y019603D01*
X010184Y019702D02*
X014501Y019702D01*
X014403Y019800D02*
X012865Y019800D01*
X013041Y019899D02*
X014304Y019899D01*
X014206Y019997D02*
X013140Y019997D01*
X013238Y020096D02*
X013707Y020096D01*
X013542Y020194D02*
X013283Y020194D01*
X013324Y020293D02*
X013444Y020293D01*
X013402Y020391D02*
X013365Y020391D01*
X013374Y020785D02*
X013392Y020785D01*
X013433Y020884D02*
X013334Y020884D01*
X013293Y020982D02*
X013518Y020982D01*
X013649Y021081D02*
X013252Y021081D01*
X013164Y021179D02*
X034137Y021179D01*
X034039Y021081D02*
X032000Y021081D01*
X032040Y020982D02*
X033940Y020982D01*
X033842Y020884D02*
X032040Y020884D01*
X032040Y020785D02*
X033743Y020785D01*
X033645Y020687D02*
X032040Y020687D01*
X032040Y020588D02*
X033546Y020588D01*
X033467Y020490D02*
X032040Y020490D01*
X032040Y020391D02*
X033467Y020391D01*
X033543Y020293D02*
X032040Y020293D01*
X032040Y020194D02*
X033641Y020194D01*
X033740Y020096D02*
X031976Y020096D01*
X031710Y019997D02*
X033838Y019997D01*
X033937Y019899D02*
X031710Y019899D01*
X031710Y019800D02*
X034035Y019800D01*
X034134Y019702D02*
X031710Y019702D01*
X031710Y019603D02*
X034232Y019603D01*
X034331Y019505D02*
X031710Y019505D01*
X031710Y019406D02*
X039210Y019406D01*
X039210Y019308D02*
X031710Y019308D01*
X031710Y019209D02*
X039210Y019209D01*
X039210Y019111D02*
X031710Y019111D01*
X031710Y019012D02*
X039210Y019012D01*
X039210Y018914D02*
X031710Y018914D01*
X031710Y018815D02*
X039210Y018815D01*
X039210Y018717D02*
X031710Y018717D01*
X031710Y018618D02*
X039210Y018618D01*
X039210Y018520D02*
X031710Y018520D01*
X031710Y018421D02*
X039210Y018421D01*
X039210Y018323D02*
X031710Y018323D01*
X031710Y018224D02*
X039210Y018224D01*
X039210Y018126D02*
X031710Y018126D01*
X031710Y018027D02*
X039210Y018027D01*
X039210Y017929D02*
X032664Y017929D01*
X032762Y017830D02*
X039210Y017830D01*
X039210Y017732D02*
X032848Y017732D01*
X032848Y017633D02*
X037945Y017633D01*
X038018Y017706D02*
X037144Y016832D01*
X037144Y016691D01*
X038018Y015817D01*
X038159Y015817D01*
X039033Y016691D01*
X039033Y016832D01*
X038159Y017706D01*
X038018Y017706D01*
X038232Y017633D02*
X039210Y017633D01*
X039210Y017535D02*
X038330Y017535D01*
X038429Y017436D02*
X039210Y017436D01*
X039210Y017338D02*
X038527Y017338D01*
X038626Y017239D02*
X039210Y017239D01*
X039210Y017141D02*
X038724Y017141D01*
X038823Y017042D02*
X039210Y017042D01*
X039210Y016944D02*
X038921Y016944D01*
X039020Y016845D02*
X039210Y016845D01*
X039210Y016747D02*
X039033Y016747D01*
X038990Y016648D02*
X039210Y016648D01*
X039210Y016550D02*
X038891Y016550D01*
X038793Y016451D02*
X039210Y016451D01*
X039210Y016353D02*
X038694Y016353D01*
X038596Y016254D02*
X039210Y016254D01*
X039210Y016156D02*
X038497Y016156D01*
X038399Y016057D02*
X039210Y016057D01*
X039210Y015959D02*
X038300Y015959D01*
X038202Y015860D02*
X039210Y015860D01*
X039210Y015762D02*
X034210Y015762D01*
X034210Y015860D02*
X037975Y015860D01*
X037877Y015959D02*
X034210Y015959D01*
X034210Y016057D02*
X037778Y016057D01*
X037680Y016156D02*
X034210Y016156D01*
X034143Y016254D02*
X037581Y016254D01*
X037483Y016353D02*
X034044Y016353D01*
X033946Y016451D02*
X037384Y016451D01*
X037286Y016550D02*
X033847Y016550D01*
X033749Y016648D02*
X037187Y016648D01*
X037144Y016747D02*
X033650Y016747D01*
X033247Y016845D02*
X037157Y016845D01*
X037256Y016944D02*
X033149Y016944D01*
X032851Y016944D02*
X032720Y016944D01*
X032720Y017042D02*
X037354Y017042D01*
X037453Y017141D02*
X032720Y017141D01*
X032720Y017239D02*
X037551Y017239D01*
X037650Y017338D02*
X032730Y017338D01*
X032828Y017436D02*
X037748Y017436D01*
X037847Y017535D02*
X032848Y017535D01*
X032500Y017600D02*
X032500Y016600D01*
X032720Y016845D02*
X032753Y016845D01*
X032270Y017338D02*
X032255Y017338D01*
X032172Y017436D02*
X032156Y017436D01*
X032152Y017535D02*
X031710Y017535D01*
X031710Y017633D02*
X032152Y017633D01*
X032152Y017732D02*
X031710Y017732D01*
X031710Y017830D02*
X032238Y017830D01*
X032336Y017929D02*
X031710Y017929D01*
X031710Y017436D02*
X031844Y017436D01*
X031745Y017338D02*
X031710Y017338D01*
X031500Y016600D02*
X028500Y013600D01*
X028710Y013496D02*
X030790Y013496D01*
X030790Y013398D02*
X028710Y013398D01*
X028710Y013299D02*
X030790Y013299D01*
X030790Y013201D02*
X028710Y013201D01*
X028710Y013102D02*
X030790Y013102D01*
X030790Y013004D02*
X028710Y013004D01*
X028710Y012905D02*
X030790Y012905D01*
X030790Y012807D02*
X028710Y012807D01*
X028710Y012708D02*
X030790Y012708D01*
X030790Y012610D02*
X028710Y012610D01*
X028710Y012511D02*
X030790Y012511D01*
X030790Y012413D02*
X028710Y012413D01*
X028710Y012314D02*
X030790Y012314D01*
X030790Y012216D02*
X028710Y012216D01*
X028710Y012117D02*
X030780Y012117D01*
X030780Y012019D02*
X028710Y012019D01*
X028710Y011920D02*
X030869Y011920D01*
X030960Y011822D02*
X028710Y011822D01*
X028710Y011723D02*
X030960Y011723D01*
X030960Y011625D02*
X028710Y011625D01*
X028710Y011526D02*
X030960Y011526D01*
X030960Y011428D02*
X028710Y011428D01*
X028710Y011329D02*
X031007Y011329D01*
X031106Y011231D02*
X028710Y011231D01*
X028710Y011132D02*
X031204Y011132D01*
X031170Y011034D02*
X029788Y011034D01*
X029773Y011045D02*
X029700Y011082D01*
X029622Y011107D01*
X029550Y011119D01*
X029550Y010650D01*
X030019Y010650D01*
X030007Y010722D01*
X029982Y010800D01*
X029945Y010873D01*
X029897Y010939D01*
X029839Y010997D01*
X029773Y011045D01*
X029899Y010935D02*
X031071Y010935D01*
X030973Y010837D02*
X029963Y010837D01*
X030002Y010738D02*
X030960Y010738D01*
X030960Y010640D02*
X029550Y010640D01*
X029550Y010550D02*
X030019Y010550D01*
X030007Y010478D01*
X029982Y010400D01*
X029945Y010327D01*
X029897Y010261D01*
X029839Y010203D01*
X029773Y010155D01*
X029700Y010118D01*
X029622Y010093D01*
X029550Y010081D01*
X029550Y010550D01*
X029550Y010541D02*
X029450Y010541D01*
X029450Y010443D02*
X029550Y010443D01*
X029550Y010344D02*
X029450Y010344D01*
X029450Y010246D02*
X029550Y010246D01*
X029550Y010147D02*
X029450Y010147D01*
X029244Y010147D02*
X028811Y010147D01*
X028909Y010246D02*
X029119Y010246D01*
X029047Y010344D02*
X028978Y010344D01*
X028987Y010837D02*
X029037Y010837D01*
X029101Y010935D02*
X028929Y010935D01*
X028830Y011034D02*
X029212Y011034D01*
X029450Y011034D02*
X029550Y011034D01*
X029550Y010935D02*
X029450Y010935D01*
X029450Y010837D02*
X029550Y010837D01*
X029550Y010738D02*
X029450Y010738D01*
X030017Y010541D02*
X030960Y010541D01*
X030960Y010443D02*
X029996Y010443D01*
X029953Y010344D02*
X030992Y010344D01*
X031091Y010246D02*
X029881Y010246D01*
X029756Y010147D02*
X031189Y010147D01*
X031811Y010147D02*
X032218Y010147D01*
X032119Y010246D02*
X031909Y010246D01*
X032008Y010344D02*
X032021Y010344D01*
X032450Y010344D02*
X032550Y010344D01*
X032550Y010246D02*
X032450Y010246D01*
X032450Y010147D02*
X032550Y010147D01*
X032550Y010443D02*
X032450Y010443D01*
X032450Y010541D02*
X032550Y010541D01*
X032550Y010640D02*
X036243Y010640D01*
X037000Y010100D02*
X038000Y010100D01*
X038246Y010049D02*
X038276Y010049D01*
X038327Y009130D02*
X038401Y009100D01*
X038599Y009100D01*
X038401Y009100D01*
X038224Y009027D01*
X038327Y009130D01*
X038312Y009064D02*
X038261Y009064D01*
X038327Y008130D02*
X038224Y008027D01*
X038401Y008100D01*
X038599Y008100D01*
X038401Y008100D01*
X038327Y008130D01*
X038349Y008079D02*
X038276Y008079D01*
X034221Y005813D02*
X033697Y005813D01*
X033796Y005715D02*
X034152Y005715D01*
X034152Y005616D02*
X033894Y005616D01*
X033993Y005518D02*
X034152Y005518D01*
X034189Y005419D02*
X034091Y005419D01*
X034190Y005321D02*
X034287Y005321D01*
X034288Y005222D02*
X036581Y005222D01*
X036680Y005124D02*
X034387Y005124D01*
X034485Y005025D02*
X036778Y005025D01*
X036877Y004927D02*
X034584Y004927D01*
X034682Y004828D02*
X037053Y004828D01*
X037012Y004730D02*
X034760Y004730D01*
X034790Y004631D02*
X037000Y004631D01*
X037000Y004533D02*
X034790Y004533D01*
X034790Y004434D02*
X037028Y004434D01*
X037068Y004336D02*
X034790Y004336D01*
X034790Y004237D02*
X037156Y004237D01*
X037308Y004139D02*
X034790Y004139D01*
X034790Y004040D02*
X037256Y004040D01*
X037134Y003942D02*
X034790Y003942D01*
X034790Y003843D02*
X037059Y003843D01*
X037019Y003745D02*
X034790Y003745D01*
X034790Y003646D02*
X037000Y003646D01*
X037000Y003548D02*
X034790Y003548D01*
X034790Y003449D02*
X037021Y003449D01*
X037062Y003351D02*
X034790Y003351D01*
X034790Y003252D02*
X037141Y003252D01*
X037271Y003154D02*
X034790Y003154D01*
X034790Y002464D02*
X037039Y002464D01*
X037081Y002366D02*
X034790Y002366D01*
X034790Y002267D02*
X037154Y002267D01*
X038729Y003154D02*
X039210Y003154D01*
X039210Y003252D02*
X038859Y003252D01*
X038938Y003351D02*
X039210Y003351D01*
X039210Y003449D02*
X038979Y003449D01*
X039000Y003548D02*
X039210Y003548D01*
X039210Y003646D02*
X039000Y003646D01*
X038981Y003745D02*
X039210Y003745D01*
X039210Y003843D02*
X038941Y003843D01*
X038866Y003942D02*
X039210Y003942D01*
X039210Y004040D02*
X038744Y004040D01*
X038692Y004139D02*
X039210Y004139D01*
X039210Y004237D02*
X038844Y004237D01*
X038932Y004336D02*
X039210Y004336D01*
X039210Y004434D02*
X038972Y004434D01*
X039000Y004533D02*
X039210Y004533D01*
X039210Y004631D02*
X039000Y004631D01*
X038988Y004730D02*
X039210Y004730D01*
X039210Y004828D02*
X038947Y004828D01*
X038881Y004927D02*
X039210Y004927D01*
X039210Y005025D02*
X038780Y005025D01*
X036483Y005321D02*
X034713Y005321D01*
X033380Y004310D02*
X033710Y003980D01*
X033710Y001220D01*
X033380Y000890D01*
X023790Y000890D01*
X023790Y001060D01*
X023940Y001060D01*
X024040Y001160D01*
X024040Y001890D01*
X026036Y001890D01*
X025960Y001707D01*
X025960Y001493D01*
X026042Y001294D01*
X026194Y001142D01*
X026393Y001060D01*
X026607Y001060D01*
X026806Y001142D01*
X026958Y001294D01*
X027000Y001396D01*
X027042Y001294D01*
X027194Y001142D01*
X027393Y001060D01*
X027607Y001060D01*
X027806Y001142D01*
X027958Y001294D01*
X028000Y001396D01*
X028042Y001294D01*
X028194Y001142D01*
X028393Y001060D01*
X028607Y001060D01*
X028806Y001142D01*
X028958Y001294D01*
X029000Y001396D01*
X029042Y001294D01*
X029194Y001142D01*
X029393Y001060D01*
X029607Y001060D01*
X029806Y001142D01*
X029958Y001294D01*
X030000Y001396D01*
X030042Y001294D01*
X030194Y001142D01*
X030393Y001060D01*
X030607Y001060D01*
X030806Y001142D01*
X030958Y001294D01*
X031000Y001396D01*
X031042Y001294D01*
X031194Y001142D01*
X031393Y001060D01*
X031607Y001060D01*
X031806Y001142D01*
X031958Y001294D01*
X032040Y001493D01*
X032040Y001707D01*
X031958Y001906D01*
X031806Y002058D01*
X031607Y002140D01*
X031393Y002140D01*
X031307Y002104D01*
X031210Y002201D01*
X031210Y003687D01*
X030710Y004187D01*
X030587Y004310D01*
X029964Y004310D01*
X029964Y004310D01*
X031967Y004310D01*
X031755Y004098D01*
X031621Y003775D01*
X031621Y003425D01*
X031755Y003102D01*
X032002Y002855D01*
X032325Y002721D01*
X032675Y002721D01*
X032998Y002855D01*
X033245Y003102D01*
X033379Y003425D01*
X033379Y003775D01*
X033245Y004098D01*
X033033Y004310D01*
X033380Y004310D01*
X033453Y004237D02*
X033106Y004237D01*
X033204Y004139D02*
X033551Y004139D01*
X033650Y004040D02*
X033269Y004040D01*
X033310Y003942D02*
X033710Y003942D01*
X033710Y003843D02*
X033350Y003843D01*
X033379Y003745D02*
X033710Y003745D01*
X033710Y003646D02*
X033379Y003646D01*
X033379Y003548D02*
X033710Y003548D01*
X033710Y003449D02*
X033379Y003449D01*
X033348Y003351D02*
X033710Y003351D01*
X033710Y003252D02*
X033307Y003252D01*
X033266Y003154D02*
X033710Y003154D01*
X033710Y003055D02*
X033198Y003055D01*
X033099Y002957D02*
X033710Y002957D01*
X033710Y002858D02*
X033001Y002858D01*
X032767Y002760D02*
X033710Y002760D01*
X033710Y002661D02*
X031210Y002661D01*
X031210Y002563D02*
X033710Y002563D01*
X033710Y002464D02*
X031210Y002464D01*
X031210Y002366D02*
X033710Y002366D01*
X033710Y002267D02*
X031210Y002267D01*
X031243Y002169D02*
X033710Y002169D01*
X033710Y002070D02*
X031776Y002070D01*
X031892Y001972D02*
X033710Y001972D01*
X033710Y001873D02*
X031971Y001873D01*
X032012Y001775D02*
X033710Y001775D01*
X033710Y001676D02*
X032040Y001676D01*
X032040Y001578D02*
X033710Y001578D01*
X033710Y001479D02*
X032034Y001479D01*
X031994Y001381D02*
X033710Y001381D01*
X033710Y001282D02*
X031946Y001282D01*
X031847Y001184D02*
X033673Y001184D01*
X033575Y001085D02*
X031668Y001085D01*
X031332Y001085D02*
X030668Y001085D01*
X030847Y001184D02*
X031153Y001184D01*
X031054Y001282D02*
X030946Y001282D01*
X030994Y001381D02*
X031006Y001381D01*
X031500Y001600D02*
X031000Y002100D01*
X031210Y002760D02*
X032233Y002760D01*
X031999Y002858D02*
X031210Y002858D01*
X031210Y002957D02*
X031901Y002957D01*
X031802Y003055D02*
X031210Y003055D01*
X031210Y003154D02*
X031734Y003154D01*
X031693Y003252D02*
X031210Y003252D01*
X031210Y003351D02*
X031652Y003351D01*
X031621Y003449D02*
X031210Y003449D01*
X031210Y003548D02*
X031621Y003548D01*
X031621Y003646D02*
X031210Y003646D01*
X031152Y003745D02*
X031621Y003745D01*
X031650Y003843D02*
X031054Y003843D01*
X030955Y003942D02*
X031690Y003942D01*
X031731Y004040D02*
X030857Y004040D01*
X030758Y004139D02*
X031796Y004139D01*
X031894Y004237D02*
X030660Y004237D01*
X030006Y001381D02*
X029994Y001381D01*
X029946Y001282D02*
X030054Y001282D01*
X030153Y001184D02*
X029847Y001184D01*
X029668Y001085D02*
X030332Y001085D01*
X029332Y001085D02*
X028668Y001085D01*
X028847Y001184D02*
X029153Y001184D01*
X029054Y001282D02*
X028946Y001282D01*
X028994Y001381D02*
X029006Y001381D01*
X028332Y001085D02*
X027668Y001085D01*
X027847Y001184D02*
X028153Y001184D01*
X028054Y001282D02*
X027946Y001282D01*
X027994Y001381D02*
X028006Y001381D01*
X027332Y001085D02*
X026668Y001085D01*
X026847Y001184D02*
X027153Y001184D01*
X027054Y001282D02*
X026946Y001282D01*
X026994Y001381D02*
X027006Y001381D01*
X026332Y001085D02*
X023965Y001085D01*
X024040Y001184D02*
X026153Y001184D01*
X026054Y001282D02*
X024040Y001282D01*
X024040Y001381D02*
X026006Y001381D01*
X025966Y001479D02*
X024040Y001479D01*
X024040Y001578D02*
X025960Y001578D01*
X025960Y001676D02*
X024040Y001676D01*
X024040Y001775D02*
X025988Y001775D01*
X026029Y001873D02*
X024040Y001873D01*
X022960Y001357D02*
X022960Y001160D01*
X023060Y001060D01*
X023210Y001060D01*
X023210Y000890D01*
X012533Y000890D01*
X012745Y001102D01*
X012879Y001425D01*
X012879Y001775D01*
X012745Y002098D01*
X012498Y002345D01*
X012389Y002390D01*
X013163Y002390D01*
X013663Y001890D01*
X014036Y001890D01*
X013960Y001707D01*
X013960Y001493D01*
X014042Y001294D01*
X014194Y001142D01*
X014393Y001060D01*
X014607Y001060D01*
X014806Y001142D01*
X014958Y001294D01*
X015040Y001493D01*
X015040Y001707D01*
X014964Y001890D01*
X016036Y001890D01*
X015960Y001707D01*
X015960Y001493D01*
X016042Y001294D01*
X016194Y001142D01*
X016393Y001060D01*
X016607Y001060D01*
X016806Y001142D01*
X016958Y001294D01*
X017000Y001396D01*
X017042Y001294D01*
X017194Y001142D01*
X017393Y001060D01*
X017607Y001060D01*
X017806Y001142D01*
X017958Y001294D01*
X018000Y001396D01*
X018042Y001294D01*
X018194Y001142D01*
X018393Y001060D01*
X018607Y001060D01*
X018806Y001142D01*
X018958Y001294D01*
X019000Y001396D01*
X019042Y001294D01*
X019194Y001142D01*
X019393Y001060D01*
X019607Y001060D01*
X019806Y001142D01*
X019958Y001294D01*
X020000Y001396D01*
X020042Y001294D01*
X020194Y001142D01*
X020393Y001060D01*
X020607Y001060D01*
X020806Y001142D01*
X020958Y001294D01*
X021011Y001422D01*
X021018Y001400D01*
X021055Y001327D01*
X021103Y001261D01*
X021161Y001203D01*
X021227Y001155D01*
X021300Y001118D01*
X021378Y001093D01*
X021450Y001081D01*
X021450Y001550D01*
X021550Y001550D01*
X021550Y001650D01*
X022019Y001650D01*
X022450Y001650D01*
X022450Y001550D01*
X021550Y001550D01*
X021550Y001081D01*
X021622Y001093D01*
X021700Y001118D01*
X021773Y001155D01*
X021839Y001203D01*
X021897Y001261D01*
X021945Y001327D01*
X021982Y001400D01*
X022000Y001456D01*
X022018Y001400D01*
X022055Y001327D01*
X022103Y001261D01*
X022161Y001203D01*
X022227Y001155D01*
X022300Y001118D01*
X022378Y001093D01*
X022450Y001081D01*
X022450Y001550D01*
X022550Y001550D01*
X022550Y001081D01*
X022622Y001093D01*
X022700Y001118D01*
X022773Y001155D01*
X022839Y001203D01*
X022897Y001261D01*
X022945Y001327D01*
X022960Y001357D01*
X022960Y001282D02*
X022912Y001282D01*
X022960Y001184D02*
X022811Y001184D01*
X023035Y001085D02*
X022573Y001085D01*
X022550Y001085D02*
X022450Y001085D01*
X022427Y001085D02*
X021573Y001085D01*
X021550Y001085D02*
X021450Y001085D01*
X021427Y001085D02*
X020668Y001085D01*
X020847Y001184D02*
X021189Y001184D01*
X021088Y001282D02*
X020946Y001282D01*
X020994Y001381D02*
X021028Y001381D01*
X021450Y001381D02*
X021550Y001381D01*
X021550Y001479D02*
X021450Y001479D01*
X021550Y001578D02*
X022450Y001578D01*
X022450Y001479D02*
X022550Y001479D01*
X022550Y001381D02*
X022450Y001381D01*
X022450Y001282D02*
X022550Y001282D01*
X022550Y001184D02*
X022450Y001184D01*
X022189Y001184D02*
X021811Y001184D01*
X021912Y001282D02*
X022088Y001282D01*
X022028Y001381D02*
X021972Y001381D01*
X021550Y001282D02*
X021450Y001282D01*
X021450Y001184D02*
X021550Y001184D01*
X020332Y001085D02*
X019668Y001085D01*
X019847Y001184D02*
X020153Y001184D01*
X020054Y001282D02*
X019946Y001282D01*
X019994Y001381D02*
X020006Y001381D01*
X019332Y001085D02*
X018668Y001085D01*
X018847Y001184D02*
X019153Y001184D01*
X019054Y001282D02*
X018946Y001282D01*
X018994Y001381D02*
X019006Y001381D01*
X018332Y001085D02*
X017668Y001085D01*
X017847Y001184D02*
X018153Y001184D01*
X018054Y001282D02*
X017946Y001282D01*
X017994Y001381D02*
X018006Y001381D01*
X017332Y001085D02*
X016668Y001085D01*
X016847Y001184D02*
X017153Y001184D01*
X017054Y001282D02*
X016946Y001282D01*
X016994Y001381D02*
X017006Y001381D01*
X016332Y001085D02*
X014668Y001085D01*
X014847Y001184D02*
X016153Y001184D01*
X016054Y001282D02*
X014946Y001282D01*
X014994Y001381D02*
X016006Y001381D01*
X015966Y001479D02*
X015034Y001479D01*
X015040Y001578D02*
X015960Y001578D01*
X015960Y001676D02*
X015040Y001676D01*
X015012Y001775D02*
X015988Y001775D01*
X016029Y001873D02*
X014971Y001873D01*
X014029Y001873D02*
X012838Y001873D01*
X012879Y001775D02*
X013988Y001775D01*
X013960Y001676D02*
X012879Y001676D01*
X012879Y001578D02*
X013960Y001578D01*
X013966Y001479D02*
X012879Y001479D01*
X012860Y001381D02*
X014006Y001381D01*
X014054Y001282D02*
X012819Y001282D01*
X012779Y001184D02*
X014153Y001184D01*
X014332Y001085D02*
X012728Y001085D01*
X012629Y000987D02*
X023210Y000987D01*
X023790Y000987D02*
X033476Y000987D01*
X035288Y000396D02*
X039500Y000396D01*
X039500Y000494D02*
X035348Y000494D01*
X039191Y001381D02*
X039500Y001381D01*
X039500Y001479D02*
X039289Y001479D01*
X039388Y001578D02*
X039500Y001578D01*
X039486Y001676D02*
X039500Y001676D01*
X028189Y010147D02*
X027811Y010147D01*
X027909Y010246D02*
X028091Y010246D01*
X028022Y010344D02*
X027978Y010344D01*
X027189Y010147D02*
X026811Y010147D01*
X026909Y010246D02*
X027091Y010246D01*
X027022Y010344D02*
X026978Y010344D01*
X026189Y010147D02*
X025811Y010147D01*
X025909Y010246D02*
X026091Y010246D01*
X026022Y010344D02*
X025978Y010344D01*
X025189Y010147D02*
X024811Y010147D01*
X024909Y010246D02*
X025091Y010246D01*
X025022Y010344D02*
X024978Y010344D01*
X024189Y010147D02*
X023811Y010147D01*
X023909Y010246D02*
X024091Y010246D01*
X024022Y010344D02*
X023978Y010344D01*
X023189Y010147D02*
X022811Y010147D01*
X022909Y010246D02*
X023091Y010246D01*
X023022Y010344D02*
X022978Y010344D01*
X022189Y010147D02*
X021811Y010147D01*
X021909Y010246D02*
X022091Y010246D01*
X022022Y010344D02*
X021978Y010344D01*
X021189Y010147D02*
X020811Y010147D01*
X020909Y010246D02*
X021091Y010246D01*
X021022Y010344D02*
X020978Y010344D01*
X020987Y010837D02*
X021013Y010837D01*
X021071Y010935D02*
X020929Y010935D01*
X020830Y011034D02*
X021170Y011034D01*
X021290Y011132D02*
X020710Y011132D01*
X020710Y011231D02*
X021290Y011231D01*
X021290Y011329D02*
X020710Y011329D01*
X020710Y011428D02*
X021290Y011428D01*
X021290Y011526D02*
X020710Y011526D01*
X020710Y011625D02*
X021290Y011625D01*
X021290Y011723D02*
X020710Y011723D01*
X020710Y011822D02*
X021290Y011822D01*
X021290Y011920D02*
X020710Y011920D01*
X020710Y012019D02*
X021290Y012019D01*
X021290Y012117D02*
X020710Y012117D01*
X020710Y012216D02*
X021290Y012216D01*
X021290Y012314D02*
X020710Y012314D01*
X020710Y012413D02*
X021290Y012413D01*
X021290Y012511D02*
X020710Y012511D01*
X020710Y012610D02*
X021290Y012610D01*
X021290Y012708D02*
X020710Y012708D01*
X020710Y012807D02*
X021290Y012807D01*
X021290Y012905D02*
X020710Y012905D01*
X020710Y013004D02*
X021290Y013004D01*
X021290Y013102D02*
X020710Y013102D01*
X020710Y013201D02*
X021290Y013201D01*
X021290Y013299D02*
X020710Y013299D01*
X020710Y013398D02*
X021290Y013398D01*
X021290Y013496D02*
X020710Y013496D01*
X020710Y013595D02*
X021290Y013595D01*
X021296Y013693D02*
X020710Y013693D01*
X020710Y013792D02*
X021395Y013792D01*
X021493Y013890D02*
X020710Y013890D01*
X020710Y013989D02*
X021592Y013989D01*
X021690Y014087D02*
X020784Y014087D01*
X020883Y014186D02*
X021789Y014186D01*
X021887Y014284D02*
X020981Y014284D01*
X021080Y014383D02*
X021986Y014383D01*
X022084Y014481D02*
X021178Y014481D01*
X021277Y014580D02*
X022183Y014580D01*
X022281Y014678D02*
X021375Y014678D01*
X021474Y014777D02*
X022380Y014777D01*
X022478Y014875D02*
X021572Y014875D01*
X021671Y014974D02*
X022577Y014974D01*
X022675Y015072D02*
X021769Y015072D01*
X021868Y015171D02*
X022774Y015171D01*
X022872Y015269D02*
X021966Y015269D01*
X022065Y015368D02*
X022971Y015368D01*
X023069Y015466D02*
X022163Y015466D01*
X022262Y015565D02*
X023168Y015565D01*
X023266Y015663D02*
X022360Y015663D01*
X022459Y015762D02*
X023365Y015762D01*
X023463Y015860D02*
X022557Y015860D01*
X022656Y015959D02*
X023562Y015959D01*
X023660Y016057D02*
X022754Y016057D01*
X022853Y016156D02*
X023759Y016156D01*
X023857Y016254D02*
X022951Y016254D01*
X023050Y016353D02*
X023956Y016353D01*
X024054Y016451D02*
X023110Y016451D01*
X023110Y016550D02*
X024153Y016550D01*
X024251Y016648D02*
X023110Y016648D01*
X023110Y016747D02*
X024290Y016747D01*
X024290Y016845D02*
X023110Y016845D01*
X023110Y016944D02*
X024290Y016944D01*
X024290Y017042D02*
X023110Y017042D01*
X023110Y017141D02*
X024290Y017141D01*
X024290Y017239D02*
X023110Y017239D01*
X023110Y017338D02*
X024290Y017338D01*
X024290Y017436D02*
X023110Y017436D01*
X023110Y017535D02*
X024290Y017535D01*
X024290Y017633D02*
X023110Y017633D01*
X023110Y017732D02*
X024290Y017732D01*
X024290Y017830D02*
X023110Y017830D01*
X023110Y017929D02*
X024290Y017929D01*
X024290Y018027D02*
X023110Y018027D01*
X023110Y018126D02*
X024290Y018126D01*
X024290Y018224D02*
X023110Y018224D01*
X023110Y018323D02*
X024290Y018323D01*
X024290Y018421D02*
X023110Y018421D01*
X023110Y018520D02*
X024290Y018520D01*
X024290Y018618D02*
X023110Y018618D01*
X023110Y018717D02*
X024290Y018717D01*
X024290Y018815D02*
X023110Y018815D01*
X023110Y018914D02*
X024290Y018914D01*
X024290Y019012D02*
X023110Y019012D01*
X023110Y019111D02*
X024290Y019111D01*
X024290Y019209D02*
X023110Y019209D01*
X023110Y019308D02*
X024290Y019308D01*
X024290Y019406D02*
X023110Y019406D01*
X023110Y019505D02*
X024290Y019505D01*
X024290Y019603D02*
X023110Y019603D01*
X023110Y019702D02*
X024290Y019702D01*
X024290Y019800D02*
X023110Y019800D01*
X023110Y019899D02*
X024290Y019899D01*
X024290Y019997D02*
X023110Y019997D01*
X023110Y020096D02*
X024290Y020096D01*
X024142Y020194D02*
X023258Y020194D01*
X023356Y020293D02*
X024044Y020293D01*
X024002Y020391D02*
X023398Y020391D01*
X023439Y020490D02*
X023961Y020490D01*
X023960Y020588D02*
X023440Y020588D01*
X023440Y020687D02*
X023960Y020687D01*
X023992Y020785D02*
X023408Y020785D01*
X023367Y020884D02*
X024033Y020884D01*
X024118Y020982D02*
X023282Y020982D01*
X023151Y021081D02*
X024249Y021081D01*
X024751Y021081D02*
X025249Y021081D01*
X025118Y020982D02*
X024882Y020982D01*
X024967Y020884D02*
X025033Y020884D01*
X025751Y021081D02*
X026249Y021081D01*
X026118Y020982D02*
X025882Y020982D01*
X025967Y020884D02*
X026033Y020884D01*
X026751Y021081D02*
X027249Y021081D01*
X027118Y020982D02*
X026882Y020982D01*
X026967Y020884D02*
X027033Y020884D01*
X027751Y021081D02*
X028249Y021081D01*
X028118Y020982D02*
X027882Y020982D01*
X027967Y020884D02*
X028033Y020884D01*
X028751Y021081D02*
X029249Y021081D01*
X029118Y020982D02*
X028882Y020982D01*
X028967Y020884D02*
X029033Y020884D01*
X029751Y021081D02*
X030249Y021081D01*
X030118Y020982D02*
X029882Y020982D01*
X029967Y020884D02*
X030033Y020884D01*
X030751Y021081D02*
X031000Y021081D01*
X030960Y020982D02*
X030882Y020982D01*
X034236Y021278D02*
X013065Y021278D01*
X014151Y021081D02*
X014649Y021081D01*
X014518Y020982D02*
X014282Y020982D01*
X014367Y020884D02*
X014433Y020884D01*
X015151Y021081D02*
X015649Y021081D01*
X015518Y020982D02*
X015282Y020982D01*
X015367Y020884D02*
X015433Y020884D01*
X016151Y021081D02*
X016698Y021081D01*
X016850Y021081D02*
X016950Y021081D01*
X016950Y020982D02*
X016850Y020982D01*
X016850Y020884D02*
X016950Y020884D01*
X016950Y020785D02*
X016850Y020785D01*
X016850Y020687D02*
X016950Y020687D01*
X016950Y020550D02*
X016850Y020550D01*
X016850Y020081D01*
X016778Y020093D01*
X016700Y020118D01*
X016627Y020155D01*
X016561Y020203D01*
X016503Y020261D01*
X016455Y020327D01*
X016418Y020400D01*
X016411Y020422D01*
X016358Y020294D01*
X016206Y020142D01*
X016110Y020102D01*
X016110Y015413D01*
X015145Y014448D01*
X015348Y014244D01*
X015348Y013956D01*
X015210Y013818D01*
X015210Y013802D01*
X015356Y013948D01*
X015644Y013948D01*
X015790Y013802D01*
X015790Y014687D01*
X015913Y014810D01*
X017690Y016587D01*
X017690Y016918D01*
X017652Y016956D01*
X017652Y017244D01*
X017690Y017282D01*
X017690Y020102D01*
X017594Y020142D01*
X017442Y020294D01*
X017389Y020422D01*
X017382Y020400D01*
X017345Y020327D01*
X017297Y020261D01*
X017239Y020203D01*
X017173Y020155D01*
X017100Y020118D01*
X017022Y020093D01*
X016950Y020081D01*
X016950Y020550D01*
X016950Y020490D02*
X016850Y020490D01*
X016850Y020391D02*
X016950Y020391D01*
X016950Y020293D02*
X016850Y020293D01*
X016850Y020194D02*
X016950Y020194D01*
X016950Y020096D02*
X016850Y020096D01*
X016770Y020096D02*
X016110Y020096D01*
X016110Y019997D02*
X017690Y019997D01*
X017690Y019899D02*
X016110Y019899D01*
X016110Y019800D02*
X017690Y019800D01*
X017690Y019702D02*
X016110Y019702D01*
X016110Y019603D02*
X017690Y019603D01*
X017690Y019505D02*
X016110Y019505D01*
X016110Y019406D02*
X017690Y019406D01*
X017690Y019308D02*
X016110Y019308D01*
X016110Y019209D02*
X017690Y019209D01*
X017690Y019111D02*
X016110Y019111D01*
X016110Y019012D02*
X017690Y019012D01*
X017690Y018914D02*
X016110Y018914D01*
X016110Y018815D02*
X017690Y018815D01*
X017690Y018717D02*
X016110Y018717D01*
X016110Y018618D02*
X017690Y018618D01*
X017690Y018520D02*
X016110Y018520D01*
X016110Y018421D02*
X017690Y018421D01*
X017690Y018323D02*
X016110Y018323D01*
X016110Y018224D02*
X017690Y018224D01*
X017690Y018126D02*
X016110Y018126D01*
X016110Y018027D02*
X017690Y018027D01*
X017690Y017929D02*
X016110Y017929D01*
X016110Y017830D02*
X017690Y017830D01*
X017690Y017732D02*
X016110Y017732D01*
X016110Y017633D02*
X017690Y017633D01*
X017690Y017535D02*
X016110Y017535D01*
X016110Y017436D02*
X017690Y017436D01*
X017690Y017338D02*
X016110Y017338D01*
X016110Y017239D02*
X017652Y017239D01*
X017652Y017141D02*
X016110Y017141D01*
X016110Y017042D02*
X017652Y017042D01*
X017664Y016944D02*
X016110Y016944D01*
X016110Y016845D02*
X017690Y016845D01*
X017690Y016747D02*
X016110Y016747D01*
X016110Y016648D02*
X017690Y016648D01*
X017653Y016550D02*
X016110Y016550D01*
X016110Y016451D02*
X017554Y016451D01*
X017456Y016353D02*
X016110Y016353D01*
X016110Y016254D02*
X017357Y016254D01*
X017259Y016156D02*
X016110Y016156D01*
X016110Y016057D02*
X017160Y016057D01*
X017062Y015959D02*
X016110Y015959D01*
X016110Y015860D02*
X016963Y015860D01*
X016865Y015762D02*
X016110Y015762D01*
X016110Y015663D02*
X016766Y015663D01*
X016668Y015565D02*
X016110Y015565D01*
X016110Y015466D02*
X016569Y015466D01*
X016471Y015368D02*
X016065Y015368D01*
X015966Y015269D02*
X016372Y015269D01*
X016274Y015171D02*
X015868Y015171D01*
X015769Y015072D02*
X016175Y015072D01*
X016077Y014974D02*
X015671Y014974D01*
X015572Y014875D02*
X015978Y014875D01*
X015880Y014777D02*
X015474Y014777D01*
X015375Y014678D02*
X015790Y014678D01*
X015790Y014580D02*
X015277Y014580D01*
X015178Y014481D02*
X015790Y014481D01*
X015790Y014383D02*
X015210Y014383D01*
X015308Y014284D02*
X015790Y014284D01*
X015790Y014186D02*
X015348Y014186D01*
X015348Y014087D02*
X015790Y014087D01*
X015790Y013989D02*
X015348Y013989D01*
X015298Y013890D02*
X015282Y013890D01*
X015702Y013890D02*
X015790Y013890D01*
X015274Y015171D02*
X013491Y015171D01*
X013634Y015269D02*
X015372Y015269D01*
X015471Y015368D02*
X013712Y015368D01*
X013753Y015466D02*
X015569Y015466D01*
X015668Y015565D02*
X013770Y015565D01*
X013770Y015663D02*
X015690Y015663D01*
X015690Y015762D02*
X013742Y015762D01*
X013701Y015860D02*
X015690Y015860D01*
X015690Y015959D02*
X013606Y015959D01*
X013425Y016057D02*
X015690Y016057D01*
X017900Y017100D02*
X018000Y017100D01*
X018900Y017600D02*
X019000Y017600D01*
X019900Y016600D02*
X020000Y016600D01*
X019900Y016600D02*
X019900Y016500D01*
X015500Y019100D02*
X015400Y019100D01*
X014107Y020096D02*
X014093Y020096D01*
X012135Y019800D02*
X010169Y019800D01*
X010112Y019899D02*
X011959Y019899D01*
X011860Y019997D02*
X010013Y019997D01*
X011621Y020687D02*
X000750Y020687D01*
X000750Y020785D02*
X011626Y020785D01*
X011666Y020884D02*
X000750Y020884D01*
X000750Y020982D02*
X011707Y020982D01*
X011748Y021081D02*
X000750Y021081D01*
X000750Y021179D02*
X011836Y021179D01*
X011935Y021278D02*
X011170Y021278D01*
X010830Y021278D02*
X000750Y021278D01*
X000750Y021376D02*
X010732Y021376D01*
X010652Y021475D02*
X000750Y021475D01*
X000750Y021573D02*
X010652Y021573D01*
X010652Y021672D02*
X000750Y021672D01*
X000750Y021770D02*
X010678Y021770D01*
X016282Y020982D02*
X016547Y020982D01*
X016463Y020884D02*
X016367Y020884D01*
X016408Y020785D02*
X016413Y020785D01*
X016398Y020391D02*
X016423Y020391D01*
X016481Y020293D02*
X016356Y020293D01*
X016258Y020194D02*
X016574Y020194D01*
X017030Y020096D02*
X017690Y020096D01*
X017542Y020194D02*
X017226Y020194D01*
X017319Y020293D02*
X017444Y020293D01*
X017402Y020391D02*
X017377Y020391D01*
X017387Y020785D02*
X017392Y020785D01*
X017433Y020884D02*
X017337Y020884D01*
X017253Y020982D02*
X017518Y020982D01*
X017649Y021081D02*
X017102Y021081D01*
X018151Y021081D02*
X018649Y021081D01*
X018518Y020982D02*
X018282Y020982D01*
X018367Y020884D02*
X018433Y020884D01*
X019151Y021081D02*
X019649Y021081D01*
X019518Y020982D02*
X019282Y020982D01*
X019367Y020884D02*
X019433Y020884D01*
X020151Y021081D02*
X020649Y021081D01*
X020518Y020982D02*
X020282Y020982D01*
X020367Y020884D02*
X020433Y020884D01*
X021151Y021081D02*
X021649Y021081D01*
X021518Y020982D02*
X021282Y020982D01*
X021367Y020884D02*
X021433Y020884D01*
X022151Y021081D02*
X022649Y021081D01*
X022518Y020982D02*
X022282Y020982D01*
X022367Y020884D02*
X022433Y020884D01*
X028500Y016600D02*
X025500Y013600D01*
X026500Y013600D02*
X029500Y016600D01*
X030500Y016600D02*
X027500Y013600D01*
X028806Y013595D02*
X030790Y013595D01*
X030790Y013693D02*
X028904Y013693D01*
X029003Y013792D02*
X030790Y013792D01*
X030790Y013890D02*
X029101Y013890D01*
X029200Y013989D02*
X030790Y013989D01*
X030790Y014087D02*
X029298Y014087D01*
X029397Y014186D02*
X030790Y014186D01*
X030790Y014284D02*
X029495Y014284D01*
X029594Y014383D02*
X030790Y014383D01*
X030790Y014481D02*
X029692Y014481D01*
X029791Y014580D02*
X030790Y014580D01*
X030790Y014678D02*
X029889Y014678D01*
X029988Y014777D02*
X030790Y014777D01*
X030790Y014875D02*
X030086Y014875D01*
X030185Y014974D02*
X030790Y014974D01*
X030790Y015072D02*
X030283Y015072D01*
X030382Y015171D02*
X030790Y015171D01*
X030790Y015269D02*
X030480Y015269D01*
X030579Y015368D02*
X030790Y015368D01*
X030790Y015466D02*
X030677Y015466D01*
X030776Y015565D02*
X030790Y015565D01*
X034210Y015565D02*
X039210Y015565D01*
X039210Y015663D02*
X034210Y015663D01*
X034210Y015466D02*
X039210Y015466D01*
X039210Y015368D02*
X034210Y015368D01*
X034210Y015269D02*
X039210Y015269D01*
X039210Y015171D02*
X034210Y015171D01*
X034210Y015072D02*
X037333Y015072D01*
X037166Y014974D02*
X034210Y014974D01*
X034210Y014875D02*
X037073Y014875D01*
X037032Y014777D02*
X034210Y014777D01*
X034210Y014678D02*
X037000Y014678D01*
X037000Y014580D02*
X034210Y014580D01*
X034210Y014481D02*
X037008Y014481D01*
X037049Y014383D02*
X034210Y014383D01*
X034210Y014284D02*
X037109Y014284D01*
X037207Y014186D02*
X034210Y014186D01*
X034210Y014087D02*
X037369Y014087D01*
X037181Y013989D02*
X034210Y013989D01*
X034210Y013890D02*
X037083Y013890D01*
X037038Y013792D02*
X034210Y013792D01*
X034210Y013693D02*
X037000Y013693D01*
X037000Y013595D02*
X034210Y013595D01*
X034210Y013496D02*
X037002Y013496D01*
X037043Y013398D02*
X034210Y013398D01*
X034210Y013299D02*
X037094Y013299D01*
X037192Y013201D02*
X034210Y013201D01*
X034117Y011920D02*
X037113Y011920D01*
X037051Y011822D02*
X034019Y011822D01*
X033920Y011723D02*
X037010Y011723D01*
X037000Y011625D02*
X033822Y011625D01*
X033723Y011526D02*
X037000Y011526D01*
X037030Y011428D02*
X033625Y011428D01*
X031500Y011600D02*
X031000Y012100D01*
X037823Y012216D02*
X038177Y012216D01*
X038079Y012314D02*
X037921Y012314D01*
X037964Y012413D02*
X038036Y012413D01*
X038000Y012511D02*
X038000Y012511D01*
X038000Y012610D02*
X038000Y012610D01*
X037996Y012708D02*
X038004Y012708D01*
X038044Y012807D02*
X037956Y012807D01*
X037902Y012905D02*
X038098Y012905D01*
X038196Y013004D02*
X037804Y013004D01*
X037808Y013201D02*
X038192Y013201D01*
X038094Y013299D02*
X037906Y013299D01*
X037957Y013398D02*
X038043Y013398D01*
X038002Y013496D02*
X037998Y013496D01*
X038000Y013595D02*
X038000Y013595D01*
X038000Y013693D02*
X038000Y013693D01*
X037962Y013792D02*
X038038Y013792D01*
X038083Y013890D02*
X037917Y013890D01*
X037819Y013989D02*
X038181Y013989D01*
X038207Y014186D02*
X037793Y014186D01*
X037891Y014284D02*
X038109Y014284D01*
X038369Y014087D02*
X037631Y014087D01*
X038631Y014087D02*
X039210Y014087D01*
X039210Y013989D02*
X038819Y013989D01*
X038917Y013890D02*
X039210Y013890D01*
X039210Y013792D02*
X038962Y013792D01*
X039000Y013693D02*
X039210Y013693D01*
X039210Y013595D02*
X039000Y013595D01*
X038998Y013496D02*
X039210Y013496D01*
X039210Y013398D02*
X038957Y013398D01*
X038906Y013299D02*
X039210Y013299D01*
X039210Y013201D02*
X038808Y013201D01*
X038793Y014186D02*
X039210Y014186D01*
X039210Y014284D02*
X038891Y014284D01*
X038834Y014974D02*
X039210Y014974D01*
X039210Y015072D02*
X038667Y015072D01*
X038333Y015072D02*
X037667Y015072D01*
X037834Y014974D02*
X038166Y014974D01*
X039210Y019505D02*
X034492Y019505D01*
X034591Y019603D02*
X039210Y019603D01*
X039210Y019702D02*
X034689Y019702D01*
X034788Y019800D02*
X039210Y019800D01*
X039210Y019899D02*
X034886Y019899D01*
X034985Y019997D02*
X039210Y019997D01*
X039210Y020096D02*
X035083Y020096D01*
X035182Y020194D02*
X039210Y020194D01*
X039210Y020293D02*
X035280Y020293D01*
X035356Y020391D02*
X039210Y020391D01*
X039210Y020490D02*
X035356Y020490D01*
X035277Y020588D02*
X039210Y020588D01*
X039210Y020687D02*
X035178Y020687D01*
X035080Y020785D02*
X039210Y020785D01*
X039210Y020884D02*
X034981Y020884D01*
X034883Y020982D02*
X039208Y020982D01*
X039109Y021081D02*
X034784Y021081D01*
X034686Y021179D02*
X039011Y021179D01*
X038912Y021278D02*
X034587Y021278D01*
X013790Y010049D02*
X004359Y010049D01*
X004457Y010147D02*
X006189Y010147D01*
X006091Y010246D02*
X004556Y010246D01*
X004654Y010344D02*
X006022Y010344D01*
X005981Y010443D02*
X004753Y010443D01*
X004851Y010541D02*
X005960Y010541D01*
X005960Y010640D02*
X004950Y010640D01*
X005048Y010738D02*
X005973Y010738D01*
X006013Y010837D02*
X005147Y010837D01*
X005245Y010935D02*
X006071Y010935D01*
X006170Y011034D02*
X005344Y011034D01*
X005442Y011132D02*
X006373Y011132D01*
X006627Y011132D02*
X007373Y011132D01*
X007170Y011034D02*
X006830Y011034D01*
X006929Y010935D02*
X007071Y010935D01*
X007013Y010837D02*
X006987Y010837D01*
X006978Y010344D02*
X007022Y010344D01*
X007091Y010246D02*
X006909Y010246D01*
X006811Y010147D02*
X007189Y010147D01*
X007811Y010147D02*
X008189Y010147D01*
X008091Y010246D02*
X007909Y010246D01*
X007978Y010344D02*
X008022Y010344D01*
X008013Y010837D02*
X007987Y010837D01*
X007929Y010935D02*
X008071Y010935D01*
X008170Y011034D02*
X007830Y011034D01*
X007627Y011132D02*
X008373Y011132D01*
X008627Y011132D02*
X009373Y011132D01*
X009170Y011034D02*
X008830Y011034D01*
X008929Y010935D02*
X009071Y010935D01*
X009013Y010837D02*
X008987Y010837D01*
X008978Y010344D02*
X009022Y010344D01*
X009091Y010246D02*
X008909Y010246D01*
X008811Y010147D02*
X009189Y010147D01*
X009811Y010147D02*
X010189Y010147D01*
X010091Y010246D02*
X009909Y010246D01*
X009978Y010344D02*
X010022Y010344D01*
X010013Y010837D02*
X009987Y010837D01*
X009929Y010935D02*
X010071Y010935D01*
X010170Y011034D02*
X009830Y011034D01*
X009627Y011132D02*
X010373Y011132D01*
X010627Y011132D02*
X011373Y011132D01*
X011170Y011034D02*
X010830Y011034D01*
X010929Y010935D02*
X011071Y010935D01*
X011013Y010837D02*
X010987Y010837D01*
X010978Y010344D02*
X011022Y010344D01*
X011091Y010246D02*
X010909Y010246D01*
X010811Y010147D02*
X011189Y010147D01*
X011811Y010147D02*
X012189Y010147D01*
X012091Y010246D02*
X011909Y010246D01*
X011978Y010344D02*
X012022Y010344D01*
X012013Y010837D02*
X011987Y010837D01*
X011929Y010935D02*
X012071Y010935D01*
X012170Y011034D02*
X011830Y011034D01*
X011627Y011132D02*
X012373Y011132D01*
X012978Y010344D02*
X013022Y010344D01*
X013091Y010246D02*
X012909Y010246D01*
X012811Y010147D02*
X013189Y010147D01*
X013790Y009950D02*
X004260Y009950D01*
X004158Y009852D02*
X013790Y009852D01*
X013790Y009753D02*
X002917Y009753D01*
X002818Y009655D02*
X013790Y009655D01*
X013790Y009556D02*
X002808Y009556D01*
X002906Y009458D02*
X013790Y009458D01*
X013790Y009359D02*
X002977Y009359D01*
X003018Y009261D02*
X013790Y009261D01*
X013790Y009162D02*
X003040Y009162D01*
X003040Y009064D02*
X013790Y009064D01*
X013790Y008965D02*
X003029Y008965D01*
X002988Y008867D02*
X010274Y008867D01*
X010176Y008768D02*
X002932Y008768D01*
X002833Y008670D02*
X010152Y008670D01*
X010152Y008571D02*
X002634Y008571D01*
X002366Y008571D02*
X000750Y008571D01*
X000750Y008473D02*
X010152Y008473D01*
X010234Y008374D02*
X009718Y008374D01*
X009817Y008276D02*
X010290Y008276D01*
X010290Y008177D02*
X009848Y008177D01*
X009848Y008079D02*
X010290Y008079D01*
X010290Y007980D02*
X009848Y007980D01*
X009774Y007882D02*
X010290Y007882D01*
X010290Y007783D02*
X009710Y007783D01*
X009710Y007685D02*
X010290Y007685D01*
X010290Y007586D02*
X009710Y007586D01*
X009710Y007488D02*
X010290Y007488D01*
X010290Y007389D02*
X009710Y007389D01*
X009710Y007291D02*
X010290Y007291D01*
X010290Y007192D02*
X009710Y007192D01*
X009710Y007094D02*
X010290Y007094D01*
X010290Y006995D02*
X009710Y006995D01*
X009710Y006897D02*
X010290Y006897D01*
X010290Y006798D02*
X009710Y006798D01*
X009710Y006700D02*
X010290Y006700D01*
X010290Y006601D02*
X009710Y006601D01*
X009710Y006503D02*
X010290Y006503D01*
X010290Y006404D02*
X009710Y006404D01*
X009710Y006306D02*
X010290Y006306D01*
X010290Y006207D02*
X009710Y006207D01*
X009710Y006109D02*
X010290Y006109D01*
X010290Y006010D02*
X009710Y006010D01*
X009710Y005912D02*
X010290Y005912D01*
X010290Y005813D02*
X009710Y005813D01*
X009710Y005715D02*
X010290Y005715D01*
X010290Y005616D02*
X009710Y005616D01*
X009710Y005518D02*
X010290Y005518D01*
X010290Y005419D02*
X009710Y005419D01*
X009710Y005321D02*
X010290Y005321D01*
X010290Y005222D02*
X009710Y005222D01*
X009710Y005124D02*
X010290Y005124D01*
X010161Y005025D02*
X009839Y005025D01*
X009937Y004927D02*
X010063Y004927D01*
X010010Y004828D02*
X009990Y004828D01*
X009290Y005124D02*
X008720Y005124D01*
X008720Y005222D02*
X009290Y005222D01*
X009290Y005321D02*
X008720Y005321D01*
X008720Y005419D02*
X009290Y005419D01*
X009290Y005518D02*
X008720Y005518D01*
X008720Y005616D02*
X009290Y005616D01*
X009290Y005715D02*
X008720Y005715D01*
X008720Y005813D02*
X009290Y005813D01*
X009290Y005912D02*
X008804Y005912D01*
X008848Y006010D02*
X009290Y006010D01*
X009290Y006109D02*
X008848Y006109D01*
X008848Y006207D02*
X009290Y006207D01*
X009290Y006306D02*
X008787Y006306D01*
X008688Y006404D02*
X009290Y006404D01*
X009290Y006503D02*
X000750Y006503D01*
X000750Y006601D02*
X009290Y006601D01*
X009290Y006700D02*
X000750Y006700D01*
X000750Y006798D02*
X009290Y006798D01*
X009290Y006897D02*
X000750Y006897D01*
X000750Y006995D02*
X009290Y006995D01*
X009290Y007094D02*
X000750Y007094D01*
X000750Y007192D02*
X009290Y007192D01*
X009290Y007291D02*
X000750Y007291D01*
X000750Y007389D02*
X009290Y007389D01*
X009290Y007488D02*
X000750Y007488D01*
X000750Y007586D02*
X009290Y007586D01*
X009290Y007685D02*
X000750Y007685D01*
X000750Y007783D02*
X009290Y007783D01*
X009226Y007882D02*
X000750Y007882D01*
X000750Y007980D02*
X009152Y007980D01*
X009152Y008079D02*
X000750Y008079D01*
X000750Y008177D02*
X009152Y008177D01*
X009183Y008276D02*
X000750Y008276D01*
X000750Y008374D02*
X009282Y008374D01*
X010710Y008276D02*
X013790Y008276D01*
X013790Y008374D02*
X010766Y008374D01*
X010848Y008473D02*
X013790Y008473D01*
X013790Y008571D02*
X010848Y008571D01*
X010848Y008670D02*
X013790Y008670D01*
X013790Y008768D02*
X010824Y008768D01*
X010726Y008867D02*
X013790Y008867D01*
X013790Y008177D02*
X010710Y008177D01*
X010710Y008079D02*
X013790Y008079D01*
X013790Y007980D02*
X010710Y007980D01*
X010710Y007882D02*
X013790Y007882D01*
X013790Y007783D02*
X010710Y007783D01*
X010710Y007685D02*
X013790Y007685D01*
X013790Y007586D02*
X010710Y007586D01*
X010710Y007488D02*
X013790Y007488D01*
X013790Y007389D02*
X010710Y007389D01*
X010710Y007291D02*
X013790Y007291D01*
X013790Y007192D02*
X010710Y007192D01*
X010710Y007094D02*
X013790Y007094D01*
X013790Y006995D02*
X010710Y006995D01*
X010710Y006897D02*
X013790Y006897D01*
X013790Y006798D02*
X010710Y006798D01*
X010710Y006700D02*
X013790Y006700D01*
X013790Y006601D02*
X010710Y006601D01*
X010710Y006503D02*
X013790Y006503D01*
X013790Y006404D02*
X010710Y006404D01*
X010710Y006306D02*
X013790Y006306D01*
X013790Y006207D02*
X010710Y006207D01*
X010710Y006109D02*
X013790Y006109D01*
X013790Y006010D02*
X010710Y006010D01*
X010710Y005912D02*
X013790Y005912D01*
X013790Y005813D02*
X010710Y005813D01*
X010710Y005715D02*
X013790Y005715D01*
X013719Y005616D02*
X010710Y005616D01*
X010710Y005518D02*
X013621Y005518D01*
X013522Y005419D02*
X010710Y005419D01*
X010710Y005321D02*
X013424Y005321D01*
X013500Y005100D02*
X012000Y005100D01*
X011500Y004600D01*
X012000Y004396D02*
X012042Y004294D01*
X012194Y004142D01*
X012290Y004102D01*
X012290Y003437D01*
X012163Y003310D01*
X010507Y003310D01*
X010587Y003390D01*
X010710Y003513D01*
X010710Y004102D01*
X010806Y004142D01*
X010958Y004294D01*
X011000Y004396D01*
X011042Y004294D01*
X011194Y004142D01*
X011393Y004060D01*
X011607Y004060D01*
X011806Y004142D01*
X011958Y004294D01*
X012000Y004396D01*
X011975Y004336D02*
X012025Y004336D01*
X012099Y004237D02*
X011901Y004237D01*
X011797Y004139D02*
X012203Y004139D01*
X012290Y004040D02*
X010710Y004040D01*
X010710Y003942D02*
X012290Y003942D01*
X012290Y003843D02*
X010710Y003843D01*
X010710Y003745D02*
X012290Y003745D01*
X012290Y003646D02*
X010710Y003646D01*
X010710Y003548D02*
X012290Y003548D01*
X012290Y003449D02*
X010646Y003449D01*
X010547Y003351D02*
X012204Y003351D01*
X013387Y002760D02*
X013982Y002760D01*
X013960Y002661D02*
X013486Y002661D01*
X013584Y002563D02*
X013960Y002563D01*
X013972Y002464D02*
X013683Y002464D01*
X013781Y002366D02*
X014013Y002366D01*
X013483Y002070D02*
X012756Y002070D01*
X012797Y001972D02*
X013582Y001972D01*
X013385Y002169D02*
X012674Y002169D01*
X012576Y002267D02*
X013286Y002267D01*
X013188Y002366D02*
X012448Y002366D01*
X011611Y002390D02*
X009710Y002390D01*
X009710Y002382D01*
X009848Y002244D01*
X009848Y001956D01*
X009644Y001752D01*
X009356Y001752D01*
X009152Y001956D01*
X009152Y002244D01*
X009290Y002382D01*
X009290Y002390D01*
X008587Y002390D01*
X007587Y001390D01*
X003100Y001390D01*
X003100Y001318D01*
X003196Y001278D01*
X003348Y001126D01*
X003430Y000927D01*
X003430Y000713D01*
X003348Y000514D01*
X003196Y000362D01*
X003166Y000350D01*
X007758Y000350D01*
X007652Y000456D01*
X007652Y000744D01*
X007856Y000948D01*
X008144Y000948D01*
X008202Y000890D01*
X011467Y000890D01*
X011255Y001102D01*
X011121Y001425D01*
X011121Y001775D01*
X011255Y002098D01*
X011502Y002345D01*
X011611Y002390D01*
X011552Y002366D02*
X009727Y002366D01*
X009825Y002267D02*
X011424Y002267D01*
X011326Y002169D02*
X009848Y002169D01*
X009848Y002070D02*
X011244Y002070D01*
X011203Y001972D02*
X009848Y001972D01*
X009765Y001873D02*
X011162Y001873D01*
X011121Y001775D02*
X009667Y001775D01*
X009333Y001775D02*
X007971Y001775D01*
X008070Y001873D02*
X009235Y001873D01*
X009152Y001972D02*
X008168Y001972D01*
X008267Y002070D02*
X009152Y002070D01*
X009152Y002169D02*
X008365Y002169D01*
X008464Y002267D02*
X009175Y002267D01*
X009273Y002366D02*
X008562Y002366D01*
X008264Y002661D02*
X007608Y002661D01*
X007706Y002760D02*
X008363Y002760D01*
X008166Y002563D02*
X007509Y002563D01*
X007411Y002464D02*
X008067Y002464D01*
X007969Y002366D02*
X007312Y002366D01*
X007265Y002267D02*
X007870Y002267D01*
X007772Y002169D02*
X007290Y002169D01*
X007290Y002070D02*
X007673Y002070D01*
X007575Y001972D02*
X007281Y001972D01*
X007240Y001873D02*
X007476Y001873D01*
X007873Y001676D02*
X011121Y001676D01*
X011121Y001578D02*
X007774Y001578D01*
X007676Y001479D02*
X011121Y001479D01*
X011140Y001381D02*
X003100Y001381D01*
X003186Y001282D02*
X011181Y001282D01*
X011221Y001184D02*
X003290Y001184D01*
X003365Y001085D02*
X011272Y001085D01*
X011371Y000987D02*
X003406Y000987D01*
X003430Y000888D02*
X007796Y000888D01*
X007697Y000790D02*
X003430Y000790D01*
X003421Y000691D02*
X007652Y000691D01*
X007652Y000593D02*
X003380Y000593D01*
X003328Y000494D02*
X007652Y000494D01*
X007712Y000396D02*
X003229Y000396D01*
X002551Y000396D02*
X001410Y000396D01*
X001516Y000494D02*
X002452Y000494D01*
X002400Y000593D02*
X001578Y000593D01*
X001615Y000691D02*
X002359Y000691D01*
X002350Y000790D02*
X001160Y000790D01*
X001160Y000870D02*
X001629Y000870D01*
X001617Y000942D01*
X001592Y001020D01*
X001555Y001093D01*
X001507Y001159D01*
X001449Y001217D01*
X001383Y001265D01*
X001310Y001302D01*
X001232Y001327D01*
X001160Y001339D01*
X001160Y000870D01*
X001160Y000888D02*
X001060Y000888D01*
X001060Y000987D02*
X001160Y000987D01*
X001160Y001085D02*
X001060Y001085D01*
X001060Y001184D02*
X001160Y001184D01*
X001160Y001282D02*
X001060Y001282D01*
X000871Y001282D02*
X000750Y001282D01*
X000750Y001381D02*
X002680Y001381D01*
X002680Y001479D02*
X000750Y001479D01*
X000750Y001578D02*
X002680Y001578D01*
X002680Y001676D02*
X000750Y001676D01*
X000750Y001775D02*
X002680Y001775D01*
X002680Y001873D02*
X000750Y001873D01*
X000750Y001972D02*
X002680Y001972D01*
X002680Y002070D02*
X000750Y002070D01*
X000750Y002169D02*
X002680Y002169D01*
X002680Y002267D02*
X000750Y002267D01*
X000750Y002366D02*
X002680Y002366D01*
X002680Y002464D02*
X000750Y002464D01*
X000750Y002563D02*
X002680Y002563D01*
X002680Y002661D02*
X000750Y002661D01*
X000750Y002760D02*
X002680Y002760D01*
X002680Y002858D02*
X000750Y002858D01*
X000750Y002957D02*
X000808Y002957D01*
X001060Y002957D02*
X001160Y002957D01*
X001160Y002861D02*
X001232Y002873D01*
X001310Y002898D01*
X001383Y002935D01*
X001449Y002983D01*
X001507Y003041D01*
X001555Y003107D01*
X001592Y003180D01*
X001617Y003258D01*
X001629Y003330D01*
X001160Y003330D01*
X001160Y002861D01*
X001160Y003055D02*
X001060Y003055D01*
X001060Y003154D02*
X001160Y003154D01*
X001160Y003252D02*
X001060Y003252D01*
X001160Y003351D02*
X002350Y003351D01*
X002350Y003449D02*
X001626Y003449D01*
X001629Y003430D02*
X001617Y003502D01*
X001592Y003580D01*
X001555Y003653D01*
X001507Y003719D01*
X001449Y003777D01*
X001383Y003825D01*
X001310Y003862D01*
X001232Y003887D01*
X001160Y003899D01*
X001160Y003430D01*
X001629Y003430D01*
X001602Y003548D02*
X002375Y003548D01*
X002416Y003646D02*
X001558Y003646D01*
X001481Y003745D02*
X002491Y003745D01*
X002597Y003843D02*
X001347Y003843D01*
X001160Y003843D02*
X001060Y003843D01*
X001060Y003745D02*
X001160Y003745D01*
X001160Y003646D02*
X001060Y003646D01*
X001060Y003548D02*
X001160Y003548D01*
X001160Y003449D02*
X001060Y003449D01*
X000873Y003843D02*
X000750Y003843D01*
X000750Y003942D02*
X010290Y003942D01*
X010290Y004040D02*
X000750Y004040D01*
X000750Y004139D02*
X006203Y004139D01*
X006099Y004237D02*
X000750Y004237D01*
X000750Y004336D02*
X006025Y004336D01*
X005984Y004434D02*
X000750Y004434D01*
X000750Y004533D02*
X005960Y004533D01*
X005960Y004631D02*
X000750Y004631D01*
X000750Y004730D02*
X005969Y004730D01*
X006010Y004828D02*
X000750Y004828D01*
X000750Y004927D02*
X006063Y004927D01*
X006161Y005025D02*
X000750Y005025D01*
X000750Y005124D02*
X006353Y005124D01*
X006647Y005124D02*
X007290Y005124D01*
X007290Y005222D02*
X000750Y005222D01*
X000750Y005321D02*
X007287Y005321D01*
X007189Y005419D02*
X000750Y005419D01*
X000750Y005518D02*
X007152Y005518D01*
X007152Y005616D02*
X000750Y005616D01*
X000750Y005715D02*
X007152Y005715D01*
X007221Y005813D02*
X000750Y005813D01*
X000750Y005912D02*
X007319Y005912D01*
X007681Y005912D02*
X008196Y005912D01*
X008152Y006010D02*
X000750Y006010D01*
X000750Y006109D02*
X008152Y006109D01*
X008152Y006207D02*
X000750Y006207D01*
X000750Y006306D02*
X008213Y006306D01*
X008312Y006404D02*
X000750Y006404D01*
X000750Y008670D02*
X002167Y008670D01*
X002068Y008768D02*
X000750Y008768D01*
X000750Y008867D02*
X001823Y008867D01*
X001725Y008965D02*
X000750Y008965D01*
X000750Y009064D02*
X001626Y009064D01*
X001528Y009162D02*
X000750Y009162D01*
X000750Y009261D02*
X001429Y009261D01*
X001331Y009359D02*
X000750Y009359D01*
X000750Y009458D02*
X001245Y009458D01*
X001210Y009556D02*
X000750Y009556D01*
X000750Y009655D02*
X001210Y009655D01*
X001210Y009753D02*
X000750Y009753D01*
X000750Y009852D02*
X001210Y009852D01*
X001210Y009950D02*
X000750Y009950D01*
X000750Y010049D02*
X001210Y010049D01*
X001210Y010147D02*
X000750Y010147D01*
X000750Y010246D02*
X001210Y010246D01*
X001210Y010344D02*
X000750Y010344D01*
X000750Y010443D02*
X001210Y010443D01*
X001210Y010541D02*
X000750Y010541D01*
X000750Y010640D02*
X001210Y010640D01*
X001210Y010738D02*
X000750Y010738D01*
X000750Y010837D02*
X001210Y010837D01*
X001210Y010935D02*
X000750Y010935D01*
X000750Y011034D02*
X001210Y011034D01*
X001210Y011132D02*
X000750Y011132D01*
X000750Y011231D02*
X001210Y011231D01*
X001210Y011329D02*
X000750Y011329D01*
X000750Y011428D02*
X001210Y011428D01*
X001210Y011526D02*
X000750Y011526D01*
X000750Y011625D02*
X001210Y011625D01*
X001237Y011723D02*
X000750Y011723D01*
X000750Y011822D02*
X001311Y011822D01*
X001410Y011920D02*
X000750Y011920D01*
X000750Y012019D02*
X001508Y012019D01*
X001607Y012117D02*
X000750Y012117D01*
X000750Y012216D02*
X001705Y012216D01*
X001804Y012314D02*
X000750Y012314D01*
X000750Y012413D02*
X004402Y012413D01*
X004501Y012511D02*
X000750Y012511D01*
X000750Y012610D02*
X004599Y012610D01*
X004698Y012708D02*
X000750Y012708D01*
X000750Y012807D02*
X004796Y012807D01*
X004895Y012905D02*
X000750Y012905D01*
X000750Y013004D02*
X004993Y013004D01*
X005092Y013102D02*
X000750Y013102D01*
X000750Y013201D02*
X002614Y013201D01*
X002506Y013299D02*
X000750Y013299D01*
X000750Y013398D02*
X002445Y013398D01*
X002408Y013496D02*
X000750Y013496D01*
X000750Y013595D02*
X003200Y013595D01*
X003200Y013693D02*
X003300Y013693D01*
X003300Y013595D02*
X007084Y013595D01*
X007152Y013693D02*
X004099Y013693D01*
X004074Y013792D02*
X007199Y013792D01*
X007298Y013890D02*
X004024Y013890D01*
X003300Y013890D02*
X003200Y013890D01*
X003200Y013792D02*
X003300Y013792D01*
X003300Y013989D02*
X003200Y013989D01*
X003200Y014087D02*
X003300Y014087D01*
X002722Y014087D02*
X000750Y014087D01*
X000750Y013989D02*
X002560Y013989D01*
X002476Y013890D02*
X000750Y013890D01*
X000750Y013792D02*
X002426Y013792D01*
X002401Y013693D02*
X000750Y013693D01*
X003200Y013496D02*
X003300Y013496D01*
X003300Y013566D02*
X003300Y013113D01*
X003642Y013113D01*
X003720Y013126D01*
X003795Y013150D01*
X003866Y013186D01*
X003930Y013232D01*
X003986Y013288D01*
X004032Y013352D01*
X004068Y013423D01*
X004093Y013498D01*
X004103Y013566D01*
X003300Y013566D01*
X003300Y013398D02*
X003200Y013398D01*
X003200Y013299D02*
X003300Y013299D01*
X003300Y013201D02*
X003200Y013201D01*
X003886Y013201D02*
X005190Y013201D01*
X005289Y013299D02*
X003994Y013299D01*
X004055Y013398D02*
X006887Y013398D01*
X006986Y013496D02*
X004092Y013496D01*
X006176Y014284D02*
X012380Y014284D01*
X012306Y014383D02*
X006275Y014383D01*
X006348Y014481D02*
X012265Y014481D01*
X012950Y014777D02*
X013050Y014777D01*
X013050Y014875D02*
X012950Y014875D01*
X012950Y014974D02*
X013050Y014974D01*
X003444Y018717D02*
X003344Y018717D01*
X003344Y018699D02*
X003344Y019550D01*
X002493Y019550D01*
X002493Y019541D01*
X002508Y019424D01*
X002539Y019310D01*
X002584Y019201D01*
X002643Y019098D01*
X002715Y019005D01*
X002798Y018921D01*
X002892Y018849D01*
X002994Y018790D01*
X003103Y018745D01*
X003218Y018714D01*
X003335Y018699D01*
X003344Y018699D01*
X003344Y018815D02*
X003444Y018815D01*
X003444Y018914D02*
X003344Y018914D01*
X003344Y019012D02*
X003444Y019012D01*
X003444Y019111D02*
X003344Y019111D01*
X003344Y019209D02*
X003444Y019209D01*
X003444Y019308D02*
X003344Y019308D01*
X003344Y019406D02*
X003444Y019406D01*
X003444Y019505D02*
X003344Y019505D01*
X003344Y019603D02*
X000750Y019603D01*
X000750Y019505D02*
X002497Y019505D01*
X002513Y019406D02*
X000750Y019406D01*
X000750Y019308D02*
X002539Y019308D01*
X002580Y019209D02*
X000750Y019209D01*
X000750Y019111D02*
X002636Y019111D01*
X002709Y019012D02*
X000750Y019012D01*
X000750Y018914D02*
X002808Y018914D01*
X002951Y018815D02*
X000750Y018815D01*
X000750Y018717D02*
X003209Y018717D01*
X002498Y019702D02*
X000750Y019702D01*
X000750Y019800D02*
X002514Y019800D01*
X002542Y019899D02*
X000750Y019899D01*
X000750Y019997D02*
X002583Y019997D01*
X002639Y020096D02*
X000750Y020096D01*
X000750Y020194D02*
X002714Y020194D01*
X002816Y020293D02*
X000750Y020293D01*
X000750Y020391D02*
X002961Y020391D01*
X008500Y006100D02*
X008500Y004600D01*
X008990Y004828D02*
X009010Y004828D01*
X009063Y004927D02*
X008937Y004927D01*
X008839Y005025D02*
X009161Y005025D01*
X008280Y005124D02*
X007710Y005124D01*
X007710Y005222D02*
X008280Y005222D01*
X008280Y005321D02*
X007713Y005321D01*
X007811Y005419D02*
X008280Y005419D01*
X008280Y005518D02*
X007848Y005518D01*
X007848Y005616D02*
X008280Y005616D01*
X008280Y005715D02*
X007848Y005715D01*
X007779Y005813D02*
X008280Y005813D01*
X008161Y005025D02*
X007839Y005025D01*
X007937Y004927D02*
X008063Y004927D01*
X008010Y004828D02*
X007990Y004828D01*
X007975Y004336D02*
X008025Y004336D01*
X008099Y004237D02*
X007901Y004237D01*
X007797Y004139D02*
X008203Y004139D01*
X008797Y004139D02*
X009203Y004139D01*
X009099Y004237D02*
X008901Y004237D01*
X008975Y004336D02*
X009025Y004336D01*
X009797Y004139D02*
X010203Y004139D01*
X010099Y004237D02*
X009901Y004237D01*
X009975Y004336D02*
X010025Y004336D01*
X010797Y004139D02*
X011203Y004139D01*
X011099Y004237D02*
X010901Y004237D01*
X010975Y004336D02*
X011025Y004336D01*
X011010Y004828D02*
X010990Y004828D01*
X010937Y004927D02*
X011063Y004927D01*
X011161Y005025D02*
X010839Y005025D01*
X010710Y005124D02*
X011353Y005124D01*
X011647Y005124D02*
X011712Y005124D01*
X011811Y005222D02*
X010710Y005222D01*
X012797Y004139D02*
X013203Y004139D01*
X013099Y004237D02*
X012901Y004237D01*
X012975Y004336D02*
X013025Y004336D01*
X013797Y004139D02*
X014260Y004139D01*
X014128Y004237D02*
X013901Y004237D01*
X013975Y004336D02*
X014051Y004336D01*
X014450Y004237D02*
X014550Y004237D01*
X014550Y004139D02*
X014450Y004139D01*
X014033Y004828D02*
X013990Y004828D01*
X013937Y004927D02*
X014094Y004927D01*
X014022Y002858D02*
X007805Y002858D01*
X007203Y004139D02*
X006797Y004139D01*
X006901Y004237D02*
X007099Y004237D01*
X007025Y004336D02*
X006975Y004336D01*
X006990Y004828D02*
X007010Y004828D01*
X007063Y004927D02*
X006937Y004927D01*
X006839Y005025D02*
X007161Y005025D01*
X004901Y003548D02*
X003405Y003548D01*
X003430Y003449D02*
X004802Y003449D01*
X004704Y003351D02*
X003430Y003351D01*
X003421Y003252D02*
X004605Y003252D01*
X004540Y003154D02*
X003381Y003154D01*
X003329Y003055D02*
X004540Y003055D01*
X004540Y002957D02*
X003230Y002957D01*
X003100Y002858D02*
X004540Y002858D01*
X004540Y002760D02*
X003100Y002760D01*
X003100Y002661D02*
X004540Y002661D01*
X004456Y002563D02*
X003100Y002563D01*
X003100Y002464D02*
X004350Y002464D01*
X004275Y002366D02*
X003100Y002366D01*
X003100Y002267D02*
X004235Y002267D01*
X004210Y002169D02*
X003100Y002169D01*
X003100Y002070D02*
X004210Y002070D01*
X004219Y001972D02*
X003100Y001972D01*
X003100Y001873D02*
X004260Y001873D01*
X002594Y001282D02*
X001349Y001282D01*
X001482Y001184D02*
X002490Y001184D01*
X002415Y001085D02*
X001559Y001085D01*
X001603Y000987D02*
X002374Y000987D01*
X002350Y000888D02*
X001626Y000888D01*
X001412Y002957D02*
X002550Y002957D01*
X002451Y003055D02*
X001517Y003055D01*
X001578Y003154D02*
X002399Y003154D01*
X002359Y003252D02*
X001615Y003252D01*
X003183Y003843D02*
X010290Y003843D01*
X010290Y003745D02*
X003289Y003745D01*
X003364Y003646D02*
X010249Y003646D01*
D23*
X010500Y003600D02*
X010500Y004600D01*
X010500Y008600D01*
X009500Y008100D02*
X009500Y004600D01*
X010500Y003600D02*
X010250Y003350D01*
X005000Y003350D01*
X004750Y003100D01*
X004750Y002100D01*
X005750Y002100D02*
X005750Y001600D01*
X002890Y001600D01*
X002890Y000820D01*
X002890Y001600D02*
X002890Y003380D01*
X005750Y001600D02*
X007500Y001600D01*
X008500Y002600D01*
X009500Y002600D01*
X009500Y002100D01*
X009500Y002600D02*
X013250Y002600D01*
X013750Y002100D01*
X018000Y002100D01*
X018500Y001600D01*
X019000Y002100D02*
X018500Y002600D01*
X018500Y004600D01*
X019500Y004600D02*
X019500Y003100D01*
X020000Y002600D01*
X028000Y002600D01*
X028500Y002100D01*
X028500Y001600D01*
X027500Y001600D02*
X027000Y002100D01*
X019000Y002100D01*
X020500Y003600D02*
X021000Y003100D01*
X029000Y003100D01*
X029500Y002600D01*
X029500Y001600D01*
X030500Y001600D02*
X030500Y003100D01*
X030000Y003600D01*
X022000Y003600D01*
X021500Y004100D01*
X021500Y004600D01*
X021500Y005100D01*
X021000Y005600D01*
X019500Y005600D01*
X019000Y006100D01*
X019000Y014100D01*
X021500Y016600D01*
X021500Y018350D01*
X022500Y019100D02*
X022500Y016600D01*
X020000Y014100D01*
X020000Y006600D01*
X020500Y006100D01*
X022000Y006100D01*
X022500Y005600D01*
X022500Y004600D01*
X023000Y004100D01*
X030500Y004100D01*
X031000Y003600D01*
X031000Y002100D01*
X034500Y005600D02*
X036500Y005600D01*
X037000Y005100D01*
X038000Y005100D01*
X038500Y005600D01*
X038000Y006100D02*
X038500Y006600D01*
X038000Y007100D02*
X038500Y007600D01*
X038000Y007100D02*
X035500Y007100D01*
X035000Y007100D02*
X025000Y007100D01*
X024500Y007600D02*
X035000Y007600D01*
X036500Y009100D01*
X038000Y009100D01*
X038500Y009600D01*
X038000Y010100D02*
X038500Y010600D01*
X038000Y011100D02*
X038500Y011600D01*
X038000Y011100D02*
X037000Y011100D01*
X034500Y008600D01*
X034500Y008100D02*
X035000Y008100D01*
X037000Y010100D01*
X038500Y008600D02*
X038000Y008100D01*
X036000Y008100D01*
X035000Y007100D01*
X035000Y006600D02*
X025500Y006600D01*
X020500Y004600D02*
X020500Y003600D01*
X016500Y004600D02*
X016000Y005100D01*
X016000Y014600D01*
X017900Y016500D01*
X017900Y017100D01*
X017900Y020600D01*
X018900Y020600D02*
X018900Y017600D01*
X018900Y016500D01*
X016500Y014100D01*
X016500Y010600D01*
X015500Y010600D02*
X015500Y013600D01*
X015000Y014100D02*
X015000Y005100D01*
X015500Y004600D01*
X014000Y005600D02*
X014000Y013600D01*
X015900Y015500D01*
X015900Y020600D01*
X015400Y019100D02*
X013900Y020600D01*
X019900Y020600D02*
X019900Y016600D01*
X019900Y016500D02*
X017500Y014100D01*
X017500Y010600D01*
X018500Y010600D02*
X018500Y014100D01*
X020900Y016500D01*
X020900Y020600D01*
X021900Y020600D02*
X021900Y016500D01*
X019500Y014100D01*
X019500Y010600D01*
X020500Y010600D02*
X020500Y014100D01*
X022900Y016500D01*
X022900Y020600D01*
X024500Y020600D02*
X024500Y016600D01*
X021500Y013600D01*
X021500Y010600D01*
X022500Y010600D02*
X022500Y013600D01*
X025500Y016600D01*
X025500Y020600D01*
X026500Y020600D02*
X026500Y016600D01*
X023500Y013600D01*
X023500Y010600D01*
X024500Y010600D02*
X024500Y013600D01*
X027500Y016600D01*
X027500Y020600D01*
X028500Y020600D02*
X028500Y016600D01*
X029500Y016600D02*
X029500Y020600D01*
X030500Y020600D02*
X030500Y016600D01*
X031500Y016600D02*
X031500Y020600D01*
X032000Y017100D02*
X032000Y016600D01*
X031000Y015600D01*
X031000Y012100D01*
X031500Y012600D02*
X031500Y015600D01*
X032500Y016600D01*
X033000Y016600D02*
X033500Y016600D01*
X034000Y016100D01*
X034000Y012100D01*
X033500Y011600D01*
X032500Y011600D01*
X028500Y010600D02*
X028500Y013600D01*
X027500Y013600D02*
X027500Y010600D01*
X026500Y010600D02*
X026500Y013600D01*
X025500Y013600D02*
X025500Y010600D01*
X034500Y006100D02*
X038000Y006100D01*
X014000Y005600D02*
X013500Y005100D01*
X012500Y004600D02*
X012500Y003350D01*
X012250Y003100D01*
X007750Y003100D01*
X006750Y002100D01*
X007500Y004600D02*
X007500Y005600D01*
D24*
X002500Y009100D02*
X002000Y009100D01*
X001500Y009600D01*
X001500Y011600D01*
X002000Y012100D01*
X004500Y012100D01*
X005500Y013100D01*
X007000Y013100D01*
X007500Y013600D01*
X006000Y014600D02*
X006000Y016569D01*
X004234Y016584D01*
X004234Y016569D01*
X003250Y015584D01*
X006000Y016569D02*
X006000Y019454D01*
X005854Y019600D01*
X006000Y019600D01*
X006500Y020100D01*
X009500Y020100D01*
X009894Y019706D01*
X009894Y019100D01*
X011000Y021600D02*
X039000Y021600D01*
X039500Y021100D01*
X039500Y014600D01*
X038500Y014600D01*
X037500Y014600D01*
X039500Y014600D02*
X039500Y002100D01*
X039000Y001600D01*
X035000Y001600D01*
X035000Y000600D01*
X034000Y001100D02*
X033500Y000600D01*
X023500Y000600D01*
X023500Y001600D01*
X023500Y000600D02*
X008000Y000600D01*
X004000Y010100D02*
X002500Y010100D01*
X004000Y010100D02*
X006500Y012600D01*
X027500Y005100D02*
X027500Y004600D01*
X027500Y005100D02*
X028000Y005600D01*
X033500Y005600D01*
X034500Y004600D01*
X034500Y002100D01*
X035000Y001600D01*
X034000Y001100D02*
X034000Y004100D01*
X033500Y004600D01*
X029500Y004600D01*
M02*
