%
M48
M72
T01C0.0236
T02C0.0315
T03C0.0400
T04C0.0470
T05C0.1102
T06C0.1260
T07C0.1417
%
T01
X6500Y11913
X36500Y7413
X12750Y22663
X16250Y19413
X7250Y16413
X25350Y4813
X8250Y10413
X9250Y10913
X32250Y7413
X15500Y21913
X36750Y19663
X10000Y12163
X8000Y18913
X33750Y4663
X34750Y15913
X34750Y17413
X34750Y14913
X34500Y6413
X36500Y5413
X10500Y5163
X19000Y7413
X40000Y15413
X40000Y17513
X28000Y21313
X30500Y14913
X15000Y4913
X14000Y5413
X15000Y6163
X33500Y21663
X38750Y19163
X36750Y21413
X39850Y22113
X34750Y23913
X34750Y22663
X38900Y23163
X36750Y24263
X36750Y22913
X24750Y24413
X27000Y21413
X31500Y18663
X16750Y22413
X18250Y22413
X10750Y24913
X18250Y20413
X24750Y20413
X17000Y20913
X20900Y20913
X31000Y17913
X20250Y22413
X17000Y19913
X19900Y19913
X33000Y19663
X16500Y16913
X15500Y16413
X14500Y15413
X9000Y3913
X35500Y9413
X27500Y9413
X35500Y8913
X26500Y8913
X23500Y23413
X16500Y23413
X38400Y23913
X38750Y20413
X21500Y22913
X35200Y19713
X22000Y4413
X14500Y4413
X14500Y6413
X18900Y21913
X15500Y20663
X32500Y19663
X16000Y17413
X32000Y21413
X31800Y24513
X2500Y11413
X6000Y7913
X35500Y11913
X11500Y11913
X35500Y11413
X10500Y11413
X24000Y9413
X9500Y9413
X24500Y8913
X8500Y8913
X25000Y8413
X8500Y18413
X6500Y15663
X10500Y5913
X35500Y3913
X12000Y24913
X10750Y22413
X7750Y19663
X38250Y19913
X38250Y20763
X38250Y22413
X22500Y21413
X17000Y21413
T02
X5250Y17519
X5250Y18307
T03
X17500Y13913
X18500Y13913
X19500Y13913
X20500Y13913
X21500Y13913
X22500Y13913
X23500Y13913
X24500Y13913
X25500Y13913
X26500Y13913
X27500Y13913
X28500Y13913
X29500Y13913
X30500Y13913
X17500Y7913
X18500Y7913
X19500Y7913
X20500Y7913
X21500Y7913
X22500Y7913
X23500Y7913
X24500Y7913
X25500Y7913
X26500Y7913
X27500Y7913
X28500Y7913
X29500Y7913
X30500Y7913
X7500Y13913
X8500Y13913
X9500Y13913
X10500Y13913
X11500Y13913
X12500Y13913
X13500Y13913
X14500Y13913
X15500Y13913
X16500Y13913
X7500Y7913
X8500Y7913
X9500Y7913
X10500Y7913
X11500Y7913
X12500Y7913
X13500Y7913
X14500Y7913
X15500Y7913
X16500Y7913
X23900Y23913
X22900Y23913
X21900Y23913
X20900Y23913
X19900Y23913
X18900Y23913
X17900Y23913
X16900Y23913
X15900Y23913
X14900Y23913
X24500Y4913
X23500Y4913
X22500Y4913
X21500Y4913
X20500Y4913
X19500Y4913
X18500Y4913
X17500Y4913
X32500Y23913
X31500Y23913
X30500Y23913
X29500Y23913
X28500Y23913
X27500Y23913
X26500Y23913
X25500Y23913
X32500Y4913
X31500Y4913
X30500Y4913
X29500Y4913
X28500Y4913
X27500Y4913
X32500Y15913
X33500Y15913
X32500Y14913
X33500Y14913
X32500Y13913
X33500Y13913
X14000Y19413
X14000Y18413
X14000Y17413
X3500Y12413
X3500Y13413
X3500Y14413
X2110Y4133
X2110Y6693
X3890Y4133
X3890Y6693
X7750Y5413
X6750Y5413
X5750Y5413
X38500Y17913
X38500Y16913
X38500Y15913
X38500Y14913
X38500Y13913
X38500Y12913
X38500Y11913
X38500Y10913
X38500Y9913
X38500Y8913
X38500Y7913
X38500Y6913
X38500Y5913
X39500Y5913
X39500Y6913
X39500Y7913
X39500Y8913
X39500Y9913
X39500Y10913
X39500Y11913
X39500Y12913
X39500Y13913
X39500Y14913
X39500Y15913
X39500Y16913
X39500Y17913
X16000Y4913
X16000Y5913
X4250Y9163
X3250Y9163
T04
X4250Y18897
X4250Y16929
T05
X3394Y22913
X4732Y21023
T06
X5854Y22913
T07
X13500Y23913
X33500Y17913
X33500Y6913
X13000Y4913
M30
