G75*
G70*
%OFA0B0*%
%FSLAX24Y24*%
%IPPOS*%
%LPD*%
%AMOC8*
5,1,8,0,0,1.08239X$1,22.5*
%
%ADD10C,0.0000*%
%ADD11C,0.0080*%
%ADD12C,0.0030*%
%ADD13C,0.0050*%
D10*
X001500Y003413D02*
X001500Y025409D01*
X040870Y025409D01*
X040870Y003413D01*
X001500Y003413D01*
X012291Y004913D02*
X012293Y004966D01*
X012299Y005019D01*
X012309Y005071D01*
X012322Y005122D01*
X012340Y005172D01*
X012361Y005221D01*
X012386Y005268D01*
X012414Y005312D01*
X012446Y005355D01*
X012480Y005395D01*
X012518Y005433D01*
X012558Y005467D01*
X012601Y005499D01*
X012646Y005527D01*
X012692Y005552D01*
X012741Y005573D01*
X012791Y005591D01*
X012842Y005604D01*
X012894Y005614D01*
X012947Y005620D01*
X013000Y005622D01*
X013053Y005620D01*
X013106Y005614D01*
X013158Y005604D01*
X013209Y005591D01*
X013259Y005573D01*
X013308Y005552D01*
X013355Y005527D01*
X013399Y005499D01*
X013442Y005467D01*
X013482Y005433D01*
X013520Y005395D01*
X013554Y005355D01*
X013586Y005312D01*
X013614Y005267D01*
X013639Y005221D01*
X013660Y005172D01*
X013678Y005122D01*
X013691Y005071D01*
X013701Y005019D01*
X013707Y004966D01*
X013709Y004913D01*
X013707Y004860D01*
X013701Y004807D01*
X013691Y004755D01*
X013678Y004704D01*
X013660Y004654D01*
X013639Y004605D01*
X013614Y004558D01*
X013586Y004514D01*
X013554Y004471D01*
X013520Y004431D01*
X013482Y004393D01*
X013442Y004359D01*
X013399Y004327D01*
X013354Y004299D01*
X013308Y004274D01*
X013259Y004253D01*
X013209Y004235D01*
X013158Y004222D01*
X013106Y004212D01*
X013053Y004206D01*
X013000Y004204D01*
X012947Y004206D01*
X012894Y004212D01*
X012842Y004222D01*
X012791Y004235D01*
X012741Y004253D01*
X012692Y004274D01*
X012645Y004299D01*
X012601Y004327D01*
X012558Y004359D01*
X012518Y004393D01*
X012480Y004431D01*
X012446Y004471D01*
X012414Y004514D01*
X012386Y004559D01*
X012361Y004605D01*
X012340Y004654D01*
X012322Y004704D01*
X012309Y004755D01*
X012299Y004807D01*
X012293Y004860D01*
X012291Y004913D01*
X032791Y006913D02*
X032793Y006966D01*
X032799Y007019D01*
X032809Y007071D01*
X032822Y007122D01*
X032840Y007172D01*
X032861Y007221D01*
X032886Y007268D01*
X032914Y007312D01*
X032946Y007355D01*
X032980Y007395D01*
X033018Y007433D01*
X033058Y007467D01*
X033101Y007499D01*
X033146Y007527D01*
X033192Y007552D01*
X033241Y007573D01*
X033291Y007591D01*
X033342Y007604D01*
X033394Y007614D01*
X033447Y007620D01*
X033500Y007622D01*
X033553Y007620D01*
X033606Y007614D01*
X033658Y007604D01*
X033709Y007591D01*
X033759Y007573D01*
X033808Y007552D01*
X033855Y007527D01*
X033899Y007499D01*
X033942Y007467D01*
X033982Y007433D01*
X034020Y007395D01*
X034054Y007355D01*
X034086Y007312D01*
X034114Y007267D01*
X034139Y007221D01*
X034160Y007172D01*
X034178Y007122D01*
X034191Y007071D01*
X034201Y007019D01*
X034207Y006966D01*
X034209Y006913D01*
X034207Y006860D01*
X034201Y006807D01*
X034191Y006755D01*
X034178Y006704D01*
X034160Y006654D01*
X034139Y006605D01*
X034114Y006558D01*
X034086Y006514D01*
X034054Y006471D01*
X034020Y006431D01*
X033982Y006393D01*
X033942Y006359D01*
X033899Y006327D01*
X033854Y006299D01*
X033808Y006274D01*
X033759Y006253D01*
X033709Y006235D01*
X033658Y006222D01*
X033606Y006212D01*
X033553Y006206D01*
X033500Y006204D01*
X033447Y006206D01*
X033394Y006212D01*
X033342Y006222D01*
X033291Y006235D01*
X033241Y006253D01*
X033192Y006274D01*
X033145Y006299D01*
X033101Y006327D01*
X033058Y006359D01*
X033018Y006393D01*
X032980Y006431D01*
X032946Y006471D01*
X032914Y006514D01*
X032886Y006559D01*
X032861Y006605D01*
X032840Y006654D01*
X032822Y006704D01*
X032809Y006755D01*
X032799Y006807D01*
X032793Y006860D01*
X032791Y006913D01*
X032791Y017913D02*
X032793Y017966D01*
X032799Y018019D01*
X032809Y018071D01*
X032822Y018122D01*
X032840Y018172D01*
X032861Y018221D01*
X032886Y018268D01*
X032914Y018312D01*
X032946Y018355D01*
X032980Y018395D01*
X033018Y018433D01*
X033058Y018467D01*
X033101Y018499D01*
X033146Y018527D01*
X033192Y018552D01*
X033241Y018573D01*
X033291Y018591D01*
X033342Y018604D01*
X033394Y018614D01*
X033447Y018620D01*
X033500Y018622D01*
X033553Y018620D01*
X033606Y018614D01*
X033658Y018604D01*
X033709Y018591D01*
X033759Y018573D01*
X033808Y018552D01*
X033855Y018527D01*
X033899Y018499D01*
X033942Y018467D01*
X033982Y018433D01*
X034020Y018395D01*
X034054Y018355D01*
X034086Y018312D01*
X034114Y018267D01*
X034139Y018221D01*
X034160Y018172D01*
X034178Y018122D01*
X034191Y018071D01*
X034201Y018019D01*
X034207Y017966D01*
X034209Y017913D01*
X034207Y017860D01*
X034201Y017807D01*
X034191Y017755D01*
X034178Y017704D01*
X034160Y017654D01*
X034139Y017605D01*
X034114Y017558D01*
X034086Y017514D01*
X034054Y017471D01*
X034020Y017431D01*
X033982Y017393D01*
X033942Y017359D01*
X033899Y017327D01*
X033854Y017299D01*
X033808Y017274D01*
X033759Y017253D01*
X033709Y017235D01*
X033658Y017222D01*
X033606Y017212D01*
X033553Y017206D01*
X033500Y017204D01*
X033447Y017206D01*
X033394Y017212D01*
X033342Y017222D01*
X033291Y017235D01*
X033241Y017253D01*
X033192Y017274D01*
X033145Y017299D01*
X033101Y017327D01*
X033058Y017359D01*
X033018Y017393D01*
X032980Y017431D01*
X032946Y017471D01*
X032914Y017514D01*
X032886Y017559D01*
X032861Y017605D01*
X032840Y017654D01*
X032822Y017704D01*
X032809Y017755D01*
X032799Y017807D01*
X032793Y017860D01*
X032791Y017913D01*
X012791Y023913D02*
X012793Y023966D01*
X012799Y024019D01*
X012809Y024071D01*
X012822Y024122D01*
X012840Y024172D01*
X012861Y024221D01*
X012886Y024268D01*
X012914Y024312D01*
X012946Y024355D01*
X012980Y024395D01*
X013018Y024433D01*
X013058Y024467D01*
X013101Y024499D01*
X013146Y024527D01*
X013192Y024552D01*
X013241Y024573D01*
X013291Y024591D01*
X013342Y024604D01*
X013394Y024614D01*
X013447Y024620D01*
X013500Y024622D01*
X013553Y024620D01*
X013606Y024614D01*
X013658Y024604D01*
X013709Y024591D01*
X013759Y024573D01*
X013808Y024552D01*
X013855Y024527D01*
X013899Y024499D01*
X013942Y024467D01*
X013982Y024433D01*
X014020Y024395D01*
X014054Y024355D01*
X014086Y024312D01*
X014114Y024267D01*
X014139Y024221D01*
X014160Y024172D01*
X014178Y024122D01*
X014191Y024071D01*
X014201Y024019D01*
X014207Y023966D01*
X014209Y023913D01*
X014207Y023860D01*
X014201Y023807D01*
X014191Y023755D01*
X014178Y023704D01*
X014160Y023654D01*
X014139Y023605D01*
X014114Y023558D01*
X014086Y023514D01*
X014054Y023471D01*
X014020Y023431D01*
X013982Y023393D01*
X013942Y023359D01*
X013899Y023327D01*
X013854Y023299D01*
X013808Y023274D01*
X013759Y023253D01*
X013709Y023235D01*
X013658Y023222D01*
X013606Y023212D01*
X013553Y023206D01*
X013500Y023204D01*
X013447Y023206D01*
X013394Y023212D01*
X013342Y023222D01*
X013291Y023235D01*
X013241Y023253D01*
X013192Y023274D01*
X013145Y023299D01*
X013101Y023327D01*
X013058Y023359D01*
X013018Y023393D01*
X012980Y023431D01*
X012946Y023471D01*
X012914Y023514D01*
X012886Y023559D01*
X012861Y023605D01*
X012840Y023654D01*
X012822Y023704D01*
X012809Y023755D01*
X012799Y023807D01*
X012793Y023860D01*
X012791Y023913D01*
D11*
X018250Y018413D02*
X018250Y016413D01*
X021750Y016413D01*
X021750Y018413D01*
X018250Y018413D01*
X019185Y017307D02*
X019815Y017307D01*
X019815Y017306D02*
X019831Y017301D01*
X019847Y017293D01*
X019861Y017283D01*
X019873Y017271D01*
X019883Y017256D01*
X019890Y017240D01*
X019894Y017223D01*
X019895Y017206D01*
X019893Y017188D01*
X020107Y017188D02*
X020105Y017206D01*
X020106Y017223D01*
X020110Y017240D01*
X020117Y017256D01*
X020127Y017271D01*
X020139Y017283D01*
X020153Y017293D01*
X020169Y017301D01*
X020185Y017306D01*
X020185Y017307D02*
X020815Y017307D01*
X020815Y017306D02*
X020831Y017301D01*
X020847Y017293D01*
X020861Y017283D01*
X020873Y017271D01*
X020883Y017256D01*
X020890Y017240D01*
X020894Y017223D01*
X020895Y017206D01*
X020893Y017188D01*
X020893Y016638D02*
X020895Y016620D01*
X020894Y016603D01*
X020890Y016586D01*
X020883Y016570D01*
X020873Y016555D01*
X020861Y016543D01*
X020847Y016533D01*
X020831Y016525D01*
X020815Y016520D01*
X020815Y016519D02*
X020185Y016519D01*
X020185Y016520D02*
X020169Y016525D01*
X020153Y016533D01*
X020139Y016543D01*
X020127Y016555D01*
X020117Y016570D01*
X020110Y016586D01*
X020106Y016603D01*
X020105Y016620D01*
X020107Y016638D01*
X019893Y016638D02*
X019895Y016620D01*
X019894Y016603D01*
X019890Y016586D01*
X019883Y016570D01*
X019873Y016555D01*
X019861Y016543D01*
X019847Y016533D01*
X019831Y016525D01*
X019815Y016520D01*
X019815Y016519D02*
X019185Y016519D01*
X019185Y016520D02*
X019169Y016525D01*
X019153Y016533D01*
X019139Y016543D01*
X019127Y016555D01*
X019117Y016570D01*
X019110Y016586D01*
X019106Y016603D01*
X019105Y016620D01*
X019107Y016638D01*
X019107Y017188D02*
X019105Y017206D01*
X019106Y017223D01*
X019110Y017240D01*
X019117Y017256D01*
X019127Y017271D01*
X019139Y017283D01*
X019153Y017293D01*
X019169Y017301D01*
X019185Y017306D01*
X023500Y020913D02*
X026250Y020913D01*
X026250Y022663D01*
X023500Y022663D01*
X023500Y020913D01*
X023935Y021519D02*
X024565Y021519D01*
X024565Y021520D02*
X024581Y021525D01*
X024597Y021533D01*
X024611Y021543D01*
X024623Y021555D01*
X024633Y021570D01*
X024640Y021586D01*
X024644Y021603D01*
X024645Y021620D01*
X024643Y021638D01*
X024857Y021638D02*
X024855Y021620D01*
X024856Y021603D01*
X024860Y021586D01*
X024867Y021570D01*
X024877Y021555D01*
X024889Y021543D01*
X024903Y021533D01*
X024919Y021525D01*
X024935Y021520D01*
X024935Y021519D02*
X025565Y021519D01*
X025565Y021520D02*
X025581Y021525D01*
X025597Y021533D01*
X025611Y021543D01*
X025623Y021555D01*
X025633Y021570D01*
X025640Y021586D01*
X025644Y021603D01*
X025645Y021620D01*
X025643Y021638D01*
X025643Y022188D02*
X025645Y022206D01*
X025644Y022223D01*
X025640Y022240D01*
X025633Y022256D01*
X025623Y022271D01*
X025611Y022283D01*
X025597Y022293D01*
X025581Y022301D01*
X025565Y022306D01*
X025565Y022307D02*
X024935Y022307D01*
X024935Y022306D02*
X024919Y022301D01*
X024903Y022293D01*
X024889Y022283D01*
X024877Y022271D01*
X024867Y022256D01*
X024860Y022240D01*
X024856Y022223D01*
X024855Y022206D01*
X024857Y022188D01*
X024643Y022188D02*
X024645Y022206D01*
X024644Y022223D01*
X024640Y022240D01*
X024633Y022256D01*
X024623Y022271D01*
X024611Y022283D01*
X024597Y022293D01*
X024581Y022301D01*
X024565Y022306D01*
X024565Y022307D02*
X023935Y022307D01*
X023935Y022306D02*
X023919Y022301D01*
X023903Y022293D01*
X023889Y022283D01*
X023877Y022271D01*
X023867Y022256D01*
X023860Y022240D01*
X023856Y022223D01*
X023855Y022206D01*
X023857Y022188D01*
X023857Y021638D02*
X023855Y021620D01*
X023856Y021603D01*
X023860Y021586D01*
X023867Y021570D01*
X023877Y021555D01*
X023889Y021543D01*
X023903Y021533D01*
X023919Y021525D01*
X023935Y021520D01*
X034500Y020913D02*
X034500Y018913D01*
X038000Y018913D02*
X038000Y020913D01*
X038000Y022413D02*
X038000Y024413D01*
X034500Y024413D02*
X034500Y022413D01*
D12*
X034484Y022113D02*
X034580Y022113D01*
X034629Y022064D01*
X034629Y021871D01*
X034580Y021822D01*
X034484Y021822D01*
X034435Y021871D01*
X034334Y021871D02*
X034334Y021919D01*
X034286Y021968D01*
X034189Y021968D01*
X034141Y021919D01*
X034141Y021871D01*
X034189Y021822D01*
X034286Y021822D01*
X034334Y021871D01*
X034286Y021968D02*
X034334Y022016D01*
X034334Y022064D01*
X034286Y022113D01*
X034189Y022113D01*
X034141Y022064D01*
X034141Y022016D01*
X034189Y021968D01*
X034435Y022064D02*
X034484Y022113D01*
X032629Y022521D02*
X032580Y022472D01*
X032484Y022472D01*
X032435Y022521D01*
X032334Y022521D02*
X032286Y022472D01*
X032189Y022472D01*
X032141Y022521D01*
X032141Y022569D01*
X032189Y022618D01*
X032334Y022618D01*
X032334Y022521D01*
X032334Y022618D02*
X032237Y022714D01*
X032141Y022763D01*
X032435Y022714D02*
X032484Y022763D01*
X032580Y022763D01*
X032629Y022714D01*
X032629Y022521D01*
X035350Y024626D02*
X035399Y024578D01*
X035496Y024578D01*
X035544Y024626D01*
X035645Y024626D02*
X035693Y024578D01*
X035790Y024578D01*
X035839Y024626D01*
X035839Y024820D01*
X035790Y024868D01*
X035693Y024868D01*
X035645Y024820D01*
X035544Y024820D02*
X035496Y024868D01*
X035399Y024868D01*
X035350Y024820D01*
X035350Y024771D01*
X035399Y024723D01*
X035350Y024675D01*
X035350Y024626D01*
X035399Y024723D02*
X035447Y024723D01*
X035938Y024578D02*
X036035Y024578D01*
X035987Y024578D02*
X035987Y024868D01*
X036035Y024868D02*
X035938Y024868D01*
X038850Y024820D02*
X038899Y024868D01*
X038996Y024868D01*
X039044Y024820D01*
X039145Y024820D02*
X039193Y024868D01*
X039290Y024868D01*
X039339Y024820D01*
X039339Y024626D01*
X039290Y024578D01*
X039193Y024578D01*
X039145Y024626D01*
X039044Y024578D02*
X038850Y024771D01*
X038850Y024820D01*
X038850Y024578D02*
X039044Y024578D01*
X039438Y024578D02*
X039535Y024578D01*
X039487Y024578D02*
X039487Y024868D01*
X039535Y024868D02*
X039438Y024868D01*
X039430Y022213D02*
X039479Y022164D01*
X039479Y021971D01*
X039430Y021922D01*
X039334Y021922D01*
X039285Y021971D01*
X039184Y021971D02*
X039136Y021922D01*
X039039Y021922D01*
X038991Y021971D01*
X038991Y022068D01*
X039039Y022116D01*
X039087Y022116D01*
X039184Y022068D01*
X039184Y022213D01*
X038991Y022213D01*
X039285Y022164D02*
X039334Y022213D01*
X039430Y022213D01*
X037931Y022055D02*
X037931Y021862D01*
X037882Y021814D01*
X037785Y021814D01*
X037737Y021862D01*
X037636Y021862D02*
X037636Y021814D01*
X037636Y021862D02*
X037442Y022055D01*
X037442Y022104D01*
X037636Y022104D01*
X037737Y022055D02*
X037785Y022104D01*
X037882Y022104D01*
X037931Y022055D01*
X039049Y018868D02*
X039194Y018723D01*
X039000Y018723D01*
X039049Y018578D02*
X039049Y018868D01*
X039295Y018820D02*
X039343Y018868D01*
X039440Y018868D01*
X039489Y018820D01*
X039489Y018626D01*
X039440Y018578D01*
X039343Y018578D01*
X039295Y018626D01*
X039588Y018578D02*
X039685Y018578D01*
X039637Y018578D02*
X039637Y018868D01*
X039685Y018868D02*
X039588Y018868D01*
X036571Y018748D02*
X036474Y018748D01*
X036522Y018748D02*
X036522Y018458D01*
X036474Y018458D02*
X036571Y018458D01*
X036374Y018506D02*
X036326Y018458D01*
X036229Y018458D01*
X036181Y018506D01*
X036080Y018506D02*
X036031Y018458D01*
X035935Y018458D01*
X035886Y018506D01*
X035886Y018603D01*
X035935Y018651D01*
X035983Y018651D01*
X036080Y018603D01*
X036080Y018748D01*
X035886Y018748D01*
X036181Y018700D02*
X036229Y018748D01*
X036326Y018748D01*
X036374Y018700D01*
X036374Y018506D01*
X029869Y014848D02*
X029724Y014848D01*
X029675Y014800D01*
X029675Y014703D01*
X029724Y014655D01*
X029869Y014655D01*
X029772Y014655D02*
X029675Y014558D01*
X029574Y014558D02*
X029381Y014558D01*
X029478Y014558D02*
X029478Y014848D01*
X029574Y014751D01*
X029280Y014800D02*
X029231Y014848D01*
X029135Y014848D01*
X029086Y014800D01*
X029086Y014751D01*
X029135Y014703D01*
X029086Y014655D01*
X029086Y014606D01*
X029135Y014558D01*
X029231Y014558D01*
X029280Y014606D01*
X029183Y014703D02*
X029135Y014703D01*
X028869Y014655D02*
X028724Y014655D01*
X028675Y014703D01*
X028675Y014800D01*
X028724Y014848D01*
X028869Y014848D01*
X028869Y014558D01*
X028772Y014655D02*
X028675Y014558D01*
X028574Y014558D02*
X028381Y014558D01*
X028478Y014558D02*
X028478Y014848D01*
X028574Y014751D01*
X028280Y014703D02*
X028086Y014703D01*
X028135Y014558D02*
X028135Y014848D01*
X028280Y014703D01*
X027869Y014655D02*
X027724Y014655D01*
X027675Y014703D01*
X027675Y014800D01*
X027724Y014848D01*
X027869Y014848D01*
X027869Y014558D01*
X027772Y014655D02*
X027675Y014558D01*
X027574Y014558D02*
X027381Y014558D01*
X027478Y014558D02*
X027478Y014848D01*
X027574Y014751D01*
X027280Y014703D02*
X027183Y014751D01*
X027135Y014751D01*
X027086Y014703D01*
X027086Y014606D01*
X027135Y014558D01*
X027231Y014558D01*
X027280Y014606D01*
X027280Y014703D02*
X027280Y014848D01*
X027086Y014848D01*
X026869Y014848D02*
X026724Y014848D01*
X026675Y014800D01*
X026675Y014703D01*
X026724Y014655D01*
X026869Y014655D01*
X026772Y014655D02*
X026675Y014558D01*
X026574Y014558D02*
X026381Y014558D01*
X026478Y014558D02*
X026478Y014848D01*
X026574Y014751D01*
X026280Y014703D02*
X026135Y014703D01*
X026086Y014655D01*
X026086Y014606D01*
X026135Y014558D01*
X026231Y014558D01*
X026280Y014606D01*
X026280Y014703D01*
X026183Y014800D01*
X026086Y014848D01*
X025869Y014848D02*
X025724Y014848D01*
X025675Y014800D01*
X025675Y014703D01*
X025724Y014655D01*
X025869Y014655D01*
X025772Y014655D02*
X025675Y014558D01*
X025574Y014558D02*
X025381Y014558D01*
X025478Y014558D02*
X025478Y014848D01*
X025574Y014751D01*
X025280Y014848D02*
X025086Y014848D01*
X025086Y014800D01*
X025280Y014606D01*
X025280Y014558D01*
X024869Y014558D02*
X024869Y014848D01*
X024724Y014848D01*
X024675Y014800D01*
X024675Y014703D01*
X024724Y014655D01*
X024869Y014655D01*
X024772Y014655D02*
X024675Y014558D01*
X024574Y014558D02*
X024381Y014558D01*
X024478Y014558D02*
X024478Y014848D01*
X024574Y014751D01*
X024280Y014751D02*
X024280Y014800D01*
X024231Y014848D01*
X024135Y014848D01*
X024086Y014800D01*
X024086Y014751D01*
X024135Y014703D01*
X024231Y014703D01*
X024280Y014751D01*
X024231Y014703D02*
X024280Y014655D01*
X024280Y014606D01*
X024231Y014558D01*
X024135Y014558D01*
X024086Y014606D01*
X024086Y014655D01*
X024135Y014703D01*
X023869Y014655D02*
X023724Y014655D01*
X023675Y014703D01*
X023675Y014800D01*
X023724Y014848D01*
X023869Y014848D01*
X023869Y014558D01*
X023772Y014655D02*
X023675Y014558D01*
X023574Y014558D02*
X023381Y014558D01*
X023478Y014558D02*
X023478Y014848D01*
X023574Y014751D01*
X023280Y014751D02*
X023231Y014703D01*
X023086Y014703D01*
X023086Y014606D02*
X023086Y014800D01*
X023135Y014848D01*
X023231Y014848D01*
X023280Y014800D01*
X023280Y014751D01*
X023280Y014606D02*
X023231Y014558D01*
X023135Y014558D01*
X023086Y014606D01*
X022869Y014558D02*
X022869Y014848D01*
X022724Y014848D01*
X022675Y014800D01*
X022675Y014703D01*
X022724Y014655D01*
X022869Y014655D01*
X022772Y014655D02*
X022675Y014558D01*
X022574Y014558D02*
X022381Y014751D01*
X022381Y014800D01*
X022429Y014848D01*
X022526Y014848D01*
X022574Y014800D01*
X022574Y014558D02*
X022381Y014558D01*
X022280Y014606D02*
X022086Y014800D01*
X022086Y014606D01*
X022135Y014558D01*
X022231Y014558D01*
X022280Y014606D01*
X022280Y014800D01*
X022231Y014848D01*
X022135Y014848D01*
X022086Y014800D01*
X021874Y014848D02*
X021729Y014848D01*
X021681Y014800D01*
X021681Y014703D01*
X021729Y014655D01*
X021874Y014655D01*
X021778Y014655D02*
X021681Y014558D01*
X021580Y014606D02*
X021531Y014558D01*
X021435Y014558D01*
X021386Y014606D01*
X021386Y014703D01*
X021435Y014751D01*
X021483Y014751D01*
X021580Y014703D01*
X021580Y014848D01*
X021386Y014848D01*
X021874Y014848D02*
X021874Y014558D01*
X020874Y014558D02*
X020874Y014848D01*
X020729Y014848D01*
X020681Y014800D01*
X020681Y014703D01*
X020729Y014655D01*
X020874Y014655D01*
X020778Y014655D02*
X020681Y014558D01*
X020580Y014606D02*
X020531Y014558D01*
X020435Y014558D01*
X020386Y014606D01*
X020386Y014655D01*
X020435Y014703D01*
X020580Y014703D01*
X020580Y014606D01*
X020580Y014703D02*
X020483Y014800D01*
X020386Y014848D01*
X019874Y014848D02*
X019729Y014848D01*
X019681Y014800D01*
X019681Y014703D01*
X019729Y014655D01*
X019874Y014655D01*
X019778Y014655D02*
X019681Y014558D01*
X019580Y014558D02*
X019580Y014606D01*
X019386Y014800D01*
X019386Y014848D01*
X019580Y014848D01*
X019874Y014848D02*
X019874Y014558D01*
X018874Y014558D02*
X018874Y014848D01*
X018729Y014848D01*
X018681Y014800D01*
X018681Y014703D01*
X018729Y014655D01*
X018874Y014655D01*
X018778Y014655D02*
X018681Y014558D01*
X018580Y014606D02*
X018580Y014655D01*
X018531Y014703D01*
X018435Y014703D01*
X018386Y014655D01*
X018386Y014606D01*
X018435Y014558D01*
X018531Y014558D01*
X018580Y014606D01*
X018531Y014703D02*
X018580Y014751D01*
X018580Y014800D01*
X018531Y014848D01*
X018435Y014848D01*
X018386Y014800D01*
X018386Y014751D01*
X018435Y014703D01*
X017874Y014655D02*
X017729Y014655D01*
X017681Y014703D01*
X017681Y014800D01*
X017729Y014848D01*
X017874Y014848D01*
X017874Y014558D01*
X017778Y014655D02*
X017681Y014558D01*
X017580Y014606D02*
X017531Y014558D01*
X017435Y014558D01*
X017386Y014606D01*
X017386Y014800D01*
X017435Y014848D01*
X017531Y014848D01*
X017580Y014800D01*
X017580Y014751D01*
X017531Y014703D01*
X017386Y014703D01*
X018918Y017528D02*
X019042Y017528D01*
X019103Y017590D01*
X018856Y017837D01*
X018856Y017590D01*
X018918Y017528D01*
X019103Y017590D02*
X019103Y017837D01*
X019042Y017898D01*
X018918Y017898D01*
X018856Y017837D01*
X019225Y017528D02*
X019472Y017528D01*
X019348Y017528D02*
X019348Y017898D01*
X019472Y017775D01*
X019593Y017837D02*
X019593Y017590D01*
X019655Y017528D01*
X019840Y017528D01*
X019840Y017898D01*
X019655Y017898D01*
X019593Y017837D01*
X020356Y017837D02*
X020356Y017590D01*
X020418Y017528D01*
X020542Y017528D01*
X020603Y017590D01*
X020725Y017590D02*
X020725Y017837D01*
X020786Y017898D01*
X020972Y017898D01*
X020972Y017528D01*
X020786Y017528D01*
X020725Y017590D01*
X020542Y017713D02*
X020603Y017775D01*
X020603Y017837D01*
X020542Y017898D01*
X020418Y017898D01*
X020356Y017837D01*
X020356Y017713D02*
X020542Y017713D01*
X020567Y018528D02*
X020505Y018590D01*
X020567Y018528D02*
X020690Y018528D01*
X020752Y018590D01*
X020752Y018837D01*
X020690Y018898D01*
X020567Y018898D01*
X020505Y018837D01*
X020322Y018775D02*
X020198Y018775D01*
X020137Y018713D01*
X020137Y018528D01*
X020322Y018528D01*
X020384Y018590D01*
X020322Y018651D01*
X020137Y018651D01*
X020015Y018651D02*
X019892Y018775D01*
X019830Y018775D01*
X019708Y018713D02*
X019647Y018775D01*
X019461Y018775D01*
X019461Y018898D02*
X019461Y018528D01*
X019647Y018528D01*
X019708Y018590D01*
X019708Y018713D01*
X020015Y018775D02*
X020015Y018528D01*
X018972Y018590D02*
X018972Y018837D01*
X018910Y018898D01*
X018786Y018898D01*
X018725Y018837D01*
X018603Y018837D02*
X018603Y018775D01*
X018542Y018713D01*
X018418Y018713D01*
X018356Y018651D01*
X018356Y018590D01*
X018418Y018528D01*
X018542Y018528D01*
X018603Y018590D01*
X018725Y018590D02*
X018786Y018528D01*
X018910Y018528D01*
X018972Y018590D01*
X018603Y018837D02*
X018542Y018898D01*
X018418Y018898D01*
X018356Y018837D01*
X021242Y018837D02*
X021242Y018590D01*
X021303Y018528D01*
X021488Y018528D01*
X021488Y018898D01*
X021303Y018898D01*
X021242Y018837D01*
X021610Y018837D02*
X021672Y018898D01*
X021795Y018898D01*
X021857Y018837D01*
X021857Y018775D01*
X021795Y018713D01*
X021672Y018713D01*
X021610Y018651D01*
X021610Y018590D01*
X021672Y018528D01*
X021795Y018528D01*
X021857Y018590D01*
X024168Y021028D02*
X024292Y021028D01*
X024353Y021090D01*
X024353Y021151D01*
X024292Y021213D01*
X024168Y021213D01*
X024106Y021151D01*
X024106Y021090D01*
X024168Y021028D01*
X024168Y021213D02*
X024106Y021275D01*
X024106Y021337D01*
X024168Y021398D01*
X024292Y021398D01*
X024353Y021337D01*
X024353Y021275D01*
X024292Y021213D01*
X024475Y021090D02*
X024475Y021337D01*
X024536Y021398D01*
X024722Y021398D01*
X024722Y021028D01*
X024536Y021028D01*
X024475Y021090D01*
X025106Y021337D02*
X025353Y021090D01*
X025353Y021028D01*
X025475Y021090D02*
X025475Y021337D01*
X025536Y021398D01*
X025722Y021398D01*
X025722Y021028D01*
X025536Y021028D01*
X025475Y021090D01*
X025353Y021398D02*
X025106Y021398D01*
X025106Y021337D01*
X025062Y022778D02*
X025247Y022778D01*
X025309Y022840D01*
X025309Y022963D01*
X025247Y023025D01*
X025062Y023025D01*
X025062Y023148D02*
X025062Y022778D01*
X025431Y023025D02*
X025492Y023025D01*
X025616Y022901D01*
X025737Y022901D02*
X025922Y022901D01*
X025984Y022840D01*
X025922Y022778D01*
X025737Y022778D01*
X025737Y022963D01*
X025799Y023025D01*
X025922Y023025D01*
X026105Y023087D02*
X026167Y023148D01*
X026291Y023148D01*
X026352Y023087D01*
X026352Y022840D01*
X026291Y022778D01*
X026167Y022778D01*
X026105Y022840D01*
X025616Y022778D02*
X025616Y023025D01*
X024572Y022963D02*
X024510Y023025D01*
X024325Y023025D01*
X024325Y023148D02*
X024325Y022778D01*
X024510Y022778D01*
X024572Y022840D01*
X024572Y022963D01*
X024204Y022963D02*
X024142Y023025D01*
X024019Y023025D01*
X023957Y022963D01*
X023957Y022901D01*
X024204Y022901D01*
X024204Y022840D02*
X024204Y022963D01*
X024204Y022840D02*
X024142Y022778D01*
X024019Y022778D01*
X023835Y022840D02*
X023835Y022963D01*
X023774Y023025D01*
X023589Y023025D01*
X023589Y023148D02*
X023589Y022778D01*
X023774Y022778D01*
X023835Y022840D01*
X023467Y022840D02*
X023467Y022963D01*
X023405Y023025D01*
X023282Y023025D01*
X023220Y022963D01*
X023220Y022901D01*
X023467Y022901D01*
X023467Y022840D02*
X023405Y022778D01*
X023282Y022778D01*
X023099Y022840D02*
X023037Y022778D01*
X022852Y022778D01*
X022669Y022840D02*
X022607Y022778D01*
X022669Y022840D02*
X022669Y023087D01*
X022731Y023025D02*
X022607Y023025D01*
X022852Y023025D02*
X023037Y023025D01*
X023099Y022963D01*
X023099Y022840D01*
X026842Y022840D02*
X026904Y022778D01*
X027089Y022778D01*
X027089Y023148D01*
X026904Y023148D01*
X026842Y023087D01*
X026842Y022840D01*
X027210Y022840D02*
X027272Y022778D01*
X027396Y022778D01*
X027457Y022840D01*
X027396Y022963D02*
X027272Y022963D01*
X027210Y022901D01*
X027210Y022840D01*
X027396Y022963D02*
X027457Y023025D01*
X027457Y023087D01*
X027396Y023148D01*
X027272Y023148D01*
X027210Y023087D01*
X026869Y014848D02*
X026869Y014558D01*
X025869Y014558D02*
X025869Y014848D01*
X029869Y014848D02*
X029869Y014558D01*
X021569Y008998D02*
X021424Y008998D01*
X021375Y008950D01*
X021375Y008853D01*
X021424Y008805D01*
X021569Y008805D01*
X021472Y008805D02*
X021375Y008708D01*
X021274Y008708D02*
X021081Y008708D01*
X021178Y008708D02*
X021178Y008998D01*
X021274Y008901D01*
X020980Y008950D02*
X020980Y008756D01*
X020786Y008950D01*
X020786Y008756D01*
X020835Y008708D01*
X020931Y008708D01*
X020980Y008756D01*
X020980Y008950D02*
X020931Y008998D01*
X020835Y008998D01*
X020786Y008950D01*
X021569Y008998D02*
X021569Y008708D01*
X019569Y008708D02*
X019569Y008998D01*
X019424Y008998D01*
X019375Y008950D01*
X019375Y008853D01*
X019424Y008805D01*
X019569Y008805D01*
X019472Y008805D02*
X019375Y008708D01*
X019274Y008708D02*
X019081Y008708D01*
X019178Y008708D02*
X019178Y008998D01*
X019274Y008901D01*
X018980Y008901D02*
X018883Y008998D01*
X018883Y008708D01*
X018980Y008708D02*
X018786Y008708D01*
X017569Y008708D02*
X017569Y008998D01*
X017424Y008998D01*
X017375Y008950D01*
X017375Y008853D01*
X017424Y008805D01*
X017569Y008805D01*
X017472Y008805D02*
X017375Y008708D01*
X017274Y008708D02*
X017081Y008901D01*
X017081Y008950D01*
X017129Y008998D01*
X017226Y008998D01*
X017274Y008950D01*
X017274Y008708D02*
X017081Y008708D01*
X016980Y008853D02*
X016786Y008853D01*
X016835Y008708D02*
X016835Y008998D01*
X016980Y008853D01*
X018085Y006498D02*
X018036Y006450D01*
X018036Y006401D01*
X018085Y006353D01*
X018036Y006305D01*
X018036Y006256D01*
X018085Y006208D01*
X018181Y006208D01*
X018230Y006256D01*
X018331Y006208D02*
X018524Y006208D01*
X018331Y006401D01*
X018331Y006450D01*
X018379Y006498D01*
X018476Y006498D01*
X018524Y006450D01*
X018625Y006450D02*
X018625Y006353D01*
X018674Y006305D01*
X018819Y006305D01*
X018722Y006305D02*
X018625Y006208D01*
X018819Y006208D02*
X018819Y006498D01*
X018674Y006498D01*
X018625Y006450D01*
X018230Y006450D02*
X018181Y006498D01*
X018085Y006498D01*
X018085Y006353D02*
X018133Y006353D01*
X022752Y006328D02*
X022946Y006328D01*
X022849Y006328D02*
X022849Y006618D01*
X022946Y006521D01*
X023047Y006521D02*
X023047Y006570D01*
X023095Y006618D01*
X023192Y006618D01*
X023240Y006570D01*
X023342Y006570D02*
X023342Y006473D01*
X023390Y006425D01*
X023535Y006425D01*
X023438Y006425D02*
X023342Y006328D01*
X023240Y006328D02*
X023047Y006521D01*
X023047Y006328D02*
X023240Y006328D01*
X023342Y006570D02*
X023390Y006618D01*
X023535Y006618D01*
X023535Y006328D01*
X024502Y006828D02*
X024696Y006828D01*
X024502Y007021D01*
X024502Y007070D01*
X024551Y007118D01*
X024647Y007118D01*
X024696Y007070D01*
X024894Y007118D02*
X024894Y006828D01*
X024990Y006828D02*
X024797Y006828D01*
X024990Y007021D02*
X024894Y007118D01*
X025092Y007070D02*
X025092Y006973D01*
X025140Y006925D01*
X025285Y006925D01*
X025188Y006925D02*
X025092Y006828D01*
X025285Y006828D02*
X025285Y007118D01*
X025140Y007118D01*
X025092Y007070D01*
X025835Y004998D02*
X025931Y004998D01*
X025980Y004950D01*
X026081Y004950D02*
X026129Y004998D01*
X026226Y004998D01*
X026274Y004950D01*
X026375Y004950D02*
X026375Y004853D01*
X026424Y004805D01*
X026569Y004805D01*
X026472Y004805D02*
X026375Y004708D01*
X026274Y004708D02*
X026081Y004901D01*
X026081Y004950D01*
X026081Y004708D02*
X026274Y004708D01*
X026375Y004950D02*
X026424Y004998D01*
X026569Y004998D01*
X026569Y004708D01*
X025980Y004708D02*
X025786Y004901D01*
X025786Y004950D01*
X025835Y004998D01*
X025786Y004708D02*
X025980Y004708D01*
D13*
X011870Y016303D02*
X008248Y016303D01*
X008207Y016301D01*
X008166Y016303D01*
X008125Y016309D01*
X008084Y016318D01*
X008045Y016330D01*
X008007Y016346D01*
X007970Y016365D01*
X007936Y016388D01*
X007903Y016413D01*
X007872Y016441D01*
X007845Y016472D01*
X007820Y016505D01*
X007798Y016540D01*
X007779Y016576D01*
X007763Y016615D01*
X007751Y016654D01*
X007742Y016695D01*
X007737Y016736D01*
X008248Y017799D02*
X011870Y017799D01*
X011870Y018153D02*
X008248Y018153D01*
X008248Y017799D02*
X008207Y017797D01*
X008166Y017799D01*
X008125Y017805D01*
X008084Y017814D01*
X008045Y017826D01*
X008007Y017842D01*
X007970Y017861D01*
X007936Y017884D01*
X007903Y017909D01*
X007872Y017937D01*
X007845Y017968D01*
X007820Y018001D01*
X007798Y018036D01*
X007779Y018072D01*
X007763Y018111D01*
X007751Y018150D01*
X007742Y018191D01*
X007737Y018232D01*
X007382Y018452D02*
X007384Y018501D01*
X007390Y018551D01*
X007399Y018599D01*
X007413Y018647D01*
X007430Y018693D01*
X007451Y018738D01*
X007475Y018781D01*
X007502Y018822D01*
X007533Y018861D01*
X007567Y018897D01*
X007603Y018931D01*
X007642Y018962D01*
X007683Y018989D01*
X007726Y019013D01*
X007771Y019034D01*
X007817Y019051D01*
X007865Y019065D01*
X007913Y019074D01*
X007963Y019080D01*
X008012Y019082D01*
X011831Y019082D01*
X011830Y019082D02*
X011863Y019076D01*
X011895Y019067D01*
X011926Y019054D01*
X011955Y019038D01*
X011982Y019020D01*
X012008Y018998D01*
X012031Y018974D01*
X012051Y018948D01*
X012069Y018920D01*
X012083Y018890D01*
X012094Y018859D01*
X012102Y018827D01*
X012107Y018794D01*
X012108Y018761D01*
X012106Y018728D01*
X012500Y018728D01*
X012500Y024397D01*
X006988Y024397D01*
X006988Y018452D01*
X007382Y018452D01*
X007737Y018587D02*
X007742Y018546D01*
X007751Y018505D01*
X007763Y018466D01*
X007779Y018427D01*
X007798Y018391D01*
X007820Y018356D01*
X007845Y018323D01*
X007872Y018292D01*
X007903Y018264D01*
X007936Y018239D01*
X007970Y018216D01*
X008007Y018197D01*
X008045Y018181D01*
X008084Y018169D01*
X008125Y018160D01*
X008166Y018154D01*
X008207Y018152D01*
X008248Y018154D01*
X011870Y017799D02*
X011911Y017801D01*
X011952Y017806D01*
X011992Y017815D01*
X012031Y017827D01*
X012069Y017843D01*
X012106Y017862D01*
X012141Y017884D01*
X012173Y017909D01*
X012204Y017937D01*
X012232Y017968D01*
X012257Y018000D01*
X012279Y018035D01*
X012298Y018072D01*
X012314Y018110D01*
X012326Y018149D01*
X012335Y018189D01*
X012340Y018230D01*
X012342Y018271D01*
X012342Y018626D02*
X012340Y018585D01*
X012335Y018544D01*
X012326Y018504D01*
X012314Y018465D01*
X012298Y018427D01*
X012279Y018390D01*
X012257Y018355D01*
X012232Y018323D01*
X012204Y018292D01*
X012173Y018264D01*
X012141Y018239D01*
X012106Y018217D01*
X012069Y018198D01*
X012031Y018182D01*
X011992Y018170D01*
X011952Y018161D01*
X011911Y018156D01*
X011870Y018154D01*
X012342Y016775D02*
X012340Y016734D01*
X012335Y016693D01*
X012326Y016653D01*
X012314Y016614D01*
X012298Y016576D01*
X012279Y016539D01*
X012257Y016504D01*
X012232Y016472D01*
X012204Y016441D01*
X012173Y016413D01*
X012141Y016388D01*
X012106Y016366D01*
X012069Y016347D01*
X012031Y016331D01*
X011992Y016319D01*
X011952Y016310D01*
X011911Y016305D01*
X011870Y016303D01*
M02*
