G75*
G70*
%OFA0B0*%
%FSLAX24Y24*%
%IPPOS*%
%LPD*%
%AMOC8*
5,1,8,0,0,1.08239X$1,22.5*
%
%ADD10C,0.0000*%
%ADD11OC8,0.0740*%
%ADD12OC8,0.0660*%
%ADD13OC8,0.0600*%
%ADD14C,0.0740*%
%ADD15R,0.1560X0.1560*%
%ADD16C,0.1250*%
%ADD17C,0.0240*%
%ADD18R,0.0356X0.0356*%
%ADD19C,0.0120*%
%ADD20C,0.0160*%
D10*
X007831Y006663D02*
X007831Y027663D01*
X033231Y027663D01*
X033831Y027063D01*
X033831Y022563D01*
X034831Y021563D01*
X034831Y008663D01*
X033831Y007663D01*
X033831Y006663D01*
X007831Y006663D01*
X007831Y027663D01*
X033081Y027663D01*
X033831Y026913D01*
X033831Y022663D01*
X034831Y021663D01*
X034831Y008663D01*
X033831Y007663D01*
X033831Y006663D01*
X007831Y006663D01*
X012622Y007663D02*
X012624Y007716D01*
X012630Y007769D01*
X012640Y007821D01*
X012653Y007872D01*
X012671Y007922D01*
X012692Y007971D01*
X012717Y008018D01*
X012745Y008062D01*
X012777Y008105D01*
X012811Y008145D01*
X012849Y008183D01*
X012889Y008217D01*
X012932Y008249D01*
X012977Y008277D01*
X013023Y008302D01*
X013072Y008323D01*
X013122Y008341D01*
X013173Y008354D01*
X013225Y008364D01*
X013278Y008370D01*
X013331Y008372D01*
X013384Y008370D01*
X013437Y008364D01*
X013489Y008354D01*
X013540Y008341D01*
X013590Y008323D01*
X013639Y008302D01*
X013686Y008277D01*
X013730Y008249D01*
X013773Y008217D01*
X013813Y008183D01*
X013851Y008145D01*
X013885Y008105D01*
X013917Y008062D01*
X013945Y008017D01*
X013970Y007971D01*
X013991Y007922D01*
X014009Y007872D01*
X014022Y007821D01*
X014032Y007769D01*
X014038Y007716D01*
X014040Y007663D01*
X014038Y007610D01*
X014032Y007557D01*
X014022Y007505D01*
X014009Y007454D01*
X013991Y007404D01*
X013970Y007355D01*
X013945Y007308D01*
X013917Y007264D01*
X013885Y007221D01*
X013851Y007181D01*
X013813Y007143D01*
X013773Y007109D01*
X013730Y007077D01*
X013685Y007049D01*
X013639Y007024D01*
X013590Y007003D01*
X013540Y006985D01*
X013489Y006972D01*
X013437Y006962D01*
X013384Y006956D01*
X013331Y006954D01*
X013278Y006956D01*
X013225Y006962D01*
X013173Y006972D01*
X013122Y006985D01*
X013072Y007003D01*
X013023Y007024D01*
X012976Y007049D01*
X012932Y007077D01*
X012889Y007109D01*
X012849Y007143D01*
X012811Y007181D01*
X012777Y007221D01*
X012745Y007264D01*
X012717Y007309D01*
X012692Y007355D01*
X012671Y007404D01*
X012653Y007454D01*
X012640Y007505D01*
X012630Y007557D01*
X012624Y007610D01*
X012622Y007663D01*
X033122Y009663D02*
X033124Y009716D01*
X033130Y009769D01*
X033140Y009821D01*
X033153Y009872D01*
X033171Y009922D01*
X033192Y009971D01*
X033217Y010018D01*
X033245Y010062D01*
X033277Y010105D01*
X033311Y010145D01*
X033349Y010183D01*
X033389Y010217D01*
X033432Y010249D01*
X033477Y010277D01*
X033523Y010302D01*
X033572Y010323D01*
X033622Y010341D01*
X033673Y010354D01*
X033725Y010364D01*
X033778Y010370D01*
X033831Y010372D01*
X033884Y010370D01*
X033937Y010364D01*
X033989Y010354D01*
X034040Y010341D01*
X034090Y010323D01*
X034139Y010302D01*
X034186Y010277D01*
X034230Y010249D01*
X034273Y010217D01*
X034313Y010183D01*
X034351Y010145D01*
X034385Y010105D01*
X034417Y010062D01*
X034445Y010017D01*
X034470Y009971D01*
X034491Y009922D01*
X034509Y009872D01*
X034522Y009821D01*
X034532Y009769D01*
X034538Y009716D01*
X034540Y009663D01*
X034538Y009610D01*
X034532Y009557D01*
X034522Y009505D01*
X034509Y009454D01*
X034491Y009404D01*
X034470Y009355D01*
X034445Y009308D01*
X034417Y009264D01*
X034385Y009221D01*
X034351Y009181D01*
X034313Y009143D01*
X034273Y009109D01*
X034230Y009077D01*
X034185Y009049D01*
X034139Y009024D01*
X034090Y009003D01*
X034040Y008985D01*
X033989Y008972D01*
X033937Y008962D01*
X033884Y008956D01*
X033831Y008954D01*
X033778Y008956D01*
X033725Y008962D01*
X033673Y008972D01*
X033622Y008985D01*
X033572Y009003D01*
X033523Y009024D01*
X033476Y009049D01*
X033432Y009077D01*
X033389Y009109D01*
X033349Y009143D01*
X033311Y009181D01*
X033277Y009221D01*
X033245Y009264D01*
X033217Y009309D01*
X033192Y009355D01*
X033171Y009404D01*
X033153Y009454D01*
X033140Y009505D01*
X033130Y009557D01*
X033124Y009610D01*
X033122Y009663D01*
X033122Y020663D02*
X033124Y020716D01*
X033130Y020769D01*
X033140Y020821D01*
X033153Y020872D01*
X033171Y020922D01*
X033192Y020971D01*
X033217Y021018D01*
X033245Y021062D01*
X033277Y021105D01*
X033311Y021145D01*
X033349Y021183D01*
X033389Y021217D01*
X033432Y021249D01*
X033477Y021277D01*
X033523Y021302D01*
X033572Y021323D01*
X033622Y021341D01*
X033673Y021354D01*
X033725Y021364D01*
X033778Y021370D01*
X033831Y021372D01*
X033884Y021370D01*
X033937Y021364D01*
X033989Y021354D01*
X034040Y021341D01*
X034090Y021323D01*
X034139Y021302D01*
X034186Y021277D01*
X034230Y021249D01*
X034273Y021217D01*
X034313Y021183D01*
X034351Y021145D01*
X034385Y021105D01*
X034417Y021062D01*
X034445Y021017D01*
X034470Y020971D01*
X034491Y020922D01*
X034509Y020872D01*
X034522Y020821D01*
X034532Y020769D01*
X034538Y020716D01*
X034540Y020663D01*
X034538Y020610D01*
X034532Y020557D01*
X034522Y020505D01*
X034509Y020454D01*
X034491Y020404D01*
X034470Y020355D01*
X034445Y020308D01*
X034417Y020264D01*
X034385Y020221D01*
X034351Y020181D01*
X034313Y020143D01*
X034273Y020109D01*
X034230Y020077D01*
X034185Y020049D01*
X034139Y020024D01*
X034090Y020003D01*
X034040Y019985D01*
X033989Y019972D01*
X033937Y019962D01*
X033884Y019956D01*
X033831Y019954D01*
X033778Y019956D01*
X033725Y019962D01*
X033673Y019972D01*
X033622Y019985D01*
X033572Y020003D01*
X033523Y020024D01*
X033476Y020049D01*
X033432Y020077D01*
X033389Y020109D01*
X033349Y020143D01*
X033311Y020181D01*
X033277Y020221D01*
X033245Y020264D01*
X033217Y020309D01*
X033192Y020355D01*
X033171Y020404D01*
X033153Y020454D01*
X033140Y020505D01*
X033130Y020557D01*
X033124Y020610D01*
X033122Y020663D01*
X013122Y026663D02*
X013124Y026716D01*
X013130Y026769D01*
X013140Y026821D01*
X013153Y026872D01*
X013171Y026922D01*
X013192Y026971D01*
X013217Y027018D01*
X013245Y027062D01*
X013277Y027105D01*
X013311Y027145D01*
X013349Y027183D01*
X013389Y027217D01*
X013432Y027249D01*
X013477Y027277D01*
X013523Y027302D01*
X013572Y027323D01*
X013622Y027341D01*
X013673Y027354D01*
X013725Y027364D01*
X013778Y027370D01*
X013831Y027372D01*
X013884Y027370D01*
X013937Y027364D01*
X013989Y027354D01*
X014040Y027341D01*
X014090Y027323D01*
X014139Y027302D01*
X014186Y027277D01*
X014230Y027249D01*
X014273Y027217D01*
X014313Y027183D01*
X014351Y027145D01*
X014385Y027105D01*
X014417Y027062D01*
X014445Y027017D01*
X014470Y026971D01*
X014491Y026922D01*
X014509Y026872D01*
X014522Y026821D01*
X014532Y026769D01*
X014538Y026716D01*
X014540Y026663D01*
X014538Y026610D01*
X014532Y026557D01*
X014522Y026505D01*
X014509Y026454D01*
X014491Y026404D01*
X014470Y026355D01*
X014445Y026308D01*
X014417Y026264D01*
X014385Y026221D01*
X014351Y026181D01*
X014313Y026143D01*
X014273Y026109D01*
X014230Y026077D01*
X014185Y026049D01*
X014139Y026024D01*
X014090Y026003D01*
X014040Y025985D01*
X013989Y025972D01*
X013937Y025962D01*
X013884Y025956D01*
X013831Y025954D01*
X013778Y025956D01*
X013725Y025962D01*
X013673Y025972D01*
X013622Y025985D01*
X013572Y026003D01*
X013523Y026024D01*
X013476Y026049D01*
X013432Y026077D01*
X013389Y026109D01*
X013349Y026143D01*
X013311Y026181D01*
X013277Y026221D01*
X013245Y026264D01*
X013217Y026309D01*
X013192Y026355D01*
X013171Y026404D01*
X013153Y026454D01*
X013140Y026505D01*
X013130Y026557D01*
X013124Y026610D01*
X013122Y026663D01*
D11*
X032831Y018663D03*
X033831Y018663D03*
X033831Y017663D03*
X032831Y017663D03*
X032831Y016663D03*
X033831Y016663D03*
D12*
X032831Y007663D03*
X031831Y007663D03*
X030831Y007663D03*
X029831Y007663D03*
X028831Y007663D03*
X027831Y007663D03*
X025831Y007663D03*
X024831Y007663D03*
X023831Y007663D03*
X022831Y007663D03*
X021831Y007663D03*
X020831Y007663D03*
X019831Y007663D03*
X018831Y007663D03*
X019231Y026663D03*
X020231Y026663D03*
X021231Y026663D03*
X022231Y026663D03*
X023231Y026663D03*
X024231Y026663D03*
X025831Y026663D03*
X026831Y026663D03*
X027831Y026663D03*
X028831Y026663D03*
X029831Y026663D03*
X030831Y026663D03*
X031831Y026663D03*
X032831Y026663D03*
X018231Y026663D03*
X017231Y026663D03*
X016231Y026663D03*
X015231Y026663D03*
D13*
X018331Y017663D03*
X019331Y017663D03*
X020331Y017663D03*
X021331Y017663D03*
X022331Y017663D03*
X023331Y017663D03*
X024331Y017663D03*
X025331Y017663D03*
X026331Y017663D03*
X027331Y017663D03*
X028331Y017663D03*
X029331Y017663D03*
X030331Y017663D03*
X031331Y017663D03*
X031331Y016663D03*
X030331Y016663D03*
X029331Y016663D03*
X028331Y016663D03*
X027331Y016663D03*
X026331Y016663D03*
X025331Y016663D03*
X024331Y016663D03*
X023331Y016663D03*
X022331Y016663D03*
X021331Y016663D03*
X020331Y016663D03*
X019331Y016663D03*
X018331Y016663D03*
X018331Y015663D03*
X017331Y015663D03*
X017331Y014663D03*
X018331Y014663D03*
X018331Y013663D03*
X017331Y013663D03*
X017331Y012663D03*
X018331Y012663D03*
X018331Y011663D03*
X018331Y010663D03*
X019331Y010663D03*
X020331Y010663D03*
X021331Y010663D03*
X022331Y010663D03*
X023331Y010663D03*
X024331Y010663D03*
X025331Y010663D03*
X026331Y010663D03*
X027331Y010663D03*
X028331Y010663D03*
X029331Y010663D03*
X030331Y010663D03*
X031331Y010663D03*
X031331Y009663D03*
X030331Y009663D03*
X029331Y009663D03*
X028331Y009663D03*
X027331Y009663D03*
X026331Y009663D03*
X025331Y009663D03*
X024331Y009663D03*
X023331Y009663D03*
X022331Y009663D03*
X021331Y009663D03*
X020331Y009663D03*
X019331Y009663D03*
X018331Y009663D03*
X017331Y011663D03*
D14*
X014831Y010233D03*
X014831Y009093D03*
X010221Y017633D03*
X008441Y017633D03*
X008441Y020193D03*
X010221Y020193D03*
X026331Y011663D03*
X027331Y011663D03*
X028331Y011663D03*
D15*
X010081Y024163D03*
D16*
X010081Y021563D03*
X010081Y026763D03*
D17*
X010181Y026663D01*
X011831Y026663D01*
X012331Y026163D01*
X012331Y024913D01*
X012331Y022413D01*
X011481Y021563D01*
X010081Y021563D01*
X010081Y020333D01*
X010221Y020193D01*
X010221Y017633D01*
X016331Y021163D02*
X016331Y013663D01*
X016331Y008413D01*
X016331Y007413D01*
X016831Y006913D01*
X023081Y006913D01*
X023831Y007663D01*
X024831Y007663D01*
X025831Y007663D02*
X026581Y006913D01*
X033081Y006913D01*
X033581Y007413D01*
X033581Y008413D01*
X032331Y009663D01*
X031331Y009663D01*
X031331Y010663D01*
X029331Y010663D02*
X029331Y014663D01*
X018331Y014663D01*
X017331Y014663D01*
X017331Y013663D02*
X018331Y013663D01*
X019831Y013663D01*
X019831Y015163D02*
X030831Y015163D01*
X031331Y015663D01*
X031331Y016663D01*
X031331Y017663D01*
X032831Y016663D02*
X032831Y015163D01*
X032331Y014663D01*
X029331Y014663D01*
X021831Y007663D02*
X020581Y008913D01*
X016831Y008913D01*
X016331Y021163D02*
X018231Y023063D01*
X018231Y024913D01*
X012331Y024913D01*
X018231Y024913D02*
X018231Y026663D01*
D18*
X013831Y024163D03*
X017081Y020913D03*
X014831Y015663D03*
X016331Y013663D03*
X015581Y011663D03*
X016831Y008913D03*
X017331Y007913D03*
X014331Y008413D03*
X019831Y013663D03*
X019831Y015163D03*
X024331Y011663D03*
X021831Y011163D03*
X026831Y014163D03*
X026831Y015663D03*
X031331Y018663D03*
X031331Y019163D03*
X029331Y025413D03*
D19*
X029331Y022163D01*
X026831Y019663D01*
X026831Y015663D01*
X027331Y016663D02*
X027331Y017663D01*
X027331Y019663D01*
X029831Y022163D01*
X029831Y026663D01*
X030831Y026663D02*
X030831Y022163D01*
X028331Y019663D01*
X028331Y016663D01*
X028331Y017663D01*
X029331Y017663D02*
X029331Y019663D01*
X031831Y022163D01*
X031831Y026663D01*
X032831Y026663D02*
X032831Y022163D01*
X030331Y019663D01*
X030331Y017663D01*
X030331Y016663D01*
X029331Y016663D02*
X029331Y017663D01*
X031331Y019163D02*
X034081Y019163D01*
X034581Y018663D01*
X034581Y017413D01*
X033831Y016663D01*
X032831Y017663D02*
X032331Y017663D01*
X028831Y022163D02*
X028831Y026663D01*
X027831Y026663D02*
X027831Y022163D01*
X025331Y019663D01*
X025331Y016663D01*
X025331Y017663D01*
X026331Y017663D02*
X026331Y016663D01*
X026331Y019663D01*
X028831Y022163D01*
X026831Y022163D02*
X024331Y019663D01*
X024331Y017663D01*
X024331Y016663D01*
X023331Y016663D02*
X023331Y019663D01*
X025831Y022163D01*
X025831Y026663D01*
X026831Y026663D02*
X026831Y022163D01*
X024331Y022163D02*
X024331Y026563D01*
X024231Y026663D01*
X023331Y026563D02*
X023231Y026663D01*
X023331Y026563D02*
X023331Y022163D01*
X021331Y020163D01*
X021331Y017663D01*
X021331Y016663D01*
X022331Y016663D02*
X022331Y017663D01*
X022331Y020163D01*
X024331Y022163D01*
X022231Y022063D02*
X020331Y020163D01*
X020331Y017663D01*
X020331Y016663D01*
X019331Y016663D02*
X019331Y017663D01*
X019331Y020163D01*
X021231Y022063D01*
X021231Y026663D01*
X022231Y026663D02*
X022231Y022063D01*
X020231Y022063D02*
X018331Y020163D01*
X018331Y017663D01*
X018331Y016663D01*
X018331Y015663D02*
X017331Y015663D01*
X014831Y015663D02*
X014831Y023913D01*
X014581Y024163D01*
X013831Y024163D01*
X017081Y020913D02*
X019331Y023163D01*
X019331Y026563D01*
X019231Y026663D01*
X020231Y026663D02*
X020231Y022063D01*
X017081Y020913D02*
X016831Y020663D01*
X016831Y010163D01*
X017331Y009663D01*
X018331Y009663D01*
X018331Y010663D01*
X019331Y010663D02*
X019331Y009663D01*
X020331Y009663D02*
X020331Y010663D01*
X021331Y010663D02*
X021331Y009663D01*
X022331Y009663D02*
X022331Y008663D01*
X022831Y008163D01*
X030331Y008163D01*
X030831Y007663D01*
X031831Y007663D02*
X031831Y008163D01*
X031331Y008663D01*
X023831Y008663D01*
X023331Y009163D01*
X023331Y009663D01*
X023331Y010663D01*
X024081Y011163D02*
X021831Y011163D01*
X022331Y010663D02*
X022331Y009663D01*
X020831Y007663D02*
X020331Y008163D01*
X017581Y008163D01*
X017331Y007913D01*
X016331Y008413D02*
X014331Y008413D01*
X014581Y011663D02*
X014081Y012163D01*
X014081Y016413D01*
X013831Y016663D01*
X008581Y016663D01*
X008331Y016913D01*
X008331Y017523D01*
X008441Y017633D02*
X008441Y020193D01*
X017331Y012663D02*
X018331Y012663D01*
X018331Y011663D02*
X017331Y011663D01*
X018331Y011663D02*
X024331Y011663D01*
X024081Y011163D02*
X024331Y010913D01*
X024331Y010663D01*
X024331Y009663D01*
X024831Y009163D01*
X032331Y009163D01*
X032831Y008663D01*
X032831Y007663D01*
X030331Y009663D02*
X030331Y010663D01*
X029331Y010663D02*
X029331Y009663D01*
X028331Y009663D02*
X028331Y010663D01*
X027331Y010663D02*
X027331Y009663D01*
X026331Y009663D02*
X026331Y010663D01*
X026331Y011663D02*
X026831Y012163D01*
X026831Y014163D01*
X023331Y016663D02*
X023331Y017663D01*
X015581Y011663D02*
X014581Y011663D01*
X022831Y007663D02*
X022901Y007663D01*
X025331Y009663D02*
X025331Y010663D01*
D20*
X032331Y017663D02*
X031331Y018663D01*
M02*
