G75*
G70*
%OFA0B0*%
%FSLAX24Y24*%
%IPPOS*%
%LPD*%
%AMOC8*
5,1,8,0,0,1.08239X$1,22.5*
%
%ADD10C,0.0000*%
%ADD11C,0.0040*%
%ADD12C,0.0030*%
%ADD13C,0.0080*%
%ADD14C,0.0060*%
%ADD15C,0.0050*%
%ADD16R,0.0118X0.0059*%
%ADD17R,0.0118X0.0118*%
D10*
X007831Y006663D02*
X007831Y027663D01*
X033231Y027663D01*
X033831Y027063D01*
X033831Y022563D01*
X034831Y021563D01*
X034831Y008663D01*
X033831Y007663D01*
X033831Y006663D01*
X007831Y006663D01*
X007831Y027663D01*
X033081Y027663D01*
X033831Y026913D01*
X033831Y022663D01*
X034831Y021663D01*
X034831Y008663D01*
X033831Y007663D01*
X033831Y006663D01*
X007831Y006663D01*
X012622Y007663D02*
X012624Y007716D01*
X012630Y007769D01*
X012640Y007821D01*
X012653Y007872D01*
X012671Y007922D01*
X012692Y007971D01*
X012717Y008018D01*
X012745Y008062D01*
X012777Y008105D01*
X012811Y008145D01*
X012849Y008183D01*
X012889Y008217D01*
X012932Y008249D01*
X012977Y008277D01*
X013023Y008302D01*
X013072Y008323D01*
X013122Y008341D01*
X013173Y008354D01*
X013225Y008364D01*
X013278Y008370D01*
X013331Y008372D01*
X013384Y008370D01*
X013437Y008364D01*
X013489Y008354D01*
X013540Y008341D01*
X013590Y008323D01*
X013639Y008302D01*
X013686Y008277D01*
X013730Y008249D01*
X013773Y008217D01*
X013813Y008183D01*
X013851Y008145D01*
X013885Y008105D01*
X013917Y008062D01*
X013945Y008017D01*
X013970Y007971D01*
X013991Y007922D01*
X014009Y007872D01*
X014022Y007821D01*
X014032Y007769D01*
X014038Y007716D01*
X014040Y007663D01*
X014038Y007610D01*
X014032Y007557D01*
X014022Y007505D01*
X014009Y007454D01*
X013991Y007404D01*
X013970Y007355D01*
X013945Y007308D01*
X013917Y007264D01*
X013885Y007221D01*
X013851Y007181D01*
X013813Y007143D01*
X013773Y007109D01*
X013730Y007077D01*
X013685Y007049D01*
X013639Y007024D01*
X013590Y007003D01*
X013540Y006985D01*
X013489Y006972D01*
X013437Y006962D01*
X013384Y006956D01*
X013331Y006954D01*
X013278Y006956D01*
X013225Y006962D01*
X013173Y006972D01*
X013122Y006985D01*
X013072Y007003D01*
X013023Y007024D01*
X012976Y007049D01*
X012932Y007077D01*
X012889Y007109D01*
X012849Y007143D01*
X012811Y007181D01*
X012777Y007221D01*
X012745Y007264D01*
X012717Y007309D01*
X012692Y007355D01*
X012671Y007404D01*
X012653Y007454D01*
X012640Y007505D01*
X012630Y007557D01*
X012624Y007610D01*
X012622Y007663D01*
X033122Y009663D02*
X033124Y009716D01*
X033130Y009769D01*
X033140Y009821D01*
X033153Y009872D01*
X033171Y009922D01*
X033192Y009971D01*
X033217Y010018D01*
X033245Y010062D01*
X033277Y010105D01*
X033311Y010145D01*
X033349Y010183D01*
X033389Y010217D01*
X033432Y010249D01*
X033477Y010277D01*
X033523Y010302D01*
X033572Y010323D01*
X033622Y010341D01*
X033673Y010354D01*
X033725Y010364D01*
X033778Y010370D01*
X033831Y010372D01*
X033884Y010370D01*
X033937Y010364D01*
X033989Y010354D01*
X034040Y010341D01*
X034090Y010323D01*
X034139Y010302D01*
X034186Y010277D01*
X034230Y010249D01*
X034273Y010217D01*
X034313Y010183D01*
X034351Y010145D01*
X034385Y010105D01*
X034417Y010062D01*
X034445Y010017D01*
X034470Y009971D01*
X034491Y009922D01*
X034509Y009872D01*
X034522Y009821D01*
X034532Y009769D01*
X034538Y009716D01*
X034540Y009663D01*
X034538Y009610D01*
X034532Y009557D01*
X034522Y009505D01*
X034509Y009454D01*
X034491Y009404D01*
X034470Y009355D01*
X034445Y009308D01*
X034417Y009264D01*
X034385Y009221D01*
X034351Y009181D01*
X034313Y009143D01*
X034273Y009109D01*
X034230Y009077D01*
X034185Y009049D01*
X034139Y009024D01*
X034090Y009003D01*
X034040Y008985D01*
X033989Y008972D01*
X033937Y008962D01*
X033884Y008956D01*
X033831Y008954D01*
X033778Y008956D01*
X033725Y008962D01*
X033673Y008972D01*
X033622Y008985D01*
X033572Y009003D01*
X033523Y009024D01*
X033476Y009049D01*
X033432Y009077D01*
X033389Y009109D01*
X033349Y009143D01*
X033311Y009181D01*
X033277Y009221D01*
X033245Y009264D01*
X033217Y009309D01*
X033192Y009355D01*
X033171Y009404D01*
X033153Y009454D01*
X033140Y009505D01*
X033130Y009557D01*
X033124Y009610D01*
X033122Y009663D01*
X033122Y020663D02*
X033124Y020716D01*
X033130Y020769D01*
X033140Y020821D01*
X033153Y020872D01*
X033171Y020922D01*
X033192Y020971D01*
X033217Y021018D01*
X033245Y021062D01*
X033277Y021105D01*
X033311Y021145D01*
X033349Y021183D01*
X033389Y021217D01*
X033432Y021249D01*
X033477Y021277D01*
X033523Y021302D01*
X033572Y021323D01*
X033622Y021341D01*
X033673Y021354D01*
X033725Y021364D01*
X033778Y021370D01*
X033831Y021372D01*
X033884Y021370D01*
X033937Y021364D01*
X033989Y021354D01*
X034040Y021341D01*
X034090Y021323D01*
X034139Y021302D01*
X034186Y021277D01*
X034230Y021249D01*
X034273Y021217D01*
X034313Y021183D01*
X034351Y021145D01*
X034385Y021105D01*
X034417Y021062D01*
X034445Y021017D01*
X034470Y020971D01*
X034491Y020922D01*
X034509Y020872D01*
X034522Y020821D01*
X034532Y020769D01*
X034538Y020716D01*
X034540Y020663D01*
X034538Y020610D01*
X034532Y020557D01*
X034522Y020505D01*
X034509Y020454D01*
X034491Y020404D01*
X034470Y020355D01*
X034445Y020308D01*
X034417Y020264D01*
X034385Y020221D01*
X034351Y020181D01*
X034313Y020143D01*
X034273Y020109D01*
X034230Y020077D01*
X034185Y020049D01*
X034139Y020024D01*
X034090Y020003D01*
X034040Y019985D01*
X033989Y019972D01*
X033937Y019962D01*
X033884Y019956D01*
X033831Y019954D01*
X033778Y019956D01*
X033725Y019962D01*
X033673Y019972D01*
X033622Y019985D01*
X033572Y020003D01*
X033523Y020024D01*
X033476Y020049D01*
X033432Y020077D01*
X033389Y020109D01*
X033349Y020143D01*
X033311Y020181D01*
X033277Y020221D01*
X033245Y020264D01*
X033217Y020309D01*
X033192Y020355D01*
X033171Y020404D01*
X033153Y020454D01*
X033140Y020505D01*
X033130Y020557D01*
X033124Y020610D01*
X033122Y020663D01*
X013122Y026663D02*
X013124Y026716D01*
X013130Y026769D01*
X013140Y026821D01*
X013153Y026872D01*
X013171Y026922D01*
X013192Y026971D01*
X013217Y027018D01*
X013245Y027062D01*
X013277Y027105D01*
X013311Y027145D01*
X013349Y027183D01*
X013389Y027217D01*
X013432Y027249D01*
X013477Y027277D01*
X013523Y027302D01*
X013572Y027323D01*
X013622Y027341D01*
X013673Y027354D01*
X013725Y027364D01*
X013778Y027370D01*
X013831Y027372D01*
X013884Y027370D01*
X013937Y027364D01*
X013989Y027354D01*
X014040Y027341D01*
X014090Y027323D01*
X014139Y027302D01*
X014186Y027277D01*
X014230Y027249D01*
X014273Y027217D01*
X014313Y027183D01*
X014351Y027145D01*
X014385Y027105D01*
X014417Y027062D01*
X014445Y027017D01*
X014470Y026971D01*
X014491Y026922D01*
X014509Y026872D01*
X014522Y026821D01*
X014532Y026769D01*
X014538Y026716D01*
X014540Y026663D01*
X014538Y026610D01*
X014532Y026557D01*
X014522Y026505D01*
X014509Y026454D01*
X014491Y026404D01*
X014470Y026355D01*
X014445Y026308D01*
X014417Y026264D01*
X014385Y026221D01*
X014351Y026181D01*
X014313Y026143D01*
X014273Y026109D01*
X014230Y026077D01*
X014185Y026049D01*
X014139Y026024D01*
X014090Y026003D01*
X014040Y025985D01*
X013989Y025972D01*
X013937Y025962D01*
X013884Y025956D01*
X013831Y025954D01*
X013778Y025956D01*
X013725Y025962D01*
X013673Y025972D01*
X013622Y025985D01*
X013572Y026003D01*
X013523Y026024D01*
X013476Y026049D01*
X013432Y026077D01*
X013389Y026109D01*
X013349Y026143D01*
X013311Y026181D01*
X013277Y026221D01*
X013245Y026264D01*
X013217Y026309D01*
X013192Y026355D01*
X013171Y026404D01*
X013153Y026454D01*
X013140Y026505D01*
X013130Y026557D01*
X013124Y026610D01*
X013122Y026663D01*
D11*
X021101Y023490D02*
X021254Y023490D01*
X021178Y023567D02*
X021178Y023260D01*
X021254Y023183D01*
X021408Y023260D02*
X021408Y023413D01*
X021485Y023490D01*
X021638Y023490D01*
X021715Y023413D01*
X021715Y023336D01*
X021408Y023336D01*
X021408Y023260D02*
X021485Y023183D01*
X021638Y023183D01*
X021868Y023260D02*
X021868Y023413D01*
X021945Y023490D01*
X022098Y023490D01*
X022175Y023413D01*
X022175Y023336D01*
X021868Y023336D01*
X021868Y023260D02*
X021945Y023183D01*
X022098Y023183D01*
X022329Y023183D02*
X022329Y023490D01*
X022559Y023490D01*
X022636Y023413D01*
X022636Y023183D01*
X022789Y023183D02*
X023019Y023183D01*
X023096Y023260D01*
X023019Y023336D01*
X022866Y023336D01*
X022789Y023413D01*
X022866Y023490D01*
X023096Y023490D01*
X023249Y023490D02*
X023249Y023260D01*
X023326Y023183D01*
X023556Y023183D01*
X023556Y023106D02*
X023480Y023030D01*
X023403Y023030D01*
X023556Y023106D02*
X023556Y023490D01*
X023710Y023567D02*
X023787Y023643D01*
X023940Y023643D01*
X024017Y023567D01*
X024017Y023490D01*
X023940Y023413D01*
X024017Y023336D01*
X024017Y023260D01*
X023940Y023183D01*
X023787Y023183D01*
X023710Y023260D01*
X023863Y023413D02*
X023940Y023413D01*
X024631Y023490D02*
X024861Y023490D01*
X024938Y023413D01*
X024938Y023260D01*
X024861Y023183D01*
X024631Y023183D01*
X024631Y023643D01*
X025091Y023490D02*
X025091Y023183D01*
X025091Y023336D02*
X025245Y023490D01*
X025321Y023490D01*
X025475Y023490D02*
X025551Y023490D01*
X025551Y023183D01*
X025475Y023183D02*
X025628Y023183D01*
X025782Y023260D02*
X025782Y023413D01*
X025858Y023490D01*
X026089Y023490D01*
X026089Y023643D02*
X026089Y023183D01*
X025858Y023183D01*
X025782Y023260D01*
X025551Y023643D02*
X025551Y023720D01*
X026242Y023413D02*
X026242Y023260D01*
X026319Y023183D01*
X026549Y023183D01*
X026549Y023106D02*
X026549Y023490D01*
X026319Y023490D01*
X026242Y023413D01*
X026549Y023106D02*
X026472Y023030D01*
X026395Y023030D01*
X026472Y022740D02*
X026395Y022663D01*
X026395Y022510D01*
X026472Y022433D01*
X026702Y022433D01*
X026856Y022433D02*
X026856Y022893D01*
X026933Y022740D02*
X026856Y022663D01*
X026933Y022740D02*
X027086Y022740D01*
X027163Y022663D01*
X027163Y022433D01*
X026702Y022740D02*
X026472Y022740D01*
X026242Y022510D02*
X026242Y022433D01*
X026165Y022433D01*
X026165Y022510D01*
X026242Y022510D01*
X026012Y022740D02*
X025935Y022740D01*
X025782Y022586D01*
X025782Y022433D02*
X025782Y022740D01*
X025628Y022663D02*
X025628Y022586D01*
X025321Y022586D01*
X025321Y022510D02*
X025321Y022663D01*
X025398Y022740D01*
X025551Y022740D01*
X025628Y022663D01*
X025551Y022433D02*
X025398Y022433D01*
X025321Y022510D01*
X025168Y022433D02*
X024938Y022433D01*
X024861Y022510D01*
X024861Y022663D01*
X024938Y022740D01*
X025168Y022740D01*
X025168Y022356D01*
X025091Y022280D01*
X025014Y022280D01*
X024707Y022433D02*
X024554Y022433D01*
X024631Y022433D02*
X024631Y022740D01*
X024554Y022740D01*
X024400Y022740D02*
X024247Y022740D01*
X024324Y022817D02*
X024324Y022510D01*
X024400Y022433D01*
X024094Y022433D02*
X023863Y022433D01*
X023787Y022510D01*
X023787Y022740D01*
X023633Y022663D02*
X023633Y022433D01*
X023633Y022663D02*
X023556Y022740D01*
X023326Y022740D01*
X023326Y022433D01*
X023173Y022433D02*
X023019Y022433D01*
X023096Y022433D02*
X023096Y022740D01*
X023019Y022740D01*
X022866Y022740D02*
X022712Y022740D01*
X022789Y022817D02*
X022789Y022510D01*
X022866Y022433D01*
X022559Y022433D02*
X022559Y022510D01*
X022482Y022510D01*
X022482Y022433D01*
X022559Y022433D01*
X022329Y022510D02*
X022329Y022740D01*
X022329Y022510D02*
X022252Y022433D01*
X022175Y022510D01*
X022098Y022433D01*
X022022Y022510D01*
X022022Y022740D01*
X021868Y022740D02*
X021868Y022510D01*
X021792Y022433D01*
X021715Y022510D01*
X021638Y022433D01*
X021561Y022510D01*
X021561Y022740D01*
X021408Y022740D02*
X021408Y022510D01*
X021331Y022433D01*
X021254Y022510D01*
X021178Y022433D01*
X021101Y022510D01*
X021101Y022740D01*
X021101Y021990D02*
X021254Y021683D01*
X021408Y021990D01*
X021561Y022067D02*
X021638Y022143D01*
X021792Y022143D01*
X021868Y022067D01*
X021561Y021760D01*
X021638Y021683D01*
X021792Y021683D01*
X021868Y021760D01*
X021868Y022067D01*
X022022Y022067D02*
X022098Y022143D01*
X022252Y022143D01*
X022329Y022067D01*
X022022Y021760D01*
X022098Y021683D01*
X022252Y021683D01*
X022329Y021760D01*
X022329Y022067D01*
X022482Y022067D02*
X022482Y021760D01*
X022789Y022067D01*
X022789Y021760D01*
X022712Y021683D01*
X022559Y021683D01*
X022482Y021760D01*
X022482Y022067D02*
X022559Y022143D01*
X022712Y022143D01*
X022789Y022067D01*
X022943Y022067D02*
X023019Y022143D01*
X023173Y022143D01*
X023249Y022067D01*
X022943Y021760D01*
X023019Y021683D01*
X023173Y021683D01*
X023249Y021760D01*
X023249Y022067D01*
X023403Y021990D02*
X023556Y022143D01*
X023556Y021683D01*
X023403Y021683D02*
X023710Y021683D01*
X023940Y022280D02*
X024017Y022280D01*
X024094Y022356D01*
X024094Y022740D01*
X024631Y022893D02*
X024631Y022970D01*
X023096Y022970D02*
X023096Y022893D01*
X022943Y022067D02*
X022943Y021760D01*
X022022Y021760D02*
X022022Y022067D01*
X021561Y022067D02*
X021561Y021760D01*
X026702Y023260D02*
X026702Y023413D01*
X026779Y023490D01*
X026933Y023490D01*
X027009Y023413D01*
X027009Y023336D01*
X026702Y023336D01*
X026702Y023260D02*
X026779Y023183D01*
X026933Y023183D01*
D12*
X031196Y019350D02*
X031196Y019165D01*
X031566Y019165D01*
X031566Y019350D01*
X031504Y019411D01*
X031257Y019411D01*
X031196Y019350D01*
X031196Y019043D02*
X031566Y019043D01*
X031196Y018796D01*
X031566Y018796D01*
X031504Y018675D02*
X031381Y018675D01*
X031381Y018551D01*
X031504Y018428D02*
X031257Y018428D01*
X031196Y018490D01*
X031196Y018613D01*
X031257Y018675D01*
X031504Y018675D02*
X031566Y018613D01*
X031566Y018490D01*
X031504Y018428D01*
X030566Y018490D02*
X030504Y018428D01*
X030257Y018675D01*
X030504Y018675D01*
X030566Y018613D01*
X030566Y018490D01*
X030504Y018428D02*
X030257Y018428D01*
X030196Y018490D01*
X030196Y018613D01*
X030257Y018675D01*
X029566Y018675D02*
X029566Y018428D01*
X029566Y018551D02*
X029196Y018551D01*
X029319Y018428D01*
X028566Y018428D02*
X028319Y018675D01*
X028257Y018675D01*
X028196Y018613D01*
X028196Y018490D01*
X028257Y018428D01*
X028566Y018428D02*
X028566Y018675D01*
X027566Y018613D02*
X027566Y018490D01*
X027504Y018428D01*
X027381Y018551D02*
X027381Y018613D01*
X027443Y018675D01*
X027504Y018675D01*
X027566Y018613D01*
X027381Y018613D02*
X027319Y018675D01*
X027257Y018675D01*
X027196Y018613D01*
X027196Y018490D01*
X027257Y018428D01*
X026566Y018613D02*
X026196Y018613D01*
X026381Y018428D01*
X026381Y018675D01*
X025566Y018613D02*
X025566Y018490D01*
X025504Y018428D01*
X025381Y018428D02*
X025319Y018551D01*
X025319Y018613D01*
X025381Y018675D01*
X025504Y018675D01*
X025566Y018613D01*
X025381Y018428D02*
X025196Y018428D01*
X025196Y018675D01*
X024566Y018613D02*
X024504Y018675D01*
X024443Y018675D01*
X024381Y018613D01*
X024381Y018428D01*
X024504Y018428D01*
X024566Y018490D01*
X024566Y018613D01*
X024381Y018428D02*
X024257Y018551D01*
X024196Y018675D01*
X023566Y018428D02*
X023504Y018428D01*
X023257Y018675D01*
X023196Y018675D01*
X023196Y018428D01*
X022566Y018490D02*
X022504Y018428D01*
X022443Y018428D01*
X022381Y018490D01*
X022381Y018613D01*
X022443Y018675D01*
X022504Y018675D01*
X022566Y018613D01*
X022566Y018490D01*
X022381Y018490D02*
X022319Y018428D01*
X022257Y018428D01*
X022196Y018490D01*
X022196Y018613D01*
X022257Y018675D01*
X022319Y018675D01*
X022381Y018613D01*
X021566Y018613D02*
X021504Y018675D01*
X021257Y018675D01*
X021196Y018613D01*
X021196Y018490D01*
X021257Y018428D01*
X021319Y018428D01*
X021381Y018490D01*
X021381Y018675D01*
X021566Y018613D02*
X021566Y018490D01*
X021504Y018428D01*
X020566Y018428D02*
X020566Y018675D01*
X020566Y018551D02*
X020196Y018551D01*
X020319Y018428D01*
X020257Y018796D02*
X020196Y018858D01*
X020196Y018981D01*
X020257Y019043D01*
X020504Y018796D01*
X020566Y018858D01*
X020566Y018981D01*
X020504Y019043D01*
X020257Y019043D01*
X020257Y018796D02*
X020504Y018796D01*
X019566Y018796D02*
X019566Y019043D01*
X019566Y018920D02*
X019196Y018920D01*
X019319Y018796D01*
X019196Y018551D02*
X019566Y018551D01*
X019566Y018428D02*
X019566Y018675D01*
X019319Y018428D02*
X019196Y018551D01*
X018566Y018551D02*
X018196Y018551D01*
X018319Y018428D01*
X018566Y018428D02*
X018566Y018675D01*
X018566Y018796D02*
X018319Y019043D01*
X018257Y019043D01*
X018196Y018981D01*
X018196Y018858D01*
X018257Y018796D01*
X018566Y018796D02*
X018566Y019043D01*
X016475Y015898D02*
X016228Y015898D01*
X016351Y015898D02*
X016351Y015528D01*
X016106Y015528D02*
X016106Y015775D01*
X015983Y015898D01*
X015859Y015775D01*
X015859Y015528D01*
X015738Y015590D02*
X015676Y015528D01*
X015491Y015528D01*
X015491Y015898D01*
X015676Y015898D01*
X015738Y015837D01*
X015738Y015775D01*
X015676Y015713D01*
X015491Y015713D01*
X015370Y015651D02*
X015246Y015528D01*
X015123Y015651D01*
X015123Y015898D01*
X015370Y015898D02*
X015370Y015651D01*
X015676Y015713D02*
X015738Y015651D01*
X015738Y015590D01*
X015859Y015713D02*
X016106Y015713D01*
X016106Y014898D02*
X016106Y014651D01*
X015983Y014528D01*
X015859Y014651D01*
X015859Y014898D01*
X015738Y014837D02*
X015738Y014775D01*
X015676Y014713D01*
X015738Y014651D01*
X015738Y014590D01*
X015676Y014528D01*
X015553Y014528D01*
X015491Y014590D01*
X015614Y014713D02*
X015676Y014713D01*
X015738Y014837D02*
X015676Y014898D01*
X015553Y014898D01*
X015491Y014837D01*
X016228Y014837D02*
X016289Y014898D01*
X016413Y014898D01*
X016475Y014837D01*
X016475Y014775D01*
X016413Y014713D01*
X016475Y014651D01*
X016475Y014590D01*
X016413Y014528D01*
X016289Y014528D01*
X016228Y014590D01*
X016351Y014713D02*
X016413Y014713D01*
X016413Y013898D02*
X016228Y013898D01*
X016228Y013528D01*
X016413Y013528D01*
X016475Y013590D01*
X016475Y013837D01*
X016413Y013898D01*
X016106Y013898D02*
X016106Y013528D01*
X015859Y013898D01*
X015859Y013528D01*
X015738Y013590D02*
X015738Y013713D01*
X015614Y013713D01*
X015491Y013590D02*
X015491Y013837D01*
X015553Y013898D01*
X015676Y013898D01*
X015738Y013837D01*
X015738Y013590D02*
X015676Y013528D01*
X015553Y013528D01*
X015491Y013590D01*
X015491Y012898D02*
X015676Y012898D01*
X015738Y012837D01*
X015738Y012713D01*
X015676Y012651D01*
X015491Y012651D01*
X015491Y012528D02*
X015491Y012898D01*
X015370Y012837D02*
X015370Y012713D01*
X015308Y012651D01*
X015123Y012651D01*
X015123Y012528D02*
X015123Y012898D01*
X015308Y012898D01*
X015370Y012837D01*
X015614Y012651D02*
X015738Y012528D01*
X015859Y012590D02*
X015921Y012528D01*
X016044Y012528D01*
X016106Y012590D01*
X016106Y012837D01*
X016044Y012898D01*
X015921Y012898D01*
X015859Y012837D01*
X015859Y012590D01*
X016228Y012590D02*
X016228Y012837D01*
X016289Y012898D01*
X016413Y012898D01*
X016475Y012837D01*
X016475Y012713D02*
X016351Y012713D01*
X016475Y012713D02*
X016475Y012590D01*
X016413Y012528D01*
X016289Y012528D01*
X016228Y012590D01*
X016228Y011898D02*
X016475Y011898D01*
X016351Y011898D02*
X016351Y011528D01*
X016106Y011528D02*
X015859Y011528D01*
X015859Y011898D01*
X016106Y011898D01*
X015983Y011713D02*
X015859Y011713D01*
X015738Y011651D02*
X015738Y011590D01*
X015676Y011528D01*
X015553Y011528D01*
X015491Y011590D01*
X015370Y011528D02*
X015123Y011528D01*
X015123Y011898D01*
X015370Y011898D01*
X015491Y011837D02*
X015491Y011775D01*
X015553Y011713D01*
X015676Y011713D01*
X015738Y011651D01*
X015738Y011837D02*
X015676Y011898D01*
X015553Y011898D01*
X015491Y011837D01*
X015246Y011713D02*
X015123Y011713D01*
X015001Y011713D02*
X014940Y011651D01*
X014754Y011651D01*
X014754Y011528D02*
X014754Y011898D01*
X014940Y011898D01*
X015001Y011837D01*
X015001Y011713D01*
X014878Y011651D02*
X015001Y011528D01*
X018096Y008995D02*
X018157Y009057D01*
X018219Y009057D01*
X018281Y008995D01*
X018343Y009057D01*
X018404Y009057D01*
X018466Y008995D01*
X018466Y008871D01*
X018404Y008810D01*
X018466Y008688D02*
X018466Y008441D01*
X018466Y008565D02*
X018096Y008565D01*
X018219Y008441D01*
X018157Y008810D02*
X018096Y008871D01*
X018096Y008995D01*
X018281Y008995D02*
X018281Y008933D01*
X019096Y008871D02*
X019096Y008995D01*
X019157Y009057D01*
X019404Y008810D01*
X019466Y008871D01*
X019466Y008995D01*
X019404Y009057D01*
X019157Y009057D01*
X019096Y008871D02*
X019157Y008810D01*
X019404Y008810D01*
X019466Y008688D02*
X019219Y008688D01*
X019096Y008565D01*
X019219Y008441D01*
X019466Y008441D01*
X019281Y008441D02*
X019281Y008688D01*
X020096Y008565D02*
X020219Y008688D01*
X020466Y008688D01*
X020466Y008810D02*
X020466Y009057D01*
X020466Y008933D02*
X020096Y008933D01*
X020219Y008810D01*
X020281Y008688D02*
X020281Y008441D01*
X020219Y008441D02*
X020466Y008441D01*
X020219Y008441D02*
X020096Y008565D01*
X021096Y008565D02*
X021219Y008688D01*
X021466Y008688D01*
X021466Y008810D02*
X021219Y009057D01*
X021157Y009057D01*
X021096Y008995D01*
X021096Y008871D01*
X021157Y008810D01*
X021281Y008688D02*
X021281Y008441D01*
X021219Y008441D02*
X021096Y008565D01*
X021219Y008441D02*
X021466Y008441D01*
X021466Y008810D02*
X021466Y009057D01*
X022096Y008995D02*
X022096Y008871D01*
X022157Y008810D01*
X022219Y008688D02*
X022466Y008688D01*
X022404Y008810D02*
X022466Y008871D01*
X022466Y008995D01*
X022404Y009057D01*
X022343Y009057D01*
X022281Y008995D01*
X022281Y008933D01*
X022281Y008995D02*
X022219Y009057D01*
X022157Y009057D01*
X022096Y008995D01*
X022219Y008688D02*
X022096Y008565D01*
X022219Y008441D01*
X022466Y008441D01*
X022281Y008441D02*
X022281Y008688D01*
X023096Y008565D02*
X023219Y008688D01*
X023466Y008688D01*
X023281Y008688D02*
X023281Y008441D01*
X023219Y008441D02*
X023096Y008565D01*
X023219Y008441D02*
X023466Y008441D01*
X023281Y008810D02*
X023281Y009057D01*
X023466Y008995D02*
X023096Y008995D01*
X023281Y008810D01*
X024096Y008810D02*
X024281Y008810D01*
X024219Y008933D01*
X024219Y008995D01*
X024281Y009057D01*
X024404Y009057D01*
X024466Y008995D01*
X024466Y008871D01*
X024404Y008810D01*
X024466Y008688D02*
X024219Y008688D01*
X024096Y008565D01*
X024219Y008441D01*
X024466Y008441D01*
X024281Y008441D02*
X024281Y008688D01*
X024096Y008810D02*
X024096Y009057D01*
X025096Y009057D02*
X025157Y008933D01*
X025281Y008810D01*
X025281Y008995D01*
X025343Y009057D01*
X025404Y009057D01*
X025466Y008995D01*
X025466Y008871D01*
X025404Y008810D01*
X025281Y008810D01*
X025281Y008688D02*
X025281Y008441D01*
X025219Y008441D02*
X025096Y008565D01*
X025219Y008688D01*
X025466Y008688D01*
X025466Y008441D02*
X025219Y008441D01*
X026096Y008565D02*
X026219Y008688D01*
X026466Y008688D01*
X026466Y008810D02*
X026404Y008810D01*
X026157Y009057D01*
X026096Y009057D01*
X026096Y008810D01*
X026281Y008688D02*
X026281Y008441D01*
X026219Y008441D02*
X026096Y008565D01*
X026219Y008441D02*
X026466Y008441D01*
X027096Y008565D02*
X027219Y008688D01*
X027466Y008688D01*
X027404Y008810D02*
X027343Y008810D01*
X027281Y008871D01*
X027281Y008995D01*
X027343Y009057D01*
X027404Y009057D01*
X027466Y008995D01*
X027466Y008871D01*
X027404Y008810D01*
X027281Y008871D02*
X027219Y008810D01*
X027157Y008810D01*
X027096Y008871D01*
X027096Y008995D01*
X027157Y009057D01*
X027219Y009057D01*
X027281Y008995D01*
X027281Y008688D02*
X027281Y008441D01*
X027219Y008441D02*
X027466Y008441D01*
X027219Y008441D02*
X027096Y008565D01*
X028096Y008565D02*
X028219Y008688D01*
X028466Y008688D01*
X028404Y008810D02*
X028466Y008871D01*
X028466Y008995D01*
X028404Y009057D01*
X028157Y009057D01*
X028096Y008995D01*
X028096Y008871D01*
X028157Y008810D01*
X028219Y008810D01*
X028281Y008871D01*
X028281Y009057D01*
X028281Y008688D02*
X028281Y008441D01*
X028219Y008441D02*
X028096Y008565D01*
X028219Y008441D02*
X028466Y008441D01*
X029096Y008441D02*
X029343Y008441D01*
X029466Y008565D01*
X029343Y008688D01*
X029096Y008688D01*
X029157Y008810D02*
X029096Y008871D01*
X029096Y008995D01*
X029157Y009057D01*
X029219Y009057D01*
X029281Y008995D01*
X029343Y009057D01*
X029404Y009057D01*
X029466Y008995D01*
X029466Y008871D01*
X029404Y008810D01*
X029281Y008933D02*
X029281Y008995D01*
X029343Y008320D02*
X029404Y008320D01*
X029466Y008258D01*
X029466Y008135D01*
X029404Y008073D01*
X029281Y008196D02*
X029281Y008258D01*
X029343Y008320D01*
X029281Y008258D02*
X029219Y008320D01*
X029157Y008320D01*
X029096Y008258D01*
X029096Y008135D01*
X029157Y008073D01*
X030096Y008078D02*
X030219Y007955D01*
X030466Y007955D01*
X030281Y007955D02*
X030281Y008202D01*
X030219Y008202D02*
X030466Y008202D01*
X030404Y008323D02*
X030466Y008385D01*
X030466Y008508D01*
X030404Y008570D01*
X030281Y008570D01*
X030281Y008446D01*
X030404Y008323D02*
X030157Y008323D01*
X030096Y008385D01*
X030096Y008508D01*
X030157Y008570D01*
X030096Y008691D02*
X030466Y008938D01*
X030096Y008938D01*
X030096Y009060D02*
X030096Y009245D01*
X030157Y009307D01*
X030404Y009307D01*
X030466Y009245D01*
X030466Y009060D01*
X030096Y009060D01*
X030096Y008691D02*
X030466Y008691D01*
X031096Y008688D02*
X031096Y008564D01*
X031096Y008626D02*
X031466Y008626D01*
X031466Y008564D02*
X031466Y008688D01*
X031466Y008810D02*
X031096Y008810D01*
X031466Y009057D01*
X031096Y009057D01*
X031096Y008443D02*
X031343Y008443D01*
X031466Y008319D01*
X031343Y008196D01*
X031096Y008196D01*
X030219Y008202D02*
X030096Y008078D01*
X008654Y009183D02*
X008407Y009183D01*
X008531Y009060D02*
X008531Y009307D01*
D13*
X014331Y009413D02*
X014331Y008913D01*
X014581Y008663D01*
X015081Y008663D01*
X015331Y008913D01*
X015331Y009413D01*
X015081Y009663D01*
X015331Y009913D01*
X015331Y010413D01*
X015081Y010663D01*
X014581Y010663D01*
X014331Y010413D01*
X014331Y009913D01*
X014581Y009663D01*
X014331Y009413D01*
X009731Y017713D02*
X008926Y017713D01*
X008131Y018063D02*
X008131Y019763D01*
X008938Y020113D02*
X009731Y020113D01*
X010531Y019763D02*
X010531Y018063D01*
X008631Y018913D02*
X008633Y018965D01*
X008639Y019017D01*
X008649Y019069D01*
X008662Y019119D01*
X008679Y019169D01*
X008700Y019217D01*
X008725Y019263D01*
X008753Y019307D01*
X008784Y019349D01*
X008818Y019389D01*
X008855Y019426D01*
X008895Y019460D01*
X008937Y019491D01*
X008981Y019519D01*
X009027Y019544D01*
X009075Y019565D01*
X009125Y019582D01*
X009175Y019595D01*
X009227Y019605D01*
X009279Y019611D01*
X009331Y019613D01*
X009383Y019611D01*
X009435Y019605D01*
X009487Y019595D01*
X009537Y019582D01*
X009587Y019565D01*
X009635Y019544D01*
X009681Y019519D01*
X009725Y019491D01*
X009767Y019460D01*
X009807Y019426D01*
X009844Y019389D01*
X009878Y019349D01*
X009909Y019307D01*
X009937Y019263D01*
X009962Y019217D01*
X009983Y019169D01*
X010000Y019119D01*
X010013Y019069D01*
X010023Y019017D01*
X010029Y018965D01*
X010031Y018913D01*
X010029Y018861D01*
X010023Y018809D01*
X010013Y018757D01*
X010000Y018707D01*
X009983Y018657D01*
X009962Y018609D01*
X009937Y018563D01*
X009909Y018519D01*
X009878Y018477D01*
X009844Y018437D01*
X009807Y018400D01*
X009767Y018366D01*
X009725Y018335D01*
X009681Y018307D01*
X009635Y018282D01*
X009587Y018261D01*
X009537Y018244D01*
X009487Y018231D01*
X009435Y018221D01*
X009383Y018215D01*
X009331Y018213D01*
X009279Y018215D01*
X009227Y018221D01*
X009175Y018231D01*
X009125Y018244D01*
X009075Y018261D01*
X009027Y018282D01*
X008981Y018307D01*
X008937Y018335D01*
X008895Y018366D01*
X008855Y018400D01*
X008818Y018437D01*
X008784Y018477D01*
X008753Y018519D01*
X008725Y018563D01*
X008700Y018609D01*
X008679Y018657D01*
X008662Y018707D01*
X008649Y018757D01*
X008639Y018809D01*
X008633Y018861D01*
X008631Y018913D01*
X025831Y011913D02*
X025831Y011413D01*
X026081Y011163D01*
X026581Y011163D01*
X026831Y011413D01*
X027081Y011163D01*
X027581Y011163D01*
X027831Y011413D01*
X028081Y011163D01*
X028581Y011163D01*
X028831Y011413D01*
X028831Y011913D01*
X028581Y012163D01*
X028081Y012163D01*
X027831Y011913D01*
X027581Y012163D01*
X027081Y012163D01*
X026831Y011913D01*
X026581Y012163D01*
X026081Y012163D01*
X025831Y011913D01*
X032331Y016413D02*
X032331Y016913D01*
X032581Y017163D01*
X034081Y017163D01*
X034331Y017413D01*
X034331Y017913D01*
X034081Y018163D01*
X032581Y018163D01*
X032331Y018413D01*
X032331Y018913D01*
X032581Y019163D01*
X034081Y019163D01*
X034331Y018913D01*
X034331Y018413D01*
X034081Y018163D01*
X034081Y017163D02*
X034331Y016913D01*
X034331Y016413D01*
X034081Y016163D01*
X032581Y016163D01*
X032331Y016413D01*
X032581Y017163D02*
X032331Y017413D01*
X032331Y017913D01*
X032581Y018163D01*
X034463Y016913D02*
X034463Y016413D01*
D14*
X031831Y016413D02*
X031581Y016163D01*
X031081Y016163D01*
X030831Y016413D01*
X030831Y017913D01*
X030581Y018163D01*
X030081Y018163D01*
X029831Y017913D01*
X029831Y016413D01*
X029581Y016163D01*
X029081Y016163D01*
X028831Y016413D01*
X028831Y017913D01*
X028581Y018163D01*
X028081Y018163D01*
X027831Y017913D01*
X027831Y016413D01*
X027581Y016163D01*
X027081Y016163D01*
X026831Y016413D01*
X026831Y017913D01*
X026581Y018163D01*
X026081Y018163D01*
X025831Y017913D01*
X025831Y016413D01*
X025581Y016163D01*
X025081Y016163D01*
X024831Y016413D01*
X024831Y017913D01*
X025081Y018163D01*
X025581Y018163D01*
X025831Y017913D01*
X024831Y017913D02*
X024581Y018163D01*
X024081Y018163D01*
X023831Y017913D01*
X023831Y016413D01*
X023581Y016163D01*
X023081Y016163D01*
X022831Y016413D01*
X022831Y017913D01*
X023081Y018163D01*
X023581Y018163D01*
X023831Y017913D01*
X022831Y017913D02*
X022581Y018163D01*
X022081Y018163D01*
X021831Y017913D01*
X021831Y016413D01*
X021581Y016163D01*
X021081Y016163D01*
X020831Y016413D01*
X020831Y017913D01*
X021081Y018163D01*
X021581Y018163D01*
X021831Y017913D01*
X020831Y017913D02*
X020581Y018163D01*
X020081Y018163D01*
X019831Y017913D01*
X019831Y016413D01*
X019581Y016163D01*
X019081Y016163D01*
X018831Y016413D01*
X018581Y016163D01*
X018831Y015913D01*
X018831Y015413D01*
X018581Y015163D01*
X017081Y015163D01*
X016831Y014913D01*
X016831Y014413D01*
X017081Y014163D01*
X018581Y014163D01*
X018831Y013913D01*
X018831Y013413D01*
X018581Y013163D01*
X017081Y013163D01*
X016831Y012913D01*
X016831Y012413D01*
X017081Y012163D01*
X016831Y011913D01*
X016831Y011413D01*
X017081Y011163D01*
X018581Y011163D01*
X018831Y011413D01*
X018831Y011913D01*
X018581Y012163D01*
X017081Y012163D01*
X018081Y011163D02*
X018581Y011163D01*
X018831Y010913D01*
X018831Y009413D01*
X018581Y009163D01*
X018081Y009163D01*
X017831Y009413D01*
X017831Y010913D01*
X018081Y011163D01*
X018831Y010913D02*
X019081Y011163D01*
X019581Y011163D01*
X019831Y010913D01*
X019831Y009413D01*
X019581Y009163D01*
X019081Y009163D01*
X018831Y009413D01*
X019831Y009413D02*
X020081Y009163D01*
X020581Y009163D01*
X020831Y009413D01*
X020831Y010913D01*
X021081Y011163D01*
X021581Y011163D01*
X021831Y010913D01*
X021831Y009413D01*
X021581Y009163D01*
X021081Y009163D01*
X020831Y009413D01*
X021831Y009413D02*
X022081Y009163D01*
X022581Y009163D01*
X022831Y009413D01*
X022831Y010913D01*
X023081Y011163D01*
X023581Y011163D01*
X023831Y010913D01*
X023831Y009413D01*
X023581Y009163D01*
X023081Y009163D01*
X022831Y009413D01*
X023831Y009413D02*
X024081Y009163D01*
X024581Y009163D01*
X024831Y009413D01*
X024831Y010913D01*
X025081Y011163D01*
X025581Y011163D01*
X025831Y010913D01*
X025831Y009413D01*
X025581Y009163D01*
X025081Y009163D01*
X024831Y009413D01*
X025831Y009413D02*
X026081Y009163D01*
X026581Y009163D01*
X026831Y009413D01*
X026831Y010913D01*
X026581Y011163D01*
X026081Y011163D01*
X025831Y010913D01*
X024831Y010913D02*
X024581Y011163D01*
X024081Y011163D01*
X023831Y010913D01*
X022831Y010913D02*
X022581Y011163D01*
X022081Y011163D01*
X021831Y010913D01*
X020831Y010913D02*
X020581Y011163D01*
X020081Y011163D01*
X019831Y010913D01*
X018581Y012163D02*
X018831Y012413D01*
X018831Y012913D01*
X018581Y013163D01*
X018581Y014163D02*
X018831Y014413D01*
X018831Y014913D01*
X018581Y015163D01*
X018581Y016163D02*
X018081Y016163D01*
X017831Y016413D01*
X017831Y017913D01*
X018081Y018163D01*
X018581Y018163D01*
X018831Y017913D01*
X018831Y016413D01*
X018581Y016163D02*
X017081Y016163D01*
X016831Y015913D01*
X016831Y015413D01*
X017081Y015163D01*
X017081Y014163D02*
X016831Y013913D01*
X016831Y013413D01*
X017081Y013163D01*
X020081Y016163D02*
X019831Y016413D01*
X020081Y016163D02*
X020581Y016163D01*
X020831Y016413D01*
X021831Y016413D02*
X022081Y016163D01*
X022581Y016163D01*
X022831Y016413D01*
X023831Y016413D02*
X024081Y016163D01*
X024581Y016163D01*
X024831Y016413D01*
X025831Y016413D02*
X026081Y016163D01*
X026581Y016163D01*
X026831Y016413D01*
X027831Y016413D02*
X028081Y016163D01*
X028581Y016163D01*
X028831Y016413D01*
X029831Y016413D02*
X030081Y016163D01*
X030581Y016163D01*
X030831Y016413D01*
X031831Y016413D02*
X031831Y017913D01*
X031581Y018163D01*
X031081Y018163D01*
X030831Y017913D01*
X029831Y017913D02*
X029581Y018163D01*
X029081Y018163D01*
X028831Y017913D01*
X027831Y017913D02*
X027581Y018163D01*
X027081Y018163D01*
X026831Y017913D01*
X019831Y017913D02*
X019581Y018163D01*
X019081Y018163D01*
X018831Y017913D01*
X026831Y010913D02*
X027081Y011163D01*
X027581Y011163D01*
X027831Y010913D01*
X027831Y009413D01*
X027581Y009163D01*
X027081Y009163D01*
X026831Y009413D01*
X027831Y009413D02*
X028081Y009163D01*
X028581Y009163D01*
X028831Y009413D01*
X028831Y010913D01*
X028581Y011163D01*
X028081Y011163D01*
X027831Y010913D01*
X028831Y010913D02*
X029081Y011163D01*
X029581Y011163D01*
X029831Y010913D01*
X029831Y009413D01*
X029581Y009163D01*
X029081Y009163D01*
X028831Y009413D01*
X029831Y009413D02*
X030081Y009163D01*
X030581Y009163D01*
X030831Y009413D01*
X030831Y010913D01*
X030581Y011163D01*
X030081Y011163D01*
X029831Y010913D01*
X030831Y010913D02*
X031081Y011163D01*
X031581Y011163D01*
X031831Y010913D01*
X031831Y009413D01*
X031581Y009163D01*
X031081Y009163D01*
X030831Y009413D01*
X009449Y009427D02*
X009213Y009427D01*
X009213Y009899D02*
X009449Y009899D01*
D15*
X013636Y009729D02*
X013786Y009579D01*
X013861Y009419D02*
X013936Y009344D01*
X013936Y009118D01*
X014086Y009118D02*
X013636Y009118D01*
X013636Y009344D01*
X013711Y009419D01*
X013861Y009419D01*
X014086Y009579D02*
X014086Y009879D01*
X014086Y009729D02*
X013636Y009729D01*
X013636Y008958D02*
X013636Y008808D01*
X013636Y008883D02*
X014011Y008883D01*
X014086Y008808D01*
X014086Y008733D01*
X014011Y008658D01*
X011556Y017938D02*
X011106Y017938D01*
X011106Y018163D01*
X011181Y018238D01*
X011331Y018238D01*
X011406Y018163D01*
X011406Y017938D01*
X011406Y018088D02*
X011556Y018238D01*
X011556Y018398D02*
X011556Y018699D01*
X011481Y018859D02*
X011556Y018934D01*
X011556Y019084D01*
X011481Y019159D01*
X011406Y019159D01*
X011331Y019084D01*
X011331Y018934D01*
X011256Y018859D01*
X011181Y018859D01*
X011106Y018934D01*
X011106Y019084D01*
X011181Y019159D01*
X011106Y019319D02*
X011556Y019319D01*
X011556Y019619D01*
X011331Y019469D02*
X011331Y019319D01*
X011106Y019319D02*
X011106Y019619D01*
X011106Y019780D02*
X011106Y020080D01*
X011106Y019930D02*
X011556Y019930D01*
X011106Y018699D02*
X011106Y018398D01*
X011556Y018398D01*
X011331Y018398D02*
X011331Y018549D01*
X010727Y021189D02*
X009435Y021189D01*
X009435Y021541D01*
X007862Y021541D01*
X007862Y022063D01*
X008747Y022963D01*
X008747Y025320D01*
X007862Y026063D01*
X007862Y026785D01*
X009435Y026785D01*
X009435Y027137D01*
X010687Y027137D01*
X010687Y026785D01*
X011587Y026785D01*
X012703Y025730D01*
X012703Y022657D01*
X011527Y021541D01*
X010727Y021541D01*
X010727Y021189D01*
X012990Y022788D02*
X012990Y023093D01*
X013092Y023195D01*
X013193Y023195D01*
X013295Y023093D01*
X013295Y022788D01*
X013600Y022788D02*
X012990Y022788D01*
X013295Y023093D02*
X013397Y023195D01*
X013499Y023195D01*
X013600Y023093D01*
X013600Y022788D01*
X013600Y023396D02*
X013193Y023396D01*
X012990Y023599D01*
X013193Y023803D01*
X013600Y023803D01*
X013295Y023803D02*
X013295Y023396D01*
X012990Y024003D02*
X012990Y024410D01*
X012990Y024207D02*
X013600Y024207D01*
D16*
X009390Y009149D03*
X009390Y008677D03*
D17*
X009390Y008913D03*
M02*
