G75*
%MOIN*%
%OFA0B0*%
%FSLAX24Y24*%
%IPPOS*%
%LPD*%
%AMOC8*
5,1,8,0,0,1.08239X$1,22.5*
%
%ADD10C,0.0000*%
%ADD11C,0.1457*%
%ADD12C,0.0780*%
%ADD13R,0.0780X0.0780*%
%ADD14OC8,0.0780*%
%ADD15C,0.0098*%
%ADD16R,0.1600X0.1600*%
%ADD17R,0.1290X0.1290*%
%ADD18R,0.0490X0.0490*%
%ADD19C,0.0700*%
%ADD20R,0.1040X0.0540*%
%ADD21OC8,0.0640*%
%ADD22R,0.0360X0.0280*%
%ADD23C,0.0800*%
%ADD24C,0.0840*%
%ADD25R,0.0640X0.0640*%
%ADD26C,0.0640*%
%ADD27C,0.0390*%
%ADD28R,0.1120X0.0890*%
%ADD29C,0.0414*%
%ADD30R,0.0640X0.1040*%
%ADD31R,0.0940X0.0490*%
%ADD32R,0.0631X0.0197*%
%ADD33R,0.0690X0.0690*%
%ADD34C,0.0690*%
%ADD35C,0.0110*%
%ADD36R,0.1240X0.0540*%
D10*
X005510Y005143D02*
X005510Y030393D01*
X005510Y030389D02*
X044880Y030389D01*
X044880Y005143D01*
X005510Y005143D01*
X006051Y008893D02*
X006053Y008946D01*
X006059Y008999D01*
X006069Y009051D01*
X006082Y009102D01*
X006100Y009152D01*
X006121Y009201D01*
X006146Y009248D01*
X006174Y009292D01*
X006206Y009335D01*
X006240Y009375D01*
X006278Y009413D01*
X006318Y009447D01*
X006361Y009479D01*
X006406Y009507D01*
X006452Y009532D01*
X006501Y009553D01*
X006551Y009571D01*
X006602Y009584D01*
X006654Y009594D01*
X006707Y009600D01*
X006760Y009602D01*
X006813Y009600D01*
X006866Y009594D01*
X006918Y009584D01*
X006969Y009571D01*
X007019Y009553D01*
X007068Y009532D01*
X007115Y009507D01*
X007159Y009479D01*
X007202Y009447D01*
X007242Y009413D01*
X007280Y009375D01*
X007314Y009335D01*
X007346Y009292D01*
X007374Y009247D01*
X007399Y009201D01*
X007420Y009152D01*
X007438Y009102D01*
X007451Y009051D01*
X007461Y008999D01*
X007467Y008946D01*
X007469Y008893D01*
X007467Y008840D01*
X007461Y008787D01*
X007451Y008735D01*
X007438Y008684D01*
X007420Y008634D01*
X007399Y008585D01*
X007374Y008538D01*
X007346Y008494D01*
X007314Y008451D01*
X007280Y008411D01*
X007242Y008373D01*
X007202Y008339D01*
X007159Y008307D01*
X007114Y008279D01*
X007068Y008254D01*
X007019Y008233D01*
X006969Y008215D01*
X006918Y008202D01*
X006866Y008192D01*
X006813Y008186D01*
X006760Y008184D01*
X006707Y008186D01*
X006654Y008192D01*
X006602Y008202D01*
X006551Y008215D01*
X006501Y008233D01*
X006452Y008254D01*
X006405Y008279D01*
X006361Y008307D01*
X006318Y008339D01*
X006278Y008373D01*
X006240Y008411D01*
X006206Y008451D01*
X006174Y008494D01*
X006146Y008539D01*
X006121Y008585D01*
X006100Y008634D01*
X006082Y008684D01*
X006069Y008735D01*
X006059Y008787D01*
X006053Y008840D01*
X006051Y008893D01*
X018120Y005643D02*
X018122Y005670D01*
X018128Y005696D01*
X018137Y005721D01*
X018150Y005744D01*
X018166Y005765D01*
X018185Y005784D01*
X018206Y005800D01*
X018229Y005813D01*
X018254Y005822D01*
X018280Y005828D01*
X018307Y005830D01*
X018334Y005828D01*
X018360Y005822D01*
X018385Y005813D01*
X018408Y005800D01*
X018429Y005784D01*
X018448Y005765D01*
X018464Y005744D01*
X018477Y005721D01*
X018486Y005696D01*
X018492Y005670D01*
X018494Y005643D01*
X018492Y005616D01*
X018486Y005590D01*
X018477Y005565D01*
X018464Y005542D01*
X018448Y005521D01*
X018429Y005502D01*
X018408Y005486D01*
X018385Y005473D01*
X018360Y005464D01*
X018334Y005458D01*
X018307Y005456D01*
X018280Y005458D01*
X018254Y005464D01*
X018229Y005473D01*
X018206Y005486D01*
X018185Y005502D01*
X018166Y005521D01*
X018150Y005542D01*
X018137Y005565D01*
X018128Y005590D01*
X018122Y005616D01*
X018120Y005643D01*
X019025Y005643D02*
X019027Y005670D01*
X019033Y005696D01*
X019042Y005721D01*
X019055Y005744D01*
X019071Y005765D01*
X019090Y005784D01*
X019111Y005800D01*
X019134Y005813D01*
X019159Y005822D01*
X019185Y005828D01*
X019212Y005830D01*
X019239Y005828D01*
X019265Y005822D01*
X019290Y005813D01*
X019313Y005800D01*
X019334Y005784D01*
X019353Y005765D01*
X019369Y005744D01*
X019382Y005721D01*
X019391Y005696D01*
X019397Y005670D01*
X019399Y005643D01*
X019397Y005616D01*
X019391Y005590D01*
X019382Y005565D01*
X019369Y005542D01*
X019353Y005521D01*
X019334Y005502D01*
X019313Y005486D01*
X019290Y005473D01*
X019265Y005464D01*
X019239Y005458D01*
X019212Y005456D01*
X019185Y005458D01*
X019159Y005464D01*
X019134Y005473D01*
X019111Y005486D01*
X019090Y005502D01*
X019071Y005521D01*
X019055Y005542D01*
X019042Y005565D01*
X019033Y005590D01*
X019027Y005616D01*
X019025Y005643D01*
X022370Y005643D02*
X022372Y005670D01*
X022378Y005696D01*
X022387Y005721D01*
X022400Y005744D01*
X022416Y005765D01*
X022435Y005784D01*
X022456Y005800D01*
X022479Y005813D01*
X022504Y005822D01*
X022530Y005828D01*
X022557Y005830D01*
X022584Y005828D01*
X022610Y005822D01*
X022635Y005813D01*
X022658Y005800D01*
X022679Y005784D01*
X022698Y005765D01*
X022714Y005744D01*
X022727Y005721D01*
X022736Y005696D01*
X022742Y005670D01*
X022744Y005643D01*
X022742Y005616D01*
X022736Y005590D01*
X022727Y005565D01*
X022714Y005542D01*
X022698Y005521D01*
X022679Y005502D01*
X022658Y005486D01*
X022635Y005473D01*
X022610Y005464D01*
X022584Y005458D01*
X022557Y005456D01*
X022530Y005458D01*
X022504Y005464D01*
X022479Y005473D01*
X022456Y005486D01*
X022435Y005502D01*
X022416Y005521D01*
X022400Y005542D01*
X022387Y005565D01*
X022378Y005590D01*
X022372Y005616D01*
X022370Y005643D01*
X023275Y005643D02*
X023277Y005670D01*
X023283Y005696D01*
X023292Y005721D01*
X023305Y005744D01*
X023321Y005765D01*
X023340Y005784D01*
X023361Y005800D01*
X023384Y005813D01*
X023409Y005822D01*
X023435Y005828D01*
X023462Y005830D01*
X023489Y005828D01*
X023515Y005822D01*
X023540Y005813D01*
X023563Y005800D01*
X023584Y005784D01*
X023603Y005765D01*
X023619Y005744D01*
X023632Y005721D01*
X023641Y005696D01*
X023647Y005670D01*
X023649Y005643D01*
X023647Y005616D01*
X023641Y005590D01*
X023632Y005565D01*
X023619Y005542D01*
X023603Y005521D01*
X023584Y005502D01*
X023563Y005486D01*
X023540Y005473D01*
X023515Y005464D01*
X023489Y005458D01*
X023462Y005456D01*
X023435Y005458D01*
X023409Y005464D01*
X023384Y005473D01*
X023361Y005486D01*
X023340Y005502D01*
X023321Y005521D01*
X023305Y005542D01*
X023292Y005565D01*
X023283Y005590D01*
X023277Y005616D01*
X023275Y005643D01*
X026551Y010893D02*
X026553Y010946D01*
X026559Y010999D01*
X026569Y011051D01*
X026582Y011102D01*
X026600Y011152D01*
X026621Y011201D01*
X026646Y011248D01*
X026674Y011292D01*
X026706Y011335D01*
X026740Y011375D01*
X026778Y011413D01*
X026818Y011447D01*
X026861Y011479D01*
X026906Y011507D01*
X026952Y011532D01*
X027001Y011553D01*
X027051Y011571D01*
X027102Y011584D01*
X027154Y011594D01*
X027207Y011600D01*
X027260Y011602D01*
X027313Y011600D01*
X027366Y011594D01*
X027418Y011584D01*
X027469Y011571D01*
X027519Y011553D01*
X027568Y011532D01*
X027615Y011507D01*
X027659Y011479D01*
X027702Y011447D01*
X027742Y011413D01*
X027780Y011375D01*
X027814Y011335D01*
X027846Y011292D01*
X027874Y011247D01*
X027899Y011201D01*
X027920Y011152D01*
X027938Y011102D01*
X027951Y011051D01*
X027961Y010999D01*
X027967Y010946D01*
X027969Y010893D01*
X027967Y010840D01*
X027961Y010787D01*
X027951Y010735D01*
X027938Y010684D01*
X027920Y010634D01*
X027899Y010585D01*
X027874Y010538D01*
X027846Y010494D01*
X027814Y010451D01*
X027780Y010411D01*
X027742Y010373D01*
X027702Y010339D01*
X027659Y010307D01*
X027614Y010279D01*
X027568Y010254D01*
X027519Y010233D01*
X027469Y010215D01*
X027418Y010202D01*
X027366Y010192D01*
X027313Y010186D01*
X027260Y010184D01*
X027207Y010186D01*
X027154Y010192D01*
X027102Y010202D01*
X027051Y010215D01*
X027001Y010233D01*
X026952Y010254D01*
X026905Y010279D01*
X026861Y010307D01*
X026818Y010339D01*
X026778Y010373D01*
X026740Y010411D01*
X026706Y010451D01*
X026674Y010494D01*
X026646Y010539D01*
X026621Y010585D01*
X026600Y010634D01*
X026582Y010684D01*
X026569Y010735D01*
X026559Y010787D01*
X026553Y010840D01*
X026551Y010893D01*
X026551Y021893D02*
X026553Y021946D01*
X026559Y021999D01*
X026569Y022051D01*
X026582Y022102D01*
X026600Y022152D01*
X026621Y022201D01*
X026646Y022248D01*
X026674Y022292D01*
X026706Y022335D01*
X026740Y022375D01*
X026778Y022413D01*
X026818Y022447D01*
X026861Y022479D01*
X026906Y022507D01*
X026952Y022532D01*
X027001Y022553D01*
X027051Y022571D01*
X027102Y022584D01*
X027154Y022594D01*
X027207Y022600D01*
X027260Y022602D01*
X027313Y022600D01*
X027366Y022594D01*
X027418Y022584D01*
X027469Y022571D01*
X027519Y022553D01*
X027568Y022532D01*
X027615Y022507D01*
X027659Y022479D01*
X027702Y022447D01*
X027742Y022413D01*
X027780Y022375D01*
X027814Y022335D01*
X027846Y022292D01*
X027874Y022247D01*
X027899Y022201D01*
X027920Y022152D01*
X027938Y022102D01*
X027951Y022051D01*
X027961Y021999D01*
X027967Y021946D01*
X027969Y021893D01*
X027967Y021840D01*
X027961Y021787D01*
X027951Y021735D01*
X027938Y021684D01*
X027920Y021634D01*
X027899Y021585D01*
X027874Y021538D01*
X027846Y021494D01*
X027814Y021451D01*
X027780Y021411D01*
X027742Y021373D01*
X027702Y021339D01*
X027659Y021307D01*
X027614Y021279D01*
X027568Y021254D01*
X027519Y021233D01*
X027469Y021215D01*
X027418Y021202D01*
X027366Y021192D01*
X027313Y021186D01*
X027260Y021184D01*
X027207Y021186D01*
X027154Y021192D01*
X027102Y021202D01*
X027051Y021215D01*
X027001Y021233D01*
X026952Y021254D01*
X026905Y021279D01*
X026861Y021307D01*
X026818Y021339D01*
X026778Y021373D01*
X026740Y021411D01*
X026706Y021451D01*
X026674Y021494D01*
X026646Y021539D01*
X026621Y021585D01*
X026600Y021634D01*
X026582Y021684D01*
X026569Y021735D01*
X026559Y021787D01*
X026553Y021840D01*
X026551Y021893D01*
X035859Y029235D02*
X035861Y029261D01*
X035867Y029287D01*
X035876Y029311D01*
X035889Y029334D01*
X035906Y029354D01*
X035925Y029372D01*
X035947Y029387D01*
X035970Y029398D01*
X035995Y029406D01*
X036021Y029410D01*
X036047Y029410D01*
X036073Y029406D01*
X036098Y029398D01*
X036122Y029387D01*
X036143Y029372D01*
X036162Y029354D01*
X036179Y029334D01*
X036192Y029311D01*
X036201Y029287D01*
X036207Y029261D01*
X036209Y029235D01*
X036207Y029209D01*
X036201Y029183D01*
X036192Y029159D01*
X036179Y029136D01*
X036162Y029116D01*
X036143Y029098D01*
X036121Y029083D01*
X036098Y029072D01*
X036073Y029064D01*
X036047Y029060D01*
X036021Y029060D01*
X035995Y029064D01*
X035970Y029072D01*
X035946Y029083D01*
X035925Y029098D01*
X035906Y029116D01*
X035889Y029136D01*
X035876Y029159D01*
X035867Y029183D01*
X035861Y029209D01*
X035859Y029235D01*
X039008Y029235D02*
X039010Y029261D01*
X039016Y029287D01*
X039025Y029311D01*
X039038Y029334D01*
X039055Y029354D01*
X039074Y029372D01*
X039096Y029387D01*
X039119Y029398D01*
X039144Y029406D01*
X039170Y029410D01*
X039196Y029410D01*
X039222Y029406D01*
X039247Y029398D01*
X039271Y029387D01*
X039292Y029372D01*
X039311Y029354D01*
X039328Y029334D01*
X039341Y029311D01*
X039350Y029287D01*
X039356Y029261D01*
X039358Y029235D01*
X039356Y029209D01*
X039350Y029183D01*
X039341Y029159D01*
X039328Y029136D01*
X039311Y029116D01*
X039292Y029098D01*
X039270Y029083D01*
X039247Y029072D01*
X039222Y029064D01*
X039196Y029060D01*
X039170Y029060D01*
X039144Y029064D01*
X039119Y029072D01*
X039095Y029083D01*
X039074Y029098D01*
X039055Y029116D01*
X039038Y029136D01*
X039025Y029159D01*
X039016Y029183D01*
X039010Y029209D01*
X039008Y029235D01*
X042665Y027893D02*
X042667Y027946D01*
X042673Y027999D01*
X042683Y028051D01*
X042696Y028102D01*
X042714Y028152D01*
X042735Y028201D01*
X042760Y028248D01*
X042788Y028292D01*
X042820Y028335D01*
X042854Y028375D01*
X042892Y028413D01*
X042932Y028447D01*
X042975Y028479D01*
X043020Y028507D01*
X043066Y028532D01*
X043115Y028553D01*
X043165Y028571D01*
X043216Y028584D01*
X043268Y028594D01*
X043321Y028600D01*
X043374Y028602D01*
X043427Y028600D01*
X043480Y028594D01*
X043532Y028584D01*
X043583Y028571D01*
X043633Y028553D01*
X043682Y028532D01*
X043729Y028507D01*
X043773Y028479D01*
X043816Y028447D01*
X043856Y028413D01*
X043894Y028375D01*
X043928Y028335D01*
X043960Y028292D01*
X043988Y028247D01*
X044013Y028201D01*
X044034Y028152D01*
X044052Y028102D01*
X044065Y028051D01*
X044075Y027999D01*
X044081Y027946D01*
X044083Y027893D01*
X044081Y027840D01*
X044075Y027787D01*
X044065Y027735D01*
X044052Y027684D01*
X044034Y027634D01*
X044013Y027585D01*
X043988Y027538D01*
X043960Y027494D01*
X043928Y027451D01*
X043894Y027411D01*
X043856Y027373D01*
X043816Y027339D01*
X043773Y027307D01*
X043728Y027279D01*
X043682Y027254D01*
X043633Y027233D01*
X043583Y027215D01*
X043532Y027202D01*
X043480Y027192D01*
X043427Y027186D01*
X043374Y027184D01*
X043321Y027186D01*
X043268Y027192D01*
X043216Y027202D01*
X043165Y027215D01*
X043115Y027233D01*
X043066Y027254D01*
X043019Y027279D01*
X042975Y027307D01*
X042932Y027339D01*
X042892Y027373D01*
X042854Y027411D01*
X042820Y027451D01*
X042788Y027494D01*
X042760Y027539D01*
X042735Y027585D01*
X042714Y027634D01*
X042696Y027684D01*
X042683Y027735D01*
X042673Y027787D01*
X042667Y027840D01*
X042665Y027893D01*
X042665Y008893D02*
X042667Y008946D01*
X042673Y008999D01*
X042683Y009051D01*
X042696Y009102D01*
X042714Y009152D01*
X042735Y009201D01*
X042760Y009248D01*
X042788Y009292D01*
X042820Y009335D01*
X042854Y009375D01*
X042892Y009413D01*
X042932Y009447D01*
X042975Y009479D01*
X043020Y009507D01*
X043066Y009532D01*
X043115Y009553D01*
X043165Y009571D01*
X043216Y009584D01*
X043268Y009594D01*
X043321Y009600D01*
X043374Y009602D01*
X043427Y009600D01*
X043480Y009594D01*
X043532Y009584D01*
X043583Y009571D01*
X043633Y009553D01*
X043682Y009532D01*
X043729Y009507D01*
X043773Y009479D01*
X043816Y009447D01*
X043856Y009413D01*
X043894Y009375D01*
X043928Y009335D01*
X043960Y009292D01*
X043988Y009247D01*
X044013Y009201D01*
X044034Y009152D01*
X044052Y009102D01*
X044065Y009051D01*
X044075Y008999D01*
X044081Y008946D01*
X044083Y008893D01*
X044081Y008840D01*
X044075Y008787D01*
X044065Y008735D01*
X044052Y008684D01*
X044034Y008634D01*
X044013Y008585D01*
X043988Y008538D01*
X043960Y008494D01*
X043928Y008451D01*
X043894Y008411D01*
X043856Y008373D01*
X043816Y008339D01*
X043773Y008307D01*
X043728Y008279D01*
X043682Y008254D01*
X043633Y008233D01*
X043583Y008215D01*
X043532Y008202D01*
X043480Y008192D01*
X043427Y008186D01*
X043374Y008184D01*
X043321Y008186D01*
X043268Y008192D01*
X043216Y008202D01*
X043165Y008215D01*
X043115Y008233D01*
X043066Y008254D01*
X043019Y008279D01*
X042975Y008307D01*
X042932Y008339D01*
X042892Y008373D01*
X042854Y008411D01*
X042820Y008451D01*
X042788Y008494D01*
X042760Y008539D01*
X042735Y008585D01*
X042714Y008634D01*
X042696Y008684D01*
X042683Y008735D01*
X042673Y008787D01*
X042667Y008840D01*
X042665Y008893D01*
X006551Y027893D02*
X006553Y027946D01*
X006559Y027999D01*
X006569Y028051D01*
X006582Y028102D01*
X006600Y028152D01*
X006621Y028201D01*
X006646Y028248D01*
X006674Y028292D01*
X006706Y028335D01*
X006740Y028375D01*
X006778Y028413D01*
X006818Y028447D01*
X006861Y028479D01*
X006906Y028507D01*
X006952Y028532D01*
X007001Y028553D01*
X007051Y028571D01*
X007102Y028584D01*
X007154Y028594D01*
X007207Y028600D01*
X007260Y028602D01*
X007313Y028600D01*
X007366Y028594D01*
X007418Y028584D01*
X007469Y028571D01*
X007519Y028553D01*
X007568Y028532D01*
X007615Y028507D01*
X007659Y028479D01*
X007702Y028447D01*
X007742Y028413D01*
X007780Y028375D01*
X007814Y028335D01*
X007846Y028292D01*
X007874Y028247D01*
X007899Y028201D01*
X007920Y028152D01*
X007938Y028102D01*
X007951Y028051D01*
X007961Y027999D01*
X007967Y027946D01*
X007969Y027893D01*
X007967Y027840D01*
X007961Y027787D01*
X007951Y027735D01*
X007938Y027684D01*
X007920Y027634D01*
X007899Y027585D01*
X007874Y027538D01*
X007846Y027494D01*
X007814Y027451D01*
X007780Y027411D01*
X007742Y027373D01*
X007702Y027339D01*
X007659Y027307D01*
X007614Y027279D01*
X007568Y027254D01*
X007519Y027233D01*
X007469Y027215D01*
X007418Y027202D01*
X007366Y027192D01*
X007313Y027186D01*
X007260Y027184D01*
X007207Y027186D01*
X007154Y027192D01*
X007102Y027202D01*
X007051Y027215D01*
X007001Y027233D01*
X006952Y027254D01*
X006905Y027279D01*
X006861Y027307D01*
X006818Y027339D01*
X006778Y027373D01*
X006740Y027411D01*
X006706Y027451D01*
X006674Y027494D01*
X006646Y027539D01*
X006621Y027585D01*
X006600Y027634D01*
X006582Y027684D01*
X006569Y027735D01*
X006559Y027787D01*
X006553Y027840D01*
X006551Y027893D01*
D11*
X007260Y027893D03*
X027260Y021893D03*
X027260Y010893D03*
X043374Y008893D03*
X043374Y027893D03*
X006760Y008893D03*
D12*
X012260Y008893D03*
X013260Y008893D03*
X014260Y008893D03*
X015260Y008893D03*
X016260Y008893D03*
X017260Y008893D03*
X018260Y008893D03*
X016260Y010393D03*
X015260Y010393D03*
X021260Y008893D03*
X022260Y008893D03*
X023260Y008893D03*
X024260Y008893D03*
X025260Y008893D03*
X026260Y008893D03*
X042670Y023063D03*
X042670Y024063D03*
X042670Y025063D03*
X025260Y027893D03*
X024260Y027893D03*
X023260Y027893D03*
X022260Y027893D03*
X021260Y027893D03*
X020260Y027893D03*
X019260Y027893D03*
X017660Y027893D03*
X016660Y027893D03*
X015660Y027893D03*
X014660Y027893D03*
X013660Y027893D03*
X012660Y027893D03*
X011660Y027893D03*
X010660Y027893D03*
X009660Y027893D03*
X008660Y027893D03*
D13*
X026260Y027893D03*
X042670Y022063D03*
X019260Y008893D03*
D14*
X026260Y017893D03*
X027260Y017893D03*
X027260Y018893D03*
X026260Y018893D03*
X026260Y019893D03*
X027260Y019893D03*
D15*
X029656Y018739D02*
X029656Y018447D01*
X029364Y018447D01*
X029364Y018739D01*
X029656Y018739D01*
X029656Y018544D02*
X029364Y018544D01*
X029364Y018641D02*
X029656Y018641D01*
X029656Y018738D02*
X029364Y018738D01*
X030656Y018739D02*
X030656Y018447D01*
X030364Y018447D01*
X030364Y018739D01*
X030656Y018739D01*
X030656Y018544D02*
X030364Y018544D01*
X030364Y018641D02*
X030656Y018641D01*
X030656Y018738D02*
X030364Y018738D01*
X030656Y018139D02*
X030656Y017847D01*
X030364Y017847D01*
X030364Y018139D01*
X030656Y018139D01*
X030656Y017944D02*
X030364Y017944D01*
X030364Y018041D02*
X030656Y018041D01*
X030656Y018138D02*
X030364Y018138D01*
X029656Y018139D02*
X029656Y017847D01*
X029364Y017847D01*
X029364Y018139D01*
X029656Y018139D01*
X029656Y017944D02*
X029364Y017944D01*
X029364Y018041D02*
X029656Y018041D01*
X029656Y018138D02*
X029364Y018138D01*
X031656Y018139D02*
X031656Y017847D01*
X031364Y017847D01*
X031364Y018139D01*
X031656Y018139D01*
X031656Y017944D02*
X031364Y017944D01*
X031364Y018041D02*
X031656Y018041D01*
X031656Y018138D02*
X031364Y018138D01*
X031656Y018447D02*
X031656Y018739D01*
X031656Y018447D02*
X031364Y018447D01*
X031364Y018739D01*
X031656Y018739D01*
X031656Y018544D02*
X031364Y018544D01*
X031364Y018641D02*
X031656Y018641D01*
X031656Y018738D02*
X031364Y018738D01*
X032656Y018739D02*
X032656Y018447D01*
X032364Y018447D01*
X032364Y018739D01*
X032656Y018739D01*
X032656Y018544D02*
X032364Y018544D01*
X032364Y018641D02*
X032656Y018641D01*
X032656Y018738D02*
X032364Y018738D01*
X032656Y018139D02*
X032656Y017847D01*
X032364Y017847D01*
X032364Y018139D01*
X032656Y018139D01*
X032656Y017944D02*
X032364Y017944D01*
X032364Y018041D02*
X032656Y018041D01*
X032656Y018138D02*
X032364Y018138D01*
X033656Y018139D02*
X033656Y017847D01*
X033364Y017847D01*
X033364Y018139D01*
X033656Y018139D01*
X033656Y017944D02*
X033364Y017944D01*
X033364Y018041D02*
X033656Y018041D01*
X033656Y018138D02*
X033364Y018138D01*
X033656Y018447D02*
X033656Y018739D01*
X033656Y018447D02*
X033364Y018447D01*
X033364Y018739D01*
X033656Y018739D01*
X033656Y018544D02*
X033364Y018544D01*
X033364Y018641D02*
X033656Y018641D01*
X033656Y018738D02*
X033364Y018738D01*
X034656Y018739D02*
X034656Y018447D01*
X034364Y018447D01*
X034364Y018739D01*
X034656Y018739D01*
X034656Y018544D02*
X034364Y018544D01*
X034364Y018641D02*
X034656Y018641D01*
X034656Y018738D02*
X034364Y018738D01*
X035656Y018739D02*
X035656Y018447D01*
X035364Y018447D01*
X035364Y018739D01*
X035656Y018739D01*
X035656Y018544D02*
X035364Y018544D01*
X035364Y018641D02*
X035656Y018641D01*
X035656Y018738D02*
X035364Y018738D01*
X035656Y018139D02*
X035656Y017847D01*
X035364Y017847D01*
X035364Y018139D01*
X035656Y018139D01*
X035656Y017944D02*
X035364Y017944D01*
X035364Y018041D02*
X035656Y018041D01*
X035656Y018138D02*
X035364Y018138D01*
X034656Y018139D02*
X034656Y017847D01*
X034364Y017847D01*
X034364Y018139D01*
X034656Y018139D01*
X034656Y017944D02*
X034364Y017944D01*
X034364Y018041D02*
X034656Y018041D01*
X034656Y018138D02*
X034364Y018138D01*
X036656Y018139D02*
X036656Y017847D01*
X036364Y017847D01*
X036364Y018139D01*
X036656Y018139D01*
X036656Y017944D02*
X036364Y017944D01*
X036364Y018041D02*
X036656Y018041D01*
X036656Y018138D02*
X036364Y018138D01*
X036656Y018447D02*
X036656Y018739D01*
X036656Y018447D02*
X036364Y018447D01*
X036364Y018739D01*
X036656Y018739D01*
X036656Y018544D02*
X036364Y018544D01*
X036364Y018641D02*
X036656Y018641D01*
X036656Y018738D02*
X036364Y018738D01*
X037656Y018739D02*
X037656Y018447D01*
X037364Y018447D01*
X037364Y018739D01*
X037656Y018739D01*
X037656Y018544D02*
X037364Y018544D01*
X037364Y018641D02*
X037656Y018641D01*
X037656Y018738D02*
X037364Y018738D01*
X038656Y018739D02*
X038656Y018447D01*
X038364Y018447D01*
X038364Y018739D01*
X038656Y018739D01*
X038656Y018544D02*
X038364Y018544D01*
X038364Y018641D02*
X038656Y018641D01*
X038656Y018738D02*
X038364Y018738D01*
X039656Y018739D02*
X039656Y018447D01*
X039364Y018447D01*
X039364Y018739D01*
X039656Y018739D01*
X039656Y018544D02*
X039364Y018544D01*
X039364Y018641D02*
X039656Y018641D01*
X039656Y018738D02*
X039364Y018738D01*
X039656Y018139D02*
X039656Y017847D01*
X039364Y017847D01*
X039364Y018139D01*
X039656Y018139D01*
X039656Y017944D02*
X039364Y017944D01*
X039364Y018041D02*
X039656Y018041D01*
X039656Y018138D02*
X039364Y018138D01*
X038656Y018139D02*
X038656Y017847D01*
X038364Y017847D01*
X038364Y018139D01*
X038656Y018139D01*
X038656Y017944D02*
X038364Y017944D01*
X038364Y018041D02*
X038656Y018041D01*
X038656Y018138D02*
X038364Y018138D01*
X037656Y018139D02*
X037656Y017847D01*
X037364Y017847D01*
X037364Y018139D01*
X037656Y018139D01*
X037656Y017944D02*
X037364Y017944D01*
X037364Y018041D02*
X037656Y018041D01*
X037656Y018138D02*
X037364Y018138D01*
X040656Y018139D02*
X040656Y017847D01*
X040364Y017847D01*
X040364Y018139D01*
X040656Y018139D01*
X040656Y017944D02*
X040364Y017944D01*
X040364Y018041D02*
X040656Y018041D01*
X040656Y018138D02*
X040364Y018138D01*
X040656Y018447D02*
X040656Y018739D01*
X040656Y018447D02*
X040364Y018447D01*
X040364Y018739D01*
X040656Y018739D01*
X040656Y018544D02*
X040364Y018544D01*
X040364Y018641D02*
X040656Y018641D01*
X040656Y018738D02*
X040364Y018738D01*
X041656Y018739D02*
X041656Y018447D01*
X041364Y018447D01*
X041364Y018739D01*
X041656Y018739D01*
X041656Y018544D02*
X041364Y018544D01*
X041364Y018641D02*
X041656Y018641D01*
X041656Y018738D02*
X041364Y018738D01*
X041656Y018139D02*
X041656Y017847D01*
X041364Y017847D01*
X041364Y018139D01*
X041656Y018139D01*
X041656Y017944D02*
X041364Y017944D01*
X041364Y018041D02*
X041656Y018041D01*
X041656Y018138D02*
X041364Y018138D01*
X042656Y018139D02*
X042656Y017847D01*
X042364Y017847D01*
X042364Y018139D01*
X042656Y018139D01*
X042656Y017944D02*
X042364Y017944D01*
X042364Y018041D02*
X042656Y018041D01*
X042656Y018138D02*
X042364Y018138D01*
X042656Y018447D02*
X042656Y018739D01*
X042656Y018447D02*
X042364Y018447D01*
X042364Y018739D01*
X042656Y018739D01*
X042656Y018544D02*
X042364Y018544D01*
X042364Y018641D02*
X042656Y018641D01*
X042656Y018738D02*
X042364Y018738D01*
X025360Y013011D02*
X025360Y012719D01*
X025068Y012719D01*
X025068Y013011D01*
X025360Y013011D01*
X025360Y012816D02*
X025068Y012816D01*
X025068Y012913D02*
X025360Y012913D01*
X025360Y013010D02*
X025068Y013010D01*
X024465Y013011D02*
X024465Y012719D01*
X024173Y012719D01*
X024173Y013011D01*
X024465Y013011D01*
X024465Y012816D02*
X024173Y012816D01*
X024173Y012913D02*
X024465Y012913D01*
X024465Y013010D02*
X024173Y013010D01*
X024465Y012411D02*
X024465Y012119D01*
X024173Y012119D01*
X024173Y012411D01*
X024465Y012411D01*
X024465Y012216D02*
X024173Y012216D01*
X024173Y012313D02*
X024465Y012313D01*
X024465Y012410D02*
X024173Y012410D01*
X025360Y012411D02*
X025360Y012119D01*
X025068Y012119D01*
X025068Y012411D01*
X025360Y012411D01*
X025360Y012216D02*
X025068Y012216D01*
X025068Y012313D02*
X025360Y012313D01*
X025360Y012410D02*
X025068Y012410D01*
X025406Y010989D02*
X025406Y010697D01*
X025114Y010697D01*
X025114Y010989D01*
X025406Y010989D01*
X025406Y010794D02*
X025114Y010794D01*
X025114Y010891D02*
X025406Y010891D01*
X025406Y010988D02*
X025114Y010988D01*
X025406Y010389D02*
X025406Y010097D01*
X025114Y010097D01*
X025114Y010389D01*
X025406Y010389D01*
X025406Y010194D02*
X025114Y010194D01*
X025114Y010291D02*
X025406Y010291D01*
X025406Y010388D02*
X025114Y010388D01*
X024406Y010389D02*
X024406Y010097D01*
X024114Y010097D01*
X024114Y010389D01*
X024406Y010389D01*
X024406Y010194D02*
X024114Y010194D01*
X024114Y010291D02*
X024406Y010291D01*
X024406Y010388D02*
X024114Y010388D01*
X024406Y010697D02*
X024406Y010989D01*
X024406Y010697D02*
X024114Y010697D01*
X024114Y010989D01*
X024406Y010989D01*
X024406Y010794D02*
X024114Y010794D01*
X024114Y010891D02*
X024406Y010891D01*
X024406Y010988D02*
X024114Y010988D01*
X023156Y010989D02*
X023156Y010697D01*
X022864Y010697D01*
X022864Y010989D01*
X023156Y010989D01*
X023156Y010794D02*
X022864Y010794D01*
X022864Y010891D02*
X023156Y010891D01*
X023156Y010988D02*
X022864Y010988D01*
X023156Y010389D02*
X023156Y010097D01*
X022864Y010097D01*
X022864Y010389D01*
X023156Y010389D01*
X023156Y010194D02*
X022864Y010194D01*
X022864Y010291D02*
X023156Y010291D01*
X023156Y010388D02*
X022864Y010388D01*
X022156Y010389D02*
X022156Y010097D01*
X021864Y010097D01*
X021864Y010389D01*
X022156Y010389D01*
X022156Y010194D02*
X021864Y010194D01*
X021864Y010291D02*
X022156Y010291D01*
X022156Y010388D02*
X021864Y010388D01*
X022156Y010697D02*
X022156Y010989D01*
X022156Y010697D02*
X021864Y010697D01*
X021864Y010989D01*
X022156Y010989D01*
X022156Y010794D02*
X021864Y010794D01*
X021864Y010891D02*
X022156Y010891D01*
X022156Y010988D02*
X021864Y010988D01*
X021156Y010989D02*
X021156Y010697D01*
X020864Y010697D01*
X020864Y010989D01*
X021156Y010989D01*
X021156Y010794D02*
X020864Y010794D01*
X020864Y010891D02*
X021156Y010891D01*
X021156Y010988D02*
X020864Y010988D01*
X021156Y010389D02*
X021156Y010097D01*
X020864Y010097D01*
X020864Y010389D01*
X021156Y010389D01*
X021156Y010194D02*
X020864Y010194D01*
X020864Y010291D02*
X021156Y010291D01*
X021156Y010388D02*
X020864Y010388D01*
X020156Y010389D02*
X020156Y010097D01*
X019864Y010097D01*
X019864Y010389D01*
X020156Y010389D01*
X020156Y010194D02*
X019864Y010194D01*
X019864Y010291D02*
X020156Y010291D01*
X020156Y010388D02*
X019864Y010388D01*
X020156Y010697D02*
X020156Y010989D01*
X020156Y010697D02*
X019864Y010697D01*
X019864Y010989D01*
X020156Y010989D01*
X020156Y010794D02*
X019864Y010794D01*
X019864Y010891D02*
X020156Y010891D01*
X020156Y010988D02*
X019864Y010988D01*
X010993Y019796D02*
X010993Y020088D01*
X011285Y020088D01*
X011285Y019796D01*
X010993Y019796D01*
X010993Y019893D02*
X011285Y019893D01*
X011285Y019990D02*
X010993Y019990D01*
X010993Y020087D02*
X011285Y020087D01*
X010993Y020396D02*
X010993Y020688D01*
X011285Y020688D01*
X011285Y020396D01*
X010993Y020396D01*
X010993Y020493D02*
X011285Y020493D01*
X011285Y020590D02*
X010993Y020590D01*
X010993Y020687D02*
X011285Y020687D01*
X009794Y022307D02*
X009502Y022307D01*
X009794Y022307D02*
X009794Y022015D01*
X009502Y022015D01*
X009502Y022307D01*
X009502Y022112D02*
X009794Y022112D01*
X009794Y022209D02*
X009502Y022209D01*
X009502Y022306D02*
X009794Y022306D01*
X009194Y022307D02*
X008902Y022307D01*
X009194Y022307D02*
X009194Y022015D01*
X008902Y022015D01*
X008902Y022307D01*
X008902Y022112D02*
X009194Y022112D01*
X009194Y022209D02*
X008902Y022209D01*
X008902Y022306D02*
X009194Y022306D01*
X014404Y023806D02*
X014696Y023806D01*
X014404Y023806D02*
X014404Y024098D01*
X014696Y024098D01*
X014696Y023806D01*
X014696Y023903D02*
X014404Y023903D01*
X014404Y024000D02*
X014696Y024000D01*
X014696Y024097D02*
X014404Y024097D01*
X015004Y023806D02*
X015296Y023806D01*
X015004Y023806D02*
X015004Y024098D01*
X015296Y024098D01*
X015296Y023806D01*
X015296Y023903D02*
X015004Y023903D01*
X015004Y024000D02*
X015296Y024000D01*
X015296Y024097D02*
X015004Y024097D01*
X014952Y022527D02*
X014660Y022527D01*
X014660Y022819D01*
X014952Y022819D01*
X014952Y022527D01*
X014952Y022624D02*
X014660Y022624D01*
X014660Y022721D02*
X014952Y022721D01*
X014952Y022818D02*
X014660Y022818D01*
X014660Y022015D02*
X014952Y022015D01*
X014660Y022015D02*
X014660Y022307D01*
X014952Y022307D01*
X014952Y022015D01*
X014952Y022112D02*
X014660Y022112D01*
X014660Y022209D02*
X014952Y022209D01*
X014952Y022306D02*
X014660Y022306D01*
X015260Y022015D02*
X015552Y022015D01*
X015260Y022015D02*
X015260Y022307D01*
X015552Y022307D01*
X015552Y022015D01*
X015552Y022112D02*
X015260Y022112D01*
X015260Y022209D02*
X015552Y022209D01*
X015552Y022306D02*
X015260Y022306D01*
X015260Y022527D02*
X015552Y022527D01*
X015260Y022527D02*
X015260Y022819D01*
X015552Y022819D01*
X015552Y022527D01*
X015552Y022624D02*
X015260Y022624D01*
X015260Y022721D02*
X015552Y022721D01*
X015552Y022818D02*
X015260Y022818D01*
X016377Y022705D02*
X016377Y022413D01*
X016377Y022705D02*
X016669Y022705D01*
X016669Y022413D01*
X016377Y022413D01*
X016377Y022510D02*
X016669Y022510D01*
X016669Y022607D02*
X016377Y022607D01*
X016377Y022704D02*
X016669Y022704D01*
X016377Y022105D02*
X016377Y021813D01*
X016377Y022105D02*
X016669Y022105D01*
X016669Y021813D01*
X016377Y021813D01*
X016377Y021910D02*
X016669Y021910D01*
X016669Y022007D02*
X016377Y022007D01*
X016377Y022104D02*
X016669Y022104D01*
D16*
X037833Y026467D03*
D17*
X037833Y029567D03*
X037833Y023367D03*
D18*
X039885Y016064D03*
X039885Y015485D03*
X039885Y014302D03*
X039885Y013723D03*
X039168Y013018D03*
X038589Y013018D03*
X044260Y014348D03*
X044260Y014927D03*
X025214Y014128D03*
X025214Y013549D03*
X024319Y013549D03*
X024319Y014128D03*
X016897Y024693D03*
X016897Y025271D03*
X015106Y025271D03*
X015106Y024693D03*
X019033Y028943D03*
X019612Y028943D03*
D19*
X030510Y017143D03*
X031510Y017143D03*
X032510Y017143D03*
X033510Y017143D03*
X034510Y017143D03*
X035510Y017143D03*
X036510Y017143D03*
X037510Y017143D03*
X038510Y017143D03*
X039510Y017143D03*
X040510Y017143D03*
X041510Y017143D03*
X042510Y017143D03*
X043510Y017143D03*
X037510Y014143D03*
X036510Y014143D03*
X036510Y013143D03*
X037510Y013143D03*
X038510Y012143D03*
X039510Y012143D03*
X040510Y012143D03*
X040510Y011143D03*
X041510Y011143D03*
X042510Y011143D03*
X043510Y011143D03*
X042510Y012143D03*
X039510Y011143D03*
X038510Y011143D03*
X037510Y011143D03*
X036510Y011143D03*
X035510Y011143D03*
X034510Y011143D03*
X033510Y011143D03*
X032510Y011143D03*
X031510Y011143D03*
X030510Y011143D03*
X030510Y012143D03*
X030510Y013143D03*
X031510Y013143D03*
X032510Y013143D03*
X033510Y013143D03*
X034510Y013143D03*
X035510Y013143D03*
X035510Y014143D03*
X034510Y014143D03*
X033510Y014143D03*
X032510Y014143D03*
X031510Y014143D03*
X030510Y014143D03*
X030510Y015143D03*
X030510Y016143D03*
X030760Y008143D03*
X031760Y008143D03*
X032760Y008143D03*
X033760Y008143D03*
X034760Y008143D03*
X035760Y008143D03*
X036760Y008143D03*
X037760Y008143D03*
X038760Y008143D03*
X039760Y008143D03*
X040760Y008143D03*
X041760Y008143D03*
X041760Y007143D03*
X040760Y007143D03*
X039760Y007143D03*
X038760Y007143D03*
X037760Y007143D03*
X036760Y007143D03*
X035760Y007143D03*
X034760Y007143D03*
X033760Y007143D03*
X032760Y007143D03*
X031760Y007143D03*
X030760Y007143D03*
X029760Y007143D03*
X029760Y008143D03*
D20*
X040510Y013018D03*
X043770Y022063D03*
X043770Y023063D03*
X043770Y024063D03*
X043770Y025063D03*
D21*
X025010Y023393D03*
X024010Y023393D03*
X024010Y022393D03*
X025010Y022393D03*
X025010Y021393D03*
X024010Y021393D03*
X024010Y020393D03*
X025010Y020393D03*
X022760Y024143D03*
X021760Y024143D03*
X020760Y024143D03*
X020760Y025143D03*
X021760Y025143D03*
X022760Y025143D03*
X019760Y025143D03*
X019760Y024143D03*
X018510Y023393D03*
X018510Y022393D03*
X018510Y021393D03*
X018510Y020393D03*
X017510Y020393D03*
X017510Y021393D03*
X017510Y022393D03*
X017510Y023393D03*
D22*
X029810Y026893D03*
X030210Y026893D03*
D23*
X007510Y025643D03*
X006510Y025643D03*
X006510Y024643D03*
X007510Y024643D03*
X007510Y023643D03*
X006510Y023643D03*
X006510Y022643D03*
X007510Y022643D03*
D24*
X008298Y013923D02*
X008298Y013123D01*
X009098Y011573D02*
X009898Y011573D01*
X010748Y013123D02*
X010748Y013923D01*
D25*
X032675Y029356D03*
X041336Y022269D03*
D26*
X041336Y023057D03*
X041336Y023844D03*
X041336Y024631D03*
X041336Y025419D03*
X041336Y026206D03*
X041336Y026994D03*
X041336Y027781D03*
X041336Y028569D03*
X041336Y029356D03*
X032675Y028569D03*
X032675Y027781D03*
X032675Y026994D03*
X032675Y026206D03*
X032675Y025419D03*
X032675Y024631D03*
X032675Y023844D03*
X032675Y023057D03*
X032675Y022269D03*
D27*
X036034Y029235D03*
X039183Y029235D03*
D28*
X041510Y016013D03*
X043135Y016013D03*
X043135Y014273D03*
X041510Y014273D03*
D29*
X023462Y005643D03*
X022557Y005643D03*
X019212Y005643D03*
X018307Y005643D03*
D30*
X019360Y012393D03*
X019360Y013893D03*
X017160Y013893D03*
X017160Y012393D03*
D31*
X018010Y010843D03*
X018010Y009693D03*
D32*
X013590Y021393D03*
X013590Y021649D03*
X013590Y021905D03*
X013590Y022161D03*
X013590Y022417D03*
X013590Y022673D03*
X013590Y022929D03*
X013590Y023185D03*
X013590Y023441D03*
X013590Y023696D03*
X013590Y023952D03*
X013590Y024208D03*
X013590Y024464D03*
X013590Y024720D03*
X010736Y024720D03*
X010736Y024464D03*
X010736Y024208D03*
X010736Y023952D03*
X010736Y023696D03*
X010736Y023441D03*
X010736Y023185D03*
X010736Y022929D03*
X010736Y022673D03*
X010736Y022417D03*
X010736Y022161D03*
X010736Y021905D03*
X010736Y021649D03*
X010736Y021393D03*
D33*
X020840Y018311D03*
D34*
X019840Y018311D03*
X018840Y018311D03*
X018840Y017311D03*
X019840Y017311D03*
X020840Y017311D03*
D35*
X009863Y023169D02*
X009533Y023169D01*
X009863Y023169D02*
X009863Y022689D01*
X009533Y022689D01*
X009533Y023169D01*
X009533Y022798D02*
X009863Y022798D01*
X009863Y022907D02*
X009533Y022907D01*
X009533Y023016D02*
X009863Y023016D01*
X009863Y023125D02*
X009533Y023125D01*
X009163Y023169D02*
X008833Y023169D01*
X009163Y023169D02*
X009163Y022689D01*
X008833Y022689D01*
X008833Y023169D01*
X008833Y022798D02*
X009163Y022798D01*
X009163Y022907D02*
X008833Y022907D01*
X008833Y023016D02*
X009163Y023016D01*
X009163Y023125D02*
X008833Y023125D01*
D36*
X038885Y015743D03*
X038885Y014043D03*
M02*
