G75*
G70*
%OFA0B0*%
%FSLAX24Y24*%
%IPPOS*%
%LPD*%
%AMOC8*
5,1,8,0,0,1.08239X$1,22.5*
%
%ADD10C,0.0000*%
%ADD11C,0.0040*%
%ADD12C,0.0030*%
%ADD13C,0.0060*%
%ADD14C,0.0050*%
%ADD15C,0.0100*%
%ADD16C,0.0020*%
%ADD17C,0.0080*%
D10*
X005510Y005143D02*
X005510Y030393D01*
X005510Y030389D02*
X044880Y030389D01*
X044880Y005143D01*
X005510Y005143D01*
X006051Y008893D02*
X006053Y008946D01*
X006059Y008999D01*
X006069Y009051D01*
X006082Y009102D01*
X006100Y009152D01*
X006121Y009201D01*
X006146Y009248D01*
X006174Y009292D01*
X006206Y009335D01*
X006240Y009375D01*
X006278Y009413D01*
X006318Y009447D01*
X006361Y009479D01*
X006406Y009507D01*
X006452Y009532D01*
X006501Y009553D01*
X006551Y009571D01*
X006602Y009584D01*
X006654Y009594D01*
X006707Y009600D01*
X006760Y009602D01*
X006813Y009600D01*
X006866Y009594D01*
X006918Y009584D01*
X006969Y009571D01*
X007019Y009553D01*
X007068Y009532D01*
X007115Y009507D01*
X007159Y009479D01*
X007202Y009447D01*
X007242Y009413D01*
X007280Y009375D01*
X007314Y009335D01*
X007346Y009292D01*
X007374Y009247D01*
X007399Y009201D01*
X007420Y009152D01*
X007438Y009102D01*
X007451Y009051D01*
X007461Y008999D01*
X007467Y008946D01*
X007469Y008893D01*
X007467Y008840D01*
X007461Y008787D01*
X007451Y008735D01*
X007438Y008684D01*
X007420Y008634D01*
X007399Y008585D01*
X007374Y008538D01*
X007346Y008494D01*
X007314Y008451D01*
X007280Y008411D01*
X007242Y008373D01*
X007202Y008339D01*
X007159Y008307D01*
X007114Y008279D01*
X007068Y008254D01*
X007019Y008233D01*
X006969Y008215D01*
X006918Y008202D01*
X006866Y008192D01*
X006813Y008186D01*
X006760Y008184D01*
X006707Y008186D01*
X006654Y008192D01*
X006602Y008202D01*
X006551Y008215D01*
X006501Y008233D01*
X006452Y008254D01*
X006405Y008279D01*
X006361Y008307D01*
X006318Y008339D01*
X006278Y008373D01*
X006240Y008411D01*
X006206Y008451D01*
X006174Y008494D01*
X006146Y008539D01*
X006121Y008585D01*
X006100Y008634D01*
X006082Y008684D01*
X006069Y008735D01*
X006059Y008787D01*
X006053Y008840D01*
X006051Y008893D01*
X018120Y005643D02*
X018122Y005670D01*
X018128Y005696D01*
X018137Y005721D01*
X018150Y005744D01*
X018166Y005765D01*
X018185Y005784D01*
X018206Y005800D01*
X018229Y005813D01*
X018254Y005822D01*
X018280Y005828D01*
X018307Y005830D01*
X018334Y005828D01*
X018360Y005822D01*
X018385Y005813D01*
X018408Y005800D01*
X018429Y005784D01*
X018448Y005765D01*
X018464Y005744D01*
X018477Y005721D01*
X018486Y005696D01*
X018492Y005670D01*
X018494Y005643D01*
X018492Y005616D01*
X018486Y005590D01*
X018477Y005565D01*
X018464Y005542D01*
X018448Y005521D01*
X018429Y005502D01*
X018408Y005486D01*
X018385Y005473D01*
X018360Y005464D01*
X018334Y005458D01*
X018307Y005456D01*
X018280Y005458D01*
X018254Y005464D01*
X018229Y005473D01*
X018206Y005486D01*
X018185Y005502D01*
X018166Y005521D01*
X018150Y005542D01*
X018137Y005565D01*
X018128Y005590D01*
X018122Y005616D01*
X018120Y005643D01*
X019025Y005643D02*
X019027Y005670D01*
X019033Y005696D01*
X019042Y005721D01*
X019055Y005744D01*
X019071Y005765D01*
X019090Y005784D01*
X019111Y005800D01*
X019134Y005813D01*
X019159Y005822D01*
X019185Y005828D01*
X019212Y005830D01*
X019239Y005828D01*
X019265Y005822D01*
X019290Y005813D01*
X019313Y005800D01*
X019334Y005784D01*
X019353Y005765D01*
X019369Y005744D01*
X019382Y005721D01*
X019391Y005696D01*
X019397Y005670D01*
X019399Y005643D01*
X019397Y005616D01*
X019391Y005590D01*
X019382Y005565D01*
X019369Y005542D01*
X019353Y005521D01*
X019334Y005502D01*
X019313Y005486D01*
X019290Y005473D01*
X019265Y005464D01*
X019239Y005458D01*
X019212Y005456D01*
X019185Y005458D01*
X019159Y005464D01*
X019134Y005473D01*
X019111Y005486D01*
X019090Y005502D01*
X019071Y005521D01*
X019055Y005542D01*
X019042Y005565D01*
X019033Y005590D01*
X019027Y005616D01*
X019025Y005643D01*
X022370Y005643D02*
X022372Y005670D01*
X022378Y005696D01*
X022387Y005721D01*
X022400Y005744D01*
X022416Y005765D01*
X022435Y005784D01*
X022456Y005800D01*
X022479Y005813D01*
X022504Y005822D01*
X022530Y005828D01*
X022557Y005830D01*
X022584Y005828D01*
X022610Y005822D01*
X022635Y005813D01*
X022658Y005800D01*
X022679Y005784D01*
X022698Y005765D01*
X022714Y005744D01*
X022727Y005721D01*
X022736Y005696D01*
X022742Y005670D01*
X022744Y005643D01*
X022742Y005616D01*
X022736Y005590D01*
X022727Y005565D01*
X022714Y005542D01*
X022698Y005521D01*
X022679Y005502D01*
X022658Y005486D01*
X022635Y005473D01*
X022610Y005464D01*
X022584Y005458D01*
X022557Y005456D01*
X022530Y005458D01*
X022504Y005464D01*
X022479Y005473D01*
X022456Y005486D01*
X022435Y005502D01*
X022416Y005521D01*
X022400Y005542D01*
X022387Y005565D01*
X022378Y005590D01*
X022372Y005616D01*
X022370Y005643D01*
X023275Y005643D02*
X023277Y005670D01*
X023283Y005696D01*
X023292Y005721D01*
X023305Y005744D01*
X023321Y005765D01*
X023340Y005784D01*
X023361Y005800D01*
X023384Y005813D01*
X023409Y005822D01*
X023435Y005828D01*
X023462Y005830D01*
X023489Y005828D01*
X023515Y005822D01*
X023540Y005813D01*
X023563Y005800D01*
X023584Y005784D01*
X023603Y005765D01*
X023619Y005744D01*
X023632Y005721D01*
X023641Y005696D01*
X023647Y005670D01*
X023649Y005643D01*
X023647Y005616D01*
X023641Y005590D01*
X023632Y005565D01*
X023619Y005542D01*
X023603Y005521D01*
X023584Y005502D01*
X023563Y005486D01*
X023540Y005473D01*
X023515Y005464D01*
X023489Y005458D01*
X023462Y005456D01*
X023435Y005458D01*
X023409Y005464D01*
X023384Y005473D01*
X023361Y005486D01*
X023340Y005502D01*
X023321Y005521D01*
X023305Y005542D01*
X023292Y005565D01*
X023283Y005590D01*
X023277Y005616D01*
X023275Y005643D01*
X026551Y010893D02*
X026553Y010946D01*
X026559Y010999D01*
X026569Y011051D01*
X026582Y011102D01*
X026600Y011152D01*
X026621Y011201D01*
X026646Y011248D01*
X026674Y011292D01*
X026706Y011335D01*
X026740Y011375D01*
X026778Y011413D01*
X026818Y011447D01*
X026861Y011479D01*
X026906Y011507D01*
X026952Y011532D01*
X027001Y011553D01*
X027051Y011571D01*
X027102Y011584D01*
X027154Y011594D01*
X027207Y011600D01*
X027260Y011602D01*
X027313Y011600D01*
X027366Y011594D01*
X027418Y011584D01*
X027469Y011571D01*
X027519Y011553D01*
X027568Y011532D01*
X027615Y011507D01*
X027659Y011479D01*
X027702Y011447D01*
X027742Y011413D01*
X027780Y011375D01*
X027814Y011335D01*
X027846Y011292D01*
X027874Y011247D01*
X027899Y011201D01*
X027920Y011152D01*
X027938Y011102D01*
X027951Y011051D01*
X027961Y010999D01*
X027967Y010946D01*
X027969Y010893D01*
X027967Y010840D01*
X027961Y010787D01*
X027951Y010735D01*
X027938Y010684D01*
X027920Y010634D01*
X027899Y010585D01*
X027874Y010538D01*
X027846Y010494D01*
X027814Y010451D01*
X027780Y010411D01*
X027742Y010373D01*
X027702Y010339D01*
X027659Y010307D01*
X027614Y010279D01*
X027568Y010254D01*
X027519Y010233D01*
X027469Y010215D01*
X027418Y010202D01*
X027366Y010192D01*
X027313Y010186D01*
X027260Y010184D01*
X027207Y010186D01*
X027154Y010192D01*
X027102Y010202D01*
X027051Y010215D01*
X027001Y010233D01*
X026952Y010254D01*
X026905Y010279D01*
X026861Y010307D01*
X026818Y010339D01*
X026778Y010373D01*
X026740Y010411D01*
X026706Y010451D01*
X026674Y010494D01*
X026646Y010539D01*
X026621Y010585D01*
X026600Y010634D01*
X026582Y010684D01*
X026569Y010735D01*
X026559Y010787D01*
X026553Y010840D01*
X026551Y010893D01*
X026551Y021893D02*
X026553Y021946D01*
X026559Y021999D01*
X026569Y022051D01*
X026582Y022102D01*
X026600Y022152D01*
X026621Y022201D01*
X026646Y022248D01*
X026674Y022292D01*
X026706Y022335D01*
X026740Y022375D01*
X026778Y022413D01*
X026818Y022447D01*
X026861Y022479D01*
X026906Y022507D01*
X026952Y022532D01*
X027001Y022553D01*
X027051Y022571D01*
X027102Y022584D01*
X027154Y022594D01*
X027207Y022600D01*
X027260Y022602D01*
X027313Y022600D01*
X027366Y022594D01*
X027418Y022584D01*
X027469Y022571D01*
X027519Y022553D01*
X027568Y022532D01*
X027615Y022507D01*
X027659Y022479D01*
X027702Y022447D01*
X027742Y022413D01*
X027780Y022375D01*
X027814Y022335D01*
X027846Y022292D01*
X027874Y022247D01*
X027899Y022201D01*
X027920Y022152D01*
X027938Y022102D01*
X027951Y022051D01*
X027961Y021999D01*
X027967Y021946D01*
X027969Y021893D01*
X027967Y021840D01*
X027961Y021787D01*
X027951Y021735D01*
X027938Y021684D01*
X027920Y021634D01*
X027899Y021585D01*
X027874Y021538D01*
X027846Y021494D01*
X027814Y021451D01*
X027780Y021411D01*
X027742Y021373D01*
X027702Y021339D01*
X027659Y021307D01*
X027614Y021279D01*
X027568Y021254D01*
X027519Y021233D01*
X027469Y021215D01*
X027418Y021202D01*
X027366Y021192D01*
X027313Y021186D01*
X027260Y021184D01*
X027207Y021186D01*
X027154Y021192D01*
X027102Y021202D01*
X027051Y021215D01*
X027001Y021233D01*
X026952Y021254D01*
X026905Y021279D01*
X026861Y021307D01*
X026818Y021339D01*
X026778Y021373D01*
X026740Y021411D01*
X026706Y021451D01*
X026674Y021494D01*
X026646Y021539D01*
X026621Y021585D01*
X026600Y021634D01*
X026582Y021684D01*
X026569Y021735D01*
X026559Y021787D01*
X026553Y021840D01*
X026551Y021893D01*
X035859Y029235D02*
X035861Y029261D01*
X035867Y029287D01*
X035876Y029311D01*
X035889Y029334D01*
X035906Y029354D01*
X035925Y029372D01*
X035947Y029387D01*
X035970Y029398D01*
X035995Y029406D01*
X036021Y029410D01*
X036047Y029410D01*
X036073Y029406D01*
X036098Y029398D01*
X036122Y029387D01*
X036143Y029372D01*
X036162Y029354D01*
X036179Y029334D01*
X036192Y029311D01*
X036201Y029287D01*
X036207Y029261D01*
X036209Y029235D01*
X036207Y029209D01*
X036201Y029183D01*
X036192Y029159D01*
X036179Y029136D01*
X036162Y029116D01*
X036143Y029098D01*
X036121Y029083D01*
X036098Y029072D01*
X036073Y029064D01*
X036047Y029060D01*
X036021Y029060D01*
X035995Y029064D01*
X035970Y029072D01*
X035946Y029083D01*
X035925Y029098D01*
X035906Y029116D01*
X035889Y029136D01*
X035876Y029159D01*
X035867Y029183D01*
X035861Y029209D01*
X035859Y029235D01*
X039008Y029235D02*
X039010Y029261D01*
X039016Y029287D01*
X039025Y029311D01*
X039038Y029334D01*
X039055Y029354D01*
X039074Y029372D01*
X039096Y029387D01*
X039119Y029398D01*
X039144Y029406D01*
X039170Y029410D01*
X039196Y029410D01*
X039222Y029406D01*
X039247Y029398D01*
X039271Y029387D01*
X039292Y029372D01*
X039311Y029354D01*
X039328Y029334D01*
X039341Y029311D01*
X039350Y029287D01*
X039356Y029261D01*
X039358Y029235D01*
X039356Y029209D01*
X039350Y029183D01*
X039341Y029159D01*
X039328Y029136D01*
X039311Y029116D01*
X039292Y029098D01*
X039270Y029083D01*
X039247Y029072D01*
X039222Y029064D01*
X039196Y029060D01*
X039170Y029060D01*
X039144Y029064D01*
X039119Y029072D01*
X039095Y029083D01*
X039074Y029098D01*
X039055Y029116D01*
X039038Y029136D01*
X039025Y029159D01*
X039016Y029183D01*
X039010Y029209D01*
X039008Y029235D01*
X042665Y027893D02*
X042667Y027946D01*
X042673Y027999D01*
X042683Y028051D01*
X042696Y028102D01*
X042714Y028152D01*
X042735Y028201D01*
X042760Y028248D01*
X042788Y028292D01*
X042820Y028335D01*
X042854Y028375D01*
X042892Y028413D01*
X042932Y028447D01*
X042975Y028479D01*
X043020Y028507D01*
X043066Y028532D01*
X043115Y028553D01*
X043165Y028571D01*
X043216Y028584D01*
X043268Y028594D01*
X043321Y028600D01*
X043374Y028602D01*
X043427Y028600D01*
X043480Y028594D01*
X043532Y028584D01*
X043583Y028571D01*
X043633Y028553D01*
X043682Y028532D01*
X043729Y028507D01*
X043773Y028479D01*
X043816Y028447D01*
X043856Y028413D01*
X043894Y028375D01*
X043928Y028335D01*
X043960Y028292D01*
X043988Y028247D01*
X044013Y028201D01*
X044034Y028152D01*
X044052Y028102D01*
X044065Y028051D01*
X044075Y027999D01*
X044081Y027946D01*
X044083Y027893D01*
X044081Y027840D01*
X044075Y027787D01*
X044065Y027735D01*
X044052Y027684D01*
X044034Y027634D01*
X044013Y027585D01*
X043988Y027538D01*
X043960Y027494D01*
X043928Y027451D01*
X043894Y027411D01*
X043856Y027373D01*
X043816Y027339D01*
X043773Y027307D01*
X043728Y027279D01*
X043682Y027254D01*
X043633Y027233D01*
X043583Y027215D01*
X043532Y027202D01*
X043480Y027192D01*
X043427Y027186D01*
X043374Y027184D01*
X043321Y027186D01*
X043268Y027192D01*
X043216Y027202D01*
X043165Y027215D01*
X043115Y027233D01*
X043066Y027254D01*
X043019Y027279D01*
X042975Y027307D01*
X042932Y027339D01*
X042892Y027373D01*
X042854Y027411D01*
X042820Y027451D01*
X042788Y027494D01*
X042760Y027539D01*
X042735Y027585D01*
X042714Y027634D01*
X042696Y027684D01*
X042683Y027735D01*
X042673Y027787D01*
X042667Y027840D01*
X042665Y027893D01*
X042665Y008893D02*
X042667Y008946D01*
X042673Y008999D01*
X042683Y009051D01*
X042696Y009102D01*
X042714Y009152D01*
X042735Y009201D01*
X042760Y009248D01*
X042788Y009292D01*
X042820Y009335D01*
X042854Y009375D01*
X042892Y009413D01*
X042932Y009447D01*
X042975Y009479D01*
X043020Y009507D01*
X043066Y009532D01*
X043115Y009553D01*
X043165Y009571D01*
X043216Y009584D01*
X043268Y009594D01*
X043321Y009600D01*
X043374Y009602D01*
X043427Y009600D01*
X043480Y009594D01*
X043532Y009584D01*
X043583Y009571D01*
X043633Y009553D01*
X043682Y009532D01*
X043729Y009507D01*
X043773Y009479D01*
X043816Y009447D01*
X043856Y009413D01*
X043894Y009375D01*
X043928Y009335D01*
X043960Y009292D01*
X043988Y009247D01*
X044013Y009201D01*
X044034Y009152D01*
X044052Y009102D01*
X044065Y009051D01*
X044075Y008999D01*
X044081Y008946D01*
X044083Y008893D01*
X044081Y008840D01*
X044075Y008787D01*
X044065Y008735D01*
X044052Y008684D01*
X044034Y008634D01*
X044013Y008585D01*
X043988Y008538D01*
X043960Y008494D01*
X043928Y008451D01*
X043894Y008411D01*
X043856Y008373D01*
X043816Y008339D01*
X043773Y008307D01*
X043728Y008279D01*
X043682Y008254D01*
X043633Y008233D01*
X043583Y008215D01*
X043532Y008202D01*
X043480Y008192D01*
X043427Y008186D01*
X043374Y008184D01*
X043321Y008186D01*
X043268Y008192D01*
X043216Y008202D01*
X043165Y008215D01*
X043115Y008233D01*
X043066Y008254D01*
X043019Y008279D01*
X042975Y008307D01*
X042932Y008339D01*
X042892Y008373D01*
X042854Y008411D01*
X042820Y008451D01*
X042788Y008494D01*
X042760Y008539D01*
X042735Y008585D01*
X042714Y008634D01*
X042696Y008684D01*
X042683Y008735D01*
X042673Y008787D01*
X042667Y008840D01*
X042665Y008893D01*
X006551Y027893D02*
X006553Y027946D01*
X006559Y027999D01*
X006569Y028051D01*
X006582Y028102D01*
X006600Y028152D01*
X006621Y028201D01*
X006646Y028248D01*
X006674Y028292D01*
X006706Y028335D01*
X006740Y028375D01*
X006778Y028413D01*
X006818Y028447D01*
X006861Y028479D01*
X006906Y028507D01*
X006952Y028532D01*
X007001Y028553D01*
X007051Y028571D01*
X007102Y028584D01*
X007154Y028594D01*
X007207Y028600D01*
X007260Y028602D01*
X007313Y028600D01*
X007366Y028594D01*
X007418Y028584D01*
X007469Y028571D01*
X007519Y028553D01*
X007568Y028532D01*
X007615Y028507D01*
X007659Y028479D01*
X007702Y028447D01*
X007742Y028413D01*
X007780Y028375D01*
X007814Y028335D01*
X007846Y028292D01*
X007874Y028247D01*
X007899Y028201D01*
X007920Y028152D01*
X007938Y028102D01*
X007951Y028051D01*
X007961Y027999D01*
X007967Y027946D01*
X007969Y027893D01*
X007967Y027840D01*
X007961Y027787D01*
X007951Y027735D01*
X007938Y027684D01*
X007920Y027634D01*
X007899Y027585D01*
X007874Y027538D01*
X007846Y027494D01*
X007814Y027451D01*
X007780Y027411D01*
X007742Y027373D01*
X007702Y027339D01*
X007659Y027307D01*
X007614Y027279D01*
X007568Y027254D01*
X007519Y027233D01*
X007469Y027215D01*
X007418Y027202D01*
X007366Y027192D01*
X007313Y027186D01*
X007260Y027184D01*
X007207Y027186D01*
X007154Y027192D01*
X007102Y027202D01*
X007051Y027215D01*
X007001Y027233D01*
X006952Y027254D01*
X006905Y027279D01*
X006861Y027307D01*
X006818Y027339D01*
X006778Y027373D01*
X006740Y027411D01*
X006706Y027451D01*
X006674Y027494D01*
X006646Y027539D01*
X006621Y027585D01*
X006600Y027634D01*
X006582Y027684D01*
X006569Y027735D01*
X006559Y027787D01*
X006553Y027840D01*
X006551Y027893D01*
D11*
X008479Y028568D02*
X008539Y028508D01*
X008599Y028508D01*
X008659Y028568D01*
X008659Y028689D01*
X008719Y028749D01*
X008779Y028749D01*
X008840Y028689D01*
X008840Y028568D01*
X008779Y028508D01*
X008479Y028568D02*
X008479Y028689D01*
X008539Y028749D01*
X008539Y028877D02*
X008779Y028877D01*
X008840Y028937D01*
X008840Y029057D01*
X008779Y029117D01*
X008840Y029245D02*
X008840Y029485D01*
X008840Y029245D02*
X008479Y029245D01*
X008539Y029117D02*
X008479Y029057D01*
X008479Y028937D01*
X008539Y028877D01*
X009479Y028877D02*
X009479Y029057D01*
X009539Y029117D01*
X009779Y029117D01*
X009840Y029057D01*
X009840Y028877D01*
X009479Y028877D01*
X009539Y028749D02*
X009479Y028689D01*
X009479Y028568D01*
X009539Y028508D01*
X009599Y028508D01*
X009659Y028568D01*
X009659Y028689D01*
X009719Y028749D01*
X009779Y028749D01*
X009840Y028689D01*
X009840Y028568D01*
X009779Y028508D01*
X009840Y029245D02*
X009599Y029245D01*
X009479Y029365D01*
X009599Y029485D01*
X009840Y029485D01*
X009659Y029485D02*
X009659Y029245D01*
X011479Y029245D02*
X011479Y029425D01*
X011539Y029485D01*
X011779Y029485D01*
X011840Y029425D01*
X011840Y029245D01*
X011479Y029245D01*
X011479Y029117D02*
X011840Y029117D01*
X011479Y028877D01*
X011840Y028877D01*
X011779Y028749D02*
X011659Y028749D01*
X011659Y028628D01*
X011539Y028508D02*
X011779Y028508D01*
X011840Y028568D01*
X011840Y028689D01*
X011779Y028749D01*
X011539Y028749D02*
X011479Y028689D01*
X011479Y028568D01*
X011539Y028508D01*
X012479Y028997D02*
X012840Y028997D01*
X012840Y028877D02*
X012840Y029117D01*
X012779Y029245D02*
X012840Y029305D01*
X012840Y029425D01*
X012779Y029485D01*
X012719Y029485D01*
X012659Y029425D01*
X012659Y029365D01*
X012659Y029425D02*
X012599Y029485D01*
X012539Y029485D01*
X012479Y029425D01*
X012479Y029305D01*
X012539Y029245D01*
X012479Y028997D02*
X012599Y028877D01*
X013479Y028997D02*
X013840Y028997D01*
X013840Y028877D02*
X013840Y029117D01*
X013840Y029245D02*
X013599Y029485D01*
X013539Y029485D01*
X013479Y029425D01*
X013479Y029305D01*
X013539Y029245D01*
X013479Y028997D02*
X013599Y028877D01*
X013840Y029245D02*
X013840Y029485D01*
X014479Y029365D02*
X014840Y029365D01*
X014840Y029245D02*
X014840Y029485D01*
X014599Y029245D02*
X014479Y029365D01*
X014479Y028997D02*
X014840Y028997D01*
X014840Y028877D02*
X014840Y029117D01*
X014599Y028877D02*
X014479Y028997D01*
X015479Y028997D02*
X015840Y028997D01*
X015840Y028877D02*
X015840Y029117D01*
X015779Y029245D02*
X015539Y029485D01*
X015779Y029485D01*
X015840Y029425D01*
X015840Y029305D01*
X015779Y029245D01*
X015539Y029245D01*
X015479Y029305D01*
X015479Y029425D01*
X015539Y029485D01*
X015479Y028997D02*
X015599Y028877D01*
X016479Y029305D02*
X016479Y029425D01*
X016539Y029485D01*
X016779Y029485D01*
X016840Y029425D01*
X016840Y029305D01*
X016779Y029245D01*
X016659Y029305D02*
X016659Y029485D01*
X016659Y029305D02*
X016599Y029245D01*
X016539Y029245D01*
X016479Y029305D01*
X017479Y029305D02*
X017479Y029425D01*
X017539Y029485D01*
X017599Y029485D01*
X017659Y029425D01*
X017659Y029305D01*
X017599Y029245D01*
X017539Y029245D01*
X017479Y029305D01*
X017659Y029305D02*
X017719Y029245D01*
X017779Y029245D01*
X017840Y029305D01*
X017840Y029425D01*
X017779Y029485D01*
X017719Y029485D01*
X017659Y029425D01*
X019079Y029485D02*
X019079Y029245D01*
X019079Y029485D02*
X019139Y029485D01*
X019379Y029245D01*
X019440Y029245D01*
X020079Y029485D02*
X020139Y029365D01*
X020259Y029245D01*
X020259Y029425D01*
X020319Y029485D01*
X020379Y029485D01*
X020440Y029425D01*
X020440Y029305D01*
X020379Y029245D01*
X020259Y029245D01*
X021079Y029245D02*
X021079Y029485D01*
X021199Y029425D02*
X021199Y029365D01*
X021259Y029245D01*
X021079Y029245D01*
X021199Y029425D02*
X021259Y029485D01*
X021379Y029485D01*
X021440Y029425D01*
X021440Y029305D01*
X021379Y029245D01*
X022079Y029425D02*
X022259Y029245D01*
X022259Y029485D01*
X022079Y029425D02*
X022440Y029425D01*
X023079Y029425D02*
X023079Y029305D01*
X023139Y029245D01*
X023259Y029365D02*
X023259Y029425D01*
X023319Y029485D01*
X023379Y029485D01*
X023440Y029425D01*
X023440Y029305D01*
X023379Y029245D01*
X023259Y029425D02*
X023199Y029485D01*
X023139Y029485D01*
X023079Y029425D01*
X024079Y029425D02*
X024079Y029305D01*
X024139Y029245D01*
X024079Y029425D02*
X024139Y029485D01*
X024199Y029485D01*
X024440Y029245D01*
X024440Y029485D01*
X025079Y029365D02*
X025440Y029365D01*
X025440Y029245D02*
X025440Y029485D01*
X025199Y029245D02*
X025079Y029365D01*
X026079Y029305D02*
X026079Y029425D01*
X026139Y029485D01*
X026379Y029245D01*
X026440Y029305D01*
X026440Y029425D01*
X026379Y029485D01*
X026139Y029485D01*
X026079Y029305D02*
X026139Y029245D01*
X026379Y029245D01*
X027104Y028692D02*
X027104Y028486D01*
X027259Y028486D01*
X027208Y028589D01*
X027208Y028641D01*
X027259Y028692D01*
X027363Y028692D01*
X027415Y028641D01*
X027415Y028537D01*
X027363Y028486D01*
X027363Y028370D02*
X027156Y028370D01*
X027104Y028318D01*
X027104Y028163D01*
X027415Y028163D01*
X027415Y028318D01*
X027363Y028370D01*
X027604Y028318D02*
X027604Y028163D01*
X027915Y028163D01*
X027915Y028318D01*
X027863Y028370D01*
X027656Y028370D01*
X027604Y028318D01*
X027759Y028486D02*
X027759Y028692D01*
X027604Y028641D02*
X027759Y028486D01*
X027915Y028641D02*
X027604Y028641D01*
X028104Y028589D02*
X028415Y028589D01*
X028415Y028486D02*
X028415Y028692D01*
X028208Y028486D02*
X028104Y028589D01*
X028156Y028370D02*
X028104Y028318D01*
X028104Y028163D01*
X028415Y028163D01*
X028415Y028318D01*
X028363Y028370D01*
X028156Y028370D01*
X027915Y027515D02*
X027915Y027308D01*
X027708Y027515D01*
X027656Y027515D01*
X027604Y027463D01*
X027604Y027360D01*
X027656Y027308D01*
X027656Y027192D02*
X027708Y027192D01*
X027759Y027141D01*
X027811Y027192D01*
X027863Y027192D01*
X027915Y027141D01*
X027915Y027037D01*
X027863Y026986D01*
X027915Y026870D02*
X027811Y026767D01*
X027811Y026818D02*
X027811Y026663D01*
X027915Y026663D02*
X027604Y026663D01*
X027604Y026818D01*
X027656Y026870D01*
X027759Y026870D01*
X027811Y026818D01*
X027656Y026986D02*
X027604Y027037D01*
X027604Y027141D01*
X027656Y027192D01*
X027759Y027141D02*
X027759Y027089D01*
X027415Y027037D02*
X027363Y026986D01*
X027415Y027037D02*
X027415Y027141D01*
X027363Y027192D01*
X027311Y027192D01*
X027259Y027141D01*
X027259Y027089D01*
X027259Y027141D02*
X027208Y027192D01*
X027156Y027192D01*
X027104Y027141D01*
X027104Y027037D01*
X027156Y026986D01*
X027156Y026870D02*
X027259Y026870D01*
X027311Y026818D01*
X027311Y026663D01*
X027415Y026663D02*
X027104Y026663D01*
X027104Y026818D01*
X027156Y026870D01*
X027311Y026767D02*
X027415Y026870D01*
X027363Y027308D02*
X027415Y027360D01*
X027415Y027463D01*
X027363Y027515D01*
X027311Y027515D01*
X027259Y027463D01*
X027259Y027411D01*
X027259Y027463D02*
X027208Y027515D01*
X027156Y027515D01*
X027104Y027463D01*
X027104Y027360D01*
X027156Y027308D01*
X028104Y027411D02*
X028208Y027308D01*
X028208Y027192D02*
X028259Y027141D01*
X028311Y027192D01*
X028363Y027192D01*
X028415Y027141D01*
X028415Y027037D01*
X028363Y026986D01*
X028415Y026870D02*
X028311Y026767D01*
X028311Y026818D02*
X028311Y026663D01*
X028415Y026663D02*
X028104Y026663D01*
X028104Y026818D01*
X028156Y026870D01*
X028259Y026870D01*
X028311Y026818D01*
X028156Y026986D02*
X028104Y027037D01*
X028104Y027141D01*
X028156Y027192D01*
X028208Y027192D01*
X028259Y027141D02*
X028259Y027089D01*
X028415Y027308D02*
X028415Y027515D01*
X028415Y027411D02*
X028104Y027411D01*
X030854Y027515D02*
X030906Y027411D01*
X031009Y027308D01*
X031009Y027463D01*
X031061Y027515D01*
X031113Y027515D01*
X031165Y027463D01*
X031165Y027360D01*
X031113Y027308D01*
X031009Y027308D01*
X030958Y027192D02*
X030906Y027192D01*
X030854Y027141D01*
X030854Y027037D01*
X030906Y026986D01*
X030906Y026870D02*
X031009Y026870D01*
X031061Y026818D01*
X031061Y026663D01*
X031165Y026663D02*
X030854Y026663D01*
X030854Y026818D01*
X030906Y026870D01*
X031061Y026767D02*
X031165Y026870D01*
X031165Y026986D02*
X030958Y027192D01*
X031165Y027192D02*
X031165Y026986D01*
X031165Y028163D02*
X030854Y028163D01*
X030854Y028318D01*
X030906Y028370D01*
X031113Y028370D01*
X031165Y028318D01*
X031165Y028163D01*
X031113Y028486D02*
X031009Y028486D01*
X031009Y028641D01*
X031061Y028692D01*
X031113Y028692D01*
X031165Y028641D01*
X031165Y028537D01*
X031113Y028486D01*
X031009Y028486D02*
X030906Y028589D01*
X030854Y028692D01*
X033260Y028322D02*
X033260Y028115D01*
X033312Y028063D01*
X033415Y028063D01*
X033467Y028115D01*
X033582Y028218D02*
X033789Y028218D01*
X033737Y028063D02*
X033737Y028374D01*
X033582Y028218D01*
X033467Y028322D02*
X033415Y028374D01*
X033312Y028374D01*
X033260Y028322D01*
X033385Y025874D02*
X033540Y025874D01*
X033592Y025822D01*
X033592Y025718D01*
X033540Y025667D01*
X033385Y025667D01*
X033488Y025667D02*
X033592Y025563D01*
X033707Y025615D02*
X033759Y025563D01*
X033862Y025563D01*
X033914Y025615D01*
X033914Y025667D01*
X033862Y025718D01*
X033811Y025718D01*
X033862Y025718D02*
X033914Y025770D01*
X033914Y025822D01*
X033862Y025874D01*
X033759Y025874D01*
X033707Y025822D01*
X033385Y025874D02*
X033385Y025563D01*
X035085Y024515D02*
X035137Y024463D01*
X035188Y024463D01*
X035240Y024515D01*
X035240Y024774D01*
X035188Y024774D02*
X035292Y024774D01*
X035407Y024618D02*
X035614Y024618D01*
X035562Y024463D02*
X035562Y024774D01*
X035407Y024618D01*
X038065Y023952D02*
X038065Y023765D01*
X038112Y023718D01*
X038205Y023718D01*
X038252Y023765D01*
X038360Y023765D02*
X038407Y023718D01*
X038500Y023718D01*
X038547Y023765D01*
X038547Y023812D01*
X038500Y023858D01*
X038407Y023858D01*
X038360Y023905D01*
X038360Y023952D01*
X038407Y023999D01*
X038500Y023999D01*
X038547Y023952D01*
X038547Y023905D01*
X038500Y023858D01*
X038407Y023858D02*
X038360Y023812D01*
X038360Y023765D01*
X038252Y023952D02*
X038205Y023999D01*
X038112Y023999D01*
X038065Y023952D01*
X036882Y021224D02*
X036727Y021068D01*
X036934Y021068D01*
X036882Y020913D02*
X036882Y021224D01*
X036611Y021172D02*
X036611Y021068D01*
X036560Y021017D01*
X036405Y021017D01*
X036508Y021017D02*
X036611Y020913D01*
X036405Y020913D02*
X036405Y021224D01*
X036560Y021224D01*
X036611Y021172D01*
X043445Y021943D02*
X043505Y021883D01*
X043625Y021883D01*
X043685Y021943D01*
X043685Y022063D01*
X043565Y022063D01*
X043445Y021943D02*
X043445Y022184D01*
X043505Y022244D01*
X043625Y022244D01*
X043685Y022184D01*
X043813Y022244D02*
X044053Y021883D01*
X044053Y022244D01*
X044181Y022244D02*
X044181Y021883D01*
X044361Y021883D01*
X044421Y021943D01*
X044421Y022184D01*
X044361Y022244D01*
X044181Y022244D01*
X043813Y022244D02*
X043813Y021883D01*
X043625Y022883D02*
X043685Y022943D01*
X043685Y023184D01*
X043625Y023244D01*
X043445Y023244D01*
X043445Y022883D01*
X043625Y022883D01*
X043813Y023063D02*
X044053Y023063D01*
X043933Y022943D02*
X043933Y023184D01*
X043625Y023883D02*
X043685Y023943D01*
X043685Y024184D01*
X043625Y024244D01*
X043445Y024244D01*
X043445Y023883D01*
X043625Y023883D01*
X043813Y024063D02*
X044053Y024063D01*
X043993Y024883D02*
X044053Y024943D01*
X043993Y024883D02*
X043873Y024883D01*
X043813Y024943D01*
X043813Y025184D01*
X043873Y025244D01*
X043993Y025244D01*
X044053Y025184D01*
X044181Y025184D02*
X044181Y024943D01*
X044241Y024883D01*
X044361Y024883D01*
X044421Y024943D01*
X044421Y025184D02*
X044361Y025244D01*
X044241Y025244D01*
X044181Y025184D01*
X043685Y025244D02*
X043685Y025003D01*
X043565Y024883D01*
X043445Y025003D01*
X043445Y025244D01*
X024049Y018648D02*
X024049Y018545D01*
X023997Y018493D01*
X023893Y018493D02*
X023842Y018596D01*
X023842Y018648D01*
X023893Y018700D01*
X023997Y018700D01*
X024049Y018648D01*
X023893Y018493D02*
X023738Y018493D01*
X023738Y018700D01*
X023790Y018377D02*
X023842Y018377D01*
X023893Y018326D01*
X023945Y018377D01*
X023997Y018377D01*
X024049Y018326D01*
X024049Y018222D01*
X023997Y018171D01*
X024049Y018055D02*
X023945Y017952D01*
X023945Y018003D02*
X023945Y017848D01*
X024049Y017848D02*
X023738Y017848D01*
X023738Y018003D01*
X023790Y018055D01*
X023893Y018055D01*
X023945Y018003D01*
X023790Y018171D02*
X023738Y018222D01*
X023738Y018326D01*
X023790Y018377D01*
X023893Y018326D02*
X023893Y018274D01*
X023002Y018053D02*
X023002Y017742D01*
X023054Y017898D02*
X022847Y017898D01*
X023002Y018053D01*
X022732Y018001D02*
X022732Y017949D01*
X022680Y017898D01*
X022732Y017846D01*
X022732Y017794D01*
X022680Y017742D01*
X022576Y017742D01*
X022525Y017794D01*
X022409Y017742D02*
X022306Y017846D01*
X022358Y017846D02*
X022202Y017846D01*
X022202Y017742D02*
X022202Y018053D01*
X022358Y018053D01*
X022409Y018001D01*
X022409Y017898D01*
X022358Y017846D01*
X022525Y018001D02*
X022576Y018053D01*
X022680Y018053D01*
X022732Y018001D01*
X022680Y017898D02*
X022628Y017898D01*
X023530Y016090D02*
X023530Y015831D01*
X023581Y015779D01*
X023685Y015779D01*
X023736Y015831D01*
X023736Y016090D01*
X023852Y015986D02*
X023955Y016090D01*
X023955Y015779D01*
X023852Y015779D02*
X024059Y015779D01*
X021180Y014779D02*
X021180Y014468D01*
X021283Y014468D02*
X021076Y014468D01*
X020961Y014468D02*
X020857Y014572D01*
X020806Y014468D02*
X020754Y014520D01*
X020754Y014727D01*
X020806Y014779D01*
X020909Y014779D01*
X020961Y014727D01*
X020961Y014520D01*
X020909Y014468D01*
X020806Y014468D01*
X021076Y014675D02*
X021180Y014779D01*
X020287Y016301D02*
X020287Y016353D01*
X020494Y016560D01*
X020494Y016611D01*
X020287Y016611D01*
X020172Y016560D02*
X020120Y016611D01*
X020017Y016611D01*
X019965Y016560D01*
X019850Y016560D02*
X019850Y016456D01*
X019798Y016405D01*
X019643Y016405D01*
X019746Y016405D02*
X019850Y016301D01*
X019965Y016301D02*
X020172Y016508D01*
X020172Y016560D01*
X020172Y016301D02*
X019965Y016301D01*
X019850Y016560D02*
X019798Y016611D01*
X019643Y016611D01*
X019643Y016301D01*
X017879Y018214D02*
X017879Y018266D01*
X018086Y018473D01*
X018086Y018525D01*
X017879Y018525D01*
X017764Y018525D02*
X017660Y018525D01*
X017712Y018525D02*
X017712Y018266D01*
X017660Y018214D01*
X017609Y018214D01*
X017557Y018266D01*
X016080Y017099D02*
X016080Y016788D01*
X015977Y016788D02*
X016184Y016788D01*
X015977Y016995D02*
X016080Y017099D01*
X015861Y017047D02*
X015810Y017099D01*
X015706Y017099D01*
X015655Y017047D01*
X015655Y016840D01*
X015706Y016788D01*
X015810Y016788D01*
X015861Y016840D01*
X015766Y015966D02*
X015973Y015966D01*
X016088Y015862D02*
X016191Y015966D01*
X016191Y015655D01*
X016088Y015655D02*
X016295Y015655D01*
X015869Y015811D02*
X015766Y015811D01*
X015766Y015966D02*
X015766Y015655D01*
X014887Y015707D02*
X014836Y015655D01*
X014732Y015655D01*
X014681Y015707D01*
X014681Y015811D02*
X014784Y015862D01*
X014836Y015862D01*
X014887Y015811D01*
X014887Y015707D01*
X014681Y015811D02*
X014681Y015966D01*
X014887Y015966D01*
X014565Y015914D02*
X014513Y015966D01*
X014410Y015966D01*
X014358Y015914D01*
X014358Y015707D01*
X014410Y015655D01*
X014513Y015655D01*
X014565Y015707D01*
X013034Y015707D02*
X012983Y015655D01*
X012879Y015655D01*
X012828Y015707D01*
X012828Y015811D01*
X012983Y015811D01*
X013034Y015759D01*
X013034Y015707D01*
X013034Y015552D02*
X013034Y015501D01*
X012828Y015294D01*
X012828Y015242D01*
X012712Y015294D02*
X012660Y015242D01*
X012557Y015242D01*
X012505Y015294D01*
X012390Y015242D02*
X012286Y015345D01*
X012338Y015345D02*
X012183Y015345D01*
X012183Y015242D02*
X012183Y015552D01*
X012338Y015552D01*
X012390Y015501D01*
X012390Y015397D01*
X012338Y015345D01*
X012505Y015501D02*
X012557Y015552D01*
X012660Y015552D01*
X012712Y015501D01*
X012712Y015449D01*
X012660Y015397D01*
X012712Y015345D01*
X012712Y015294D01*
X012660Y015397D02*
X012609Y015397D01*
X012660Y015655D02*
X012557Y015655D01*
X012505Y015707D01*
X012390Y015655D02*
X012286Y015759D01*
X012338Y015759D02*
X012183Y015759D01*
X012183Y015655D02*
X012183Y015966D01*
X012338Y015966D01*
X012390Y015914D01*
X012390Y015811D01*
X012338Y015759D01*
X012505Y015914D02*
X012557Y015966D01*
X012660Y015966D01*
X012712Y015914D01*
X012712Y015862D01*
X012660Y015811D01*
X012712Y015759D01*
X012712Y015707D01*
X012660Y015655D01*
X012660Y015811D02*
X012609Y015811D01*
X012828Y015811D02*
X012931Y015914D01*
X013034Y015966D01*
X013034Y015552D02*
X012828Y015552D01*
X011755Y015481D02*
X011755Y015429D01*
X011703Y015377D01*
X011755Y015326D01*
X011755Y015274D01*
X011703Y015222D01*
X011600Y015222D01*
X011548Y015274D01*
X011433Y015222D02*
X011226Y015222D01*
X011329Y015222D02*
X011329Y015533D01*
X011226Y015429D01*
X011110Y015481D02*
X011059Y015533D01*
X010904Y015533D01*
X010904Y015222D01*
X011059Y015222D01*
X011110Y015274D01*
X011110Y015481D01*
X011059Y015655D02*
X011110Y015707D01*
X011110Y015914D01*
X011059Y015966D01*
X010904Y015966D01*
X010904Y015655D01*
X011059Y015655D01*
X011226Y015655D02*
X011433Y015655D01*
X011329Y015655D02*
X011329Y015966D01*
X011226Y015862D01*
X011548Y015914D02*
X011600Y015966D01*
X011703Y015966D01*
X011755Y015914D01*
X011755Y015862D01*
X011548Y015655D01*
X011755Y015655D01*
X011703Y015533D02*
X011755Y015481D01*
X011703Y015533D02*
X011600Y015533D01*
X011548Y015481D01*
X011652Y015377D02*
X011703Y015377D01*
X010493Y017941D02*
X010286Y017941D01*
X010390Y017941D02*
X010390Y018251D01*
X010286Y018148D01*
X010171Y017941D02*
X009964Y017941D01*
X010067Y017941D02*
X010067Y018251D01*
X009964Y018148D01*
X009849Y018199D02*
X009849Y017993D01*
X009797Y017941D01*
X009642Y017941D01*
X009642Y018251D01*
X009797Y018251D01*
X009849Y018199D01*
X008595Y017910D02*
X008388Y017910D01*
X008492Y017910D02*
X008492Y018220D01*
X008388Y018117D01*
X008273Y017910D02*
X008066Y017910D01*
X008066Y018220D01*
X009791Y019691D02*
X009843Y019640D01*
X010050Y019640D01*
X010102Y019691D01*
X010102Y019795D01*
X010050Y019847D01*
X010102Y019962D02*
X010102Y020169D01*
X010102Y020065D02*
X009791Y020065D01*
X009895Y019962D01*
X009843Y019847D02*
X009791Y019795D01*
X009791Y019691D01*
X009843Y020284D02*
X009895Y020284D01*
X009947Y020336D01*
X009947Y020439D01*
X009998Y020491D01*
X010050Y020491D01*
X010102Y020439D01*
X010102Y020336D01*
X010050Y020284D01*
X009998Y020284D01*
X009947Y020336D01*
X009947Y020439D02*
X009895Y020491D01*
X009843Y020491D01*
X009791Y020439D01*
X009791Y020336D01*
X009843Y020284D01*
X008595Y020725D02*
X008388Y020725D01*
X008595Y020932D01*
X008595Y020983D01*
X008543Y021035D01*
X008440Y021035D01*
X008388Y020983D01*
X008273Y020725D02*
X008066Y020725D01*
X008066Y021035D01*
X007865Y020671D02*
X007813Y020671D01*
X007762Y020619D01*
X007762Y020464D01*
X007865Y020464D01*
X007917Y020516D01*
X007917Y020619D01*
X007865Y020671D01*
X007658Y020567D02*
X007762Y020464D01*
X007658Y020567D02*
X007606Y020671D01*
X007606Y020348D02*
X007606Y020245D01*
X007606Y020297D02*
X007865Y020297D01*
X007917Y020245D01*
X007917Y020193D01*
X007865Y020142D01*
X007799Y021413D02*
X007799Y021874D01*
X007569Y021644D01*
X007876Y021644D01*
X007416Y021720D02*
X007416Y021797D01*
X007339Y021874D01*
X007185Y021874D01*
X007109Y021797D01*
X006955Y021874D02*
X006648Y021874D01*
X006648Y021413D01*
X006495Y021413D02*
X006341Y021567D01*
X006418Y021567D02*
X006188Y021567D01*
X006188Y021413D02*
X006188Y021874D01*
X006418Y021874D01*
X006495Y021797D01*
X006495Y021644D01*
X006418Y021567D01*
X006648Y021644D02*
X006802Y021644D01*
X007109Y021413D02*
X007416Y021720D01*
X007416Y021413D02*
X007109Y021413D01*
X009893Y021660D02*
X009945Y021609D01*
X010048Y021609D01*
X010100Y021660D01*
X010100Y021919D01*
X010215Y021764D02*
X010422Y021764D01*
X010370Y021919D02*
X010215Y021764D01*
X010370Y021609D02*
X010370Y021919D01*
X009893Y021919D02*
X009893Y021660D01*
X010960Y020643D02*
X012060Y020643D01*
X012060Y018893D01*
X010960Y018893D01*
X010960Y020643D01*
X011187Y018749D02*
X011135Y018697D01*
X011135Y018490D01*
X011187Y018438D01*
X011290Y018438D01*
X011342Y018490D01*
X011457Y018438D02*
X011664Y018645D01*
X011664Y018697D01*
X011612Y018749D01*
X011509Y018749D01*
X011457Y018697D01*
X011342Y018697D02*
X011290Y018749D01*
X011187Y018749D01*
X011457Y018438D02*
X011664Y018438D01*
X015155Y020340D02*
X015206Y020288D01*
X015310Y020288D01*
X015361Y020340D01*
X015361Y020599D01*
X015477Y020547D02*
X015528Y020599D01*
X015632Y020599D01*
X015684Y020547D01*
X015684Y020495D01*
X015632Y020443D01*
X015684Y020392D01*
X015684Y020340D01*
X015632Y020288D01*
X015528Y020288D01*
X015477Y020340D01*
X015580Y020443D02*
X015632Y020443D01*
X015155Y020340D02*
X015155Y020599D01*
X014560Y021518D02*
X013460Y021518D01*
X013460Y023268D01*
X014560Y023268D01*
X014560Y021518D01*
X014102Y023413D02*
X014102Y023465D01*
X014309Y023672D01*
X014309Y023724D01*
X014102Y023724D01*
X013986Y023672D02*
X013935Y023724D01*
X013831Y023724D01*
X013780Y023672D01*
X013780Y023465D01*
X013831Y023413D01*
X013935Y023413D01*
X013986Y023465D01*
X013737Y025688D02*
X013634Y025688D01*
X013582Y025740D01*
X013467Y025740D02*
X013415Y025688D01*
X013312Y025688D01*
X013260Y025740D01*
X013260Y025947D01*
X013312Y025999D01*
X013415Y025999D01*
X013467Y025947D01*
X013582Y025947D02*
X013634Y025999D01*
X013737Y025999D01*
X013789Y025947D01*
X013789Y025895D01*
X013737Y025843D01*
X013789Y025792D01*
X013789Y025740D01*
X013737Y025688D01*
X013737Y025843D02*
X013686Y025843D01*
X017358Y024265D02*
X017358Y024213D01*
X017410Y024161D01*
X017513Y024161D01*
X017565Y024110D01*
X017565Y024058D01*
X017513Y024006D01*
X017410Y024006D01*
X017358Y024058D01*
X017358Y024265D02*
X017410Y024316D01*
X017513Y024316D01*
X017565Y024265D01*
X017680Y024316D02*
X017680Y024110D01*
X017784Y024006D01*
X017887Y024110D01*
X017887Y024316D01*
X018003Y024265D02*
X018054Y024316D01*
X018158Y024316D01*
X018209Y024265D01*
X018209Y024213D01*
X018003Y024006D01*
X018209Y024006D01*
X009666Y026177D02*
X009666Y026280D01*
X009615Y026332D01*
X009615Y026447D02*
X009666Y026499D01*
X009666Y026602D01*
X009615Y026654D01*
X009563Y026654D01*
X009511Y026602D01*
X009511Y026447D01*
X009615Y026447D01*
X009511Y026447D02*
X009408Y026551D01*
X009356Y026654D01*
X009408Y026332D02*
X009356Y026280D01*
X009356Y026177D01*
X009408Y026125D01*
X009615Y026125D01*
X009666Y026177D01*
X018905Y012979D02*
X019060Y012979D01*
X019111Y012928D01*
X019111Y012721D01*
X019060Y012669D01*
X018905Y012669D01*
X018905Y012979D01*
X019227Y012876D02*
X019330Y012979D01*
X019330Y012669D01*
X019227Y012669D02*
X019434Y012669D01*
X019549Y012721D02*
X019601Y012669D01*
X019704Y012669D01*
X019756Y012721D01*
X019756Y012928D01*
X019549Y012721D01*
X019549Y012928D01*
X019601Y012979D01*
X019704Y012979D01*
X019756Y012928D01*
X019440Y010517D02*
X019079Y010517D01*
X019079Y010277D02*
X019440Y010517D01*
X019440Y010277D02*
X019079Y010277D01*
X019079Y010152D02*
X019079Y010032D01*
X019079Y010092D02*
X019440Y010092D01*
X019440Y010032D02*
X019440Y010152D01*
X019319Y009904D02*
X019079Y009904D01*
X019319Y009904D02*
X019440Y009783D01*
X019319Y009663D01*
X019079Y009663D01*
X018440Y009723D02*
X018379Y009663D01*
X018139Y009663D01*
X018079Y009723D01*
X018079Y009843D01*
X018139Y009904D01*
X018259Y009904D02*
X018259Y009783D01*
X018259Y009904D02*
X018379Y009904D01*
X018440Y009843D01*
X018440Y009723D01*
X018440Y010032D02*
X018079Y010032D01*
X018440Y010272D01*
X018079Y010272D01*
X018079Y010400D02*
X018079Y010580D01*
X018139Y010640D01*
X018379Y010640D01*
X018440Y010580D01*
X018440Y010400D01*
X018079Y010400D01*
X017440Y010380D02*
X017440Y010560D01*
X017379Y010620D01*
X017139Y010620D01*
X017079Y010560D01*
X017079Y010380D01*
X017440Y010380D01*
X017440Y010252D02*
X017079Y010252D01*
X017079Y010012D02*
X017440Y010252D01*
X017440Y010012D02*
X017079Y010012D01*
X017139Y009884D02*
X017079Y009823D01*
X017079Y009703D01*
X017139Y009643D01*
X017379Y009643D01*
X017440Y009703D01*
X017440Y009823D01*
X017379Y009884D01*
X017259Y009884D01*
X017259Y009763D01*
X016379Y011173D02*
X016440Y011233D01*
X016440Y011353D01*
X016379Y011414D01*
X016259Y011414D01*
X016199Y011353D01*
X016199Y011293D01*
X016259Y011173D01*
X016079Y011173D01*
X016079Y011414D01*
X016079Y011542D02*
X016319Y011542D01*
X016440Y011662D01*
X016319Y011782D01*
X016079Y011782D01*
X015290Y011652D02*
X015169Y011772D01*
X014929Y011772D01*
X014989Y011900D02*
X014929Y011960D01*
X014929Y012080D01*
X014989Y012140D01*
X015049Y012140D01*
X015109Y012080D01*
X015169Y012140D01*
X015229Y012140D01*
X015290Y012080D01*
X015290Y011960D01*
X015229Y011900D01*
X015109Y012020D02*
X015109Y012080D01*
X015290Y011652D02*
X015169Y011532D01*
X014929Y011532D01*
X014989Y011404D02*
X015049Y011404D01*
X015109Y011343D01*
X015169Y011404D01*
X015229Y011404D01*
X015290Y011343D01*
X015290Y011223D01*
X015229Y011163D01*
X015109Y011283D02*
X015109Y011343D01*
X014989Y011404D02*
X014929Y011343D01*
X014929Y011223D01*
X014989Y011163D01*
X014490Y010520D02*
X014129Y010520D01*
X014129Y010400D02*
X014129Y010640D01*
X014189Y010272D02*
X014129Y010212D01*
X014129Y010092D01*
X014189Y010032D01*
X014249Y010032D01*
X014309Y010092D01*
X014309Y010212D01*
X014369Y010272D01*
X014429Y010272D01*
X014490Y010212D01*
X014490Y010092D01*
X014429Y010032D01*
X014490Y009904D02*
X014369Y009783D01*
X014369Y009843D02*
X014369Y009663D01*
X014490Y009663D02*
X014129Y009663D01*
X014129Y009843D01*
X014189Y009904D01*
X014309Y009904D01*
X014369Y009843D01*
X013440Y009783D02*
X013440Y009663D01*
X013440Y009723D02*
X013079Y009723D01*
X013079Y009663D02*
X013079Y009783D01*
X013139Y009909D02*
X013379Y009909D01*
X013440Y009969D01*
X013440Y010089D01*
X013379Y010149D01*
X013139Y010149D01*
X013079Y010089D01*
X013079Y009969D01*
X013139Y009909D01*
X013079Y010277D02*
X013079Y010457D01*
X013139Y010517D01*
X013259Y010517D01*
X013319Y010457D01*
X013319Y010277D01*
X013319Y010397D02*
X013440Y010517D01*
X013440Y010645D02*
X013440Y010886D01*
X013440Y011014D02*
X013079Y011014D01*
X013079Y011254D01*
X013259Y011134D02*
X013259Y011014D01*
X013079Y010886D02*
X013079Y010645D01*
X013440Y010645D01*
X013259Y010645D02*
X013259Y010766D01*
X013440Y010277D02*
X013079Y010277D01*
X013133Y011629D02*
X012977Y011629D01*
X012977Y011940D01*
X013133Y011940D01*
X013184Y011888D01*
X013184Y011681D01*
X013133Y011629D01*
X013300Y011681D02*
X013351Y011629D01*
X013455Y011629D01*
X013507Y011681D01*
X013507Y011733D01*
X013455Y011785D01*
X013403Y011785D01*
X013455Y011785D02*
X013507Y011836D01*
X013507Y011888D01*
X013455Y011940D01*
X013351Y011940D01*
X013300Y011888D01*
X011299Y010919D02*
X011247Y010971D01*
X011144Y010971D01*
X011092Y010919D01*
X011092Y010868D01*
X011144Y010816D01*
X011299Y010816D01*
X011299Y010919D02*
X011299Y010712D01*
X011247Y010661D01*
X011144Y010661D01*
X011092Y010712D01*
X010977Y010712D02*
X010925Y010661D01*
X010822Y010661D01*
X010770Y010712D01*
X010770Y010919D01*
X010822Y010971D01*
X010925Y010971D01*
X010977Y010919D01*
X013799Y008138D02*
X013851Y008190D01*
X013903Y008190D01*
X013954Y008138D01*
X013954Y008035D01*
X013903Y007983D01*
X013851Y007983D01*
X013799Y008035D01*
X013799Y008138D01*
X013954Y008138D02*
X014006Y008190D01*
X014058Y008190D01*
X014109Y008138D01*
X014109Y008035D01*
X014058Y007983D01*
X014006Y007983D01*
X013954Y008035D01*
X013903Y007868D02*
X013851Y007868D01*
X013799Y007816D01*
X013799Y007712D01*
X013851Y007661D01*
X013851Y007545D02*
X013954Y007545D01*
X014006Y007494D01*
X014006Y007339D01*
X014006Y007442D02*
X014109Y007545D01*
X014109Y007661D02*
X013903Y007868D01*
X014109Y007868D02*
X014109Y007661D01*
X013851Y007545D02*
X013799Y007494D01*
X013799Y007339D01*
X014109Y007339D01*
X014826Y007309D02*
X014826Y007464D01*
X014877Y007516D01*
X015084Y007516D01*
X015136Y007464D01*
X015136Y007309D01*
X014826Y007309D01*
X014877Y007631D02*
X014826Y007683D01*
X014826Y007786D01*
X014877Y007838D01*
X014929Y007838D01*
X014981Y007786D01*
X014981Y007683D01*
X014929Y007631D01*
X014877Y007631D01*
X014981Y007683D02*
X015033Y007631D01*
X015084Y007631D01*
X015136Y007683D01*
X015136Y007786D01*
X015084Y007838D01*
X015033Y007838D01*
X014981Y007786D01*
X013086Y007816D02*
X013034Y007868D01*
X012827Y007868D01*
X012776Y007816D01*
X012776Y007712D01*
X012827Y007661D01*
X012879Y007661D01*
X012931Y007712D01*
X012931Y007868D01*
X013086Y007816D02*
X013086Y007712D01*
X013034Y007661D01*
X013034Y007545D02*
X012827Y007545D01*
X012776Y007494D01*
X012776Y007339D01*
X013086Y007339D01*
X013086Y007494D01*
X013034Y007545D01*
X016738Y006462D02*
X016738Y006151D01*
X016738Y006255D02*
X016945Y006462D01*
X017060Y006307D02*
X017267Y006307D01*
X017216Y006462D02*
X017216Y006151D01*
X017060Y006307D02*
X017216Y006462D01*
X016945Y006151D02*
X016790Y006307D01*
X021039Y009783D02*
X021159Y009663D01*
X021400Y009663D01*
X021219Y009663D02*
X021219Y009904D01*
X021159Y009904D02*
X021400Y009904D01*
X021339Y010032D02*
X021099Y010272D01*
X021339Y010272D01*
X021400Y010212D01*
X021400Y010092D01*
X021339Y010032D01*
X021099Y010032D01*
X021039Y010092D01*
X021039Y010212D01*
X021099Y010272D01*
X021159Y009904D02*
X021039Y009783D01*
X021999Y009783D02*
X022119Y009904D01*
X022360Y009904D01*
X022360Y010032D02*
X022360Y010272D01*
X022360Y010152D02*
X021999Y010152D01*
X022119Y010032D01*
X022179Y009904D02*
X022179Y009663D01*
X022119Y009663D02*
X021999Y009783D01*
X022119Y009663D02*
X022360Y009663D01*
X023019Y009783D02*
X023139Y009663D01*
X023380Y009663D01*
X023199Y009663D02*
X023199Y009904D01*
X023139Y009904D02*
X023380Y009904D01*
X023380Y010032D02*
X023139Y010272D01*
X023079Y010272D01*
X023019Y010212D01*
X023019Y010092D01*
X023079Y010032D01*
X023139Y009904D02*
X023019Y009783D01*
X023380Y010032D02*
X023380Y010272D01*
X024069Y010212D02*
X024129Y010272D01*
X024189Y010272D01*
X024249Y010212D01*
X024309Y010272D01*
X024369Y010272D01*
X024430Y010212D01*
X024430Y010092D01*
X024369Y010032D01*
X024430Y009904D02*
X024189Y009904D01*
X024069Y009783D01*
X024189Y009663D01*
X024430Y009663D01*
X024249Y009663D02*
X024249Y009904D01*
X024129Y010032D02*
X024069Y010092D01*
X024069Y010212D01*
X024249Y010212D02*
X024249Y010152D01*
X025079Y010212D02*
X025259Y010032D01*
X025259Y010272D01*
X025079Y010212D02*
X025440Y010212D01*
X025440Y009904D02*
X025199Y009904D01*
X025079Y009783D01*
X025199Y009663D01*
X025440Y009663D01*
X025259Y009663D02*
X025259Y009904D01*
X026079Y009783D02*
X026199Y009904D01*
X026440Y009904D01*
X026379Y010032D02*
X026440Y010092D01*
X026440Y010212D01*
X026379Y010272D01*
X026259Y010272D01*
X026199Y010212D01*
X026199Y010152D01*
X026259Y010032D01*
X026079Y010032D01*
X026079Y010272D01*
X026259Y009904D02*
X026259Y009663D01*
X026199Y009663D02*
X026079Y009783D01*
X026199Y009663D02*
X026440Y009663D01*
X025048Y006462D02*
X025100Y006410D01*
X025100Y006358D01*
X025048Y006307D01*
X025100Y006255D01*
X025100Y006203D01*
X025048Y006151D01*
X024945Y006151D01*
X024893Y006203D01*
X024778Y006151D02*
X024623Y006307D01*
X024571Y006255D02*
X024778Y006462D01*
X024893Y006410D02*
X024945Y006462D01*
X025048Y006462D01*
X025048Y006307D02*
X024997Y006307D01*
X024571Y006462D02*
X024571Y006151D01*
X008124Y007447D02*
X008072Y007396D01*
X007968Y007396D01*
X007917Y007447D01*
X007917Y007551D02*
X008020Y007602D01*
X008072Y007602D01*
X008124Y007551D01*
X008124Y007447D01*
X007917Y007551D02*
X007917Y007706D01*
X008124Y007706D01*
X007801Y007706D02*
X007698Y007706D01*
X007750Y007706D02*
X007750Y007447D01*
X007698Y007396D01*
X007646Y007396D01*
X007594Y007447D01*
X042320Y006483D02*
X042320Y006172D01*
X042475Y006172D01*
X042527Y006224D01*
X042527Y006431D01*
X042475Y006483D01*
X042320Y006483D01*
X042642Y006483D02*
X042849Y006483D01*
X042849Y006431D01*
X042642Y006224D01*
X042642Y006172D01*
D12*
X042025Y006144D02*
X042025Y006047D01*
X041976Y005999D01*
X041976Y005900D02*
X042025Y005900D01*
X042025Y005852D01*
X041976Y005852D01*
X041976Y005900D01*
X041976Y005751D02*
X042025Y005702D01*
X042025Y005605D01*
X041976Y005557D01*
X041879Y005654D02*
X041879Y005702D01*
X041928Y005751D01*
X041976Y005751D01*
X041879Y005702D02*
X041831Y005751D01*
X041783Y005751D01*
X041734Y005702D01*
X041734Y005605D01*
X041783Y005557D01*
X041783Y005999D02*
X041734Y006047D01*
X041734Y006144D01*
X041783Y006193D01*
X041831Y006193D01*
X041879Y006144D01*
X041928Y006193D01*
X041976Y006193D01*
X042025Y006144D01*
X041879Y006144D02*
X041879Y006096D01*
X041928Y006294D02*
X042025Y006390D01*
X041928Y006487D01*
X041734Y006487D01*
X041734Y006294D02*
X041928Y006294D01*
X041013Y006294D02*
X041013Y006439D01*
X040965Y006487D01*
X040771Y006487D01*
X040723Y006439D01*
X040723Y006294D01*
X041013Y006294D01*
X041013Y006193D02*
X040723Y006193D01*
X040723Y005999D02*
X041013Y006193D01*
X041013Y005999D02*
X040723Y005999D01*
X040771Y005898D02*
X040723Y005849D01*
X040723Y005753D01*
X040771Y005704D01*
X040965Y005704D01*
X041013Y005753D01*
X041013Y005849D01*
X040965Y005898D01*
X040868Y005898D01*
X040868Y005801D01*
X040868Y005603D02*
X040868Y005410D01*
X040820Y005410D02*
X040723Y005506D01*
X040820Y005603D01*
X041013Y005603D01*
X041013Y005410D02*
X040820Y005410D01*
X040002Y005999D02*
X039809Y005999D01*
X039712Y006096D01*
X039809Y006193D01*
X040002Y006193D01*
X039954Y006294D02*
X040002Y006342D01*
X040002Y006439D01*
X039954Y006487D01*
X039760Y006487D01*
X039712Y006439D01*
X039712Y006342D01*
X039760Y006294D01*
X039809Y006294D01*
X039857Y006342D01*
X039857Y006487D01*
X039857Y006193D02*
X039857Y005999D01*
X038991Y005999D02*
X038797Y005999D01*
X038701Y006096D01*
X038797Y006193D01*
X038991Y006193D01*
X038943Y006294D02*
X038894Y006294D01*
X038846Y006342D01*
X038846Y006439D01*
X038894Y006487D01*
X038943Y006487D01*
X038991Y006439D01*
X038991Y006342D01*
X038943Y006294D01*
X038846Y006342D02*
X038797Y006294D01*
X038749Y006294D01*
X038701Y006342D01*
X038701Y006439D01*
X038749Y006487D01*
X038797Y006487D01*
X038846Y006439D01*
X038846Y006193D02*
X038846Y005999D01*
X037980Y005999D02*
X037786Y005999D01*
X037689Y006096D01*
X037786Y006193D01*
X037980Y006193D01*
X037980Y006294D02*
X037931Y006294D01*
X037738Y006487D01*
X037689Y006487D01*
X037689Y006294D01*
X037835Y006193D02*
X037835Y005999D01*
X036969Y005999D02*
X036775Y005999D01*
X036678Y006096D01*
X036775Y006193D01*
X036969Y006193D01*
X036920Y006294D02*
X036969Y006342D01*
X036969Y006439D01*
X036920Y006487D01*
X036872Y006487D01*
X036823Y006439D01*
X036823Y006294D01*
X036920Y006294D01*
X036823Y006294D02*
X036727Y006390D01*
X036678Y006487D01*
X036823Y006193D02*
X036823Y005999D01*
X035957Y005999D02*
X035764Y006193D01*
X035715Y006193D01*
X035667Y006144D01*
X035667Y006047D01*
X035715Y005999D01*
X035715Y005898D02*
X035667Y005849D01*
X035667Y005704D01*
X035957Y005704D01*
X035957Y005849D01*
X035909Y005898D01*
X035715Y005898D01*
X035957Y005999D02*
X035957Y006193D01*
X035812Y006294D02*
X035812Y006487D01*
X035667Y006439D02*
X035812Y006294D01*
X035957Y006439D02*
X035667Y006439D01*
X034946Y006439D02*
X034946Y006342D01*
X034898Y006294D01*
X034801Y006294D02*
X034753Y006390D01*
X034753Y006439D01*
X034801Y006487D01*
X034898Y006487D01*
X034946Y006439D01*
X034801Y006294D02*
X034656Y006294D01*
X034656Y006487D01*
X034704Y006193D02*
X034656Y006144D01*
X034656Y006047D01*
X034704Y005999D01*
X034704Y005898D02*
X034656Y005849D01*
X034656Y005704D01*
X034946Y005704D01*
X034946Y005849D01*
X034898Y005898D01*
X034704Y005898D01*
X034946Y005999D02*
X034753Y006193D01*
X034704Y006193D01*
X034946Y006193D02*
X034946Y005999D01*
X033935Y005999D02*
X033741Y006193D01*
X033693Y006193D01*
X033645Y006144D01*
X033645Y006047D01*
X033693Y005999D01*
X033693Y005898D02*
X033645Y005849D01*
X033645Y005704D01*
X033935Y005704D01*
X033935Y005849D01*
X033887Y005898D01*
X033693Y005898D01*
X033935Y005999D02*
X033935Y006193D01*
X033887Y006294D02*
X033935Y006342D01*
X033935Y006439D01*
X033887Y006487D01*
X033838Y006487D01*
X033790Y006439D01*
X033790Y006294D01*
X033887Y006294D01*
X033790Y006294D02*
X033693Y006390D01*
X033645Y006487D01*
X032924Y006294D02*
X032875Y006294D01*
X032682Y006487D01*
X032633Y006487D01*
X032633Y006294D01*
X032682Y006193D02*
X032633Y006144D01*
X032633Y006047D01*
X032682Y005999D01*
X032682Y005898D02*
X032633Y005849D01*
X032633Y005704D01*
X032924Y005704D01*
X032924Y005849D01*
X032875Y005898D01*
X032682Y005898D01*
X032924Y005999D02*
X032730Y006193D01*
X032682Y006193D01*
X032924Y006193D02*
X032924Y005999D01*
X031913Y005999D02*
X031719Y006193D01*
X031671Y006193D01*
X031622Y006144D01*
X031622Y006047D01*
X031671Y005999D01*
X031671Y005898D02*
X031622Y005849D01*
X031622Y005704D01*
X031913Y005704D01*
X031913Y005849D01*
X031864Y005898D01*
X031671Y005898D01*
X031913Y005999D02*
X031913Y006193D01*
X031864Y006294D02*
X031816Y006294D01*
X031767Y006342D01*
X031767Y006439D01*
X031816Y006487D01*
X031864Y006487D01*
X031913Y006439D01*
X031913Y006342D01*
X031864Y006294D01*
X031767Y006342D02*
X031719Y006294D01*
X031671Y006294D01*
X031622Y006342D01*
X031622Y006439D01*
X031671Y006487D01*
X031719Y006487D01*
X031767Y006439D01*
X030901Y006390D02*
X030611Y006390D01*
X030611Y006294D02*
X030611Y006487D01*
X030708Y006193D02*
X030901Y006193D01*
X030756Y006193D02*
X030756Y005999D01*
X030708Y005999D02*
X030611Y006096D01*
X030708Y006193D01*
X030708Y005999D02*
X030901Y005999D01*
X030853Y005898D02*
X030901Y005849D01*
X030901Y005704D01*
X030611Y005704D01*
X030611Y005849D01*
X030659Y005898D01*
X030708Y005898D01*
X030756Y005849D01*
X030756Y005704D01*
X030805Y005603D02*
X030611Y005603D01*
X030611Y005410D02*
X030805Y005410D01*
X030901Y005506D01*
X030805Y005603D01*
X030756Y005849D02*
X030805Y005898D01*
X030853Y005898D01*
X029890Y005849D02*
X029842Y005898D01*
X029745Y005898D01*
X029745Y005801D01*
X029842Y005704D02*
X029890Y005753D01*
X029890Y005849D01*
X029890Y005999D02*
X029600Y005999D01*
X029890Y006193D01*
X029600Y006193D01*
X029600Y006294D02*
X029600Y006439D01*
X029648Y006487D01*
X029842Y006487D01*
X029890Y006439D01*
X029890Y006294D01*
X029600Y006294D01*
X029648Y005898D02*
X029600Y005849D01*
X029600Y005753D01*
X029648Y005704D01*
X029842Y005704D01*
X028106Y006282D02*
X028058Y006233D01*
X027961Y006233D01*
X027913Y006282D01*
X027812Y006233D02*
X027618Y006233D01*
X027715Y006233D02*
X027715Y006524D01*
X027618Y006427D01*
X027517Y006524D02*
X027420Y006524D01*
X027469Y006524D02*
X027469Y006282D01*
X027420Y006233D01*
X027372Y006233D01*
X027324Y006282D01*
X027223Y006282D02*
X027174Y006233D01*
X027077Y006233D01*
X027029Y006282D01*
X027077Y006378D02*
X027174Y006378D01*
X027223Y006330D01*
X027223Y006282D01*
X027077Y006378D02*
X027029Y006427D01*
X027029Y006475D01*
X027077Y006524D01*
X027174Y006524D01*
X027223Y006475D01*
X027174Y006983D02*
X027077Y006983D01*
X027029Y007032D01*
X027077Y007128D02*
X027174Y007128D01*
X027223Y007080D01*
X027223Y007032D01*
X027174Y006983D01*
X027324Y007032D02*
X027372Y006983D01*
X027420Y006983D01*
X027469Y007032D01*
X027469Y007274D01*
X027517Y007274D02*
X027420Y007274D01*
X027223Y007225D02*
X027174Y007274D01*
X027077Y007274D01*
X027029Y007225D01*
X027029Y007177D01*
X027077Y007128D01*
X027618Y007177D02*
X027715Y007274D01*
X027715Y006983D01*
X027618Y006983D02*
X027812Y006983D01*
X027913Y006983D02*
X028106Y006983D01*
X028010Y006983D02*
X028010Y007274D01*
X027913Y007177D01*
X027961Y006524D02*
X028058Y006524D01*
X028106Y006475D01*
X028106Y006427D01*
X028058Y006378D01*
X028106Y006330D01*
X028106Y006282D01*
X028058Y006378D02*
X028010Y006378D01*
X027913Y006475D02*
X027961Y006524D01*
X029618Y008908D02*
X029812Y008908D01*
X029860Y008957D01*
X029860Y009053D01*
X029812Y009102D01*
X029715Y009102D01*
X029715Y009005D01*
X029618Y008908D02*
X029570Y008957D01*
X029570Y009053D01*
X029618Y009102D01*
X029570Y009203D02*
X029860Y009396D01*
X029570Y009396D01*
X029570Y009498D02*
X029570Y009643D01*
X029618Y009691D01*
X029812Y009691D01*
X029860Y009643D01*
X029860Y009498D01*
X029570Y009498D01*
X029570Y009203D02*
X029860Y009203D01*
X030581Y009203D02*
X030581Y009348D01*
X030629Y009396D01*
X030726Y009396D01*
X030775Y009348D01*
X030775Y009203D01*
X030871Y009203D02*
X030581Y009203D01*
X030629Y009102D02*
X030581Y009053D01*
X030581Y008908D01*
X030871Y008908D01*
X030775Y008908D02*
X030775Y009053D01*
X030726Y009102D01*
X030629Y009102D01*
X030775Y009300D02*
X030871Y009396D01*
X030823Y009498D02*
X030871Y009546D01*
X030871Y009643D01*
X030823Y009691D01*
X030629Y009691D01*
X030581Y009643D01*
X030581Y009546D01*
X030629Y009498D01*
X030823Y009498D01*
X030823Y009792D02*
X030871Y009841D01*
X030871Y009937D01*
X030823Y009986D01*
X030726Y009986D01*
X030726Y009889D01*
X030629Y009792D02*
X030823Y009792D01*
X030629Y009792D02*
X030581Y009841D01*
X030581Y009937D01*
X030629Y009986D01*
X031592Y009643D02*
X031592Y009546D01*
X031641Y009498D01*
X031689Y009498D01*
X031737Y009546D01*
X031737Y009691D01*
X031641Y009691D02*
X031592Y009643D01*
X031641Y009691D02*
X031834Y009691D01*
X031883Y009643D01*
X031883Y009546D01*
X031834Y009498D01*
X031883Y009396D02*
X031883Y009203D01*
X031689Y009396D01*
X031641Y009396D01*
X031592Y009348D01*
X031592Y009251D01*
X031641Y009203D01*
X031641Y009102D02*
X031592Y009053D01*
X031592Y008908D01*
X031883Y008908D01*
X031883Y009053D01*
X031834Y009102D01*
X031641Y009102D01*
X032603Y009053D02*
X032603Y008908D01*
X032894Y008908D01*
X032894Y009053D01*
X032845Y009102D01*
X032652Y009102D01*
X032603Y009053D01*
X032652Y009203D02*
X032603Y009251D01*
X032603Y009348D01*
X032652Y009396D01*
X032700Y009396D01*
X032749Y009348D01*
X032797Y009396D01*
X032845Y009396D01*
X032894Y009348D01*
X032894Y009251D01*
X032845Y009203D01*
X032749Y009300D02*
X032749Y009348D01*
X032845Y009498D02*
X032652Y009691D01*
X032845Y009691D01*
X032894Y009643D01*
X032894Y009546D01*
X032845Y009498D01*
X032652Y009498D01*
X032603Y009546D01*
X032603Y009643D01*
X032652Y009691D01*
X033615Y009594D02*
X033905Y009594D01*
X033905Y009498D02*
X033905Y009691D01*
X033711Y009498D02*
X033615Y009594D01*
X033663Y009396D02*
X033711Y009396D01*
X033760Y009348D01*
X033808Y009396D01*
X033857Y009396D01*
X033905Y009348D01*
X033905Y009251D01*
X033857Y009203D01*
X033857Y009102D02*
X033663Y009102D01*
X033615Y009053D01*
X033615Y008908D01*
X033905Y008908D01*
X033905Y009053D01*
X033857Y009102D01*
X033663Y009203D02*
X033615Y009251D01*
X033615Y009348D01*
X033663Y009396D01*
X033760Y009348D02*
X033760Y009300D01*
X034626Y009348D02*
X034674Y009396D01*
X034723Y009396D01*
X034771Y009348D01*
X034819Y009396D01*
X034868Y009396D01*
X034916Y009348D01*
X034916Y009251D01*
X034868Y009203D01*
X034868Y009102D02*
X034674Y009102D01*
X034626Y009053D01*
X034626Y008908D01*
X034916Y008908D01*
X034916Y009053D01*
X034868Y009102D01*
X034674Y009203D02*
X034626Y009251D01*
X034626Y009348D01*
X034771Y009348D02*
X034771Y009300D01*
X034674Y009498D02*
X034626Y009546D01*
X034626Y009643D01*
X034674Y009691D01*
X034723Y009691D01*
X034916Y009498D01*
X034916Y009691D01*
X035637Y009643D02*
X035685Y009691D01*
X035734Y009691D01*
X035782Y009643D01*
X035831Y009691D01*
X035879Y009691D01*
X035927Y009643D01*
X035927Y009546D01*
X035879Y009498D01*
X035879Y009396D02*
X035927Y009348D01*
X035927Y009251D01*
X035879Y009203D01*
X035879Y009102D02*
X035685Y009102D01*
X035637Y009053D01*
X035637Y008908D01*
X035927Y008908D01*
X035927Y009053D01*
X035879Y009102D01*
X035685Y009203D02*
X035637Y009251D01*
X035637Y009348D01*
X035685Y009396D01*
X035734Y009396D01*
X035782Y009348D01*
X035831Y009396D01*
X035879Y009396D01*
X035782Y009348D02*
X035782Y009300D01*
X035685Y009498D02*
X035637Y009546D01*
X035637Y009643D01*
X035782Y009643D02*
X035782Y009594D01*
X036648Y009546D02*
X036648Y009643D01*
X036697Y009691D01*
X036745Y009691D01*
X036793Y009643D01*
X036842Y009691D01*
X036890Y009691D01*
X036939Y009643D01*
X036939Y009546D01*
X036890Y009498D01*
X036939Y009396D02*
X036939Y009203D01*
X036939Y009300D02*
X036648Y009300D01*
X036745Y009203D01*
X036745Y009102D02*
X036939Y009102D01*
X036793Y009102D02*
X036793Y008908D01*
X036745Y008908D02*
X036648Y009005D01*
X036745Y009102D01*
X036745Y008908D02*
X036939Y008908D01*
X037659Y009005D02*
X037756Y009102D01*
X037950Y009102D01*
X037950Y009203D02*
X037950Y009396D01*
X037950Y009300D02*
X037659Y009300D01*
X037756Y009203D01*
X037805Y009102D02*
X037805Y008908D01*
X037756Y008908D02*
X037950Y008908D01*
X037756Y008908D02*
X037659Y009005D01*
X037708Y009498D02*
X037659Y009546D01*
X037659Y009643D01*
X037708Y009691D01*
X037756Y009691D01*
X037950Y009498D01*
X037950Y009691D01*
X038671Y009594D02*
X038961Y009594D01*
X038961Y009498D02*
X038961Y009691D01*
X038767Y009498D02*
X038671Y009594D01*
X038671Y009300D02*
X038961Y009300D01*
X038961Y009396D02*
X038961Y009203D01*
X038961Y009102D02*
X038767Y009102D01*
X038671Y009005D01*
X038767Y008908D01*
X038961Y008908D01*
X038816Y008908D02*
X038816Y009102D01*
X038767Y009203D02*
X038671Y009300D01*
X039682Y009300D02*
X039972Y009300D01*
X039972Y009396D02*
X039972Y009203D01*
X039972Y009102D02*
X039779Y009102D01*
X039682Y009005D01*
X039779Y008908D01*
X039972Y008908D01*
X039827Y008908D02*
X039827Y009102D01*
X039779Y009203D02*
X039682Y009300D01*
X039730Y009498D02*
X039682Y009546D01*
X039682Y009643D01*
X039730Y009691D01*
X039924Y009498D01*
X039972Y009546D01*
X039972Y009643D01*
X039924Y009691D01*
X039730Y009691D01*
X039730Y009498D02*
X039924Y009498D01*
X040693Y009546D02*
X040741Y009498D01*
X040790Y009498D01*
X040838Y009546D01*
X040838Y009643D01*
X040887Y009691D01*
X040935Y009691D01*
X040983Y009643D01*
X040983Y009546D01*
X040935Y009498D01*
X040935Y009396D02*
X040693Y009396D01*
X040693Y009546D02*
X040693Y009643D01*
X040741Y009691D01*
X040693Y009792D02*
X040693Y009937D01*
X040741Y009986D01*
X040790Y009986D01*
X040838Y009937D01*
X040838Y009792D01*
X040983Y009792D02*
X040693Y009792D01*
X040838Y009937D02*
X040887Y009986D01*
X040935Y009986D01*
X040983Y009937D01*
X040983Y009792D01*
X040935Y009396D02*
X040983Y009348D01*
X040983Y009251D01*
X040935Y009203D01*
X040693Y009203D01*
X040693Y009102D02*
X040887Y009102D01*
X040983Y009005D01*
X040887Y008908D01*
X040693Y008908D01*
X041704Y008957D02*
X041704Y009053D01*
X041753Y009102D01*
X041801Y009102D01*
X041849Y009053D01*
X041898Y009102D01*
X041946Y009102D01*
X041995Y009053D01*
X041995Y008957D01*
X041946Y008908D01*
X041849Y009005D02*
X041849Y009053D01*
X041753Y008908D02*
X041704Y008957D01*
X041946Y009203D02*
X041946Y009251D01*
X041995Y009251D01*
X041995Y009203D01*
X041946Y009203D01*
X041946Y009350D02*
X041995Y009399D01*
X041995Y009495D01*
X041946Y009544D01*
X041898Y009544D01*
X041849Y009495D01*
X041849Y009447D01*
X041849Y009495D02*
X041801Y009544D01*
X041753Y009544D01*
X041704Y009495D01*
X041704Y009399D01*
X041753Y009350D01*
X041704Y009645D02*
X041898Y009645D01*
X041995Y009742D01*
X041898Y009838D01*
X041704Y009838D01*
X043089Y007639D02*
X043234Y007639D01*
X043283Y007591D01*
X043283Y007494D01*
X043234Y007446D01*
X043089Y007446D01*
X043089Y007349D02*
X043089Y007639D01*
X043186Y007446D02*
X043283Y007349D01*
X043384Y007398D02*
X043432Y007349D01*
X043529Y007349D01*
X043577Y007398D01*
X043577Y007446D01*
X043529Y007494D01*
X043481Y007494D01*
X043529Y007494D02*
X043577Y007543D01*
X043577Y007591D01*
X043529Y007639D01*
X043432Y007639D01*
X043384Y007591D01*
X043679Y007591D02*
X043727Y007639D01*
X043824Y007639D01*
X043872Y007591D01*
X043679Y007398D01*
X043727Y007349D01*
X043824Y007349D01*
X043872Y007398D01*
X043872Y007591D01*
X043679Y007591D02*
X043679Y007398D01*
X036793Y009594D02*
X036793Y009643D01*
X036697Y009498D02*
X036648Y009546D01*
X027534Y014678D02*
X027534Y014775D01*
X027486Y014823D01*
X027534Y014924D02*
X027244Y014924D01*
X027293Y014823D02*
X027244Y014775D01*
X027244Y014678D01*
X027293Y014630D01*
X027486Y014630D01*
X027534Y014678D01*
X027389Y014924D02*
X027389Y015118D01*
X027293Y015219D02*
X027486Y015219D01*
X027534Y015267D01*
X027534Y015364D01*
X027486Y015412D01*
X027389Y015412D01*
X027389Y015316D01*
X027293Y015412D02*
X027244Y015364D01*
X027244Y015267D01*
X027293Y015219D01*
X027244Y015118D02*
X027534Y015118D01*
X027534Y015808D02*
X027534Y015905D01*
X027534Y015856D02*
X027244Y015856D01*
X027244Y015808D02*
X027244Y015905D01*
X027244Y016005D02*
X027534Y016198D01*
X027244Y016198D01*
X027244Y016299D02*
X027244Y016444D01*
X027293Y016493D01*
X027389Y016493D01*
X027438Y016444D01*
X027438Y016299D01*
X027534Y016299D02*
X027244Y016299D01*
X027244Y016005D02*
X027534Y016005D01*
X027486Y016594D02*
X027244Y016594D01*
X027244Y016787D02*
X027486Y016787D01*
X027534Y016739D01*
X027534Y016642D01*
X027486Y016594D01*
X027244Y016889D02*
X027244Y017082D01*
X027244Y016985D02*
X027534Y016985D01*
X026786Y016963D02*
X026496Y016963D01*
X026496Y016770D02*
X026786Y016963D01*
X026786Y016770D02*
X026496Y016770D01*
X026496Y016670D02*
X026496Y016573D01*
X026496Y016622D02*
X026786Y016622D01*
X026786Y016670D02*
X026786Y016573D01*
X026835Y016472D02*
X026835Y016278D01*
X026738Y016177D02*
X026641Y016177D01*
X026641Y016081D01*
X026544Y016177D02*
X026496Y016129D01*
X026496Y016032D01*
X026544Y015984D01*
X026738Y015984D01*
X026786Y016032D01*
X026786Y016129D01*
X026738Y016177D01*
X026786Y015883D02*
X026496Y015883D01*
X026641Y015883D02*
X026641Y015689D01*
X026544Y015588D02*
X026496Y015540D01*
X026496Y015443D01*
X026544Y015395D01*
X026738Y015395D01*
X026786Y015443D01*
X026786Y015540D01*
X026738Y015588D01*
X026786Y015689D02*
X026496Y015689D01*
X026127Y015738D02*
X026079Y015689D01*
X026127Y015738D02*
X026127Y015834D01*
X026079Y015883D01*
X025982Y015883D01*
X025933Y015834D01*
X025933Y015786D01*
X025982Y015689D01*
X025837Y015689D01*
X025837Y015883D01*
X025837Y015984D02*
X026030Y015984D01*
X026127Y016081D01*
X026030Y016177D01*
X025837Y016177D01*
X025516Y016278D02*
X025516Y016472D01*
X025468Y016573D02*
X025468Y016670D01*
X025468Y016622D02*
X025178Y016622D01*
X025178Y016670D02*
X025178Y016573D01*
X025178Y016770D02*
X025468Y016963D01*
X025178Y016963D01*
X025178Y016770D02*
X025468Y016770D01*
X025178Y016177D02*
X025178Y015984D01*
X025178Y016081D02*
X025468Y016081D01*
X025468Y015883D02*
X025178Y015689D01*
X025178Y015588D02*
X025178Y015395D01*
X025468Y015395D01*
X025468Y015588D01*
X025468Y015689D02*
X025178Y015883D01*
X025323Y015491D02*
X025323Y015395D01*
X025885Y015491D02*
X026079Y015491D01*
X025982Y015395D02*
X025982Y015588D01*
X024687Y014780D02*
X024564Y014657D01*
X024564Y014719D02*
X024564Y014534D01*
X024687Y014534D02*
X024317Y014534D01*
X024317Y014719D01*
X024379Y014780D01*
X024502Y014780D01*
X024564Y014719D01*
X024687Y014412D02*
X024687Y014165D01*
X024317Y014165D01*
X024317Y014412D01*
X024502Y014289D02*
X024502Y014165D01*
X024502Y014044D02*
X024502Y013920D01*
X024502Y014044D02*
X024626Y014044D01*
X024687Y013982D01*
X024687Y013859D01*
X024626Y013797D01*
X024379Y013797D01*
X024317Y013859D01*
X024317Y013982D01*
X024379Y014044D01*
X024379Y013675D02*
X024502Y013675D01*
X024564Y013614D01*
X024564Y013429D01*
X024564Y013552D02*
X024687Y013675D01*
X024687Y013429D02*
X024317Y013429D01*
X024317Y013614D01*
X024379Y013675D01*
X024441Y013307D02*
X024687Y013307D01*
X024502Y013307D02*
X024502Y013060D01*
X024441Y013060D02*
X024317Y013184D01*
X024441Y013307D01*
X024441Y013060D02*
X024687Y013060D01*
X024687Y012939D02*
X024317Y012939D01*
X024502Y012939D02*
X024502Y012692D01*
X024379Y012571D02*
X024317Y012509D01*
X024317Y012385D01*
X024379Y012324D01*
X024626Y012324D01*
X024687Y012385D01*
X024687Y012509D01*
X024626Y012571D01*
X024687Y012692D02*
X024317Y012692D01*
X021573Y013056D02*
X021525Y013007D01*
X021428Y013007D01*
X021380Y013056D01*
X021428Y013153D02*
X021573Y013153D01*
X021573Y013249D02*
X021525Y013298D01*
X021428Y013298D01*
X021380Y013249D01*
X021380Y013201D01*
X021428Y013153D01*
X021573Y013249D02*
X021573Y013056D01*
X021230Y013056D02*
X021230Y013298D01*
X021182Y013298D02*
X021279Y013298D01*
X021230Y013056D02*
X021182Y013007D01*
X021134Y013007D01*
X021085Y013056D01*
X020984Y013056D02*
X020936Y013007D01*
X020839Y013007D01*
X020791Y013056D01*
X020839Y013153D02*
X020936Y013153D01*
X020984Y013104D01*
X020984Y013056D01*
X020839Y013153D02*
X020791Y013201D01*
X020791Y013249D01*
X020839Y013298D01*
X020936Y013298D01*
X020984Y013249D01*
X018032Y013983D02*
X017839Y013983D01*
X017936Y013983D02*
X017936Y014274D01*
X017839Y014177D01*
X017738Y014274D02*
X017641Y014274D01*
X017689Y014274D02*
X017689Y014032D01*
X017641Y013983D01*
X017593Y013983D01*
X017544Y014032D01*
X017443Y014032D02*
X017395Y013983D01*
X017298Y013983D01*
X017250Y014032D01*
X017298Y014128D02*
X017395Y014128D01*
X017443Y014080D01*
X017443Y014032D01*
X017298Y014128D02*
X017250Y014177D01*
X017250Y014225D01*
X017298Y014274D01*
X017395Y014274D01*
X017443Y014225D01*
X016631Y017954D02*
X016754Y018077D01*
X016631Y018200D01*
X016384Y018200D01*
X016384Y018322D02*
X016384Y018507D01*
X016446Y018569D01*
X016569Y018569D01*
X016631Y018507D01*
X016631Y018322D01*
X016631Y018445D02*
X016754Y018569D01*
X016754Y018690D02*
X016754Y018937D01*
X016693Y019059D02*
X016446Y019059D01*
X016384Y019120D01*
X016384Y019244D01*
X016446Y019305D01*
X016569Y019305D02*
X016569Y019182D01*
X016569Y019305D02*
X016693Y019305D01*
X016754Y019244D01*
X016754Y019120D01*
X016693Y019059D01*
X016569Y018814D02*
X016569Y018690D01*
X016384Y018690D02*
X016754Y018690D01*
X016754Y018322D02*
X016384Y018322D01*
X016384Y018690D02*
X016384Y018937D01*
X016507Y019427D02*
X016384Y019550D01*
X016754Y019550D01*
X016754Y019427D02*
X016754Y019674D01*
X016631Y017954D02*
X016384Y017954D01*
X019041Y019554D02*
X019041Y019747D01*
X019041Y019554D02*
X019138Y019457D01*
X019235Y019554D01*
X019235Y019747D01*
X019336Y019747D02*
X019481Y019747D01*
X019529Y019699D01*
X019529Y019602D01*
X019481Y019554D01*
X019336Y019554D01*
X019433Y019554D02*
X019529Y019457D01*
X019630Y019457D02*
X019824Y019457D01*
X019925Y019505D02*
X019973Y019457D01*
X020070Y019457D01*
X020119Y019505D01*
X020119Y019602D01*
X020022Y019602D01*
X020119Y019699D02*
X020070Y019747D01*
X019973Y019747D01*
X019925Y019699D01*
X019925Y019505D01*
X019727Y019602D02*
X019630Y019602D01*
X019630Y019747D02*
X019630Y019457D01*
X019630Y019747D02*
X019824Y019747D01*
X020220Y019650D02*
X020316Y019747D01*
X020316Y019457D01*
X020220Y019457D02*
X020413Y019457D01*
X020809Y019505D02*
X020857Y019457D01*
X020954Y019457D01*
X021003Y019505D01*
X021003Y019699D01*
X020954Y019747D01*
X020857Y019747D01*
X020809Y019699D01*
X020809Y019505D01*
X021104Y019505D02*
X021152Y019457D01*
X021249Y019457D01*
X021297Y019505D01*
X021297Y019747D01*
X021398Y019747D02*
X021592Y019747D01*
X021495Y019747D02*
X021495Y019457D01*
X021104Y019505D02*
X021104Y019747D01*
X019336Y019747D02*
X019336Y019457D01*
X015219Y021660D02*
X015095Y021783D01*
X014849Y021783D01*
X014849Y021905D02*
X014849Y022090D01*
X014910Y022151D01*
X015034Y022151D01*
X015095Y022090D01*
X015095Y021905D01*
X015095Y022028D02*
X015219Y022151D01*
X015219Y022273D02*
X015219Y022520D01*
X015157Y022641D02*
X015219Y022703D01*
X015219Y022826D01*
X015157Y022888D01*
X015034Y022888D01*
X015034Y022765D01*
X014910Y022888D02*
X014849Y022826D01*
X014849Y022703D01*
X014910Y022641D01*
X015157Y022641D01*
X015034Y022396D02*
X015034Y022273D01*
X014849Y022273D02*
X015219Y022273D01*
X015219Y021905D02*
X014849Y021905D01*
X014849Y022273D02*
X014849Y022520D01*
X014910Y023010D02*
X014849Y023071D01*
X014849Y023195D01*
X014910Y023256D01*
X014972Y023256D01*
X015219Y023010D01*
X015219Y023256D01*
X014989Y024783D02*
X014989Y024832D01*
X015182Y025025D01*
X015182Y025074D01*
X014989Y025074D01*
X014888Y025074D02*
X014791Y025074D01*
X014839Y025074D02*
X014839Y024832D01*
X014791Y024783D01*
X014743Y024783D01*
X014694Y024832D01*
X014593Y024832D02*
X014545Y024783D01*
X014448Y024783D01*
X014400Y024832D01*
X014448Y024928D02*
X014400Y024977D01*
X014400Y025025D01*
X014448Y025074D01*
X014545Y025074D01*
X014593Y025025D01*
X014545Y024928D02*
X014593Y024880D01*
X014593Y024832D01*
X014545Y024928D02*
X014448Y024928D01*
X015219Y021660D02*
X015095Y021536D01*
X014849Y021536D01*
X012000Y018129D02*
X011903Y018129D01*
X011855Y018080D01*
X012000Y018129D02*
X012048Y018080D01*
X012048Y018032D01*
X011855Y017838D01*
X012048Y017838D01*
X011754Y017838D02*
X011560Y017838D01*
X011657Y017838D02*
X011657Y018129D01*
X011560Y018032D01*
X011459Y018129D02*
X011362Y018129D01*
X011411Y018129D02*
X011411Y017887D01*
X011362Y017838D01*
X011314Y017838D01*
X011266Y017887D01*
X011164Y017887D02*
X011116Y017838D01*
X011019Y017838D01*
X010971Y017887D01*
X011019Y017983D02*
X011116Y017983D01*
X011164Y017935D01*
X011164Y017887D01*
X011019Y017983D02*
X010971Y018032D01*
X010971Y018080D01*
X011019Y018129D01*
X011116Y018129D01*
X011164Y018080D01*
X021286Y026022D02*
X021335Y025973D01*
X021431Y025973D01*
X021480Y026022D01*
X021480Y026070D01*
X021431Y026118D01*
X021335Y026118D01*
X021286Y026167D01*
X021286Y026215D01*
X021335Y026264D01*
X021431Y026264D01*
X021480Y026215D01*
X021581Y026264D02*
X021581Y026070D01*
X021678Y025973D01*
X021774Y026070D01*
X021774Y026264D01*
X021876Y026167D02*
X021972Y026264D01*
X021972Y025973D01*
X021876Y025973D02*
X022069Y025973D01*
X023645Y025851D02*
X023645Y025754D01*
X023693Y025706D01*
X023887Y025706D01*
X023935Y025754D01*
X023935Y025851D01*
X023887Y025900D01*
X023790Y025900D01*
X023790Y025803D01*
X023693Y025900D02*
X023645Y025851D01*
X023645Y025605D02*
X023935Y025605D01*
X023790Y025605D02*
X023790Y025411D01*
X023887Y025310D02*
X023935Y025262D01*
X023935Y025165D01*
X023887Y025117D01*
X023693Y025117D01*
X023645Y025165D01*
X023645Y025262D01*
X023693Y025310D01*
X023645Y025411D02*
X023935Y025411D01*
X024304Y025460D02*
X024304Y025557D01*
X024352Y025605D01*
X024401Y025605D01*
X024449Y025557D01*
X024497Y025605D01*
X024546Y025605D01*
X024594Y025557D01*
X024594Y025460D01*
X024546Y025411D01*
X024449Y025508D02*
X024449Y025557D01*
X024304Y025460D02*
X024352Y025411D01*
X024304Y025310D02*
X024304Y025117D01*
X024304Y025214D02*
X024594Y025214D01*
X024963Y025484D02*
X024963Y025581D01*
X025012Y025629D01*
X025060Y025629D01*
X025108Y025581D01*
X025157Y025629D01*
X025205Y025629D01*
X025253Y025581D01*
X025253Y025484D01*
X025205Y025436D01*
X025108Y025533D02*
X025108Y025581D01*
X025012Y025436D02*
X024963Y025484D01*
X025205Y025731D02*
X025205Y025779D01*
X025253Y025779D01*
X025253Y025731D01*
X025205Y025731D01*
X025205Y025878D02*
X025253Y025926D01*
X025253Y026023D01*
X025205Y026071D01*
X025157Y026071D01*
X025108Y026023D01*
X025108Y025975D01*
X025108Y026023D02*
X025060Y026071D01*
X025012Y026071D01*
X024963Y026023D01*
X024963Y025926D01*
X025012Y025878D01*
X024963Y026173D02*
X025157Y026173D01*
X025253Y026269D01*
X025157Y026366D01*
X024963Y026366D01*
X024594Y026344D02*
X024304Y026344D01*
X024304Y026392D02*
X024304Y026295D01*
X024304Y026194D02*
X024497Y026194D01*
X024594Y026097D01*
X024497Y026001D01*
X024304Y026001D01*
X023983Y026001D02*
X023983Y026194D01*
X023935Y026295D02*
X023935Y026392D01*
X023935Y026344D02*
X023645Y026344D01*
X023645Y026392D02*
X023645Y026295D01*
X023645Y026492D02*
X023935Y026685D01*
X023645Y026685D01*
X023645Y026492D02*
X023935Y026492D01*
X024304Y026492D02*
X024594Y026685D01*
X024304Y026685D01*
X024304Y026492D02*
X024594Y026492D01*
X024594Y026392D02*
X024594Y026295D01*
X024643Y025900D02*
X024643Y025706D01*
X024686Y024737D02*
X024493Y024737D01*
X024493Y024447D01*
X024686Y024447D01*
X024787Y024495D02*
X024836Y024447D01*
X024932Y024447D01*
X024981Y024495D01*
X024981Y024592D01*
X024884Y024592D01*
X024787Y024689D02*
X024787Y024495D01*
X024787Y024689D02*
X024836Y024737D01*
X024932Y024737D01*
X024981Y024689D01*
X025082Y024689D02*
X025130Y024737D01*
X025227Y024737D01*
X025275Y024689D01*
X025275Y024641D01*
X025082Y024447D01*
X025275Y024447D01*
X025671Y024495D02*
X025720Y024447D01*
X025816Y024447D01*
X025865Y024495D01*
X025865Y024689D01*
X025816Y024737D01*
X025720Y024737D01*
X025671Y024689D01*
X025671Y024495D01*
X025966Y024495D02*
X026014Y024447D01*
X026111Y024447D01*
X026159Y024495D01*
X026159Y024737D01*
X026261Y024737D02*
X026454Y024737D01*
X026357Y024737D02*
X026357Y024447D01*
X025966Y024495D02*
X025966Y024737D01*
X025767Y025510D02*
X025767Y025703D01*
X025767Y025804D02*
X025622Y025804D01*
X025622Y025998D01*
X025622Y026099D02*
X025816Y026099D01*
X025913Y026196D01*
X025816Y026292D01*
X025622Y026292D01*
X025767Y025998D02*
X025864Y025998D01*
X025913Y025949D01*
X025913Y025853D01*
X025864Y025804D01*
X025767Y025804D02*
X025719Y025901D01*
X025719Y025949D01*
X025767Y025998D01*
X025671Y025606D02*
X025864Y025606D01*
X024589Y024592D02*
X024493Y024592D01*
X024391Y024592D02*
X024343Y024544D01*
X024198Y024544D01*
X024295Y024544D02*
X024391Y024447D01*
X024391Y024592D02*
X024391Y024689D01*
X024343Y024737D01*
X024198Y024737D01*
X024198Y024447D01*
X024097Y024544D02*
X024097Y024737D01*
X024097Y024544D02*
X024000Y024447D01*
X023903Y024544D01*
X023903Y024737D01*
X028703Y023057D02*
X028703Y022863D01*
X028751Y022815D01*
X028848Y022815D01*
X028897Y022863D01*
X028998Y022815D02*
X028998Y023105D01*
X028897Y023057D02*
X028848Y023105D01*
X028751Y023105D01*
X028703Y023057D01*
X028998Y022960D02*
X029191Y022960D01*
X029292Y023057D02*
X029341Y023105D01*
X029438Y023105D01*
X029486Y023057D01*
X029486Y022960D02*
X029389Y022960D01*
X029486Y022960D02*
X029486Y022863D01*
X029438Y022815D01*
X029341Y022815D01*
X029292Y022863D01*
X029292Y023057D01*
X029191Y023105D02*
X029191Y022815D01*
X029194Y022446D02*
X029388Y022156D01*
X029194Y022156D02*
X029388Y022446D01*
X029489Y022446D02*
X029682Y022446D01*
X029586Y022446D02*
X029586Y022156D01*
X029783Y022107D02*
X029977Y022107D01*
X030078Y022156D02*
X030175Y022156D01*
X030126Y022156D02*
X030126Y022446D01*
X030078Y022446D02*
X030175Y022446D01*
X030275Y022446D02*
X030468Y022156D01*
X030468Y022446D01*
X030275Y022446D02*
X030275Y022156D01*
X030373Y021785D02*
X030470Y021785D01*
X030421Y021785D02*
X030421Y021494D01*
X030373Y021494D02*
X030470Y021494D01*
X030569Y021494D02*
X030569Y021785D01*
X030763Y021494D01*
X030763Y021785D01*
X029977Y021736D02*
X029977Y021688D01*
X029783Y021494D01*
X029977Y021494D01*
X029977Y021736D02*
X029929Y021785D01*
X029832Y021785D01*
X029783Y021736D01*
X029682Y021736D02*
X029634Y021785D01*
X029537Y021785D01*
X029489Y021736D01*
X029489Y021543D01*
X029537Y021494D01*
X029634Y021494D01*
X029682Y021543D01*
X029682Y021639D01*
X029586Y021639D01*
X029388Y021494D02*
X029194Y021494D01*
X029194Y021785D01*
X029388Y021785D01*
X029291Y021639D02*
X029194Y021639D01*
X029093Y021639D02*
X029045Y021591D01*
X028900Y021591D01*
X028996Y021591D02*
X029093Y021494D01*
X029093Y021639D02*
X029093Y021736D01*
X029045Y021785D01*
X028900Y021785D01*
X028900Y021494D01*
X028798Y021591D02*
X028798Y021785D01*
X028605Y021785D02*
X028605Y021591D01*
X028702Y021494D01*
X028798Y021591D01*
X028900Y022156D02*
X029093Y022156D01*
X028996Y022301D02*
X028900Y022301D01*
X028900Y022446D02*
X028900Y022156D01*
X028900Y022446D02*
X029093Y022446D01*
X029587Y022766D02*
X029781Y022766D01*
X029882Y022863D02*
X029930Y022815D01*
X030027Y022815D01*
X030075Y022863D01*
X030075Y023057D01*
X030027Y023105D01*
X029930Y023105D01*
X029882Y023057D01*
X029882Y022863D01*
X030176Y022863D02*
X030176Y023105D01*
X030370Y023105D02*
X030370Y022863D01*
X030321Y022815D01*
X030225Y022815D01*
X030176Y022863D01*
X030471Y023105D02*
X030664Y023105D01*
X030568Y023105D02*
X030568Y022815D01*
X030052Y023474D02*
X030149Y023571D01*
X030149Y023764D01*
X029955Y023764D02*
X029955Y023571D01*
X030052Y023474D01*
X029854Y023522D02*
X029806Y023474D01*
X029709Y023474D01*
X029661Y023522D01*
X029562Y023522D02*
X029562Y023474D01*
X029513Y023474D01*
X029513Y023522D01*
X029562Y023522D01*
X029412Y023522D02*
X029364Y023474D01*
X029267Y023474D01*
X029219Y023522D01*
X029315Y023619D02*
X029364Y023619D01*
X029412Y023571D01*
X029412Y023522D01*
X029364Y023619D02*
X029412Y023667D01*
X029412Y023716D01*
X029364Y023764D01*
X029267Y023764D01*
X029219Y023716D01*
X029661Y023716D02*
X029709Y023764D01*
X029806Y023764D01*
X029854Y023716D01*
X029854Y023667D01*
X029806Y023619D01*
X029854Y023571D01*
X029854Y023522D01*
X029806Y023619D02*
X029757Y023619D01*
X029732Y024133D02*
X029635Y024133D01*
X029587Y024182D01*
X029587Y024278D02*
X029684Y024327D01*
X029732Y024327D01*
X029781Y024278D01*
X029781Y024182D01*
X029732Y024133D01*
X029882Y024230D02*
X029978Y024133D01*
X030075Y024230D01*
X030075Y024423D01*
X029882Y024423D02*
X029882Y024230D01*
X029781Y024423D02*
X029587Y024423D01*
X029587Y024278D01*
X029486Y024278D02*
X029292Y024278D01*
X029389Y024182D02*
X029389Y024375D01*
X032257Y021229D02*
X032208Y021181D01*
X032208Y021132D01*
X032257Y021084D01*
X032353Y021084D01*
X032402Y021035D01*
X032402Y020987D01*
X032353Y020939D01*
X032257Y020939D01*
X032208Y020987D01*
X032257Y020749D02*
X032354Y020749D01*
X032306Y020749D02*
X032306Y020459D01*
X032354Y020459D02*
X032257Y020459D01*
X032156Y020459D02*
X032156Y020749D01*
X032156Y020604D02*
X031963Y020604D01*
X031861Y020701D02*
X031813Y020749D01*
X031716Y020749D01*
X031668Y020701D01*
X031668Y020507D01*
X031716Y020459D01*
X031813Y020459D01*
X031861Y020507D01*
X031963Y020459D02*
X031963Y020749D01*
X032454Y020749D02*
X032454Y020459D01*
X032454Y020555D02*
X032599Y020555D01*
X032647Y020604D01*
X032647Y020701D01*
X032599Y020749D01*
X032454Y020749D01*
X032503Y020939D02*
X032648Y020939D01*
X032696Y020987D01*
X032696Y021181D01*
X032648Y021229D01*
X032503Y021229D01*
X032503Y020939D01*
X032402Y021181D02*
X032353Y021229D01*
X032257Y021229D01*
X033092Y021181D02*
X033092Y020987D01*
X033141Y020939D01*
X033237Y020939D01*
X033286Y020987D01*
X033387Y020939D02*
X033387Y021132D01*
X033484Y021229D01*
X033580Y021132D01*
X033580Y020939D01*
X033681Y020939D02*
X033681Y021229D01*
X033827Y021229D01*
X033875Y021181D01*
X033875Y021084D01*
X033827Y021035D01*
X033681Y021035D01*
X033778Y021035D02*
X033875Y020939D01*
X033976Y020939D02*
X034121Y020939D01*
X034170Y020987D01*
X034170Y021181D01*
X034121Y021229D01*
X033976Y021229D01*
X033976Y020939D01*
X033927Y020749D02*
X033927Y020459D01*
X034120Y020459D01*
X034222Y020507D02*
X034270Y020459D01*
X034367Y020459D01*
X034415Y020507D01*
X034222Y020507D02*
X034222Y020701D01*
X034270Y020749D01*
X034367Y020749D01*
X034415Y020701D01*
X034516Y020749D02*
X034710Y020749D01*
X034613Y020749D02*
X034613Y020459D01*
X034120Y020749D02*
X033927Y020749D01*
X033927Y020604D02*
X034024Y020604D01*
X033826Y020459D02*
X033632Y020459D01*
X033632Y020749D01*
X033531Y020749D02*
X033338Y020749D01*
X033338Y020459D01*
X033531Y020459D01*
X033434Y020604D02*
X033338Y020604D01*
X033237Y020555D02*
X033237Y020507D01*
X033188Y020459D01*
X033091Y020459D01*
X033043Y020507D01*
X033091Y020604D02*
X033188Y020604D01*
X033237Y020555D01*
X033237Y020701D02*
X033188Y020749D01*
X033091Y020749D01*
X033043Y020701D01*
X033043Y020652D01*
X033091Y020604D01*
X033387Y021084D02*
X033580Y021084D01*
X033286Y021181D02*
X033237Y021229D01*
X033141Y021229D01*
X033092Y021181D01*
X034152Y019981D02*
X034104Y019932D01*
X034104Y019884D01*
X034152Y019836D01*
X034249Y019836D01*
X034298Y019787D01*
X034298Y019739D01*
X034249Y019691D01*
X034152Y019691D01*
X034104Y019739D01*
X034152Y019981D02*
X034249Y019981D01*
X034298Y019932D01*
X034495Y019981D02*
X034592Y019981D01*
X034544Y019981D02*
X034544Y019739D01*
X034495Y019691D01*
X034447Y019691D01*
X034399Y019739D01*
X034693Y019836D02*
X034887Y019836D01*
X034838Y019981D02*
X034693Y019836D01*
X034838Y019691D02*
X034838Y019981D01*
X037375Y019300D02*
X037375Y019252D01*
X037423Y019203D01*
X037520Y019203D01*
X037568Y019155D01*
X037568Y019107D01*
X037520Y019058D01*
X037423Y019058D01*
X037375Y019107D01*
X037375Y019300D02*
X037423Y019349D01*
X037520Y019349D01*
X037568Y019300D01*
X037766Y019349D02*
X037863Y019349D01*
X037814Y019349D02*
X037814Y019107D01*
X037766Y019058D01*
X037718Y019058D01*
X037669Y019107D01*
X037964Y019107D02*
X038012Y019058D01*
X038109Y019058D01*
X038157Y019107D01*
X038157Y019155D01*
X038109Y019203D01*
X038061Y019203D01*
X038109Y019203D02*
X038157Y019252D01*
X038157Y019300D01*
X038109Y019349D01*
X038012Y019349D01*
X037964Y019300D01*
X040168Y019789D02*
X040216Y019741D01*
X040313Y019741D01*
X040362Y019789D01*
X040463Y019741D02*
X040463Y019934D01*
X040560Y020031D01*
X040656Y019934D01*
X040656Y019741D01*
X040757Y019741D02*
X040757Y020031D01*
X040903Y020031D01*
X040951Y019982D01*
X040951Y019886D01*
X040903Y019837D01*
X040757Y019837D01*
X040854Y019837D02*
X040951Y019741D01*
X041052Y019741D02*
X041197Y019741D01*
X041246Y019789D01*
X041246Y019982D01*
X041197Y020031D01*
X041052Y020031D01*
X041052Y019741D01*
X040656Y019886D02*
X040463Y019886D01*
X040362Y019982D02*
X040313Y020031D01*
X040216Y020031D01*
X040168Y019982D01*
X040168Y019789D01*
X040757Y020269D02*
X040806Y020221D01*
X040903Y020221D01*
X040951Y020269D01*
X040951Y020317D01*
X040903Y020366D01*
X040806Y020366D01*
X040757Y020414D01*
X040757Y020462D01*
X040806Y020511D01*
X040903Y020511D01*
X040951Y020462D01*
X041052Y020511D02*
X041052Y020221D01*
X041197Y020221D01*
X041246Y020269D01*
X041246Y020462D01*
X041197Y020511D01*
X041052Y020511D01*
X041641Y020462D02*
X041641Y020269D01*
X041690Y020221D01*
X041786Y020221D01*
X041835Y020269D01*
X041936Y020221D02*
X041936Y020414D01*
X042033Y020511D01*
X042130Y020414D01*
X042130Y020221D01*
X042231Y020221D02*
X042231Y020511D01*
X042376Y020511D01*
X042424Y020462D01*
X042424Y020366D01*
X042376Y020317D01*
X042231Y020317D01*
X042327Y020317D02*
X042424Y020221D01*
X042525Y020221D02*
X042670Y020221D01*
X042719Y020269D01*
X042719Y020462D01*
X042670Y020511D01*
X042525Y020511D01*
X042525Y020221D01*
X042525Y020031D02*
X042525Y019741D01*
X042719Y019741D01*
X042820Y019789D02*
X042868Y019741D01*
X042965Y019741D01*
X043013Y019789D01*
X042820Y019789D02*
X042820Y019982D01*
X042868Y020031D01*
X042965Y020031D01*
X043013Y019982D01*
X043115Y020031D02*
X043308Y020031D01*
X043211Y020031D02*
X043211Y019741D01*
X042719Y020031D02*
X042525Y020031D01*
X042424Y019982D02*
X042376Y020031D01*
X042231Y020031D01*
X042231Y019741D01*
X042376Y019741D01*
X042424Y019789D01*
X042424Y019982D01*
X042525Y019886D02*
X042622Y019886D01*
X042130Y020031D02*
X041936Y020031D01*
X041936Y019741D01*
X042130Y019741D01*
X042033Y019886D02*
X041936Y019886D01*
X041835Y019982D02*
X041786Y020031D01*
X041641Y020031D01*
X041641Y019741D01*
X041786Y019741D01*
X041835Y019789D01*
X041835Y019982D01*
X041936Y020366D02*
X042130Y020366D01*
X041835Y020462D02*
X041786Y020511D01*
X041690Y020511D01*
X041641Y020462D01*
X038620Y021507D02*
X038571Y021458D01*
X038620Y021507D02*
X038620Y021603D01*
X038571Y021652D01*
X038523Y021652D01*
X038474Y021603D01*
X038474Y021507D01*
X038426Y021458D01*
X038378Y021458D01*
X038329Y021507D01*
X038329Y021603D01*
X038378Y021652D01*
X038329Y021850D02*
X038329Y021946D01*
X038329Y021898D02*
X038571Y021898D01*
X038620Y021850D01*
X038620Y021801D01*
X038571Y021753D01*
X038571Y022048D02*
X038523Y022048D01*
X038474Y022096D01*
X038474Y022193D01*
X038523Y022241D01*
X038571Y022241D01*
X038620Y022193D01*
X038620Y022096D01*
X038571Y022048D01*
X038474Y022096D02*
X038426Y022048D01*
X038378Y022048D01*
X038329Y022096D01*
X038329Y022193D01*
X038378Y022241D01*
X038426Y022241D01*
X038474Y022193D01*
X031655Y029082D02*
X031606Y029033D01*
X031655Y029082D02*
X031655Y029178D01*
X031606Y029227D01*
X031558Y029227D01*
X031509Y029178D01*
X031509Y029082D01*
X031461Y029033D01*
X031413Y029033D01*
X031364Y029082D01*
X031364Y029178D01*
X031413Y029227D01*
X031364Y029328D02*
X031364Y029473D01*
X031413Y029521D01*
X031606Y029521D01*
X031655Y029473D01*
X031655Y029328D01*
X031364Y029328D01*
X031413Y029623D02*
X031606Y029623D01*
X031655Y029671D01*
X031655Y029768D01*
X031606Y029816D01*
X031413Y029816D02*
X031364Y029768D01*
X031364Y029671D01*
X031413Y029623D01*
X030405Y029671D02*
X030356Y029623D01*
X030405Y029671D02*
X030405Y029768D01*
X030356Y029816D01*
X030308Y029816D01*
X030259Y029768D01*
X030259Y029671D01*
X030211Y029623D01*
X030163Y029623D01*
X030114Y029671D01*
X030114Y029768D01*
X030163Y029816D01*
X030114Y029917D02*
X030114Y030014D01*
X030114Y029966D02*
X030405Y029966D01*
X030405Y030014D02*
X030405Y029917D01*
X030356Y029521D02*
X030405Y029473D01*
X030405Y029376D01*
X030356Y029328D01*
X030259Y029376D02*
X030259Y029473D01*
X030308Y029521D01*
X030356Y029521D01*
X030259Y029376D02*
X030211Y029328D01*
X030163Y029328D01*
X030114Y029376D01*
X030114Y029473D01*
X030163Y029521D01*
X030163Y029227D02*
X030114Y029178D01*
X030114Y029033D01*
X030405Y029033D01*
X030308Y029033D02*
X030308Y029178D01*
X030259Y029227D01*
X030163Y029227D01*
X030308Y029130D02*
X030405Y029227D01*
X029655Y029376D02*
X029606Y029328D01*
X029655Y029376D02*
X029655Y029473D01*
X029606Y029521D01*
X029558Y029521D01*
X029509Y029473D01*
X029509Y029376D01*
X029461Y029328D01*
X029413Y029328D01*
X029364Y029376D01*
X029364Y029473D01*
X029413Y029521D01*
X029364Y029623D02*
X029655Y029623D01*
X029655Y029816D01*
X029655Y029917D02*
X029364Y029917D01*
X029364Y030062D01*
X029413Y030111D01*
X029509Y030111D01*
X029558Y030062D01*
X029558Y029917D01*
X028895Y029907D02*
X028895Y029997D01*
X028849Y030042D01*
X028669Y030042D01*
X028624Y029997D01*
X028624Y029907D01*
X028669Y029862D01*
X028849Y029862D01*
X028895Y029907D01*
X028849Y029766D02*
X028895Y029721D01*
X028895Y029631D01*
X028849Y029586D01*
X028849Y029490D02*
X028895Y029445D01*
X028895Y029355D01*
X028849Y029310D01*
X028759Y029355D02*
X028759Y029445D01*
X028804Y029490D01*
X028849Y029490D01*
X028759Y029355D02*
X028714Y029310D01*
X028669Y029310D01*
X028624Y029355D01*
X028624Y029445D01*
X028669Y029490D01*
X028669Y029586D02*
X028714Y029586D01*
X028759Y029631D01*
X028759Y029721D01*
X028804Y029766D01*
X028849Y029766D01*
X028669Y029766D02*
X028624Y029721D01*
X028624Y029631D01*
X028669Y029586D01*
X028714Y029213D02*
X028895Y029213D01*
X028759Y029213D02*
X028759Y029033D01*
X028714Y029033D02*
X028624Y029123D01*
X028714Y029213D01*
X028714Y029033D02*
X028895Y029033D01*
X029364Y029227D02*
X029655Y029033D01*
X028849Y030138D02*
X028669Y030138D01*
X028624Y030183D01*
X028624Y030273D01*
X028669Y030318D01*
X028849Y030318D02*
X028895Y030273D01*
X028895Y030183D01*
X028849Y030138D01*
X024375Y019629D02*
X024278Y019629D01*
X024230Y019580D01*
X024129Y019629D02*
X024129Y019435D01*
X024032Y019338D01*
X023935Y019435D01*
X023935Y019629D01*
X023834Y019580D02*
X023786Y019629D01*
X023689Y019629D01*
X023641Y019580D01*
X023641Y019532D01*
X023689Y019483D01*
X023786Y019483D01*
X023834Y019435D01*
X023834Y019387D01*
X023786Y019338D01*
X023689Y019338D01*
X023641Y019387D01*
X024230Y019387D02*
X024278Y019338D01*
X024375Y019338D01*
X024423Y019387D01*
X024423Y019435D01*
X024375Y019483D01*
X024327Y019483D01*
X024375Y019483D02*
X024423Y019532D01*
X024423Y019580D01*
X024375Y019629D01*
X010835Y028590D02*
X010641Y028590D01*
X010544Y028686D01*
X010641Y028783D01*
X010835Y028783D01*
X010835Y028884D02*
X010544Y028884D01*
X010544Y029029D01*
X010593Y029078D01*
X010689Y029078D01*
X010738Y029029D01*
X010738Y028884D01*
X010738Y028981D02*
X010835Y029078D01*
X010835Y029179D02*
X010835Y029373D01*
X010835Y029474D02*
X010544Y029474D01*
X010544Y029667D01*
X010689Y029570D02*
X010689Y029474D01*
X010544Y029373D02*
X010544Y029179D01*
X010835Y029179D01*
X010689Y029179D02*
X010689Y029276D01*
X010689Y028783D02*
X010689Y028590D01*
X015966Y007814D02*
X015917Y007766D01*
X015917Y007669D01*
X015966Y007621D01*
X016014Y007621D01*
X016063Y007669D01*
X016063Y007814D01*
X016159Y007814D02*
X015966Y007814D01*
X016159Y007814D02*
X016208Y007766D01*
X016208Y007669D01*
X016159Y007621D01*
X016208Y007520D02*
X016208Y007326D01*
X016014Y007520D01*
X015966Y007520D01*
X015917Y007471D01*
X015917Y007375D01*
X015966Y007326D01*
X015966Y007225D02*
X016063Y007225D01*
X016111Y007177D01*
X016111Y007032D01*
X016111Y007128D02*
X016208Y007225D01*
X016208Y007032D02*
X015917Y007032D01*
X015917Y007177D01*
X015966Y007225D01*
X015481Y005896D02*
X015288Y005896D01*
X015288Y005606D01*
X015481Y005606D01*
X015384Y005751D02*
X015288Y005751D01*
X015187Y005606D02*
X015187Y005896D01*
X014993Y005896D02*
X015187Y005606D01*
X014993Y005606D02*
X014993Y005896D01*
X014892Y005848D02*
X014843Y005896D01*
X014747Y005896D01*
X014698Y005848D01*
X014698Y005654D01*
X014747Y005606D01*
X014843Y005606D01*
X014892Y005654D01*
X014892Y005848D01*
X014597Y005848D02*
X014597Y005654D01*
X014549Y005606D01*
X014404Y005606D01*
X014404Y005896D01*
X014549Y005896D01*
X014597Y005848D01*
X013434Y005848D02*
X013386Y005896D01*
X013289Y005896D01*
X013240Y005848D01*
X013240Y005654D01*
X013289Y005606D01*
X013386Y005606D01*
X013434Y005654D01*
X013434Y005751D01*
X013337Y005751D01*
X013139Y005751D02*
X013091Y005703D01*
X012946Y005703D01*
X013043Y005703D02*
X013139Y005606D01*
X013139Y005751D02*
X013139Y005848D01*
X013091Y005896D01*
X012946Y005896D01*
X012946Y005606D01*
X012845Y005606D02*
X012845Y005896D01*
X012845Y005751D02*
X012651Y005751D01*
X012550Y005654D02*
X012502Y005606D01*
X012405Y005606D01*
X012356Y005654D01*
X012356Y005848D01*
X012405Y005896D01*
X012502Y005896D01*
X012550Y005848D01*
X012651Y005896D02*
X012651Y005606D01*
X020193Y006345D02*
X020193Y006635D01*
X020338Y006635D01*
X020386Y006587D01*
X020386Y006490D01*
X020338Y006441D01*
X020193Y006441D01*
X020289Y006441D02*
X020386Y006345D01*
X020487Y006345D02*
X020681Y006538D01*
X020681Y006587D01*
X020632Y006635D01*
X020536Y006635D01*
X020487Y006587D01*
X020487Y006345D02*
X020681Y006345D01*
X020782Y006393D02*
X020830Y006345D01*
X020927Y006345D01*
X020976Y006393D01*
X020976Y006490D01*
X020927Y006538D01*
X020879Y006538D01*
X020782Y006490D01*
X020782Y006635D01*
X020976Y006635D01*
D13*
X021188Y007215D02*
X021188Y007715D01*
X021438Y007715D01*
X021521Y007632D01*
X021521Y007465D01*
X021438Y007381D01*
X021188Y007381D01*
X021703Y007381D02*
X021953Y007381D01*
X022037Y007465D01*
X022037Y007632D01*
X021953Y007715D01*
X021703Y007715D01*
X021703Y007215D01*
X021870Y007381D02*
X022037Y007215D01*
X022219Y007298D02*
X022219Y007632D01*
X022302Y007715D01*
X022469Y007715D01*
X022552Y007632D01*
X022552Y007298D01*
X022469Y007215D01*
X022302Y007215D01*
X022219Y007298D01*
X022734Y007298D02*
X022734Y007632D01*
X022818Y007715D01*
X022985Y007715D01*
X023068Y007632D01*
X023068Y007465D02*
X022901Y007465D01*
X023068Y007465D02*
X023068Y007298D01*
X022985Y007215D01*
X022818Y007215D01*
X022734Y007298D01*
X023250Y007215D02*
X023250Y007715D01*
X023500Y007715D01*
X023584Y007632D01*
X023584Y007465D01*
X023500Y007381D01*
X023250Y007381D01*
X023417Y007381D02*
X023584Y007215D01*
X023766Y007215D02*
X023766Y007548D01*
X023933Y007715D01*
X024099Y007548D01*
X024099Y007215D01*
X024281Y007215D02*
X024281Y007715D01*
X024448Y007548D01*
X024615Y007715D01*
X024615Y007215D01*
X024099Y007465D02*
X023766Y007465D01*
X019985Y007715D02*
X019652Y007715D01*
X019818Y007715D02*
X019818Y007215D01*
X019470Y007215D02*
X019136Y007215D01*
X019136Y007715D01*
X019470Y007715D01*
X019303Y007465D02*
X019136Y007465D01*
X018954Y007381D02*
X018954Y007298D01*
X018870Y007215D01*
X018704Y007215D01*
X018620Y007298D01*
X018704Y007465D02*
X018870Y007465D01*
X018954Y007381D01*
X018954Y007632D02*
X018870Y007715D01*
X018704Y007715D01*
X018620Y007632D01*
X018620Y007548D01*
X018704Y007465D01*
X018438Y007715D02*
X018105Y007715D01*
X018105Y007215D01*
X018438Y007215D01*
X018271Y007465D02*
X018105Y007465D01*
X017923Y007465D02*
X017839Y007381D01*
X017589Y007381D01*
X017589Y007215D02*
X017589Y007715D01*
X017839Y007715D01*
X017923Y007632D01*
X017923Y007465D01*
X017756Y007381D02*
X017923Y007215D01*
X011368Y011526D02*
X011368Y011600D01*
X011294Y011673D01*
X010927Y011673D01*
X010927Y011600D02*
X010927Y011746D01*
X011074Y011913D02*
X010927Y012060D01*
X011368Y012060D01*
X011368Y011913D02*
X011368Y012207D01*
X011368Y011526D02*
X011294Y011453D01*
X017260Y019893D02*
X017010Y020143D01*
X017010Y020643D01*
X017260Y020893D01*
X018760Y020893D01*
X019010Y021143D01*
X019010Y021643D01*
X018760Y021893D01*
X017260Y021893D01*
X017010Y022143D01*
X017010Y022643D01*
X017260Y022893D01*
X017010Y023143D01*
X017010Y023643D01*
X017260Y023893D01*
X018760Y023893D01*
X019010Y023643D01*
X019010Y023143D01*
X018760Y022893D01*
X017260Y022893D01*
X017260Y021893D02*
X017010Y021643D01*
X017010Y021143D01*
X017260Y020893D01*
X017260Y019893D02*
X018760Y019893D01*
X019010Y020143D01*
X019010Y020643D01*
X018760Y020893D01*
X018760Y021893D02*
X019010Y022143D01*
X019010Y022643D01*
X018760Y022893D01*
X019510Y023643D02*
X020010Y023643D01*
X020260Y023893D01*
X020260Y025393D01*
X020510Y025643D01*
X021010Y025643D01*
X021260Y025393D01*
X021260Y023893D01*
X021510Y023643D01*
X022010Y023643D01*
X022260Y023893D01*
X022510Y023643D01*
X023010Y023643D01*
X023260Y023893D01*
X023260Y025393D01*
X023010Y025643D01*
X022510Y025643D01*
X022260Y025393D01*
X022260Y023893D01*
X021260Y023893D02*
X021010Y023643D01*
X020510Y023643D01*
X020260Y023893D01*
X019510Y023643D02*
X019260Y023893D01*
X019260Y025393D01*
X019510Y025643D01*
X020010Y025643D01*
X020260Y025393D01*
X021260Y025393D02*
X021510Y025643D01*
X022010Y025643D01*
X022260Y025393D01*
X023760Y023893D02*
X025260Y023893D01*
X025510Y023643D01*
X025510Y023143D01*
X025260Y022893D01*
X023760Y022893D01*
X023510Y023143D01*
X023510Y023643D01*
X023760Y023893D01*
X023760Y022893D02*
X023510Y022643D01*
X023510Y022143D01*
X023760Y021893D01*
X025260Y021893D01*
X025510Y022143D01*
X025510Y022643D01*
X025260Y022893D01*
X025260Y021893D02*
X025510Y021643D01*
X025510Y021143D01*
X025260Y020893D01*
X023760Y020893D01*
X023510Y021143D01*
X023510Y021643D01*
X023760Y021893D01*
X023760Y020893D02*
X023510Y020643D01*
X023510Y020143D01*
X023760Y019893D01*
X025260Y019893D01*
X025510Y020143D01*
X025510Y020643D01*
X025260Y020893D01*
X025510Y020393D02*
X025510Y019393D01*
X025760Y019143D02*
X025760Y018643D01*
X026010Y018393D01*
X025760Y018143D01*
X025760Y017643D01*
X026010Y017393D01*
X027510Y017393D01*
X027760Y017643D01*
X027760Y018143D01*
X027510Y018393D01*
X026010Y018393D01*
X025760Y019143D02*
X026010Y019393D01*
X027510Y019393D01*
X027760Y019143D01*
X027760Y018643D01*
X027510Y018393D01*
X027510Y019393D02*
X027760Y019643D01*
X027760Y020143D01*
X027510Y020393D01*
X026010Y020393D01*
X025760Y020143D01*
X025760Y019643D01*
X026010Y019393D01*
X032060Y019593D02*
X032060Y020193D01*
X032062Y020210D01*
X032066Y020227D01*
X032073Y020243D01*
X032083Y020257D01*
X032096Y020270D01*
X032110Y020280D01*
X032126Y020287D01*
X032143Y020291D01*
X032160Y020293D01*
X033860Y020293D01*
X033877Y020291D01*
X033894Y020287D01*
X033910Y020280D01*
X033924Y020270D01*
X033937Y020257D01*
X033947Y020243D01*
X033954Y020227D01*
X033958Y020210D01*
X033960Y020193D01*
X033960Y019593D01*
X033958Y019576D01*
X033954Y019559D01*
X033947Y019543D01*
X033937Y019529D01*
X033924Y019516D01*
X033910Y019506D01*
X033894Y019499D01*
X033877Y019495D01*
X033860Y019493D01*
X032160Y019493D01*
X032143Y019495D01*
X032126Y019499D01*
X032110Y019506D01*
X032096Y019516D01*
X032083Y019529D01*
X032073Y019543D01*
X032066Y019559D01*
X032062Y019576D01*
X032060Y019593D01*
X036810Y019593D02*
X036810Y020193D01*
X036812Y020210D01*
X036816Y020227D01*
X036823Y020243D01*
X036833Y020257D01*
X036846Y020270D01*
X036860Y020280D01*
X036876Y020287D01*
X036893Y020291D01*
X036910Y020293D01*
X038610Y020293D01*
X038627Y020291D01*
X038644Y020287D01*
X038660Y020280D01*
X038674Y020270D01*
X038687Y020257D01*
X038697Y020243D01*
X038704Y020227D01*
X038708Y020210D01*
X038710Y020193D01*
X038710Y019593D01*
X038708Y019576D01*
X038704Y019559D01*
X038697Y019543D01*
X038687Y019529D01*
X038674Y019516D01*
X038660Y019506D01*
X038644Y019499D01*
X038627Y019495D01*
X038610Y019493D01*
X036910Y019493D01*
X036893Y019495D01*
X036876Y019499D01*
X036860Y019506D01*
X036846Y019516D01*
X036833Y019529D01*
X036823Y019543D01*
X036816Y019559D01*
X036812Y019576D01*
X036810Y019593D01*
X037460Y020943D02*
X038060Y020943D01*
X038077Y020945D01*
X038094Y020949D01*
X038110Y020956D01*
X038124Y020966D01*
X038137Y020979D01*
X038147Y020993D01*
X038154Y021009D01*
X038158Y021026D01*
X038160Y021043D01*
X038160Y022743D01*
X038158Y022760D01*
X038154Y022777D01*
X038147Y022793D01*
X038137Y022807D01*
X038124Y022820D01*
X038110Y022830D01*
X038094Y022837D01*
X038077Y022841D01*
X038060Y022843D01*
X037460Y022843D01*
X037443Y022841D01*
X037426Y022837D01*
X037410Y022830D01*
X037396Y022820D01*
X037383Y022807D01*
X037373Y022793D01*
X037366Y022777D01*
X037362Y022760D01*
X037360Y022743D01*
X037360Y021043D01*
X037362Y021026D01*
X037366Y021009D01*
X037373Y020993D01*
X037383Y020979D01*
X037396Y020966D01*
X037410Y020956D01*
X037426Y020949D01*
X037443Y020945D01*
X037460Y020943D01*
X037510Y008643D02*
X037260Y008393D01*
X037260Y007893D01*
X037010Y007643D01*
X036510Y007643D01*
X036260Y007893D01*
X036010Y007643D01*
X035510Y007643D01*
X035260Y007893D01*
X035010Y007643D01*
X034510Y007643D01*
X034260Y007893D01*
X034010Y007643D01*
X033510Y007643D01*
X033260Y007893D01*
X033010Y007643D01*
X032510Y007643D01*
X032260Y007893D01*
X032010Y007643D01*
X031510Y007643D01*
X031260Y007893D01*
X031010Y007643D01*
X030510Y007643D01*
X030260Y007893D01*
X030010Y007643D01*
X029510Y007643D01*
X029260Y007893D01*
X029260Y008393D01*
X029510Y008643D01*
X030010Y008643D01*
X030260Y008393D01*
X030510Y008643D01*
X031010Y008643D01*
X031260Y008393D01*
X031260Y007893D01*
X031510Y007643D02*
X031260Y007393D01*
X031260Y006893D01*
X031510Y006643D01*
X032010Y006643D01*
X032260Y006893D01*
X032260Y007393D01*
X032010Y007643D01*
X031510Y007643D01*
X031260Y007393D02*
X031010Y007643D01*
X030510Y007643D01*
X030260Y007393D01*
X030010Y007643D01*
X029510Y007643D01*
X029260Y007393D01*
X029260Y006893D01*
X029510Y006643D01*
X030010Y006643D01*
X030260Y006893D01*
X030260Y007393D01*
X030260Y007893D02*
X030260Y008393D01*
X031260Y008393D02*
X031510Y008643D01*
X032010Y008643D01*
X032260Y008393D01*
X032510Y008643D01*
X033010Y008643D01*
X033260Y008393D01*
X033510Y008643D01*
X034010Y008643D01*
X034260Y008393D01*
X034260Y007893D01*
X034510Y007643D02*
X035010Y007643D01*
X035260Y007393D01*
X035510Y007643D01*
X036010Y007643D01*
X036260Y007393D01*
X036510Y007643D01*
X037010Y007643D01*
X037260Y007393D01*
X037510Y007643D01*
X037260Y007893D01*
X037510Y007643D02*
X038010Y007643D01*
X038260Y007893D01*
X038510Y007643D01*
X039010Y007643D01*
X039260Y007893D01*
X039510Y007643D01*
X040010Y007643D01*
X040260Y007893D01*
X040260Y008393D01*
X040010Y008643D01*
X039510Y008643D01*
X039260Y008393D01*
X039260Y007893D01*
X039510Y007643D02*
X040010Y007643D01*
X040260Y007393D01*
X040510Y007643D01*
X040260Y007893D01*
X040510Y007643D02*
X041010Y007643D01*
X041260Y007893D01*
X041510Y007643D01*
X042010Y007643D01*
X042260Y007893D01*
X042260Y008393D01*
X042010Y008643D01*
X041510Y008643D01*
X041260Y008393D01*
X041260Y007893D01*
X041510Y007643D02*
X041260Y007393D01*
X041010Y007643D01*
X040510Y007643D01*
X040260Y007393D02*
X040260Y006893D01*
X040510Y006643D01*
X041010Y006643D01*
X041260Y006893D01*
X041260Y007393D01*
X041510Y007643D02*
X042010Y007643D01*
X042260Y007393D01*
X042260Y006893D01*
X042010Y006643D01*
X041510Y006643D01*
X041260Y006893D01*
X040260Y006893D02*
X040010Y006643D01*
X039510Y006643D01*
X039260Y006893D01*
X039010Y006643D01*
X038510Y006643D01*
X038260Y006893D01*
X038010Y006643D01*
X037510Y006643D01*
X037260Y006893D01*
X037260Y007393D01*
X037510Y007643D02*
X038010Y007643D01*
X038260Y007393D01*
X038510Y007643D01*
X039010Y007643D01*
X039260Y007393D01*
X039510Y007643D01*
X039260Y007393D02*
X039260Y006893D01*
X038260Y006893D02*
X038260Y007393D01*
X038260Y007893D02*
X038260Y008393D01*
X038510Y008643D01*
X039010Y008643D01*
X039260Y008393D01*
X040260Y008393D02*
X040510Y008643D01*
X041010Y008643D01*
X041260Y008393D01*
X038260Y008393D02*
X038010Y008643D01*
X037510Y008643D01*
X037260Y008393D02*
X037010Y008643D01*
X036510Y008643D01*
X036260Y008393D01*
X036260Y007893D01*
X036260Y007393D02*
X036260Y006893D01*
X036010Y006643D01*
X035510Y006643D01*
X035260Y006893D01*
X035010Y006643D01*
X034510Y006643D01*
X034260Y006893D01*
X034260Y007393D01*
X034510Y007643D01*
X034260Y007393D02*
X034010Y007643D01*
X033510Y007643D01*
X033260Y007393D01*
X033010Y007643D01*
X032510Y007643D01*
X032260Y007393D01*
X032260Y007893D02*
X032260Y008393D01*
X033260Y008393D02*
X033260Y007893D01*
X033260Y007393D02*
X033260Y006893D01*
X033010Y006643D01*
X032510Y006643D01*
X032260Y006893D01*
X033260Y006893D02*
X033510Y006643D01*
X034010Y006643D01*
X034260Y006893D01*
X035260Y006893D02*
X035260Y007393D01*
X035260Y007893D02*
X035260Y008393D01*
X035510Y008643D01*
X036010Y008643D01*
X036260Y008393D01*
X035260Y008393D02*
X035010Y008643D01*
X034510Y008643D01*
X034260Y008393D01*
X036260Y006893D02*
X036510Y006643D01*
X037010Y006643D01*
X037260Y006893D01*
X031260Y006893D02*
X031010Y006643D01*
X030510Y006643D01*
X030260Y006893D01*
D14*
X024387Y005742D02*
X024387Y005250D01*
X023403Y005250D01*
X023305Y005151D01*
X023305Y004954D01*
X023206Y004856D01*
X022813Y004856D01*
X022714Y004954D01*
X022714Y005151D01*
X022616Y005250D01*
X021632Y005250D01*
X021632Y005742D01*
X021828Y005939D01*
X021828Y006234D01*
X024191Y006234D01*
X024191Y005939D01*
X024387Y005742D01*
X023403Y005250D02*
X022616Y005250D01*
X020898Y006811D02*
X020398Y006811D01*
X020398Y007911D01*
X020898Y007911D01*
X020898Y006811D01*
X019941Y006234D02*
X019941Y005939D01*
X020137Y005742D01*
X020137Y005250D01*
X019153Y005250D01*
X019055Y005151D01*
X019055Y004954D01*
X018956Y004856D01*
X018563Y004856D01*
X018464Y004954D01*
X018464Y005151D01*
X018366Y005250D01*
X017382Y005250D01*
X017382Y005742D01*
X017578Y005939D01*
X017578Y006234D01*
X019941Y006234D01*
X019153Y005250D02*
X018366Y005250D01*
X016804Y006811D02*
X016304Y006811D01*
X016304Y007911D01*
X016804Y007911D01*
X016804Y006811D01*
X015228Y007204D02*
X015228Y006154D01*
X014728Y006154D01*
X014728Y007204D01*
X015228Y007204D01*
X014978Y006729D02*
X014903Y006679D01*
X015053Y006679D01*
X014978Y006729D01*
X014903Y006679D02*
X014828Y006629D01*
X015128Y006629D01*
X015053Y006679D01*
X015078Y006654D02*
X014878Y006654D01*
X014204Y006129D02*
X014204Y007229D01*
X013704Y007229D01*
X013704Y006129D01*
X014204Y006129D01*
X013181Y006154D02*
X012681Y006154D01*
X012681Y007204D01*
X013181Y007204D01*
X013181Y006154D01*
X013081Y006629D02*
X013006Y006679D01*
X012856Y006679D01*
X012781Y006629D01*
X013081Y006629D01*
X013031Y006654D02*
X012831Y006654D01*
X012856Y006679D02*
X012931Y006729D01*
X013006Y006679D01*
X011435Y007860D02*
X011435Y005498D01*
X008285Y005498D01*
X008285Y007860D01*
X008285Y008579D01*
X008521Y008579D01*
X008521Y007860D01*
X011198Y007860D01*
X011198Y008569D01*
X011435Y008569D01*
X011435Y007860D01*
X011198Y007860D01*
X011464Y008925D02*
X010814Y008925D01*
X010814Y010575D01*
X011464Y010575D01*
X011464Y008925D01*
X011139Y009725D02*
X011139Y009925D01*
X011039Y009825D02*
X011239Y009825D01*
X011998Y011423D02*
X011998Y011823D01*
X011998Y011923D02*
X011998Y012723D01*
X011898Y012573D01*
X011998Y012723D02*
X012098Y012573D01*
X011998Y012973D02*
X012048Y013023D01*
X011998Y013073D01*
X011948Y013023D01*
X011998Y012973D01*
X011998Y013073D01*
X011927Y013023D02*
X011929Y013039D01*
X011935Y013055D01*
X011944Y013069D01*
X011956Y013080D01*
X011970Y013088D01*
X011986Y013093D01*
X012002Y013094D01*
X012018Y013091D01*
X012033Y013084D01*
X012047Y013075D01*
X012057Y013062D01*
X012065Y013047D01*
X012069Y013031D01*
X012069Y013015D01*
X012065Y012999D01*
X012057Y012984D01*
X012047Y012971D01*
X012034Y012962D01*
X012018Y012955D01*
X012002Y012952D01*
X011986Y012953D01*
X011970Y012958D01*
X011956Y012966D01*
X011944Y012977D01*
X011935Y012991D01*
X011929Y013007D01*
X011927Y013023D01*
X011729Y013023D02*
X011731Y013055D01*
X011737Y013087D01*
X011746Y013118D01*
X011760Y013148D01*
X011777Y013176D01*
X011797Y013201D01*
X011820Y013224D01*
X011845Y013244D01*
X011873Y013261D01*
X011903Y013275D01*
X011934Y013284D01*
X011966Y013290D01*
X011998Y013292D01*
X012030Y013290D01*
X012062Y013284D01*
X012093Y013275D01*
X012123Y013261D01*
X012151Y013244D01*
X012176Y013224D01*
X012199Y013201D01*
X012219Y013176D01*
X012236Y013148D01*
X012250Y013118D01*
X012259Y013087D01*
X012265Y013055D01*
X012267Y013023D01*
X012265Y012991D01*
X012259Y012959D01*
X012250Y012928D01*
X012236Y012898D01*
X012219Y012870D01*
X012199Y012845D01*
X012176Y012822D01*
X012151Y012802D01*
X012123Y012785D01*
X012093Y012771D01*
X012062Y012762D01*
X012030Y012756D01*
X011998Y012754D01*
X011966Y012756D01*
X011934Y012762D01*
X011903Y012771D01*
X011873Y012785D01*
X011845Y012802D01*
X011820Y012822D01*
X011797Y012845D01*
X011777Y012870D01*
X011760Y012898D01*
X011746Y012928D01*
X011737Y012959D01*
X011731Y012991D01*
X011729Y013023D01*
X011927Y013023D02*
X011929Y013039D01*
X011935Y013055D01*
X011944Y013069D01*
X011956Y013080D01*
X011970Y013088D01*
X011986Y013093D01*
X012002Y013094D01*
X012018Y013091D01*
X012033Y013084D01*
X012047Y013075D01*
X012057Y013062D01*
X012065Y013047D01*
X012069Y013031D01*
X012069Y013015D01*
X012065Y012999D01*
X012057Y012984D01*
X012047Y012971D01*
X012034Y012962D01*
X012018Y012955D01*
X012002Y012952D01*
X011986Y012953D01*
X011970Y012958D01*
X011956Y012966D01*
X011944Y012977D01*
X011935Y012991D01*
X011929Y013007D01*
X011927Y013023D01*
X011729Y013023D02*
X011731Y013055D01*
X011737Y013087D01*
X011746Y013118D01*
X011760Y013148D01*
X011777Y013176D01*
X011797Y013201D01*
X011820Y013224D01*
X011845Y013244D01*
X011873Y013261D01*
X011903Y013275D01*
X011934Y013284D01*
X011966Y013290D01*
X011998Y013292D01*
X012030Y013290D01*
X012062Y013284D01*
X012093Y013275D01*
X012123Y013261D01*
X012151Y013244D01*
X012176Y013224D01*
X012199Y013201D01*
X012219Y013176D01*
X012236Y013148D01*
X012250Y013118D01*
X012259Y013087D01*
X012265Y013055D01*
X012267Y013023D01*
X012265Y012991D01*
X012259Y012959D01*
X012250Y012928D01*
X012236Y012898D01*
X012219Y012870D01*
X012199Y012845D01*
X012176Y012822D01*
X012151Y012802D01*
X012123Y012785D01*
X012093Y012771D01*
X012062Y012762D01*
X012030Y012756D01*
X011998Y012754D01*
X011966Y012756D01*
X011934Y012762D01*
X011903Y012771D01*
X011873Y012785D01*
X011845Y012802D01*
X011820Y012822D01*
X011797Y012845D01*
X011777Y012870D01*
X011760Y012898D01*
X011746Y012928D01*
X011737Y012959D01*
X011731Y012991D01*
X011729Y013023D01*
X011598Y012623D02*
X011566Y012657D01*
X011537Y012694D01*
X011512Y012733D01*
X011490Y012774D01*
X011471Y012817D01*
X011456Y012861D01*
X011444Y012907D01*
X011436Y012953D01*
X011432Y013000D01*
X011432Y013046D01*
X011436Y013093D01*
X011444Y013139D01*
X011456Y013185D01*
X011471Y013229D01*
X011490Y013272D01*
X011512Y013313D01*
X011537Y013352D01*
X011566Y013389D01*
X011598Y013423D01*
X011632Y013455D01*
X011669Y013484D01*
X011708Y013509D01*
X011749Y013531D01*
X011792Y013550D01*
X011836Y013565D01*
X011882Y013577D01*
X011928Y013585D01*
X011975Y013589D01*
X012021Y013589D01*
X012068Y013585D01*
X012114Y013577D01*
X012160Y013565D01*
X012204Y013550D01*
X012247Y013531D01*
X012288Y013509D01*
X012327Y013484D01*
X012364Y013455D01*
X012398Y013423D01*
X012430Y013389D01*
X012459Y013352D01*
X012484Y013313D01*
X012506Y013272D01*
X012525Y013229D01*
X012540Y013185D01*
X012552Y013139D01*
X012560Y013093D01*
X012564Y013046D01*
X012564Y013000D01*
X012560Y012953D01*
X012552Y012907D01*
X012540Y012861D01*
X012525Y012817D01*
X012506Y012774D01*
X012484Y012733D01*
X012459Y012694D01*
X012430Y012657D01*
X012398Y012623D01*
X012745Y012177D02*
X013845Y012177D01*
X013845Y014877D01*
X012745Y014877D01*
X012745Y012177D01*
X012198Y011623D02*
X011798Y011623D01*
X011706Y011623D02*
X011708Y011657D01*
X011714Y011690D01*
X011724Y011723D01*
X011737Y011754D01*
X011754Y011783D01*
X011774Y011811D01*
X011798Y011835D01*
X011824Y011857D01*
X011852Y011876D01*
X011882Y011891D01*
X011914Y011903D01*
X011947Y011911D01*
X011981Y011915D01*
X012015Y011915D01*
X012049Y011911D01*
X012082Y011903D01*
X012114Y011891D01*
X012144Y011876D01*
X012172Y011857D01*
X012198Y011835D01*
X012222Y011811D01*
X012242Y011783D01*
X012259Y011754D01*
X012272Y011723D01*
X012282Y011690D01*
X012288Y011657D01*
X012290Y011623D01*
X012288Y011589D01*
X012282Y011556D01*
X012272Y011523D01*
X012259Y011492D01*
X012242Y011463D01*
X012222Y011435D01*
X012198Y011411D01*
X012172Y011389D01*
X012144Y011370D01*
X012114Y011355D01*
X012082Y011343D01*
X012049Y011335D01*
X012015Y011331D01*
X011981Y011331D01*
X011947Y011335D01*
X011914Y011343D01*
X011882Y011355D01*
X011852Y011370D01*
X011824Y011389D01*
X011798Y011411D01*
X011774Y011435D01*
X011754Y011463D01*
X011737Y011492D01*
X011724Y011523D01*
X011714Y011556D01*
X011708Y011589D01*
X011706Y011623D01*
X011708Y011657D01*
X011714Y011690D01*
X011724Y011723D01*
X011737Y011754D01*
X011754Y011783D01*
X011774Y011811D01*
X011798Y011835D01*
X011824Y011857D01*
X011852Y011876D01*
X011882Y011891D01*
X011914Y011903D01*
X011947Y011911D01*
X011981Y011915D01*
X012015Y011915D01*
X012049Y011911D01*
X012082Y011903D01*
X012114Y011891D01*
X012144Y011876D01*
X012172Y011857D01*
X012198Y011835D01*
X012222Y011811D01*
X012242Y011783D01*
X012259Y011754D01*
X012272Y011723D01*
X012282Y011690D01*
X012288Y011657D01*
X012290Y011623D01*
X012288Y011589D01*
X012282Y011556D01*
X012272Y011523D01*
X012259Y011492D01*
X012242Y011463D01*
X012222Y011435D01*
X012198Y011411D01*
X012172Y011389D01*
X012144Y011370D01*
X012114Y011355D01*
X012082Y011343D01*
X012049Y011335D01*
X012015Y011331D01*
X011981Y011331D01*
X011947Y011335D01*
X011914Y011343D01*
X011882Y011355D01*
X011852Y011370D01*
X011824Y011389D01*
X011798Y011411D01*
X011774Y011435D01*
X011754Y011463D01*
X011737Y011492D01*
X011724Y011523D01*
X011714Y011556D01*
X011708Y011589D01*
X011706Y011623D01*
X010748Y011573D02*
X005248Y011573D01*
X005248Y014773D01*
X010748Y014773D01*
X010748Y011573D01*
X011598Y012623D02*
X011566Y012657D01*
X011537Y012694D01*
X011512Y012733D01*
X011490Y012774D01*
X011471Y012817D01*
X011456Y012861D01*
X011444Y012907D01*
X011436Y012953D01*
X011432Y013000D01*
X011432Y013046D01*
X011436Y013093D01*
X011444Y013139D01*
X011456Y013185D01*
X011471Y013229D01*
X011490Y013272D01*
X011512Y013313D01*
X011537Y013352D01*
X011566Y013389D01*
X011598Y013423D01*
X011632Y013455D01*
X011669Y013484D01*
X011708Y013509D01*
X011749Y013531D01*
X011792Y013550D01*
X011836Y013565D01*
X011882Y013577D01*
X011928Y013585D01*
X011975Y013589D01*
X012021Y013589D01*
X012068Y013585D01*
X012114Y013577D01*
X012160Y013565D01*
X012204Y013550D01*
X012247Y013531D01*
X012288Y013509D01*
X012327Y013484D01*
X012364Y013455D01*
X012398Y013423D01*
X012430Y013389D01*
X012459Y013352D01*
X012484Y013313D01*
X012506Y013272D01*
X012525Y013229D01*
X012540Y013185D01*
X012552Y013139D01*
X012560Y013093D01*
X012564Y013046D01*
X012564Y013000D01*
X012560Y012953D01*
X012552Y012907D01*
X012540Y012861D01*
X012525Y012817D01*
X012506Y012774D01*
X012484Y012733D01*
X012459Y012694D01*
X012430Y012657D01*
X012398Y012623D01*
X013045Y013377D02*
X013295Y013677D01*
X013545Y013377D01*
X013045Y013377D01*
X013054Y013388D02*
X013536Y013388D01*
X013495Y013437D02*
X013095Y013437D01*
X013135Y013485D02*
X013455Y013485D01*
X013414Y013534D02*
X013176Y013534D01*
X013216Y013582D02*
X013374Y013582D01*
X013334Y013631D02*
X013256Y013631D01*
X012098Y013773D02*
X011998Y013623D01*
X011898Y013773D01*
X011998Y013623D02*
X011998Y014523D01*
X011998Y014623D02*
X011998Y015023D01*
X011706Y014823D02*
X011708Y014857D01*
X011714Y014890D01*
X011724Y014923D01*
X011737Y014954D01*
X011754Y014983D01*
X011774Y015011D01*
X011798Y015035D01*
X011824Y015057D01*
X011852Y015076D01*
X011882Y015091D01*
X011914Y015103D01*
X011947Y015111D01*
X011981Y015115D01*
X012015Y015115D01*
X012049Y015111D01*
X012082Y015103D01*
X012114Y015091D01*
X012144Y015076D01*
X012172Y015057D01*
X012198Y015035D01*
X012222Y015011D01*
X012242Y014983D01*
X012259Y014954D01*
X012272Y014923D01*
X012282Y014890D01*
X012288Y014857D01*
X012290Y014823D01*
X012288Y014789D01*
X012282Y014756D01*
X012272Y014723D01*
X012259Y014692D01*
X012242Y014663D01*
X012222Y014635D01*
X012198Y014611D01*
X012172Y014589D01*
X012144Y014570D01*
X012114Y014555D01*
X012082Y014543D01*
X012049Y014535D01*
X012015Y014531D01*
X011981Y014531D01*
X011947Y014535D01*
X011914Y014543D01*
X011882Y014555D01*
X011852Y014570D01*
X011824Y014589D01*
X011798Y014611D01*
X011774Y014635D01*
X011754Y014663D01*
X011737Y014692D01*
X011724Y014723D01*
X011714Y014756D01*
X011708Y014789D01*
X011706Y014823D01*
X011708Y014857D01*
X011714Y014890D01*
X011724Y014923D01*
X011737Y014954D01*
X011754Y014983D01*
X011774Y015011D01*
X011798Y015035D01*
X011824Y015057D01*
X011852Y015076D01*
X011882Y015091D01*
X011914Y015103D01*
X011947Y015111D01*
X011981Y015115D01*
X012015Y015115D01*
X012049Y015111D01*
X012082Y015103D01*
X012114Y015091D01*
X012144Y015076D01*
X012172Y015057D01*
X012198Y015035D01*
X012222Y015011D01*
X012242Y014983D01*
X012259Y014954D01*
X012272Y014923D01*
X012282Y014890D01*
X012288Y014857D01*
X012290Y014823D01*
X012288Y014789D01*
X012282Y014756D01*
X012272Y014723D01*
X012259Y014692D01*
X012242Y014663D01*
X012222Y014635D01*
X012198Y014611D01*
X012172Y014589D01*
X012144Y014570D01*
X012114Y014555D01*
X012082Y014543D01*
X012049Y014535D01*
X012015Y014531D01*
X011981Y014531D01*
X011947Y014535D01*
X011914Y014543D01*
X011882Y014555D01*
X011852Y014570D01*
X011824Y014589D01*
X011798Y014611D01*
X011774Y014635D01*
X011754Y014663D01*
X011737Y014692D01*
X011724Y014723D01*
X011714Y014756D01*
X011708Y014789D01*
X011706Y014823D01*
X010610Y015003D02*
X009110Y015003D01*
X009110Y017803D01*
X010610Y017803D01*
X010610Y015003D01*
X009860Y016203D02*
X009810Y016253D01*
X009910Y016253D01*
X009960Y016303D01*
X009760Y016303D01*
X009710Y016353D01*
X010010Y016353D01*
X010060Y016403D01*
X009660Y016403D01*
X009610Y016453D01*
X010110Y016453D01*
X010160Y016503D01*
X009560Y016503D01*
X009510Y016553D01*
X010210Y016553D01*
X010260Y016603D01*
X009460Y016603D01*
X009510Y016553D01*
X009560Y016503D02*
X009610Y016453D01*
X009660Y016403D02*
X009710Y016353D01*
X009760Y016303D02*
X009810Y016253D01*
X009860Y016203D02*
X009910Y016253D01*
X009960Y016303D02*
X010010Y016353D01*
X010060Y016403D02*
X010110Y016453D01*
X010160Y016503D02*
X010210Y016553D01*
X008874Y016397D02*
X008874Y015897D01*
X007774Y015897D01*
X007774Y016397D01*
X008874Y016397D01*
X008574Y016749D02*
X008074Y016749D01*
X008074Y017849D01*
X008574Y017849D01*
X008574Y016749D01*
X007661Y017456D02*
X007661Y019956D01*
X007659Y019986D01*
X007654Y020016D01*
X007645Y020045D01*
X007632Y020072D01*
X007617Y020098D01*
X007598Y020122D01*
X007577Y020143D01*
X007553Y020162D01*
X007527Y020177D01*
X007500Y020190D01*
X007471Y020199D01*
X007441Y020204D01*
X007411Y020206D01*
X005661Y020206D01*
X005411Y020456D01*
X005411Y016956D01*
X005661Y017206D01*
X007411Y017206D01*
X007441Y017208D01*
X007471Y017213D01*
X007500Y017222D01*
X007527Y017235D01*
X007553Y017250D01*
X007577Y017269D01*
X007598Y017290D01*
X007617Y017314D01*
X007632Y017340D01*
X007645Y017367D01*
X007654Y017396D01*
X007659Y017426D01*
X007661Y017456D01*
X007570Y016397D02*
X006520Y016397D01*
X006520Y015897D01*
X007570Y015897D01*
X007570Y016397D01*
X007095Y016297D02*
X007045Y016222D01*
X007045Y016072D01*
X007095Y015997D01*
X007095Y016297D01*
X007070Y016247D02*
X007070Y016047D01*
X007045Y016072D02*
X006995Y016147D01*
X007045Y016222D01*
X006398Y016373D02*
X006098Y015922D01*
X006398Y015922D02*
X006098Y016373D01*
X005938Y016373D02*
X005637Y016373D01*
X005787Y016373D02*
X005787Y015922D01*
X005863Y015605D02*
X005637Y015605D01*
X005637Y015155D01*
X005637Y015305D02*
X005863Y015305D01*
X005938Y015380D01*
X005938Y015530D01*
X005863Y015605D01*
X006098Y015605D02*
X006398Y015155D01*
X006520Y015130D02*
X006520Y015630D01*
X007570Y015630D01*
X007570Y015130D01*
X006520Y015130D01*
X006098Y015155D02*
X006398Y015605D01*
X006995Y015380D02*
X007045Y015305D01*
X007045Y015455D01*
X006995Y015380D01*
X007045Y015455D02*
X007095Y015530D01*
X007095Y015230D01*
X007045Y015305D01*
X007070Y015280D02*
X007070Y015480D01*
X007774Y015630D02*
X007774Y015130D01*
X008874Y015130D01*
X008874Y015630D01*
X007774Y015630D01*
X005938Y015155D02*
X005787Y015305D01*
X005661Y017456D02*
X005661Y019956D01*
X008074Y019564D02*
X008574Y019564D01*
X008574Y020664D01*
X008074Y020664D01*
X008074Y019564D01*
X009226Y019564D02*
X009226Y020664D01*
X009726Y020664D01*
X009726Y019564D01*
X009226Y019564D01*
X011410Y019593D02*
X011610Y019593D01*
X011510Y019493D02*
X011510Y019693D01*
X012535Y017543D02*
X012535Y016243D01*
X015485Y016243D01*
X015485Y017543D01*
X012535Y017543D01*
X013335Y016893D02*
X013635Y016893D01*
X013485Y016743D02*
X013485Y017043D01*
X014031Y015495D02*
X015331Y015495D01*
X015331Y012545D01*
X014031Y012545D01*
X014031Y015495D01*
X014681Y014695D02*
X014681Y014395D01*
X014531Y014545D02*
X014831Y014545D01*
X015485Y015593D02*
X016785Y015593D01*
X016785Y013193D01*
X015485Y013193D01*
X015485Y015593D01*
X018395Y016025D02*
X018395Y016525D01*
X019495Y016525D01*
X019495Y016025D01*
X018395Y016025D01*
X018510Y015874D02*
X020010Y015874D01*
X020010Y013074D01*
X018510Y013074D01*
X018510Y015874D01*
X018340Y016811D02*
X018340Y017811D01*
X021340Y017811D01*
X021340Y016811D01*
X018340Y016811D01*
X018340Y017811D02*
X018340Y018811D01*
X021340Y018811D01*
X021340Y017811D01*
X021593Y017677D02*
X022693Y017677D01*
X022693Y017177D01*
X021593Y017177D01*
X021593Y017677D01*
X021780Y016659D02*
X021782Y016676D01*
X021787Y016693D01*
X021796Y016707D01*
X021808Y016720D01*
X021823Y016730D01*
X021839Y016736D01*
X021856Y016739D01*
X021873Y016738D01*
X021890Y016733D01*
X021905Y016725D01*
X021918Y016714D01*
X021929Y016700D01*
X021936Y016685D01*
X021940Y016668D01*
X021940Y016650D01*
X021936Y016633D01*
X021929Y016618D01*
X021918Y016604D01*
X021905Y016593D01*
X021890Y016585D01*
X021873Y016580D01*
X021856Y016579D01*
X021839Y016582D01*
X021823Y016588D01*
X021808Y016598D01*
X021796Y016611D01*
X021787Y016625D01*
X021782Y016642D01*
X021780Y016659D01*
X021919Y016472D02*
X022047Y016600D01*
X023100Y016600D01*
X023100Y015419D01*
X021919Y015419D01*
X021919Y016472D01*
X021010Y016084D02*
X021010Y015784D01*
X021010Y016084D02*
X020660Y016084D01*
X020510Y015584D02*
X020510Y015434D01*
X021010Y015234D02*
X021010Y014934D01*
X020660Y014934D01*
X019660Y014674D02*
X019610Y014624D01*
X018910Y014624D01*
X018960Y014574D01*
X019560Y014574D01*
X019510Y014524D01*
X019010Y014524D01*
X019060Y014474D01*
X019460Y014474D01*
X019410Y014424D01*
X019110Y014424D01*
X019160Y014374D01*
X019360Y014374D01*
X019310Y014324D01*
X019210Y014324D01*
X019160Y014374D01*
X019210Y014324D02*
X019260Y014274D01*
X019310Y014324D01*
X019360Y014374D02*
X019410Y014424D01*
X019460Y014474D02*
X019510Y014524D01*
X019560Y014574D02*
X019610Y014624D01*
X019660Y014674D02*
X018860Y014674D01*
X018910Y014624D01*
X018960Y014574D02*
X019010Y014524D01*
X019060Y014474D02*
X019110Y014424D01*
X023685Y016621D02*
X023685Y017721D01*
X024185Y017721D01*
X024185Y016621D01*
X023685Y016621D01*
X031168Y018646D02*
X031393Y018646D01*
X031468Y018721D01*
X031468Y019021D01*
X031393Y019096D01*
X031168Y019096D01*
X031168Y018646D01*
X031628Y018646D02*
X031928Y018646D01*
X031778Y018646D02*
X031778Y019096D01*
X031628Y018946D01*
X032088Y019021D02*
X032164Y019096D01*
X032314Y019096D01*
X032389Y019021D01*
X032088Y018721D01*
X032164Y018646D01*
X032314Y018646D01*
X032389Y018721D01*
X032389Y019021D01*
X032088Y019021D02*
X032088Y018721D01*
X032164Y018346D02*
X032088Y018271D01*
X032088Y018196D01*
X032164Y018121D01*
X032389Y018121D01*
X032389Y018271D02*
X032314Y018346D01*
X032164Y018346D01*
X032389Y018271D02*
X032389Y017971D01*
X032314Y017896D01*
X032164Y017896D01*
X032088Y017971D01*
X031928Y017971D02*
X031928Y018271D01*
X031853Y018346D01*
X031628Y018346D01*
X031628Y017896D01*
X031853Y017896D01*
X031928Y017971D01*
X033024Y017871D02*
X034524Y017871D01*
X034524Y018371D01*
X033024Y018371D01*
X033024Y017871D01*
X033211Y018058D02*
X033336Y018058D01*
X033336Y018071D01*
X033211Y018071D01*
X033211Y018121D01*
X033336Y018121D01*
X033336Y018171D01*
X033211Y018171D01*
X033211Y018183D01*
X033336Y018183D01*
X033336Y018171D01*
X033336Y018121D02*
X033336Y018071D01*
X033211Y018058D02*
X033211Y018071D01*
X033211Y018121D02*
X033211Y018171D01*
X033649Y018246D02*
X033649Y017996D01*
X034399Y017996D01*
X034399Y018246D01*
X033649Y018246D01*
X033899Y018246D02*
X034149Y018246D01*
X034149Y018221D01*
X033899Y018221D01*
X033899Y018246D01*
X033899Y018221D02*
X033899Y018171D01*
X034149Y018171D01*
X034149Y018121D01*
X033899Y018121D01*
X033899Y018071D01*
X034149Y018071D01*
X034149Y018021D01*
X033899Y018021D01*
X033899Y018071D01*
X033899Y018121D02*
X033899Y018171D01*
X033899Y018021D02*
X033899Y017996D01*
X034149Y017996D01*
X034149Y018021D01*
X034149Y018071D02*
X034149Y018121D01*
X034149Y018171D02*
X034149Y018221D01*
X034524Y018621D02*
X033024Y018621D01*
X033024Y019121D01*
X034524Y019121D01*
X034524Y018621D01*
X034336Y018808D02*
X034211Y018808D01*
X034211Y018821D01*
X034211Y018871D01*
X034336Y018871D01*
X034336Y018921D01*
X034211Y018921D01*
X034211Y018933D01*
X034336Y018933D01*
X034336Y018921D01*
X034336Y018871D02*
X034336Y018821D01*
X034211Y018821D01*
X034211Y018871D02*
X034211Y018921D01*
X034336Y018821D02*
X034336Y018808D01*
X033899Y018746D02*
X033149Y018746D01*
X033149Y018996D01*
X033899Y018996D01*
X033899Y018746D01*
X033649Y018746D02*
X033399Y018746D01*
X033399Y018771D01*
X033649Y018771D01*
X033649Y018746D01*
X033649Y018771D02*
X033649Y018821D01*
X033399Y018821D01*
X033399Y018871D01*
X033649Y018871D01*
X033649Y018921D01*
X033399Y018921D01*
X033399Y018971D01*
X033649Y018971D01*
X033649Y018921D01*
X033649Y018971D02*
X033649Y018996D01*
X033399Y018996D01*
X033399Y018971D01*
X033399Y018921D02*
X033399Y018871D01*
X033399Y018821D02*
X033399Y018771D01*
X033649Y018821D02*
X033649Y018871D01*
X036385Y021343D02*
X036385Y022443D01*
X036885Y022443D01*
X036885Y021343D01*
X036385Y021343D01*
X037460Y023143D02*
X037460Y023643D01*
X038560Y023643D01*
X038560Y023143D01*
X037460Y023143D01*
X034860Y024943D02*
X034860Y025393D01*
X034310Y025393D01*
X034310Y030843D01*
X035306Y030843D01*
X035306Y030844D02*
X035363Y030843D01*
X035421Y030838D01*
X035478Y030831D01*
X035534Y030820D01*
X035590Y030807D01*
X035645Y030791D01*
X035700Y030772D01*
X037480Y030443D02*
X040210Y030443D01*
X040210Y024943D01*
X034860Y024943D01*
X033885Y025968D02*
X033385Y025968D01*
X033385Y027068D01*
X033885Y027068D01*
X033885Y025968D01*
X031760Y026593D02*
X031760Y027693D01*
X031260Y027693D01*
X031260Y026593D01*
X031760Y026593D01*
X031349Y026156D02*
X031274Y026231D01*
X031124Y026231D01*
X031049Y026156D01*
X031049Y026081D01*
X031124Y026006D01*
X031274Y026006D01*
X031349Y025931D01*
X031349Y025856D01*
X031274Y025781D01*
X031124Y025781D01*
X031049Y025856D01*
X030888Y025856D02*
X030888Y026231D01*
X030588Y026231D02*
X030588Y025856D01*
X030663Y025781D01*
X030813Y025781D01*
X030888Y025856D01*
X030428Y026231D02*
X030128Y026231D01*
X030278Y026231D02*
X030278Y025781D01*
X029968Y025781D02*
X029968Y026081D01*
X029817Y026231D01*
X029667Y026081D01*
X029667Y025781D01*
X029667Y026006D02*
X029968Y026006D01*
X029507Y026231D02*
X029207Y026231D01*
X029357Y026231D02*
X029357Y025781D01*
X029047Y025856D02*
X028972Y025781D01*
X028822Y025781D01*
X028747Y025856D01*
X028822Y026006D02*
X028747Y026081D01*
X028747Y026156D01*
X028822Y026231D01*
X028972Y026231D01*
X029047Y026156D01*
X028972Y026006D02*
X029047Y025931D01*
X029047Y025856D01*
X028972Y026006D02*
X028822Y026006D01*
X029010Y026593D02*
X028510Y026593D01*
X028510Y027693D01*
X029010Y027693D01*
X029010Y026593D01*
X029260Y026593D02*
X029260Y027693D01*
X029760Y027693D01*
X029760Y026593D01*
X029260Y026593D01*
X030010Y026593D02*
X030010Y027693D01*
X030510Y027693D01*
X030510Y026593D01*
X030010Y026593D01*
X030010Y027868D02*
X030510Y027868D01*
X030510Y028918D01*
X030010Y028918D01*
X030010Y027868D01*
X029760Y027868D02*
X029260Y027868D01*
X029260Y028918D01*
X029760Y028918D01*
X029760Y027868D01*
X029660Y028343D02*
X029585Y028393D01*
X029435Y028393D01*
X029360Y028343D01*
X029660Y028343D01*
X029610Y028368D02*
X029410Y028368D01*
X029435Y028393D02*
X029510Y028443D01*
X029585Y028393D01*
X030110Y028343D02*
X030185Y028393D01*
X030335Y028393D01*
X030260Y028443D01*
X030185Y028393D01*
X030160Y028368D02*
X030360Y028368D01*
X030335Y028393D02*
X030410Y028343D01*
X030110Y028343D01*
X029010Y027868D02*
X029010Y028918D01*
X028510Y028918D01*
X028510Y027868D01*
X029010Y027868D01*
X028910Y028343D02*
X028610Y028343D01*
X028685Y028393D01*
X028835Y028393D01*
X028760Y028443D01*
X028685Y028393D01*
X028660Y028368D02*
X028860Y028368D01*
X028835Y028393D02*
X028910Y028343D01*
X031260Y027868D02*
X031260Y028918D01*
X031760Y028918D01*
X031760Y027868D01*
X031260Y027868D01*
X031510Y028343D02*
X031435Y028393D01*
X031585Y028393D01*
X031660Y028443D01*
X031360Y028443D01*
X031435Y028393D01*
X031410Y028418D02*
X031610Y028418D01*
X031585Y028393D02*
X031510Y028343D01*
X033260Y028468D02*
X033760Y028468D01*
X033760Y029568D01*
X033260Y029568D01*
X033260Y028468D01*
X033069Y029750D02*
X032281Y029750D01*
X032281Y021876D01*
X033069Y021876D01*
X033069Y029750D01*
X035700Y030771D02*
X035914Y030694D01*
X036132Y030628D01*
X036352Y030572D01*
X036575Y030526D01*
X036800Y030490D01*
X037026Y030464D01*
X037253Y030448D01*
X037480Y030443D01*
X040943Y029750D02*
X041730Y029750D01*
X041730Y021876D01*
X040943Y021876D01*
X040943Y029750D01*
X028126Y026231D02*
X027826Y026231D01*
X027826Y025781D01*
X028126Y025781D01*
X027976Y026006D02*
X027826Y026006D01*
X027666Y026231D02*
X027365Y026231D01*
X027365Y025781D01*
X027666Y025781D01*
X027516Y026006D02*
X027365Y026006D01*
X027205Y026081D02*
X027130Y026006D01*
X026905Y026006D01*
X026905Y025781D02*
X026905Y026231D01*
X027130Y026231D01*
X027205Y026156D01*
X027205Y026081D01*
X027130Y026006D02*
X027205Y025931D01*
X027205Y025856D01*
X027130Y025781D01*
X026905Y025781D01*
X026745Y025781D02*
X026445Y026231D01*
X026745Y026231D02*
X026445Y025781D01*
X014110Y022568D02*
X013910Y022568D01*
X014010Y022668D02*
X014010Y022468D01*
X013110Y024493D02*
X013110Y025793D01*
X010160Y025793D01*
X010160Y024493D01*
X013110Y024493D01*
X012310Y025143D02*
X012010Y025143D01*
X012160Y025293D02*
X012160Y024993D01*
X009186Y025350D02*
X009186Y026650D01*
X008486Y026650D01*
X008486Y025350D01*
X009186Y025350D01*
X008521Y007860D02*
X008285Y007860D01*
X007600Y006556D02*
X007193Y006556D01*
X007093Y006142D02*
X007195Y006041D01*
X007195Y005837D01*
X007093Y005735D01*
X006788Y005735D01*
X006788Y005532D02*
X006788Y006142D01*
X007093Y006142D01*
X007395Y006041D02*
X007395Y005634D01*
X007497Y005532D01*
X007701Y005532D01*
X007802Y005634D01*
X007802Y006041D01*
X007701Y006142D01*
X007497Y006142D01*
X007395Y006041D01*
X006586Y006142D02*
X006382Y006142D01*
X006484Y006142D02*
X006484Y005532D01*
X006382Y005532D02*
X006586Y005532D01*
X006182Y005532D02*
X005775Y005532D01*
X005775Y006142D01*
X006181Y006353D02*
X006181Y006760D01*
X006384Y006556D02*
X005977Y006556D01*
X039298Y018432D02*
X039524Y018432D01*
X039599Y018507D01*
X039599Y018808D01*
X039524Y018883D01*
X039298Y018883D01*
X039298Y018432D01*
X039759Y018658D02*
X039984Y018883D01*
X039984Y018432D01*
X040059Y018658D02*
X039759Y018658D01*
X039834Y019182D02*
X039984Y019182D01*
X040059Y019257D01*
X040059Y019333D01*
X039984Y019408D01*
X039759Y019408D01*
X039759Y019257D01*
X039834Y019182D01*
X039759Y019408D02*
X039909Y019558D01*
X040059Y019633D01*
X040694Y019657D02*
X040694Y019157D01*
X042194Y019157D01*
X042194Y019657D01*
X040694Y019657D01*
X040819Y019532D02*
X041569Y019532D01*
X041569Y019282D01*
X040819Y019282D01*
X040819Y019532D01*
X041069Y019532D02*
X041319Y019532D01*
X041319Y019507D01*
X041069Y019507D01*
X041069Y019532D01*
X041069Y019507D02*
X041069Y019457D01*
X041319Y019457D01*
X041319Y019407D01*
X041069Y019407D01*
X041069Y019357D01*
X041319Y019357D01*
X041319Y019307D01*
X041069Y019307D01*
X041069Y019357D01*
X041069Y019307D02*
X041069Y019282D01*
X041319Y019282D01*
X041319Y019307D01*
X041319Y019357D02*
X041319Y019407D01*
X041319Y019457D02*
X041319Y019507D01*
X041069Y019457D02*
X041069Y019407D01*
X040694Y018907D02*
X042194Y018907D01*
X042194Y018407D01*
X040694Y018407D01*
X040694Y018907D01*
X040882Y018720D02*
X041007Y018720D01*
X041007Y018707D01*
X041007Y018657D01*
X040882Y018657D01*
X040882Y018607D01*
X041007Y018607D01*
X041007Y018595D01*
X040882Y018595D01*
X040882Y018607D01*
X040882Y018657D02*
X040882Y018707D01*
X041007Y018707D01*
X041007Y018657D02*
X041007Y018607D01*
X040882Y018707D02*
X040882Y018720D01*
X041319Y018782D02*
X041319Y018532D01*
X042069Y018532D01*
X042069Y018782D01*
X041319Y018782D01*
X041569Y018782D02*
X041819Y018782D01*
X041819Y018757D01*
X041569Y018757D01*
X041569Y018782D01*
X041569Y018757D02*
X041569Y018707D01*
X041819Y018707D01*
X041819Y018657D01*
X041569Y018657D01*
X041569Y018607D01*
X041819Y018607D01*
X041819Y018557D01*
X041569Y018557D01*
X041569Y018607D01*
X041569Y018557D02*
X041569Y018532D01*
X041819Y018532D01*
X041819Y018557D01*
X041819Y018607D02*
X041819Y018657D01*
X041819Y018707D02*
X041819Y018757D01*
X041569Y018707D02*
X041569Y018657D01*
X041882Y019345D02*
X042007Y019345D01*
X042007Y019357D01*
X041882Y019357D01*
X041882Y019407D01*
X042007Y019407D01*
X042007Y019457D01*
X041882Y019457D01*
X041882Y019470D01*
X042007Y019470D01*
X042007Y019457D01*
X042007Y019407D02*
X042007Y019357D01*
X041882Y019345D02*
X041882Y019357D01*
X041882Y019407D02*
X041882Y019457D01*
X039599Y019558D02*
X039599Y019257D01*
X039524Y019182D01*
X039298Y019182D01*
X039298Y019633D01*
X039524Y019633D01*
X039599Y019558D01*
X043011Y007202D02*
X043011Y006702D01*
X044111Y006702D01*
X044111Y007202D01*
X043011Y007202D01*
X043036Y006577D02*
X043036Y006077D01*
X044086Y006077D01*
X044086Y006577D01*
X043036Y006577D01*
X043511Y006477D02*
X043511Y006177D01*
X043561Y006252D01*
X043561Y006402D01*
X043511Y006477D01*
X043536Y006427D02*
X043536Y006227D01*
X043561Y006252D02*
X043611Y006327D01*
X043561Y006402D01*
X043557Y005833D02*
X043557Y005383D01*
X043407Y005533D01*
X043257Y005383D01*
X043257Y005833D01*
X043097Y005758D02*
X043097Y005458D01*
X043022Y005383D01*
X042872Y005383D01*
X042797Y005458D01*
X042797Y005758D01*
X042872Y005833D01*
X043022Y005833D01*
X043097Y005758D01*
X042637Y005758D02*
X042637Y005608D01*
X042561Y005533D01*
X042336Y005533D01*
X042336Y005383D02*
X042336Y005833D01*
X042561Y005833D01*
X042637Y005758D01*
X043717Y005833D02*
X043717Y005383D01*
X044018Y005383D01*
X044178Y005383D02*
X044178Y005833D01*
X044403Y005833D01*
X044478Y005758D01*
X044478Y005608D01*
X044403Y005533D01*
X044178Y005533D01*
X044328Y005533D02*
X044478Y005383D01*
X044018Y005833D02*
X043717Y005833D01*
X043717Y005608D02*
X043868Y005608D01*
D15*
X027006Y015252D02*
X027006Y017171D01*
X026366Y017171D01*
X026366Y015252D01*
X027006Y015252D01*
X026366Y015252D02*
X025726Y015252D01*
X025726Y017171D01*
X025214Y017171D01*
X025214Y018450D01*
X024447Y019218D01*
X021632Y019218D01*
X021376Y018962D01*
X018305Y018962D01*
X018305Y016659D01*
X021504Y016659D01*
X021504Y018962D01*
X021376Y018962D01*
X021504Y018962D02*
X024191Y018962D01*
X024191Y012309D01*
X018305Y012309D01*
X018305Y016659D01*
X018789Y019899D02*
X021807Y019899D01*
X021807Y020899D01*
X018839Y020899D01*
X018839Y021899D02*
X021807Y021899D01*
X021807Y020899D01*
X021807Y021899D02*
X021807Y022899D01*
X018839Y022899D01*
X019073Y023824D02*
X019073Y025872D01*
X022143Y025872D01*
X022143Y026639D01*
X023423Y026639D01*
X023479Y026937D02*
X024129Y026937D01*
X024129Y024887D01*
X024779Y024887D01*
X024779Y026887D01*
X025429Y026887D02*
X025429Y024887D01*
X026079Y024887D01*
X026079Y026937D01*
X024129Y026937D01*
X023479Y026937D02*
X023479Y024887D01*
X024129Y024887D01*
X024779Y024887D02*
X025429Y024887D01*
X025726Y024080D02*
X025726Y023824D01*
X028541Y023824D01*
X028519Y023989D02*
X030869Y023989D01*
X030869Y024689D01*
X028519Y024689D01*
X028519Y023989D01*
X028519Y023289D01*
X030869Y023289D01*
X030869Y023989D01*
X030869Y023289D02*
X030869Y022589D01*
X028519Y022589D01*
X028519Y021939D01*
X030869Y021939D01*
X030869Y022589D01*
X028519Y022589D02*
X028519Y023289D01*
X025726Y023824D02*
X025726Y019730D01*
X023679Y019730D01*
X024958Y017171D02*
X024958Y015252D01*
X025726Y015252D01*
X025726Y017171D02*
X026366Y017171D01*
X025214Y017171D02*
X024958Y017171D01*
X021807Y022899D02*
X021807Y023643D01*
X023423Y023824D02*
X023423Y025872D01*
X022143Y025872D01*
X023679Y024080D02*
X025726Y024080D01*
X027006Y026383D02*
X027006Y030222D01*
X030716Y030222D02*
X030716Y026383D01*
X027006Y026383D01*
X013187Y016147D02*
X013187Y015124D01*
X010746Y015124D01*
X010746Y016128D01*
X010864Y015104D02*
X010864Y014868D01*
X007635Y014868D01*
X007635Y015025D01*
X006415Y015025D02*
X008974Y015025D01*
X008974Y016521D01*
X006415Y016521D01*
X043270Y021563D02*
X044520Y021563D01*
X043270Y021563D02*
X043270Y025563D01*
X044520Y025563D01*
D16*
X021589Y021521D02*
X021589Y021266D01*
X021418Y021521D01*
X021418Y021266D01*
X021334Y021266D02*
X021249Y021266D01*
X021292Y021266D02*
X021292Y021521D01*
X021334Y021521D02*
X021249Y021521D01*
X021166Y021223D02*
X020995Y021223D01*
X020912Y021308D02*
X020912Y021393D01*
X020827Y021393D01*
X020912Y021308D02*
X020870Y021266D01*
X020784Y021266D01*
X020742Y021308D01*
X020742Y021479D01*
X020784Y021521D01*
X020870Y021521D01*
X020912Y021479D01*
X020658Y021521D02*
X020658Y021266D01*
X020658Y021393D02*
X020488Y021393D01*
X020405Y021308D02*
X020362Y021266D01*
X020277Y021266D01*
X020234Y021308D01*
X020234Y021479D01*
X020277Y021521D01*
X020362Y021521D01*
X020405Y021479D01*
X020488Y021521D02*
X020488Y021266D01*
X020426Y020492D02*
X020426Y020236D01*
X020255Y020492D01*
X020255Y020236D01*
X020171Y020236D02*
X020086Y020236D01*
X020129Y020236D02*
X020129Y020492D01*
X020171Y020492D02*
X020086Y020492D01*
X020003Y020492D02*
X020003Y020321D01*
X019918Y020236D01*
X019832Y020321D01*
X019832Y020492D01*
X019749Y020193D02*
X019579Y020193D01*
X019495Y020279D02*
X019453Y020236D01*
X019367Y020236D01*
X019325Y020279D01*
X019410Y020364D02*
X019453Y020364D01*
X019495Y020321D01*
X019495Y020279D01*
X019453Y020364D02*
X019495Y020407D01*
X019495Y020449D01*
X019453Y020492D01*
X019367Y020492D01*
X019325Y020449D01*
X019242Y020492D02*
X019071Y020492D01*
X019156Y020492D02*
X019156Y020236D01*
X019253Y022289D02*
X019210Y022332D01*
X019253Y022289D02*
X019338Y022289D01*
X019381Y022332D01*
X019381Y022374D01*
X019338Y022417D01*
X019296Y022417D01*
X019338Y022417D02*
X019381Y022460D01*
X019381Y022502D01*
X019338Y022545D01*
X019253Y022545D01*
X019210Y022502D01*
X019464Y022332D02*
X019507Y022332D01*
X019507Y022289D01*
X019464Y022289D01*
X019464Y022332D01*
X019591Y022332D02*
X019634Y022289D01*
X019719Y022289D01*
X019762Y022332D01*
X019762Y022374D01*
X019719Y022417D01*
X019676Y022417D01*
X019719Y022417D02*
X019762Y022460D01*
X019762Y022502D01*
X019719Y022545D01*
X019634Y022545D01*
X019591Y022502D01*
X019845Y022545D02*
X019845Y022374D01*
X019930Y022289D01*
X020015Y022374D01*
X020015Y022545D01*
X019803Y023185D02*
X019718Y023270D01*
X019718Y023441D01*
X019635Y023441D02*
X019464Y023441D01*
X019464Y023313D01*
X019549Y023355D01*
X019592Y023355D01*
X019635Y023313D01*
X019635Y023227D01*
X019592Y023185D01*
X019507Y023185D01*
X019464Y023227D01*
X019381Y023313D02*
X019210Y023313D01*
X019296Y023398D02*
X019296Y023227D01*
X019803Y023185D02*
X019889Y023270D01*
X019889Y023441D01*
D17*
X017010Y021143D02*
X017010Y026143D01*
X008010Y026143D01*
X007010Y026143D01*
X007010Y025143D01*
X006010Y025143D01*
X006010Y022143D01*
X006010Y021143D01*
X016510Y021143D01*
X017010Y021143D01*
X016260Y020893D02*
X010760Y020893D01*
X010760Y016143D01*
X016260Y016143D01*
X016260Y020893D01*
X014835Y020433D02*
X014835Y017853D01*
X013435Y017853D01*
X013435Y020433D01*
X014835Y020433D01*
X012210Y021603D02*
X010810Y021603D01*
X010810Y024183D01*
X012210Y024183D01*
X012210Y021603D01*
X013710Y024393D02*
X014310Y024393D01*
X014310Y025393D01*
X013710Y025393D01*
X013710Y024393D01*
X013910Y027393D02*
X013410Y027393D01*
X013160Y027643D01*
X012910Y027393D01*
X012410Y027393D01*
X012160Y027643D01*
X011910Y027393D01*
X011410Y027393D01*
X011160Y027643D01*
X010910Y027393D01*
X010410Y027393D01*
X010160Y027643D01*
X009910Y027393D01*
X009410Y027393D01*
X009160Y027643D01*
X008910Y027393D01*
X008410Y027393D01*
X008160Y027643D01*
X008160Y028143D01*
X008410Y028393D01*
X008910Y028393D01*
X009160Y028143D01*
X009410Y028393D01*
X009910Y028393D01*
X010160Y028143D01*
X010410Y028393D01*
X010910Y028393D01*
X011160Y028143D01*
X011410Y028393D01*
X011910Y028393D01*
X012160Y028143D01*
X012410Y028393D01*
X012910Y028393D01*
X013160Y028143D01*
X013410Y028393D01*
X013910Y028393D01*
X014160Y028143D01*
X014410Y028393D01*
X014910Y028393D01*
X015160Y028143D01*
X015410Y028393D01*
X015910Y028393D01*
X016160Y028143D01*
X016410Y028393D01*
X016910Y028393D01*
X017160Y028143D01*
X017410Y028393D01*
X017910Y028393D01*
X018160Y028143D01*
X018160Y027643D01*
X017910Y027393D01*
X017410Y027393D01*
X017160Y027643D01*
X016910Y027393D01*
X016410Y027393D01*
X016160Y027643D01*
X015910Y027393D01*
X015410Y027393D01*
X015160Y027643D01*
X014910Y027393D01*
X014410Y027393D01*
X014160Y027643D01*
X013910Y027393D01*
X018760Y027643D02*
X018760Y028143D01*
X019010Y028393D01*
X019510Y028393D01*
X019760Y028143D01*
X020010Y028393D01*
X020510Y028393D01*
X020760Y028143D01*
X021010Y028393D01*
X021510Y028393D01*
X021760Y028143D01*
X022010Y028393D01*
X022510Y028393D01*
X022760Y028143D01*
X023010Y028393D01*
X023510Y028393D01*
X023760Y028143D01*
X024010Y028393D01*
X024510Y028393D01*
X024760Y028143D01*
X025010Y028393D01*
X025510Y028393D01*
X025760Y028143D01*
X026010Y028393D01*
X026510Y028393D01*
X026760Y028143D01*
X026760Y027643D01*
X026510Y027393D01*
X026010Y027393D01*
X025760Y027643D01*
X025510Y027393D01*
X025010Y027393D01*
X024760Y027643D01*
X024510Y027393D01*
X024010Y027393D01*
X023760Y027643D01*
X023510Y027393D01*
X023010Y027393D01*
X022760Y027643D01*
X022510Y027393D01*
X022010Y027393D01*
X021760Y027643D01*
X021510Y027393D01*
X021010Y027393D01*
X020760Y027643D01*
X020510Y027393D01*
X020010Y027393D01*
X019760Y027643D01*
X019510Y027393D01*
X019010Y027393D01*
X018760Y027643D01*
X008010Y026143D02*
X008010Y022143D01*
X006010Y022143D01*
X006010Y025143D02*
X006010Y026143D01*
X007010Y026143D01*
X011210Y017643D02*
X011210Y016643D01*
X011810Y016643D01*
X011810Y017643D01*
X011210Y017643D01*
X017160Y013893D02*
X017160Y013293D01*
X018160Y013293D01*
X018160Y013893D01*
X017160Y013893D01*
X020635Y014062D02*
X020635Y013462D01*
X021635Y013462D01*
X021635Y014062D01*
X020635Y014062D01*
X016760Y010643D02*
X016510Y010893D01*
X016010Y010893D01*
X015760Y010643D01*
X015510Y010893D01*
X015010Y010893D01*
X014760Y010643D01*
X014760Y010143D01*
X015010Y009893D01*
X015510Y009893D01*
X015760Y010143D01*
X016010Y009893D01*
X016510Y009893D01*
X016760Y010143D01*
X016760Y010643D01*
X017010Y009393D02*
X017510Y009393D01*
X017760Y009143D01*
X018010Y009393D01*
X018510Y009393D01*
X018760Y009143D01*
X019010Y009393D01*
X019510Y009393D01*
X019760Y009143D01*
X019760Y008643D01*
X019510Y008393D01*
X019010Y008393D01*
X018760Y008643D01*
X018510Y008393D01*
X018010Y008393D01*
X017760Y008643D01*
X017510Y008393D01*
X017010Y008393D01*
X016760Y008643D01*
X016510Y008393D01*
X016010Y008393D01*
X015760Y008643D01*
X015510Y008393D01*
X015010Y008393D01*
X014760Y008643D01*
X014510Y008393D01*
X014010Y008393D01*
X013760Y008643D01*
X013510Y008393D01*
X013010Y008393D01*
X012760Y008643D01*
X012510Y008393D01*
X012010Y008393D01*
X011760Y008643D01*
X011760Y009143D01*
X012010Y009393D01*
X012510Y009393D01*
X012760Y009143D01*
X013010Y009393D01*
X013510Y009393D01*
X013760Y009143D01*
X014010Y009393D01*
X014510Y009393D01*
X014760Y009143D01*
X015010Y009393D01*
X015510Y009393D01*
X015760Y009143D01*
X016010Y009393D01*
X016510Y009393D01*
X016760Y009143D01*
X017010Y009393D01*
X020760Y009143D02*
X020760Y008643D01*
X021010Y008393D01*
X021510Y008393D01*
X021760Y008643D01*
X022010Y008393D01*
X022510Y008393D01*
X022760Y008643D01*
X023010Y008393D01*
X023510Y008393D01*
X023760Y008643D01*
X024010Y008393D01*
X024510Y008393D01*
X024760Y008643D01*
X025010Y008393D01*
X025510Y008393D01*
X025760Y008643D01*
X026010Y008393D01*
X026510Y008393D01*
X026760Y008643D01*
X026760Y009143D01*
X026510Y009393D01*
X026010Y009393D01*
X025760Y009143D01*
X025510Y009393D01*
X025010Y009393D01*
X024760Y009143D01*
X024510Y009393D01*
X024010Y009393D01*
X023760Y009143D01*
X023510Y009393D01*
X023010Y009393D01*
X022760Y009143D01*
X022510Y009393D01*
X022010Y009393D01*
X021760Y009143D01*
X021510Y009393D01*
X021010Y009393D01*
X020760Y009143D01*
X026076Y007343D02*
X026076Y006943D01*
X026896Y006943D01*
X026896Y007343D01*
X026076Y007343D01*
X026076Y006593D02*
X026896Y006593D01*
X026896Y006193D01*
X026076Y006193D01*
X026076Y006593D01*
X030010Y010643D02*
X044010Y010643D01*
X044010Y011643D01*
X044010Y012893D01*
X044510Y012893D01*
X044510Y015393D01*
X044010Y015393D01*
X044010Y016643D01*
X031010Y016643D01*
X031010Y014643D01*
X038010Y014643D01*
X038010Y012643D01*
X031010Y012643D01*
X031010Y011643D01*
X030010Y011643D02*
X038010Y011643D01*
X038010Y012643D01*
X039010Y012643D01*
X040010Y012643D01*
X041010Y012643D01*
X041010Y011643D01*
X042010Y011643D01*
X042010Y012643D01*
X043010Y012643D01*
X043010Y011643D01*
X044010Y011643D01*
X043010Y011643D02*
X042010Y011643D01*
X041010Y011643D02*
X040010Y011643D01*
X039010Y011643D01*
X038010Y011643D01*
X043260Y012893D02*
X043260Y015393D01*
X044010Y015393D01*
X044010Y016643D02*
X044010Y017643D01*
X030010Y017643D01*
X030010Y016643D01*
X031010Y016643D01*
X030010Y016643D02*
X030010Y011643D01*
X030010Y010643D01*
X031010Y012643D02*
X031010Y014643D01*
X042170Y021813D02*
X042420Y021563D01*
X042920Y021563D01*
X043170Y021813D01*
X043170Y022313D01*
X042920Y022563D01*
X043170Y022813D01*
X043170Y023313D01*
X042920Y023563D01*
X043170Y023813D01*
X043170Y024313D01*
X042920Y024563D01*
X043170Y024813D01*
X043170Y025313D01*
X042920Y025563D01*
X042420Y025563D01*
X042170Y025313D01*
X042170Y024813D01*
X042420Y024563D01*
X042170Y024313D01*
X042170Y023813D01*
X042420Y023563D01*
X042170Y023313D01*
X042170Y022813D01*
X042420Y022563D01*
X042170Y022313D01*
X042170Y021813D01*
X043260Y012893D02*
X044010Y012893D01*
M02*
