G75*
%MOIN*%
%OFA0B0*%
%FSLAX24Y24*%
%IPPOS*%
%LPD*%
%AMOC8*
5,1,8,0,0,1.08239X$1,22.5*
%
%ADD10C,0.0000*%
%ADD11C,0.0080*%
%ADD12C,0.0030*%
%ADD13C,0.0100*%
%ADD14C,0.0050*%
%ADD15C,0.0040*%
%ADD16C,0.0060*%
D10*
X005510Y005143D02*
X005510Y030393D01*
X005510Y030389D02*
X044880Y030389D01*
X044880Y005143D01*
X005510Y005143D01*
X006051Y008893D02*
X006053Y008946D01*
X006059Y008999D01*
X006069Y009051D01*
X006082Y009102D01*
X006100Y009152D01*
X006121Y009201D01*
X006146Y009248D01*
X006174Y009292D01*
X006206Y009335D01*
X006240Y009375D01*
X006278Y009413D01*
X006318Y009447D01*
X006361Y009479D01*
X006406Y009507D01*
X006452Y009532D01*
X006501Y009553D01*
X006551Y009571D01*
X006602Y009584D01*
X006654Y009594D01*
X006707Y009600D01*
X006760Y009602D01*
X006813Y009600D01*
X006866Y009594D01*
X006918Y009584D01*
X006969Y009571D01*
X007019Y009553D01*
X007068Y009532D01*
X007115Y009507D01*
X007159Y009479D01*
X007202Y009447D01*
X007242Y009413D01*
X007280Y009375D01*
X007314Y009335D01*
X007346Y009292D01*
X007374Y009247D01*
X007399Y009201D01*
X007420Y009152D01*
X007438Y009102D01*
X007451Y009051D01*
X007461Y008999D01*
X007467Y008946D01*
X007469Y008893D01*
X007467Y008840D01*
X007461Y008787D01*
X007451Y008735D01*
X007438Y008684D01*
X007420Y008634D01*
X007399Y008585D01*
X007374Y008538D01*
X007346Y008494D01*
X007314Y008451D01*
X007280Y008411D01*
X007242Y008373D01*
X007202Y008339D01*
X007159Y008307D01*
X007114Y008279D01*
X007068Y008254D01*
X007019Y008233D01*
X006969Y008215D01*
X006918Y008202D01*
X006866Y008192D01*
X006813Y008186D01*
X006760Y008184D01*
X006707Y008186D01*
X006654Y008192D01*
X006602Y008202D01*
X006551Y008215D01*
X006501Y008233D01*
X006452Y008254D01*
X006405Y008279D01*
X006361Y008307D01*
X006318Y008339D01*
X006278Y008373D01*
X006240Y008411D01*
X006206Y008451D01*
X006174Y008494D01*
X006146Y008539D01*
X006121Y008585D01*
X006100Y008634D01*
X006082Y008684D01*
X006069Y008735D01*
X006059Y008787D01*
X006053Y008840D01*
X006051Y008893D01*
X018120Y005643D02*
X018122Y005670D01*
X018128Y005696D01*
X018137Y005721D01*
X018150Y005744D01*
X018166Y005765D01*
X018185Y005784D01*
X018206Y005800D01*
X018229Y005813D01*
X018254Y005822D01*
X018280Y005828D01*
X018307Y005830D01*
X018334Y005828D01*
X018360Y005822D01*
X018385Y005813D01*
X018408Y005800D01*
X018429Y005784D01*
X018448Y005765D01*
X018464Y005744D01*
X018477Y005721D01*
X018486Y005696D01*
X018492Y005670D01*
X018494Y005643D01*
X018492Y005616D01*
X018486Y005590D01*
X018477Y005565D01*
X018464Y005542D01*
X018448Y005521D01*
X018429Y005502D01*
X018408Y005486D01*
X018385Y005473D01*
X018360Y005464D01*
X018334Y005458D01*
X018307Y005456D01*
X018280Y005458D01*
X018254Y005464D01*
X018229Y005473D01*
X018206Y005486D01*
X018185Y005502D01*
X018166Y005521D01*
X018150Y005542D01*
X018137Y005565D01*
X018128Y005590D01*
X018122Y005616D01*
X018120Y005643D01*
X019025Y005643D02*
X019027Y005670D01*
X019033Y005696D01*
X019042Y005721D01*
X019055Y005744D01*
X019071Y005765D01*
X019090Y005784D01*
X019111Y005800D01*
X019134Y005813D01*
X019159Y005822D01*
X019185Y005828D01*
X019212Y005830D01*
X019239Y005828D01*
X019265Y005822D01*
X019290Y005813D01*
X019313Y005800D01*
X019334Y005784D01*
X019353Y005765D01*
X019369Y005744D01*
X019382Y005721D01*
X019391Y005696D01*
X019397Y005670D01*
X019399Y005643D01*
X019397Y005616D01*
X019391Y005590D01*
X019382Y005565D01*
X019369Y005542D01*
X019353Y005521D01*
X019334Y005502D01*
X019313Y005486D01*
X019290Y005473D01*
X019265Y005464D01*
X019239Y005458D01*
X019212Y005456D01*
X019185Y005458D01*
X019159Y005464D01*
X019134Y005473D01*
X019111Y005486D01*
X019090Y005502D01*
X019071Y005521D01*
X019055Y005542D01*
X019042Y005565D01*
X019033Y005590D01*
X019027Y005616D01*
X019025Y005643D01*
X022370Y005643D02*
X022372Y005670D01*
X022378Y005696D01*
X022387Y005721D01*
X022400Y005744D01*
X022416Y005765D01*
X022435Y005784D01*
X022456Y005800D01*
X022479Y005813D01*
X022504Y005822D01*
X022530Y005828D01*
X022557Y005830D01*
X022584Y005828D01*
X022610Y005822D01*
X022635Y005813D01*
X022658Y005800D01*
X022679Y005784D01*
X022698Y005765D01*
X022714Y005744D01*
X022727Y005721D01*
X022736Y005696D01*
X022742Y005670D01*
X022744Y005643D01*
X022742Y005616D01*
X022736Y005590D01*
X022727Y005565D01*
X022714Y005542D01*
X022698Y005521D01*
X022679Y005502D01*
X022658Y005486D01*
X022635Y005473D01*
X022610Y005464D01*
X022584Y005458D01*
X022557Y005456D01*
X022530Y005458D01*
X022504Y005464D01*
X022479Y005473D01*
X022456Y005486D01*
X022435Y005502D01*
X022416Y005521D01*
X022400Y005542D01*
X022387Y005565D01*
X022378Y005590D01*
X022372Y005616D01*
X022370Y005643D01*
X023275Y005643D02*
X023277Y005670D01*
X023283Y005696D01*
X023292Y005721D01*
X023305Y005744D01*
X023321Y005765D01*
X023340Y005784D01*
X023361Y005800D01*
X023384Y005813D01*
X023409Y005822D01*
X023435Y005828D01*
X023462Y005830D01*
X023489Y005828D01*
X023515Y005822D01*
X023540Y005813D01*
X023563Y005800D01*
X023584Y005784D01*
X023603Y005765D01*
X023619Y005744D01*
X023632Y005721D01*
X023641Y005696D01*
X023647Y005670D01*
X023649Y005643D01*
X023647Y005616D01*
X023641Y005590D01*
X023632Y005565D01*
X023619Y005542D01*
X023603Y005521D01*
X023584Y005502D01*
X023563Y005486D01*
X023540Y005473D01*
X023515Y005464D01*
X023489Y005458D01*
X023462Y005456D01*
X023435Y005458D01*
X023409Y005464D01*
X023384Y005473D01*
X023361Y005486D01*
X023340Y005502D01*
X023321Y005521D01*
X023305Y005542D01*
X023292Y005565D01*
X023283Y005590D01*
X023277Y005616D01*
X023275Y005643D01*
X026551Y010893D02*
X026553Y010946D01*
X026559Y010999D01*
X026569Y011051D01*
X026582Y011102D01*
X026600Y011152D01*
X026621Y011201D01*
X026646Y011248D01*
X026674Y011292D01*
X026706Y011335D01*
X026740Y011375D01*
X026778Y011413D01*
X026818Y011447D01*
X026861Y011479D01*
X026906Y011507D01*
X026952Y011532D01*
X027001Y011553D01*
X027051Y011571D01*
X027102Y011584D01*
X027154Y011594D01*
X027207Y011600D01*
X027260Y011602D01*
X027313Y011600D01*
X027366Y011594D01*
X027418Y011584D01*
X027469Y011571D01*
X027519Y011553D01*
X027568Y011532D01*
X027615Y011507D01*
X027659Y011479D01*
X027702Y011447D01*
X027742Y011413D01*
X027780Y011375D01*
X027814Y011335D01*
X027846Y011292D01*
X027874Y011247D01*
X027899Y011201D01*
X027920Y011152D01*
X027938Y011102D01*
X027951Y011051D01*
X027961Y010999D01*
X027967Y010946D01*
X027969Y010893D01*
X027967Y010840D01*
X027961Y010787D01*
X027951Y010735D01*
X027938Y010684D01*
X027920Y010634D01*
X027899Y010585D01*
X027874Y010538D01*
X027846Y010494D01*
X027814Y010451D01*
X027780Y010411D01*
X027742Y010373D01*
X027702Y010339D01*
X027659Y010307D01*
X027614Y010279D01*
X027568Y010254D01*
X027519Y010233D01*
X027469Y010215D01*
X027418Y010202D01*
X027366Y010192D01*
X027313Y010186D01*
X027260Y010184D01*
X027207Y010186D01*
X027154Y010192D01*
X027102Y010202D01*
X027051Y010215D01*
X027001Y010233D01*
X026952Y010254D01*
X026905Y010279D01*
X026861Y010307D01*
X026818Y010339D01*
X026778Y010373D01*
X026740Y010411D01*
X026706Y010451D01*
X026674Y010494D01*
X026646Y010539D01*
X026621Y010585D01*
X026600Y010634D01*
X026582Y010684D01*
X026569Y010735D01*
X026559Y010787D01*
X026553Y010840D01*
X026551Y010893D01*
X026551Y021893D02*
X026553Y021946D01*
X026559Y021999D01*
X026569Y022051D01*
X026582Y022102D01*
X026600Y022152D01*
X026621Y022201D01*
X026646Y022248D01*
X026674Y022292D01*
X026706Y022335D01*
X026740Y022375D01*
X026778Y022413D01*
X026818Y022447D01*
X026861Y022479D01*
X026906Y022507D01*
X026952Y022532D01*
X027001Y022553D01*
X027051Y022571D01*
X027102Y022584D01*
X027154Y022594D01*
X027207Y022600D01*
X027260Y022602D01*
X027313Y022600D01*
X027366Y022594D01*
X027418Y022584D01*
X027469Y022571D01*
X027519Y022553D01*
X027568Y022532D01*
X027615Y022507D01*
X027659Y022479D01*
X027702Y022447D01*
X027742Y022413D01*
X027780Y022375D01*
X027814Y022335D01*
X027846Y022292D01*
X027874Y022247D01*
X027899Y022201D01*
X027920Y022152D01*
X027938Y022102D01*
X027951Y022051D01*
X027961Y021999D01*
X027967Y021946D01*
X027969Y021893D01*
X027967Y021840D01*
X027961Y021787D01*
X027951Y021735D01*
X027938Y021684D01*
X027920Y021634D01*
X027899Y021585D01*
X027874Y021538D01*
X027846Y021494D01*
X027814Y021451D01*
X027780Y021411D01*
X027742Y021373D01*
X027702Y021339D01*
X027659Y021307D01*
X027614Y021279D01*
X027568Y021254D01*
X027519Y021233D01*
X027469Y021215D01*
X027418Y021202D01*
X027366Y021192D01*
X027313Y021186D01*
X027260Y021184D01*
X027207Y021186D01*
X027154Y021192D01*
X027102Y021202D01*
X027051Y021215D01*
X027001Y021233D01*
X026952Y021254D01*
X026905Y021279D01*
X026861Y021307D01*
X026818Y021339D01*
X026778Y021373D01*
X026740Y021411D01*
X026706Y021451D01*
X026674Y021494D01*
X026646Y021539D01*
X026621Y021585D01*
X026600Y021634D01*
X026582Y021684D01*
X026569Y021735D01*
X026559Y021787D01*
X026553Y021840D01*
X026551Y021893D01*
X035859Y029235D02*
X035861Y029261D01*
X035867Y029287D01*
X035876Y029311D01*
X035889Y029334D01*
X035906Y029354D01*
X035925Y029372D01*
X035947Y029387D01*
X035970Y029398D01*
X035995Y029406D01*
X036021Y029410D01*
X036047Y029410D01*
X036073Y029406D01*
X036098Y029398D01*
X036122Y029387D01*
X036143Y029372D01*
X036162Y029354D01*
X036179Y029334D01*
X036192Y029311D01*
X036201Y029287D01*
X036207Y029261D01*
X036209Y029235D01*
X036207Y029209D01*
X036201Y029183D01*
X036192Y029159D01*
X036179Y029136D01*
X036162Y029116D01*
X036143Y029098D01*
X036121Y029083D01*
X036098Y029072D01*
X036073Y029064D01*
X036047Y029060D01*
X036021Y029060D01*
X035995Y029064D01*
X035970Y029072D01*
X035946Y029083D01*
X035925Y029098D01*
X035906Y029116D01*
X035889Y029136D01*
X035876Y029159D01*
X035867Y029183D01*
X035861Y029209D01*
X035859Y029235D01*
X039008Y029235D02*
X039010Y029261D01*
X039016Y029287D01*
X039025Y029311D01*
X039038Y029334D01*
X039055Y029354D01*
X039074Y029372D01*
X039096Y029387D01*
X039119Y029398D01*
X039144Y029406D01*
X039170Y029410D01*
X039196Y029410D01*
X039222Y029406D01*
X039247Y029398D01*
X039271Y029387D01*
X039292Y029372D01*
X039311Y029354D01*
X039328Y029334D01*
X039341Y029311D01*
X039350Y029287D01*
X039356Y029261D01*
X039358Y029235D01*
X039356Y029209D01*
X039350Y029183D01*
X039341Y029159D01*
X039328Y029136D01*
X039311Y029116D01*
X039292Y029098D01*
X039270Y029083D01*
X039247Y029072D01*
X039222Y029064D01*
X039196Y029060D01*
X039170Y029060D01*
X039144Y029064D01*
X039119Y029072D01*
X039095Y029083D01*
X039074Y029098D01*
X039055Y029116D01*
X039038Y029136D01*
X039025Y029159D01*
X039016Y029183D01*
X039010Y029209D01*
X039008Y029235D01*
X042665Y027893D02*
X042667Y027946D01*
X042673Y027999D01*
X042683Y028051D01*
X042696Y028102D01*
X042714Y028152D01*
X042735Y028201D01*
X042760Y028248D01*
X042788Y028292D01*
X042820Y028335D01*
X042854Y028375D01*
X042892Y028413D01*
X042932Y028447D01*
X042975Y028479D01*
X043020Y028507D01*
X043066Y028532D01*
X043115Y028553D01*
X043165Y028571D01*
X043216Y028584D01*
X043268Y028594D01*
X043321Y028600D01*
X043374Y028602D01*
X043427Y028600D01*
X043480Y028594D01*
X043532Y028584D01*
X043583Y028571D01*
X043633Y028553D01*
X043682Y028532D01*
X043729Y028507D01*
X043773Y028479D01*
X043816Y028447D01*
X043856Y028413D01*
X043894Y028375D01*
X043928Y028335D01*
X043960Y028292D01*
X043988Y028247D01*
X044013Y028201D01*
X044034Y028152D01*
X044052Y028102D01*
X044065Y028051D01*
X044075Y027999D01*
X044081Y027946D01*
X044083Y027893D01*
X044081Y027840D01*
X044075Y027787D01*
X044065Y027735D01*
X044052Y027684D01*
X044034Y027634D01*
X044013Y027585D01*
X043988Y027538D01*
X043960Y027494D01*
X043928Y027451D01*
X043894Y027411D01*
X043856Y027373D01*
X043816Y027339D01*
X043773Y027307D01*
X043728Y027279D01*
X043682Y027254D01*
X043633Y027233D01*
X043583Y027215D01*
X043532Y027202D01*
X043480Y027192D01*
X043427Y027186D01*
X043374Y027184D01*
X043321Y027186D01*
X043268Y027192D01*
X043216Y027202D01*
X043165Y027215D01*
X043115Y027233D01*
X043066Y027254D01*
X043019Y027279D01*
X042975Y027307D01*
X042932Y027339D01*
X042892Y027373D01*
X042854Y027411D01*
X042820Y027451D01*
X042788Y027494D01*
X042760Y027539D01*
X042735Y027585D01*
X042714Y027634D01*
X042696Y027684D01*
X042683Y027735D01*
X042673Y027787D01*
X042667Y027840D01*
X042665Y027893D01*
X042665Y008893D02*
X042667Y008946D01*
X042673Y008999D01*
X042683Y009051D01*
X042696Y009102D01*
X042714Y009152D01*
X042735Y009201D01*
X042760Y009248D01*
X042788Y009292D01*
X042820Y009335D01*
X042854Y009375D01*
X042892Y009413D01*
X042932Y009447D01*
X042975Y009479D01*
X043020Y009507D01*
X043066Y009532D01*
X043115Y009553D01*
X043165Y009571D01*
X043216Y009584D01*
X043268Y009594D01*
X043321Y009600D01*
X043374Y009602D01*
X043427Y009600D01*
X043480Y009594D01*
X043532Y009584D01*
X043583Y009571D01*
X043633Y009553D01*
X043682Y009532D01*
X043729Y009507D01*
X043773Y009479D01*
X043816Y009447D01*
X043856Y009413D01*
X043894Y009375D01*
X043928Y009335D01*
X043960Y009292D01*
X043988Y009247D01*
X044013Y009201D01*
X044034Y009152D01*
X044052Y009102D01*
X044065Y009051D01*
X044075Y008999D01*
X044081Y008946D01*
X044083Y008893D01*
X044081Y008840D01*
X044075Y008787D01*
X044065Y008735D01*
X044052Y008684D01*
X044034Y008634D01*
X044013Y008585D01*
X043988Y008538D01*
X043960Y008494D01*
X043928Y008451D01*
X043894Y008411D01*
X043856Y008373D01*
X043816Y008339D01*
X043773Y008307D01*
X043728Y008279D01*
X043682Y008254D01*
X043633Y008233D01*
X043583Y008215D01*
X043532Y008202D01*
X043480Y008192D01*
X043427Y008186D01*
X043374Y008184D01*
X043321Y008186D01*
X043268Y008192D01*
X043216Y008202D01*
X043165Y008215D01*
X043115Y008233D01*
X043066Y008254D01*
X043019Y008279D01*
X042975Y008307D01*
X042932Y008339D01*
X042892Y008373D01*
X042854Y008411D01*
X042820Y008451D01*
X042788Y008494D01*
X042760Y008539D01*
X042735Y008585D01*
X042714Y008634D01*
X042696Y008684D01*
X042683Y008735D01*
X042673Y008787D01*
X042667Y008840D01*
X042665Y008893D01*
X006551Y027893D02*
X006553Y027946D01*
X006559Y027999D01*
X006569Y028051D01*
X006582Y028102D01*
X006600Y028152D01*
X006621Y028201D01*
X006646Y028248D01*
X006674Y028292D01*
X006706Y028335D01*
X006740Y028375D01*
X006778Y028413D01*
X006818Y028447D01*
X006861Y028479D01*
X006906Y028507D01*
X006952Y028532D01*
X007001Y028553D01*
X007051Y028571D01*
X007102Y028584D01*
X007154Y028594D01*
X007207Y028600D01*
X007260Y028602D01*
X007313Y028600D01*
X007366Y028594D01*
X007418Y028584D01*
X007469Y028571D01*
X007519Y028553D01*
X007568Y028532D01*
X007615Y028507D01*
X007659Y028479D01*
X007702Y028447D01*
X007742Y028413D01*
X007780Y028375D01*
X007814Y028335D01*
X007846Y028292D01*
X007874Y028247D01*
X007899Y028201D01*
X007920Y028152D01*
X007938Y028102D01*
X007951Y028051D01*
X007961Y027999D01*
X007967Y027946D01*
X007969Y027893D01*
X007967Y027840D01*
X007961Y027787D01*
X007951Y027735D01*
X007938Y027684D01*
X007920Y027634D01*
X007899Y027585D01*
X007874Y027538D01*
X007846Y027494D01*
X007814Y027451D01*
X007780Y027411D01*
X007742Y027373D01*
X007702Y027339D01*
X007659Y027307D01*
X007614Y027279D01*
X007568Y027254D01*
X007519Y027233D01*
X007469Y027215D01*
X007418Y027202D01*
X007366Y027192D01*
X007313Y027186D01*
X007260Y027184D01*
X007207Y027186D01*
X007154Y027192D01*
X007102Y027202D01*
X007051Y027215D01*
X007001Y027233D01*
X006952Y027254D01*
X006905Y027279D01*
X006861Y027307D01*
X006818Y027339D01*
X006778Y027373D01*
X006740Y027411D01*
X006706Y027451D01*
X006674Y027494D01*
X006646Y027539D01*
X006621Y027585D01*
X006600Y027634D01*
X006582Y027684D01*
X006569Y027735D01*
X006559Y027787D01*
X006553Y027840D01*
X006551Y027893D01*
D11*
X011139Y025065D02*
X011139Y021049D01*
X013187Y021049D01*
X013187Y024823D01*
X012945Y025065D01*
X011139Y025065D01*
X014806Y025594D02*
X014806Y024358D01*
X015406Y024358D01*
X015406Y025594D01*
X014806Y025594D01*
X016597Y025594D02*
X016597Y024358D01*
X017197Y024358D01*
X017197Y025594D01*
X016597Y025594D01*
X018710Y028643D02*
X019947Y028643D01*
X019947Y029243D01*
X018710Y029243D01*
X018710Y028643D01*
X029560Y027093D02*
X029560Y026693D01*
X030459Y026693D01*
X030459Y027093D01*
X029560Y027093D01*
X035733Y027967D02*
X035795Y027902D01*
X035855Y027834D01*
X035911Y027764D01*
X035965Y027692D01*
X036015Y027617D01*
X036062Y027540D01*
X036106Y027462D01*
X036147Y027381D01*
X036184Y027299D01*
X036217Y027216D01*
X036247Y027131D01*
X036274Y027045D01*
X036296Y026958D01*
X036315Y026870D01*
X036331Y026781D01*
X036342Y026692D01*
X036350Y026602D01*
X036354Y026512D01*
X036354Y026422D01*
X036350Y026332D01*
X036342Y026242D01*
X036331Y026153D01*
X036315Y026064D01*
X036296Y025976D01*
X036274Y025889D01*
X036247Y025803D01*
X036217Y025718D01*
X036184Y025635D01*
X036147Y025553D01*
X036106Y025472D01*
X036062Y025394D01*
X036015Y025317D01*
X035965Y025242D01*
X035911Y025170D01*
X035855Y025100D01*
X035795Y025032D01*
X035733Y024967D01*
X035717Y024918D01*
X035703Y024867D01*
X035694Y024816D01*
X035689Y024764D01*
X035687Y024712D01*
X035689Y024660D01*
X035695Y024609D01*
X035706Y024557D01*
X035719Y024507D01*
X035737Y024458D01*
X035758Y024411D01*
X035783Y024365D01*
X035811Y024321D01*
X035842Y024279D01*
X035876Y024240D01*
X035913Y024204D01*
X035953Y024170D01*
X035995Y024139D01*
X036039Y024112D01*
X036085Y024088D01*
X036133Y024067D01*
X039133Y024067D01*
X040333Y025267D01*
X040333Y027667D01*
X039133Y028867D01*
X036133Y028867D01*
X036085Y028846D01*
X036039Y028822D01*
X035995Y028795D01*
X035953Y028764D01*
X035913Y028730D01*
X035876Y028694D01*
X035842Y028655D01*
X035811Y028613D01*
X035783Y028569D01*
X035758Y028523D01*
X035737Y028476D01*
X035719Y028427D01*
X035706Y028377D01*
X035695Y028325D01*
X035689Y028274D01*
X035687Y028222D01*
X035689Y028170D01*
X035694Y028118D01*
X035703Y028067D01*
X035717Y028016D01*
X035733Y027967D01*
X039585Y016386D02*
X039585Y015150D01*
X040185Y015150D01*
X040185Y016386D01*
X039585Y016386D01*
X039585Y014636D02*
X040185Y014636D01*
X040185Y013400D01*
X039585Y013400D01*
X039585Y014636D01*
X039503Y013318D02*
X038266Y013318D01*
X038266Y012718D01*
X039503Y012718D01*
X039503Y013318D01*
X043960Y014025D02*
X043960Y015261D01*
X044560Y015261D01*
X044560Y014025D01*
X043960Y014025D01*
X026760Y015243D02*
X026760Y011893D01*
X023010Y011893D01*
X023010Y015243D01*
X026760Y015243D01*
X025514Y014462D02*
X025514Y013226D01*
X024914Y013226D01*
X024914Y014462D01*
X025514Y014462D01*
X024619Y014462D02*
X024619Y013226D01*
X024019Y013226D01*
X024019Y014462D01*
X024619Y014462D01*
D12*
X024631Y014658D02*
X024825Y014658D01*
X024825Y014949D01*
X024926Y014949D02*
X024926Y014707D01*
X024974Y014658D01*
X025071Y014658D01*
X025119Y014707D01*
X025119Y014949D01*
X025221Y014900D02*
X025221Y014803D01*
X025269Y014755D01*
X025414Y014755D01*
X025414Y014658D02*
X025414Y014949D01*
X025269Y014949D01*
X025221Y014900D01*
X025810Y014900D02*
X025858Y014949D01*
X025955Y014949D01*
X026003Y014900D01*
X026003Y014707D01*
X025955Y014658D01*
X025858Y014658D01*
X025810Y014707D01*
X026105Y014658D02*
X026298Y014658D01*
X026105Y014852D01*
X026105Y014900D01*
X026153Y014949D01*
X026250Y014949D01*
X026298Y014900D01*
X026398Y014949D02*
X026495Y014949D01*
X026446Y014949D02*
X026446Y014658D01*
X026398Y014658D02*
X026495Y014658D01*
X026301Y014099D02*
X026349Y014051D01*
X026349Y014003D01*
X026301Y013954D01*
X026204Y013954D01*
X026156Y013906D01*
X026156Y013857D01*
X026204Y013809D01*
X026301Y013809D01*
X026349Y013857D01*
X026301Y014099D02*
X026204Y014099D01*
X026156Y014051D01*
X025958Y014099D02*
X025861Y014099D01*
X025909Y014099D02*
X025909Y013857D01*
X025958Y013809D01*
X026006Y013809D01*
X026055Y013857D01*
X025760Y013857D02*
X025712Y013809D01*
X025615Y013809D01*
X025566Y013857D01*
X025566Y013906D01*
X025615Y013954D01*
X025760Y013954D01*
X025760Y013857D01*
X025760Y013954D02*
X025663Y014051D01*
X025566Y014099D01*
X024530Y014658D02*
X024530Y014949D01*
X024530Y014658D02*
X024337Y014658D01*
X024236Y014707D02*
X024187Y014658D01*
X024090Y014658D01*
X024042Y014707D01*
X024042Y014949D01*
X023941Y014949D02*
X023796Y014949D01*
X023747Y014900D01*
X023747Y014803D01*
X023796Y014755D01*
X023941Y014755D01*
X023941Y014658D02*
X023941Y014949D01*
X024236Y014949D02*
X024236Y014707D01*
X023905Y014099D02*
X023808Y014099D01*
X023760Y014051D01*
X023808Y013954D02*
X023760Y013906D01*
X023760Y013857D01*
X023808Y013809D01*
X023905Y013809D01*
X023954Y013857D01*
X023905Y013954D02*
X023808Y013954D01*
X023905Y013954D02*
X023954Y014003D01*
X023954Y014051D01*
X023905Y014099D01*
X023562Y014099D02*
X023465Y014099D01*
X023514Y014099D02*
X023514Y013857D01*
X023562Y013809D01*
X023611Y013809D01*
X023659Y013857D01*
X023364Y013857D02*
X023316Y013809D01*
X023219Y013809D01*
X023171Y013857D01*
X023171Y013954D01*
X023219Y014003D01*
X023268Y014003D01*
X023364Y013954D01*
X023364Y014099D01*
X023171Y014099D01*
X023351Y013050D02*
X023351Y012760D01*
X023255Y012760D02*
X023448Y012760D01*
X023549Y012760D02*
X023646Y012856D01*
X023598Y012856D02*
X023743Y012856D01*
X023743Y012760D02*
X023743Y013050D01*
X023598Y013050D01*
X023549Y013001D01*
X023549Y012905D01*
X023598Y012856D01*
X023448Y012953D02*
X023351Y013050D01*
X023395Y011493D02*
X023249Y011493D01*
X023201Y011444D01*
X023201Y011348D01*
X023249Y011299D01*
X023395Y011299D01*
X023395Y011202D02*
X023395Y011493D01*
X023298Y011299D02*
X023201Y011202D01*
X023100Y011202D02*
X022906Y011202D01*
X023003Y011202D02*
X023003Y011493D01*
X023100Y011396D01*
X022805Y011444D02*
X022757Y011493D01*
X022660Y011493D01*
X022612Y011444D01*
X022612Y011396D01*
X022805Y011202D01*
X022612Y011202D01*
X022395Y011202D02*
X022395Y011493D01*
X022249Y011493D01*
X022201Y011444D01*
X022201Y011348D01*
X022249Y011299D01*
X022395Y011299D01*
X022298Y011299D02*
X022201Y011202D01*
X022100Y011202D02*
X021906Y011396D01*
X021906Y011444D01*
X021955Y011493D01*
X022051Y011493D01*
X022100Y011444D01*
X022100Y011202D02*
X021906Y011202D01*
X021805Y011202D02*
X021612Y011202D01*
X021708Y011202D02*
X021708Y011493D01*
X021805Y011396D01*
X021395Y011493D02*
X021395Y011202D01*
X021395Y011299D02*
X021249Y011299D01*
X021201Y011348D01*
X021201Y011444D01*
X021249Y011493D01*
X021395Y011493D01*
X021298Y011299D02*
X021201Y011202D01*
X021100Y011202D02*
X020906Y011396D01*
X020906Y011444D01*
X020955Y011493D01*
X021051Y011493D01*
X021100Y011444D01*
X021100Y011202D02*
X020906Y011202D01*
X020805Y011202D02*
X020612Y011396D01*
X020612Y011444D01*
X020660Y011493D01*
X020757Y011493D01*
X020805Y011444D01*
X020805Y011202D02*
X020612Y011202D01*
X020395Y011202D02*
X020395Y011493D01*
X020249Y011493D01*
X020201Y011444D01*
X020201Y011348D01*
X020249Y011299D01*
X020395Y011299D01*
X020298Y011299D02*
X020201Y011202D01*
X020100Y011202D02*
X019906Y011396D01*
X019906Y011444D01*
X019955Y011493D01*
X020051Y011493D01*
X020100Y011444D01*
X020100Y011202D02*
X019906Y011202D01*
X019805Y011251D02*
X019757Y011202D01*
X019660Y011202D01*
X019612Y011251D01*
X019612Y011299D01*
X019660Y011348D01*
X019708Y011348D01*
X019660Y011348D02*
X019612Y011396D01*
X019612Y011444D01*
X019660Y011493D01*
X019757Y011493D01*
X019805Y011444D01*
X023862Y011202D02*
X024055Y011202D01*
X023958Y011202D02*
X023958Y011493D01*
X024055Y011396D01*
X024156Y011202D02*
X024350Y011202D01*
X024253Y011202D02*
X024253Y011493D01*
X024350Y011396D01*
X024451Y011444D02*
X024451Y011348D01*
X024499Y011299D01*
X024645Y011299D01*
X024645Y011202D02*
X024645Y011493D01*
X024499Y011493D01*
X024451Y011444D01*
X024548Y011299D02*
X024451Y011202D01*
X024862Y011251D02*
X024862Y011444D01*
X025055Y011251D01*
X025007Y011202D01*
X024910Y011202D01*
X024862Y011251D01*
X025055Y011251D02*
X025055Y011444D01*
X025007Y011493D01*
X024910Y011493D01*
X024862Y011444D01*
X025156Y011202D02*
X025350Y011202D01*
X025253Y011202D02*
X025253Y011493D01*
X025350Y011396D01*
X025451Y011444D02*
X025451Y011348D01*
X025499Y011299D01*
X025645Y011299D01*
X025645Y011202D02*
X025645Y011493D01*
X025499Y011493D01*
X025451Y011444D01*
X025548Y011299D02*
X025451Y011202D01*
X025800Y012760D02*
X025994Y012760D01*
X025800Y012953D01*
X025800Y013001D01*
X025849Y013050D01*
X025946Y013050D01*
X025994Y013001D01*
X026095Y013001D02*
X026095Y012905D01*
X026143Y012856D01*
X026289Y012856D01*
X026289Y012760D02*
X026289Y013050D01*
X026143Y013050D01*
X026095Y013001D01*
X026192Y012856D02*
X026095Y012760D01*
X029142Y018980D02*
X029142Y019270D01*
X029287Y019125D01*
X029094Y019125D01*
X029389Y019173D02*
X029582Y018980D01*
X029389Y018980D01*
X029389Y019173D02*
X029389Y019222D01*
X029437Y019270D01*
X029534Y019270D01*
X029582Y019222D01*
X029683Y019222D02*
X029683Y019125D01*
X029732Y019077D01*
X029877Y019077D01*
X029780Y019077D02*
X029683Y018980D01*
X029877Y018980D02*
X029877Y019270D01*
X029732Y019270D01*
X029683Y019222D01*
X030297Y019152D02*
X030297Y018958D01*
X030346Y018910D01*
X030442Y018910D01*
X030491Y018958D01*
X030442Y019055D02*
X030297Y019055D01*
X030297Y019152D02*
X030346Y019200D01*
X030442Y019200D01*
X030491Y019152D01*
X030491Y019103D01*
X030442Y019055D01*
X030592Y019055D02*
X030640Y019007D01*
X030785Y019007D01*
X030689Y019007D02*
X030592Y018910D01*
X030592Y019055D02*
X030592Y019152D01*
X030640Y019200D01*
X030785Y019200D01*
X030785Y018910D01*
X031206Y019029D02*
X031206Y019077D01*
X031255Y019125D01*
X031351Y019125D01*
X031400Y019174D01*
X031400Y019222D01*
X031351Y019271D01*
X031255Y019271D01*
X031206Y019222D01*
X031206Y019174D01*
X031255Y019125D01*
X031351Y019125D02*
X031400Y019077D01*
X031400Y019029D01*
X031351Y018980D01*
X031255Y018980D01*
X031206Y019029D01*
X031501Y018980D02*
X031598Y019077D01*
X031549Y019077D02*
X031695Y019077D01*
X031695Y018980D02*
X031695Y019271D01*
X031549Y019271D01*
X031501Y019222D01*
X031501Y019125D01*
X031549Y019077D01*
X032206Y019478D02*
X032400Y019285D01*
X032400Y019236D01*
X032501Y019236D02*
X032598Y019333D01*
X032549Y019333D02*
X032695Y019333D01*
X032695Y019236D02*
X032695Y019527D01*
X032549Y019527D01*
X032501Y019478D01*
X032501Y019381D01*
X032549Y019333D01*
X032400Y019527D02*
X032206Y019527D01*
X032206Y019478D01*
X033206Y019527D02*
X033303Y019478D01*
X033400Y019381D01*
X033400Y019285D01*
X033351Y019236D01*
X033255Y019236D01*
X033206Y019285D01*
X033206Y019333D01*
X033255Y019381D01*
X033400Y019381D01*
X033501Y019381D02*
X033549Y019333D01*
X033695Y019333D01*
X033695Y019236D02*
X033695Y019527D01*
X033549Y019527D01*
X033501Y019478D01*
X033501Y019381D01*
X033598Y019333D02*
X033501Y019236D01*
X034206Y019253D02*
X034206Y019157D01*
X034255Y019108D01*
X034351Y019108D01*
X034400Y019157D01*
X034400Y019253D02*
X034303Y019302D01*
X034255Y019302D01*
X034206Y019253D01*
X034206Y019399D02*
X034400Y019399D01*
X034400Y019253D01*
X034501Y019253D02*
X034549Y019205D01*
X034695Y019205D01*
X034695Y019108D02*
X034695Y019399D01*
X034549Y019399D01*
X034501Y019350D01*
X034501Y019253D01*
X034598Y019205D02*
X034501Y019108D01*
X035212Y019157D02*
X035260Y019108D01*
X035357Y019108D01*
X035405Y019157D01*
X035212Y019350D01*
X035212Y019157D01*
X035212Y019350D02*
X035260Y019399D01*
X035357Y019399D01*
X035405Y019350D01*
X035405Y019157D01*
X035506Y019108D02*
X035700Y019108D01*
X035506Y019302D01*
X035506Y019350D01*
X035555Y019399D01*
X035651Y019399D01*
X035700Y019350D01*
X035801Y019350D02*
X035801Y019253D01*
X035849Y019205D01*
X035995Y019205D01*
X035995Y019108D02*
X035995Y019399D01*
X035849Y019399D01*
X035801Y019350D01*
X035898Y019205D02*
X035801Y019108D01*
X036212Y019157D02*
X036212Y019350D01*
X036260Y019399D01*
X036357Y019399D01*
X036405Y019350D01*
X036405Y019302D01*
X036357Y019253D01*
X036212Y019253D01*
X036212Y019157D02*
X036260Y019108D01*
X036357Y019108D01*
X036405Y019157D01*
X036506Y019108D02*
X036700Y019108D01*
X036603Y019108D02*
X036603Y019399D01*
X036700Y019302D01*
X036801Y019350D02*
X036801Y019253D01*
X036849Y019205D01*
X036995Y019205D01*
X036995Y019108D02*
X036995Y019399D01*
X036849Y019399D01*
X036801Y019350D01*
X036898Y019205D02*
X036801Y019108D01*
X037212Y019157D02*
X037260Y019108D01*
X037357Y019108D01*
X037405Y019157D01*
X037405Y019205D01*
X037357Y019253D01*
X037260Y019253D01*
X037212Y019205D01*
X037212Y019157D01*
X037260Y019253D02*
X037212Y019302D01*
X037212Y019350D01*
X037260Y019399D01*
X037357Y019399D01*
X037405Y019350D01*
X037405Y019302D01*
X037357Y019253D01*
X037506Y019108D02*
X037700Y019108D01*
X037603Y019108D02*
X037603Y019399D01*
X037700Y019302D01*
X037801Y019350D02*
X037801Y019253D01*
X037849Y019205D01*
X037995Y019205D01*
X037995Y019108D02*
X037995Y019399D01*
X037849Y019399D01*
X037801Y019350D01*
X037898Y019205D02*
X037801Y019108D01*
X038212Y019350D02*
X038212Y019399D01*
X038405Y019399D01*
X038603Y019399D02*
X038603Y019108D01*
X038700Y019108D02*
X038506Y019108D01*
X038405Y019108D02*
X038405Y019157D01*
X038212Y019350D01*
X038603Y019399D02*
X038700Y019302D01*
X038801Y019350D02*
X038849Y019399D01*
X038995Y019399D01*
X038995Y019108D01*
X038995Y019205D02*
X038849Y019205D01*
X038801Y019253D01*
X038801Y019350D01*
X038898Y019205D02*
X038801Y019108D01*
X039212Y019157D02*
X039212Y019205D01*
X039260Y019253D01*
X039405Y019253D01*
X039405Y019157D01*
X039357Y019108D01*
X039260Y019108D01*
X039212Y019157D01*
X039308Y019350D02*
X039405Y019253D01*
X039308Y019350D02*
X039212Y019399D01*
X039603Y019399D02*
X039603Y019108D01*
X039700Y019108D02*
X039506Y019108D01*
X039700Y019302D02*
X039603Y019399D01*
X039801Y019350D02*
X039801Y019253D01*
X039849Y019205D01*
X039995Y019205D01*
X039995Y019108D02*
X039995Y019399D01*
X039849Y019399D01*
X039801Y019350D01*
X039898Y019205D02*
X039801Y019108D01*
X040212Y019157D02*
X040260Y019108D01*
X040357Y019108D01*
X040405Y019157D01*
X040405Y019253D02*
X040308Y019302D01*
X040260Y019302D01*
X040212Y019253D01*
X040212Y019157D01*
X040405Y019253D02*
X040405Y019399D01*
X040212Y019399D01*
X040603Y019399D02*
X040603Y019108D01*
X040700Y019108D02*
X040506Y019108D01*
X040700Y019302D02*
X040603Y019399D01*
X040801Y019350D02*
X040849Y019399D01*
X040995Y019399D01*
X040995Y019108D01*
X040995Y019205D02*
X040849Y019205D01*
X040801Y019253D01*
X040801Y019350D01*
X040898Y019205D02*
X040801Y019108D01*
X041212Y019253D02*
X041405Y019253D01*
X041260Y019399D01*
X041260Y019108D01*
X041506Y019108D02*
X041700Y019108D01*
X041603Y019108D02*
X041603Y019399D01*
X041700Y019302D01*
X041801Y019350D02*
X041801Y019253D01*
X041849Y019205D01*
X041995Y019205D01*
X041995Y019108D02*
X041995Y019399D01*
X041849Y019399D01*
X041801Y019350D01*
X041898Y019205D02*
X041801Y019108D01*
X042212Y019157D02*
X042260Y019108D01*
X042357Y019108D01*
X042405Y019157D01*
X042506Y019108D02*
X042700Y019108D01*
X042603Y019108D02*
X042603Y019399D01*
X042700Y019302D01*
X042801Y019350D02*
X042849Y019399D01*
X042995Y019399D01*
X042995Y019108D01*
X042995Y019205D02*
X042849Y019205D01*
X042801Y019253D01*
X042801Y019350D01*
X042898Y019205D02*
X042801Y019108D01*
X042405Y019350D02*
X042357Y019399D01*
X042260Y019399D01*
X042212Y019350D01*
X042212Y019302D01*
X042260Y019253D01*
X042212Y019205D01*
X042212Y019157D01*
X042260Y019253D02*
X042308Y019253D01*
X040491Y016281D02*
X040443Y016281D01*
X040395Y016232D01*
X040395Y016136D01*
X040443Y016087D01*
X040491Y016087D01*
X040540Y016136D01*
X040540Y016232D01*
X040491Y016281D01*
X040395Y016232D02*
X040346Y016281D01*
X040298Y016281D01*
X040250Y016232D01*
X040250Y016136D01*
X040298Y016087D01*
X040346Y016087D01*
X040395Y016136D01*
X040250Y015986D02*
X040250Y015793D01*
X040250Y015889D02*
X040540Y015889D01*
X040443Y015793D01*
X040540Y015691D02*
X040540Y015595D01*
X040540Y015643D02*
X040298Y015643D01*
X040250Y015595D01*
X040250Y015546D01*
X040298Y015498D01*
X040298Y015397D02*
X040250Y015348D01*
X040250Y015252D01*
X040298Y015203D01*
X040395Y015252D02*
X040395Y015348D01*
X040346Y015397D01*
X040298Y015397D01*
X040395Y015252D02*
X040443Y015203D01*
X040491Y015203D01*
X040540Y015252D01*
X040540Y015348D01*
X040491Y015397D01*
X040491Y014571D02*
X040540Y014522D01*
X040540Y014426D01*
X040491Y014377D01*
X040443Y014377D01*
X040395Y014426D01*
X040395Y014571D01*
X040491Y014571D02*
X040298Y014571D01*
X040250Y014522D01*
X040250Y014426D01*
X040298Y014377D01*
X040250Y014276D02*
X040250Y014083D01*
X040250Y014179D02*
X040540Y014179D01*
X040443Y014083D01*
X040540Y013981D02*
X040540Y013885D01*
X040540Y013933D02*
X040298Y013933D01*
X040250Y013885D01*
X040250Y013836D01*
X040298Y013788D01*
X040298Y013687D02*
X040250Y013638D01*
X040250Y013542D01*
X040298Y013493D01*
X040395Y013542D02*
X040395Y013638D01*
X040346Y013687D01*
X040298Y013687D01*
X040395Y013542D02*
X040443Y013493D01*
X040491Y013493D01*
X040540Y013542D01*
X040540Y013638D01*
X040491Y013687D01*
X041143Y013204D02*
X041390Y013204D01*
X041390Y012833D01*
X041511Y012833D02*
X041758Y012833D01*
X041758Y013204D01*
X041511Y013204D01*
X041390Y013018D02*
X041266Y013018D01*
X041634Y013018D02*
X041758Y013018D01*
X041879Y013018D02*
X041879Y013142D01*
X041941Y013204D01*
X042126Y013204D01*
X042126Y012833D01*
X042248Y012833D02*
X042248Y013080D01*
X042371Y013204D01*
X042495Y013080D01*
X042495Y012833D01*
X042495Y013018D02*
X042248Y013018D01*
X042126Y012957D02*
X041941Y012957D01*
X041879Y013018D01*
X042003Y012957D02*
X041879Y012833D01*
X044145Y012888D02*
X044193Y012840D01*
X044145Y012888D02*
X044145Y012985D01*
X044193Y013033D01*
X044241Y013033D01*
X044290Y012985D01*
X044290Y012888D01*
X044338Y012840D01*
X044386Y012840D01*
X044435Y012888D01*
X044435Y012985D01*
X044386Y013033D01*
X044435Y013231D02*
X044435Y013328D01*
X044435Y013279D02*
X044193Y013279D01*
X044145Y013231D01*
X044145Y013183D01*
X044193Y013134D01*
X044145Y013429D02*
X044145Y013623D01*
X044145Y013526D02*
X044435Y013526D01*
X044338Y013429D01*
X044290Y013724D02*
X044338Y013820D01*
X044338Y013869D01*
X044290Y013917D01*
X044193Y013917D01*
X044145Y013869D01*
X044145Y013772D01*
X044193Y013724D01*
X044290Y013724D02*
X044435Y013724D01*
X044435Y013917D01*
X039398Y013630D02*
X039398Y013582D01*
X039350Y013533D01*
X039253Y013533D01*
X039205Y013485D01*
X039205Y013437D01*
X039253Y013388D01*
X039350Y013388D01*
X039398Y013437D01*
X039398Y013630D02*
X039350Y013679D01*
X039253Y013679D01*
X039205Y013630D01*
X039007Y013679D02*
X038910Y013679D01*
X038958Y013679D02*
X038958Y013437D01*
X039007Y013388D01*
X039055Y013388D01*
X039103Y013437D01*
X038809Y013388D02*
X038615Y013388D01*
X038712Y013388D02*
X038712Y013679D01*
X038809Y013582D01*
X038514Y013630D02*
X038466Y013679D01*
X038369Y013679D01*
X038321Y013630D01*
X038514Y013437D01*
X038466Y013388D01*
X038369Y013388D01*
X038321Y013437D01*
X038321Y013630D01*
X038514Y013630D02*
X038514Y013437D01*
X035395Y025038D02*
X035395Y025183D01*
X035346Y025231D01*
X035250Y025231D01*
X035201Y025183D01*
X035201Y025038D01*
X035201Y025134D02*
X035105Y025231D01*
X035105Y025038D02*
X035395Y025038D01*
X035395Y025332D02*
X035395Y025526D01*
X035395Y025429D02*
X035105Y025429D01*
X035153Y025627D02*
X035105Y025675D01*
X035105Y025772D01*
X035153Y025821D01*
X035346Y025821D02*
X035395Y025772D01*
X035395Y025675D01*
X035346Y025627D01*
X035153Y025627D01*
X034915Y025823D02*
X034866Y025774D01*
X034673Y025774D01*
X034625Y025823D01*
X034625Y025919D01*
X034673Y025968D01*
X034721Y026069D02*
X034721Y026214D01*
X034770Y026263D01*
X034866Y026263D01*
X034915Y026214D01*
X034915Y026069D01*
X034625Y026069D01*
X034721Y026166D02*
X034625Y026263D01*
X034625Y026364D02*
X034625Y026557D01*
X034625Y026460D02*
X034915Y026460D01*
X034818Y026364D01*
X035105Y026361D02*
X035153Y026410D01*
X035201Y026410D01*
X035250Y026361D01*
X035250Y026216D01*
X035395Y026216D02*
X035395Y026361D01*
X035346Y026410D01*
X035298Y026410D01*
X035250Y026361D01*
X035105Y026361D02*
X035105Y026216D01*
X035395Y026216D01*
X035298Y026511D02*
X035395Y026608D01*
X035298Y026704D01*
X035105Y026704D01*
X035250Y026704D02*
X035250Y026511D01*
X035298Y026511D02*
X035105Y026511D01*
X034915Y026707D02*
X034915Y026803D01*
X034866Y026852D01*
X034818Y026852D01*
X034625Y026658D01*
X034625Y026852D01*
X034625Y026953D02*
X034818Y027146D01*
X034866Y027146D01*
X034915Y027098D01*
X034915Y027001D01*
X034866Y026953D01*
X034625Y026953D02*
X034625Y027146D01*
X034673Y027248D02*
X034625Y027296D01*
X034625Y027393D01*
X034673Y027441D01*
X034866Y027441D01*
X034673Y027248D01*
X034866Y027248D01*
X034915Y027296D01*
X034915Y027393D01*
X034866Y027441D01*
X035105Y027395D02*
X035105Y027588D01*
X035105Y027690D02*
X035395Y027690D01*
X035395Y027835D01*
X035346Y027883D01*
X035250Y027883D01*
X035201Y027835D01*
X035201Y027690D01*
X035201Y027786D02*
X035105Y027883D01*
X035105Y028081D02*
X035250Y028081D01*
X035346Y028178D01*
X035395Y028178D01*
X035250Y028081D02*
X035346Y027984D01*
X035395Y027984D01*
X035395Y027588D02*
X035395Y027395D01*
X035105Y027395D01*
X035250Y027395D02*
X035250Y027492D01*
X035395Y027294D02*
X035395Y027100D01*
X035395Y027197D02*
X035105Y027197D01*
X035105Y026902D02*
X035395Y026902D01*
X035395Y026806D02*
X035395Y026999D01*
X034915Y026707D02*
X034866Y026658D01*
X034866Y025968D02*
X034915Y025919D01*
X034915Y025823D01*
X030395Y027407D02*
X030346Y027358D01*
X030249Y027358D01*
X030201Y027407D01*
X030201Y027455D01*
X030249Y027503D01*
X030346Y027503D01*
X030395Y027552D01*
X030395Y027600D01*
X030346Y027649D01*
X030249Y027649D01*
X030201Y027600D01*
X030003Y027649D02*
X029906Y027649D01*
X029955Y027649D02*
X029955Y027407D01*
X030003Y027358D01*
X030051Y027358D01*
X030100Y027407D01*
X029805Y027358D02*
X029612Y027358D01*
X029805Y027358D02*
X029612Y027552D01*
X029612Y027600D01*
X029660Y027649D01*
X029757Y027649D01*
X029805Y027600D01*
X019842Y029515D02*
X019794Y029467D01*
X019697Y029467D01*
X019649Y029515D01*
X019649Y029564D01*
X019697Y029612D01*
X019794Y029612D01*
X019842Y029661D01*
X019842Y029709D01*
X019794Y029757D01*
X019697Y029757D01*
X019649Y029709D01*
X019451Y029757D02*
X019354Y029757D01*
X019402Y029757D02*
X019402Y029515D01*
X019451Y029467D01*
X019499Y029467D01*
X019547Y029515D01*
X019253Y029467D02*
X019059Y029467D01*
X019156Y029467D02*
X019156Y029757D01*
X019253Y029661D01*
X018958Y029757D02*
X018765Y029757D01*
X018765Y029709D01*
X018958Y029515D01*
X018958Y029467D01*
X017141Y026698D02*
X017092Y026601D01*
X016996Y026504D01*
X016996Y026650D01*
X016947Y026698D01*
X016899Y026698D01*
X016850Y026650D01*
X016850Y026553D01*
X016899Y026504D01*
X016996Y026504D01*
X016850Y026403D02*
X016850Y026210D01*
X016850Y026307D02*
X017141Y026307D01*
X017044Y026210D01*
X017141Y026109D02*
X017141Y026012D01*
X017141Y026060D02*
X016899Y026060D01*
X016850Y026012D01*
X016850Y025964D01*
X016899Y025915D01*
X016899Y025814D02*
X016850Y025766D01*
X016850Y025669D01*
X016899Y025621D01*
X016996Y025669D02*
X016996Y025766D01*
X016947Y025814D01*
X016899Y025814D01*
X016996Y025669D02*
X017044Y025621D01*
X017092Y025621D01*
X017141Y025669D01*
X017141Y025766D01*
X017092Y025814D01*
X015349Y025766D02*
X015349Y025669D01*
X015301Y025621D01*
X015253Y025621D01*
X015204Y025669D01*
X015204Y025766D01*
X015156Y025814D01*
X015108Y025814D01*
X015059Y025766D01*
X015059Y025669D01*
X015108Y025621D01*
X015301Y025814D02*
X015349Y025766D01*
X015349Y026012D02*
X015349Y026109D01*
X015349Y026060D02*
X015108Y026060D01*
X015059Y026012D01*
X015059Y025964D01*
X015108Y025915D01*
X015059Y026210D02*
X015059Y026403D01*
X015059Y026307D02*
X015349Y026307D01*
X015253Y026210D01*
X015204Y026504D02*
X015204Y026698D01*
X015059Y026650D02*
X015349Y026650D01*
X015204Y026504D01*
X015177Y020371D02*
X015301Y020371D01*
X015362Y020309D01*
X015362Y020248D01*
X015301Y020186D01*
X015177Y020186D01*
X015116Y020124D01*
X015116Y020063D01*
X015177Y020001D01*
X015301Y020001D01*
X015362Y020063D01*
X015484Y020063D02*
X015484Y020371D01*
X015731Y020371D02*
X015731Y020063D01*
X015669Y020001D01*
X015546Y020001D01*
X015484Y020063D01*
X015177Y020371D02*
X015116Y020309D01*
X014994Y020371D02*
X014809Y020371D01*
X014747Y020309D01*
X014747Y020248D01*
X014809Y020186D01*
X014994Y020186D01*
X014809Y020186D02*
X014747Y020124D01*
X014747Y020063D01*
X014809Y020001D01*
X014994Y020001D01*
X014994Y020371D01*
X014257Y020371D02*
X014011Y020371D01*
X014134Y020371D02*
X014134Y020001D01*
X013889Y020063D02*
X013827Y020001D01*
X013704Y020001D01*
X013642Y020063D01*
X013642Y020309D01*
X013704Y020371D01*
X013827Y020371D01*
X013889Y020309D01*
X013889Y020063D01*
X013153Y020371D02*
X012906Y020371D01*
X012784Y020371D02*
X012537Y020371D01*
X012416Y020371D02*
X012416Y020001D01*
X012169Y020001D01*
X012661Y020001D02*
X012661Y020371D01*
X013029Y020371D02*
X013029Y020001D01*
D13*
X011907Y020754D02*
X011907Y018194D01*
X008580Y018194D01*
X008580Y026895D01*
X017537Y026895D01*
X017537Y024080D01*
X017025Y024080D01*
X017025Y020754D01*
X011907Y020754D01*
X013263Y025057D02*
X013265Y025081D01*
X013271Y025105D01*
X013280Y025127D01*
X013293Y025147D01*
X013309Y025165D01*
X013328Y025180D01*
X013349Y025193D01*
X013371Y025201D01*
X013395Y025206D01*
X013419Y025207D01*
X013443Y025204D01*
X013466Y025197D01*
X013488Y025187D01*
X013508Y025173D01*
X013525Y025156D01*
X013540Y025137D01*
X013551Y025116D01*
X013559Y025093D01*
X013563Y025069D01*
X013563Y025045D01*
X013559Y025021D01*
X013551Y024998D01*
X013540Y024977D01*
X013525Y024958D01*
X013508Y024941D01*
X013488Y024927D01*
X013466Y024917D01*
X013443Y024910D01*
X013419Y024907D01*
X013395Y024908D01*
X013371Y024913D01*
X013349Y024921D01*
X013328Y024934D01*
X013309Y024949D01*
X013293Y024967D01*
X013280Y024987D01*
X013271Y025009D01*
X013265Y025033D01*
X013263Y025057D01*
X039760Y013393D02*
X039760Y012643D01*
X042635Y012643D01*
X042635Y013393D01*
X039760Y013393D01*
D14*
X039535Y013693D02*
X038235Y013693D01*
X038235Y016093D01*
X039535Y016093D01*
X039535Y013693D01*
X040760Y013743D02*
X042260Y013743D01*
X042260Y016543D01*
X040760Y016543D01*
X040760Y013743D01*
X041510Y014943D02*
X041560Y014993D01*
X041460Y014993D01*
X041410Y015043D01*
X041610Y015043D01*
X041660Y015093D01*
X041360Y015093D01*
X041310Y015143D01*
X041710Y015143D01*
X041760Y015193D01*
X041260Y015193D01*
X041210Y015243D01*
X041810Y015243D01*
X041860Y015293D01*
X041160Y015293D01*
X041110Y015343D01*
X041910Y015343D01*
X041860Y015293D01*
X041810Y015243D02*
X041760Y015193D01*
X041710Y015143D02*
X041660Y015093D01*
X041610Y015043D02*
X041560Y014993D01*
X041510Y014943D02*
X041460Y014993D01*
X041410Y015043D02*
X041360Y015093D01*
X041310Y015143D02*
X041260Y015193D01*
X041210Y015243D02*
X041160Y015293D01*
X042735Y015343D02*
X042785Y015293D01*
X043485Y015293D01*
X043435Y015243D01*
X042835Y015243D01*
X042885Y015193D01*
X043385Y015193D01*
X043335Y015143D01*
X042935Y015143D01*
X042985Y015093D01*
X043285Y015093D01*
X043235Y015043D01*
X043035Y015043D01*
X043085Y014993D01*
X043185Y014993D01*
X043235Y015043D01*
X043285Y015093D02*
X043335Y015143D01*
X043385Y015193D02*
X043435Y015243D01*
X043485Y015293D02*
X043535Y015343D01*
X042735Y015343D01*
X042785Y015293D02*
X042835Y015243D01*
X042885Y015193D02*
X042935Y015143D01*
X042985Y015093D02*
X043035Y015043D01*
X043085Y014993D02*
X043135Y014943D01*
X043185Y014993D01*
X043885Y013743D02*
X042385Y013743D01*
X042385Y016543D01*
X043885Y016543D01*
X043885Y013743D01*
X042760Y017743D02*
X042260Y017743D01*
X042260Y018843D01*
X042760Y018843D01*
X042760Y017743D01*
X041760Y017743D02*
X041760Y018843D01*
X041260Y018843D01*
X041260Y017743D01*
X041760Y017743D01*
X040760Y017743D02*
X040260Y017743D01*
X040260Y018843D01*
X040760Y018843D01*
X040760Y017743D01*
X039760Y017743D02*
X039260Y017743D01*
X039260Y018843D01*
X039760Y018843D01*
X039760Y017743D01*
X038760Y017743D02*
X038260Y017743D01*
X038260Y018843D01*
X038760Y018843D01*
X038760Y017743D01*
X037760Y017743D02*
X037760Y018843D01*
X037260Y018843D01*
X037260Y017743D01*
X037760Y017743D01*
X036760Y017743D02*
X036260Y017743D01*
X036260Y018843D01*
X036760Y018843D01*
X036760Y017743D01*
X035760Y017743D02*
X035260Y017743D01*
X035260Y018843D01*
X035760Y018843D01*
X035760Y017743D01*
X034760Y017743D02*
X034260Y017743D01*
X034260Y018843D01*
X034760Y018843D01*
X034760Y017743D01*
X033760Y017743D02*
X033260Y017743D01*
X033260Y018843D01*
X033760Y018843D01*
X033760Y017743D01*
X032760Y017743D02*
X032760Y018843D01*
X032260Y018843D01*
X032260Y017743D01*
X032760Y017743D01*
X031760Y017743D02*
X031260Y017743D01*
X031260Y018843D01*
X031760Y018843D01*
X031760Y017743D01*
X030760Y017743D02*
X030260Y017743D01*
X030260Y018843D01*
X030760Y018843D01*
X030760Y017743D01*
X029760Y017743D02*
X029260Y017743D01*
X029260Y018843D01*
X029760Y018843D01*
X029760Y017743D01*
X025464Y013115D02*
X024964Y013115D01*
X024964Y012015D01*
X025464Y012015D01*
X025464Y013115D01*
X024569Y013115D02*
X024069Y013115D01*
X024069Y012015D01*
X024569Y012015D01*
X024569Y013115D01*
X024510Y011093D02*
X024010Y011093D01*
X024010Y009993D01*
X024510Y009993D01*
X024510Y011093D01*
X025010Y011093D02*
X025010Y009993D01*
X025510Y009993D01*
X025510Y011093D01*
X025010Y011093D01*
X023260Y011093D02*
X023260Y009993D01*
X022760Y009993D01*
X022760Y011093D01*
X023260Y011093D01*
X022260Y011093D02*
X021760Y011093D01*
X021760Y009993D01*
X022260Y009993D01*
X022260Y011093D01*
X021260Y011093D02*
X020760Y011093D01*
X020760Y009993D01*
X021260Y009993D01*
X021260Y011093D01*
X020260Y011093D02*
X019760Y011093D01*
X019760Y009993D01*
X020260Y009993D01*
X020260Y011093D01*
X019735Y011743D02*
X019735Y013043D01*
X016785Y013043D01*
X016785Y011743D01*
X019735Y011743D01*
X018935Y012393D02*
X018635Y012393D01*
X018785Y012243D02*
X018785Y012543D01*
X019735Y013243D02*
X019735Y014543D01*
X016785Y014543D01*
X016785Y013243D01*
X019735Y013243D01*
X018935Y013893D02*
X018635Y013893D01*
X018785Y013743D02*
X018785Y014043D01*
X018010Y010193D02*
X018010Y009993D01*
X017910Y010093D02*
X018110Y010093D01*
X011389Y019692D02*
X010889Y019692D01*
X010889Y020792D01*
X011389Y020792D01*
X011389Y019692D01*
X009898Y021911D02*
X008798Y021911D01*
X008798Y022411D01*
X009898Y022411D01*
X009898Y021911D01*
X009998Y022579D02*
X008698Y022579D01*
X008698Y023279D01*
X009998Y023279D01*
X009998Y022579D01*
X014300Y023702D02*
X014300Y024202D01*
X015400Y024202D01*
X015400Y023702D01*
X014300Y023702D01*
X014556Y022923D02*
X014556Y022423D01*
X015656Y022423D01*
X015656Y022923D01*
X014556Y022923D01*
X014556Y022411D02*
X014556Y021911D01*
X015656Y021911D01*
X015656Y022411D01*
X014556Y022411D01*
X016273Y022809D02*
X016273Y021709D01*
X016773Y021709D01*
X016773Y022809D01*
X016273Y022809D01*
D15*
X016135Y022901D02*
X016135Y023005D01*
X016084Y023057D01*
X016032Y023057D01*
X015980Y023005D01*
X015928Y023057D01*
X015877Y023057D01*
X015825Y023005D01*
X015825Y022901D01*
X015877Y022850D01*
X015825Y022734D02*
X015928Y022631D01*
X015928Y022683D02*
X015928Y022527D01*
X015825Y022527D02*
X016135Y022527D01*
X016135Y022683D01*
X016084Y022734D01*
X015980Y022734D01*
X015928Y022683D01*
X016084Y022850D02*
X016135Y022901D01*
X015980Y022953D02*
X015980Y023005D01*
X016032Y023172D02*
X015980Y023224D01*
X015980Y023379D01*
X015877Y023379D02*
X016084Y023379D01*
X016135Y023327D01*
X016135Y023224D01*
X016084Y023172D01*
X016032Y023172D01*
X015877Y023172D02*
X015825Y023224D01*
X015825Y023327D01*
X015877Y023379D01*
X015920Y023797D02*
X015920Y023849D01*
X015713Y024056D01*
X015713Y024108D01*
X015920Y024108D01*
X016139Y024108D02*
X016139Y023797D01*
X016242Y023797D02*
X016035Y023797D01*
X016242Y024004D02*
X016139Y024108D01*
X016358Y024056D02*
X016409Y024108D01*
X016513Y024108D01*
X016565Y024056D01*
X016565Y023849D01*
X016513Y023797D01*
X016409Y023797D01*
X016358Y023849D01*
X016095Y022379D02*
X016044Y022379D01*
X015992Y022327D01*
X015992Y022224D01*
X016044Y022172D01*
X016095Y022172D01*
X016147Y022224D01*
X016147Y022327D01*
X016095Y022379D01*
X015992Y022327D02*
X015940Y022379D01*
X015889Y022379D01*
X015837Y022327D01*
X015837Y022224D01*
X015889Y022172D01*
X015940Y022172D01*
X015992Y022224D01*
X016044Y022057D02*
X015992Y022005D01*
X015940Y022057D01*
X015889Y022057D01*
X015837Y022005D01*
X015837Y021901D01*
X015889Y021850D01*
X015837Y021734D02*
X015940Y021631D01*
X015940Y021683D02*
X015940Y021527D01*
X015837Y021527D02*
X016147Y021527D01*
X016147Y021683D01*
X016095Y021734D01*
X015992Y021734D01*
X015940Y021683D01*
X016095Y021850D02*
X016147Y021901D01*
X016147Y022005D01*
X016095Y022057D01*
X016044Y022057D01*
X015992Y022005D02*
X015992Y021953D01*
X016420Y021396D02*
X016368Y021345D01*
X016368Y021241D01*
X016420Y021189D01*
X016627Y021396D01*
X016420Y021396D01*
X016420Y021189D02*
X016627Y021189D01*
X016679Y021241D01*
X016679Y021345D01*
X016627Y021396D01*
X016523Y021074D02*
X016523Y020867D01*
X016679Y021022D01*
X016368Y021022D01*
X016368Y020752D02*
X016472Y020648D01*
X016472Y020700D02*
X016472Y020545D01*
X016368Y020545D02*
X016679Y020545D01*
X016679Y020700D01*
X016627Y020752D01*
X016523Y020752D01*
X016472Y020700D01*
X011295Y019379D02*
X011243Y019275D01*
X011140Y019172D01*
X011140Y019327D01*
X011088Y019379D01*
X011036Y019379D01*
X010984Y019327D01*
X010984Y019223D01*
X011036Y019172D01*
X011140Y019172D01*
X010984Y019056D02*
X010984Y018849D01*
X010984Y018953D02*
X011295Y018953D01*
X011191Y018849D01*
X011243Y018734D02*
X011295Y018682D01*
X011295Y018579D01*
X011243Y018527D01*
X011036Y018527D01*
X010984Y018579D01*
X010984Y018682D01*
X011036Y018734D01*
X009770Y021535D02*
X009667Y021535D01*
X009615Y021587D01*
X009500Y021535D02*
X009293Y021742D01*
X009293Y021794D01*
X009345Y021846D01*
X009448Y021846D01*
X009500Y021794D01*
X009615Y021794D02*
X009667Y021846D01*
X009770Y021846D01*
X009822Y021794D01*
X009822Y021587D01*
X009770Y021535D01*
X009500Y021535D02*
X009293Y021535D01*
X009178Y021587D02*
X008971Y021794D01*
X008971Y021587D01*
X009023Y021535D01*
X009126Y021535D01*
X009178Y021587D01*
X009178Y021794D01*
X009126Y021846D01*
X009023Y021846D01*
X008971Y021794D01*
X008998Y023327D02*
X008895Y023327D01*
X008843Y023378D01*
X008843Y023585D01*
X008895Y023637D01*
X008998Y023637D01*
X009050Y023585D01*
X009050Y023534D01*
X008998Y023482D01*
X008843Y023482D01*
X008998Y023327D02*
X009050Y023378D01*
X009165Y023327D02*
X009372Y023327D01*
X009269Y023327D02*
X009269Y023637D01*
X009372Y023534D01*
X009487Y023585D02*
X009539Y023637D01*
X009643Y023637D01*
X009694Y023585D01*
X009694Y023378D01*
X009643Y023327D01*
X009539Y023327D01*
X009487Y023378D01*
X019888Y013672D02*
X019940Y013724D01*
X020043Y013724D01*
X020095Y013672D01*
X020095Y013465D01*
X019888Y013672D01*
X019888Y013465D01*
X019940Y013413D01*
X020043Y013413D01*
X020095Y013465D01*
X020210Y013413D02*
X020417Y013413D01*
X020314Y013413D02*
X020314Y013724D01*
X020417Y013620D01*
X020533Y013672D02*
X020584Y013724D01*
X020688Y013724D01*
X020740Y013672D01*
X020740Y013465D01*
X020688Y013413D01*
X020584Y013413D01*
X020533Y013465D01*
X020584Y012224D02*
X020688Y012224D01*
X020740Y012172D01*
X020740Y011965D01*
X020688Y011913D01*
X020584Y011913D01*
X020533Y011965D01*
X020417Y011913D02*
X020210Y011913D01*
X020314Y011913D02*
X020314Y012224D01*
X020417Y012120D01*
X020533Y012172D02*
X020584Y012224D01*
X020095Y012120D02*
X019992Y012224D01*
X019992Y011913D01*
X020095Y011913D02*
X019888Y011913D01*
X018991Y011192D02*
X018940Y011244D01*
X018888Y011244D01*
X018836Y011192D01*
X018785Y011244D01*
X018733Y011244D01*
X018681Y011192D01*
X018681Y011089D01*
X018733Y011037D01*
X018681Y010922D02*
X018681Y010715D01*
X018681Y010818D02*
X018991Y010818D01*
X018888Y010715D01*
X018940Y010599D02*
X018991Y010548D01*
X018991Y010444D01*
X018940Y010393D01*
X018733Y010393D01*
X018681Y010444D01*
X018681Y010548D01*
X018733Y010599D01*
X018940Y011037D02*
X018991Y011089D01*
X018991Y011192D01*
X018836Y011192D02*
X018836Y011141D01*
X018560Y011143D02*
X017460Y011143D01*
X017460Y009393D01*
X018560Y009393D01*
X018560Y011143D01*
X037600Y015558D02*
X037807Y015558D01*
X037600Y015765D01*
X037600Y015817D01*
X037652Y015869D01*
X037756Y015869D01*
X037807Y015817D01*
X037923Y015869D02*
X038130Y015869D01*
X038130Y015558D01*
X038130Y015713D02*
X038026Y015713D01*
X041365Y013578D02*
X041572Y013578D01*
X041417Y013734D01*
X041417Y013423D01*
X041687Y013423D02*
X041894Y013423D01*
X041791Y013423D02*
X041791Y013734D01*
X041894Y013630D01*
X042009Y013682D02*
X042061Y013734D01*
X042216Y013734D01*
X042216Y013423D01*
X042061Y013423D01*
X042009Y013475D01*
X042009Y013682D01*
X043355Y013617D02*
X043407Y013669D01*
X043510Y013669D01*
X043562Y013617D01*
X043677Y013617D02*
X043729Y013669D01*
X043884Y013669D01*
X043884Y013358D01*
X043729Y013358D01*
X043677Y013410D01*
X043677Y013617D01*
X043562Y013358D02*
X043355Y013565D01*
X043355Y013617D01*
X043355Y013358D02*
X043562Y013358D01*
D16*
X012749Y025288D02*
X012676Y025215D01*
X012529Y025215D01*
X012456Y025288D01*
X012456Y025655D01*
X012289Y025655D02*
X012289Y025435D01*
X012142Y025508D01*
X012069Y025508D01*
X011995Y025435D01*
X011995Y025288D01*
X012069Y025215D01*
X012215Y025215D01*
X012289Y025288D01*
X012289Y025655D02*
X011995Y025655D01*
X012749Y025655D02*
X012749Y025288D01*
M02*
