%
M48
M72
T01C0.0130
T02C0.0157
T03C0.0177
T04C0.0197
T05C0.0236
T06C0.0276
T07C0.0320
T08C0.0350
T09C0.0354
T10C0.0374
T11C0.0394
T12C0.0400
T13C0.1417
%
T01
X27810Y18393
X28010Y18893
X31260Y23143
X30885Y23518
X31385Y25268
X28160Y25243
X27710Y25243
X27260Y25243
X33931Y19315
X35674Y21979
X37135Y22518
X35260Y29768
X40635Y29768
T02
X28029Y13588
X27517Y13588
X18689Y6167
X15746Y6167
X12163Y6423
X12227Y16349
X12227Y20699
X8516Y21339
X9284Y24410
X8260Y25178
X27773Y5911
T03
X29260Y7643
X31760Y10143
X32760Y10143
X33760Y10143
X34760Y10143
X35760Y10143
X29010Y12893
X29510Y15143
X31010Y18893
X31010Y19393
X30510Y19393
X30510Y19893
X31510Y19643
X32510Y19018
X33510Y19018
X36510Y19643
X39010Y19893
X40057Y20498
X40760Y20893
X39929Y22289
X40385Y22911
X34939Y22289
X34260Y22143
X30760Y26393
X30260Y26143
X29135Y29393
X28010Y20643
X37260Y16143
X41010Y17643
X25260Y11643
X24260Y11643
X23010Y11643
X22010Y11643
X21010Y11643
X20010Y11643
X23760Y8143
X24510Y7893
X8760Y9143
X7010Y26393
T04
X11779Y23824
X11523Y22033
X12675Y20754
X9604Y18962
X9092Y19218
X6760Y21405
X6260Y21393
X7301Y16659
X7685Y15763
X16513Y21137
X18838Y24065
X18433Y25232
X15746Y25232
X24319Y16531
X18561Y12820
X18689Y11413
X39033Y22033
T05
X7927Y8209
X16372Y5650
X20850Y5778
X25189Y5587
X30307Y5587
X43025Y12673
X44025Y12673
X37042Y18872
X33810Y15693
X28093Y16536
X24894Y19351
X22274Y16801
X18088Y17417
X15554Y17943
X14737Y15768
X13319Y15276
X8836Y18194
X8900Y19804
X8836Y21009
X7365Y20443
X10500Y20626
X14810Y20443
X15544Y23185
X21223Y20837
X27510Y24143
X31885Y24218
X34010Y23393
X34510Y24093
X36635Y23393
X39885Y23468
X40241Y26933
X35123Y26421
X34010Y27843
X8714Y26883
T06
X20760Y20393
X22271Y20626
X22295Y18518
X38885Y15143
X39885Y14893
X42260Y15143
X44010Y18143
T07
X41336Y22269
X41336Y23057
X41336Y23844
X41336Y24631
X41336Y25419
X41336Y26206
X41336Y26994
X41336Y27781
X41336Y28569
X41336Y29356
X32675Y29356
X32675Y28569
X32675Y27781
X32675Y26994
X32675Y26206
X32675Y25419
X32675Y24631
X32675Y23844
X32675Y23057
X32675Y22269
X10748Y13523
X8298Y13523
X9498Y11573
T08
X18840Y17311
X18840Y18311
X19840Y18311
X20840Y18311
X20840Y17311
X19840Y17311
X36034Y29235
X39183Y29235
T09
X39162Y26307
X42873Y26179
X43560Y19343
X43510Y17143
X42510Y17143
X41510Y17143
X40510Y17143
X39510Y17143
X38510Y17143
X37510Y17143
X36510Y17143
X35510Y17143
X34510Y17143
X33510Y17143
X32510Y17143
X31510Y17143
X30510Y17143
X30510Y16143
X30510Y15143
X30510Y14143
X31510Y14143
X32510Y14143
X33510Y14143
X34510Y14143
X35510Y14143
X36510Y14143
X37510Y14143
X37510Y13143
X36510Y13143
X35510Y13143
X34510Y13143
X33510Y13143
X32510Y13143
X31510Y13143
X30510Y13143
X30510Y12143
X30510Y11143
X31510Y11143
X32510Y11143
X33510Y11143
X34510Y11143
X35510Y11143
X36510Y11143
X37510Y11143
X38510Y11143
X39510Y11143
X40510Y11143
X41510Y11143
X42510Y11143
X43510Y11143
X42510Y12143
X40510Y12143
X39510Y12143
X38510Y12143
X37260Y15143
X29310Y20293
X28760Y18331
X24760Y18018
X23135Y16884
X21760Y18018
X23091Y15053
X21908Y14509
X20260Y14509
X20210Y12778
X18049Y11541
X13645Y12828
X12405Y12139
X10929Y14835
X14147Y18270
X16258Y17427
X18049Y19218
X19760Y21393
X21760Y22393
X23548Y24662
X26810Y24918
X26810Y23293
X31010Y29343
X28110Y29843
X11610Y25843
X9110Y29093
X10110Y29843
X25982Y14868
X42538Y7595
T10
X23462Y5643
X22557Y5643
X19212Y5643
X18307Y5643
T11
X7510Y22643
X6510Y22643
X6510Y23643
X7510Y23643
X7510Y24643
X6510Y24643
X6510Y25643
X7510Y25643
T12
X8660Y27893
X9660Y27893
X10660Y27893
X11660Y27893
X12660Y27893
X13660Y27893
X14660Y27893
X15660Y27893
X16660Y27893
X17660Y27893
X19260Y27893
X20260Y27893
X21260Y27893
X22260Y27893
X23260Y27893
X24260Y27893
X25260Y27893
X26260Y27893
X22760Y25143
X21760Y25143
X20760Y25143
X20760Y24143
X21760Y24143
X22760Y24143
X24010Y23393
X25010Y23393
X25010Y22393
X24010Y22393
X24010Y21393
X25010Y21393
X25010Y20393
X24010Y20393
X26260Y19893
X27260Y19893
X27260Y18893
X26260Y18893
X26260Y17893
X27260Y17893
X18510Y20393
X18510Y21393
X18510Y22393
X18510Y23393
X19760Y24143
X19760Y25143
X17510Y23393
X17510Y22393
X17510Y21393
X17510Y20393
X16260Y10393
X15260Y10393
X15260Y8893
X14260Y8893
X13260Y8893
X12260Y8893
X16260Y8893
X17260Y8893
X18260Y8893
X19260Y8893
X21260Y8893
X22260Y8893
X23260Y8893
X24260Y8893
X25260Y8893
X26260Y8893
X29760Y8143
X30760Y8143
X31760Y8143
X32760Y8143
X33760Y8143
X34760Y8143
X35760Y8143
X36760Y8143
X37760Y8143
X38760Y8143
X39760Y8143
X40760Y8143
X41760Y8143
X41760Y7143
X40760Y7143
X39760Y7143
X38760Y7143
X37760Y7143
X36760Y7143
X35760Y7143
X34760Y7143
X33760Y7143
X32760Y7143
X31760Y7143
X30760Y7143
X29760Y7143
X42670Y22063
X42670Y23063
X42670Y24063
X42670Y25063
T13
X43374Y27893
X27260Y21893
X27260Y10893
X43374Y8893
X7260Y27893
X6760Y8893
M30
