G75*
G70*
%OFA0B0*%
%FSLAX24Y24*%
%IPPOS*%
%LPD*%
%AMOC8*
5,1,8,0,0,1.08239X$1,22.5*
%
%ADD10C,0.0000*%
%ADD11C,0.0050*%
%ADD12C,0.0020*%
%ADD13C,0.0001*%
D10*
X005510Y005143D02*
X005510Y030393D01*
X005510Y030389D02*
X044880Y030389D01*
X044880Y005143D01*
X005510Y005143D01*
X006051Y008893D02*
X006053Y008946D01*
X006059Y008999D01*
X006069Y009051D01*
X006082Y009102D01*
X006100Y009152D01*
X006121Y009201D01*
X006146Y009248D01*
X006174Y009292D01*
X006206Y009335D01*
X006240Y009375D01*
X006278Y009413D01*
X006318Y009447D01*
X006361Y009479D01*
X006406Y009507D01*
X006452Y009532D01*
X006501Y009553D01*
X006551Y009571D01*
X006602Y009584D01*
X006654Y009594D01*
X006707Y009600D01*
X006760Y009602D01*
X006813Y009600D01*
X006866Y009594D01*
X006918Y009584D01*
X006969Y009571D01*
X007019Y009553D01*
X007068Y009532D01*
X007115Y009507D01*
X007159Y009479D01*
X007202Y009447D01*
X007242Y009413D01*
X007280Y009375D01*
X007314Y009335D01*
X007346Y009292D01*
X007374Y009247D01*
X007399Y009201D01*
X007420Y009152D01*
X007438Y009102D01*
X007451Y009051D01*
X007461Y008999D01*
X007467Y008946D01*
X007469Y008893D01*
X007467Y008840D01*
X007461Y008787D01*
X007451Y008735D01*
X007438Y008684D01*
X007420Y008634D01*
X007399Y008585D01*
X007374Y008538D01*
X007346Y008494D01*
X007314Y008451D01*
X007280Y008411D01*
X007242Y008373D01*
X007202Y008339D01*
X007159Y008307D01*
X007114Y008279D01*
X007068Y008254D01*
X007019Y008233D01*
X006969Y008215D01*
X006918Y008202D01*
X006866Y008192D01*
X006813Y008186D01*
X006760Y008184D01*
X006707Y008186D01*
X006654Y008192D01*
X006602Y008202D01*
X006551Y008215D01*
X006501Y008233D01*
X006452Y008254D01*
X006405Y008279D01*
X006361Y008307D01*
X006318Y008339D01*
X006278Y008373D01*
X006240Y008411D01*
X006206Y008451D01*
X006174Y008494D01*
X006146Y008539D01*
X006121Y008585D01*
X006100Y008634D01*
X006082Y008684D01*
X006069Y008735D01*
X006059Y008787D01*
X006053Y008840D01*
X006051Y008893D01*
X008983Y011473D02*
X008964Y011503D01*
X008952Y011537D01*
X008948Y011573D01*
X008952Y011608D01*
X008964Y011642D01*
X008983Y011673D01*
X009008Y011698D01*
X009038Y011717D01*
X009072Y011729D01*
X009108Y011733D01*
X009888Y011733D01*
X009923Y011729D01*
X009957Y011717D01*
X009987Y011698D01*
X010013Y011673D01*
X010032Y011642D01*
X010044Y011608D01*
X010048Y011573D01*
X010044Y011537D01*
X010032Y011503D01*
X010013Y011473D01*
X009987Y011448D01*
X009957Y011429D01*
X009923Y011417D01*
X009888Y011413D01*
X009108Y011413D01*
X009072Y011417D01*
X009038Y011429D01*
X009008Y011448D01*
X008983Y011473D01*
X008367Y012989D02*
X008333Y012977D01*
X008298Y012973D01*
X008262Y012977D01*
X008228Y012989D01*
X008198Y013008D01*
X008173Y013033D01*
X008154Y013063D01*
X008142Y013097D01*
X008138Y013133D01*
X008138Y013913D01*
X008142Y013948D01*
X008154Y013982D01*
X008173Y014013D01*
X008198Y014038D01*
X008228Y014057D01*
X008262Y014069D01*
X008298Y014073D01*
X008333Y014069D01*
X008367Y014057D01*
X008397Y014038D01*
X008423Y014013D01*
X008442Y013982D01*
X008454Y013948D01*
X008458Y013913D01*
X008458Y013133D01*
X008454Y013097D01*
X008442Y013063D01*
X008423Y013033D01*
X008397Y013008D01*
X008367Y012989D01*
X010588Y013133D02*
X010588Y013913D01*
X010592Y013948D01*
X010604Y013982D01*
X010623Y014013D01*
X010648Y014038D01*
X010678Y014057D01*
X010712Y014069D01*
X010748Y014073D01*
X010783Y014069D01*
X010817Y014057D01*
X010847Y014038D01*
X010873Y014013D01*
X010892Y013982D01*
X010904Y013948D01*
X010908Y013913D01*
X010908Y013133D01*
X010904Y013097D01*
X010892Y013063D01*
X010873Y013033D01*
X010847Y013008D01*
X010817Y012989D01*
X010783Y012977D01*
X010748Y012973D01*
X010712Y012977D01*
X010678Y012989D01*
X010648Y013008D01*
X010623Y013033D01*
X010604Y013063D01*
X010592Y013097D01*
X010588Y013133D01*
X018120Y005643D02*
X018122Y005670D01*
X018128Y005696D01*
X018137Y005721D01*
X018150Y005744D01*
X018166Y005765D01*
X018185Y005784D01*
X018206Y005800D01*
X018229Y005813D01*
X018254Y005822D01*
X018280Y005828D01*
X018307Y005830D01*
X018334Y005828D01*
X018360Y005822D01*
X018385Y005813D01*
X018408Y005800D01*
X018429Y005784D01*
X018448Y005765D01*
X018464Y005744D01*
X018477Y005721D01*
X018486Y005696D01*
X018492Y005670D01*
X018494Y005643D01*
X018492Y005616D01*
X018486Y005590D01*
X018477Y005565D01*
X018464Y005542D01*
X018448Y005521D01*
X018429Y005502D01*
X018408Y005486D01*
X018385Y005473D01*
X018360Y005464D01*
X018334Y005458D01*
X018307Y005456D01*
X018280Y005458D01*
X018254Y005464D01*
X018229Y005473D01*
X018206Y005486D01*
X018185Y005502D01*
X018166Y005521D01*
X018150Y005542D01*
X018137Y005565D01*
X018128Y005590D01*
X018122Y005616D01*
X018120Y005643D01*
X019025Y005643D02*
X019027Y005670D01*
X019033Y005696D01*
X019042Y005721D01*
X019055Y005744D01*
X019071Y005765D01*
X019090Y005784D01*
X019111Y005800D01*
X019134Y005813D01*
X019159Y005822D01*
X019185Y005828D01*
X019212Y005830D01*
X019239Y005828D01*
X019265Y005822D01*
X019290Y005813D01*
X019313Y005800D01*
X019334Y005784D01*
X019353Y005765D01*
X019369Y005744D01*
X019382Y005721D01*
X019391Y005696D01*
X019397Y005670D01*
X019399Y005643D01*
X019397Y005616D01*
X019391Y005590D01*
X019382Y005565D01*
X019369Y005542D01*
X019353Y005521D01*
X019334Y005502D01*
X019313Y005486D01*
X019290Y005473D01*
X019265Y005464D01*
X019239Y005458D01*
X019212Y005456D01*
X019185Y005458D01*
X019159Y005464D01*
X019134Y005473D01*
X019111Y005486D01*
X019090Y005502D01*
X019071Y005521D01*
X019055Y005542D01*
X019042Y005565D01*
X019033Y005590D01*
X019027Y005616D01*
X019025Y005643D01*
X022370Y005643D02*
X022372Y005670D01*
X022378Y005696D01*
X022387Y005721D01*
X022400Y005744D01*
X022416Y005765D01*
X022435Y005784D01*
X022456Y005800D01*
X022479Y005813D01*
X022504Y005822D01*
X022530Y005828D01*
X022557Y005830D01*
X022584Y005828D01*
X022610Y005822D01*
X022635Y005813D01*
X022658Y005800D01*
X022679Y005784D01*
X022698Y005765D01*
X022714Y005744D01*
X022727Y005721D01*
X022736Y005696D01*
X022742Y005670D01*
X022744Y005643D01*
X022742Y005616D01*
X022736Y005590D01*
X022727Y005565D01*
X022714Y005542D01*
X022698Y005521D01*
X022679Y005502D01*
X022658Y005486D01*
X022635Y005473D01*
X022610Y005464D01*
X022584Y005458D01*
X022557Y005456D01*
X022530Y005458D01*
X022504Y005464D01*
X022479Y005473D01*
X022456Y005486D01*
X022435Y005502D01*
X022416Y005521D01*
X022400Y005542D01*
X022387Y005565D01*
X022378Y005590D01*
X022372Y005616D01*
X022370Y005643D01*
X023275Y005643D02*
X023277Y005670D01*
X023283Y005696D01*
X023292Y005721D01*
X023305Y005744D01*
X023321Y005765D01*
X023340Y005784D01*
X023361Y005800D01*
X023384Y005813D01*
X023409Y005822D01*
X023435Y005828D01*
X023462Y005830D01*
X023489Y005828D01*
X023515Y005822D01*
X023540Y005813D01*
X023563Y005800D01*
X023584Y005784D01*
X023603Y005765D01*
X023619Y005744D01*
X023632Y005721D01*
X023641Y005696D01*
X023647Y005670D01*
X023649Y005643D01*
X023647Y005616D01*
X023641Y005590D01*
X023632Y005565D01*
X023619Y005542D01*
X023603Y005521D01*
X023584Y005502D01*
X023563Y005486D01*
X023540Y005473D01*
X023515Y005464D01*
X023489Y005458D01*
X023462Y005456D01*
X023435Y005458D01*
X023409Y005464D01*
X023384Y005473D01*
X023361Y005486D01*
X023340Y005502D01*
X023321Y005521D01*
X023305Y005542D01*
X023292Y005565D01*
X023283Y005590D01*
X023277Y005616D01*
X023275Y005643D01*
X026551Y010893D02*
X026553Y010946D01*
X026559Y010999D01*
X026569Y011051D01*
X026582Y011102D01*
X026600Y011152D01*
X026621Y011201D01*
X026646Y011248D01*
X026674Y011292D01*
X026706Y011335D01*
X026740Y011375D01*
X026778Y011413D01*
X026818Y011447D01*
X026861Y011479D01*
X026906Y011507D01*
X026952Y011532D01*
X027001Y011553D01*
X027051Y011571D01*
X027102Y011584D01*
X027154Y011594D01*
X027207Y011600D01*
X027260Y011602D01*
X027313Y011600D01*
X027366Y011594D01*
X027418Y011584D01*
X027469Y011571D01*
X027519Y011553D01*
X027568Y011532D01*
X027615Y011507D01*
X027659Y011479D01*
X027702Y011447D01*
X027742Y011413D01*
X027780Y011375D01*
X027814Y011335D01*
X027846Y011292D01*
X027874Y011247D01*
X027899Y011201D01*
X027920Y011152D01*
X027938Y011102D01*
X027951Y011051D01*
X027961Y010999D01*
X027967Y010946D01*
X027969Y010893D01*
X027967Y010840D01*
X027961Y010787D01*
X027951Y010735D01*
X027938Y010684D01*
X027920Y010634D01*
X027899Y010585D01*
X027874Y010538D01*
X027846Y010494D01*
X027814Y010451D01*
X027780Y010411D01*
X027742Y010373D01*
X027702Y010339D01*
X027659Y010307D01*
X027614Y010279D01*
X027568Y010254D01*
X027519Y010233D01*
X027469Y010215D01*
X027418Y010202D01*
X027366Y010192D01*
X027313Y010186D01*
X027260Y010184D01*
X027207Y010186D01*
X027154Y010192D01*
X027102Y010202D01*
X027051Y010215D01*
X027001Y010233D01*
X026952Y010254D01*
X026905Y010279D01*
X026861Y010307D01*
X026818Y010339D01*
X026778Y010373D01*
X026740Y010411D01*
X026706Y010451D01*
X026674Y010494D01*
X026646Y010539D01*
X026621Y010585D01*
X026600Y010634D01*
X026582Y010684D01*
X026569Y010735D01*
X026559Y010787D01*
X026553Y010840D01*
X026551Y010893D01*
X026551Y021893D02*
X026553Y021946D01*
X026559Y021999D01*
X026569Y022051D01*
X026582Y022102D01*
X026600Y022152D01*
X026621Y022201D01*
X026646Y022248D01*
X026674Y022292D01*
X026706Y022335D01*
X026740Y022375D01*
X026778Y022413D01*
X026818Y022447D01*
X026861Y022479D01*
X026906Y022507D01*
X026952Y022532D01*
X027001Y022553D01*
X027051Y022571D01*
X027102Y022584D01*
X027154Y022594D01*
X027207Y022600D01*
X027260Y022602D01*
X027313Y022600D01*
X027366Y022594D01*
X027418Y022584D01*
X027469Y022571D01*
X027519Y022553D01*
X027568Y022532D01*
X027615Y022507D01*
X027659Y022479D01*
X027702Y022447D01*
X027742Y022413D01*
X027780Y022375D01*
X027814Y022335D01*
X027846Y022292D01*
X027874Y022247D01*
X027899Y022201D01*
X027920Y022152D01*
X027938Y022102D01*
X027951Y022051D01*
X027961Y021999D01*
X027967Y021946D01*
X027969Y021893D01*
X027967Y021840D01*
X027961Y021787D01*
X027951Y021735D01*
X027938Y021684D01*
X027920Y021634D01*
X027899Y021585D01*
X027874Y021538D01*
X027846Y021494D01*
X027814Y021451D01*
X027780Y021411D01*
X027742Y021373D01*
X027702Y021339D01*
X027659Y021307D01*
X027614Y021279D01*
X027568Y021254D01*
X027519Y021233D01*
X027469Y021215D01*
X027418Y021202D01*
X027366Y021192D01*
X027313Y021186D01*
X027260Y021184D01*
X027207Y021186D01*
X027154Y021192D01*
X027102Y021202D01*
X027051Y021215D01*
X027001Y021233D01*
X026952Y021254D01*
X026905Y021279D01*
X026861Y021307D01*
X026818Y021339D01*
X026778Y021373D01*
X026740Y021411D01*
X026706Y021451D01*
X026674Y021494D01*
X026646Y021539D01*
X026621Y021585D01*
X026600Y021634D01*
X026582Y021684D01*
X026569Y021735D01*
X026559Y021787D01*
X026553Y021840D01*
X026551Y021893D01*
X035859Y029235D02*
X035861Y029261D01*
X035867Y029287D01*
X035876Y029311D01*
X035889Y029334D01*
X035906Y029354D01*
X035925Y029372D01*
X035947Y029387D01*
X035970Y029398D01*
X035995Y029406D01*
X036021Y029410D01*
X036047Y029410D01*
X036073Y029406D01*
X036098Y029398D01*
X036122Y029387D01*
X036143Y029372D01*
X036162Y029354D01*
X036179Y029334D01*
X036192Y029311D01*
X036201Y029287D01*
X036207Y029261D01*
X036209Y029235D01*
X036207Y029209D01*
X036201Y029183D01*
X036192Y029159D01*
X036179Y029136D01*
X036162Y029116D01*
X036143Y029098D01*
X036121Y029083D01*
X036098Y029072D01*
X036073Y029064D01*
X036047Y029060D01*
X036021Y029060D01*
X035995Y029064D01*
X035970Y029072D01*
X035946Y029083D01*
X035925Y029098D01*
X035906Y029116D01*
X035889Y029136D01*
X035876Y029159D01*
X035867Y029183D01*
X035861Y029209D01*
X035859Y029235D01*
X039008Y029235D02*
X039010Y029261D01*
X039016Y029287D01*
X039025Y029311D01*
X039038Y029334D01*
X039055Y029354D01*
X039074Y029372D01*
X039096Y029387D01*
X039119Y029398D01*
X039144Y029406D01*
X039170Y029410D01*
X039196Y029410D01*
X039222Y029406D01*
X039247Y029398D01*
X039271Y029387D01*
X039292Y029372D01*
X039311Y029354D01*
X039328Y029334D01*
X039341Y029311D01*
X039350Y029287D01*
X039356Y029261D01*
X039358Y029235D01*
X039356Y029209D01*
X039350Y029183D01*
X039341Y029159D01*
X039328Y029136D01*
X039311Y029116D01*
X039292Y029098D01*
X039270Y029083D01*
X039247Y029072D01*
X039222Y029064D01*
X039196Y029060D01*
X039170Y029060D01*
X039144Y029064D01*
X039119Y029072D01*
X039095Y029083D01*
X039074Y029098D01*
X039055Y029116D01*
X039038Y029136D01*
X039025Y029159D01*
X039016Y029183D01*
X039010Y029209D01*
X039008Y029235D01*
X042665Y027893D02*
X042667Y027946D01*
X042673Y027999D01*
X042683Y028051D01*
X042696Y028102D01*
X042714Y028152D01*
X042735Y028201D01*
X042760Y028248D01*
X042788Y028292D01*
X042820Y028335D01*
X042854Y028375D01*
X042892Y028413D01*
X042932Y028447D01*
X042975Y028479D01*
X043020Y028507D01*
X043066Y028532D01*
X043115Y028553D01*
X043165Y028571D01*
X043216Y028584D01*
X043268Y028594D01*
X043321Y028600D01*
X043374Y028602D01*
X043427Y028600D01*
X043480Y028594D01*
X043532Y028584D01*
X043583Y028571D01*
X043633Y028553D01*
X043682Y028532D01*
X043729Y028507D01*
X043773Y028479D01*
X043816Y028447D01*
X043856Y028413D01*
X043894Y028375D01*
X043928Y028335D01*
X043960Y028292D01*
X043988Y028247D01*
X044013Y028201D01*
X044034Y028152D01*
X044052Y028102D01*
X044065Y028051D01*
X044075Y027999D01*
X044081Y027946D01*
X044083Y027893D01*
X044081Y027840D01*
X044075Y027787D01*
X044065Y027735D01*
X044052Y027684D01*
X044034Y027634D01*
X044013Y027585D01*
X043988Y027538D01*
X043960Y027494D01*
X043928Y027451D01*
X043894Y027411D01*
X043856Y027373D01*
X043816Y027339D01*
X043773Y027307D01*
X043728Y027279D01*
X043682Y027254D01*
X043633Y027233D01*
X043583Y027215D01*
X043532Y027202D01*
X043480Y027192D01*
X043427Y027186D01*
X043374Y027184D01*
X043321Y027186D01*
X043268Y027192D01*
X043216Y027202D01*
X043165Y027215D01*
X043115Y027233D01*
X043066Y027254D01*
X043019Y027279D01*
X042975Y027307D01*
X042932Y027339D01*
X042892Y027373D01*
X042854Y027411D01*
X042820Y027451D01*
X042788Y027494D01*
X042760Y027539D01*
X042735Y027585D01*
X042714Y027634D01*
X042696Y027684D01*
X042683Y027735D01*
X042673Y027787D01*
X042667Y027840D01*
X042665Y027893D01*
X042665Y008893D02*
X042667Y008946D01*
X042673Y008999D01*
X042683Y009051D01*
X042696Y009102D01*
X042714Y009152D01*
X042735Y009201D01*
X042760Y009248D01*
X042788Y009292D01*
X042820Y009335D01*
X042854Y009375D01*
X042892Y009413D01*
X042932Y009447D01*
X042975Y009479D01*
X043020Y009507D01*
X043066Y009532D01*
X043115Y009553D01*
X043165Y009571D01*
X043216Y009584D01*
X043268Y009594D01*
X043321Y009600D01*
X043374Y009602D01*
X043427Y009600D01*
X043480Y009594D01*
X043532Y009584D01*
X043583Y009571D01*
X043633Y009553D01*
X043682Y009532D01*
X043729Y009507D01*
X043773Y009479D01*
X043816Y009447D01*
X043856Y009413D01*
X043894Y009375D01*
X043928Y009335D01*
X043960Y009292D01*
X043988Y009247D01*
X044013Y009201D01*
X044034Y009152D01*
X044052Y009102D01*
X044065Y009051D01*
X044075Y008999D01*
X044081Y008946D01*
X044083Y008893D01*
X044081Y008840D01*
X044075Y008787D01*
X044065Y008735D01*
X044052Y008684D01*
X044034Y008634D01*
X044013Y008585D01*
X043988Y008538D01*
X043960Y008494D01*
X043928Y008451D01*
X043894Y008411D01*
X043856Y008373D01*
X043816Y008339D01*
X043773Y008307D01*
X043728Y008279D01*
X043682Y008254D01*
X043633Y008233D01*
X043583Y008215D01*
X043532Y008202D01*
X043480Y008192D01*
X043427Y008186D01*
X043374Y008184D01*
X043321Y008186D01*
X043268Y008192D01*
X043216Y008202D01*
X043165Y008215D01*
X043115Y008233D01*
X043066Y008254D01*
X043019Y008279D01*
X042975Y008307D01*
X042932Y008339D01*
X042892Y008373D01*
X042854Y008411D01*
X042820Y008451D01*
X042788Y008494D01*
X042760Y008539D01*
X042735Y008585D01*
X042714Y008634D01*
X042696Y008684D01*
X042683Y008735D01*
X042673Y008787D01*
X042667Y008840D01*
X042665Y008893D01*
X006551Y027893D02*
X006553Y027946D01*
X006559Y027999D01*
X006569Y028051D01*
X006582Y028102D01*
X006600Y028152D01*
X006621Y028201D01*
X006646Y028248D01*
X006674Y028292D01*
X006706Y028335D01*
X006740Y028375D01*
X006778Y028413D01*
X006818Y028447D01*
X006861Y028479D01*
X006906Y028507D01*
X006952Y028532D01*
X007001Y028553D01*
X007051Y028571D01*
X007102Y028584D01*
X007154Y028594D01*
X007207Y028600D01*
X007260Y028602D01*
X007313Y028600D01*
X007366Y028594D01*
X007418Y028584D01*
X007469Y028571D01*
X007519Y028553D01*
X007568Y028532D01*
X007615Y028507D01*
X007659Y028479D01*
X007702Y028447D01*
X007742Y028413D01*
X007780Y028375D01*
X007814Y028335D01*
X007846Y028292D01*
X007874Y028247D01*
X007899Y028201D01*
X007920Y028152D01*
X007938Y028102D01*
X007951Y028051D01*
X007961Y027999D01*
X007967Y027946D01*
X007969Y027893D01*
X007967Y027840D01*
X007961Y027787D01*
X007951Y027735D01*
X007938Y027684D01*
X007920Y027634D01*
X007899Y027585D01*
X007874Y027538D01*
X007846Y027494D01*
X007814Y027451D01*
X007780Y027411D01*
X007742Y027373D01*
X007702Y027339D01*
X007659Y027307D01*
X007614Y027279D01*
X007568Y027254D01*
X007519Y027233D01*
X007469Y027215D01*
X007418Y027202D01*
X007366Y027192D01*
X007313Y027186D01*
X007260Y027184D01*
X007207Y027186D01*
X007154Y027192D01*
X007102Y027202D01*
X007051Y027215D01*
X007001Y027233D01*
X006952Y027254D01*
X006905Y027279D01*
X006861Y027307D01*
X006818Y027339D01*
X006778Y027373D01*
X006740Y027411D01*
X006706Y027451D01*
X006674Y027494D01*
X006646Y027539D01*
X006621Y027585D01*
X006600Y027634D01*
X006582Y027684D01*
X006569Y027735D01*
X006559Y027787D01*
X006553Y027840D01*
X006551Y027893D01*
D11*
X008998Y013623D02*
X008798Y013523D01*
X008998Y013423D01*
X008798Y013523D02*
X009498Y013523D01*
X010248Y013523D01*
X010048Y013423D01*
X010048Y013623D02*
X010248Y013523D01*
X009498Y013523D02*
X009498Y012773D01*
X009498Y012473D02*
X009498Y012073D01*
X009598Y012273D01*
X009398Y012273D02*
X009498Y012073D01*
D12*
X009441Y012533D02*
X009551Y012533D01*
X009625Y012570D02*
X009662Y012533D01*
X009735Y012533D01*
X009772Y012570D01*
X009772Y012643D01*
X009735Y012680D01*
X009662Y012680D01*
X009625Y012643D01*
X009625Y012570D01*
X009551Y012680D02*
X009441Y012680D01*
X009404Y012643D01*
X009404Y012570D01*
X009441Y012533D01*
X009109Y012533D02*
X009109Y012643D01*
X009072Y012680D01*
X008999Y012680D01*
X008962Y012643D01*
X008888Y012680D02*
X008815Y012680D01*
X008851Y012716D02*
X008851Y012570D01*
X008888Y012533D01*
X008962Y012533D02*
X008962Y012753D01*
X008704Y012753D02*
X008704Y012790D01*
X008704Y012680D02*
X008704Y012533D01*
X008667Y012533D02*
X008741Y012533D01*
X008704Y012680D02*
X008667Y012680D01*
X008593Y012680D02*
X008593Y012570D01*
X008556Y012533D01*
X008520Y012570D01*
X008483Y012533D01*
X008446Y012570D01*
X008446Y012680D01*
X008151Y012680D02*
X008041Y012680D01*
X008004Y012643D01*
X008041Y012606D01*
X008115Y012606D01*
X008151Y012570D01*
X008115Y012533D01*
X008004Y012533D01*
X007930Y012533D02*
X007857Y012533D01*
X007894Y012533D02*
X007894Y012753D01*
X007857Y012753D01*
X007746Y012753D02*
X007746Y012533D01*
X007710Y012533D02*
X007783Y012533D01*
X007636Y012533D02*
X007562Y012533D01*
X007599Y012533D02*
X007599Y012680D01*
X007562Y012680D01*
X007488Y012680D02*
X007452Y012680D01*
X007378Y012606D01*
X007378Y012533D02*
X007378Y012680D01*
X007304Y012716D02*
X007304Y012570D01*
X007267Y012533D01*
X007157Y012533D01*
X007157Y012753D01*
X007267Y012753D01*
X007304Y012716D01*
X007599Y012753D02*
X007599Y012790D01*
X007710Y012753D02*
X007746Y012753D01*
X006862Y012680D02*
X006789Y012680D01*
X006826Y012716D02*
X006826Y012570D01*
X006862Y012533D01*
X006715Y012570D02*
X006715Y012643D01*
X006678Y012680D01*
X006605Y012680D01*
X006568Y012643D01*
X006568Y012570D01*
X006605Y012533D01*
X006678Y012533D01*
X006715Y012570D01*
X006494Y012533D02*
X006421Y012533D01*
X006457Y012533D02*
X006457Y012753D01*
X006421Y012753D01*
X006346Y012716D02*
X006310Y012753D01*
X006236Y012753D01*
X006200Y012716D01*
X006200Y012680D01*
X006236Y012643D01*
X006310Y012643D01*
X006346Y012606D01*
X006346Y012570D01*
X006310Y012533D01*
X006236Y012533D01*
X006200Y012570D01*
X005904Y012570D02*
X005868Y012533D01*
X005794Y012533D01*
X005758Y012570D01*
X005831Y012643D02*
X005868Y012643D01*
X005904Y012606D01*
X005904Y012570D01*
X005868Y012643D02*
X005904Y012680D01*
X005904Y012716D01*
X005868Y012753D01*
X005794Y012753D01*
X005758Y012716D01*
X009846Y012680D02*
X009956Y012680D01*
X009993Y012643D01*
X009993Y012570D01*
X009956Y012533D01*
X009846Y012533D01*
X009846Y012459D02*
X009846Y012680D01*
X010067Y012680D02*
X010177Y012680D01*
X010214Y012643D01*
X010214Y012570D01*
X010177Y012533D01*
X010067Y012533D01*
X010067Y012459D02*
X010067Y012680D01*
X010288Y012643D02*
X010325Y012680D01*
X010398Y012680D01*
X010435Y012643D01*
X010435Y012606D01*
X010288Y012606D01*
X010288Y012570D02*
X010288Y012643D01*
X010288Y012570D02*
X010325Y012533D01*
X010398Y012533D01*
X010509Y012533D02*
X010509Y012680D01*
X010582Y012680D02*
X010619Y012680D01*
X010582Y012680D02*
X010509Y012606D01*
D13*
X010679Y012989D02*
X010817Y012989D01*
X010819Y012990D02*
X010677Y012990D01*
X010675Y012991D02*
X010820Y012991D01*
X010822Y012992D02*
X010674Y012992D01*
X010672Y012993D02*
X010823Y012993D01*
X010825Y012994D02*
X010670Y012994D01*
X010669Y012995D02*
X010827Y012995D01*
X010828Y012996D02*
X010667Y012996D01*
X010666Y012997D02*
X010830Y012997D01*
X010831Y012998D02*
X010664Y012998D01*
X010663Y012999D02*
X010833Y012999D01*
X010834Y013000D02*
X010661Y013000D01*
X010659Y013001D02*
X010836Y013001D01*
X010838Y013002D02*
X010658Y013002D01*
X010656Y013003D02*
X010839Y013003D01*
X010841Y013004D02*
X010655Y013004D01*
X010653Y013005D02*
X010842Y013005D01*
X010844Y013006D02*
X010651Y013006D01*
X010650Y013007D02*
X010846Y013007D01*
X010847Y013008D02*
X010648Y013008D01*
X010647Y013009D02*
X010848Y013009D01*
X010849Y013010D02*
X010646Y013010D01*
X010645Y013011D02*
X010850Y013011D01*
X010851Y013012D02*
X010644Y013012D01*
X010643Y013013D02*
X010852Y013013D01*
X010853Y013014D02*
X010642Y013014D01*
X010641Y013015D02*
X010854Y013015D01*
X010855Y013016D02*
X010640Y013016D01*
X010639Y013017D02*
X010856Y013017D01*
X010857Y013018D02*
X010638Y013018D01*
X010637Y013019D02*
X010858Y013019D01*
X010859Y013020D02*
X010636Y013020D01*
X010635Y013021D02*
X010860Y013021D01*
X010861Y013022D02*
X010634Y013022D01*
X010633Y013023D02*
X010862Y013023D01*
X010863Y013024D02*
X010632Y013024D01*
X010631Y013025D02*
X010864Y013025D01*
X010865Y013026D02*
X010630Y013026D01*
X010629Y013027D02*
X010866Y013027D01*
X010867Y013028D02*
X010628Y013028D01*
X010627Y013029D02*
X010868Y013029D01*
X010869Y013030D02*
X010626Y013030D01*
X010625Y013031D02*
X010870Y013031D01*
X010871Y013032D02*
X010624Y013032D01*
X010623Y013033D02*
X010872Y013033D01*
X010873Y013034D02*
X010622Y013034D01*
X010622Y013035D02*
X010874Y013035D01*
X010874Y013036D02*
X010621Y013036D01*
X010620Y013037D02*
X010875Y013037D01*
X010876Y013038D02*
X010620Y013038D01*
X010619Y013039D02*
X010876Y013039D01*
X010877Y013040D02*
X010619Y013040D01*
X010618Y013041D02*
X010877Y013041D01*
X010878Y013042D02*
X010617Y013042D01*
X010617Y013043D02*
X010879Y013043D01*
X010879Y013044D02*
X010616Y013044D01*
X010615Y013045D02*
X010880Y013045D01*
X010881Y013046D02*
X010615Y013046D01*
X010614Y013047D02*
X010881Y013047D01*
X010882Y013048D02*
X010614Y013048D01*
X010613Y013049D02*
X010883Y013049D01*
X010883Y013050D02*
X010612Y013050D01*
X010612Y013051D02*
X010884Y013051D01*
X010884Y013052D02*
X010611Y013052D01*
X010610Y013053D02*
X010885Y013053D01*
X010886Y013054D02*
X010610Y013054D01*
X010609Y013055D02*
X010886Y013055D01*
X010887Y013056D02*
X010609Y013056D01*
X010608Y013057D02*
X010888Y013057D01*
X010888Y013058D02*
X010607Y013058D01*
X010607Y013059D02*
X010889Y013059D01*
X010889Y013060D02*
X010606Y013060D01*
X010605Y013061D02*
X010890Y013061D01*
X010891Y013062D02*
X010605Y013062D01*
X010604Y013063D02*
X010891Y013063D01*
X010892Y013064D02*
X010604Y013064D01*
X010603Y013065D02*
X010892Y013065D01*
X010893Y013066D02*
X010603Y013066D01*
X010602Y013067D02*
X010893Y013067D01*
X010893Y013068D02*
X010602Y013068D01*
X010894Y013068D01*
X010894Y013069D02*
X010601Y013069D01*
X010601Y013070D02*
X010894Y013070D01*
X010895Y013071D02*
X010601Y013071D01*
X010600Y013072D02*
X010895Y013072D01*
X010895Y013073D02*
X010600Y013073D01*
X010600Y013074D02*
X010896Y013074D01*
X010896Y013075D02*
X010599Y013075D01*
X010599Y013076D02*
X010896Y013076D01*
X010897Y013077D02*
X010599Y013077D01*
X010598Y013078D02*
X010897Y013078D01*
X010897Y013079D02*
X010598Y013079D01*
X010598Y013080D02*
X010898Y013080D01*
X010898Y013081D02*
X010597Y013081D01*
X010597Y013082D02*
X010899Y013082D01*
X010899Y013083D02*
X010597Y013083D01*
X010596Y013084D02*
X010899Y013084D01*
X010900Y013085D02*
X010596Y013085D01*
X010595Y013086D02*
X010900Y013086D01*
X010900Y013087D02*
X010595Y013087D01*
X010595Y013088D02*
X010901Y013088D01*
X010901Y013089D02*
X010594Y013089D01*
X010594Y013090D02*
X010901Y013090D01*
X010902Y013091D02*
X010594Y013091D01*
X010593Y013092D02*
X010902Y013092D01*
X010902Y013093D02*
X010593Y013093D01*
X010593Y013094D02*
X010903Y013094D01*
X010903Y013095D02*
X010592Y013095D01*
X010592Y013096D02*
X010903Y013096D01*
X010904Y013097D02*
X010592Y013097D01*
X010592Y013098D02*
X010904Y013098D01*
X010904Y013099D02*
X010591Y013099D01*
X010591Y013100D02*
X010904Y013100D01*
X010904Y013101D02*
X010591Y013101D01*
X010591Y013102D02*
X010904Y013102D01*
X010904Y013103D02*
X010591Y013103D01*
X010591Y013104D02*
X010905Y013104D01*
X010905Y013105D02*
X010591Y013105D01*
X010591Y013106D02*
X010905Y013106D01*
X010905Y013107D02*
X010591Y013107D01*
X010590Y013108D02*
X010905Y013108D01*
X010905Y013109D02*
X010590Y013109D01*
X010590Y013110D02*
X010905Y013110D01*
X010905Y013111D02*
X010590Y013111D01*
X010590Y013112D02*
X010905Y013112D01*
X010906Y013113D02*
X010590Y013113D01*
X010590Y013114D02*
X010906Y013114D01*
X010906Y013115D02*
X010590Y013115D01*
X010590Y013116D02*
X010906Y013116D01*
X010906Y013117D02*
X010589Y013117D01*
X010589Y013118D02*
X010906Y013118D01*
X010906Y013119D02*
X010589Y013119D01*
X010589Y013120D02*
X010906Y013120D01*
X010906Y013121D02*
X010589Y013121D01*
X010589Y013122D02*
X010907Y013122D01*
X010907Y013123D02*
X010589Y013123D01*
X010589Y013124D02*
X010907Y013124D01*
X010907Y013125D02*
X010589Y013125D01*
X010588Y013126D02*
X010907Y013126D01*
X010907Y013127D02*
X010588Y013127D01*
X010588Y013128D02*
X010907Y013128D01*
X010907Y013129D02*
X010588Y013129D01*
X010588Y013130D02*
X010907Y013130D01*
X010908Y013131D02*
X010588Y013131D01*
X010588Y013132D02*
X010908Y013132D01*
X010908Y013133D02*
X010588Y013133D01*
X010588Y013134D02*
X010908Y013134D01*
X010908Y013135D02*
X010588Y013135D01*
X010588Y013136D02*
X010908Y013136D01*
X010908Y013137D02*
X010588Y013137D01*
X010588Y013138D02*
X010908Y013138D01*
X010908Y013139D02*
X010588Y013139D01*
X010588Y013140D02*
X010908Y013140D01*
X010908Y013141D02*
X010588Y013141D01*
X010588Y013142D02*
X010908Y013142D01*
X010908Y013143D02*
X010588Y013143D01*
X010588Y013144D02*
X010908Y013144D01*
X010908Y013145D02*
X010588Y013145D01*
X010588Y013146D02*
X010908Y013146D01*
X010908Y013147D02*
X010588Y013147D01*
X010588Y013148D02*
X010908Y013148D01*
X010908Y013149D02*
X010588Y013149D01*
X010588Y013150D02*
X010908Y013150D01*
X010908Y013151D02*
X010588Y013151D01*
X010588Y013152D02*
X010908Y013152D01*
X010908Y013153D02*
X010588Y013153D01*
X010588Y013154D02*
X010908Y013154D01*
X010908Y013155D02*
X010588Y013155D01*
X010588Y013156D02*
X010908Y013156D01*
X010908Y013157D02*
X010588Y013157D01*
X010588Y013158D02*
X010908Y013158D01*
X010908Y013159D02*
X010588Y013159D01*
X010588Y013160D02*
X010908Y013160D01*
X010908Y013161D02*
X010588Y013161D01*
X010588Y013162D02*
X010908Y013162D01*
X010908Y013163D02*
X010588Y013163D01*
X010588Y013164D02*
X010908Y013164D01*
X010908Y013165D02*
X010588Y013165D01*
X010588Y013166D02*
X010908Y013166D01*
X010908Y013167D02*
X010588Y013167D01*
X010588Y013168D02*
X010908Y013168D01*
X010908Y013169D02*
X010588Y013169D01*
X010588Y013170D02*
X010908Y013170D01*
X010908Y013171D02*
X010588Y013171D01*
X010588Y013172D02*
X010908Y013172D01*
X010908Y013173D02*
X010588Y013173D01*
X010588Y013174D02*
X010908Y013174D01*
X010908Y013175D02*
X010588Y013175D01*
X010588Y013176D02*
X010908Y013176D01*
X010908Y013177D02*
X010588Y013177D01*
X010588Y013178D02*
X010908Y013178D01*
X010908Y013179D02*
X010588Y013179D01*
X010588Y013180D02*
X010908Y013180D01*
X010908Y013181D02*
X010588Y013181D01*
X010588Y013182D02*
X010908Y013182D01*
X010908Y013183D02*
X010588Y013183D01*
X010588Y013184D02*
X010908Y013184D01*
X010908Y013185D02*
X010588Y013185D01*
X010588Y013186D02*
X010908Y013186D01*
X010908Y013187D02*
X010588Y013187D01*
X010588Y013188D02*
X010908Y013188D01*
X010908Y013189D02*
X010588Y013189D01*
X010588Y013190D02*
X010908Y013190D01*
X010908Y013191D02*
X010588Y013191D01*
X010588Y013192D02*
X010908Y013192D01*
X010908Y013193D02*
X010588Y013193D01*
X010588Y013194D02*
X010908Y013194D01*
X010908Y013195D02*
X010588Y013195D01*
X010588Y013196D02*
X010908Y013196D01*
X010908Y013197D02*
X010588Y013197D01*
X010588Y013198D02*
X010908Y013198D01*
X010908Y013199D02*
X010588Y013199D01*
X010588Y013200D02*
X010908Y013200D01*
X010908Y013201D02*
X010588Y013201D01*
X010588Y013202D02*
X010908Y013202D01*
X010908Y013203D02*
X010588Y013203D01*
X010588Y013204D02*
X010908Y013204D01*
X010908Y013205D02*
X010588Y013205D01*
X010588Y013206D02*
X010908Y013206D01*
X010908Y013207D02*
X010588Y013207D01*
X010588Y013208D02*
X010908Y013208D01*
X010908Y013209D02*
X010588Y013209D01*
X010588Y013210D02*
X010908Y013210D01*
X010908Y013211D02*
X010588Y013211D01*
X010588Y013212D02*
X010908Y013212D01*
X010908Y013213D02*
X010588Y013213D01*
X010588Y013214D02*
X010908Y013214D01*
X010908Y013215D02*
X010588Y013215D01*
X010588Y013216D02*
X010908Y013216D01*
X010908Y013217D02*
X010588Y013217D01*
X010588Y013218D02*
X010908Y013218D01*
X010908Y013219D02*
X010588Y013219D01*
X010588Y013220D02*
X010908Y013220D01*
X010908Y013221D02*
X010588Y013221D01*
X010588Y013222D02*
X010908Y013222D01*
X010908Y013223D02*
X010588Y013223D01*
X010588Y013224D02*
X010908Y013224D01*
X010908Y013225D02*
X010588Y013225D01*
X010588Y013226D02*
X010908Y013226D01*
X010908Y013227D02*
X010588Y013227D01*
X010588Y013228D02*
X010908Y013228D01*
X010908Y013229D02*
X010588Y013229D01*
X010588Y013230D02*
X010908Y013230D01*
X010908Y013231D02*
X010588Y013231D01*
X010588Y013232D02*
X010908Y013232D01*
X010908Y013233D02*
X010588Y013233D01*
X010588Y013234D02*
X010908Y013234D01*
X010908Y013235D02*
X010588Y013235D01*
X010588Y013236D02*
X010908Y013236D01*
X010908Y013237D02*
X010588Y013237D01*
X010588Y013238D02*
X010908Y013238D01*
X010908Y013239D02*
X010588Y013239D01*
X010588Y013240D02*
X010908Y013240D01*
X010908Y013241D02*
X010588Y013241D01*
X010588Y013242D02*
X010908Y013242D01*
X010908Y013243D02*
X010588Y013243D01*
X010588Y013244D02*
X010908Y013244D01*
X010908Y013245D02*
X010588Y013245D01*
X010588Y013246D02*
X010908Y013246D01*
X010908Y013247D02*
X010588Y013247D01*
X010588Y013248D02*
X010908Y013248D01*
X010908Y013249D02*
X010588Y013249D01*
X010588Y013250D02*
X010908Y013250D01*
X010908Y013251D02*
X010588Y013251D01*
X010588Y013252D02*
X010908Y013252D01*
X010908Y013253D02*
X010588Y013253D01*
X010588Y013254D02*
X010908Y013254D01*
X010908Y013255D02*
X010588Y013255D01*
X010588Y013256D02*
X010908Y013256D01*
X010908Y013257D02*
X010588Y013257D01*
X010588Y013258D02*
X010908Y013258D01*
X010908Y013259D02*
X010588Y013259D01*
X010588Y013260D02*
X010908Y013260D01*
X010908Y013261D02*
X010588Y013261D01*
X010588Y013262D02*
X010908Y013262D01*
X010908Y013263D02*
X010588Y013263D01*
X010588Y013264D02*
X010908Y013264D01*
X010908Y013265D02*
X010588Y013265D01*
X010588Y013266D02*
X010908Y013266D01*
X010908Y013267D02*
X010588Y013267D01*
X010588Y013268D02*
X010908Y013268D01*
X010908Y013269D02*
X010588Y013269D01*
X010588Y013270D02*
X010908Y013270D01*
X010908Y013271D02*
X010588Y013271D01*
X010588Y013272D02*
X010908Y013272D01*
X010908Y013273D02*
X010588Y013273D01*
X010588Y013274D02*
X010908Y013274D01*
X010908Y013275D02*
X010588Y013275D01*
X010588Y013276D02*
X010908Y013276D01*
X010908Y013277D02*
X010588Y013277D01*
X010588Y013278D02*
X010908Y013278D01*
X010908Y013279D02*
X010588Y013279D01*
X010588Y013280D02*
X010908Y013280D01*
X010908Y013281D02*
X010588Y013281D01*
X010588Y013282D02*
X010908Y013282D01*
X010908Y013283D02*
X010588Y013283D01*
X010588Y013284D02*
X010908Y013284D01*
X010908Y013285D02*
X010588Y013285D01*
X010588Y013286D02*
X010908Y013286D01*
X010908Y013287D02*
X010588Y013287D01*
X010588Y013288D02*
X010908Y013288D01*
X010908Y013289D02*
X010588Y013289D01*
X010588Y013290D02*
X010908Y013290D01*
X010908Y013291D02*
X010588Y013291D01*
X010588Y013292D02*
X010908Y013292D01*
X010908Y013293D02*
X010588Y013293D01*
X010588Y013294D02*
X010908Y013294D01*
X010908Y013295D02*
X010588Y013295D01*
X010588Y013296D02*
X010908Y013296D01*
X010908Y013297D02*
X010588Y013297D01*
X010588Y013298D02*
X010908Y013298D01*
X010908Y013299D02*
X010588Y013299D01*
X010588Y013300D02*
X010908Y013300D01*
X010908Y013301D02*
X010588Y013301D01*
X010588Y013302D02*
X010908Y013302D01*
X010908Y013303D02*
X010588Y013303D01*
X010588Y013304D02*
X010908Y013304D01*
X010908Y013305D02*
X010588Y013305D01*
X010588Y013306D02*
X010908Y013306D01*
X010908Y013307D02*
X010588Y013307D01*
X010588Y013308D02*
X010908Y013308D01*
X010908Y013309D02*
X010588Y013309D01*
X010588Y013310D02*
X010908Y013310D01*
X010908Y013311D02*
X010588Y013311D01*
X010588Y013312D02*
X010908Y013312D01*
X010908Y013313D02*
X010588Y013313D01*
X010588Y013314D02*
X010908Y013314D01*
X010908Y013315D02*
X010588Y013315D01*
X010588Y013316D02*
X010908Y013316D01*
X010908Y013317D02*
X010588Y013317D01*
X010588Y013318D02*
X010908Y013318D01*
X010908Y013319D02*
X010588Y013319D01*
X010588Y013320D02*
X010908Y013320D01*
X010908Y013321D02*
X010588Y013321D01*
X010588Y013322D02*
X010908Y013322D01*
X010908Y013323D02*
X010588Y013323D01*
X010588Y013324D02*
X010908Y013324D01*
X010908Y013325D02*
X010588Y013325D01*
X010588Y013326D02*
X010908Y013326D01*
X010908Y013327D02*
X010588Y013327D01*
X010588Y013328D02*
X010908Y013328D01*
X010908Y013329D02*
X010588Y013329D01*
X010588Y013330D02*
X010908Y013330D01*
X010908Y013331D02*
X010588Y013331D01*
X010588Y013332D02*
X010908Y013332D01*
X010908Y013333D02*
X010588Y013333D01*
X010588Y013334D02*
X010908Y013334D01*
X010908Y013335D02*
X010588Y013335D01*
X010588Y013336D02*
X010908Y013336D01*
X010908Y013337D02*
X010588Y013337D01*
X010588Y013338D02*
X010908Y013338D01*
X010908Y013339D02*
X010588Y013339D01*
X010588Y013340D02*
X010908Y013340D01*
X010908Y013341D02*
X010588Y013341D01*
X010588Y013342D02*
X010908Y013342D01*
X010908Y013343D02*
X010588Y013343D01*
X010588Y013344D02*
X010908Y013344D01*
X010908Y013345D02*
X010588Y013345D01*
X010588Y013346D02*
X010908Y013346D01*
X010908Y013347D02*
X010588Y013347D01*
X010588Y013348D02*
X010908Y013348D01*
X010908Y013349D02*
X010588Y013349D01*
X010588Y013350D02*
X010908Y013350D01*
X010908Y013351D02*
X010588Y013351D01*
X010588Y013352D02*
X010908Y013352D01*
X010908Y013353D02*
X010588Y013353D01*
X010588Y013354D02*
X010908Y013354D01*
X010908Y013355D02*
X010588Y013355D01*
X010588Y013356D02*
X010908Y013356D01*
X010908Y013357D02*
X010588Y013357D01*
X010588Y013358D02*
X010908Y013358D01*
X010908Y013359D02*
X010588Y013359D01*
X010588Y013360D02*
X010908Y013360D01*
X010908Y013361D02*
X010588Y013361D01*
X010588Y013362D02*
X010908Y013362D01*
X010908Y013363D02*
X010588Y013363D01*
X010588Y013364D02*
X010908Y013364D01*
X010908Y013365D02*
X010588Y013365D01*
X010588Y013366D02*
X010908Y013366D01*
X010908Y013367D02*
X010588Y013367D01*
X010588Y013368D02*
X010908Y013368D01*
X010908Y013369D02*
X010588Y013369D01*
X010588Y013370D02*
X010908Y013370D01*
X010908Y013371D02*
X010588Y013371D01*
X010588Y013372D02*
X010908Y013372D01*
X010908Y013373D02*
X010588Y013373D01*
X010588Y013374D02*
X010908Y013374D01*
X010908Y013375D02*
X010588Y013375D01*
X010588Y013376D02*
X010908Y013376D01*
X010908Y013377D02*
X010588Y013377D01*
X010588Y013378D02*
X010908Y013378D01*
X010908Y013379D02*
X010588Y013379D01*
X010588Y013380D02*
X010908Y013380D01*
X010908Y013381D02*
X010588Y013381D01*
X010588Y013382D02*
X010908Y013382D01*
X010908Y013383D02*
X010588Y013383D01*
X010588Y013384D02*
X010908Y013384D01*
X010908Y013385D02*
X010588Y013385D01*
X010588Y013386D02*
X010908Y013386D01*
X010908Y013387D02*
X010588Y013387D01*
X010588Y013388D02*
X010908Y013388D01*
X010908Y013389D02*
X010588Y013389D01*
X010588Y013390D02*
X010908Y013390D01*
X010908Y013391D02*
X010588Y013391D01*
X010588Y013392D02*
X010908Y013392D01*
X010908Y013393D02*
X010588Y013393D01*
X010588Y013394D02*
X010908Y013394D01*
X010908Y013395D02*
X010588Y013395D01*
X010588Y013396D02*
X010908Y013396D01*
X010908Y013397D02*
X010588Y013397D01*
X010588Y013398D02*
X010908Y013398D01*
X010908Y013399D02*
X010588Y013399D01*
X010588Y013400D02*
X010908Y013400D01*
X010908Y013401D02*
X010588Y013401D01*
X010588Y013402D02*
X010908Y013402D01*
X010908Y013403D02*
X010588Y013403D01*
X010588Y013404D02*
X010908Y013404D01*
X010908Y013405D02*
X010588Y013405D01*
X010588Y013406D02*
X010908Y013406D01*
X010908Y013407D02*
X010588Y013407D01*
X010588Y013408D02*
X010908Y013408D01*
X010908Y013409D02*
X010588Y013409D01*
X010588Y013410D02*
X010908Y013410D01*
X010908Y013411D02*
X010588Y013411D01*
X010588Y013412D02*
X010908Y013412D01*
X010908Y013413D02*
X010588Y013413D01*
X010588Y013414D02*
X010908Y013414D01*
X010908Y013415D02*
X010588Y013415D01*
X010588Y013416D02*
X010908Y013416D01*
X010908Y013417D02*
X010588Y013417D01*
X010588Y013418D02*
X010908Y013418D01*
X010908Y013419D02*
X010588Y013419D01*
X010588Y013420D02*
X010908Y013420D01*
X010908Y013421D02*
X010588Y013421D01*
X010588Y013422D02*
X010908Y013422D01*
X010908Y013423D02*
X010588Y013423D01*
X010588Y013424D02*
X010908Y013424D01*
X010908Y013425D02*
X010588Y013425D01*
X010588Y013426D02*
X010908Y013426D01*
X010908Y013427D02*
X010588Y013427D01*
X010588Y013428D02*
X010908Y013428D01*
X010908Y013429D02*
X010588Y013429D01*
X010588Y013430D02*
X010908Y013430D01*
X010908Y013431D02*
X010588Y013431D01*
X010588Y013432D02*
X010908Y013432D01*
X010908Y013433D02*
X010588Y013433D01*
X010588Y013434D02*
X010908Y013434D01*
X010908Y013435D02*
X010588Y013435D01*
X010588Y013436D02*
X010908Y013436D01*
X010908Y013437D02*
X010588Y013437D01*
X010588Y013438D02*
X010908Y013438D01*
X010908Y013439D02*
X010588Y013439D01*
X010588Y013440D02*
X010908Y013440D01*
X010908Y013441D02*
X010588Y013441D01*
X010588Y013442D02*
X010908Y013442D01*
X010908Y013443D02*
X010588Y013443D01*
X010588Y013444D02*
X010908Y013444D01*
X010908Y013445D02*
X010588Y013445D01*
X010588Y013446D02*
X010908Y013446D01*
X010908Y013447D02*
X010588Y013447D01*
X010588Y013448D02*
X010908Y013448D01*
X010908Y013449D02*
X010588Y013449D01*
X010588Y013450D02*
X010908Y013450D01*
X010908Y013451D02*
X010588Y013451D01*
X010588Y013452D02*
X010908Y013452D01*
X010908Y013453D02*
X010588Y013453D01*
X010588Y013454D02*
X010908Y013454D01*
X010908Y013455D02*
X010588Y013455D01*
X010588Y013456D02*
X010908Y013456D01*
X010908Y013457D02*
X010588Y013457D01*
X010588Y013458D02*
X010908Y013458D01*
X010908Y013459D02*
X010588Y013459D01*
X010588Y013460D02*
X010908Y013460D01*
X010908Y013461D02*
X010588Y013461D01*
X010588Y013462D02*
X010908Y013462D01*
X010908Y013463D02*
X010588Y013463D01*
X010588Y013464D02*
X010908Y013464D01*
X010908Y013465D02*
X010588Y013465D01*
X010588Y013466D02*
X010908Y013466D01*
X010908Y013467D02*
X010588Y013467D01*
X010588Y013468D02*
X010908Y013468D01*
X010908Y013469D02*
X010588Y013469D01*
X010588Y013470D02*
X010908Y013470D01*
X010908Y013471D02*
X010588Y013471D01*
X010588Y013472D02*
X010908Y013472D01*
X010908Y013473D02*
X010588Y013473D01*
X010588Y013474D02*
X010908Y013474D01*
X010908Y013475D02*
X010588Y013475D01*
X010588Y013476D02*
X010908Y013476D01*
X010908Y013477D02*
X010588Y013477D01*
X010588Y013478D02*
X010908Y013478D01*
X010908Y013479D02*
X010588Y013479D01*
X010588Y013480D02*
X010908Y013480D01*
X010908Y013481D02*
X010588Y013481D01*
X010588Y013482D02*
X010908Y013482D01*
X010908Y013483D02*
X010588Y013483D01*
X010588Y013484D02*
X010908Y013484D01*
X010908Y013485D02*
X010588Y013485D01*
X010588Y013486D02*
X010908Y013486D01*
X010908Y013487D02*
X010588Y013487D01*
X010588Y013488D02*
X010908Y013488D01*
X010908Y013489D02*
X010588Y013489D01*
X010588Y013490D02*
X010908Y013490D01*
X010908Y013491D02*
X010588Y013491D01*
X010588Y013492D02*
X010908Y013492D01*
X010908Y013493D02*
X010588Y013493D01*
X010588Y013494D02*
X010908Y013494D01*
X010908Y013495D02*
X010588Y013495D01*
X010588Y013496D02*
X010908Y013496D01*
X010908Y013497D02*
X010588Y013497D01*
X010588Y013498D02*
X010908Y013498D01*
X010908Y013499D02*
X010588Y013499D01*
X010588Y013500D02*
X010908Y013500D01*
X010908Y013501D02*
X010588Y013501D01*
X010588Y013502D02*
X010908Y013502D01*
X010908Y013503D02*
X010588Y013503D01*
X010588Y013504D02*
X010908Y013504D01*
X010908Y013505D02*
X010588Y013505D01*
X010588Y013506D02*
X010908Y013506D01*
X010908Y013507D02*
X010588Y013507D01*
X010588Y013508D02*
X010908Y013508D01*
X010908Y013509D02*
X010588Y013509D01*
X010588Y013510D02*
X010908Y013510D01*
X010908Y013511D02*
X010588Y013511D01*
X010588Y013512D02*
X010908Y013512D01*
X010908Y013513D02*
X010588Y013513D01*
X010588Y013514D02*
X010908Y013514D01*
X010908Y013515D02*
X010588Y013515D01*
X010588Y013516D02*
X010908Y013516D01*
X010908Y013517D02*
X010588Y013517D01*
X010588Y013518D02*
X010908Y013518D01*
X010908Y013519D02*
X010588Y013519D01*
X010588Y013520D02*
X010908Y013520D01*
X010908Y013521D02*
X010588Y013521D01*
X010588Y013522D02*
X010908Y013522D01*
X010908Y013523D02*
X010588Y013523D01*
X010588Y013524D02*
X010908Y013524D01*
X010908Y013525D02*
X010588Y013525D01*
X010588Y013526D02*
X010908Y013526D01*
X010908Y013527D02*
X010588Y013527D01*
X010588Y013528D02*
X010908Y013528D01*
X010908Y013529D02*
X010588Y013529D01*
X010588Y013530D02*
X010908Y013530D01*
X010908Y013531D02*
X010588Y013531D01*
X010588Y013532D02*
X010908Y013532D01*
X010908Y013533D02*
X010588Y013533D01*
X010588Y013534D02*
X010908Y013534D01*
X010908Y013535D02*
X010588Y013535D01*
X010588Y013536D02*
X010908Y013536D01*
X010908Y013537D02*
X010588Y013537D01*
X010588Y013538D02*
X010908Y013538D01*
X010908Y013539D02*
X010588Y013539D01*
X010588Y013540D02*
X010908Y013540D01*
X010908Y013541D02*
X010588Y013541D01*
X010588Y013542D02*
X010908Y013542D01*
X010908Y013543D02*
X010588Y013543D01*
X010588Y013544D02*
X010908Y013544D01*
X010908Y013545D02*
X010588Y013545D01*
X010588Y013546D02*
X010908Y013546D01*
X010908Y013547D02*
X010588Y013547D01*
X010588Y013548D02*
X010908Y013548D01*
X010908Y013549D02*
X010588Y013549D01*
X010588Y013550D02*
X010908Y013550D01*
X010908Y013551D02*
X010588Y013551D01*
X010588Y013552D02*
X010908Y013552D01*
X010908Y013553D02*
X010588Y013553D01*
X010588Y013554D02*
X010908Y013554D01*
X010908Y013555D02*
X010588Y013555D01*
X010588Y013556D02*
X010908Y013556D01*
X010908Y013557D02*
X010588Y013557D01*
X010588Y013558D02*
X010908Y013558D01*
X010908Y013559D02*
X010588Y013559D01*
X010588Y013560D02*
X010908Y013560D01*
X010908Y013561D02*
X010588Y013561D01*
X010588Y013562D02*
X010908Y013562D01*
X010908Y013563D02*
X010588Y013563D01*
X010588Y013564D02*
X010908Y013564D01*
X010908Y013565D02*
X010588Y013565D01*
X010588Y013566D02*
X010908Y013566D01*
X010908Y013567D02*
X010588Y013567D01*
X010588Y013568D02*
X010908Y013568D01*
X010908Y013569D02*
X010588Y013569D01*
X010588Y013570D02*
X010908Y013570D01*
X010908Y013571D02*
X010588Y013571D01*
X010588Y013572D02*
X010908Y013572D01*
X010908Y013573D02*
X010588Y013573D01*
X010588Y013574D02*
X010908Y013574D01*
X010908Y013575D02*
X010588Y013575D01*
X010588Y013576D02*
X010908Y013576D01*
X010908Y013577D02*
X010588Y013577D01*
X010588Y013578D02*
X010908Y013578D01*
X010908Y013579D02*
X010588Y013579D01*
X010588Y013580D02*
X010908Y013580D01*
X010908Y013581D02*
X010588Y013581D01*
X010588Y013582D02*
X010908Y013582D01*
X010908Y013583D02*
X010588Y013583D01*
X010588Y013584D02*
X010908Y013584D01*
X010908Y013585D02*
X010588Y013585D01*
X010588Y013586D02*
X010908Y013586D01*
X010908Y013587D02*
X010588Y013587D01*
X010588Y013588D02*
X010908Y013588D01*
X010908Y013589D02*
X010588Y013589D01*
X010588Y013590D02*
X010908Y013590D01*
X010908Y013591D02*
X010588Y013591D01*
X010588Y013592D02*
X010908Y013592D01*
X010908Y013593D02*
X010588Y013593D01*
X010588Y013594D02*
X010908Y013594D01*
X010908Y013595D02*
X010588Y013595D01*
X010588Y013596D02*
X010908Y013596D01*
X010908Y013597D02*
X010588Y013597D01*
X010588Y013598D02*
X010908Y013598D01*
X010908Y013599D02*
X010588Y013599D01*
X010588Y013600D02*
X010908Y013600D01*
X010908Y013601D02*
X010588Y013601D01*
X010588Y013602D02*
X010908Y013602D01*
X010908Y013603D02*
X010588Y013603D01*
X010588Y013604D02*
X010908Y013604D01*
X010908Y013605D02*
X010588Y013605D01*
X010588Y013606D02*
X010908Y013606D01*
X010908Y013607D02*
X010588Y013607D01*
X010588Y013608D02*
X010908Y013608D01*
X010908Y013609D02*
X010588Y013609D01*
X010588Y013610D02*
X010908Y013610D01*
X010908Y013611D02*
X010588Y013611D01*
X010588Y013612D02*
X010908Y013612D01*
X010908Y013613D02*
X010588Y013613D01*
X010588Y013614D02*
X010908Y013614D01*
X010908Y013615D02*
X010588Y013615D01*
X010588Y013616D02*
X010908Y013616D01*
X010908Y013617D02*
X010588Y013617D01*
X010588Y013618D02*
X010908Y013618D01*
X010908Y013619D02*
X010588Y013619D01*
X010588Y013620D02*
X010908Y013620D01*
X010908Y013621D02*
X010588Y013621D01*
X010588Y013622D02*
X010908Y013622D01*
X010908Y013623D02*
X010588Y013623D01*
X010588Y013624D02*
X010908Y013624D01*
X010908Y013625D02*
X010588Y013625D01*
X010588Y013626D02*
X010908Y013626D01*
X010908Y013627D02*
X010588Y013627D01*
X010588Y013628D02*
X010908Y013628D01*
X010908Y013629D02*
X010588Y013629D01*
X010588Y013630D02*
X010908Y013630D01*
X010908Y013631D02*
X010588Y013631D01*
X010588Y013632D02*
X010908Y013632D01*
X010908Y013633D02*
X010588Y013633D01*
X010588Y013634D02*
X010908Y013634D01*
X010908Y013635D02*
X010588Y013635D01*
X010588Y013636D02*
X010908Y013636D01*
X010908Y013637D02*
X010588Y013637D01*
X010588Y013638D02*
X010908Y013638D01*
X010908Y013639D02*
X010588Y013639D01*
X010588Y013640D02*
X010908Y013640D01*
X010908Y013641D02*
X010588Y013641D01*
X010588Y013642D02*
X010908Y013642D01*
X010908Y013643D02*
X010588Y013643D01*
X010588Y013644D02*
X010908Y013644D01*
X010908Y013645D02*
X010588Y013645D01*
X010588Y013646D02*
X010908Y013646D01*
X010908Y013647D02*
X010588Y013647D01*
X010588Y013648D02*
X010908Y013648D01*
X010908Y013649D02*
X010588Y013649D01*
X010588Y013650D02*
X010908Y013650D01*
X010908Y013651D02*
X010588Y013651D01*
X010588Y013652D02*
X010908Y013652D01*
X010908Y013653D02*
X010588Y013653D01*
X010588Y013654D02*
X010908Y013654D01*
X010908Y013655D02*
X010588Y013655D01*
X010588Y013656D02*
X010908Y013656D01*
X010908Y013657D02*
X010588Y013657D01*
X010588Y013658D02*
X010908Y013658D01*
X010908Y013659D02*
X010588Y013659D01*
X010588Y013660D02*
X010908Y013660D01*
X010908Y013661D02*
X010588Y013661D01*
X010588Y013662D02*
X010908Y013662D01*
X010908Y013663D02*
X010588Y013663D01*
X010588Y013664D02*
X010908Y013664D01*
X010908Y013665D02*
X010588Y013665D01*
X010588Y013666D02*
X010908Y013666D01*
X010908Y013667D02*
X010588Y013667D01*
X010588Y013668D02*
X010908Y013668D01*
X010908Y013669D02*
X010588Y013669D01*
X010588Y013670D02*
X010908Y013670D01*
X010908Y013671D02*
X010588Y013671D01*
X010588Y013672D02*
X010908Y013672D01*
X010908Y013673D02*
X010588Y013673D01*
X010588Y013674D02*
X010908Y013674D01*
X010908Y013675D02*
X010588Y013675D01*
X010588Y013676D02*
X010908Y013676D01*
X010908Y013677D02*
X010588Y013677D01*
X010588Y013678D02*
X010908Y013678D01*
X010908Y013679D02*
X010588Y013679D01*
X010588Y013680D02*
X010908Y013680D01*
X010908Y013681D02*
X010588Y013681D01*
X010588Y013682D02*
X010908Y013682D01*
X010908Y013683D02*
X010588Y013683D01*
X010588Y013684D02*
X010908Y013684D01*
X010908Y013685D02*
X010588Y013685D01*
X010588Y013686D02*
X010908Y013686D01*
X010908Y013687D02*
X010588Y013687D01*
X010588Y013688D02*
X010908Y013688D01*
X010908Y013689D02*
X010588Y013689D01*
X010588Y013690D02*
X010908Y013690D01*
X010908Y013691D02*
X010588Y013691D01*
X010588Y013692D02*
X010908Y013692D01*
X010908Y013693D02*
X010588Y013693D01*
X010588Y013694D02*
X010908Y013694D01*
X010908Y013695D02*
X010588Y013695D01*
X010588Y013696D02*
X010908Y013696D01*
X010908Y013697D02*
X010588Y013697D01*
X010588Y013698D02*
X010908Y013698D01*
X010908Y013699D02*
X010588Y013699D01*
X010588Y013700D02*
X010908Y013700D01*
X010908Y013701D02*
X010588Y013701D01*
X010588Y013702D02*
X010908Y013702D01*
X010908Y013703D02*
X010588Y013703D01*
X010588Y013704D02*
X010908Y013704D01*
X010908Y013705D02*
X010588Y013705D01*
X010588Y013706D02*
X010908Y013706D01*
X010908Y013707D02*
X010588Y013707D01*
X010588Y013708D02*
X010908Y013708D01*
X010908Y013709D02*
X010588Y013709D01*
X010588Y013710D02*
X010908Y013710D01*
X010908Y013711D02*
X010588Y013711D01*
X010588Y013712D02*
X010908Y013712D01*
X010908Y013713D02*
X010588Y013713D01*
X010588Y013714D02*
X010908Y013714D01*
X010908Y013715D02*
X010588Y013715D01*
X010588Y013716D02*
X010908Y013716D01*
X010908Y013717D02*
X010588Y013717D01*
X010588Y013718D02*
X010908Y013718D01*
X010908Y013719D02*
X010588Y013719D01*
X010588Y013720D02*
X010908Y013720D01*
X010908Y013721D02*
X010588Y013721D01*
X010588Y013722D02*
X010908Y013722D01*
X010908Y013723D02*
X010588Y013723D01*
X010588Y013724D02*
X010908Y013724D01*
X010908Y013725D02*
X010588Y013725D01*
X010588Y013726D02*
X010908Y013726D01*
X010908Y013727D02*
X010588Y013727D01*
X010588Y013728D02*
X010908Y013728D01*
X010908Y013729D02*
X010588Y013729D01*
X010588Y013730D02*
X010908Y013730D01*
X010908Y013731D02*
X010588Y013731D01*
X010588Y013732D02*
X010908Y013732D01*
X010908Y013733D02*
X010588Y013733D01*
X010588Y013734D02*
X010908Y013734D01*
X010908Y013735D02*
X010588Y013735D01*
X010588Y013736D02*
X010908Y013736D01*
X010908Y013737D02*
X010588Y013737D01*
X010588Y013738D02*
X010908Y013738D01*
X010908Y013739D02*
X010588Y013739D01*
X010588Y013740D02*
X010908Y013740D01*
X010908Y013741D02*
X010588Y013741D01*
X010588Y013742D02*
X010908Y013742D01*
X010908Y013743D02*
X010588Y013743D01*
X010588Y013744D02*
X010908Y013744D01*
X010908Y013745D02*
X010588Y013745D01*
X010588Y013746D02*
X010908Y013746D01*
X010908Y013747D02*
X010588Y013747D01*
X010588Y013748D02*
X010908Y013748D01*
X010908Y013749D02*
X010588Y013749D01*
X010588Y013750D02*
X010908Y013750D01*
X010908Y013751D02*
X010588Y013751D01*
X010588Y013752D02*
X010908Y013752D01*
X010908Y013753D02*
X010588Y013753D01*
X010588Y013754D02*
X010908Y013754D01*
X010908Y013755D02*
X010588Y013755D01*
X010588Y013756D02*
X010908Y013756D01*
X010908Y013757D02*
X010588Y013757D01*
X010588Y013758D02*
X010908Y013758D01*
X010908Y013759D02*
X010588Y013759D01*
X010588Y013760D02*
X010908Y013760D01*
X010908Y013761D02*
X010588Y013761D01*
X010588Y013762D02*
X010908Y013762D01*
X010908Y013763D02*
X010588Y013763D01*
X010588Y013764D02*
X010908Y013764D01*
X010908Y013765D02*
X010588Y013765D01*
X010588Y013766D02*
X010908Y013766D01*
X010908Y013767D02*
X010588Y013767D01*
X010588Y013768D02*
X010908Y013768D01*
X010908Y013769D02*
X010588Y013769D01*
X010588Y013770D02*
X010908Y013770D01*
X010908Y013771D02*
X010588Y013771D01*
X010588Y013772D02*
X010908Y013772D01*
X010908Y013773D02*
X010588Y013773D01*
X010588Y013774D02*
X010908Y013774D01*
X010908Y013775D02*
X010588Y013775D01*
X010588Y013776D02*
X010908Y013776D01*
X010908Y013777D02*
X010588Y013777D01*
X010588Y013778D02*
X010908Y013778D01*
X010908Y013779D02*
X010588Y013779D01*
X010588Y013780D02*
X010908Y013780D01*
X010908Y013781D02*
X010588Y013781D01*
X010588Y013782D02*
X010908Y013782D01*
X010908Y013783D02*
X010588Y013783D01*
X010588Y013784D02*
X010908Y013784D01*
X010908Y013785D02*
X010588Y013785D01*
X010588Y013786D02*
X010908Y013786D01*
X010908Y013787D02*
X010588Y013787D01*
X010588Y013788D02*
X010908Y013788D01*
X010908Y013789D02*
X010588Y013789D01*
X010588Y013790D02*
X010908Y013790D01*
X010908Y013791D02*
X010588Y013791D01*
X010588Y013792D02*
X010908Y013792D01*
X010908Y013793D02*
X010588Y013793D01*
X010588Y013794D02*
X010908Y013794D01*
X010908Y013795D02*
X010588Y013795D01*
X010588Y013796D02*
X010908Y013796D01*
X010908Y013797D02*
X010588Y013797D01*
X010588Y013798D02*
X010908Y013798D01*
X010908Y013799D02*
X010588Y013799D01*
X010588Y013800D02*
X010908Y013800D01*
X010908Y013801D02*
X010588Y013801D01*
X010588Y013802D02*
X010908Y013802D01*
X010908Y013803D02*
X010588Y013803D01*
X010588Y013804D02*
X010908Y013804D01*
X010908Y013805D02*
X010588Y013805D01*
X010588Y013806D02*
X010908Y013806D01*
X010908Y013807D02*
X010588Y013807D01*
X010588Y013808D02*
X010908Y013808D01*
X010908Y013809D02*
X010588Y013809D01*
X010588Y013810D02*
X010908Y013810D01*
X010908Y013811D02*
X010588Y013811D01*
X010588Y013812D02*
X010908Y013812D01*
X010908Y013813D02*
X010588Y013813D01*
X010588Y013814D02*
X010908Y013814D01*
X010908Y013815D02*
X010588Y013815D01*
X010588Y013816D02*
X010908Y013816D01*
X010908Y013817D02*
X010588Y013817D01*
X010588Y013818D02*
X010908Y013818D01*
X010908Y013819D02*
X010588Y013819D01*
X010588Y013820D02*
X010908Y013820D01*
X010908Y013821D02*
X010588Y013821D01*
X010588Y013822D02*
X010908Y013822D01*
X010908Y013823D02*
X010588Y013823D01*
X010588Y013824D02*
X010908Y013824D01*
X010908Y013825D02*
X010588Y013825D01*
X010588Y013826D02*
X010908Y013826D01*
X010908Y013827D02*
X010588Y013827D01*
X010588Y013828D02*
X010908Y013828D01*
X010908Y013829D02*
X010588Y013829D01*
X010588Y013830D02*
X010908Y013830D01*
X010908Y013831D02*
X010588Y013831D01*
X010588Y013832D02*
X010908Y013832D01*
X010908Y013833D02*
X010588Y013833D01*
X010588Y013834D02*
X010908Y013834D01*
X010908Y013835D02*
X010588Y013835D01*
X010588Y013836D02*
X010908Y013836D01*
X010908Y013837D02*
X010588Y013837D01*
X010588Y013838D02*
X010908Y013838D01*
X010908Y013839D02*
X010588Y013839D01*
X010588Y013840D02*
X010908Y013840D01*
X010908Y013841D02*
X010588Y013841D01*
X010588Y013842D02*
X010908Y013842D01*
X010908Y013843D02*
X010588Y013843D01*
X010588Y013844D02*
X010908Y013844D01*
X010908Y013845D02*
X010588Y013845D01*
X010588Y013846D02*
X010908Y013846D01*
X010908Y013847D02*
X010588Y013847D01*
X010588Y013848D02*
X010908Y013848D01*
X010908Y013849D02*
X010588Y013849D01*
X010588Y013850D02*
X010908Y013850D01*
X010908Y013851D02*
X010588Y013851D01*
X010588Y013852D02*
X010908Y013852D01*
X010908Y013853D02*
X010588Y013853D01*
X010588Y013854D02*
X010908Y013854D01*
X010908Y013855D02*
X010588Y013855D01*
X010588Y013856D02*
X010908Y013856D01*
X010908Y013857D02*
X010588Y013857D01*
X010588Y013858D02*
X010908Y013858D01*
X010908Y013859D02*
X010588Y013859D01*
X010588Y013860D02*
X010908Y013860D01*
X010908Y013861D02*
X010588Y013861D01*
X010588Y013862D02*
X010908Y013862D01*
X010908Y013863D02*
X010588Y013863D01*
X010588Y013864D02*
X010908Y013864D01*
X010908Y013865D02*
X010588Y013865D01*
X010588Y013866D02*
X010908Y013866D01*
X010908Y013867D02*
X010588Y013867D01*
X010588Y013868D02*
X010908Y013868D01*
X010908Y013869D02*
X010588Y013869D01*
X010588Y013870D02*
X010908Y013870D01*
X010908Y013871D02*
X010588Y013871D01*
X010588Y013872D02*
X010908Y013872D01*
X010908Y013873D02*
X010588Y013873D01*
X010588Y013874D02*
X010908Y013874D01*
X010908Y013875D02*
X010588Y013875D01*
X010588Y013876D02*
X010908Y013876D01*
X010908Y013877D02*
X010588Y013877D01*
X010588Y013878D02*
X010908Y013878D01*
X010908Y013879D02*
X010588Y013879D01*
X010588Y013880D02*
X010908Y013880D01*
X010908Y013881D02*
X010588Y013881D01*
X010588Y013882D02*
X010908Y013882D01*
X010908Y013883D02*
X010588Y013883D01*
X010588Y013884D02*
X010908Y013884D01*
X010908Y013885D02*
X010588Y013885D01*
X010588Y013886D02*
X010908Y013886D01*
X010908Y013887D02*
X010588Y013887D01*
X010588Y013888D02*
X010908Y013888D01*
X010908Y013889D02*
X010588Y013889D01*
X010588Y013890D02*
X010908Y013890D01*
X010908Y013891D02*
X010588Y013891D01*
X010588Y013892D02*
X010908Y013892D01*
X010908Y013893D02*
X010588Y013893D01*
X010588Y013894D02*
X010908Y013894D01*
X010908Y013895D02*
X010588Y013895D01*
X010588Y013896D02*
X010908Y013896D01*
X010908Y013897D02*
X010588Y013897D01*
X010588Y013898D02*
X010908Y013898D01*
X010908Y013899D02*
X010588Y013899D01*
X010588Y013900D02*
X010908Y013900D01*
X010908Y013901D02*
X010588Y013901D01*
X010588Y013902D02*
X010908Y013902D01*
X010908Y013903D02*
X010588Y013903D01*
X010588Y013904D02*
X010908Y013904D01*
X010908Y013905D02*
X010588Y013905D01*
X010588Y013906D02*
X010908Y013906D01*
X010908Y013907D02*
X010588Y013907D01*
X010588Y013908D02*
X010908Y013908D01*
X010908Y013909D02*
X010588Y013909D01*
X010588Y013910D02*
X010908Y013910D01*
X010908Y013911D02*
X010588Y013911D01*
X010588Y013912D02*
X010908Y013912D01*
X010908Y013913D02*
X010588Y013913D01*
X010588Y013914D02*
X010908Y013914D01*
X010907Y013915D02*
X010588Y013915D01*
X010588Y013916D02*
X010907Y013916D01*
X010907Y013917D02*
X010588Y013917D01*
X010588Y013918D02*
X010907Y013918D01*
X010907Y013919D02*
X010588Y013919D01*
X010588Y013920D02*
X010907Y013920D01*
X010907Y013921D02*
X010589Y013921D01*
X010589Y013922D02*
X010907Y013922D01*
X010907Y013923D02*
X010589Y013923D01*
X010589Y013924D02*
X010906Y013924D01*
X010906Y013925D02*
X010589Y013925D01*
X010589Y013926D02*
X010906Y013926D01*
X010906Y013927D02*
X010589Y013927D01*
X010589Y013928D02*
X010906Y013928D01*
X010906Y013929D02*
X010589Y013929D01*
X010590Y013930D02*
X010906Y013930D01*
X010906Y013931D02*
X010590Y013931D01*
X010590Y013932D02*
X010906Y013932D01*
X010905Y013933D02*
X010590Y013933D01*
X010590Y013934D02*
X010905Y013934D01*
X010905Y013935D02*
X010590Y013935D01*
X010590Y013936D02*
X010905Y013936D01*
X010905Y013937D02*
X010590Y013937D01*
X010590Y013938D02*
X010905Y013938D01*
X010905Y013939D02*
X010591Y013939D01*
X010591Y013940D02*
X010905Y013940D01*
X010905Y013941D02*
X010591Y013941D01*
X010591Y013942D02*
X010904Y013942D01*
X010904Y013943D02*
X010591Y013943D01*
X010591Y013944D02*
X010904Y013944D01*
X010904Y013945D02*
X010591Y013945D01*
X010591Y013946D02*
X010904Y013946D01*
X010904Y013947D02*
X010592Y013947D01*
X010592Y013948D02*
X010904Y013948D01*
X010904Y013949D02*
X010592Y013949D01*
X010592Y013950D02*
X010903Y013950D01*
X010903Y013951D02*
X010592Y013951D01*
X010593Y013952D02*
X010903Y013952D01*
X010902Y013953D02*
X010593Y013953D01*
X010594Y013954D02*
X010902Y013954D01*
X010902Y013955D02*
X010594Y013955D01*
X010594Y013956D02*
X010901Y013956D01*
X010901Y013957D02*
X010595Y013957D01*
X010595Y013958D02*
X010900Y013958D01*
X010900Y013959D02*
X010595Y013959D01*
X010596Y013960D02*
X010900Y013960D01*
X010899Y013961D02*
X010596Y013961D01*
X010596Y013962D02*
X010899Y013962D01*
X010899Y013963D02*
X010597Y013963D01*
X010597Y013964D02*
X010898Y013964D01*
X010898Y013965D02*
X010597Y013965D01*
X010598Y013966D02*
X010898Y013966D01*
X010897Y013967D02*
X010598Y013967D01*
X010598Y013968D02*
X010897Y013968D01*
X010897Y013969D02*
X010599Y013969D01*
X010599Y013970D02*
X010896Y013970D01*
X010896Y013971D02*
X010599Y013971D01*
X010600Y013972D02*
X010896Y013972D01*
X010895Y013973D02*
X010600Y013973D01*
X010601Y013974D02*
X010895Y013974D01*
X010895Y013975D02*
X010601Y013975D01*
X010601Y013976D02*
X010894Y013976D01*
X010894Y013977D02*
X010602Y013977D01*
X010602Y013978D02*
X010893Y013978D01*
X010893Y013979D02*
X010602Y013979D01*
X010603Y013980D02*
X010893Y013980D01*
X010892Y013981D02*
X010603Y013981D01*
X010603Y013982D02*
X010892Y013982D01*
X010892Y013983D02*
X010604Y013983D01*
X010604Y013984D02*
X010891Y013984D01*
X010890Y013985D02*
X010605Y013985D01*
X010606Y013986D02*
X010890Y013986D01*
X010889Y013987D02*
X010606Y013987D01*
X010607Y013988D02*
X010889Y013988D01*
X010888Y013989D02*
X010608Y013989D01*
X010608Y013990D02*
X010887Y013990D01*
X010887Y013991D02*
X010609Y013991D01*
X010609Y013992D02*
X010886Y013992D01*
X010885Y013993D02*
X010610Y013993D01*
X010611Y013994D02*
X010885Y013994D01*
X010884Y013995D02*
X010611Y013995D01*
X010612Y013996D02*
X010883Y013996D01*
X010883Y013997D02*
X010613Y013997D01*
X010613Y013998D02*
X010882Y013998D01*
X010882Y013999D02*
X010614Y013999D01*
X010614Y014000D02*
X010881Y014000D01*
X010880Y014001D02*
X010615Y014001D01*
X010616Y014002D02*
X010880Y014002D01*
X010879Y014003D02*
X010616Y014003D01*
X010617Y014004D02*
X010878Y014004D01*
X010878Y014005D02*
X010618Y014005D01*
X010618Y014006D02*
X010877Y014006D01*
X010877Y014007D02*
X010619Y014007D01*
X010619Y014008D02*
X010876Y014008D01*
X010875Y014009D02*
X010620Y014009D01*
X010621Y014010D02*
X010875Y014010D01*
X010874Y014011D02*
X010621Y014011D01*
X010622Y014012D02*
X010873Y014012D01*
X010873Y014013D02*
X010623Y014013D01*
X010624Y014014D02*
X010872Y014014D01*
X010871Y014015D02*
X010625Y014015D01*
X010626Y014016D02*
X010870Y014016D01*
X010869Y014017D02*
X010627Y014017D01*
X010628Y014018D02*
X010868Y014018D01*
X010867Y014019D02*
X010629Y014019D01*
X010630Y014020D02*
X010866Y014020D01*
X010865Y014021D02*
X010631Y014021D01*
X010632Y014022D02*
X010864Y014022D01*
X010863Y014023D02*
X010633Y014023D01*
X010634Y014024D02*
X010862Y014024D01*
X010861Y014025D02*
X010635Y014025D01*
X010636Y014026D02*
X010860Y014026D01*
X010859Y014027D02*
X010637Y014027D01*
X010638Y014028D02*
X010858Y014028D01*
X010857Y014029D02*
X010639Y014029D01*
X010640Y014030D02*
X010856Y014030D01*
X010855Y014031D02*
X010641Y014031D01*
X010642Y014032D02*
X010854Y014032D01*
X010853Y014033D02*
X010643Y014033D01*
X010644Y014034D02*
X010852Y014034D01*
X010851Y014035D02*
X010645Y014035D01*
X010646Y014036D02*
X010850Y014036D01*
X010849Y014037D02*
X010647Y014037D01*
X010648Y014038D02*
X010848Y014038D01*
X010846Y014039D02*
X010649Y014039D01*
X010651Y014040D02*
X010845Y014040D01*
X010843Y014041D02*
X010652Y014041D01*
X010654Y014042D02*
X010842Y014042D01*
X010840Y014043D02*
X010655Y014043D01*
X010657Y014044D02*
X010839Y014044D01*
X010837Y014045D02*
X010658Y014045D01*
X010660Y014046D02*
X010835Y014046D01*
X010834Y014047D02*
X010662Y014047D01*
X010663Y014048D02*
X010832Y014048D01*
X010831Y014049D02*
X010665Y014049D01*
X010666Y014050D02*
X010829Y014050D01*
X010827Y014051D02*
X010668Y014051D01*
X010670Y014052D02*
X010826Y014052D01*
X010824Y014053D02*
X010671Y014053D01*
X010673Y014054D02*
X010823Y014054D01*
X010821Y014055D02*
X010674Y014055D01*
X010676Y014056D02*
X010819Y014056D01*
X010818Y014057D02*
X010678Y014057D01*
X010680Y014058D02*
X010816Y014058D01*
X010813Y014059D02*
X010683Y014059D01*
X010686Y014060D02*
X010810Y014060D01*
X010807Y014061D02*
X010688Y014061D01*
X010691Y014062D02*
X010804Y014062D01*
X010801Y014063D02*
X010694Y014063D01*
X010697Y014064D02*
X010798Y014064D01*
X010796Y014065D02*
X010700Y014065D01*
X010703Y014066D02*
X010793Y014066D01*
X010790Y014067D02*
X010706Y014067D01*
X010708Y014068D02*
X010787Y014068D01*
X010784Y014069D02*
X010711Y014069D01*
X010718Y014070D02*
X010777Y014070D01*
X010768Y014071D02*
X010727Y014071D01*
X010736Y014072D02*
X010759Y014072D01*
X010751Y014073D02*
X010745Y014073D01*
X010681Y012988D02*
X010814Y012988D01*
X010811Y012987D02*
X010684Y012987D01*
X010687Y012986D02*
X010808Y012986D01*
X010805Y012985D02*
X010690Y012985D01*
X010693Y012984D02*
X010803Y012984D01*
X010800Y012983D02*
X010696Y012983D01*
X010699Y012982D02*
X010797Y012982D01*
X010794Y012981D02*
X010701Y012981D01*
X010704Y012980D02*
X010791Y012980D01*
X010788Y012979D02*
X010707Y012979D01*
X010710Y012978D02*
X010785Y012978D01*
X010781Y012977D02*
X010714Y012977D01*
X010723Y012976D02*
X010772Y012976D01*
X010763Y012975D02*
X010732Y012975D01*
X010741Y012974D02*
X010754Y012974D01*
X009962Y011714D02*
X009033Y011714D01*
X009032Y011713D02*
X009964Y011713D01*
X009965Y011712D02*
X009030Y011712D01*
X009028Y011711D02*
X009967Y011711D01*
X009969Y011710D02*
X009027Y011710D01*
X009025Y011709D02*
X009970Y011709D01*
X009972Y011708D02*
X009024Y011708D01*
X009022Y011707D02*
X009973Y011707D01*
X009975Y011706D02*
X009021Y011706D01*
X009019Y011705D02*
X009976Y011705D01*
X009978Y011704D02*
X009017Y011704D01*
X009016Y011703D02*
X009980Y011703D01*
X009981Y011702D02*
X009014Y011702D01*
X009013Y011701D02*
X009983Y011701D01*
X009984Y011700D02*
X009011Y011700D01*
X009009Y011699D02*
X009986Y011699D01*
X009988Y011698D02*
X009008Y011698D01*
X009007Y011697D02*
X009989Y011697D01*
X009990Y011696D02*
X009006Y011696D01*
X009005Y011695D02*
X009991Y011695D01*
X009992Y011694D02*
X009004Y011694D01*
X009003Y011693D02*
X009993Y011693D01*
X009994Y011692D02*
X009002Y011692D01*
X009001Y011691D02*
X009995Y011691D01*
X009996Y011690D02*
X009000Y011690D01*
X008999Y011689D02*
X009997Y011689D01*
X009998Y011688D02*
X008998Y011688D01*
X008997Y011687D02*
X009999Y011687D01*
X010000Y011686D02*
X008996Y011686D01*
X008995Y011685D02*
X010001Y011685D01*
X010002Y011684D02*
X008994Y011684D01*
X008993Y011683D02*
X010003Y011683D01*
X010004Y011682D02*
X008992Y011682D01*
X008991Y011681D02*
X010005Y011681D01*
X010006Y011680D02*
X008990Y011680D01*
X008989Y011679D02*
X010007Y011679D01*
X010008Y011678D02*
X008988Y011678D01*
X008987Y011677D02*
X010009Y011677D01*
X010010Y011676D02*
X008986Y011676D01*
X008985Y011675D02*
X010011Y011675D01*
X010012Y011674D02*
X008984Y011674D01*
X008983Y011673D02*
X010013Y011673D01*
X010013Y011672D02*
X008982Y011672D01*
X008982Y011671D02*
X010014Y011671D01*
X010015Y011670D02*
X008981Y011670D01*
X008980Y011669D02*
X010015Y011669D01*
X010016Y011668D02*
X008980Y011668D01*
X008979Y011667D02*
X010016Y011667D01*
X010017Y011666D02*
X008978Y011666D01*
X008978Y011665D02*
X010018Y011665D01*
X010018Y011664D02*
X008977Y011664D01*
X008977Y011663D02*
X010019Y011663D01*
X010020Y011662D02*
X008976Y011662D01*
X008975Y011661D02*
X010020Y011661D01*
X010021Y011660D02*
X008975Y011660D01*
X008974Y011659D02*
X010021Y011659D01*
X010022Y011658D02*
X008973Y011658D01*
X008973Y011657D02*
X010023Y011657D01*
X010023Y011656D02*
X008972Y011656D01*
X008971Y011655D02*
X010024Y011655D01*
X010025Y011654D02*
X008971Y011654D01*
X008970Y011653D02*
X010025Y011653D01*
X010026Y011652D02*
X008970Y011652D01*
X008969Y011651D02*
X010026Y011651D01*
X010027Y011650D02*
X008968Y011650D01*
X008968Y011649D02*
X010028Y011649D01*
X010028Y011648D02*
X008967Y011648D01*
X008966Y011647D02*
X010029Y011647D01*
X010030Y011646D02*
X008966Y011646D01*
X008965Y011645D02*
X010030Y011645D01*
X010031Y011644D02*
X008965Y011644D01*
X008964Y011643D02*
X010031Y011643D01*
X010032Y011642D02*
X008963Y011642D01*
X008963Y011641D02*
X010032Y011641D01*
X010033Y011640D02*
X008963Y011640D01*
X008962Y011639D02*
X010033Y011639D01*
X010033Y011638D02*
X008962Y011638D01*
X008962Y011637D02*
X010034Y011637D01*
X010034Y011636D02*
X008961Y011636D01*
X008961Y011635D02*
X010034Y011635D01*
X010035Y011634D02*
X008961Y011634D01*
X008960Y011633D02*
X010035Y011633D01*
X010035Y011632D02*
X008960Y011632D01*
X008960Y011631D02*
X010036Y011631D01*
X010036Y011630D02*
X008959Y011630D01*
X008959Y011629D02*
X010037Y011629D01*
X010037Y011628D02*
X008959Y011628D01*
X008958Y011627D02*
X010037Y011627D01*
X010038Y011626D02*
X008958Y011626D01*
X008957Y011625D02*
X010038Y011625D01*
X010038Y011624D02*
X008957Y011624D01*
X008957Y011623D02*
X010039Y011623D01*
X010039Y011622D02*
X008956Y011622D01*
X008956Y011621D02*
X010039Y011621D01*
X010040Y011620D02*
X008956Y011620D01*
X008955Y011619D02*
X010040Y011619D01*
X010040Y011618D02*
X008955Y011618D01*
X008955Y011617D02*
X010041Y011617D01*
X010041Y011616D02*
X008954Y011616D01*
X008954Y011615D02*
X010041Y011615D01*
X010042Y011614D02*
X008954Y011614D01*
X008953Y011613D02*
X010042Y011613D01*
X010042Y011612D02*
X008953Y011612D01*
X008953Y011611D02*
X010043Y011611D01*
X010043Y011610D02*
X008952Y011610D01*
X008952Y011609D02*
X010044Y011609D01*
X010044Y011608D02*
X008952Y011608D01*
X008952Y011607D02*
X010044Y011607D01*
X010044Y011606D02*
X008951Y011606D01*
X008951Y011605D02*
X010044Y011605D01*
X010044Y011604D02*
X008951Y011604D01*
X008951Y011603D02*
X010044Y011603D01*
X010044Y011602D02*
X008951Y011602D01*
X008951Y011601D02*
X010045Y011601D01*
X010045Y011600D02*
X008951Y011600D01*
X008951Y011599D02*
X010045Y011599D01*
X010045Y011598D02*
X008951Y011598D01*
X008950Y011597D02*
X010045Y011597D01*
X010045Y011596D02*
X008950Y011596D01*
X008950Y011595D02*
X010045Y011595D01*
X010045Y011594D02*
X008950Y011594D01*
X008950Y011593D02*
X010045Y011593D01*
X010046Y011592D02*
X008950Y011592D01*
X008950Y011591D02*
X010046Y011591D01*
X010046Y011590D02*
X008950Y011590D01*
X008950Y011589D02*
X010046Y011589D01*
X010046Y011588D02*
X008949Y011588D01*
X008949Y011587D02*
X010046Y011587D01*
X010046Y011586D02*
X008949Y011586D01*
X008949Y011585D02*
X010046Y011585D01*
X010046Y011584D02*
X008949Y011584D01*
X008949Y011583D02*
X010047Y011583D01*
X010047Y011582D02*
X008949Y011582D01*
X008949Y011581D02*
X010047Y011581D01*
X010047Y011580D02*
X008949Y011580D01*
X008948Y011579D02*
X010047Y011579D01*
X010047Y011578D02*
X008948Y011578D01*
X008948Y011577D02*
X010047Y011577D01*
X010047Y011576D02*
X008948Y011576D01*
X008948Y011575D02*
X010047Y011575D01*
X010048Y011574D02*
X008948Y011574D01*
X008948Y011573D02*
X010048Y011573D01*
X010048Y011572D02*
X008948Y011572D01*
X008948Y011571D02*
X010047Y011571D01*
X010047Y011570D02*
X008948Y011570D01*
X008948Y011569D02*
X010047Y011569D01*
X010047Y011568D02*
X008948Y011568D01*
X008948Y011567D02*
X010047Y011567D01*
X010047Y011566D02*
X008948Y011566D01*
X008949Y011565D02*
X010047Y011565D01*
X010047Y011564D02*
X008949Y011564D01*
X008949Y011563D02*
X010047Y011563D01*
X010046Y011562D02*
X008949Y011562D01*
X008949Y011561D02*
X010046Y011561D01*
X010046Y011560D02*
X008949Y011560D01*
X008949Y011559D02*
X010046Y011559D01*
X010046Y011558D02*
X008949Y011558D01*
X008949Y011557D02*
X010046Y011557D01*
X010046Y011556D02*
X008950Y011556D01*
X008950Y011555D02*
X010046Y011555D01*
X010046Y011554D02*
X008950Y011554D01*
X008950Y011553D02*
X010045Y011553D01*
X010045Y011552D02*
X008950Y011552D01*
X008950Y011551D02*
X010045Y011551D01*
X010045Y011550D02*
X008950Y011550D01*
X008950Y011549D02*
X010045Y011549D01*
X010045Y011548D02*
X008951Y011548D01*
X008951Y011547D02*
X010045Y011547D01*
X010045Y011546D02*
X008951Y011546D01*
X008951Y011545D02*
X010045Y011545D01*
X010044Y011544D02*
X008951Y011544D01*
X008951Y011543D02*
X010044Y011543D01*
X010044Y011542D02*
X008951Y011542D01*
X008951Y011541D02*
X010044Y011541D01*
X010044Y011540D02*
X008951Y011540D01*
X008952Y011539D02*
X010044Y011539D01*
X010044Y011538D02*
X008952Y011538D01*
X008952Y011537D02*
X010044Y011537D01*
X010043Y011536D02*
X008952Y011536D01*
X008952Y011535D02*
X010043Y011535D01*
X010043Y011534D02*
X008953Y011534D01*
X008953Y011533D02*
X010042Y011533D01*
X010042Y011532D02*
X008954Y011532D01*
X008954Y011531D02*
X010042Y011531D01*
X010041Y011530D02*
X008954Y011530D01*
X008955Y011529D02*
X010041Y011529D01*
X010040Y011528D02*
X008955Y011528D01*
X008955Y011527D02*
X010040Y011527D01*
X010040Y011526D02*
X008956Y011526D01*
X008956Y011525D02*
X010039Y011525D01*
X010039Y011524D02*
X008956Y011524D01*
X008957Y011523D02*
X010039Y011523D01*
X010038Y011522D02*
X008957Y011522D01*
X008957Y011521D02*
X010038Y011521D01*
X010038Y011520D02*
X008958Y011520D01*
X008958Y011519D02*
X010037Y011519D01*
X010037Y011518D02*
X008958Y011518D01*
X008959Y011517D02*
X010037Y011517D01*
X010036Y011516D02*
X008959Y011516D01*
X008959Y011515D02*
X010036Y011515D01*
X010036Y011514D02*
X008960Y011514D01*
X008960Y011513D02*
X010035Y011513D01*
X010035Y011512D02*
X008961Y011512D01*
X008961Y011511D02*
X010035Y011511D01*
X010034Y011510D02*
X008961Y011510D01*
X008962Y011509D02*
X010034Y011509D01*
X010033Y011508D02*
X008962Y011508D01*
X008962Y011507D02*
X010033Y011507D01*
X010033Y011506D02*
X008963Y011506D01*
X008963Y011505D02*
X010032Y011505D01*
X010032Y011504D02*
X008963Y011504D01*
X008964Y011503D02*
X010032Y011503D01*
X010031Y011502D02*
X008964Y011502D01*
X008965Y011501D02*
X010030Y011501D01*
X010030Y011500D02*
X008966Y011500D01*
X008966Y011499D02*
X010029Y011499D01*
X010028Y011498D02*
X008967Y011498D01*
X008968Y011497D02*
X010028Y011497D01*
X010027Y011496D02*
X008968Y011496D01*
X008969Y011495D02*
X010027Y011495D01*
X010026Y011494D02*
X008969Y011494D01*
X008970Y011493D02*
X010025Y011493D01*
X010025Y011492D02*
X008971Y011492D01*
X008971Y011491D02*
X010024Y011491D01*
X010023Y011490D02*
X008972Y011490D01*
X008973Y011489D02*
X010023Y011489D01*
X010022Y011488D02*
X008973Y011488D01*
X008974Y011487D02*
X010022Y011487D01*
X010021Y011486D02*
X008974Y011486D01*
X008975Y011485D02*
X010020Y011485D01*
X010020Y011484D02*
X008976Y011484D01*
X008976Y011483D02*
X010019Y011483D01*
X010018Y011482D02*
X008977Y011482D01*
X008978Y011481D02*
X010018Y011481D01*
X010017Y011480D02*
X008978Y011480D01*
X008979Y011479D02*
X010017Y011479D01*
X010016Y011478D02*
X008979Y011478D01*
X008980Y011477D02*
X010015Y011477D01*
X010015Y011476D02*
X008981Y011476D01*
X008981Y011475D02*
X010014Y011475D01*
X010013Y011474D02*
X008982Y011474D01*
X008983Y011473D02*
X010013Y011473D01*
X010012Y011472D02*
X008984Y011472D01*
X008985Y011471D02*
X010011Y011471D01*
X010010Y011470D02*
X008986Y011470D01*
X008987Y011469D02*
X010009Y011469D01*
X010008Y011468D02*
X008988Y011468D01*
X008989Y011467D02*
X010007Y011467D01*
X010006Y011466D02*
X008990Y011466D01*
X008991Y011465D02*
X010005Y011465D01*
X010004Y011464D02*
X008992Y011464D01*
X008993Y011463D02*
X010003Y011463D01*
X010002Y011462D02*
X008994Y011462D01*
X008995Y011461D02*
X010001Y011461D01*
X010000Y011460D02*
X008996Y011460D01*
X008997Y011459D02*
X009999Y011459D01*
X009998Y011458D02*
X008998Y011458D01*
X008999Y011457D02*
X009997Y011457D01*
X009996Y011456D02*
X009000Y011456D01*
X009001Y011455D02*
X009995Y011455D01*
X009994Y011454D02*
X009002Y011454D01*
X009003Y011453D02*
X009993Y011453D01*
X009992Y011452D02*
X009004Y011452D01*
X009005Y011451D02*
X009991Y011451D01*
X009990Y011450D02*
X009006Y011450D01*
X009007Y011449D02*
X009989Y011449D01*
X009988Y011448D02*
X009008Y011448D01*
X009009Y011447D02*
X009986Y011447D01*
X009985Y011446D02*
X009011Y011446D01*
X009012Y011445D02*
X009983Y011445D01*
X009982Y011444D02*
X009014Y011444D01*
X009015Y011443D02*
X009980Y011443D01*
X009978Y011442D02*
X009017Y011442D01*
X009019Y011441D02*
X009977Y011441D01*
X009975Y011440D02*
X009020Y011440D01*
X009022Y011439D02*
X009974Y011439D01*
X009972Y011438D02*
X009023Y011438D01*
X009025Y011437D02*
X009971Y011437D01*
X009969Y011436D02*
X009026Y011436D01*
X009028Y011435D02*
X009967Y011435D01*
X009966Y011434D02*
X009030Y011434D01*
X009031Y011433D02*
X009964Y011433D01*
X009963Y011432D02*
X009033Y011432D01*
X009034Y011431D02*
X009961Y011431D01*
X009959Y011430D02*
X009036Y011430D01*
X009038Y011429D02*
X009958Y011429D01*
X009956Y011428D02*
X009040Y011428D01*
X009043Y011427D02*
X009953Y011427D01*
X009950Y011426D02*
X009046Y011426D01*
X009048Y011425D02*
X009947Y011425D01*
X009944Y011424D02*
X009051Y011424D01*
X009054Y011423D02*
X009941Y011423D01*
X009938Y011422D02*
X009057Y011422D01*
X009060Y011421D02*
X009936Y011421D01*
X009933Y011420D02*
X009063Y011420D01*
X009066Y011419D02*
X009930Y011419D01*
X009927Y011418D02*
X009068Y011418D01*
X009071Y011417D02*
X009924Y011417D01*
X009917Y011416D02*
X009078Y011416D01*
X009087Y011415D02*
X009908Y011415D01*
X009899Y011414D02*
X009096Y011414D01*
X009105Y011413D02*
X009890Y011413D01*
X009961Y011715D02*
X009035Y011715D01*
X009036Y011716D02*
X009959Y011716D01*
X009957Y011717D02*
X009038Y011717D01*
X009041Y011718D02*
X009955Y011718D01*
X009952Y011719D02*
X009044Y011719D01*
X009046Y011720D02*
X009949Y011720D01*
X009946Y011721D02*
X009049Y011721D01*
X009052Y011722D02*
X009943Y011722D01*
X009940Y011723D02*
X009055Y011723D01*
X009058Y011724D02*
X009938Y011724D01*
X009935Y011725D02*
X009061Y011725D01*
X009064Y011726D02*
X009932Y011726D01*
X009929Y011727D02*
X009066Y011727D01*
X009069Y011728D02*
X009926Y011728D01*
X009923Y011729D02*
X009072Y011729D01*
X009081Y011730D02*
X009914Y011730D01*
X009906Y011731D02*
X009090Y011731D01*
X009099Y011732D02*
X009897Y011732D01*
X009888Y011733D02*
X009108Y011733D01*
X008369Y012990D02*
X008227Y012990D01*
X008225Y012991D02*
X008370Y012991D01*
X008372Y012992D02*
X008224Y012992D01*
X008222Y012993D02*
X008373Y012993D01*
X008375Y012994D02*
X008220Y012994D01*
X008219Y012995D02*
X008377Y012995D01*
X008378Y012996D02*
X008217Y012996D01*
X008216Y012997D02*
X008380Y012997D01*
X008381Y012998D02*
X008214Y012998D01*
X008213Y012999D02*
X008383Y012999D01*
X008384Y013000D02*
X008211Y013000D01*
X008209Y013001D02*
X008386Y013001D01*
X008388Y013002D02*
X008208Y013002D01*
X008206Y013003D02*
X008389Y013003D01*
X008391Y013004D02*
X008205Y013004D01*
X008203Y013005D02*
X008392Y013005D01*
X008394Y013006D02*
X008201Y013006D01*
X008200Y013007D02*
X008396Y013007D01*
X008397Y013008D02*
X008198Y013008D01*
X008197Y013009D02*
X008398Y013009D01*
X008399Y013010D02*
X008196Y013010D01*
X008195Y013011D02*
X008400Y013011D01*
X008401Y013012D02*
X008194Y013012D01*
X008193Y013013D02*
X008402Y013013D01*
X008403Y013014D02*
X008192Y013014D01*
X008191Y013015D02*
X008404Y013015D01*
X008405Y013016D02*
X008190Y013016D01*
X008189Y013017D02*
X008406Y013017D01*
X008407Y013018D02*
X008188Y013018D01*
X008187Y013019D02*
X008408Y013019D01*
X008409Y013020D02*
X008186Y013020D01*
X008185Y013021D02*
X008410Y013021D01*
X008411Y013022D02*
X008184Y013022D01*
X008183Y013023D02*
X008412Y013023D01*
X008413Y013024D02*
X008182Y013024D01*
X008181Y013025D02*
X008414Y013025D01*
X008415Y013026D02*
X008180Y013026D01*
X008179Y013027D02*
X008416Y013027D01*
X008417Y013028D02*
X008178Y013028D01*
X008177Y013029D02*
X008418Y013029D01*
X008419Y013030D02*
X008176Y013030D01*
X008175Y013031D02*
X008420Y013031D01*
X008421Y013032D02*
X008174Y013032D01*
X008173Y013033D02*
X008422Y013033D01*
X008423Y013034D02*
X008172Y013034D01*
X008172Y013035D02*
X008424Y013035D01*
X008424Y013036D02*
X008171Y013036D01*
X008170Y013037D02*
X008425Y013037D01*
X008426Y013038D02*
X008170Y013038D01*
X008169Y013039D02*
X008426Y013039D01*
X008427Y013040D02*
X008169Y013040D01*
X008168Y013041D02*
X008427Y013041D01*
X008428Y013042D02*
X008167Y013042D01*
X008167Y013043D02*
X008429Y013043D01*
X008429Y013044D02*
X008166Y013044D01*
X008165Y013045D02*
X008430Y013045D01*
X008431Y013046D02*
X008165Y013046D01*
X008164Y013047D02*
X008431Y013047D01*
X008432Y013048D02*
X008164Y013048D01*
X008163Y013049D02*
X008433Y013049D01*
X008433Y013050D02*
X008162Y013050D01*
X008162Y013051D02*
X008434Y013051D01*
X008434Y013052D02*
X008161Y013052D01*
X008160Y013053D02*
X008435Y013053D01*
X008436Y013054D02*
X008160Y013054D01*
X008159Y013055D02*
X008436Y013055D01*
X008437Y013056D02*
X008159Y013056D01*
X008158Y013057D02*
X008438Y013057D01*
X008438Y013058D02*
X008157Y013058D01*
X008157Y013059D02*
X008439Y013059D01*
X008439Y013060D02*
X008156Y013060D01*
X008155Y013061D02*
X008440Y013061D01*
X008441Y013062D02*
X008155Y013062D01*
X008154Y013063D02*
X008441Y013063D01*
X008442Y013064D02*
X008154Y013064D01*
X008153Y013065D02*
X008442Y013065D01*
X008443Y013066D02*
X008153Y013066D01*
X008152Y013067D02*
X008443Y013067D01*
X008443Y013068D02*
X008152Y013068D01*
X008444Y013068D01*
X008444Y013069D02*
X008151Y013069D01*
X008151Y013070D02*
X008444Y013070D01*
X008445Y013071D02*
X008151Y013071D01*
X008150Y013072D02*
X008445Y013072D01*
X008445Y013073D02*
X008150Y013073D01*
X008150Y013074D02*
X008446Y013074D01*
X008446Y013075D02*
X008149Y013075D01*
X008149Y013076D02*
X008446Y013076D01*
X008447Y013077D02*
X008149Y013077D01*
X008148Y013078D02*
X008447Y013078D01*
X008447Y013079D02*
X008148Y013079D01*
X008148Y013080D02*
X008448Y013080D01*
X008448Y013081D02*
X008147Y013081D01*
X008147Y013082D02*
X008449Y013082D01*
X008449Y013083D02*
X008147Y013083D01*
X008146Y013084D02*
X008449Y013084D01*
X008450Y013085D02*
X008146Y013085D01*
X008145Y013086D02*
X008450Y013086D01*
X008450Y013087D02*
X008145Y013087D01*
X008145Y013088D02*
X008451Y013088D01*
X008451Y013089D02*
X008144Y013089D01*
X008144Y013090D02*
X008451Y013090D01*
X008452Y013091D02*
X008144Y013091D01*
X008143Y013092D02*
X008452Y013092D01*
X008452Y013093D02*
X008143Y013093D01*
X008143Y013094D02*
X008453Y013094D01*
X008453Y013095D02*
X008142Y013095D01*
X008142Y013096D02*
X008453Y013096D01*
X008454Y013097D02*
X008142Y013097D01*
X008142Y013098D02*
X008454Y013098D01*
X008454Y013099D02*
X008141Y013099D01*
X008141Y013100D02*
X008454Y013100D01*
X008454Y013101D02*
X008141Y013101D01*
X008141Y013102D02*
X008454Y013102D01*
X008454Y013103D02*
X008141Y013103D01*
X008141Y013104D02*
X008455Y013104D01*
X008455Y013105D02*
X008141Y013105D01*
X008141Y013106D02*
X008455Y013106D01*
X008455Y013107D02*
X008141Y013107D01*
X008140Y013108D02*
X008455Y013108D01*
X008455Y013109D02*
X008140Y013109D01*
X008140Y013110D02*
X008455Y013110D01*
X008455Y013111D02*
X008140Y013111D01*
X008140Y013112D02*
X008455Y013112D01*
X008456Y013113D02*
X008140Y013113D01*
X008140Y013114D02*
X008456Y013114D01*
X008456Y013115D02*
X008140Y013115D01*
X008140Y013116D02*
X008456Y013116D01*
X008456Y013117D02*
X008139Y013117D01*
X008139Y013118D02*
X008456Y013118D01*
X008456Y013119D02*
X008139Y013119D01*
X008139Y013120D02*
X008456Y013120D01*
X008456Y013121D02*
X008139Y013121D01*
X008139Y013122D02*
X008457Y013122D01*
X008457Y013123D02*
X008139Y013123D01*
X008139Y013124D02*
X008457Y013124D01*
X008457Y013125D02*
X008139Y013125D01*
X008138Y013126D02*
X008457Y013126D01*
X008457Y013127D02*
X008138Y013127D01*
X008138Y013128D02*
X008457Y013128D01*
X008457Y013129D02*
X008138Y013129D01*
X008138Y013130D02*
X008457Y013130D01*
X008458Y013131D02*
X008138Y013131D01*
X008138Y013132D02*
X008458Y013132D01*
X008458Y013133D02*
X008138Y013133D01*
X008138Y013134D02*
X008458Y013134D01*
X008458Y013135D02*
X008138Y013135D01*
X008138Y013136D02*
X008458Y013136D01*
X008458Y013137D02*
X008138Y013137D01*
X008138Y013138D02*
X008458Y013138D01*
X008458Y013139D02*
X008138Y013139D01*
X008138Y013140D02*
X008458Y013140D01*
X008458Y013141D02*
X008138Y013141D01*
X008138Y013142D02*
X008458Y013142D01*
X008458Y013143D02*
X008138Y013143D01*
X008138Y013144D02*
X008458Y013144D01*
X008458Y013145D02*
X008138Y013145D01*
X008138Y013146D02*
X008458Y013146D01*
X008458Y013147D02*
X008138Y013147D01*
X008138Y013148D02*
X008458Y013148D01*
X008458Y013149D02*
X008138Y013149D01*
X008138Y013150D02*
X008458Y013150D01*
X008458Y013151D02*
X008138Y013151D01*
X008138Y013152D02*
X008458Y013152D01*
X008458Y013153D02*
X008138Y013153D01*
X008138Y013154D02*
X008458Y013154D01*
X008458Y013155D02*
X008138Y013155D01*
X008138Y013156D02*
X008458Y013156D01*
X008458Y013157D02*
X008138Y013157D01*
X008138Y013158D02*
X008458Y013158D01*
X008458Y013159D02*
X008138Y013159D01*
X008138Y013160D02*
X008458Y013160D01*
X008458Y013161D02*
X008138Y013161D01*
X008138Y013162D02*
X008458Y013162D01*
X008458Y013163D02*
X008138Y013163D01*
X008138Y013164D02*
X008458Y013164D01*
X008458Y013165D02*
X008138Y013165D01*
X008138Y013166D02*
X008458Y013166D01*
X008458Y013167D02*
X008138Y013167D01*
X008138Y013168D02*
X008458Y013168D01*
X008458Y013169D02*
X008138Y013169D01*
X008138Y013170D02*
X008458Y013170D01*
X008458Y013171D02*
X008138Y013171D01*
X008138Y013172D02*
X008458Y013172D01*
X008458Y013173D02*
X008138Y013173D01*
X008138Y013174D02*
X008458Y013174D01*
X008458Y013175D02*
X008138Y013175D01*
X008138Y013176D02*
X008458Y013176D01*
X008458Y013177D02*
X008138Y013177D01*
X008138Y013178D02*
X008458Y013178D01*
X008458Y013179D02*
X008138Y013179D01*
X008138Y013180D02*
X008458Y013180D01*
X008458Y013181D02*
X008138Y013181D01*
X008138Y013182D02*
X008458Y013182D01*
X008458Y013183D02*
X008138Y013183D01*
X008138Y013184D02*
X008458Y013184D01*
X008458Y013185D02*
X008138Y013185D01*
X008138Y013186D02*
X008458Y013186D01*
X008458Y013187D02*
X008138Y013187D01*
X008138Y013188D02*
X008458Y013188D01*
X008458Y013189D02*
X008138Y013189D01*
X008138Y013190D02*
X008458Y013190D01*
X008458Y013191D02*
X008138Y013191D01*
X008138Y013192D02*
X008458Y013192D01*
X008458Y013193D02*
X008138Y013193D01*
X008138Y013194D02*
X008458Y013194D01*
X008458Y013195D02*
X008138Y013195D01*
X008138Y013196D02*
X008458Y013196D01*
X008458Y013197D02*
X008138Y013197D01*
X008138Y013198D02*
X008458Y013198D01*
X008458Y013199D02*
X008138Y013199D01*
X008138Y013200D02*
X008458Y013200D01*
X008458Y013201D02*
X008138Y013201D01*
X008138Y013202D02*
X008458Y013202D01*
X008458Y013203D02*
X008138Y013203D01*
X008138Y013204D02*
X008458Y013204D01*
X008458Y013205D02*
X008138Y013205D01*
X008138Y013206D02*
X008458Y013206D01*
X008458Y013207D02*
X008138Y013207D01*
X008138Y013208D02*
X008458Y013208D01*
X008458Y013209D02*
X008138Y013209D01*
X008138Y013210D02*
X008458Y013210D01*
X008458Y013211D02*
X008138Y013211D01*
X008138Y013212D02*
X008458Y013212D01*
X008458Y013213D02*
X008138Y013213D01*
X008138Y013214D02*
X008458Y013214D01*
X008458Y013215D02*
X008138Y013215D01*
X008138Y013216D02*
X008458Y013216D01*
X008458Y013217D02*
X008138Y013217D01*
X008138Y013218D02*
X008458Y013218D01*
X008458Y013219D02*
X008138Y013219D01*
X008138Y013220D02*
X008458Y013220D01*
X008458Y013221D02*
X008138Y013221D01*
X008138Y013222D02*
X008458Y013222D01*
X008458Y013223D02*
X008138Y013223D01*
X008138Y013224D02*
X008458Y013224D01*
X008458Y013225D02*
X008138Y013225D01*
X008138Y013226D02*
X008458Y013226D01*
X008458Y013227D02*
X008138Y013227D01*
X008138Y013228D02*
X008458Y013228D01*
X008458Y013229D02*
X008138Y013229D01*
X008138Y013230D02*
X008458Y013230D01*
X008458Y013231D02*
X008138Y013231D01*
X008138Y013232D02*
X008458Y013232D01*
X008458Y013233D02*
X008138Y013233D01*
X008138Y013234D02*
X008458Y013234D01*
X008458Y013235D02*
X008138Y013235D01*
X008138Y013236D02*
X008458Y013236D01*
X008458Y013237D02*
X008138Y013237D01*
X008138Y013238D02*
X008458Y013238D01*
X008458Y013239D02*
X008138Y013239D01*
X008138Y013240D02*
X008458Y013240D01*
X008458Y013241D02*
X008138Y013241D01*
X008138Y013242D02*
X008458Y013242D01*
X008458Y013243D02*
X008138Y013243D01*
X008138Y013244D02*
X008458Y013244D01*
X008458Y013245D02*
X008138Y013245D01*
X008138Y013246D02*
X008458Y013246D01*
X008458Y013247D02*
X008138Y013247D01*
X008138Y013248D02*
X008458Y013248D01*
X008458Y013249D02*
X008138Y013249D01*
X008138Y013250D02*
X008458Y013250D01*
X008458Y013251D02*
X008138Y013251D01*
X008138Y013252D02*
X008458Y013252D01*
X008458Y013253D02*
X008138Y013253D01*
X008138Y013254D02*
X008458Y013254D01*
X008458Y013255D02*
X008138Y013255D01*
X008138Y013256D02*
X008458Y013256D01*
X008458Y013257D02*
X008138Y013257D01*
X008138Y013258D02*
X008458Y013258D01*
X008458Y013259D02*
X008138Y013259D01*
X008138Y013260D02*
X008458Y013260D01*
X008458Y013261D02*
X008138Y013261D01*
X008138Y013262D02*
X008458Y013262D01*
X008458Y013263D02*
X008138Y013263D01*
X008138Y013264D02*
X008458Y013264D01*
X008458Y013265D02*
X008138Y013265D01*
X008138Y013266D02*
X008458Y013266D01*
X008458Y013267D02*
X008138Y013267D01*
X008138Y013268D02*
X008458Y013268D01*
X008458Y013269D02*
X008138Y013269D01*
X008138Y013270D02*
X008458Y013270D01*
X008458Y013271D02*
X008138Y013271D01*
X008138Y013272D02*
X008458Y013272D01*
X008458Y013273D02*
X008138Y013273D01*
X008138Y013274D02*
X008458Y013274D01*
X008458Y013275D02*
X008138Y013275D01*
X008138Y013276D02*
X008458Y013276D01*
X008458Y013277D02*
X008138Y013277D01*
X008138Y013278D02*
X008458Y013278D01*
X008458Y013279D02*
X008138Y013279D01*
X008138Y013280D02*
X008458Y013280D01*
X008458Y013281D02*
X008138Y013281D01*
X008138Y013282D02*
X008458Y013282D01*
X008458Y013283D02*
X008138Y013283D01*
X008138Y013284D02*
X008458Y013284D01*
X008458Y013285D02*
X008138Y013285D01*
X008138Y013286D02*
X008458Y013286D01*
X008458Y013287D02*
X008138Y013287D01*
X008138Y013288D02*
X008458Y013288D01*
X008458Y013289D02*
X008138Y013289D01*
X008138Y013290D02*
X008458Y013290D01*
X008458Y013291D02*
X008138Y013291D01*
X008138Y013292D02*
X008458Y013292D01*
X008458Y013293D02*
X008138Y013293D01*
X008138Y013294D02*
X008458Y013294D01*
X008458Y013295D02*
X008138Y013295D01*
X008138Y013296D02*
X008458Y013296D01*
X008458Y013297D02*
X008138Y013297D01*
X008138Y013298D02*
X008458Y013298D01*
X008458Y013299D02*
X008138Y013299D01*
X008138Y013300D02*
X008458Y013300D01*
X008458Y013301D02*
X008138Y013301D01*
X008138Y013302D02*
X008458Y013302D01*
X008458Y013303D02*
X008138Y013303D01*
X008138Y013304D02*
X008458Y013304D01*
X008458Y013305D02*
X008138Y013305D01*
X008138Y013306D02*
X008458Y013306D01*
X008458Y013307D02*
X008138Y013307D01*
X008138Y013308D02*
X008458Y013308D01*
X008458Y013309D02*
X008138Y013309D01*
X008138Y013310D02*
X008458Y013310D01*
X008458Y013311D02*
X008138Y013311D01*
X008138Y013312D02*
X008458Y013312D01*
X008458Y013313D02*
X008138Y013313D01*
X008138Y013314D02*
X008458Y013314D01*
X008458Y013315D02*
X008138Y013315D01*
X008138Y013316D02*
X008458Y013316D01*
X008458Y013317D02*
X008138Y013317D01*
X008138Y013318D02*
X008458Y013318D01*
X008458Y013319D02*
X008138Y013319D01*
X008138Y013320D02*
X008458Y013320D01*
X008458Y013321D02*
X008138Y013321D01*
X008138Y013322D02*
X008458Y013322D01*
X008458Y013323D02*
X008138Y013323D01*
X008138Y013324D02*
X008458Y013324D01*
X008458Y013325D02*
X008138Y013325D01*
X008138Y013326D02*
X008458Y013326D01*
X008458Y013327D02*
X008138Y013327D01*
X008138Y013328D02*
X008458Y013328D01*
X008458Y013329D02*
X008138Y013329D01*
X008138Y013330D02*
X008458Y013330D01*
X008458Y013331D02*
X008138Y013331D01*
X008138Y013332D02*
X008458Y013332D01*
X008458Y013333D02*
X008138Y013333D01*
X008138Y013334D02*
X008458Y013334D01*
X008458Y013335D02*
X008138Y013335D01*
X008138Y013336D02*
X008458Y013336D01*
X008458Y013337D02*
X008138Y013337D01*
X008138Y013338D02*
X008458Y013338D01*
X008458Y013339D02*
X008138Y013339D01*
X008138Y013340D02*
X008458Y013340D01*
X008458Y013341D02*
X008138Y013341D01*
X008138Y013342D02*
X008458Y013342D01*
X008458Y013343D02*
X008138Y013343D01*
X008138Y013344D02*
X008458Y013344D01*
X008458Y013345D02*
X008138Y013345D01*
X008138Y013346D02*
X008458Y013346D01*
X008458Y013347D02*
X008138Y013347D01*
X008138Y013348D02*
X008458Y013348D01*
X008458Y013349D02*
X008138Y013349D01*
X008138Y013350D02*
X008458Y013350D01*
X008458Y013351D02*
X008138Y013351D01*
X008138Y013352D02*
X008458Y013352D01*
X008458Y013353D02*
X008138Y013353D01*
X008138Y013354D02*
X008458Y013354D01*
X008458Y013355D02*
X008138Y013355D01*
X008138Y013356D02*
X008458Y013356D01*
X008458Y013357D02*
X008138Y013357D01*
X008138Y013358D02*
X008458Y013358D01*
X008458Y013359D02*
X008138Y013359D01*
X008138Y013360D02*
X008458Y013360D01*
X008458Y013361D02*
X008138Y013361D01*
X008138Y013362D02*
X008458Y013362D01*
X008458Y013363D02*
X008138Y013363D01*
X008138Y013364D02*
X008458Y013364D01*
X008458Y013365D02*
X008138Y013365D01*
X008138Y013366D02*
X008458Y013366D01*
X008458Y013367D02*
X008138Y013367D01*
X008138Y013368D02*
X008458Y013368D01*
X008458Y013369D02*
X008138Y013369D01*
X008138Y013370D02*
X008458Y013370D01*
X008458Y013371D02*
X008138Y013371D01*
X008138Y013372D02*
X008458Y013372D01*
X008458Y013373D02*
X008138Y013373D01*
X008138Y013374D02*
X008458Y013374D01*
X008458Y013375D02*
X008138Y013375D01*
X008138Y013376D02*
X008458Y013376D01*
X008458Y013377D02*
X008138Y013377D01*
X008138Y013378D02*
X008458Y013378D01*
X008458Y013379D02*
X008138Y013379D01*
X008138Y013380D02*
X008458Y013380D01*
X008458Y013381D02*
X008138Y013381D01*
X008138Y013382D02*
X008458Y013382D01*
X008458Y013383D02*
X008138Y013383D01*
X008138Y013384D02*
X008458Y013384D01*
X008458Y013385D02*
X008138Y013385D01*
X008138Y013386D02*
X008458Y013386D01*
X008458Y013387D02*
X008138Y013387D01*
X008138Y013388D02*
X008458Y013388D01*
X008458Y013389D02*
X008138Y013389D01*
X008138Y013390D02*
X008458Y013390D01*
X008458Y013391D02*
X008138Y013391D01*
X008138Y013392D02*
X008458Y013392D01*
X008458Y013393D02*
X008138Y013393D01*
X008138Y013394D02*
X008458Y013394D01*
X008458Y013395D02*
X008138Y013395D01*
X008138Y013396D02*
X008458Y013396D01*
X008458Y013397D02*
X008138Y013397D01*
X008138Y013398D02*
X008458Y013398D01*
X008458Y013399D02*
X008138Y013399D01*
X008138Y013400D02*
X008458Y013400D01*
X008458Y013401D02*
X008138Y013401D01*
X008138Y013402D02*
X008458Y013402D01*
X008458Y013403D02*
X008138Y013403D01*
X008138Y013404D02*
X008458Y013404D01*
X008458Y013405D02*
X008138Y013405D01*
X008138Y013406D02*
X008458Y013406D01*
X008458Y013407D02*
X008138Y013407D01*
X008138Y013408D02*
X008458Y013408D01*
X008458Y013409D02*
X008138Y013409D01*
X008138Y013410D02*
X008458Y013410D01*
X008458Y013411D02*
X008138Y013411D01*
X008138Y013412D02*
X008458Y013412D01*
X008458Y013413D02*
X008138Y013413D01*
X008138Y013414D02*
X008458Y013414D01*
X008458Y013415D02*
X008138Y013415D01*
X008138Y013416D02*
X008458Y013416D01*
X008458Y013417D02*
X008138Y013417D01*
X008138Y013418D02*
X008458Y013418D01*
X008458Y013419D02*
X008138Y013419D01*
X008138Y013420D02*
X008458Y013420D01*
X008458Y013421D02*
X008138Y013421D01*
X008138Y013422D02*
X008458Y013422D01*
X008458Y013423D02*
X008138Y013423D01*
X008138Y013424D02*
X008458Y013424D01*
X008458Y013425D02*
X008138Y013425D01*
X008138Y013426D02*
X008458Y013426D01*
X008458Y013427D02*
X008138Y013427D01*
X008138Y013428D02*
X008458Y013428D01*
X008458Y013429D02*
X008138Y013429D01*
X008138Y013430D02*
X008458Y013430D01*
X008458Y013431D02*
X008138Y013431D01*
X008138Y013432D02*
X008458Y013432D01*
X008458Y013433D02*
X008138Y013433D01*
X008138Y013434D02*
X008458Y013434D01*
X008458Y013435D02*
X008138Y013435D01*
X008138Y013436D02*
X008458Y013436D01*
X008458Y013437D02*
X008138Y013437D01*
X008138Y013438D02*
X008458Y013438D01*
X008458Y013439D02*
X008138Y013439D01*
X008138Y013440D02*
X008458Y013440D01*
X008458Y013441D02*
X008138Y013441D01*
X008138Y013442D02*
X008458Y013442D01*
X008458Y013443D02*
X008138Y013443D01*
X008138Y013444D02*
X008458Y013444D01*
X008458Y013445D02*
X008138Y013445D01*
X008138Y013446D02*
X008458Y013446D01*
X008458Y013447D02*
X008138Y013447D01*
X008138Y013448D02*
X008458Y013448D01*
X008458Y013449D02*
X008138Y013449D01*
X008138Y013450D02*
X008458Y013450D01*
X008458Y013451D02*
X008138Y013451D01*
X008138Y013452D02*
X008458Y013452D01*
X008458Y013453D02*
X008138Y013453D01*
X008138Y013454D02*
X008458Y013454D01*
X008458Y013455D02*
X008138Y013455D01*
X008138Y013456D02*
X008458Y013456D01*
X008458Y013457D02*
X008138Y013457D01*
X008138Y013458D02*
X008458Y013458D01*
X008458Y013459D02*
X008138Y013459D01*
X008138Y013460D02*
X008458Y013460D01*
X008458Y013461D02*
X008138Y013461D01*
X008138Y013462D02*
X008458Y013462D01*
X008458Y013463D02*
X008138Y013463D01*
X008138Y013464D02*
X008458Y013464D01*
X008458Y013465D02*
X008138Y013465D01*
X008138Y013466D02*
X008458Y013466D01*
X008458Y013467D02*
X008138Y013467D01*
X008138Y013468D02*
X008458Y013468D01*
X008458Y013469D02*
X008138Y013469D01*
X008138Y013470D02*
X008458Y013470D01*
X008458Y013471D02*
X008138Y013471D01*
X008138Y013472D02*
X008458Y013472D01*
X008458Y013473D02*
X008138Y013473D01*
X008138Y013474D02*
X008458Y013474D01*
X008458Y013475D02*
X008138Y013475D01*
X008138Y013476D02*
X008458Y013476D01*
X008458Y013477D02*
X008138Y013477D01*
X008138Y013478D02*
X008458Y013478D01*
X008458Y013479D02*
X008138Y013479D01*
X008138Y013480D02*
X008458Y013480D01*
X008458Y013481D02*
X008138Y013481D01*
X008138Y013482D02*
X008458Y013482D01*
X008458Y013483D02*
X008138Y013483D01*
X008138Y013484D02*
X008458Y013484D01*
X008458Y013485D02*
X008138Y013485D01*
X008138Y013486D02*
X008458Y013486D01*
X008458Y013487D02*
X008138Y013487D01*
X008138Y013488D02*
X008458Y013488D01*
X008458Y013489D02*
X008138Y013489D01*
X008138Y013490D02*
X008458Y013490D01*
X008458Y013491D02*
X008138Y013491D01*
X008138Y013492D02*
X008458Y013492D01*
X008458Y013493D02*
X008138Y013493D01*
X008138Y013494D02*
X008458Y013494D01*
X008458Y013495D02*
X008138Y013495D01*
X008138Y013496D02*
X008458Y013496D01*
X008458Y013497D02*
X008138Y013497D01*
X008138Y013498D02*
X008458Y013498D01*
X008458Y013499D02*
X008138Y013499D01*
X008138Y013500D02*
X008458Y013500D01*
X008458Y013501D02*
X008138Y013501D01*
X008138Y013502D02*
X008458Y013502D01*
X008458Y013503D02*
X008138Y013503D01*
X008138Y013504D02*
X008458Y013504D01*
X008458Y013505D02*
X008138Y013505D01*
X008138Y013506D02*
X008458Y013506D01*
X008458Y013507D02*
X008138Y013507D01*
X008138Y013508D02*
X008458Y013508D01*
X008458Y013509D02*
X008138Y013509D01*
X008138Y013510D02*
X008458Y013510D01*
X008458Y013511D02*
X008138Y013511D01*
X008138Y013512D02*
X008458Y013512D01*
X008458Y013513D02*
X008138Y013513D01*
X008138Y013514D02*
X008458Y013514D01*
X008458Y013515D02*
X008138Y013515D01*
X008138Y013516D02*
X008458Y013516D01*
X008458Y013517D02*
X008138Y013517D01*
X008138Y013518D02*
X008458Y013518D01*
X008458Y013519D02*
X008138Y013519D01*
X008138Y013520D02*
X008458Y013520D01*
X008458Y013521D02*
X008138Y013521D01*
X008138Y013522D02*
X008458Y013522D01*
X008458Y013523D02*
X008138Y013523D01*
X008138Y013524D02*
X008458Y013524D01*
X008458Y013525D02*
X008138Y013525D01*
X008138Y013526D02*
X008458Y013526D01*
X008458Y013527D02*
X008138Y013527D01*
X008138Y013528D02*
X008458Y013528D01*
X008458Y013529D02*
X008138Y013529D01*
X008138Y013530D02*
X008458Y013530D01*
X008458Y013531D02*
X008138Y013531D01*
X008138Y013532D02*
X008458Y013532D01*
X008458Y013533D02*
X008138Y013533D01*
X008138Y013534D02*
X008458Y013534D01*
X008458Y013535D02*
X008138Y013535D01*
X008138Y013536D02*
X008458Y013536D01*
X008458Y013537D02*
X008138Y013537D01*
X008138Y013538D02*
X008458Y013538D01*
X008458Y013539D02*
X008138Y013539D01*
X008138Y013540D02*
X008458Y013540D01*
X008458Y013541D02*
X008138Y013541D01*
X008138Y013542D02*
X008458Y013542D01*
X008458Y013543D02*
X008138Y013543D01*
X008138Y013544D02*
X008458Y013544D01*
X008458Y013545D02*
X008138Y013545D01*
X008138Y013546D02*
X008458Y013546D01*
X008458Y013547D02*
X008138Y013547D01*
X008138Y013548D02*
X008458Y013548D01*
X008458Y013549D02*
X008138Y013549D01*
X008138Y013550D02*
X008458Y013550D01*
X008458Y013551D02*
X008138Y013551D01*
X008138Y013552D02*
X008458Y013552D01*
X008458Y013553D02*
X008138Y013553D01*
X008138Y013554D02*
X008458Y013554D01*
X008458Y013555D02*
X008138Y013555D01*
X008138Y013556D02*
X008458Y013556D01*
X008458Y013557D02*
X008138Y013557D01*
X008138Y013558D02*
X008458Y013558D01*
X008458Y013559D02*
X008138Y013559D01*
X008138Y013560D02*
X008458Y013560D01*
X008458Y013561D02*
X008138Y013561D01*
X008138Y013562D02*
X008458Y013562D01*
X008458Y013563D02*
X008138Y013563D01*
X008138Y013564D02*
X008458Y013564D01*
X008458Y013565D02*
X008138Y013565D01*
X008138Y013566D02*
X008458Y013566D01*
X008458Y013567D02*
X008138Y013567D01*
X008138Y013568D02*
X008458Y013568D01*
X008458Y013569D02*
X008138Y013569D01*
X008138Y013570D02*
X008458Y013570D01*
X008458Y013571D02*
X008138Y013571D01*
X008138Y013572D02*
X008458Y013572D01*
X008458Y013573D02*
X008138Y013573D01*
X008138Y013574D02*
X008458Y013574D01*
X008458Y013575D02*
X008138Y013575D01*
X008138Y013576D02*
X008458Y013576D01*
X008458Y013577D02*
X008138Y013577D01*
X008138Y013578D02*
X008458Y013578D01*
X008458Y013579D02*
X008138Y013579D01*
X008138Y013580D02*
X008458Y013580D01*
X008458Y013581D02*
X008138Y013581D01*
X008138Y013582D02*
X008458Y013582D01*
X008458Y013583D02*
X008138Y013583D01*
X008138Y013584D02*
X008458Y013584D01*
X008458Y013585D02*
X008138Y013585D01*
X008138Y013586D02*
X008458Y013586D01*
X008458Y013587D02*
X008138Y013587D01*
X008138Y013588D02*
X008458Y013588D01*
X008458Y013589D02*
X008138Y013589D01*
X008138Y013590D02*
X008458Y013590D01*
X008458Y013591D02*
X008138Y013591D01*
X008138Y013592D02*
X008458Y013592D01*
X008458Y013593D02*
X008138Y013593D01*
X008138Y013594D02*
X008458Y013594D01*
X008458Y013595D02*
X008138Y013595D01*
X008138Y013596D02*
X008458Y013596D01*
X008458Y013597D02*
X008138Y013597D01*
X008138Y013598D02*
X008458Y013598D01*
X008458Y013599D02*
X008138Y013599D01*
X008138Y013600D02*
X008458Y013600D01*
X008458Y013601D02*
X008138Y013601D01*
X008138Y013602D02*
X008458Y013602D01*
X008458Y013603D02*
X008138Y013603D01*
X008138Y013604D02*
X008458Y013604D01*
X008458Y013605D02*
X008138Y013605D01*
X008138Y013606D02*
X008458Y013606D01*
X008458Y013607D02*
X008138Y013607D01*
X008138Y013608D02*
X008458Y013608D01*
X008458Y013609D02*
X008138Y013609D01*
X008138Y013610D02*
X008458Y013610D01*
X008458Y013611D02*
X008138Y013611D01*
X008138Y013612D02*
X008458Y013612D01*
X008458Y013613D02*
X008138Y013613D01*
X008138Y013614D02*
X008458Y013614D01*
X008458Y013615D02*
X008138Y013615D01*
X008138Y013616D02*
X008458Y013616D01*
X008458Y013617D02*
X008138Y013617D01*
X008138Y013618D02*
X008458Y013618D01*
X008458Y013619D02*
X008138Y013619D01*
X008138Y013620D02*
X008458Y013620D01*
X008458Y013621D02*
X008138Y013621D01*
X008138Y013622D02*
X008458Y013622D01*
X008458Y013623D02*
X008138Y013623D01*
X008138Y013624D02*
X008458Y013624D01*
X008458Y013625D02*
X008138Y013625D01*
X008138Y013626D02*
X008458Y013626D01*
X008458Y013627D02*
X008138Y013627D01*
X008138Y013628D02*
X008458Y013628D01*
X008458Y013629D02*
X008138Y013629D01*
X008138Y013630D02*
X008458Y013630D01*
X008458Y013631D02*
X008138Y013631D01*
X008138Y013632D02*
X008458Y013632D01*
X008458Y013633D02*
X008138Y013633D01*
X008138Y013634D02*
X008458Y013634D01*
X008458Y013635D02*
X008138Y013635D01*
X008138Y013636D02*
X008458Y013636D01*
X008458Y013637D02*
X008138Y013637D01*
X008138Y013638D02*
X008458Y013638D01*
X008458Y013639D02*
X008138Y013639D01*
X008138Y013640D02*
X008458Y013640D01*
X008458Y013641D02*
X008138Y013641D01*
X008138Y013642D02*
X008458Y013642D01*
X008458Y013643D02*
X008138Y013643D01*
X008138Y013644D02*
X008458Y013644D01*
X008458Y013645D02*
X008138Y013645D01*
X008138Y013646D02*
X008458Y013646D01*
X008458Y013647D02*
X008138Y013647D01*
X008138Y013648D02*
X008458Y013648D01*
X008458Y013649D02*
X008138Y013649D01*
X008138Y013650D02*
X008458Y013650D01*
X008458Y013651D02*
X008138Y013651D01*
X008138Y013652D02*
X008458Y013652D01*
X008458Y013653D02*
X008138Y013653D01*
X008138Y013654D02*
X008458Y013654D01*
X008458Y013655D02*
X008138Y013655D01*
X008138Y013656D02*
X008458Y013656D01*
X008458Y013657D02*
X008138Y013657D01*
X008138Y013658D02*
X008458Y013658D01*
X008458Y013659D02*
X008138Y013659D01*
X008138Y013660D02*
X008458Y013660D01*
X008458Y013661D02*
X008138Y013661D01*
X008138Y013662D02*
X008458Y013662D01*
X008458Y013663D02*
X008138Y013663D01*
X008138Y013664D02*
X008458Y013664D01*
X008458Y013665D02*
X008138Y013665D01*
X008138Y013666D02*
X008458Y013666D01*
X008458Y013667D02*
X008138Y013667D01*
X008138Y013668D02*
X008458Y013668D01*
X008458Y013669D02*
X008138Y013669D01*
X008138Y013670D02*
X008458Y013670D01*
X008458Y013671D02*
X008138Y013671D01*
X008138Y013672D02*
X008458Y013672D01*
X008458Y013673D02*
X008138Y013673D01*
X008138Y013674D02*
X008458Y013674D01*
X008458Y013675D02*
X008138Y013675D01*
X008138Y013676D02*
X008458Y013676D01*
X008458Y013677D02*
X008138Y013677D01*
X008138Y013678D02*
X008458Y013678D01*
X008458Y013679D02*
X008138Y013679D01*
X008138Y013680D02*
X008458Y013680D01*
X008458Y013681D02*
X008138Y013681D01*
X008138Y013682D02*
X008458Y013682D01*
X008458Y013683D02*
X008138Y013683D01*
X008138Y013684D02*
X008458Y013684D01*
X008458Y013685D02*
X008138Y013685D01*
X008138Y013686D02*
X008458Y013686D01*
X008458Y013687D02*
X008138Y013687D01*
X008138Y013688D02*
X008458Y013688D01*
X008458Y013689D02*
X008138Y013689D01*
X008138Y013690D02*
X008458Y013690D01*
X008458Y013691D02*
X008138Y013691D01*
X008138Y013692D02*
X008458Y013692D01*
X008458Y013693D02*
X008138Y013693D01*
X008138Y013694D02*
X008458Y013694D01*
X008458Y013695D02*
X008138Y013695D01*
X008138Y013696D02*
X008458Y013696D01*
X008458Y013697D02*
X008138Y013697D01*
X008138Y013698D02*
X008458Y013698D01*
X008458Y013699D02*
X008138Y013699D01*
X008138Y013700D02*
X008458Y013700D01*
X008458Y013701D02*
X008138Y013701D01*
X008138Y013702D02*
X008458Y013702D01*
X008458Y013703D02*
X008138Y013703D01*
X008138Y013704D02*
X008458Y013704D01*
X008458Y013705D02*
X008138Y013705D01*
X008138Y013706D02*
X008458Y013706D01*
X008458Y013707D02*
X008138Y013707D01*
X008138Y013708D02*
X008458Y013708D01*
X008458Y013709D02*
X008138Y013709D01*
X008138Y013710D02*
X008458Y013710D01*
X008458Y013711D02*
X008138Y013711D01*
X008138Y013712D02*
X008458Y013712D01*
X008458Y013713D02*
X008138Y013713D01*
X008138Y013714D02*
X008458Y013714D01*
X008458Y013715D02*
X008138Y013715D01*
X008138Y013716D02*
X008458Y013716D01*
X008458Y013717D02*
X008138Y013717D01*
X008138Y013718D02*
X008458Y013718D01*
X008458Y013719D02*
X008138Y013719D01*
X008138Y013720D02*
X008458Y013720D01*
X008458Y013721D02*
X008138Y013721D01*
X008138Y013722D02*
X008458Y013722D01*
X008458Y013723D02*
X008138Y013723D01*
X008138Y013724D02*
X008458Y013724D01*
X008458Y013725D02*
X008138Y013725D01*
X008138Y013726D02*
X008458Y013726D01*
X008458Y013727D02*
X008138Y013727D01*
X008138Y013728D02*
X008458Y013728D01*
X008458Y013729D02*
X008138Y013729D01*
X008138Y013730D02*
X008458Y013730D01*
X008458Y013731D02*
X008138Y013731D01*
X008138Y013732D02*
X008458Y013732D01*
X008458Y013733D02*
X008138Y013733D01*
X008138Y013734D02*
X008458Y013734D01*
X008458Y013735D02*
X008138Y013735D01*
X008138Y013736D02*
X008458Y013736D01*
X008458Y013737D02*
X008138Y013737D01*
X008138Y013738D02*
X008458Y013738D01*
X008458Y013739D02*
X008138Y013739D01*
X008138Y013740D02*
X008458Y013740D01*
X008458Y013741D02*
X008138Y013741D01*
X008138Y013742D02*
X008458Y013742D01*
X008458Y013743D02*
X008138Y013743D01*
X008138Y013744D02*
X008458Y013744D01*
X008458Y013745D02*
X008138Y013745D01*
X008138Y013746D02*
X008458Y013746D01*
X008458Y013747D02*
X008138Y013747D01*
X008138Y013748D02*
X008458Y013748D01*
X008458Y013749D02*
X008138Y013749D01*
X008138Y013750D02*
X008458Y013750D01*
X008458Y013751D02*
X008138Y013751D01*
X008138Y013752D02*
X008458Y013752D01*
X008458Y013753D02*
X008138Y013753D01*
X008138Y013754D02*
X008458Y013754D01*
X008458Y013755D02*
X008138Y013755D01*
X008138Y013756D02*
X008458Y013756D01*
X008458Y013757D02*
X008138Y013757D01*
X008138Y013758D02*
X008458Y013758D01*
X008458Y013759D02*
X008138Y013759D01*
X008138Y013760D02*
X008458Y013760D01*
X008458Y013761D02*
X008138Y013761D01*
X008138Y013762D02*
X008458Y013762D01*
X008458Y013763D02*
X008138Y013763D01*
X008138Y013764D02*
X008458Y013764D01*
X008458Y013765D02*
X008138Y013765D01*
X008138Y013766D02*
X008458Y013766D01*
X008458Y013767D02*
X008138Y013767D01*
X008138Y013768D02*
X008458Y013768D01*
X008458Y013769D02*
X008138Y013769D01*
X008138Y013770D02*
X008458Y013770D01*
X008458Y013771D02*
X008138Y013771D01*
X008138Y013772D02*
X008458Y013772D01*
X008458Y013773D02*
X008138Y013773D01*
X008138Y013774D02*
X008458Y013774D01*
X008458Y013775D02*
X008138Y013775D01*
X008138Y013776D02*
X008458Y013776D01*
X008458Y013777D02*
X008138Y013777D01*
X008138Y013778D02*
X008458Y013778D01*
X008458Y013779D02*
X008138Y013779D01*
X008138Y013780D02*
X008458Y013780D01*
X008458Y013781D02*
X008138Y013781D01*
X008138Y013782D02*
X008458Y013782D01*
X008458Y013783D02*
X008138Y013783D01*
X008138Y013784D02*
X008458Y013784D01*
X008458Y013785D02*
X008138Y013785D01*
X008138Y013786D02*
X008458Y013786D01*
X008458Y013787D02*
X008138Y013787D01*
X008138Y013788D02*
X008458Y013788D01*
X008458Y013789D02*
X008138Y013789D01*
X008138Y013790D02*
X008458Y013790D01*
X008458Y013791D02*
X008138Y013791D01*
X008138Y013792D02*
X008458Y013792D01*
X008458Y013793D02*
X008138Y013793D01*
X008138Y013794D02*
X008458Y013794D01*
X008458Y013795D02*
X008138Y013795D01*
X008138Y013796D02*
X008458Y013796D01*
X008458Y013797D02*
X008138Y013797D01*
X008138Y013798D02*
X008458Y013798D01*
X008458Y013799D02*
X008138Y013799D01*
X008138Y013800D02*
X008458Y013800D01*
X008458Y013801D02*
X008138Y013801D01*
X008138Y013802D02*
X008458Y013802D01*
X008458Y013803D02*
X008138Y013803D01*
X008138Y013804D02*
X008458Y013804D01*
X008458Y013805D02*
X008138Y013805D01*
X008138Y013806D02*
X008458Y013806D01*
X008458Y013807D02*
X008138Y013807D01*
X008138Y013808D02*
X008458Y013808D01*
X008458Y013809D02*
X008138Y013809D01*
X008138Y013810D02*
X008458Y013810D01*
X008458Y013811D02*
X008138Y013811D01*
X008138Y013812D02*
X008458Y013812D01*
X008458Y013813D02*
X008138Y013813D01*
X008138Y013814D02*
X008458Y013814D01*
X008458Y013815D02*
X008138Y013815D01*
X008138Y013816D02*
X008458Y013816D01*
X008458Y013817D02*
X008138Y013817D01*
X008138Y013818D02*
X008458Y013818D01*
X008458Y013819D02*
X008138Y013819D01*
X008138Y013820D02*
X008458Y013820D01*
X008458Y013821D02*
X008138Y013821D01*
X008138Y013822D02*
X008458Y013822D01*
X008458Y013823D02*
X008138Y013823D01*
X008138Y013824D02*
X008458Y013824D01*
X008458Y013825D02*
X008138Y013825D01*
X008138Y013826D02*
X008458Y013826D01*
X008458Y013827D02*
X008138Y013827D01*
X008138Y013828D02*
X008458Y013828D01*
X008458Y013829D02*
X008138Y013829D01*
X008138Y013830D02*
X008458Y013830D01*
X008458Y013831D02*
X008138Y013831D01*
X008138Y013832D02*
X008458Y013832D01*
X008458Y013833D02*
X008138Y013833D01*
X008138Y013834D02*
X008458Y013834D01*
X008458Y013835D02*
X008138Y013835D01*
X008138Y013836D02*
X008458Y013836D01*
X008458Y013837D02*
X008138Y013837D01*
X008138Y013838D02*
X008458Y013838D01*
X008458Y013839D02*
X008138Y013839D01*
X008138Y013840D02*
X008458Y013840D01*
X008458Y013841D02*
X008138Y013841D01*
X008138Y013842D02*
X008458Y013842D01*
X008458Y013843D02*
X008138Y013843D01*
X008138Y013844D02*
X008458Y013844D01*
X008458Y013845D02*
X008138Y013845D01*
X008138Y013846D02*
X008458Y013846D01*
X008458Y013847D02*
X008138Y013847D01*
X008138Y013848D02*
X008458Y013848D01*
X008458Y013849D02*
X008138Y013849D01*
X008138Y013850D02*
X008458Y013850D01*
X008458Y013851D02*
X008138Y013851D01*
X008138Y013852D02*
X008458Y013852D01*
X008458Y013853D02*
X008138Y013853D01*
X008138Y013854D02*
X008458Y013854D01*
X008458Y013855D02*
X008138Y013855D01*
X008138Y013856D02*
X008458Y013856D01*
X008458Y013857D02*
X008138Y013857D01*
X008138Y013858D02*
X008458Y013858D01*
X008458Y013859D02*
X008138Y013859D01*
X008138Y013860D02*
X008458Y013860D01*
X008458Y013861D02*
X008138Y013861D01*
X008138Y013862D02*
X008458Y013862D01*
X008458Y013863D02*
X008138Y013863D01*
X008138Y013864D02*
X008458Y013864D01*
X008458Y013865D02*
X008138Y013865D01*
X008138Y013866D02*
X008458Y013866D01*
X008458Y013867D02*
X008138Y013867D01*
X008138Y013868D02*
X008458Y013868D01*
X008458Y013869D02*
X008138Y013869D01*
X008138Y013870D02*
X008458Y013870D01*
X008458Y013871D02*
X008138Y013871D01*
X008138Y013872D02*
X008458Y013872D01*
X008458Y013873D02*
X008138Y013873D01*
X008138Y013874D02*
X008458Y013874D01*
X008458Y013875D02*
X008138Y013875D01*
X008138Y013876D02*
X008458Y013876D01*
X008458Y013877D02*
X008138Y013877D01*
X008138Y013878D02*
X008458Y013878D01*
X008458Y013879D02*
X008138Y013879D01*
X008138Y013880D02*
X008458Y013880D01*
X008458Y013881D02*
X008138Y013881D01*
X008138Y013882D02*
X008458Y013882D01*
X008458Y013883D02*
X008138Y013883D01*
X008138Y013884D02*
X008458Y013884D01*
X008458Y013885D02*
X008138Y013885D01*
X008138Y013886D02*
X008458Y013886D01*
X008458Y013887D02*
X008138Y013887D01*
X008138Y013888D02*
X008458Y013888D01*
X008458Y013889D02*
X008138Y013889D01*
X008138Y013890D02*
X008458Y013890D01*
X008458Y013891D02*
X008138Y013891D01*
X008138Y013892D02*
X008458Y013892D01*
X008458Y013893D02*
X008138Y013893D01*
X008138Y013894D02*
X008458Y013894D01*
X008458Y013895D02*
X008138Y013895D01*
X008138Y013896D02*
X008458Y013896D01*
X008458Y013897D02*
X008138Y013897D01*
X008138Y013898D02*
X008458Y013898D01*
X008458Y013899D02*
X008138Y013899D01*
X008138Y013900D02*
X008458Y013900D01*
X008458Y013901D02*
X008138Y013901D01*
X008138Y013902D02*
X008458Y013902D01*
X008458Y013903D02*
X008138Y013903D01*
X008138Y013904D02*
X008458Y013904D01*
X008458Y013905D02*
X008138Y013905D01*
X008138Y013906D02*
X008458Y013906D01*
X008458Y013907D02*
X008138Y013907D01*
X008138Y013908D02*
X008458Y013908D01*
X008458Y013909D02*
X008138Y013909D01*
X008138Y013910D02*
X008458Y013910D01*
X008458Y013911D02*
X008138Y013911D01*
X008138Y013912D02*
X008458Y013912D01*
X008458Y013913D02*
X008138Y013913D01*
X008138Y013914D02*
X008458Y013914D01*
X008457Y013915D02*
X008138Y013915D01*
X008138Y013916D02*
X008457Y013916D01*
X008457Y013917D02*
X008138Y013917D01*
X008138Y013918D02*
X008457Y013918D01*
X008457Y013919D02*
X008138Y013919D01*
X008138Y013920D02*
X008457Y013920D01*
X008457Y013921D02*
X008139Y013921D01*
X008139Y013922D02*
X008457Y013922D01*
X008457Y013923D02*
X008139Y013923D01*
X008139Y013924D02*
X008456Y013924D01*
X008456Y013925D02*
X008139Y013925D01*
X008139Y013926D02*
X008456Y013926D01*
X008456Y013927D02*
X008139Y013927D01*
X008139Y013928D02*
X008456Y013928D01*
X008456Y013929D02*
X008139Y013929D01*
X008140Y013930D02*
X008456Y013930D01*
X008456Y013931D02*
X008140Y013931D01*
X008140Y013932D02*
X008456Y013932D01*
X008455Y013933D02*
X008140Y013933D01*
X008140Y013934D02*
X008455Y013934D01*
X008455Y013935D02*
X008140Y013935D01*
X008140Y013936D02*
X008455Y013936D01*
X008455Y013937D02*
X008140Y013937D01*
X008140Y013938D02*
X008455Y013938D01*
X008455Y013939D02*
X008141Y013939D01*
X008141Y013940D02*
X008455Y013940D01*
X008455Y013941D02*
X008141Y013941D01*
X008141Y013942D02*
X008454Y013942D01*
X008454Y013943D02*
X008141Y013943D01*
X008141Y013944D02*
X008454Y013944D01*
X008454Y013945D02*
X008141Y013945D01*
X008141Y013946D02*
X008454Y013946D01*
X008454Y013947D02*
X008142Y013947D01*
X008142Y013948D02*
X008454Y013948D01*
X008454Y013949D02*
X008142Y013949D01*
X008142Y013950D02*
X008453Y013950D01*
X008453Y013951D02*
X008142Y013951D01*
X008143Y013952D02*
X008453Y013952D01*
X008452Y013953D02*
X008143Y013953D01*
X008144Y013954D02*
X008452Y013954D01*
X008452Y013955D02*
X008144Y013955D01*
X008144Y013956D02*
X008451Y013956D01*
X008451Y013957D02*
X008145Y013957D01*
X008145Y013958D02*
X008450Y013958D01*
X008450Y013959D02*
X008145Y013959D01*
X008146Y013960D02*
X008450Y013960D01*
X008449Y013961D02*
X008146Y013961D01*
X008146Y013962D02*
X008449Y013962D01*
X008449Y013963D02*
X008147Y013963D01*
X008147Y013964D02*
X008448Y013964D01*
X008448Y013965D02*
X008147Y013965D01*
X008148Y013966D02*
X008448Y013966D01*
X008447Y013967D02*
X008148Y013967D01*
X008148Y013968D02*
X008447Y013968D01*
X008447Y013969D02*
X008149Y013969D01*
X008149Y013970D02*
X008446Y013970D01*
X008446Y013971D02*
X008149Y013971D01*
X008150Y013972D02*
X008446Y013972D01*
X008445Y013973D02*
X008150Y013973D01*
X008151Y013974D02*
X008445Y013974D01*
X008445Y013975D02*
X008151Y013975D01*
X008151Y013976D02*
X008444Y013976D01*
X008444Y013977D02*
X008152Y013977D01*
X008152Y013978D02*
X008443Y013978D01*
X008443Y013979D02*
X008152Y013979D01*
X008153Y013980D02*
X008443Y013980D01*
X008442Y013981D02*
X008153Y013981D01*
X008153Y013982D02*
X008442Y013982D01*
X008442Y013983D02*
X008154Y013983D01*
X008154Y013984D02*
X008441Y013984D01*
X008440Y013985D02*
X008155Y013985D01*
X008156Y013986D02*
X008440Y013986D01*
X008439Y013987D02*
X008156Y013987D01*
X008157Y013988D02*
X008439Y013988D01*
X008438Y013989D02*
X008158Y013989D01*
X008158Y013990D02*
X008437Y013990D01*
X008437Y013991D02*
X008159Y013991D01*
X008159Y013992D02*
X008436Y013992D01*
X008435Y013993D02*
X008160Y013993D01*
X008161Y013994D02*
X008435Y013994D01*
X008434Y013995D02*
X008161Y013995D01*
X008162Y013996D02*
X008433Y013996D01*
X008433Y013997D02*
X008163Y013997D01*
X008163Y013998D02*
X008432Y013998D01*
X008432Y013999D02*
X008164Y013999D01*
X008164Y014000D02*
X008431Y014000D01*
X008430Y014001D02*
X008165Y014001D01*
X008166Y014002D02*
X008430Y014002D01*
X008429Y014003D02*
X008166Y014003D01*
X008167Y014004D02*
X008428Y014004D01*
X008428Y014005D02*
X008168Y014005D01*
X008168Y014006D02*
X008427Y014006D01*
X008427Y014007D02*
X008169Y014007D01*
X008169Y014008D02*
X008426Y014008D01*
X008425Y014009D02*
X008170Y014009D01*
X008171Y014010D02*
X008425Y014010D01*
X008424Y014011D02*
X008171Y014011D01*
X008172Y014012D02*
X008423Y014012D01*
X008423Y014013D02*
X008173Y014013D01*
X008174Y014014D02*
X008422Y014014D01*
X008421Y014015D02*
X008175Y014015D01*
X008176Y014016D02*
X008420Y014016D01*
X008419Y014017D02*
X008177Y014017D01*
X008178Y014018D02*
X008418Y014018D01*
X008417Y014019D02*
X008179Y014019D01*
X008180Y014020D02*
X008416Y014020D01*
X008415Y014021D02*
X008181Y014021D01*
X008182Y014022D02*
X008414Y014022D01*
X008413Y014023D02*
X008183Y014023D01*
X008184Y014024D02*
X008412Y014024D01*
X008411Y014025D02*
X008185Y014025D01*
X008186Y014026D02*
X008410Y014026D01*
X008409Y014027D02*
X008187Y014027D01*
X008188Y014028D02*
X008408Y014028D01*
X008407Y014029D02*
X008189Y014029D01*
X008190Y014030D02*
X008406Y014030D01*
X008405Y014031D02*
X008191Y014031D01*
X008192Y014032D02*
X008404Y014032D01*
X008403Y014033D02*
X008193Y014033D01*
X008194Y014034D02*
X008402Y014034D01*
X008401Y014035D02*
X008195Y014035D01*
X008196Y014036D02*
X008400Y014036D01*
X008399Y014037D02*
X008197Y014037D01*
X008198Y014038D02*
X008398Y014038D01*
X008396Y014039D02*
X008199Y014039D01*
X008201Y014040D02*
X008395Y014040D01*
X008393Y014041D02*
X008202Y014041D01*
X008204Y014042D02*
X008392Y014042D01*
X008390Y014043D02*
X008205Y014043D01*
X008207Y014044D02*
X008389Y014044D01*
X008387Y014045D02*
X008208Y014045D01*
X008210Y014046D02*
X008385Y014046D01*
X008384Y014047D02*
X008212Y014047D01*
X008213Y014048D02*
X008382Y014048D01*
X008381Y014049D02*
X008215Y014049D01*
X008216Y014050D02*
X008379Y014050D01*
X008377Y014051D02*
X008218Y014051D01*
X008220Y014052D02*
X008376Y014052D01*
X008374Y014053D02*
X008221Y014053D01*
X008223Y014054D02*
X008373Y014054D01*
X008371Y014055D02*
X008224Y014055D01*
X008226Y014056D02*
X008369Y014056D01*
X008368Y014057D02*
X008228Y014057D01*
X008230Y014058D02*
X008366Y014058D01*
X008363Y014059D02*
X008233Y014059D01*
X008236Y014060D02*
X008360Y014060D01*
X008357Y014061D02*
X008238Y014061D01*
X008241Y014062D02*
X008354Y014062D01*
X008351Y014063D02*
X008244Y014063D01*
X008247Y014064D02*
X008348Y014064D01*
X008346Y014065D02*
X008250Y014065D01*
X008253Y014066D02*
X008343Y014066D01*
X008340Y014067D02*
X008256Y014067D01*
X008258Y014068D02*
X008337Y014068D01*
X008334Y014069D02*
X008261Y014069D01*
X008268Y014070D02*
X008327Y014070D01*
X008318Y014071D02*
X008277Y014071D01*
X008286Y014072D02*
X008309Y014072D01*
X008301Y014073D02*
X008295Y014073D01*
X008229Y012989D02*
X008367Y012989D01*
X008364Y012988D02*
X008231Y012988D01*
X008234Y012987D02*
X008361Y012987D01*
X008358Y012986D02*
X008237Y012986D01*
X008240Y012985D02*
X008355Y012985D01*
X008353Y012984D02*
X008243Y012984D01*
X008246Y012983D02*
X008350Y012983D01*
X008347Y012982D02*
X008249Y012982D01*
X008251Y012981D02*
X008344Y012981D01*
X008341Y012980D02*
X008254Y012980D01*
X008257Y012979D02*
X008338Y012979D01*
X008335Y012978D02*
X008260Y012978D01*
X008264Y012977D02*
X008331Y012977D01*
X008322Y012976D02*
X008273Y012976D01*
X008282Y012975D02*
X008313Y012975D01*
X008304Y012974D02*
X008291Y012974D01*
M02*
