G75*
G70*
%OFA0B0*%
%FSLAX24Y24*%
%IPPOS*%
%LPD*%
%AMOC8*
5,1,8,0,0,1.08239X$1,22.5*
%
%ADD10C,0.0000*%
D10*
X000930Y005893D02*
X000930Y037389D01*
X040300Y037389D01*
X040300Y005893D01*
X000930Y005893D01*
X001463Y007403D02*
X001465Y007456D01*
X001471Y007509D01*
X001481Y007561D01*
X001494Y007612D01*
X001512Y007662D01*
X001533Y007711D01*
X001558Y007758D01*
X001586Y007802D01*
X001618Y007845D01*
X001652Y007885D01*
X001690Y007923D01*
X001730Y007957D01*
X001773Y007989D01*
X001818Y008017D01*
X001864Y008042D01*
X001913Y008063D01*
X001963Y008081D01*
X002014Y008094D01*
X002066Y008104D01*
X002119Y008110D01*
X002172Y008112D01*
X002225Y008110D01*
X002278Y008104D01*
X002330Y008094D01*
X002381Y008081D01*
X002431Y008063D01*
X002480Y008042D01*
X002527Y008017D01*
X002571Y007989D01*
X002614Y007957D01*
X002654Y007923D01*
X002692Y007885D01*
X002726Y007845D01*
X002758Y007802D01*
X002786Y007757D01*
X002811Y007711D01*
X002832Y007662D01*
X002850Y007612D01*
X002863Y007561D01*
X002873Y007509D01*
X002879Y007456D01*
X002881Y007403D01*
X002879Y007350D01*
X002873Y007297D01*
X002863Y007245D01*
X002850Y007194D01*
X002832Y007144D01*
X002811Y007095D01*
X002786Y007048D01*
X002758Y007004D01*
X002726Y006961D01*
X002692Y006921D01*
X002654Y006883D01*
X002614Y006849D01*
X002571Y006817D01*
X002526Y006789D01*
X002480Y006764D01*
X002431Y006743D01*
X002381Y006725D01*
X002330Y006712D01*
X002278Y006702D01*
X002225Y006696D01*
X002172Y006694D01*
X002119Y006696D01*
X002066Y006702D01*
X002014Y006712D01*
X001963Y006725D01*
X001913Y006743D01*
X001864Y006764D01*
X001817Y006789D01*
X001773Y006817D01*
X001730Y006849D01*
X001690Y006883D01*
X001652Y006921D01*
X001618Y006961D01*
X001586Y007004D01*
X001558Y007049D01*
X001533Y007095D01*
X001512Y007144D01*
X001494Y007194D01*
X001481Y007245D01*
X001471Y007297D01*
X001465Y007350D01*
X001463Y007403D01*
X017971Y023143D02*
X017973Y023196D01*
X017979Y023249D01*
X017989Y023301D01*
X018002Y023352D01*
X018020Y023402D01*
X018041Y023451D01*
X018066Y023498D01*
X018094Y023542D01*
X018126Y023585D01*
X018160Y023625D01*
X018198Y023663D01*
X018238Y023697D01*
X018281Y023729D01*
X018326Y023757D01*
X018372Y023782D01*
X018421Y023803D01*
X018471Y023821D01*
X018522Y023834D01*
X018574Y023844D01*
X018627Y023850D01*
X018680Y023852D01*
X018733Y023850D01*
X018786Y023844D01*
X018838Y023834D01*
X018889Y023821D01*
X018939Y023803D01*
X018988Y023782D01*
X019035Y023757D01*
X019079Y023729D01*
X019122Y023697D01*
X019162Y023663D01*
X019200Y023625D01*
X019234Y023585D01*
X019266Y023542D01*
X019294Y023497D01*
X019319Y023451D01*
X019340Y023402D01*
X019358Y023352D01*
X019371Y023301D01*
X019381Y023249D01*
X019387Y023196D01*
X019389Y023143D01*
X019387Y023090D01*
X019381Y023037D01*
X019371Y022985D01*
X019358Y022934D01*
X019340Y022884D01*
X019319Y022835D01*
X019294Y022788D01*
X019266Y022744D01*
X019234Y022701D01*
X019200Y022661D01*
X019162Y022623D01*
X019122Y022589D01*
X019079Y022557D01*
X019034Y022529D01*
X018988Y022504D01*
X018939Y022483D01*
X018889Y022465D01*
X018838Y022452D01*
X018786Y022442D01*
X018733Y022436D01*
X018680Y022434D01*
X018627Y022436D01*
X018574Y022442D01*
X018522Y022452D01*
X018471Y022465D01*
X018421Y022483D01*
X018372Y022504D01*
X018325Y022529D01*
X018281Y022557D01*
X018238Y022589D01*
X018198Y022623D01*
X018160Y022661D01*
X018126Y022701D01*
X018094Y022744D01*
X018066Y022789D01*
X018041Y022835D01*
X018020Y022884D01*
X018002Y022934D01*
X017989Y022985D01*
X017979Y023037D01*
X017973Y023090D01*
X017971Y023143D01*
X017971Y034143D02*
X017973Y034196D01*
X017979Y034249D01*
X017989Y034301D01*
X018002Y034352D01*
X018020Y034402D01*
X018041Y034451D01*
X018066Y034498D01*
X018094Y034542D01*
X018126Y034585D01*
X018160Y034625D01*
X018198Y034663D01*
X018238Y034697D01*
X018281Y034729D01*
X018326Y034757D01*
X018372Y034782D01*
X018421Y034803D01*
X018471Y034821D01*
X018522Y034834D01*
X018574Y034844D01*
X018627Y034850D01*
X018680Y034852D01*
X018733Y034850D01*
X018786Y034844D01*
X018838Y034834D01*
X018889Y034821D01*
X018939Y034803D01*
X018988Y034782D01*
X019035Y034757D01*
X019079Y034729D01*
X019122Y034697D01*
X019162Y034663D01*
X019200Y034625D01*
X019234Y034585D01*
X019266Y034542D01*
X019294Y034497D01*
X019319Y034451D01*
X019340Y034402D01*
X019358Y034352D01*
X019371Y034301D01*
X019381Y034249D01*
X019387Y034196D01*
X019389Y034143D01*
X019387Y034090D01*
X019381Y034037D01*
X019371Y033985D01*
X019358Y033934D01*
X019340Y033884D01*
X019319Y033835D01*
X019294Y033788D01*
X019266Y033744D01*
X019234Y033701D01*
X019200Y033661D01*
X019162Y033623D01*
X019122Y033589D01*
X019079Y033557D01*
X019034Y033529D01*
X018988Y033504D01*
X018939Y033483D01*
X018889Y033465D01*
X018838Y033452D01*
X018786Y033442D01*
X018733Y033436D01*
X018680Y033434D01*
X018627Y033436D01*
X018574Y033442D01*
X018522Y033452D01*
X018471Y033465D01*
X018421Y033483D01*
X018372Y033504D01*
X018325Y033529D01*
X018281Y033557D01*
X018238Y033589D01*
X018198Y033623D01*
X018160Y033661D01*
X018126Y033701D01*
X018094Y033744D01*
X018066Y033789D01*
X018041Y033835D01*
X018020Y033884D01*
X018002Y033934D01*
X017989Y033985D01*
X017979Y034037D01*
X017973Y034090D01*
X017971Y034143D01*
X001463Y036143D02*
X001465Y036196D01*
X001471Y036249D01*
X001481Y036301D01*
X001494Y036352D01*
X001512Y036402D01*
X001533Y036451D01*
X001558Y036498D01*
X001586Y036542D01*
X001618Y036585D01*
X001652Y036625D01*
X001690Y036663D01*
X001730Y036697D01*
X001773Y036729D01*
X001818Y036757D01*
X001864Y036782D01*
X001913Y036803D01*
X001963Y036821D01*
X002014Y036834D01*
X002066Y036844D01*
X002119Y036850D01*
X002172Y036852D01*
X002225Y036850D01*
X002278Y036844D01*
X002330Y036834D01*
X002381Y036821D01*
X002431Y036803D01*
X002480Y036782D01*
X002527Y036757D01*
X002571Y036729D01*
X002614Y036697D01*
X002654Y036663D01*
X002692Y036625D01*
X002726Y036585D01*
X002758Y036542D01*
X002786Y036497D01*
X002811Y036451D01*
X002832Y036402D01*
X002850Y036352D01*
X002863Y036301D01*
X002873Y036249D01*
X002879Y036196D01*
X002881Y036143D01*
X002879Y036090D01*
X002873Y036037D01*
X002863Y035985D01*
X002850Y035934D01*
X002832Y035884D01*
X002811Y035835D01*
X002786Y035788D01*
X002758Y035744D01*
X002726Y035701D01*
X002692Y035661D01*
X002654Y035623D01*
X002614Y035589D01*
X002571Y035557D01*
X002526Y035529D01*
X002480Y035504D01*
X002431Y035483D01*
X002381Y035465D01*
X002330Y035452D01*
X002278Y035442D01*
X002225Y035436D01*
X002172Y035434D01*
X002119Y035436D01*
X002066Y035442D01*
X002014Y035452D01*
X001963Y035465D01*
X001913Y035483D01*
X001864Y035504D01*
X001817Y035529D01*
X001773Y035557D01*
X001730Y035589D01*
X001690Y035623D01*
X001652Y035661D01*
X001618Y035701D01*
X001586Y035744D01*
X001558Y035789D01*
X001533Y035835D01*
X001512Y035884D01*
X001494Y035934D01*
X001481Y035985D01*
X001471Y036037D01*
X001465Y036090D01*
X001463Y036143D01*
X038471Y036143D02*
X038473Y036196D01*
X038479Y036249D01*
X038489Y036301D01*
X038502Y036352D01*
X038520Y036402D01*
X038541Y036451D01*
X038566Y036498D01*
X038594Y036542D01*
X038626Y036585D01*
X038660Y036625D01*
X038698Y036663D01*
X038738Y036697D01*
X038781Y036729D01*
X038826Y036757D01*
X038872Y036782D01*
X038921Y036803D01*
X038971Y036821D01*
X039022Y036834D01*
X039074Y036844D01*
X039127Y036850D01*
X039180Y036852D01*
X039233Y036850D01*
X039286Y036844D01*
X039338Y036834D01*
X039389Y036821D01*
X039439Y036803D01*
X039488Y036782D01*
X039535Y036757D01*
X039579Y036729D01*
X039622Y036697D01*
X039662Y036663D01*
X039700Y036625D01*
X039734Y036585D01*
X039766Y036542D01*
X039794Y036497D01*
X039819Y036451D01*
X039840Y036402D01*
X039858Y036352D01*
X039871Y036301D01*
X039881Y036249D01*
X039887Y036196D01*
X039889Y036143D01*
X039887Y036090D01*
X039881Y036037D01*
X039871Y035985D01*
X039858Y035934D01*
X039840Y035884D01*
X039819Y035835D01*
X039794Y035788D01*
X039766Y035744D01*
X039734Y035701D01*
X039700Y035661D01*
X039662Y035623D01*
X039622Y035589D01*
X039579Y035557D01*
X039534Y035529D01*
X039488Y035504D01*
X039439Y035483D01*
X039389Y035465D01*
X039338Y035452D01*
X039286Y035442D01*
X039233Y035436D01*
X039180Y035434D01*
X039127Y035436D01*
X039074Y035442D01*
X039022Y035452D01*
X038971Y035465D01*
X038921Y035483D01*
X038872Y035504D01*
X038825Y035529D01*
X038781Y035557D01*
X038738Y035589D01*
X038698Y035623D01*
X038660Y035661D01*
X038626Y035701D01*
X038594Y035744D01*
X038566Y035789D01*
X038541Y035835D01*
X038520Y035884D01*
X038502Y035934D01*
X038489Y035985D01*
X038479Y036037D01*
X038473Y036090D01*
X038471Y036143D01*
X037971Y017143D02*
X037973Y017196D01*
X037979Y017249D01*
X037989Y017301D01*
X038002Y017352D01*
X038020Y017402D01*
X038041Y017451D01*
X038066Y017498D01*
X038094Y017542D01*
X038126Y017585D01*
X038160Y017625D01*
X038198Y017663D01*
X038238Y017697D01*
X038281Y017729D01*
X038326Y017757D01*
X038372Y017782D01*
X038421Y017803D01*
X038471Y017821D01*
X038522Y017834D01*
X038574Y017844D01*
X038627Y017850D01*
X038680Y017852D01*
X038733Y017850D01*
X038786Y017844D01*
X038838Y017834D01*
X038889Y017821D01*
X038939Y017803D01*
X038988Y017782D01*
X039035Y017757D01*
X039079Y017729D01*
X039122Y017697D01*
X039162Y017663D01*
X039200Y017625D01*
X039234Y017585D01*
X039266Y017542D01*
X039294Y017497D01*
X039319Y017451D01*
X039340Y017402D01*
X039358Y017352D01*
X039371Y017301D01*
X039381Y017249D01*
X039387Y017196D01*
X039389Y017143D01*
X039387Y017090D01*
X039381Y017037D01*
X039371Y016985D01*
X039358Y016934D01*
X039340Y016884D01*
X039319Y016835D01*
X039294Y016788D01*
X039266Y016744D01*
X039234Y016701D01*
X039200Y016661D01*
X039162Y016623D01*
X039122Y016589D01*
X039079Y016557D01*
X039034Y016529D01*
X038988Y016504D01*
X038939Y016483D01*
X038889Y016465D01*
X038838Y016452D01*
X038786Y016442D01*
X038733Y016436D01*
X038680Y016434D01*
X038627Y016436D01*
X038574Y016442D01*
X038522Y016452D01*
X038471Y016465D01*
X038421Y016483D01*
X038372Y016504D01*
X038325Y016529D01*
X038281Y016557D01*
X038238Y016589D01*
X038198Y016623D01*
X038160Y016661D01*
X038126Y016701D01*
X038094Y016744D01*
X038066Y016789D01*
X038041Y016835D01*
X038020Y016884D01*
X038002Y016934D01*
X037989Y016985D01*
X037979Y017037D01*
X037973Y017090D01*
X037971Y017143D01*
X038471Y007403D02*
X038473Y007456D01*
X038479Y007509D01*
X038489Y007561D01*
X038502Y007612D01*
X038520Y007662D01*
X038541Y007711D01*
X038566Y007758D01*
X038594Y007802D01*
X038626Y007845D01*
X038660Y007885D01*
X038698Y007923D01*
X038738Y007957D01*
X038781Y007989D01*
X038826Y008017D01*
X038872Y008042D01*
X038921Y008063D01*
X038971Y008081D01*
X039022Y008094D01*
X039074Y008104D01*
X039127Y008110D01*
X039180Y008112D01*
X039233Y008110D01*
X039286Y008104D01*
X039338Y008094D01*
X039389Y008081D01*
X039439Y008063D01*
X039488Y008042D01*
X039535Y008017D01*
X039579Y007989D01*
X039622Y007957D01*
X039662Y007923D01*
X039700Y007885D01*
X039734Y007845D01*
X039766Y007802D01*
X039794Y007757D01*
X039819Y007711D01*
X039840Y007662D01*
X039858Y007612D01*
X039871Y007561D01*
X039881Y007509D01*
X039887Y007456D01*
X039889Y007403D01*
X039887Y007350D01*
X039881Y007297D01*
X039871Y007245D01*
X039858Y007194D01*
X039840Y007144D01*
X039819Y007095D01*
X039794Y007048D01*
X039766Y007004D01*
X039734Y006961D01*
X039700Y006921D01*
X039662Y006883D01*
X039622Y006849D01*
X039579Y006817D01*
X039534Y006789D01*
X039488Y006764D01*
X039439Y006743D01*
X039389Y006725D01*
X039338Y006712D01*
X039286Y006702D01*
X039233Y006696D01*
X039180Y006694D01*
X039127Y006696D01*
X039074Y006702D01*
X039022Y006712D01*
X038971Y006725D01*
X038921Y006743D01*
X038872Y006764D01*
X038825Y006789D01*
X038781Y006817D01*
X038738Y006849D01*
X038698Y006883D01*
X038660Y006921D01*
X038626Y006961D01*
X038594Y007004D01*
X038566Y007049D01*
X038541Y007095D01*
X038520Y007144D01*
X038502Y007194D01*
X038489Y007245D01*
X038479Y007297D01*
X038473Y007350D01*
X038471Y007403D01*
M02*
