G75*
G70*
%OFA0B0*%
%FSLAX24Y24*%
%IPPOS*%
%LPD*%
%AMOC8*
5,1,8,0,0,1.08239X$1,22.5*
%
%ADD10C,0.1457*%
%ADD11C,0.0780*%
%ADD12R,0.0780X0.0780*%
%ADD13OC8,0.0780*%
%ADD14R,0.0552X0.0631*%
%ADD15C,0.0600*%
%ADD16C,0.1700*%
%ADD17C,0.1542*%
%ADD18C,0.0745*%
%ADD19C,0.0640*%
%ADD20R,0.1600X0.1600*%
%ADD21R,0.1290X0.1290*%
%ADD22R,0.0591X0.0788*%
%ADD23R,0.0749X0.0591*%
%ADD24R,0.0316X0.0631*%
%ADD25R,0.0631X0.0552*%
%ADD26R,0.0906X0.0276*%
%ADD27R,0.0290X0.0540*%
%ADD28R,0.0540X0.0290*%
%ADD29C,0.0640*%
%ADD30OC8,0.0640*%
%ADD31R,0.0158X0.0237*%
%ADD32R,0.0670X0.0500*%
%ADD33R,0.1181X0.1181*%
%ADD34R,0.0434X0.0591*%
D10*
X002172Y007403D03*
X018680Y023143D03*
X018680Y034143D03*
X002172Y036143D03*
X039180Y036143D03*
X038680Y017143D03*
X039180Y007403D03*
D11*
X037280Y017143D03*
X036280Y017143D03*
X035280Y017143D03*
X034280Y017143D03*
X033280Y017143D03*
X032280Y017143D03*
X031280Y017143D03*
X030280Y017143D03*
X029280Y017143D03*
X028280Y017143D03*
X026680Y017143D03*
X025680Y017143D03*
X024680Y017143D03*
X023680Y017143D03*
X022680Y017143D03*
X021680Y017143D03*
X020680Y017143D03*
X014930Y016393D03*
X013930Y016393D03*
X013930Y017393D03*
X013930Y018393D03*
X013930Y019393D03*
X013930Y020393D03*
X013930Y021393D03*
X013930Y022393D03*
X013930Y023393D03*
X013930Y024393D03*
X013930Y025393D03*
X013930Y026393D03*
X013930Y027393D03*
X013930Y028393D03*
X013930Y029393D03*
X013930Y030393D03*
X013930Y031393D03*
X013930Y032393D03*
X013930Y033393D03*
X010930Y033393D03*
X010930Y032393D03*
X010930Y031393D03*
X010930Y030393D03*
X010930Y029393D03*
X010930Y028393D03*
X010930Y027393D03*
X010930Y026393D03*
X010930Y025393D03*
X010930Y024393D03*
X010930Y023393D03*
X010930Y022393D03*
X010930Y021393D03*
X010930Y020393D03*
X010930Y019393D03*
X010930Y018393D03*
X010930Y017393D03*
X010930Y016393D03*
X010930Y015393D03*
X010930Y014393D03*
X010930Y013393D03*
X010930Y012393D03*
X010930Y011393D03*
X010930Y010393D03*
X013930Y010393D03*
X013930Y011393D03*
X013930Y012393D03*
X013930Y013393D03*
X013930Y014393D03*
X014930Y014393D03*
X014930Y015393D03*
X013930Y015393D03*
X009930Y020393D03*
X008930Y020393D03*
X007930Y020393D03*
X006930Y020393D03*
X005930Y020393D03*
X004930Y020393D03*
X004930Y019393D03*
X004930Y018393D03*
X004930Y017393D03*
X004930Y016393D03*
X004930Y015393D03*
X004930Y014393D03*
X004930Y013393D03*
X004930Y012393D03*
X004930Y011393D03*
X004930Y010393D03*
X001930Y010393D03*
X001930Y011393D03*
X001930Y012393D03*
X001930Y013393D03*
X001930Y014393D03*
X001930Y015393D03*
X001930Y016393D03*
X001930Y017393D03*
X001930Y018393D03*
X001930Y019393D03*
X001930Y020393D03*
X001930Y021393D03*
X001930Y022393D03*
X001930Y023393D03*
X001930Y024393D03*
X001930Y025393D03*
X001930Y026393D03*
X001930Y027393D03*
X001930Y028393D03*
X001930Y029393D03*
X001930Y030393D03*
X001930Y031393D03*
X001930Y032393D03*
X001930Y033393D03*
X004930Y033393D03*
X004930Y032393D03*
X004930Y031393D03*
X004930Y030393D03*
X004930Y029393D03*
X004930Y028393D03*
X004930Y027393D03*
X004930Y026393D03*
X004930Y025393D03*
X004930Y024393D03*
X004930Y023393D03*
X004930Y022393D03*
X004930Y021393D03*
X015180Y036143D03*
X016180Y036143D03*
X019680Y036143D03*
X020680Y036143D03*
X021680Y036143D03*
X022680Y036143D03*
X023680Y036143D03*
X024680Y036143D03*
X027680Y036143D03*
X028680Y036143D03*
X029680Y036143D03*
X030680Y036143D03*
X031680Y036143D03*
X032680Y036143D03*
X033680Y036143D03*
X036650Y021783D03*
X036650Y020003D03*
X039210Y020003D03*
X039210Y021783D03*
D12*
X026680Y036143D03*
X019680Y017143D03*
D13*
X019680Y025143D03*
X018680Y025143D03*
X018680Y026143D03*
X019680Y026143D03*
X019680Y027143D03*
X018680Y027143D03*
D14*
X015765Y026393D03*
X015095Y026393D03*
X015095Y025393D03*
X015765Y025393D03*
X012765Y025393D03*
X012095Y025393D03*
X012095Y024393D03*
X012765Y024393D03*
X012765Y023393D03*
X012095Y023393D03*
X012095Y022393D03*
X012765Y022393D03*
X012765Y021393D03*
X012095Y021393D03*
X012095Y020393D03*
X012765Y020393D03*
X012765Y026393D03*
X012095Y026393D03*
X012095Y027393D03*
X012765Y027393D03*
X012765Y028393D03*
X012095Y028393D03*
X012095Y029393D03*
X012765Y029393D03*
X012765Y030393D03*
X012095Y030393D03*
X003765Y030393D03*
X003095Y030393D03*
X003095Y029393D03*
X003765Y029393D03*
X003765Y028393D03*
X003095Y028393D03*
X003095Y027393D03*
X003765Y027393D03*
X003765Y026393D03*
X003095Y026393D03*
X003095Y025393D03*
X003765Y025393D03*
X003765Y024393D03*
X003095Y024393D03*
X003095Y023393D03*
X003765Y023393D03*
X003765Y022393D03*
X003095Y022393D03*
X003095Y021393D03*
X003765Y021393D03*
X003765Y020393D03*
X003095Y020393D03*
X003095Y019393D03*
X003765Y019393D03*
X003765Y018393D03*
X003095Y018393D03*
X003095Y017393D03*
X003765Y017393D03*
X003765Y016393D03*
X003095Y016393D03*
X003095Y015393D03*
X003765Y015393D03*
X003765Y014393D03*
X003095Y014393D03*
X003095Y013393D03*
X003765Y013393D03*
X003765Y012393D03*
X003095Y012393D03*
X003095Y011393D03*
X003765Y011393D03*
X003765Y010393D03*
X003095Y010393D03*
X012095Y010393D03*
X012765Y010393D03*
X012765Y011393D03*
X012095Y011393D03*
X012095Y012393D03*
X012765Y012393D03*
X012765Y013393D03*
X012095Y013393D03*
X003765Y031393D03*
X003095Y031393D03*
X003095Y032393D03*
X003765Y032393D03*
X026845Y031393D03*
X027515Y031393D03*
X034695Y020893D03*
X035365Y020893D03*
X038095Y018793D03*
X038765Y018793D03*
D15*
X036430Y024250D03*
X036430Y025037D03*
X036574Y034143D03*
X035786Y034143D03*
D16*
X036576Y030143D03*
D17*
X037698Y032033D03*
X039036Y030143D03*
D18*
X004930Y007746D02*
X004930Y007041D01*
X006930Y007041D02*
X006930Y007746D01*
X008930Y007746D02*
X008930Y007041D01*
X037578Y023659D02*
X038283Y023659D01*
X038283Y025628D02*
X037578Y025628D01*
D19*
X024180Y031843D02*
X024180Y032443D01*
X023180Y032443D02*
X023180Y031843D01*
X022180Y031843D02*
X022180Y032443D01*
X008430Y018193D02*
X008430Y017593D01*
X007430Y017593D02*
X007430Y018193D01*
D20*
X007900Y035217D03*
D21*
X011000Y035217D03*
X004800Y035217D03*
D22*
X020576Y025208D03*
X025773Y025563D03*
D23*
X025143Y030720D03*
X022780Y030720D03*
D24*
X022820Y026862D03*
X023253Y026704D03*
X023686Y026547D03*
X024119Y026704D03*
X024552Y026547D03*
X024985Y026704D03*
X025418Y026704D03*
X022387Y026704D03*
D25*
X026680Y026559D03*
X026680Y027228D03*
X009630Y027059D03*
X009630Y027728D03*
X009630Y029809D03*
X009630Y030478D03*
X009630Y024978D03*
X009630Y024309D03*
X009730Y022228D03*
X009730Y021559D03*
X015930Y012228D03*
X015930Y011559D03*
X016930Y011559D03*
X016930Y012228D03*
X017930Y012228D03*
X017930Y011559D03*
X017930Y009728D03*
X017930Y009059D03*
X016930Y009059D03*
X016930Y009728D03*
X015930Y009728D03*
X015930Y009059D03*
X015630Y007428D03*
X015630Y006759D03*
X014630Y006759D03*
X014630Y007428D03*
X013380Y007428D03*
X013380Y006759D03*
X012380Y006759D03*
X012380Y007428D03*
X011130Y007428D03*
X011130Y006759D03*
X016880Y006759D03*
X016880Y007428D03*
X017880Y007428D03*
X017880Y006759D03*
D26*
X008741Y021643D03*
X008741Y022143D03*
X008741Y022643D03*
X008741Y023143D03*
X008741Y024393D03*
X008741Y024893D03*
X008741Y025393D03*
X008741Y025893D03*
X008741Y027143D03*
X008741Y027643D03*
X008741Y028143D03*
X008741Y028643D03*
X008741Y029893D03*
X008741Y030393D03*
X008741Y030893D03*
X008741Y031393D03*
X006119Y031393D03*
X006119Y030893D03*
X006119Y030393D03*
X006119Y029893D03*
X006119Y028643D03*
X006119Y028143D03*
X006119Y027643D03*
X006119Y027143D03*
X006119Y025893D03*
X006119Y025393D03*
X006119Y024893D03*
X006119Y024393D03*
X006119Y023143D03*
X006119Y022643D03*
X006119Y022143D03*
X006119Y021643D03*
D27*
X023503Y016143D03*
X023857Y016143D03*
X024503Y016143D03*
X024857Y016143D03*
X036503Y014143D03*
X036857Y014143D03*
X037503Y014143D03*
X037857Y014143D03*
D28*
X030180Y018716D03*
X030180Y019070D03*
X029180Y019070D03*
X029180Y018716D03*
X029180Y020216D03*
X029180Y020570D03*
X030180Y020570D03*
X030180Y020216D03*
X027430Y020216D03*
X027430Y020570D03*
X026430Y020570D03*
X026430Y020216D03*
X026430Y019070D03*
X026430Y018716D03*
X027430Y018716D03*
X027430Y019070D03*
X026030Y012920D03*
X026030Y012566D03*
X026080Y010970D03*
X026080Y010616D03*
X026030Y008921D03*
X026030Y008566D03*
X026080Y007220D03*
X026080Y006866D03*
X023030Y006816D03*
X023030Y007170D03*
X023080Y008616D03*
X023080Y008970D03*
X023030Y010566D03*
X023030Y010920D03*
X012430Y015216D03*
X012430Y015570D03*
X008430Y018966D03*
X008430Y019320D03*
X007430Y019320D03*
X007430Y018966D03*
X029430Y034966D03*
X029430Y035320D03*
D29*
X028930Y032393D03*
X027680Y029393D03*
X027680Y025393D03*
X030467Y015224D03*
X031255Y015224D03*
X032042Y015224D03*
X032830Y015224D03*
X033617Y015224D03*
X034404Y015224D03*
X035192Y015224D03*
X035979Y015224D03*
X036767Y015224D03*
X037554Y015224D03*
X037554Y006563D03*
X036767Y006563D03*
X035979Y006563D03*
X035192Y006563D03*
X034404Y006563D03*
X033617Y006563D03*
X032830Y006563D03*
X032042Y006563D03*
X031255Y006563D03*
X030467Y006563D03*
D30*
X028430Y006643D03*
X027430Y006643D03*
X027430Y007643D03*
X028430Y007643D03*
X028430Y008643D03*
X027430Y008643D03*
X027430Y009643D03*
X028430Y009643D03*
X028430Y010643D03*
X027430Y010643D03*
X027430Y011643D03*
X028430Y011643D03*
X030430Y011643D03*
X031430Y011643D03*
X031430Y010643D03*
X030430Y010643D03*
X032430Y010643D03*
X033430Y010643D03*
X034430Y010643D03*
X035430Y010643D03*
X036430Y010643D03*
X037430Y010643D03*
X038430Y010643D03*
X039430Y010643D03*
X039430Y011643D03*
X038430Y011643D03*
X037430Y011643D03*
X036430Y011643D03*
X035430Y011643D03*
X034430Y011643D03*
X033430Y011643D03*
X032430Y011643D03*
X020430Y011643D03*
X020430Y010643D03*
X020430Y009643D03*
X020430Y008643D03*
X019430Y008643D03*
X019430Y009643D03*
X019430Y010643D03*
X019430Y011643D03*
X019430Y007643D03*
X019430Y006643D03*
X020430Y006643D03*
X020430Y007643D03*
X026680Y024393D03*
X027680Y024393D03*
X026680Y025393D03*
X026680Y028393D03*
X027680Y028393D03*
X026680Y029393D03*
X029930Y032393D03*
X029930Y033393D03*
X028930Y033393D03*
D31*
X037733Y021149D03*
X037930Y021149D03*
X038127Y021149D03*
X038127Y020637D03*
X037930Y020637D03*
X037733Y020637D03*
D32*
X032930Y022043D03*
X032930Y022643D03*
X032930Y023243D03*
X031180Y023243D03*
X031180Y022643D03*
X031180Y022043D03*
X029430Y022043D03*
X029430Y022643D03*
X029430Y023243D03*
X027680Y023243D03*
X027680Y022643D03*
X027680Y022043D03*
D33*
X032930Y025643D03*
D34*
X024930Y013326D03*
X024556Y012460D03*
X025304Y012460D03*
X024930Y011326D03*
X024556Y010460D03*
X025304Y010460D03*
X024930Y009326D03*
X024556Y008460D03*
X025304Y008460D03*
X024930Y007576D03*
X024556Y006710D03*
X025304Y006710D03*
X022304Y006710D03*
X021556Y006710D03*
X021930Y007576D03*
X021556Y008460D03*
X022304Y008460D03*
X021930Y009326D03*
X021556Y010460D03*
X022304Y010460D03*
X021930Y011326D03*
M02*
