G75*
G70*
%OFA0B0*%
%FSLAX24Y24*%
%IPPOS*%
%LPD*%
%AMOC8*
5,1,8,0,0,1.08239X$1,22.5*
%
%ADD10C,0.1457*%
%ADD11C,0.0780*%
%ADD12R,0.0780X0.0780*%
%ADD13OC8,0.0780*%
%ADD14C,0.0600*%
%ADD15C,0.1700*%
%ADD16C,0.1542*%
%ADD17C,0.0745*%
%ADD18C,0.0640*%
%ADD19R,0.0749X0.0670*%
%ADD20R,0.0670X0.0749*%
%ADD21R,0.0619X0.0737*%
%ADD22R,0.0290X0.0540*%
%ADD23R,0.0540X0.0290*%
%ADD24R,0.0631X0.0552*%
%ADD25R,0.1221X0.0591*%
%ADD26C,0.0640*%
%ADD27R,0.1024X0.1182*%
%ADD28OC8,0.0640*%
%ADD29R,0.0300X0.0840*%
%ADD30R,0.0552X0.0631*%
%ADD31R,0.0394X0.0926*%
%ADD32R,0.0394X0.1142*%
%ADD33R,0.0512X0.0512*%
%ADD34R,0.0335X0.0158*%
%ADD35R,0.0158X0.0335*%
%ADD36R,0.1080X0.1080*%
%ADD37R,0.0940X0.1140*%
%ADD38R,0.1140X0.0940*%
D10*
X002172Y007403D03*
X018680Y023143D03*
X018680Y034143D03*
X002172Y036143D03*
X039180Y036143D03*
X038680Y017143D03*
X039180Y007403D03*
D11*
X037280Y017143D03*
X036280Y017143D03*
X035280Y017143D03*
X034280Y017143D03*
X033280Y017143D03*
X032280Y017143D03*
X031280Y017143D03*
X030280Y017143D03*
X029280Y017143D03*
X028280Y017143D03*
X026680Y017143D03*
X025680Y017143D03*
X024680Y017143D03*
X023680Y017143D03*
X022680Y017143D03*
X021680Y017143D03*
X020680Y017143D03*
X014930Y016393D03*
X013930Y016393D03*
X013930Y017393D03*
X013930Y018393D03*
X013930Y019393D03*
X013930Y020393D03*
X013930Y021393D03*
X013930Y022393D03*
X013930Y023393D03*
X013930Y024393D03*
X013930Y025393D03*
X013930Y026393D03*
X013930Y027393D03*
X013930Y028393D03*
X013930Y029393D03*
X013930Y030393D03*
X013930Y031393D03*
X013930Y032393D03*
X013930Y033393D03*
X010930Y033393D03*
X010930Y032393D03*
X010930Y031393D03*
X010930Y030393D03*
X010930Y029393D03*
X010930Y028393D03*
X010930Y027393D03*
X010930Y026393D03*
X010930Y025393D03*
X010930Y024393D03*
X010930Y023393D03*
X010930Y022393D03*
X010930Y021393D03*
X010930Y020393D03*
X010930Y019393D03*
X010930Y018393D03*
X010930Y017393D03*
X010930Y016393D03*
X010930Y015393D03*
X010930Y014393D03*
X010930Y013393D03*
X010930Y012393D03*
X010930Y011393D03*
X010930Y010393D03*
X013930Y010393D03*
X013930Y011393D03*
X013930Y012393D03*
X013930Y013393D03*
X013930Y014393D03*
X014930Y014393D03*
X014930Y015393D03*
X013930Y015393D03*
X009930Y020393D03*
X008930Y020393D03*
X007930Y020393D03*
X006930Y020393D03*
X005930Y020393D03*
X004930Y020393D03*
X004930Y019393D03*
X004930Y018393D03*
X004930Y017393D03*
X004930Y016393D03*
X004930Y015393D03*
X004930Y014393D03*
X004930Y013393D03*
X004930Y012393D03*
X004930Y011393D03*
X004930Y010393D03*
X001930Y010393D03*
X001930Y011393D03*
X001930Y012393D03*
X001930Y013393D03*
X001930Y014393D03*
X001930Y015393D03*
X001930Y016393D03*
X001930Y017393D03*
X001930Y018393D03*
X001930Y019393D03*
X001930Y020393D03*
X001930Y021393D03*
X001930Y022393D03*
X001930Y023393D03*
X001930Y024393D03*
X001930Y025393D03*
X001930Y026393D03*
X001930Y027393D03*
X001930Y028393D03*
X001930Y029393D03*
X001930Y030393D03*
X001930Y031393D03*
X001930Y032393D03*
X001930Y033393D03*
X004930Y033393D03*
X004930Y032393D03*
X004930Y031393D03*
X004930Y030393D03*
X004930Y029393D03*
X004930Y028393D03*
X004930Y027393D03*
X004930Y026393D03*
X004930Y025393D03*
X004930Y024393D03*
X004930Y023393D03*
X004930Y022393D03*
X004930Y021393D03*
X015180Y036143D03*
X016180Y036143D03*
X019680Y036143D03*
X020680Y036143D03*
X021680Y036143D03*
X022680Y036143D03*
X023680Y036143D03*
X024680Y036143D03*
X027680Y036143D03*
X028680Y036143D03*
X029680Y036143D03*
X030680Y036143D03*
X031680Y036143D03*
X032680Y036143D03*
X033680Y036143D03*
X036650Y021783D03*
X036650Y020003D03*
X039210Y020003D03*
X039210Y021783D03*
D12*
X026680Y036143D03*
X019680Y017143D03*
D13*
X019680Y025143D03*
X018680Y025143D03*
X018680Y026143D03*
X019680Y026143D03*
X019680Y027143D03*
X018680Y027143D03*
D14*
X035786Y034143D03*
X036574Y034143D03*
X036430Y025037D03*
X036430Y024250D03*
D15*
X036576Y030143D03*
D16*
X037698Y032033D03*
X039036Y030143D03*
D17*
X004930Y007746D02*
X004930Y007041D01*
X006930Y007041D02*
X006930Y007746D01*
X008930Y007746D02*
X008930Y007041D01*
X037578Y023659D02*
X038283Y023659D01*
X038283Y025628D02*
X037578Y025628D01*
D18*
X024180Y031843D02*
X024180Y032443D01*
X023180Y032443D02*
X023180Y031843D01*
X022180Y031843D02*
X022180Y032443D01*
X008430Y018193D02*
X008430Y017593D01*
X007430Y017593D02*
X007430Y018193D01*
D19*
X008930Y028342D03*
X008930Y029444D03*
X027680Y032342D03*
X027680Y033444D03*
D20*
X017981Y031643D03*
X016879Y031643D03*
D21*
X026430Y031948D03*
X026430Y033838D03*
X031180Y033838D03*
X031180Y031948D03*
D22*
X033253Y034143D03*
X033607Y034143D03*
X008107Y035893D03*
X007753Y035893D03*
D23*
X025180Y033820D03*
X025180Y033466D03*
D24*
X030930Y029228D03*
X031930Y029228D03*
X031930Y028559D03*
X030930Y028559D03*
X029930Y027478D03*
X029930Y026809D03*
X029930Y025728D03*
X029930Y025059D03*
X033430Y028559D03*
X033430Y029228D03*
X034430Y029228D03*
X034430Y028559D03*
X035430Y027478D03*
X035430Y026809D03*
X035430Y025728D03*
X035430Y025059D03*
X031930Y030309D03*
X031930Y030978D03*
X016930Y015728D03*
X016930Y015059D03*
X006180Y014809D03*
X006180Y015478D03*
D25*
X015985Y029393D03*
X017875Y029393D03*
D26*
X027680Y029393D03*
X028930Y032393D03*
X027680Y025393D03*
X030467Y015224D03*
X031255Y015224D03*
X032042Y015224D03*
X032830Y015224D03*
X033617Y015224D03*
X034404Y015224D03*
X035192Y015224D03*
X035979Y015224D03*
X036767Y015224D03*
X037554Y015224D03*
X037554Y006563D03*
X036767Y006563D03*
X035979Y006563D03*
X035192Y006563D03*
X034404Y006563D03*
X033617Y006563D03*
X032830Y006563D03*
X032042Y006563D03*
X031255Y006563D03*
X030467Y006563D03*
D27*
X006930Y030614D03*
X006930Y033173D03*
D28*
X026680Y029393D03*
X026680Y028393D03*
X027680Y028393D03*
X026680Y025393D03*
X026680Y024393D03*
X027680Y024393D03*
X029930Y032393D03*
X029930Y033393D03*
X028930Y033393D03*
X028430Y011643D03*
X028430Y010643D03*
X028430Y009643D03*
X028430Y008643D03*
X027430Y008643D03*
X027430Y009643D03*
X027430Y010643D03*
X027430Y011643D03*
X030430Y011643D03*
X031430Y011643D03*
X031430Y010643D03*
X030430Y010643D03*
X032430Y010643D03*
X033430Y010643D03*
X034430Y010643D03*
X035430Y010643D03*
X036430Y010643D03*
X037430Y010643D03*
X038430Y010643D03*
X039430Y010643D03*
X039430Y011643D03*
X038430Y011643D03*
X037430Y011643D03*
X036430Y011643D03*
X035430Y011643D03*
X034430Y011643D03*
X033430Y011643D03*
X032430Y011643D03*
X028430Y007643D03*
X028430Y006643D03*
X027430Y006643D03*
X027430Y007643D03*
X020430Y007643D03*
X020430Y006643D03*
X019430Y006643D03*
X019430Y007643D03*
X019430Y008643D03*
X020430Y008643D03*
X020430Y009643D03*
X019430Y009643D03*
X019430Y010643D03*
X020430Y010643D03*
X020430Y011643D03*
X019430Y011643D03*
D29*
X008680Y014183D03*
X008180Y014183D03*
X007680Y014183D03*
X007180Y014183D03*
X007180Y016603D03*
X007680Y016603D03*
X008180Y016603D03*
X008680Y016603D03*
D30*
X008015Y012643D03*
X007345Y012643D03*
X007265Y011643D03*
X006595Y011643D03*
X008345Y011643D03*
X009015Y011643D03*
X016845Y017893D03*
X017515Y017893D03*
D31*
X017928Y019092D03*
X016924Y019092D03*
X016432Y019092D03*
X016432Y021194D03*
X016924Y021194D03*
X017436Y021194D03*
X017928Y021194D03*
D32*
X017436Y019200D03*
D33*
X017930Y012307D03*
X017930Y011480D03*
X016930Y011480D03*
X016930Y012307D03*
X015930Y012307D03*
X015930Y011480D03*
X015930Y009807D03*
X015930Y008980D03*
X016930Y008980D03*
X016930Y009807D03*
X017930Y009807D03*
X017930Y008980D03*
X017880Y007507D03*
X017880Y006680D03*
X016880Y006680D03*
X016880Y007507D03*
X015630Y007507D03*
X015630Y006680D03*
X014630Y006680D03*
X014630Y007507D03*
X013380Y007507D03*
X013380Y006680D03*
X012380Y006680D03*
X012380Y007507D03*
X011130Y007507D03*
X011130Y006680D03*
D34*
X032143Y025250D03*
X032143Y025446D03*
X032143Y025643D03*
X032143Y025840D03*
X032143Y026037D03*
X033717Y026037D03*
X033717Y025840D03*
X033717Y025643D03*
X033717Y025446D03*
X033717Y025250D03*
D35*
X033324Y024856D03*
X033127Y024856D03*
X032930Y024856D03*
X032733Y024856D03*
X032536Y024856D03*
X032536Y026431D03*
X032733Y026431D03*
X032930Y026431D03*
X033127Y026431D03*
X033324Y026431D03*
D36*
X032930Y025643D03*
D37*
X032574Y032693D03*
X034186Y032693D03*
D38*
X009130Y033249D03*
X009130Y031638D03*
M02*
