G75*
G70*
%OFA0B0*%
%FSLAX24Y24*%
%IPPOS*%
%LPD*%
%AMOC8*
5,1,8,0,0,1.08239X$1,22.5*
%
%ADD10C,0.0000*%
%ADD11R,0.0740X0.0740*%
%ADD12C,0.0740*%
%ADD13C,0.0100*%
%ADD14OC8,0.0413*%
D10*
X000150Y002913D02*
X025020Y002913D01*
X025020Y010909D01*
X000150Y010909D01*
X000150Y002913D01*
D11*
X020150Y003913D03*
X024150Y003913D03*
X024150Y009913D03*
X020150Y009913D03*
D12*
X019150Y009913D03*
X018150Y009913D03*
X017150Y009913D03*
X016150Y009913D03*
X015150Y009913D03*
X014150Y009913D03*
X013150Y009913D03*
X012150Y009913D03*
X011150Y009913D03*
X010150Y009913D03*
X009150Y009913D03*
X008150Y009913D03*
X007150Y009913D03*
X006150Y009913D03*
X005150Y009913D03*
X004150Y009913D03*
X003150Y009913D03*
X002150Y009913D03*
X001150Y009913D03*
X002150Y008913D03*
X004150Y008913D03*
X005150Y008913D03*
X006150Y008913D03*
X007150Y007913D03*
X008150Y007913D03*
X009150Y007913D03*
X010150Y007913D03*
X011150Y007913D03*
X012150Y007913D03*
X013150Y007913D03*
X014150Y007913D03*
X014150Y008913D03*
X014150Y006913D03*
X013150Y006913D03*
X012150Y006913D03*
X011150Y006913D03*
X010150Y006913D03*
X009150Y006913D03*
X008150Y006913D03*
X007150Y006913D03*
X007150Y003913D03*
X006150Y003913D03*
X005150Y003913D03*
X004150Y003913D03*
X003150Y003913D03*
X002150Y003913D03*
X001150Y003913D03*
X008150Y003913D03*
X009150Y003913D03*
X010150Y003913D03*
X011150Y003913D03*
X012150Y003913D03*
X013150Y003913D03*
X014150Y003913D03*
X015150Y003913D03*
X016150Y003913D03*
X017150Y003913D03*
X018150Y003913D03*
X019150Y003913D03*
X021150Y003913D03*
X022150Y003913D03*
X023150Y003913D03*
X014150Y004913D03*
X014150Y005913D03*
X021150Y009913D03*
X022150Y009913D03*
X023150Y009913D03*
D13*
X022650Y009604D02*
X022658Y009584D01*
X022821Y009421D01*
X023035Y009333D01*
X023265Y009333D01*
X023479Y009421D01*
X023570Y009513D01*
X023570Y009456D01*
X023693Y009333D01*
X024607Y009333D01*
X024730Y009456D01*
X024730Y010370D01*
X024607Y010493D01*
X023693Y010493D01*
X023570Y010370D01*
X023570Y010313D01*
X023479Y010405D01*
X023265Y010493D01*
X023035Y010493D01*
X022821Y010405D01*
X022658Y010242D01*
X022650Y010221D01*
X022642Y010242D01*
X022479Y010405D01*
X022265Y010493D01*
X022035Y010493D01*
X021821Y010405D01*
X021658Y010242D01*
X021650Y010221D01*
X021642Y010242D01*
X021479Y010405D01*
X021265Y010493D01*
X021035Y010493D01*
X020821Y010405D01*
X020730Y010313D01*
X020730Y010370D01*
X020607Y010493D01*
X019693Y010493D01*
X019570Y010370D01*
X019570Y010313D01*
X019479Y010405D01*
X019265Y010493D01*
X019035Y010493D01*
X018966Y010465D01*
X018732Y010699D01*
X024810Y010699D01*
X024810Y003123D01*
X022728Y003123D01*
X022966Y003361D01*
X023035Y003333D01*
X023265Y003333D01*
X023479Y003421D01*
X023570Y003513D01*
X023570Y003456D01*
X023693Y003333D01*
X024607Y003333D01*
X024730Y003456D01*
X024730Y004370D01*
X024607Y004493D01*
X023693Y004493D01*
X023570Y004370D01*
X023570Y004313D01*
X023479Y004405D01*
X023265Y004493D01*
X023035Y004493D01*
X022821Y004405D01*
X022658Y004242D01*
X022650Y004221D01*
X022642Y004242D01*
X022479Y004405D01*
X022265Y004493D01*
X022035Y004493D01*
X021821Y004405D01*
X021658Y004242D01*
X021650Y004221D01*
X021642Y004242D01*
X021479Y004405D01*
X021265Y004493D01*
X021035Y004493D01*
X020821Y004405D01*
X020730Y004313D01*
X020730Y004370D01*
X020607Y004493D01*
X020410Y004493D01*
X020410Y006965D01*
X020370Y007060D01*
X020297Y007133D01*
X019797Y007633D01*
X019702Y007673D01*
X014678Y007673D01*
X014730Y007798D01*
X014730Y008028D01*
X014642Y008242D01*
X014479Y008405D01*
X014459Y008413D01*
X014479Y008421D01*
X014642Y008584D01*
X014730Y008798D01*
X014730Y009028D01*
X014678Y009153D01*
X014702Y009153D01*
X014797Y009193D01*
X014966Y009361D01*
X015035Y009333D01*
X015265Y009333D01*
X015479Y009421D01*
X015642Y009584D01*
X015683Y009684D01*
X015705Y009640D01*
X015753Y009574D01*
X015811Y009516D01*
X015877Y009468D01*
X015950Y009431D01*
X016028Y009406D01*
X016100Y009394D01*
X016100Y009863D01*
X016200Y009863D01*
X016200Y009394D01*
X016272Y009406D01*
X016350Y009431D01*
X016423Y009468D01*
X016489Y009516D01*
X016547Y009574D01*
X016595Y009640D01*
X016617Y009684D01*
X016658Y009584D01*
X016821Y009421D01*
X017035Y009333D01*
X017265Y009333D01*
X017479Y009421D01*
X017642Y009584D01*
X017650Y009604D01*
X017658Y009584D01*
X017821Y009421D01*
X017890Y009393D01*
X017890Y009242D01*
X017733Y009086D01*
X017733Y008740D01*
X017977Y008496D01*
X018323Y008496D01*
X018567Y008740D01*
X018567Y009086D01*
X018410Y009242D01*
X018410Y009393D01*
X018479Y009421D01*
X018642Y009584D01*
X018650Y009604D01*
X018658Y009584D01*
X018821Y009421D01*
X019035Y009333D01*
X019265Y009333D01*
X019479Y009421D01*
X019570Y009513D01*
X019570Y009456D01*
X019693Y009333D01*
X019890Y009333D01*
X019890Y008242D01*
X019733Y008086D01*
X019733Y007740D01*
X019977Y007496D01*
X020323Y007496D01*
X020567Y007740D01*
X020567Y008086D01*
X020410Y008242D01*
X020410Y009333D01*
X020607Y009333D01*
X020730Y009456D01*
X020730Y009513D01*
X020821Y009421D01*
X021035Y009333D01*
X021265Y009333D01*
X021479Y009421D01*
X021642Y009584D01*
X021650Y009604D01*
X021658Y009584D01*
X021821Y009421D01*
X022035Y009333D01*
X022265Y009333D01*
X022479Y009421D01*
X022642Y009584D01*
X022650Y009604D01*
X022570Y009513D02*
X022730Y009513D01*
X022839Y009414D02*
X022461Y009414D01*
X021839Y009414D02*
X021461Y009414D01*
X021570Y009513D02*
X021730Y009513D01*
X020839Y009414D02*
X020688Y009414D01*
X020730Y009513D02*
X020730Y009513D01*
X020410Y009316D02*
X024810Y009316D01*
X024810Y009414D02*
X024688Y009414D01*
X024730Y009513D02*
X024810Y009513D01*
X024810Y009611D02*
X024730Y009611D01*
X024730Y009710D02*
X024810Y009710D01*
X024810Y009808D02*
X024730Y009808D01*
X024730Y009907D02*
X024810Y009907D01*
X024810Y010005D02*
X024730Y010005D01*
X024730Y010104D02*
X024810Y010104D01*
X024810Y010202D02*
X024730Y010202D01*
X024730Y010301D02*
X024810Y010301D01*
X024810Y010399D02*
X024701Y010399D01*
X024810Y010498D02*
X018933Y010498D01*
X018835Y010596D02*
X024810Y010596D01*
X024810Y010695D02*
X018736Y010695D01*
X018400Y010663D02*
X019150Y009913D01*
X019570Y009513D02*
X019570Y009513D01*
X019612Y009414D02*
X019461Y009414D01*
X019890Y009316D02*
X018410Y009316D01*
X018435Y009217D02*
X019890Y009217D01*
X019890Y009119D02*
X018534Y009119D01*
X018567Y009020D02*
X019890Y009020D01*
X019890Y008922D02*
X018567Y008922D01*
X018567Y008823D02*
X019890Y008823D01*
X019890Y008725D02*
X018551Y008725D01*
X018452Y008626D02*
X019890Y008626D01*
X019890Y008528D02*
X018354Y008528D01*
X017946Y008528D02*
X014585Y008528D01*
X014659Y008626D02*
X017848Y008626D01*
X017749Y008725D02*
X014700Y008725D01*
X014730Y008823D02*
X017733Y008823D01*
X017733Y008922D02*
X014730Y008922D01*
X014730Y009020D02*
X017733Y009020D01*
X017766Y009119D02*
X014693Y009119D01*
X014822Y009217D02*
X017865Y009217D01*
X017890Y009316D02*
X014920Y009316D01*
X014650Y009413D02*
X015150Y009913D01*
X015653Y009611D02*
X015727Y009611D01*
X015817Y009513D02*
X015570Y009513D01*
X015461Y009414D02*
X016003Y009414D01*
X016100Y009414D02*
X016200Y009414D01*
X016297Y009414D02*
X016839Y009414D01*
X016730Y009513D02*
X016483Y009513D01*
X016573Y009611D02*
X016647Y009611D01*
X016200Y009611D02*
X016100Y009611D01*
X016100Y009513D02*
X016200Y009513D01*
X016200Y009710D02*
X016100Y009710D01*
X016100Y009808D02*
X016200Y009808D01*
X016650Y010413D02*
X017150Y009913D01*
X017570Y009513D02*
X017730Y009513D01*
X017839Y009414D02*
X017461Y009414D01*
X018150Y009913D02*
X018150Y008913D01*
X018461Y009414D02*
X018839Y009414D01*
X018730Y009513D02*
X018570Y009513D01*
X020150Y009913D02*
X020150Y007913D01*
X020567Y007937D02*
X024810Y007937D01*
X024810Y008035D02*
X020567Y008035D01*
X020519Y008134D02*
X024810Y008134D01*
X024810Y008232D02*
X020420Y008232D01*
X020410Y008331D02*
X024810Y008331D01*
X024810Y008429D02*
X020410Y008429D01*
X020410Y008528D02*
X024810Y008528D01*
X024810Y008626D02*
X020410Y008626D01*
X020410Y008725D02*
X024810Y008725D01*
X024810Y008823D02*
X020410Y008823D01*
X020410Y008922D02*
X024810Y008922D01*
X024810Y009020D02*
X020410Y009020D01*
X020410Y009119D02*
X024810Y009119D01*
X024810Y009217D02*
X020410Y009217D01*
X019890Y008429D02*
X014486Y008429D01*
X014553Y008331D02*
X019890Y008331D01*
X019880Y008232D02*
X014646Y008232D01*
X014686Y008134D02*
X019781Y008134D01*
X019733Y008035D02*
X014727Y008035D01*
X014730Y007937D02*
X019733Y007937D01*
X019733Y007838D02*
X014730Y007838D01*
X014706Y007740D02*
X019734Y007740D01*
X019779Y007641D02*
X019833Y007641D01*
X019888Y007543D02*
X019931Y007543D01*
X019987Y007444D02*
X024810Y007444D01*
X024810Y007346D02*
X020085Y007346D01*
X020184Y007247D02*
X024810Y007247D01*
X024810Y007149D02*
X020282Y007149D01*
X020297Y007133D02*
X020297Y007133D01*
X020375Y007050D02*
X024810Y007050D01*
X024810Y006952D02*
X020410Y006952D01*
X020410Y006853D02*
X024810Y006853D01*
X024810Y006755D02*
X020410Y006755D01*
X020410Y006656D02*
X024810Y006656D01*
X024810Y006558D02*
X020410Y006558D01*
X020410Y006459D02*
X024810Y006459D01*
X024810Y006361D02*
X020410Y006361D01*
X020410Y006262D02*
X024810Y006262D01*
X024810Y006164D02*
X020410Y006164D01*
X020410Y006065D02*
X024810Y006065D01*
X024810Y005966D02*
X020410Y005966D01*
X020410Y005868D02*
X024810Y005868D01*
X024810Y005769D02*
X020410Y005769D01*
X020410Y005671D02*
X024810Y005671D01*
X024810Y005572D02*
X020410Y005572D01*
X020410Y005474D02*
X024810Y005474D01*
X024810Y005375D02*
X020410Y005375D01*
X020410Y005277D02*
X024810Y005277D01*
X024810Y005178D02*
X020410Y005178D01*
X020410Y005080D02*
X024810Y005080D01*
X024810Y004981D02*
X020410Y004981D01*
X020410Y004883D02*
X024810Y004883D01*
X024810Y004784D02*
X020410Y004784D01*
X020410Y004686D02*
X024810Y004686D01*
X024810Y004587D02*
X020410Y004587D01*
X020611Y004489D02*
X021025Y004489D01*
X020807Y004390D02*
X020709Y004390D01*
X021275Y004489D02*
X022025Y004489D01*
X021807Y004390D02*
X021493Y004390D01*
X021591Y004292D02*
X021709Y004292D01*
X022275Y004489D02*
X023025Y004489D01*
X022807Y004390D02*
X022493Y004390D01*
X022591Y004292D02*
X022709Y004292D01*
X023275Y004489D02*
X023689Y004489D01*
X023591Y004390D02*
X023493Y004390D01*
X023150Y003913D02*
X022400Y003163D01*
X010150Y003163D01*
X009650Y003663D01*
X009650Y007413D01*
X010150Y007913D01*
X010650Y008221D02*
X010642Y008242D01*
X010479Y008405D01*
X010265Y008493D01*
X010035Y008493D01*
X009821Y008405D01*
X009658Y008242D01*
X009650Y008221D01*
X009642Y008242D01*
X009479Y008405D01*
X009265Y008493D01*
X009035Y008493D01*
X008821Y008405D01*
X008658Y008242D01*
X008650Y008221D01*
X008642Y008242D01*
X008479Y008405D01*
X008265Y008493D01*
X008035Y008493D01*
X007821Y008405D01*
X007658Y008242D01*
X007650Y008221D01*
X007642Y008242D01*
X007479Y008405D01*
X007265Y008493D01*
X007035Y008493D01*
X006821Y008405D01*
X006658Y008242D01*
X006570Y008028D01*
X006570Y007798D01*
X006658Y007584D01*
X006821Y007421D01*
X006841Y007413D01*
X006821Y007405D01*
X006658Y007242D01*
X006570Y007028D01*
X006570Y006798D01*
X006658Y006584D01*
X006821Y006421D01*
X007035Y006333D01*
X007265Y006333D01*
X007479Y006421D01*
X007642Y006584D01*
X007683Y006684D01*
X007705Y006640D01*
X007753Y006574D01*
X007811Y006516D01*
X007877Y006468D01*
X007950Y006431D01*
X008028Y006406D01*
X008100Y006394D01*
X008100Y006863D01*
X008200Y006863D01*
X008200Y006394D01*
X008272Y006406D01*
X008350Y006431D01*
X008423Y006468D01*
X008489Y006516D01*
X008547Y006574D01*
X008595Y006640D01*
X008617Y006684D01*
X008658Y006584D01*
X008821Y006421D01*
X009035Y006333D01*
X009265Y006333D01*
X009390Y006385D01*
X009390Y004441D01*
X009265Y004493D01*
X009035Y004493D01*
X008821Y004405D01*
X008658Y004242D01*
X008650Y004221D01*
X008642Y004242D01*
X008479Y004405D01*
X008265Y004493D01*
X008035Y004493D01*
X007821Y004405D01*
X007658Y004242D01*
X007650Y004221D01*
X007642Y004242D01*
X007479Y004405D01*
X007265Y004493D01*
X007035Y004493D01*
X006821Y004405D01*
X006658Y004242D01*
X006650Y004221D01*
X006642Y004242D01*
X006479Y004405D01*
X006265Y004493D01*
X006035Y004493D01*
X005821Y004405D01*
X005658Y004242D01*
X005650Y004221D01*
X005642Y004242D01*
X005479Y004405D01*
X005265Y004493D01*
X005035Y004493D01*
X004821Y004405D01*
X004658Y004242D01*
X004650Y004221D01*
X004642Y004242D01*
X004479Y004405D01*
X004265Y004493D01*
X004035Y004493D01*
X003821Y004405D01*
X003658Y004242D01*
X003650Y004221D01*
X003642Y004242D01*
X003479Y004405D01*
X003265Y004493D01*
X003035Y004493D01*
X002821Y004405D01*
X002658Y004242D01*
X002650Y004221D01*
X002642Y004242D01*
X002479Y004405D01*
X002265Y004493D01*
X002035Y004493D01*
X001821Y004405D01*
X001658Y004242D01*
X001617Y004142D01*
X001595Y004186D01*
X001547Y004252D01*
X001489Y004310D01*
X001423Y004358D01*
X001350Y004395D01*
X001272Y004420D01*
X001200Y004432D01*
X001200Y003963D01*
X001100Y003963D01*
X001100Y004432D01*
X001028Y004420D01*
X000950Y004395D01*
X000877Y004358D01*
X000811Y004310D01*
X000753Y004252D01*
X000705Y004186D01*
X000668Y004113D01*
X000643Y004035D01*
X000631Y003963D01*
X001100Y003963D01*
X001100Y003863D01*
X000631Y003863D01*
X000643Y003791D01*
X000668Y003713D01*
X000705Y003640D01*
X000753Y003574D01*
X000811Y003516D01*
X000877Y003468D01*
X000950Y003431D01*
X001028Y003406D01*
X001100Y003394D01*
X001100Y003863D01*
X001200Y003863D01*
X001200Y003394D01*
X001272Y003406D01*
X001350Y003431D01*
X001423Y003468D01*
X001489Y003516D01*
X001547Y003574D01*
X001595Y003640D01*
X001617Y003684D01*
X001658Y003584D01*
X001821Y003421D01*
X002035Y003333D01*
X002265Y003333D01*
X002479Y003421D01*
X002642Y003584D01*
X002650Y003604D01*
X002658Y003584D01*
X002821Y003421D01*
X003035Y003333D01*
X003265Y003333D01*
X003479Y003421D01*
X003642Y003584D01*
X003650Y003604D01*
X003658Y003584D01*
X003821Y003421D01*
X004035Y003333D01*
X004265Y003333D01*
X004479Y003421D01*
X004642Y003584D01*
X004650Y003604D01*
X004658Y003584D01*
X004821Y003421D01*
X005035Y003333D01*
X005265Y003333D01*
X005479Y003421D01*
X005642Y003584D01*
X005650Y003604D01*
X005658Y003584D01*
X005821Y003421D01*
X006035Y003333D01*
X006265Y003333D01*
X006479Y003421D01*
X006642Y003584D01*
X006650Y003604D01*
X006658Y003584D01*
X006821Y003421D01*
X007035Y003333D01*
X007265Y003333D01*
X007479Y003421D01*
X007642Y003584D01*
X007650Y003604D01*
X007658Y003584D01*
X007821Y003421D01*
X008035Y003333D01*
X008265Y003333D01*
X008479Y003421D01*
X008642Y003584D01*
X008650Y003604D01*
X008658Y003584D01*
X008821Y003421D01*
X009035Y003333D01*
X009265Y003333D01*
X009479Y003421D01*
X009501Y003444D01*
X009503Y003443D01*
X009822Y003123D01*
X000360Y003123D01*
X000360Y010699D01*
X001818Y010699D01*
X001501Y010382D01*
X001479Y010405D01*
X001265Y010493D01*
X001035Y010493D01*
X000821Y010405D01*
X000658Y010242D01*
X000570Y010028D01*
X000570Y009798D01*
X000658Y009584D01*
X000821Y009421D01*
X001035Y009333D01*
X001233Y009333D01*
X001233Y009240D01*
X001477Y008996D01*
X001570Y008996D01*
X001570Y008798D01*
X001622Y008673D01*
X001317Y008673D01*
X001317Y008836D01*
X001073Y009080D01*
X000727Y009080D01*
X000483Y008836D01*
X000483Y008490D01*
X000727Y008246D01*
X000949Y008246D01*
X001003Y008193D01*
X001098Y008153D01*
X005702Y008153D01*
X005797Y008193D01*
X005870Y008266D01*
X005966Y008361D01*
X006035Y008333D01*
X006265Y008333D01*
X006479Y008421D01*
X006642Y008584D01*
X006730Y008798D01*
X006730Y009028D01*
X006642Y009242D01*
X006479Y009405D01*
X006459Y009413D01*
X006479Y009421D01*
X006642Y009584D01*
X006650Y009604D01*
X006658Y009584D01*
X006821Y009421D01*
X007035Y009333D01*
X007265Y009333D01*
X007479Y009421D01*
X007642Y009584D01*
X007650Y009604D01*
X007658Y009584D01*
X007821Y009421D01*
X008035Y009333D01*
X008265Y009333D01*
X008479Y009421D01*
X008642Y009584D01*
X008650Y009604D01*
X008658Y009584D01*
X008821Y009421D01*
X009035Y009333D01*
X009265Y009333D01*
X009479Y009421D01*
X009642Y009584D01*
X009650Y009604D01*
X009658Y009584D01*
X009821Y009421D01*
X010035Y009333D01*
X010265Y009333D01*
X010479Y009421D01*
X010642Y009584D01*
X010650Y009604D01*
X010658Y009584D01*
X010821Y009421D01*
X011035Y009333D01*
X011265Y009333D01*
X011479Y009421D01*
X011642Y009584D01*
X011650Y009604D01*
X011658Y009584D01*
X011806Y009437D01*
X011430Y009060D01*
X011390Y008965D01*
X011390Y008441D01*
X011265Y008493D01*
X011035Y008493D01*
X010821Y008405D01*
X010658Y008242D01*
X010650Y008221D01*
X010646Y008232D02*
X010654Y008232D01*
X010747Y008331D02*
X010553Y008331D01*
X010420Y008429D02*
X010880Y008429D01*
X011390Y008528D02*
X006585Y008528D01*
X006659Y008626D02*
X011390Y008626D01*
X011390Y008725D02*
X006700Y008725D01*
X006730Y008823D02*
X011390Y008823D01*
X011390Y008922D02*
X006730Y008922D01*
X006730Y009020D02*
X011413Y009020D01*
X011488Y009119D02*
X006693Y009119D01*
X006652Y009217D02*
X011586Y009217D01*
X011685Y009316D02*
X006568Y009316D01*
X006461Y009414D02*
X006839Y009414D01*
X006730Y009513D02*
X006570Y009513D01*
X007461Y009414D02*
X007839Y009414D01*
X007730Y009513D02*
X007570Y009513D01*
X008461Y009414D02*
X008839Y009414D01*
X008730Y009513D02*
X008570Y009513D01*
X009461Y009414D02*
X009839Y009414D01*
X009730Y009513D02*
X009570Y009513D01*
X010461Y009414D02*
X010839Y009414D01*
X010730Y009513D02*
X010570Y009513D01*
X011461Y009414D02*
X011783Y009414D01*
X011730Y009513D02*
X011570Y009513D01*
X012150Y009413D02*
X014650Y009413D01*
X013622Y009153D02*
X013570Y009028D01*
X013570Y008798D01*
X013658Y008584D01*
X013821Y008421D01*
X013841Y008413D01*
X013821Y008405D01*
X013658Y008242D01*
X013650Y008221D01*
X013642Y008242D01*
X013479Y008405D01*
X013265Y008493D01*
X013035Y008493D01*
X012821Y008405D01*
X012658Y008242D01*
X012650Y008221D01*
X012642Y008242D01*
X012479Y008405D01*
X012265Y008493D01*
X012035Y008493D01*
X011910Y008441D01*
X011910Y008805D01*
X012258Y009153D01*
X013622Y009153D01*
X013607Y009119D02*
X012223Y009119D01*
X012125Y009020D02*
X013570Y009020D01*
X013570Y008922D02*
X012026Y008922D01*
X011928Y008823D02*
X013570Y008823D01*
X013600Y008725D02*
X011910Y008725D01*
X011910Y008626D02*
X013641Y008626D01*
X013715Y008528D02*
X011910Y008528D01*
X012420Y008429D02*
X012880Y008429D01*
X012747Y008331D02*
X012553Y008331D01*
X012646Y008232D02*
X012654Y008232D01*
X013150Y007913D02*
X013650Y007413D01*
X019650Y007413D01*
X020150Y006913D01*
X020150Y003913D01*
X019570Y004313D02*
X019479Y004405D01*
X019265Y004493D01*
X019035Y004493D01*
X018821Y004405D01*
X018658Y004242D01*
X018650Y004221D01*
X018642Y004242D01*
X018479Y004405D01*
X018410Y004433D01*
X018410Y004965D01*
X018370Y005060D01*
X018297Y005133D01*
X017797Y005633D01*
X017702Y005673D01*
X014678Y005673D01*
X014730Y005798D01*
X014730Y006028D01*
X014642Y006242D01*
X014479Y006405D01*
X014379Y006446D01*
X014423Y006468D01*
X014489Y006516D01*
X014547Y006574D01*
X014595Y006640D01*
X014632Y006713D01*
X014657Y006791D01*
X014669Y006863D01*
X014200Y006863D01*
X014200Y006963D01*
X014669Y006963D01*
X014657Y007035D01*
X014632Y007113D01*
X014611Y007153D01*
X019542Y007153D01*
X019890Y006805D01*
X019890Y004493D01*
X019693Y004493D01*
X019570Y004370D01*
X019570Y004313D01*
X019591Y004390D02*
X019493Y004390D01*
X019689Y004489D02*
X019275Y004489D01*
X019025Y004489D02*
X018410Y004489D01*
X018410Y004587D02*
X019890Y004587D01*
X019890Y004686D02*
X018410Y004686D01*
X018410Y004784D02*
X019890Y004784D01*
X019890Y004883D02*
X018410Y004883D01*
X018403Y004981D02*
X019890Y004981D01*
X019890Y005080D02*
X018351Y005080D01*
X018252Y005178D02*
X019890Y005178D01*
X019890Y005277D02*
X018154Y005277D01*
X018055Y005375D02*
X019890Y005375D01*
X019890Y005474D02*
X017957Y005474D01*
X017858Y005572D02*
X019890Y005572D01*
X019890Y005671D02*
X017707Y005671D01*
X017650Y005413D02*
X018150Y004913D01*
X018150Y003913D01*
X018591Y004292D02*
X018709Y004292D01*
X018807Y004390D02*
X018493Y004390D01*
X017890Y004433D02*
X017821Y004405D01*
X017658Y004242D01*
X017650Y004221D01*
X017642Y004242D01*
X017479Y004405D01*
X017265Y004493D01*
X017035Y004493D01*
X016966Y004465D01*
X016797Y004633D01*
X016702Y004673D01*
X014678Y004673D01*
X014730Y004798D01*
X014730Y005028D01*
X014678Y005153D01*
X017542Y005153D01*
X017890Y004805D01*
X017890Y004433D01*
X017890Y004489D02*
X017275Y004489D01*
X017493Y004390D02*
X017807Y004390D01*
X017709Y004292D02*
X017591Y004292D01*
X017890Y004587D02*
X016843Y004587D01*
X016942Y004489D02*
X017025Y004489D01*
X016650Y004413D02*
X017150Y003913D01*
X016650Y004413D02*
X011650Y004413D01*
X011150Y004913D01*
X011150Y006913D01*
X012150Y006913D02*
X012150Y005913D01*
X012650Y005413D01*
X017650Y005413D01*
X017615Y005080D02*
X014709Y005080D01*
X014730Y004981D02*
X017714Y004981D01*
X017812Y004883D02*
X014730Y004883D01*
X014725Y004784D02*
X017890Y004784D01*
X017890Y004686D02*
X014684Y004686D01*
X014150Y004913D02*
X012150Y004913D01*
X011650Y005413D01*
X011650Y008913D01*
X012150Y009413D01*
X012650Y008913D02*
X012650Y007663D01*
X012900Y007413D01*
X013400Y007413D01*
X013900Y006913D01*
X014150Y006913D01*
X014200Y006952D02*
X019744Y006952D01*
X019645Y007050D02*
X014652Y007050D01*
X014614Y007149D02*
X019547Y007149D01*
X019842Y006853D02*
X014667Y006853D01*
X014645Y006755D02*
X019890Y006755D01*
X019890Y006656D02*
X014603Y006656D01*
X014530Y006558D02*
X019890Y006558D01*
X019890Y006459D02*
X014404Y006459D01*
X014523Y006361D02*
X019890Y006361D01*
X019890Y006262D02*
X014621Y006262D01*
X014674Y006164D02*
X019890Y006164D01*
X019890Y006065D02*
X014715Y006065D01*
X014730Y005966D02*
X019890Y005966D01*
X019890Y005868D02*
X014730Y005868D01*
X014718Y005769D02*
X019890Y005769D01*
X020369Y007543D02*
X024810Y007543D01*
X024810Y007641D02*
X020467Y007641D01*
X020566Y007740D02*
X024810Y007740D01*
X024810Y007838D02*
X020567Y007838D01*
X023461Y009414D02*
X023612Y009414D01*
X023570Y009513D02*
X023570Y009513D01*
X022717Y010301D02*
X022583Y010301D01*
X022484Y010399D02*
X022816Y010399D01*
X023484Y010399D02*
X023599Y010399D01*
X021816Y010399D02*
X021484Y010399D01*
X021583Y010301D02*
X021717Y010301D01*
X020816Y010399D02*
X020701Y010399D01*
X019599Y010399D02*
X019484Y010399D01*
X018400Y010663D02*
X002150Y010663D01*
X001650Y010163D01*
X001650Y009413D01*
X001233Y009316D02*
X000360Y009316D01*
X000360Y009414D02*
X000839Y009414D01*
X000730Y009513D02*
X000360Y009513D01*
X000360Y009611D02*
X000647Y009611D01*
X000606Y009710D02*
X000360Y009710D01*
X000360Y009808D02*
X000570Y009808D01*
X000570Y009907D02*
X000360Y009907D01*
X000360Y010005D02*
X000570Y010005D01*
X000601Y010104D02*
X000360Y010104D01*
X000360Y010202D02*
X000642Y010202D01*
X000717Y010301D02*
X000360Y010301D01*
X000360Y010399D02*
X000816Y010399D01*
X000360Y010498D02*
X001617Y010498D01*
X001715Y010596D02*
X000360Y010596D01*
X000360Y010695D02*
X001814Y010695D01*
X001518Y010399D02*
X001484Y010399D01*
X002650Y010163D02*
X002650Y009413D01*
X002150Y008913D01*
X001570Y008922D02*
X001231Y008922D01*
X001317Y008823D02*
X001570Y008823D01*
X001600Y008725D02*
X001317Y008725D01*
X001150Y008413D02*
X000900Y008663D01*
X001150Y008413D02*
X005650Y008413D01*
X006150Y008913D01*
X006486Y008429D02*
X006880Y008429D01*
X006747Y008331D02*
X005935Y008331D01*
X005837Y008232D02*
X006654Y008232D01*
X006614Y008134D02*
X000360Y008134D01*
X000360Y008232D02*
X000963Y008232D01*
X000643Y008331D02*
X000360Y008331D01*
X000360Y008429D02*
X000545Y008429D01*
X000483Y008528D02*
X000360Y008528D01*
X000360Y008626D02*
X000483Y008626D01*
X000483Y008725D02*
X000360Y008725D01*
X000360Y008823D02*
X000483Y008823D01*
X000569Y008922D02*
X000360Y008922D01*
X000360Y009020D02*
X000668Y009020D01*
X000360Y009119D02*
X001355Y009119D01*
X001257Y009217D02*
X000360Y009217D01*
X001132Y009020D02*
X001454Y009020D01*
X000360Y008035D02*
X006573Y008035D01*
X006570Y007937D02*
X000360Y007937D01*
X000360Y007838D02*
X006570Y007838D01*
X006594Y007740D02*
X000360Y007740D01*
X000360Y007641D02*
X006635Y007641D01*
X006700Y007543D02*
X000360Y007543D01*
X000360Y007444D02*
X006799Y007444D01*
X006762Y007346D02*
X000360Y007346D01*
X000360Y007247D02*
X006664Y007247D01*
X006620Y007149D02*
X000360Y007149D01*
X000360Y007050D02*
X006579Y007050D01*
X006570Y006952D02*
X000360Y006952D01*
X000360Y006853D02*
X006570Y006853D01*
X006588Y006755D02*
X000360Y006755D01*
X000360Y006656D02*
X006629Y006656D01*
X006685Y006558D02*
X000360Y006558D01*
X000360Y006459D02*
X006784Y006459D01*
X006968Y006361D02*
X000360Y006361D01*
X000360Y006262D02*
X009390Y006262D01*
X009390Y006361D02*
X009332Y006361D01*
X009390Y006164D02*
X000360Y006164D01*
X000360Y006065D02*
X009390Y006065D01*
X009390Y005966D02*
X000360Y005966D01*
X000360Y005868D02*
X009390Y005868D01*
X009390Y005769D02*
X000360Y005769D01*
X000360Y005671D02*
X009390Y005671D01*
X009390Y005572D02*
X000360Y005572D01*
X000360Y005474D02*
X009390Y005474D01*
X009390Y005375D02*
X000360Y005375D01*
X000360Y005277D02*
X009390Y005277D01*
X009390Y005178D02*
X000360Y005178D01*
X000360Y005080D02*
X009390Y005080D01*
X009390Y004981D02*
X000360Y004981D01*
X000360Y004883D02*
X009390Y004883D01*
X009390Y004784D02*
X000360Y004784D01*
X000360Y004686D02*
X009390Y004686D01*
X009390Y004587D02*
X000360Y004587D01*
X000360Y004489D02*
X002025Y004489D01*
X001807Y004390D02*
X001358Y004390D01*
X001200Y004390D02*
X001100Y004390D01*
X001100Y004292D02*
X001200Y004292D01*
X001200Y004193D02*
X001100Y004193D01*
X001100Y004095D02*
X001200Y004095D01*
X001200Y003996D02*
X001100Y003996D01*
X001100Y003898D02*
X000360Y003898D01*
X000360Y003996D02*
X000637Y003996D01*
X000662Y004095D02*
X000360Y004095D01*
X000360Y004193D02*
X000711Y004193D01*
X000794Y004292D02*
X000360Y004292D01*
X000360Y004390D02*
X000942Y004390D01*
X001506Y004292D02*
X001709Y004292D01*
X001638Y004193D02*
X001589Y004193D01*
X001200Y003799D02*
X001100Y003799D01*
X001100Y003701D02*
X001200Y003701D01*
X001200Y003602D02*
X001100Y003602D01*
X001100Y003504D02*
X001200Y003504D01*
X001200Y003405D02*
X001100Y003405D01*
X001030Y003405D02*
X000360Y003405D01*
X000360Y003307D02*
X009638Y003307D01*
X009540Y003405D02*
X009440Y003405D01*
X009737Y003208D02*
X000360Y003208D01*
X000360Y003504D02*
X000828Y003504D01*
X000733Y003602D02*
X000360Y003602D01*
X000360Y003701D02*
X000674Y003701D01*
X000641Y003799D02*
X000360Y003799D01*
X001270Y003405D02*
X001860Y003405D01*
X001739Y003504D02*
X001472Y003504D01*
X001567Y003602D02*
X001651Y003602D01*
X002440Y003405D02*
X002860Y003405D01*
X002739Y003504D02*
X002561Y003504D01*
X002649Y003602D02*
X002651Y003602D01*
X003440Y003405D02*
X003860Y003405D01*
X003739Y003504D02*
X003561Y003504D01*
X003649Y003602D02*
X003651Y003602D01*
X004440Y003405D02*
X004860Y003405D01*
X004739Y003504D02*
X004561Y003504D01*
X004649Y003602D02*
X004651Y003602D01*
X005440Y003405D02*
X005860Y003405D01*
X005739Y003504D02*
X005561Y003504D01*
X005649Y003602D02*
X005651Y003602D01*
X006440Y003405D02*
X006860Y003405D01*
X006739Y003504D02*
X006561Y003504D01*
X006649Y003602D02*
X006651Y003602D01*
X007440Y003405D02*
X007860Y003405D01*
X007739Y003504D02*
X007561Y003504D01*
X007649Y003602D02*
X007651Y003602D01*
X008440Y003405D02*
X008860Y003405D01*
X008739Y003504D02*
X008561Y003504D01*
X008649Y003602D02*
X008651Y003602D01*
X008591Y004292D02*
X008709Y004292D01*
X008807Y004390D02*
X008493Y004390D01*
X008275Y004489D02*
X009025Y004489D01*
X009275Y004489D02*
X009390Y004489D01*
X008025Y004489D02*
X007275Y004489D01*
X007493Y004390D02*
X007807Y004390D01*
X007709Y004292D02*
X007591Y004292D01*
X007025Y004489D02*
X006275Y004489D01*
X006493Y004390D02*
X006807Y004390D01*
X006709Y004292D02*
X006591Y004292D01*
X006025Y004489D02*
X005275Y004489D01*
X005493Y004390D02*
X005807Y004390D01*
X005709Y004292D02*
X005591Y004292D01*
X005025Y004489D02*
X004275Y004489D01*
X004493Y004390D02*
X004807Y004390D01*
X004709Y004292D02*
X004591Y004292D01*
X004025Y004489D02*
X003275Y004489D01*
X003493Y004390D02*
X003807Y004390D01*
X003709Y004292D02*
X003591Y004292D01*
X003025Y004489D02*
X002275Y004489D01*
X002493Y004390D02*
X002807Y004390D01*
X002709Y004292D02*
X002591Y004292D01*
X007332Y006361D02*
X008968Y006361D01*
X008784Y006459D02*
X008404Y006459D01*
X008530Y006558D02*
X008685Y006558D01*
X008629Y006656D02*
X008603Y006656D01*
X008200Y006656D02*
X008100Y006656D01*
X008100Y006558D02*
X008200Y006558D01*
X008200Y006459D02*
X008100Y006459D01*
X007896Y006459D02*
X007516Y006459D01*
X007615Y006558D02*
X007770Y006558D01*
X007697Y006656D02*
X007671Y006656D01*
X008100Y006755D02*
X008200Y006755D01*
X008200Y006853D02*
X008100Y006853D01*
X010650Y007413D02*
X011150Y007913D01*
X010650Y007413D02*
X010650Y003663D01*
X010900Y003413D01*
X021650Y003413D01*
X022150Y003913D01*
X022912Y003307D02*
X024810Y003307D01*
X024810Y003405D02*
X024679Y003405D01*
X024730Y003504D02*
X024810Y003504D01*
X024810Y003602D02*
X024730Y003602D01*
X024730Y003701D02*
X024810Y003701D01*
X024810Y003799D02*
X024730Y003799D01*
X024730Y003898D02*
X024810Y003898D01*
X024810Y003996D02*
X024730Y003996D01*
X024730Y004095D02*
X024810Y004095D01*
X024810Y004193D02*
X024730Y004193D01*
X024730Y004292D02*
X024810Y004292D01*
X024810Y004390D02*
X024709Y004390D01*
X024611Y004489D02*
X024810Y004489D01*
X023570Y003504D02*
X023561Y003504D01*
X023621Y003405D02*
X023440Y003405D01*
X022813Y003208D02*
X024810Y003208D01*
X014100Y006863D02*
X013730Y006863D01*
X013730Y006963D01*
X014100Y006963D01*
X014100Y006863D01*
X014100Y006952D02*
X013730Y006952D01*
X013646Y008232D02*
X013654Y008232D01*
X013747Y008331D02*
X013553Y008331D01*
X013420Y008429D02*
X013814Y008429D01*
X009880Y008429D02*
X009420Y008429D01*
X009553Y008331D02*
X009747Y008331D01*
X009654Y008232D02*
X009646Y008232D01*
X008880Y008429D02*
X008420Y008429D01*
X008553Y008331D02*
X008747Y008331D01*
X008654Y008232D02*
X008646Y008232D01*
X007880Y008429D02*
X007420Y008429D01*
X007553Y008331D02*
X007747Y008331D01*
X007654Y008232D02*
X007646Y008232D01*
X002900Y010413D02*
X002650Y010163D01*
X002900Y010413D02*
X016650Y010413D01*
D14*
X018150Y008913D03*
X019150Y008913D03*
X020150Y007913D03*
X020900Y008913D03*
X019650Y006913D03*
X018400Y005413D03*
X016900Y004913D03*
X015150Y004913D03*
X007900Y004913D03*
X003150Y005913D03*
X000900Y008663D03*
X001650Y009413D03*
X009150Y008913D03*
X012650Y008913D03*
X022900Y005663D03*
M02*
