G75*
G70*
%OFA0B0*%
%FSLAX24Y24*%
%IPPOS*%
%LPD*%
%AMOC8*
5,1,8,0,0,1.08239X$1,22.5*
%
%ADD10C,0.0000*%
%ADD11R,0.0740X0.0740*%
%ADD12C,0.0740*%
%ADD13C,0.0100*%
%ADD14OC8,0.0413*%
D10*
X000150Y002913D02*
X025020Y002913D01*
X025020Y010909D01*
X000150Y010909D01*
X000150Y002913D01*
D11*
X020150Y003913D03*
X024150Y003913D03*
X024150Y009913D03*
X020150Y009913D03*
D12*
X019150Y009913D03*
X018150Y009913D03*
X017150Y009913D03*
X016150Y009913D03*
X015150Y009913D03*
X014150Y009913D03*
X013150Y009913D03*
X012150Y009913D03*
X011150Y009913D03*
X010150Y009913D03*
X009150Y009913D03*
X008150Y009913D03*
X007150Y009913D03*
X006150Y009913D03*
X005150Y009913D03*
X004150Y009913D03*
X003150Y009913D03*
X002150Y009913D03*
X001150Y009913D03*
X002150Y008913D03*
X004150Y008913D03*
X005150Y008913D03*
X006150Y008913D03*
X007150Y007913D03*
X008150Y007913D03*
X009150Y007913D03*
X010150Y007913D03*
X011150Y007913D03*
X012150Y007913D03*
X013150Y007913D03*
X014150Y007913D03*
X014150Y008913D03*
X014150Y006913D03*
X013150Y006913D03*
X012150Y006913D03*
X011150Y006913D03*
X010150Y006913D03*
X009150Y006913D03*
X008150Y006913D03*
X007150Y006913D03*
X007150Y003913D03*
X006150Y003913D03*
X005150Y003913D03*
X004150Y003913D03*
X003150Y003913D03*
X002150Y003913D03*
X001150Y003913D03*
X008150Y003913D03*
X009150Y003913D03*
X010150Y003913D03*
X011150Y003913D03*
X012150Y003913D03*
X013150Y003913D03*
X014150Y003913D03*
X015150Y003913D03*
X016150Y003913D03*
X017150Y003913D03*
X018150Y003913D03*
X019150Y003913D03*
X021150Y003913D03*
X022150Y003913D03*
X023150Y003913D03*
X014150Y004913D03*
X014150Y005913D03*
X021150Y009913D03*
X022150Y009913D03*
X023150Y009913D03*
D13*
X022650Y010413D01*
X000900Y010413D01*
X000650Y010163D01*
X000650Y008913D01*
X000900Y008663D01*
X000400Y008413D02*
X000650Y008163D01*
X004400Y008163D01*
X005150Y008913D01*
X005650Y008604D02*
X005658Y008584D01*
X005821Y008421D01*
X006035Y008333D01*
X006265Y008333D01*
X006479Y008421D01*
X006642Y008584D01*
X006730Y008798D01*
X006730Y009028D01*
X006642Y009242D01*
X006479Y009405D01*
X006459Y009413D01*
X006479Y009421D01*
X006642Y009584D01*
X006650Y009604D01*
X006658Y009584D01*
X006821Y009421D01*
X007035Y009333D01*
X007202Y009333D01*
X007003Y009133D01*
X006930Y009060D01*
X006890Y008965D01*
X006890Y008433D01*
X006821Y008405D01*
X006658Y008242D01*
X006570Y008028D01*
X006570Y007798D01*
X006658Y007584D01*
X006821Y007421D01*
X006841Y007413D01*
X006821Y007405D01*
X006658Y007242D01*
X006570Y007028D01*
X006570Y006798D01*
X006658Y006584D01*
X006821Y006421D01*
X007035Y006333D01*
X007265Y006333D01*
X007479Y006421D01*
X007642Y006584D01*
X007683Y006684D01*
X007705Y006640D01*
X007753Y006574D01*
X007811Y006516D01*
X007877Y006468D01*
X007950Y006431D01*
X008028Y006406D01*
X008100Y006394D01*
X008100Y006863D01*
X008200Y006863D01*
X008200Y006394D01*
X008272Y006406D01*
X008350Y006431D01*
X008390Y006452D01*
X008390Y004441D01*
X008265Y004493D01*
X008035Y004493D01*
X007821Y004405D01*
X007658Y004242D01*
X007650Y004221D01*
X007642Y004242D01*
X007479Y004405D01*
X007265Y004493D01*
X007035Y004493D01*
X006821Y004405D01*
X006658Y004242D01*
X006650Y004221D01*
X006642Y004242D01*
X006479Y004405D01*
X006265Y004493D01*
X006035Y004493D01*
X005821Y004405D01*
X005658Y004242D01*
X005650Y004221D01*
X005642Y004242D01*
X005479Y004405D01*
X005265Y004493D01*
X005035Y004493D01*
X004821Y004405D01*
X004658Y004242D01*
X004650Y004221D01*
X004642Y004242D01*
X004479Y004405D01*
X004265Y004493D01*
X004035Y004493D01*
X003821Y004405D01*
X003658Y004242D01*
X003650Y004221D01*
X003642Y004242D01*
X003479Y004405D01*
X003265Y004493D01*
X003035Y004493D01*
X002821Y004405D01*
X002658Y004242D01*
X002650Y004221D01*
X002642Y004242D01*
X002479Y004405D01*
X002265Y004493D01*
X002035Y004493D01*
X001821Y004405D01*
X001658Y004242D01*
X001617Y004142D01*
X001595Y004186D01*
X001547Y004252D01*
X001489Y004310D01*
X001423Y004358D01*
X001350Y004395D01*
X001272Y004420D01*
X001200Y004432D01*
X001200Y003963D01*
X001100Y003963D01*
X001100Y004432D01*
X001028Y004420D01*
X000950Y004395D01*
X000877Y004358D01*
X000811Y004310D01*
X000753Y004252D01*
X000705Y004186D01*
X000668Y004113D01*
X000643Y004035D01*
X000631Y003963D01*
X001100Y003963D01*
X001100Y003863D01*
X000631Y003863D01*
X000643Y003791D01*
X000668Y003713D01*
X000705Y003640D01*
X000753Y003574D01*
X000811Y003516D01*
X000877Y003468D01*
X000950Y003431D01*
X001028Y003406D01*
X001100Y003394D01*
X001100Y003863D01*
X001200Y003863D01*
X001200Y003394D01*
X001272Y003406D01*
X001350Y003431D01*
X001423Y003468D01*
X001489Y003516D01*
X001547Y003574D01*
X001595Y003640D01*
X001617Y003684D01*
X001658Y003584D01*
X001821Y003421D01*
X002035Y003333D01*
X002265Y003333D01*
X002479Y003421D01*
X002642Y003584D01*
X002650Y003604D01*
X002658Y003584D01*
X002821Y003421D01*
X003035Y003333D01*
X003265Y003333D01*
X003479Y003421D01*
X003642Y003584D01*
X003650Y003604D01*
X003658Y003584D01*
X003821Y003421D01*
X004035Y003333D01*
X004265Y003333D01*
X004479Y003421D01*
X004642Y003584D01*
X004650Y003604D01*
X004658Y003584D01*
X004821Y003421D01*
X005035Y003333D01*
X005265Y003333D01*
X005479Y003421D01*
X005642Y003584D01*
X005650Y003604D01*
X005658Y003584D01*
X005821Y003421D01*
X006035Y003333D01*
X006265Y003333D01*
X006479Y003421D01*
X006642Y003584D01*
X006650Y003604D01*
X006658Y003584D01*
X006821Y003421D01*
X007035Y003333D01*
X007265Y003333D01*
X007479Y003421D01*
X007642Y003584D01*
X007650Y003604D01*
X007658Y003584D01*
X007821Y003421D01*
X008035Y003333D01*
X008265Y003333D01*
X008479Y003421D01*
X008501Y003444D01*
X008503Y003443D01*
X008822Y003123D01*
X000360Y003123D01*
X000360Y008085D01*
X000430Y008016D01*
X000503Y007943D01*
X000598Y007903D01*
X004452Y007903D01*
X004547Y007943D01*
X004966Y008361D01*
X005035Y008333D01*
X005265Y008333D01*
X005479Y008421D01*
X005642Y008584D01*
X005650Y008604D01*
X005585Y008528D02*
X005715Y008528D01*
X005814Y008429D02*
X005486Y008429D01*
X004935Y008331D02*
X006747Y008331D01*
X006654Y008232D02*
X004837Y008232D01*
X004738Y008134D02*
X006614Y008134D01*
X006573Y008035D02*
X004640Y008035D01*
X004533Y007937D02*
X006570Y007937D01*
X006570Y007838D02*
X000360Y007838D01*
X000360Y007740D02*
X006594Y007740D01*
X006635Y007641D02*
X000360Y007641D01*
X000360Y007543D02*
X006700Y007543D01*
X006799Y007444D02*
X000360Y007444D01*
X000360Y007346D02*
X006762Y007346D01*
X006664Y007247D02*
X000360Y007247D01*
X000360Y007149D02*
X006620Y007149D01*
X006579Y007050D02*
X000360Y007050D01*
X000360Y006952D02*
X006570Y006952D01*
X006570Y006853D02*
X000360Y006853D01*
X000360Y006755D02*
X006588Y006755D01*
X006629Y006656D02*
X000360Y006656D01*
X000360Y006558D02*
X006685Y006558D01*
X006784Y006459D02*
X000360Y006459D01*
X000360Y006361D02*
X006968Y006361D01*
X007332Y006361D02*
X008390Y006361D01*
X008390Y006262D02*
X000360Y006262D01*
X000360Y006164D02*
X008390Y006164D01*
X008390Y006065D02*
X000360Y006065D01*
X000360Y005966D02*
X008390Y005966D01*
X008390Y005868D02*
X000360Y005868D01*
X000360Y005769D02*
X008390Y005769D01*
X008390Y005671D02*
X000360Y005671D01*
X000360Y005572D02*
X008390Y005572D01*
X008390Y005474D02*
X000360Y005474D01*
X000360Y005375D02*
X008390Y005375D01*
X008390Y005277D02*
X000360Y005277D01*
X000360Y005178D02*
X008390Y005178D01*
X008390Y005080D02*
X000360Y005080D01*
X000360Y004981D02*
X008390Y004981D01*
X008390Y004883D02*
X000360Y004883D01*
X000360Y004784D02*
X008390Y004784D01*
X008390Y004686D02*
X000360Y004686D01*
X000360Y004587D02*
X008390Y004587D01*
X008390Y004489D02*
X008275Y004489D01*
X008025Y004489D02*
X007275Y004489D01*
X007493Y004390D02*
X007807Y004390D01*
X007709Y004292D02*
X007591Y004292D01*
X007025Y004489D02*
X006275Y004489D01*
X006493Y004390D02*
X006807Y004390D01*
X006709Y004292D02*
X006591Y004292D01*
X006025Y004489D02*
X005275Y004489D01*
X005493Y004390D02*
X005807Y004390D01*
X005709Y004292D02*
X005591Y004292D01*
X005025Y004489D02*
X004275Y004489D01*
X004493Y004390D02*
X004807Y004390D01*
X004709Y004292D02*
X004591Y004292D01*
X004025Y004489D02*
X003275Y004489D01*
X003493Y004390D02*
X003807Y004390D01*
X003709Y004292D02*
X003591Y004292D01*
X003025Y004489D02*
X002275Y004489D01*
X002493Y004390D02*
X002807Y004390D01*
X002709Y004292D02*
X002591Y004292D01*
X002025Y004489D02*
X000360Y004489D01*
X000360Y004390D02*
X000942Y004390D01*
X001100Y004390D02*
X001200Y004390D01*
X001200Y004292D02*
X001100Y004292D01*
X001100Y004193D02*
X001200Y004193D01*
X001200Y004095D02*
X001100Y004095D01*
X001100Y003996D02*
X001200Y003996D01*
X001100Y003898D02*
X000360Y003898D01*
X000360Y003996D02*
X000637Y003996D01*
X000662Y004095D02*
X000360Y004095D01*
X000360Y004193D02*
X000711Y004193D01*
X000794Y004292D02*
X000360Y004292D01*
X001358Y004390D02*
X001807Y004390D01*
X001709Y004292D02*
X001506Y004292D01*
X001589Y004193D02*
X001638Y004193D01*
X001200Y003799D02*
X001100Y003799D01*
X001100Y003701D02*
X001200Y003701D01*
X001200Y003602D02*
X001100Y003602D01*
X001100Y003504D02*
X001200Y003504D01*
X001200Y003405D02*
X001100Y003405D01*
X001030Y003405D02*
X000360Y003405D01*
X000360Y003307D02*
X008638Y003307D01*
X008540Y003405D02*
X008440Y003405D01*
X008503Y003443D02*
X008503Y003443D01*
X008650Y003663D02*
X008650Y007413D01*
X009150Y007913D01*
X007900Y008413D02*
X007650Y008163D01*
X007650Y007413D01*
X007150Y006913D01*
X007671Y006656D02*
X007697Y006656D01*
X007770Y006558D02*
X007615Y006558D01*
X007516Y006459D02*
X007896Y006459D01*
X008100Y006459D02*
X008200Y006459D01*
X008200Y006558D02*
X008100Y006558D01*
X008100Y006656D02*
X008200Y006656D01*
X008200Y006755D02*
X008100Y006755D01*
X008100Y006853D02*
X008200Y006853D01*
X009150Y006913D02*
X009150Y004913D01*
X009650Y004413D01*
X014650Y004413D01*
X015150Y003913D01*
X015591Y004292D02*
X015709Y004292D01*
X015658Y004242D02*
X015650Y004221D01*
X015642Y004242D01*
X015479Y004405D01*
X015265Y004493D01*
X015035Y004493D01*
X014966Y004465D01*
X014797Y004633D01*
X014702Y004673D01*
X014678Y004673D01*
X014730Y004798D01*
X014730Y005028D01*
X014678Y005153D01*
X015542Y005153D01*
X015890Y004805D01*
X015890Y004433D01*
X015821Y004405D01*
X015658Y004242D01*
X015807Y004390D02*
X015493Y004390D01*
X015275Y004489D02*
X015890Y004489D01*
X015890Y004587D02*
X014843Y004587D01*
X014942Y004489D02*
X015025Y004489D01*
X014684Y004686D02*
X015890Y004686D01*
X015890Y004784D02*
X014725Y004784D01*
X014730Y004883D02*
X015812Y004883D01*
X015714Y004981D02*
X014730Y004981D01*
X014709Y005080D02*
X015615Y005080D01*
X015650Y005413D02*
X016150Y004913D01*
X016150Y003913D01*
X016591Y004292D02*
X016709Y004292D01*
X016658Y004242D02*
X016821Y004405D01*
X017035Y004493D01*
X017265Y004493D01*
X017479Y004405D01*
X017642Y004242D01*
X017650Y004221D01*
X017658Y004242D01*
X017821Y004405D01*
X018035Y004493D01*
X018265Y004493D01*
X018479Y004405D01*
X018642Y004242D01*
X018650Y004221D01*
X018658Y004242D01*
X018821Y004405D01*
X018890Y004433D01*
X018890Y005805D01*
X018542Y006153D01*
X014678Y006153D01*
X014730Y006028D01*
X014730Y005798D01*
X014678Y005673D01*
X015702Y005673D01*
X015797Y005633D01*
X016297Y005133D01*
X016370Y005060D01*
X016410Y004965D01*
X016410Y004433D01*
X016479Y004405D01*
X016642Y004242D01*
X016650Y004221D01*
X016658Y004242D01*
X016807Y004390D02*
X016493Y004390D01*
X016410Y004489D02*
X017025Y004489D01*
X017275Y004489D02*
X018025Y004489D01*
X017807Y004390D02*
X017493Y004390D01*
X017591Y004292D02*
X017709Y004292D01*
X018275Y004489D02*
X018890Y004489D01*
X018890Y004587D02*
X016410Y004587D01*
X016410Y004686D02*
X018890Y004686D01*
X018890Y004784D02*
X016410Y004784D01*
X016410Y004883D02*
X018890Y004883D01*
X018890Y004981D02*
X016403Y004981D01*
X016351Y005080D02*
X018890Y005080D01*
X018890Y005178D02*
X016252Y005178D01*
X016154Y005277D02*
X018890Y005277D01*
X018890Y005375D02*
X016055Y005375D01*
X015957Y005474D02*
X018890Y005474D01*
X018890Y005572D02*
X015858Y005572D01*
X015707Y005671D02*
X018890Y005671D01*
X018890Y005769D02*
X014718Y005769D01*
X014730Y005868D02*
X018827Y005868D01*
X018729Y005966D02*
X014730Y005966D01*
X014715Y006065D02*
X018630Y006065D01*
X018650Y006413D02*
X019150Y005913D01*
X019150Y003913D01*
X018709Y004292D02*
X018591Y004292D01*
X018493Y004390D02*
X018807Y004390D01*
X019650Y005163D02*
X020150Y004663D01*
X020900Y004663D01*
X021150Y004413D01*
X021150Y003913D01*
X021591Y004292D02*
X021709Y004292D01*
X021658Y004242D02*
X021821Y004405D01*
X022035Y004493D01*
X022265Y004493D01*
X022479Y004405D01*
X022642Y004242D01*
X022650Y004221D01*
X022658Y004242D01*
X022821Y004405D01*
X023035Y004493D01*
X023265Y004493D01*
X023479Y004405D01*
X023570Y004313D01*
X023570Y004370D01*
X023693Y004493D01*
X024607Y004493D01*
X024730Y004370D01*
X024730Y003456D01*
X024607Y003333D01*
X023938Y003333D01*
X023728Y003123D01*
X024810Y003123D01*
X024810Y010699D01*
X023732Y010699D01*
X023938Y010493D01*
X024607Y010493D01*
X024730Y010370D01*
X024730Y009456D01*
X024607Y009333D01*
X023693Y009333D01*
X023570Y009456D01*
X023570Y009513D01*
X023479Y009421D01*
X023265Y009333D01*
X023035Y009333D01*
X022821Y009421D01*
X022658Y009584D01*
X022650Y009604D01*
X022642Y009584D01*
X022479Y009421D01*
X022410Y009393D01*
X022410Y008965D01*
X022410Y008861D01*
X022370Y008766D01*
X021797Y008193D01*
X021702Y008153D01*
X020499Y008153D01*
X020567Y008086D01*
X020567Y007740D01*
X020323Y007496D01*
X019977Y007496D01*
X019821Y007653D01*
X014750Y007653D01*
X014797Y007633D01*
X015508Y006923D01*
X019202Y006923D01*
X019297Y006883D01*
X019797Y006383D01*
X019870Y006310D01*
X019910Y006215D01*
X019910Y005271D01*
X020258Y004923D01*
X020952Y004923D01*
X021047Y004883D01*
X021297Y004633D01*
X021370Y004560D01*
X021410Y004465D01*
X021410Y004433D01*
X021479Y004405D01*
X021642Y004242D01*
X021650Y004221D01*
X021658Y004242D01*
X021807Y004390D02*
X021493Y004390D01*
X021400Y004489D02*
X022025Y004489D01*
X022275Y004489D02*
X023025Y004489D01*
X022807Y004390D02*
X022493Y004390D01*
X022591Y004292D02*
X022709Y004292D01*
X023275Y004489D02*
X023689Y004489D01*
X023591Y004390D02*
X023493Y004390D01*
X024150Y003913D02*
X023400Y003163D01*
X009150Y003163D01*
X008650Y003663D01*
X008737Y003208D02*
X000360Y003208D01*
X000360Y003504D02*
X000828Y003504D01*
X000733Y003602D02*
X000360Y003602D01*
X000360Y003701D02*
X000674Y003701D01*
X000641Y003799D02*
X000360Y003799D01*
X001270Y003405D02*
X001860Y003405D01*
X001739Y003504D02*
X001472Y003504D01*
X001567Y003602D02*
X001651Y003602D01*
X002440Y003405D02*
X002860Y003405D01*
X002739Y003504D02*
X002561Y003504D01*
X002649Y003602D02*
X002651Y003602D01*
X003440Y003405D02*
X003860Y003405D01*
X003739Y003504D02*
X003561Y003504D01*
X003649Y003602D02*
X003651Y003602D01*
X004440Y003405D02*
X004860Y003405D01*
X004739Y003504D02*
X004561Y003504D01*
X004649Y003602D02*
X004651Y003602D01*
X005440Y003405D02*
X005860Y003405D01*
X005739Y003504D02*
X005561Y003504D01*
X005649Y003602D02*
X005651Y003602D01*
X006440Y003405D02*
X006860Y003405D01*
X006739Y003504D02*
X006561Y003504D01*
X006649Y003602D02*
X006651Y003602D01*
X007440Y003405D02*
X007860Y003405D01*
X007739Y003504D02*
X007561Y003504D01*
X007649Y003602D02*
X007651Y003602D01*
X010150Y005913D02*
X010650Y005413D01*
X015650Y005413D01*
X013650Y006413D02*
X013150Y006913D01*
X013650Y006413D02*
X018650Y006413D01*
X019150Y006663D02*
X019650Y006163D01*
X019650Y005163D01*
X019910Y005277D02*
X024810Y005277D01*
X024810Y005375D02*
X019910Y005375D01*
X019910Y005474D02*
X024810Y005474D01*
X024810Y005572D02*
X019910Y005572D01*
X019910Y005671D02*
X024810Y005671D01*
X024810Y005769D02*
X019910Y005769D01*
X019910Y005868D02*
X024810Y005868D01*
X024810Y005966D02*
X019910Y005966D01*
X019910Y006065D02*
X024810Y006065D01*
X024810Y006164D02*
X019910Y006164D01*
X019890Y006262D02*
X024810Y006262D01*
X024810Y006361D02*
X019820Y006361D01*
X019722Y006459D02*
X024810Y006459D01*
X024810Y006558D02*
X019623Y006558D01*
X019525Y006656D02*
X024810Y006656D01*
X024810Y006755D02*
X019426Y006755D01*
X019328Y006853D02*
X024810Y006853D01*
X024810Y006952D02*
X015479Y006952D01*
X015381Y007050D02*
X024810Y007050D01*
X024810Y007149D02*
X015282Y007149D01*
X015184Y007247D02*
X024810Y007247D01*
X024810Y007346D02*
X015085Y007346D01*
X014987Y007444D02*
X024810Y007444D01*
X024810Y007543D02*
X020369Y007543D01*
X020467Y007641D02*
X024810Y007641D01*
X024810Y007740D02*
X020566Y007740D01*
X020567Y007838D02*
X024810Y007838D01*
X024810Y007937D02*
X020567Y007937D01*
X020567Y008035D02*
X024810Y008035D01*
X024810Y008134D02*
X020519Y008134D01*
X020150Y007913D02*
X014150Y007913D01*
X014779Y007641D02*
X019833Y007641D01*
X019931Y007543D02*
X014888Y007543D01*
X014650Y007413D02*
X015400Y006663D01*
X019150Y006663D01*
X020002Y005178D02*
X024810Y005178D01*
X024810Y005080D02*
X020101Y005080D01*
X020199Y004981D02*
X024810Y004981D01*
X024810Y004883D02*
X021048Y004883D01*
X021146Y004784D02*
X024810Y004784D01*
X024810Y004686D02*
X021245Y004686D01*
X021343Y004587D02*
X024810Y004587D01*
X024810Y004489D02*
X024611Y004489D01*
X024709Y004390D02*
X024810Y004390D01*
X024810Y004292D02*
X024730Y004292D01*
X024730Y004193D02*
X024810Y004193D01*
X024810Y004095D02*
X024730Y004095D01*
X024730Y003996D02*
X024810Y003996D01*
X024810Y003898D02*
X024730Y003898D01*
X024730Y003799D02*
X024810Y003799D01*
X024810Y003701D02*
X024730Y003701D01*
X024730Y003602D02*
X024810Y003602D01*
X024810Y003504D02*
X024730Y003504D01*
X024679Y003405D02*
X024810Y003405D01*
X024810Y003307D02*
X023912Y003307D01*
X023813Y003208D02*
X024810Y003208D01*
X015022Y006673D02*
X014611Y006673D01*
X014632Y006713D01*
X014657Y006791D01*
X014669Y006863D01*
X014200Y006863D01*
X014200Y006963D01*
X014669Y006963D01*
X014657Y007035D01*
X014656Y007040D01*
X015022Y006673D01*
X014941Y006755D02*
X014645Y006755D01*
X014667Y006853D02*
X014842Y006853D01*
X014744Y006952D02*
X014200Y006952D01*
X014650Y007413D02*
X012650Y007413D01*
X012150Y007913D01*
X013622Y008673D02*
X007848Y008673D01*
X007753Y008633D01*
X007503Y008383D01*
X007501Y008382D01*
X007479Y008405D01*
X007410Y008433D01*
X007410Y008805D01*
X007758Y009153D01*
X013622Y009153D01*
X013570Y009028D01*
X013570Y008798D01*
X013622Y008673D01*
X013600Y008725D02*
X007410Y008725D01*
X007410Y008626D02*
X007745Y008626D01*
X007647Y008528D02*
X007410Y008528D01*
X007420Y008429D02*
X007548Y008429D01*
X007900Y008413D02*
X021650Y008413D01*
X022150Y008913D01*
X022150Y009913D01*
X021650Y009604D02*
X021658Y009584D01*
X021821Y009421D01*
X021890Y009393D01*
X021890Y009021D01*
X021542Y008673D01*
X018499Y008673D01*
X018567Y008740D01*
X018567Y009086D01*
X018499Y009153D01*
X020702Y009153D01*
X020797Y009193D01*
X020870Y009266D01*
X020966Y009361D01*
X021035Y009333D01*
X021265Y009333D01*
X021479Y009421D01*
X021642Y009584D01*
X021650Y009604D01*
X021570Y009513D02*
X021730Y009513D01*
X021839Y009414D02*
X021461Y009414D01*
X021890Y009316D02*
X020920Y009316D01*
X020822Y009217D02*
X021890Y009217D01*
X021890Y009119D02*
X018534Y009119D01*
X018567Y009020D02*
X021889Y009020D01*
X021791Y008922D02*
X018567Y008922D01*
X018567Y008823D02*
X021692Y008823D01*
X021594Y008725D02*
X018551Y008725D01*
X018150Y008913D02*
X014150Y008913D01*
X013570Y008922D02*
X007526Y008922D01*
X007625Y009020D02*
X013570Y009020D01*
X013607Y009119D02*
X007723Y009119D01*
X007650Y009413D02*
X007150Y008913D01*
X007150Y007913D01*
X006880Y008429D02*
X006486Y008429D01*
X006585Y008528D02*
X006890Y008528D01*
X006890Y008626D02*
X006659Y008626D01*
X006700Y008725D02*
X006890Y008725D01*
X006890Y008823D02*
X006730Y008823D01*
X006730Y008922D02*
X006890Y008922D01*
X006913Y009020D02*
X006730Y009020D01*
X006693Y009119D02*
X006988Y009119D01*
X007086Y009217D02*
X006652Y009217D01*
X006568Y009316D02*
X007185Y009316D01*
X006839Y009414D02*
X006461Y009414D01*
X006570Y009513D02*
X006730Y009513D01*
X007650Y009413D02*
X020650Y009413D01*
X021150Y009913D01*
X022410Y009316D02*
X024810Y009316D01*
X024810Y009414D02*
X024688Y009414D01*
X024730Y009513D02*
X024810Y009513D01*
X024810Y009611D02*
X024730Y009611D01*
X024730Y009710D02*
X024810Y009710D01*
X024810Y009808D02*
X024730Y009808D01*
X024730Y009907D02*
X024810Y009907D01*
X024810Y010005D02*
X024730Y010005D01*
X024730Y010104D02*
X024810Y010104D01*
X024810Y010202D02*
X024730Y010202D01*
X024730Y010301D02*
X024810Y010301D01*
X024810Y010399D02*
X024701Y010399D01*
X024810Y010498D02*
X023933Y010498D01*
X023835Y010596D02*
X024810Y010596D01*
X024810Y010695D02*
X023736Y010695D01*
X023400Y010663D02*
X000800Y010663D01*
X000400Y010263D01*
X000400Y008413D01*
X000410Y008035D02*
X000360Y008035D01*
X000360Y007937D02*
X000517Y007937D01*
X002400Y009413D02*
X002900Y008913D01*
X004150Y008913D01*
X002400Y009413D02*
X001650Y009413D01*
X007428Y008823D02*
X013570Y008823D01*
X010150Y006913D02*
X010150Y005913D01*
X021837Y008232D02*
X024810Y008232D01*
X024810Y008331D02*
X021935Y008331D01*
X022034Y008429D02*
X024810Y008429D01*
X024810Y008528D02*
X022132Y008528D01*
X022231Y008626D02*
X024810Y008626D01*
X024810Y008725D02*
X022329Y008725D01*
X022394Y008823D02*
X024810Y008823D01*
X024810Y008922D02*
X022410Y008922D01*
X022410Y009020D02*
X024810Y009020D01*
X024810Y009119D02*
X022410Y009119D01*
X022410Y009217D02*
X024810Y009217D01*
X024150Y009913D02*
X023400Y010663D01*
X023570Y009513D02*
X023570Y009513D01*
X023612Y009414D02*
X023461Y009414D01*
X022839Y009414D02*
X022461Y009414D01*
X022570Y009513D02*
X022730Y009513D01*
D14*
X020900Y008913D03*
X020150Y007913D03*
X019150Y008913D03*
X018150Y008913D03*
X019650Y006913D03*
X018400Y005413D03*
X016900Y004913D03*
X015150Y004913D03*
X007900Y004913D03*
X003150Y005913D03*
X000900Y008663D03*
X001650Y009413D03*
X009150Y008913D03*
X012650Y008913D03*
X022900Y005663D03*
M02*
