%
M48
M72
T01C0.0276
T02C0.0400
%
T01
X18150Y8913
X3150Y5913
X7900Y4913
X15150Y4913
X16900Y4913
X18400Y5413
X19650Y6913
X19150Y8913
X20900Y8913
X22900Y5663
X9150Y8913
X12650Y8913
X1650Y9413
X900Y8663
X20150Y7913
T02
X20150Y3913
X19150Y3913
X18150Y3913
X17150Y3913
X16150Y3913
X15150Y3913
X14150Y3913
X13150Y3913
X12150Y3913
X11150Y3913
X10150Y3913
X9150Y3913
X8150Y3913
X7150Y3913
X6150Y3913
X5150Y3913
X4150Y3913
X3150Y3913
X2150Y3913
X1150Y3913
X20150Y9913
X19150Y9913
X18150Y9913
X17150Y9913
X16150Y9913
X15150Y9913
X14150Y9913
X13150Y9913
X12150Y9913
X11150Y9913
X10150Y9913
X9150Y9913
X8150Y9913
X7150Y9913
X6150Y9913
X5150Y9913
X4150Y9913
X3150Y9913
X2150Y9913
X1150Y9913
X7150Y7913
X8150Y7913
X9150Y7913
X10150Y7913
X11150Y7913
X12150Y7913
X13150Y7913
X7150Y6913
X8150Y6913
X9150Y6913
X10150Y6913
X11150Y6913
X12150Y6913
X13150Y6913
X4150Y8913
X5150Y8913
X6150Y8913
X2150Y8913
X14150Y4913
X14150Y5913
X14150Y6913
X14150Y7913
X14150Y8913
X24150Y3913
X23150Y3913
X22150Y3913
X21150Y3913
X24150Y9913
X23150Y9913
X22150Y9913
X21150Y9913
M30
