G75*
G70*
%OFA0B0*%
%FSLAX24Y24*%
%IPPOS*%
%LPD*%
%AMOC8*
5,1,8,0,0,1.08239X$1,22.5*
%
%ADD10C,0.0000*%
%ADD11R,0.0780X0.0780*%
%ADD12C,0.0780*%
D10*
X000150Y002913D02*
X025020Y002913D01*
X025020Y010909D01*
X000150Y010909D01*
X000150Y002913D01*
D11*
X020150Y003913D03*
X024150Y003913D03*
X024150Y009913D03*
X020150Y009913D03*
D12*
X019150Y009913D03*
X018150Y009913D03*
X017150Y009913D03*
X016150Y009913D03*
X015150Y009913D03*
X014150Y009913D03*
X013150Y009913D03*
X012150Y009913D03*
X011150Y009913D03*
X010150Y009913D03*
X009150Y009913D03*
X008150Y009913D03*
X007150Y009913D03*
X006150Y009913D03*
X005150Y009913D03*
X004150Y009913D03*
X003150Y009913D03*
X002150Y009913D03*
X001150Y009913D03*
X002150Y008913D03*
X004150Y008913D03*
X005150Y008913D03*
X006150Y008913D03*
X007150Y007913D03*
X008150Y007913D03*
X009150Y007913D03*
X010150Y007913D03*
X011150Y007913D03*
X012150Y007913D03*
X013150Y007913D03*
X014150Y007913D03*
X014150Y008913D03*
X014150Y006913D03*
X013150Y006913D03*
X012150Y006913D03*
X011150Y006913D03*
X010150Y006913D03*
X009150Y006913D03*
X008150Y006913D03*
X007150Y006913D03*
X007150Y003913D03*
X006150Y003913D03*
X005150Y003913D03*
X004150Y003913D03*
X003150Y003913D03*
X002150Y003913D03*
X001150Y003913D03*
X008150Y003913D03*
X009150Y003913D03*
X010150Y003913D03*
X011150Y003913D03*
X012150Y003913D03*
X013150Y003913D03*
X014150Y003913D03*
X015150Y003913D03*
X016150Y003913D03*
X017150Y003913D03*
X018150Y003913D03*
X019150Y003913D03*
X021150Y003913D03*
X022150Y003913D03*
X023150Y003913D03*
X014150Y004913D03*
X014150Y005913D03*
X021150Y009913D03*
X022150Y009913D03*
X023150Y009913D03*
M02*
